<svg width="70" height="70" viewBox="0 0 70 70" fill="none" xmlns="http://www.w3.org/2000/svg">
<path d="M10.3906 28.8477C11.5232 28.8477 12.4414 27.9295 12.4414 26.7969C12.4414 25.6643 11.5232 24.7461 10.3906 24.7461C9.25801 24.7461 8.33984 25.6643 8.33984 26.7969C8.33984 27.9295 9.25801 28.8477 10.3906 28.8477Z" fill="#FBFBFB"/>
<path d="M18.5938 28.8477C19.7264 28.8477 20.6445 27.9295 20.6445 26.7969C20.6445 25.6643 19.7264 24.7461 18.5938 24.7461C17.4611 24.7461 16.543 25.6643 16.543 26.7969C16.543 27.9295 17.4611 28.8477 18.5938 28.8477Z" fill="#FBFBFB"/>
<path d="M26.7969 28.8477C27.9295 28.8477 28.8477 27.9295 28.8477 26.7969C28.8477 25.6643 27.9295 24.7461 26.7969 24.7461C25.6643 24.7461 24.7461 25.6643 24.7461 26.7969C24.7461 27.9295 25.6643 28.8477 26.7969 28.8477Z" fill="#FBFBFB"/>
<path d="M59.6026 60.8836L51.0023 54.4824H18.9992L10.3613 60.8843C10.4215 62.3745 11.0203 63.8477 12.1578 64.9852C14.5613 67.3873 18.4564 67.3873 20.8586 64.9852L21.9578 63.8873C22.7262 63.1176 23.7693 62.6855 24.8576 62.6855H45.1084C46.1967 62.6855 47.2398 63.1176 48.0096 63.8873L49.1074 64.9852C51.5096 67.3873 55.4061 67.3873 57.8082 64.9852C58.9457 63.8477 59.5425 62.3752 59.6026 60.8836Z" fill="#FBFBFB"/>
<path d="M57.8075 56.2844C59.0721 57.549 59.6689 59.2266 59.6019 60.8836C57.1998 63.2857 53.3012 63.2857 50.8991 60.8836L49.8012 59.7857C49.0315 59.016 47.9883 58.584 46.9001 58.584H23.1C22.0118 58.584 20.9686 59.016 20.1989 59.7857L19.101 60.8836C16.6989 63.2857 12.7627 63.2864 10.3606 60.8843C10.2936 59.2272 10.8924 57.549 12.1571 56.2844L13.959 54.4824L12.1571 52.6805C9.75493 50.2783 9.75493 46.3818 12.1571 43.9797C14.5606 41.5775 18.4557 41.5775 20.8579 43.9797L21.9571 45.0775C22.7254 45.8473 23.7686 46.2793 24.8569 46.2793H30.0139L31.7393 43.8512C32.4858 42.8012 33.6944 42.1777 34.9823 42.1777C36.2702 42.1777 37.4788 42.8012 38.2252 43.8512L39.9506 46.2793H45.1077C46.1959 46.2793 47.2391 45.8473 48.0088 45.0775L49.1067 43.9797C51.5088 41.5775 55.4053 41.5775 57.8075 43.9797C60.2096 46.3818 60.2096 50.2783 57.8075 52.6805L56.0055 54.4824L57.8075 56.2844Z" fill="#FBFBFB"/>
<path d="M64.873 11.416L57.5586 33.9746H60.7715C65.3019 33.9746 68.9746 30.3019 68.9746 25.7715V11.416H64.873Z" fill="#FBFBFB"/>
<path d="M1.02539 11.416V25.7715C1.02539 30.3019 4.69807 33.9746 9.22852 33.9746H57.5586C61.5982 33.9746 64.873 30.6998 64.873 26.6602V11.416H1.02539ZM10.3906 28.8477C9.25805 28.8477 8.33984 27.9295 8.33984 26.7969C8.33984 25.6643 9.25805 24.7461 10.3906 24.7461C11.5232 24.7461 12.4414 25.6643 12.4414 26.7969C12.4414 27.9295 11.5232 28.8477 10.3906 28.8477ZM18.5938 28.8477C17.4612 28.8477 16.543 27.9295 16.543 26.7969C16.543 25.6643 17.4612 24.7461 18.5938 24.7461C19.7263 24.7461 20.6445 25.6643 20.6445 26.7969C20.6445 27.9295 19.7263 28.8477 18.5938 28.8477ZM26.7969 28.8477C25.6643 28.8477 24.7461 27.9295 24.7461 26.7969C24.7461 25.6643 25.6643 24.7461 26.7969 24.7461C27.9295 24.7461 28.8477 25.6643 28.8477 26.7969C28.8477 27.9295 27.9295 28.8477 26.7969 28.8477Z" fill="#FBFBFB"/>
<path d="M1.02539 11.416C1.02539 6.88557 4.69807 3.21289 9.22852 3.21289H60.7715C65.3019 3.21289 68.9746 6.88557 68.9746 11.416C68.9746 15.9465 65.3019 19.6191 60.7715 19.6191H9.22852C4.69807 19.6191 1.02539 15.9465 1.02539 11.416Z" fill="#FBFBFB"/>
<path d="M60.7715 15.5176H9.22852C6.96322 15.5176 5.12695 13.6813 5.12695 11.416C5.12695 9.15072 6.96322 7.31445 9.22852 7.31445H60.7715C63.0368 7.31445 64.873 9.15072 64.873 11.416C64.873 13.6813 63.0368 15.5176 60.7715 15.5176Z" fill="#FBFBFB"/>
<path d="M53.457 11.416H49.3555V19.6191H57.5586V15.5176C57.5586 13.2523 55.7223 11.416 53.457 11.416Z" fill="#FBFBFB"/>
<path d="M49.3555 11.416H45.2539C42.9886 11.416 41.1523 13.2523 41.1523 15.5176V19.6191H53.457V15.5176C53.457 13.2523 51.6208 11.416 49.3555 11.416Z" fill="#FBFBFB"/>
<path d="M53.457 15.5176L49.3555 38.0762H53.457C55.7223 38.0762 57.5586 36.2399 57.5586 33.9746V19.6191C57.5586 17.3538 55.7223 15.5176 53.457 15.5176Z" fill="#FBFBFB"/>
<path d="M53.457 33.9746L49.3555 26.7969L53.457 19.6191V15.5176H45.2539C42.9886 15.5176 41.1523 17.3538 41.1523 19.6191V33.9746C41.1523 36.2399 42.9886 38.0762 45.2539 38.0762H49.3555C51.6208 38.0762 53.457 36.2399 53.457 33.9746Z" fill="#FBFBFB"/>
<path d="M49.3555 33.9746L47.3047 26.7969L49.3555 19.6191H53.457V33.9746H49.3555Z" fill="#FBFBFB"/>
<path d="M45.2539 19.6191H49.3555V33.9746H45.2539V19.6191Z" fill="#FBFBFB"/>
<path d="M35 38.0762C33.8674 38.0762 32.9492 37.158 32.9492 36.0254V13.4668C32.9492 12.3342 33.8674 11.416 35 11.416C36.1326 11.416 37.0508 12.3342 37.0508 13.4668V36.0254C37.0508 37.158 36.1326 38.0762 35 38.0762Z" fill="#FBFBFB"/>
<path d="M60.7715 2.1875H9.22852C4.13984 2.1875 0 6.32734 0 11.416V25.7715C0 30.8602 4.13984 35 9.22852 35H31.9238V36.0254C31.9238 37.7217 33.3039 39.1016 35 39.1016C36.6961 39.1016 38.0762 37.7217 38.0762 36.0254V35H40.2302C40.7065 37.3373 42.7779 39.1016 45.2539 39.1016H53.457C55.933 39.1016 58.0044 37.3373 58.4808 35H60.7715C65.8602 35 70 30.8602 70 25.7715V11.416C70 6.32734 65.8602 2.1875 60.7715 2.1875ZM9.22852 4.23828H60.7715C64.7292 4.23828 67.9492 7.45814 67.9492 11.416C67.9492 15.3739 64.7292 18.5938 60.7715 18.5938H58.584V16.543H60.7715C63.5986 16.543 65.8984 14.2431 65.8984 11.416C65.8984 8.58895 63.5986 6.28906 60.7715 6.28906H13.3301C12.7637 6.28906 12.3047 6.74816 12.3047 7.31445C12.3047 7.88074 12.7637 8.33984 13.3301 8.33984H60.7715C62.4676 8.33984 63.8477 9.71975 63.8477 11.416C63.8477 13.1123 62.4676 14.4922 60.7715 14.4922H58.4808C58.0044 12.1548 55.933 10.3906 53.457 10.3906H45.2539C42.7779 10.3906 40.7065 12.1548 40.2302 14.4922H38.0762V13.4668C38.0762 11.7705 36.6961 10.3906 35 10.3906C33.3039 10.3906 31.9238 11.7705 31.9238 13.4668V14.4922H9.22852C7.53238 14.4922 6.15234 13.1123 6.15234 11.416C6.15234 9.71975 7.53238 8.33984 9.22852 8.33984C9.79494 8.33984 10.2539 7.88074 10.2539 7.31445C10.2539 6.74816 9.79494 6.28906 9.22852 6.28906C6.40145 6.28906 4.10156 8.58895 4.10156 11.416C4.10156 14.2431 6.40145 16.543 9.22852 16.543H31.9238V18.5938H9.22852C5.27078 18.5938 2.05078 15.3739 2.05078 11.416C2.05078 7.45814 5.27078 4.23828 9.22852 4.23828ZM38.0762 16.543H40.127V18.5938H38.0762V16.543ZM56.5332 15.5203C55.6757 14.8751 54.6104 14.4922 53.457 14.4922H45.2539C44.1005 14.4922 43.0352 14.8751 42.1777 15.5203C42.1777 13.8213 43.5578 12.4414 45.2539 12.4414H53.457C55.1532 12.4414 56.5332 13.8213 56.5332 15.5203ZM9.22852 32.9492C5.27078 32.9492 2.05078 29.7294 2.05078 25.7715V17.2076C3.74391 19.302 6.33186 20.6445 9.22852 20.6445H31.9238V32.9492H9.22852ZM36.0254 36.0254C36.0254 36.5909 35.5655 37.0508 35 37.0508C34.4345 37.0508 33.9746 36.5909 33.9746 36.0254V13.4668C33.9746 12.9013 34.4345 12.4414 35 12.4414C35.5655 12.4414 36.0254 12.9013 36.0254 13.4668V36.0254ZM38.0762 20.6445H40.127V32.9492H38.0762V20.6445ZM56.5332 33.9746C56.5332 35.6709 55.1532 37.0508 53.457 37.0508H45.2539C43.5578 37.0508 42.1777 35.6709 42.1777 33.9746V19.6191C42.1777 17.9229 43.5578 16.543 45.2539 16.543H53.457C55.1532 16.543 56.5332 17.9229 56.5332 19.6191V33.9746ZM67.9492 25.7715C67.9492 29.7294 64.7292 32.9492 60.7715 32.9492H58.584V20.6445H60.7715C63.6681 20.6445 66.2561 19.302 67.9492 17.2076V25.7715Z" fill="#253D4E"/>
<path d="M26.7969 23.7207C25.1007 23.7207 23.7207 25.1006 23.7207 26.7969C23.7207 28.4931 25.1007 29.873 26.7969 29.873C28.493 29.873 29.873 28.4931 29.873 26.7969C29.873 25.1006 28.493 23.7207 26.7969 23.7207ZM26.7969 27.8223C26.2314 27.8223 25.7715 27.3623 25.7715 26.7969C25.7715 26.2314 26.2314 25.7715 26.7969 25.7715C27.3623 25.7715 27.8223 26.2314 27.8223 26.7969C27.8223 27.3623 27.3623 27.8223 26.7969 27.8223Z" fill="#253D4E"/>
<path d="M35 47.3047C35.5663 47.3047 36.0254 46.8456 36.0254 46.2793C36.0254 45.713 35.5663 45.2539 35 45.2539C34.4337 45.2539 33.9746 45.713 33.9746 46.2793C33.9746 46.8456 34.4337 47.3047 35 47.3047Z" fill="#253D4E"/>
<path d="M18.5938 23.7207C16.8976 23.7207 15.5176 25.1006 15.5176 26.7969C15.5176 28.4931 16.8976 29.873 18.5938 29.873C20.2899 29.873 21.6699 28.4931 21.6699 26.7969C21.6699 25.1006 20.2899 23.7207 18.5938 23.7207ZM18.5938 27.8223C18.0283 27.8223 17.5684 27.3623 17.5684 26.7969C17.5684 26.2314 18.0283 25.7715 18.5938 25.7715C19.1592 25.7715 19.6191 26.2314 19.6191 26.7969C19.6191 27.3623 19.1592 27.8223 18.5938 27.8223Z" fill="#253D4E"/>
<path d="M10.3906 23.7207C8.69449 23.7207 7.31445 25.1006 7.31445 26.7969C7.31445 28.4931 8.69449 29.873 10.3906 29.873C12.0868 29.873 13.4668 28.4931 13.4668 26.7969C13.4668 25.1006 12.0868 23.7207 10.3906 23.7207ZM10.3906 27.8223C9.82516 27.8223 9.36523 27.3623 9.36523 26.7969C9.36523 26.2314 9.82516 25.7715 10.3906 25.7715C10.9561 25.7715 11.416 26.2314 11.416 26.7969C11.416 27.3623 10.9561 27.8223 10.3906 27.8223Z" fill="#253D4E"/>
<path d="M53.457 18.5938H45.2539C44.6875 18.5938 44.2285 19.0529 44.2285 19.6191V33.9746C44.2285 34.5409 44.6875 35 45.2539 35H53.457C54.0235 35 54.4824 34.5409 54.4824 33.9746V19.6191C54.4824 19.0529 54.0235 18.5938 53.457 18.5938ZM52.4316 32.9492H46.2793V20.6445H52.4316V32.9492Z" fill="#253D4E"/>
<path d="M58.5331 43.2547C57.1773 41.899 55.3748 41.1523 53.4576 41.1523C51.5404 41.1523 49.7379 41.899 48.3822 43.2547L47.2839 44.3529C46.703 44.934 45.9305 45.2539 45.1087 45.2539H40.4808L39.0613 43.257C38.1243 41.9392 36.5998 41.1523 34.9829 41.1523C33.3662 41.1523 31.8415 41.9392 30.9046 43.2571L29.4852 45.2539H24.8571C24.0355 45.2539 23.263 44.934 22.6821 44.3529L21.5838 43.2547C20.2281 41.899 18.4256 41.1523 16.5084 41.1523C14.5912 41.1523 12.7887 41.899 11.4331 43.2547C8.63436 46.0532 8.63436 50.6069 11.4329 53.4055L12.5099 54.4824L11.4329 55.5594C8.63436 58.358 8.63436 62.9115 11.4329 65.7102C12.7887 67.0659 14.5912 67.8125 16.5084 67.8125C18.4256 67.8125 20.2281 67.0659 21.5838 65.7102L22.6821 64.6119C23.263 64.0309 24.0355 63.7109 24.8571 63.7109H45.1086C45.9304 63.7109 46.7029 64.0309 47.2838 64.6119L48.3821 65.7102C49.7379 67.0659 51.5404 67.8125 53.4576 67.8125C55.3748 67.8125 57.1773 67.0659 58.5331 65.7102C61.3316 62.9115 61.3316 58.358 58.533 55.5594L57.4561 54.4824L58.5331 53.4055C61.3316 50.6069 61.3316 46.0533 58.5331 43.2547ZM55.281 55.2074L57.083 57.0094C59.0819 59.0084 59.0819 62.261 57.0831 64.26C56.1146 65.2285 54.8271 65.7617 53.4576 65.7617C52.0881 65.7617 50.8006 65.2285 49.8324 64.2601L48.7341 63.1619C47.7657 62.1934 46.4782 61.6602 45.1087 61.6602H24.8573C23.4878 61.6602 22.2003 62.1934 21.2319 63.1617L20.1336 64.26C19.1654 65.2285 17.8779 65.7617 16.5084 65.7617C15.1389 65.7617 13.8514 65.2285 12.883 64.2601C10.8841 62.2612 10.8841 59.0085 12.8829 57.0095L14.685 55.2076C14.8773 55.0153 14.9854 54.7545 14.9854 54.4826C14.9854 54.2106 14.8773 53.9498 14.685 53.7575L12.883 51.9556C10.8841 49.9565 10.8841 46.7039 12.8832 44.705C13.8515 43.7363 15.139 43.2031 16.5084 43.2031C17.8778 43.2031 19.1654 43.7363 20.1336 44.7047L21.2319 45.803C22.2003 46.7713 23.4878 47.3045 24.8573 47.3045H30.0146C30.3465 47.3045 30.658 47.1438 30.8503 46.8732L32.5761 44.4451C33.1292 43.6673 34.0289 43.203 34.9829 43.203C35.9371 43.203 36.837 43.6673 37.3897 44.4451L39.1157 46.8732C39.308 47.1438 39.6195 47.3045 39.9514 47.3045H45.1086C46.4782 47.3045 47.7657 46.7713 48.7341 45.803L49.8324 44.7047C50.8006 43.7363 52.0881 43.2031 53.4576 43.2031C54.8271 43.2031 56.1146 43.7363 57.083 44.7047C59.0819 46.7037 59.0819 49.9563 57.0831 51.9553L55.281 53.7573C55.0887 53.9495 54.9807 54.2104 54.9807 54.4823C54.9807 54.7542 55.0887 55.0152 55.281 55.2074Z" fill="#253D4E"/>
</svg>
