<svg width="36" height="22" viewBox="0 0 36 22" fill="none" xmlns="http://www.w3.org/2000/svg">
<path fill-rule="evenodd" clip-rule="evenodd" d="M1.82313 21.6725H1.71428C1.71428 21.6182 1.68702 21.5363 1.68702 21.5089C1.68702 21.4818 1.68702 21.4274 1.60524 21.4274H1.44167V21.6725H1.35989V21.1001H1.60524C1.71428 21.1001 1.79587 21.1276 1.79587 21.2363C1.79587 21.3181 1.76861 21.3456 1.74154 21.3725C1.7688 21.4 1.79587 21.4272 1.79587 21.4818V21.5907C1.79587 21.6182 1.79587 21.6181 1.82313 21.6181V21.6725ZM1.71428 21.2638C1.71428 21.182 1.65976 21.1819 1.6325 21.1819H1.44167V21.3456H1.60524C1.65976 21.3456 1.71428 21.3181 1.71428 21.2638ZM2.17752 21.3727C2.17752 21.0458 1.90511 20.7728 1.55072 20.7728C1.22378 20.7728 0.951172 21.0458 0.951172 21.3727C0.951172 21.7271 1.22378 22 1.55072 22C1.90491 21.9998 2.17752 21.7271 2.17752 21.3727ZM2.09574 21.3727C2.09574 21.6727 1.85059 21.8907 1.55072 21.8907C1.25084 21.8907 1.03295 21.6725 1.03295 21.3727C1.03295 21.1001 1.25104 20.8547 1.55072 20.8547C1.85039 20.8547 2.09574 21.1001 2.09574 21.3727ZM35.669 15.1578C35.669 15.9758 35.1512 16.3571 34.2246 16.3571H32.4536V15.539H34.2246C34.3881 15.539 34.5244 15.512 34.5792 15.4576C34.6335 15.4029 34.688 15.321 34.688 15.2121C34.688 15.1028 34.6337 14.9939 34.5792 14.9396C34.5244 14.8848 34.4156 14.8578 34.252 14.8578C33.4075 14.8303 32.3445 14.8848 32.3445 13.6853C32.3445 13.1398 32.6987 12.54 33.6525 12.54H35.4782V13.358H33.7886C33.6254 13.358 33.5162 13.358 33.4344 13.4124C33.3526 13.4942 33.2983 13.576 33.2983 13.7124C33.2983 13.8488 33.3801 13.9306 33.4889 13.9854C33.5982 14.0124 33.7072 14.0397 33.8435 14.0397H34.3338C34.8516 14.0397 35.1787 14.1486 35.3968 14.3397C35.56 14.5305 35.669 14.7761 35.669 15.1578ZM31.8266 14.3397C31.6085 14.1486 31.2814 14.0397 30.7636 14.0397H30.2733C30.1372 14.0397 30.028 14.0122 29.9191 13.9854C29.8099 13.9306 29.7285 13.8488 29.7285 13.7124C29.7285 13.576 29.7555 13.4942 29.8646 13.4124C29.9464 13.358 30.0552 13.358 30.2188 13.358H31.9084V12.54H30.0827C29.1015 12.54 28.7743 13.1398 28.7743 13.6853C28.7743 14.8846 29.8373 14.8303 30.6822 14.8578C30.8454 14.8578 30.9546 14.8848 31.009 14.9396C31.0633 14.9939 31.1182 15.1028 31.1182 15.2121C31.1182 15.321 31.0635 15.4029 31.009 15.4576C30.9272 15.512 30.8183 15.539 30.6548 15.539H28.8834V16.3571H30.6548C31.581 16.3571 32.099 15.9756 32.099 15.1578C32.099 14.7761 31.9902 14.5305 31.8266 14.3397ZM28.3384 15.5667H26.1859V14.8032H28.284V14.0401H26.1859V13.331H28.3384V12.5404H25.2865V16.3573H28.3384V15.5667ZM24.3053 12.7313C24.0055 12.5677 23.6513 12.5402 23.188 12.5402H21.0899V16.3571H22.0162V14.9667H22.9974C23.3241 14.9667 23.5152 14.9941 23.6515 15.1303C23.815 15.321 23.815 15.6483 23.815 15.8938V16.3571H24.714V15.6209C24.714 15.2665 24.687 15.1028 24.5779 14.9121C24.4962 14.8028 24.333 14.6666 24.1149 14.5848C24.3598 14.5034 24.769 14.1761 24.769 13.576C24.7688 13.14 24.6052 12.8946 24.3053 12.7313ZM19.1277 12.5402H16.2118L15.04 13.7944L13.9227 12.5402H10.2438V16.3571H13.8683L15.0402 15.1028L16.1575 16.3571H17.9288V15.076H19.0734C19.8636 15.076 20.6541 14.8578 20.6541 13.7944C20.6539 12.7584 19.8363 12.5402 19.1277 12.5402ZM23.5695 14.1217C23.4334 14.1761 23.2971 14.1761 23.1335 14.1761L22.0162 14.2036V13.3308H23.1335C23.2971 13.3308 23.4606 13.3308 23.5695 13.4126C23.6787 13.4673 23.7601 13.5762 23.7601 13.7399C23.7601 13.9035 23.6787 14.0399 23.5695 14.1217ZM19.1277 14.3125H17.9286V13.3308H19.1277C19.4548 13.3308 19.6727 13.4673 19.6727 13.7944C19.6727 14.1217 19.4547 14.3125 19.1277 14.3125ZM15.6122 14.4486L17.0292 12.9493V16.0302L15.6122 14.4486ZM13.4049 15.5667H11.143V14.8032H13.1595V14.0401H11.143V13.331H13.4322L14.4404 14.4488L13.4049 15.5667ZM33.1345 9.78641H31.8266L30.1097 6.92354V9.78641H28.257L27.9024 8.94109H25.9949L25.6407 9.78641H24.5777C24.1418 9.78641 23.5695 9.67732 23.2427 9.35002C22.9429 9.02292 22.7793 8.58671 22.7793 7.90504C22.7793 7.33247 22.8611 6.81444 23.2696 6.40552C23.542 6.10549 24.0327 5.96932 24.6593 5.96932H25.5313V6.78736H24.6593C24.3326 6.78736 24.1416 6.84192 23.9509 7.00557C23.7874 7.16921 23.7056 7.46904 23.7056 7.87796C23.7056 8.28689 23.7874 8.58691 23.9509 8.77784C24.087 8.91401 24.3326 8.96856 24.5775 8.96856H24.9865L26.2944 5.96951H27.657L29.1831 9.56841V5.96932H30.6002L32.208 8.61399V5.96932H33.1343L33.1345 9.78641ZM22.3161 5.96932H21.3898V9.78641H22.3161V5.96932ZM20.3811 6.13297C20.0813 5.96932 19.7545 5.96932 19.2913 5.96932H17.1928V9.78641H18.092V8.39579H19.073C19.4001 8.39579 19.6182 8.42307 19.7543 8.55944C19.9179 8.75037 19.8904 9.07766 19.8904 9.29566V9.78641H20.8167V9.02292C20.8167 8.69582 20.7896 8.53217 20.6535 8.34124C20.5718 8.23214 20.4082 8.09577 20.2176 8.01414C20.4625 7.90504 20.8716 7.60522 20.8716 7.00537C20.8718 6.56917 20.6808 6.32369 20.3811 6.13297ZM16.5387 8.99584H14.4132V8.23234H16.5115V7.44176H14.4132V6.76009H16.5387V5.96951H13.4867V9.78661H16.5387V8.99584ZM12.8053 5.96932H11.3066L10.1893 8.55944L8.99019 5.96932H7.51869V9.56821L5.96541 5.96932H4.60296L2.96789 9.78641H3.94889L4.30309 8.94109H6.21056L6.56476 9.78641H8.41791V6.78736L9.75311 9.78641H10.5433L11.8787 6.78736V9.78641H12.8052L12.8053 5.96932ZM27.5757 8.12324L26.9487 6.62372L26.322 8.12324H27.5757ZM19.6727 7.52359C19.5366 7.60541 19.4003 7.60541 19.2095 7.60541H18.092V6.76029H19.2093C19.3729 6.76029 19.5633 6.76029 19.6725 6.81484C19.7814 6.89666 19.8361 7.00576 19.8361 7.16921C19.8361 7.33266 19.7816 7.46884 19.6727 7.52359ZM4.63002 8.12324L5.25682 6.62372L5.88363 8.12324H4.63002ZM35.3968 0H2.88611L2.94043 7.74159L4.05774 5.20602H6.42845L6.75559 5.83314V5.20602H9.53522L10.162 6.56917L10.7616 5.20602H19.6182C20.0267 5.20602 20.3809 5.28784 20.6537 5.50584V5.20602H23.079V5.50584C23.4875 5.28764 24.0053 5.20602 24.605 5.20602H28.1203L28.4474 5.83314V5.20602H31.0362L31.4179 5.83314V5.20602H33.952V10.5499H31.3906L30.9003 9.73206V10.5499H27.7118L27.3576 9.67751H26.567L26.2128 10.5499H24.5507C23.8966 10.5499 23.4059 10.3863 23.0792 10.2228V10.5499H19.1277V9.32294C19.1277 9.15929 19.1005 9.13201 18.9914 9.13201H18.8553V10.5497H11.2248V9.86804L10.9524 10.5497H9.34459L9.07218 9.89532V10.5497H5.99267L5.66574 9.67731H4.87537L4.52117 10.5497H2.94043V21.2H35.4511V16.8751C35.0969 17.0388 34.6062 17.1206 34.1157 17.1206H31.7448V16.7933C31.4724 17.0117 30.9817 17.1206 30.5187 17.1206H23.0517V15.8938C23.0517 15.7302 23.0247 15.7302 22.8882 15.7302H22.752V17.1206H20.2993V15.6756C19.8908 15.8663 19.4274 15.8663 19.0187 15.8663H18.7461V17.1206H15.7485L15.0402 16.3025L14.25 17.1206H9.42617V11.7769H14.3314L15.04 12.5945L15.8031 11.7769H19.1005C19.4817 11.7769 20.1087 11.8312 20.3811 12.1038V11.7769H23.3241C23.624 11.7769 24.1965 11.8312 24.5777 12.1038V11.7769H29.0197V12.104C29.265 11.8858 29.7285 11.7771 30.137 11.7771H32.6168V12.104C32.8896 11.9133 33.2708 11.7771 33.7615 11.7771H35.4511L35.3968 0Z" fill="#0077A6"/>
</svg>
