<svg width="39" height="26" viewBox="0 0 39 26" fill="none" xmlns="http://www.w3.org/2000/svg">
<rect x="1.32422" y="0.5" width="37.0685" height="24.9999" rx="3.5" fill="#1F72CD" stroke="#D9D9D9"/>
<path fill-rule="evenodd" clip-rule="evenodd" d="M8.09086 9.2085L4.63086 17.0591H8.77297L9.28647 15.8074H10.4602L10.9737 17.0591H15.533V16.1038L15.9393 17.0591H18.2977L18.704 16.0836V17.0591H28.1861L29.339 15.8399L30.4186 17.0591L35.2888 17.0692L31.8179 13.1557L35.2888 9.2085H30.4942L29.3718 10.4052L28.3262 9.2085H18.0109L17.1252 11.2348L16.2186 9.2085H12.0851V10.1313L11.6253 9.2085H8.09086ZM22.25 10.3231H27.6951L29.3605 12.1676L31.0795 10.3231H32.7449L30.2145 13.1544L32.7449 15.9531H31.004L29.3386 14.0873L27.6108 15.9531H22.25V10.3231ZM23.5957 12.5177V11.4894V11.4884H26.9933L28.4758 13.133L26.9276 14.7866H23.5957V13.6639H26.5662V12.5177H23.5957ZM8.89319 10.3231H10.9122L13.2073 15.6467V10.3231H15.4191L17.1917 14.1401L18.8254 10.3231H21.0261V15.9565H19.687L19.6761 11.5422L17.7238 15.9565H16.5259L14.5627 11.5422V15.9565H11.8079L11.2856 14.6935H8.464L7.94281 15.9553H6.4668L8.89319 10.3231ZM8.94531 13.5261L9.87492 11.2763L10.8035 13.5261H8.94531Z" fill="white"/>
</svg>
