<svg width="70" height="70" viewBox="0 0 70 70" fill="none" xmlns="http://www.w3.org/2000/svg">
<g clip-path="url(#clip0_1635_62177)">
<path d="M5.59223 12.8271C5.86714 12.479 5.80756 11.9741 5.45844 11.7003C4.132 10.6539 2.67699 9.76652 1.13627 9.06201C0.736976 8.87595 0.257199 9.05365 0.0732326 9.45816C-0.111779 9.86059 0.0659157 10.3372 0.469388 10.5212C1.89304 11.1734 3.23829 11.994 4.46544 12.9608C4.80913 13.2333 5.31731 13.1784 5.59223 12.8271Z" fill="#97D2EC"/>
<path d="M6.57311 9.83551C6.81853 10.2003 7.31641 10.3009 7.68736 10.0508C8.05529 9.8031 8.15146 9.30347 7.90269 8.93658L5.17454 4.89977C4.92786 4.53183 4.42822 4.43567 4.06029 4.68444C3.69339 4.93217 3.59619 5.43076 3.84497 5.79869L6.57311 9.83551Z" fill="#97D2EC"/>
<path d="M9.99126 8.12024C10.4156 8.12024 10.771 7.7868 10.7919 7.3572L10.9675 3.78553C10.9895 3.34233 10.6477 2.96604 10.2055 2.94409C9.75817 2.92109 9.38501 3.26289 9.36411 3.70609L9.1885 7.27776C9.16587 7.73477 9.52996 8.12024 9.99126 8.12024Z" fill="#97D2EC"/>
<path d="M23.3698 36.9685C23.577 35.3976 23.2137 33.4839 23.3959 32.0944C23.4534 31.6596 23.1513 31.2592 22.7165 31.1955C20.5517 30.8788 18.3608 30.907 16.2013 31.2802C15.7884 31.3512 15.5 31.7286 15.5386 32.1467C15.6737 33.5731 15.7028 35.6606 15.8418 37.1493C15.8861 37.6109 16.3107 37.9338 16.748 37.8695C18.4503 37.6425 20.8094 37.9093 22.6809 37.6594C23.0405 37.6113 23.3227 37.3281 23.3698 36.9685ZM17.3783 36.1981C17.3054 35.0452 17.2694 33.8311 17.1975 32.7519C18.7047 32.5512 20.2298 32.5292 21.7412 32.6902C21.7054 33.8222 21.865 35.0974 21.828 36.1323C20.4663 36.2263 18.818 36.1064 17.3783 36.1981Z" fill="#97D2EC"/>
<path d="M29.8537 30.7512C29.4408 30.8223 29.1523 31.1997 29.191 31.6178C29.26 32.3463 29.2997 33.2139 29.3394 34.0804C29.4598 36.6575 29.4422 36.8952 29.793 37.1734C29.9709 37.3159 30.1991 37.37 30.3993 37.3406C32.1777 37.1032 34.3952 37.39 36.3322 37.1305C36.6918 37.0824 36.974 36.7992 37.0211 36.4396C37.2283 34.8687 36.865 32.955 37.0472 31.5655C37.1047 31.1307 36.8026 30.7303 36.3678 30.6666C34.2041 30.3488 32.0142 30.3781 29.8537 30.7512Z" fill="#97D2EC"/>
<path d="M30.43 42.6757C30.4875 42.2408 30.1854 41.8405 29.7506 41.7767C27.5827 41.459 25.3929 41.4882 23.2365 41.8604C22.8236 41.9314 22.5351 42.3088 22.5738 42.7258C22.7094 44.1758 22.7358 46.2238 22.8759 47.7306C22.9203 48.1926 23.3447 48.5151 23.7821 48.4507C25.5353 48.217 27.8128 48.4939 29.715 48.2396C30.0746 48.1915 30.3568 47.9083 30.4039 47.5487C30.6111 45.9778 30.2478 44.0651 30.43 42.6757ZM24.4124 46.7794C24.3422 45.6971 24.307 44.4577 24.2316 43.3321C25.7388 43.1314 27.2618 43.1115 28.7753 43.2715C28.7402 44.3769 28.8985 45.6971 28.8621 46.7125C28.1649 46.7616 25.9069 46.6861 24.4124 46.7794Z" fill="#97D2EC"/>
<path d="M37.4277 47.2957C37.4727 47.7633 37.9021 48.0794 38.3339 48.0159C40.0532 47.7864 42.3698 48.0574 44.2669 47.8058C44.6264 47.7577 44.9087 47.4745 44.9557 47.1149C45.1629 45.544 44.7996 43.6303 44.9818 42.2408C45.0393 41.806 44.7372 41.4057 44.3024 41.3419C42.1356 41.0252 39.9447 41.0534 37.7873 41.4255C37.3744 41.4966 37.0859 41.8739 37.1246 42.292C37.2597 43.7196 37.2887 45.8062 37.4277 47.2957ZM43.3272 42.8366C43.2913 43.9686 43.451 45.2438 43.4139 46.2787C42.0876 46.3723 40.3927 46.2532 38.9642 46.3445C38.8919 45.2014 38.8546 43.9659 38.7834 42.8972C40.2928 42.6966 41.8147 42.6767 43.3272 42.8366Z" fill="#97D2EC"/>
<path d="M44.7852 36.7124C44.963 36.8549 45.1913 36.9091 45.3915 36.8797C47.2042 36.6404 49.3795 36.9303 51.3234 36.6696C51.684 36.6215 51.9662 36.3382 52.0132 35.9787C52.22 34.409 51.8573 32.4929 52.0394 31.1046C52.0969 30.6698 51.7948 30.2694 51.3599 30.2057C49.1921 29.8879 47.0022 29.9172 44.8459 30.2893C44.433 30.3604 44.1445 30.7377 44.1832 31.1558C44.2521 31.8843 44.2919 32.7519 44.3316 33.6195C44.452 36.1966 44.4344 36.4343 44.7852 36.7124ZM50.3847 31.7004C50.3486 32.8364 50.5086 34.1039 50.4715 35.1424C49.1141 35.2359 47.4953 35.1167 46.0218 35.2083C45.9525 34.1128 45.9147 32.8515 45.842 31.761C47.3482 31.5603 48.8712 31.5405 50.3847 31.7004Z" fill="#97D2EC"/>
<path d="M65.159 52.337C64.8977 51.9785 64.396 51.8991 64.0374 52.1625C61.4692 54.0377 58.854 56.0247 56.9056 57.9647C55.571 56.203 55.1874 55.7032 54.3781 54.6272C54.1126 54.2739 53.6109 54.2007 53.2545 54.4673C52.9001 54.7338 52.828 55.2366 53.0945 55.5909C54.0578 56.8747 55.1139 58.2522 56.1885 59.6811C56.4878 60.0786 57.0771 60.1147 57.4199 59.7438C59.317 57.6898 62.1769 55.5094 64.9844 53.4586C65.3419 53.1973 65.4203 52.6956 65.159 52.337Z" fill="#97D2EC"/>
<path d="M61.4279 44.5772C60.8885 15.2083 61.1065 15.9404 60.2851 13.9026C59.8851 12.9104 58.8795 11.4425 57.7031 11.1601C56.2357 10.3335 55.2731 10.7822 53.0096 10.7052C52.0906 6.78091 48.8674 5.28338 46.501 6.32342C44.9035 7.02283 43.7643 8.89837 43.6452 10.8799L37.7989 10.989C37.0277 6.75559 33.6668 5.10663 31.2098 6.18649C29.4993 6.93536 28.325 9.03314 28.3558 11.1653L22.6533 11.2717C21.9782 6.9502 18.577 5.13253 16.0263 6.25339C14.2578 7.02767 13.055 9.2433 13.1732 11.4486C12.1739 11.5799 10.1064 11.0321 8.40002 12.8093C8.02222 13.2022 7.73615 13.657 7.53101 14.1449C7.44798 14.244 7.3801 14.3565 7.35267 14.4922C5.22346 25.0577 3.77786 36.5776 2.58939 46.5452C2.56431 46.7616 2.62702 46.98 2.76604 47.1494C4.95012 49.8166 6.75259 51.0827 8.20978 52.4133C8.24728 52.4475 8.29269 52.4642 8.3343 52.49C8.62495 52.9128 9.13047 53.1998 9.76723 53.2652C13.9375 53.6635 17.9844 53.915 22.0944 54.0359C30.6538 54.7495 39.2378 55.1733 47.815 55.0426C47.6564 58.1865 48.8014 61.0066 50.8416 63.1072C54.3857 67.7928 60.9286 68.1284 65.2235 65.0702C68.4549 62.7694 70.2728 58.6786 69.9669 54.7236C69.6036 50.027 66.1762 45.5497 61.4279 44.5772ZM58.579 64.7903C53.5691 64.7903 49.4714 60.7743 49.3964 55.7394C49.3185 50.6622 53.3675 46.4913 58.4442 46.4156C63.3721 46.3061 67.6912 50.3003 67.77 55.4641C67.8466 60.573 63.7167 64.7903 58.579 64.7903ZM58.9722 44.4029C54.8752 44.5685 50.3667 47.1695 48.5888 51.5222C33.441 52.8008 22.2297 52.8435 9.92506 51.667C9.75782 51.6503 9.6742 51.5959 9.66793 51.5959L9.00209 24.5308C39.2443 23.8603 43.0735 24.1709 58.3644 23.7942L58.9722 44.4029ZM7.90737 45.3288L4.31735 45.6302C5.15454 38.6382 6.12513 30.954 7.36789 23.4044L7.90737 45.3288ZM47.1449 7.79306C48.5099 7.19717 50.5659 8.00976 51.3523 10.7361L45.2585 10.8499C45.3769 9.50625 46.1279 8.23893 47.1449 7.79306ZM31.8537 7.65613C33.3498 7.00447 35.5227 8.06227 36.1742 11.0194L29.9568 11.1354C29.9357 9.64246 30.7304 8.14865 31.8537 7.65613ZM16.6702 7.72303C18.1993 7.0555 20.4395 8.1713 21.0284 11.302L14.7748 11.4187C14.6676 9.85602 15.4925 8.23939 16.6702 7.72303ZM11.4762 13.0863L21.1498 12.9058C21.0868 14.6705 20.3761 16.2484 19.2999 17.4013C18.1865 16.9342 17.1913 18.0038 17.3718 19.2584C17.5103 20.2211 18.2861 20.906 19.1047 20.7883C19.8919 20.675 20.5373 19.8028 20.3062 18.7037C21.7214 17.2867 22.6925 15.2123 22.755 12.8759L36.3358 12.6224C36.325 14.5316 35.5614 16.2307 34.3852 17.4346C34.144 17.3151 33.8785 17.2586 33.6059 17.2979C32.7874 17.4156 32.2361 18.2915 32.3746 19.2543C32.5132 20.2169 33.289 20.9019 34.1075 20.7841C34.8894 20.6716 35.5007 19.8252 35.3289 18.7852C36.88 17.3198 37.9348 15.0977 37.9412 12.5925L51.62 12.3372C51.7226 14.2999 51.0284 16.0835 49.8569 17.3874C49.6017 17.2473 49.3148 17.1829 49.0212 17.2251C48.2027 17.3429 47.6514 18.2188 47.7899 19.1815C47.9285 20.1442 48.7043 20.8292 49.5228 20.7114C50.3294 20.5953 50.8734 19.7424 50.7564 18.7962C51.9976 17.5644 52.8564 15.8667 53.1394 14.0406C53.2289 13.4664 53.2556 12.8835 53.2296 12.3072C53.3489 12.3049 55.6776 12.2584 55.8331 12.2584C57.0414 12.2584 58.0491 13.2337 58.0888 14.4504L58.317 22.1889C44.5697 22.5298 15.218 22.4655 8.9629 22.9382L8.78991 15.9054C8.75122 14.373 9.95612 13.108 11.4762 13.0863ZM4.93392 47.1889L7.9469 46.9361L8.02536 50.1249C7.09867 49.335 6.07045 48.4362 4.93392 47.1889Z" fill="#97D2EC"/>
</g>
<defs>
<clipPath id="clip0_1635_62177">
<rect width="70" height="70" fill="white"/>
</clipPath>
</defs>
</svg>
