<svg width="70" height="70" viewBox="0 0 70 70" fill="none" xmlns="http://www.w3.org/2000/svg">
<g clip-path="url(#clip0_1621_941)">
<path d="M41.3443 49.3156C41.6863 49.2066 44.4021 48.4012 46.7296 50.5867C47.6084 51.4118 48.1532 52.4017 48.49 53.2577C48.8378 54.1417 48.1543 55.0934 47.2043 55.0934H37.0811C36.1534 55.0934 35.495 54.1892 35.78 53.3063L36.6204 50.7023C38.1951 50.24 39.7698 49.7778 41.3443 49.3156Z" fill="#FBFBFB"/>
<path opacity="0.09" d="M45.3742 53.1679C45.1759 52.4825 45.509 51.7575 46.172 51.4941C46.5443 51.3462 46.9209 51.1876 47.1894 51.0611C47.039 50.8969 46.8887 50.7329 46.7247 50.5826C44.4005 48.3952 41.6936 49.2017 41.3518 49.3111C39.7857 49.7701 38.2334 50.2291 36.6809 50.6881C36.6579 50.6942 36.6381 50.6928 36.615 50.6997L35.781 53.3109C35.494 54.1859 36.1501 55.0883 37.0798 55.0883H44.2574C45.6362 55.0883 45.6297 54.0513 45.3742 53.1679Z" fill="#253D4E"/>
<path d="M42.4883 55.0873H32.3813C31.4538 55.0873 30.7991 54.1872 31.0855 53.3006L31.3311 52.5231L31.9176 50.7091C33.4998 50.2454 35.0683 49.7816 36.637 49.3179C36.978 49.2087 39.6923 48.4041 42.011 50.5864C42.5975 51.1457 43.034 51.7595 43.3477 52.3596C43.525 52.6734 43.6614 52.9734 43.7705 53.2599C44.1523 54.2553 43.5522 55.0873 42.4883 55.0873Z" fill="#FBFBFB"/>
<path opacity="0.09" d="M42.0109 50.5861C39.6921 48.4038 36.9778 49.2086 36.6369 49.3176C35.2964 49.714 33.9528 50.1102 32.6038 50.5066C32.6023 50.5057 32.6009 50.5051 32.5995 50.5043C32.3813 50.5725 32.1493 50.6407 31.9176 50.709L31.3311 52.523L31.0855 53.3004C30.7991 54.187 31.4538 55.0871 32.3813 55.0871H34.1817C33.1924 54.8589 32.9937 54.0357 32.9891 53.4287C32.9863 53.0574 33.3104 52.7683 33.6801 52.803C34.5378 52.8833 36.1289 53.0139 37.4143 53.0139C39.5421 53.0139 41.5198 52.7956 43.3476 52.3592C43.0339 51.7591 42.5974 51.1454 42.0109 50.5861Z" fill="#253D4E"/>
<path d="M21.1494 47.9337C12.3637 59.1363 4.43774 66.695 5.66996 68.3858C8.71967 72.5709 27.2574 59.3722 34.5447 47.0615C30.872 47.4185 24.822 47.5766 21.1494 47.9337Z" fill="#FBFBFB"/>
<path opacity="0.09" d="M32.8471 47.1921C32.5097 47.6688 32.1346 48.1428 31.7705 48.6178C31.2276 48.8514 30.6934 49.0555 30.1811 49.2018C29.0191 49.5299 27.9526 49.6393 27.0094 49.5162C25.6695 49.3385 24.8356 48.5866 24.439 47.6842C23.236 47.7526 22.1149 47.8346 21.1442 47.9303C19.0935 50.5552 17.0838 52.9751 15.2381 55.1762C17.781 55.1352 21.1442 52.4009 21.7595 51.6763C21.5544 52.8657 21.4177 54.3423 22.4431 55.0396C22.5984 55.1637 23.2646 55.336 24.0221 55.4127C24.6103 55.4722 24.8418 56.2003 24.4061 56.5999C17.0632 63.3356 8.83342 68.0542 6.14662 66.3597C5.58608 67.3167 5.39467 68.0003 5.66811 68.3831C8.11537 71.7463 20.6111 63.8578 29.1833 54.2329C31.2341 51.9362 33.0661 49.5299 34.4742 47.1648C34.5015 47.1238 34.5152 47.0964 34.5426 47.0554C34.0229 47.1101 33.4487 47.151 32.8471 47.1921Z" fill="#253D4E"/>
<path d="M21.1982 46.146C9.88915 56.3189 3.72707 57.9309 5.37546 59.7195C8.06981 62.6432 24.4104 56.3775 32.677 46.5775C30.0597 46.479 27.4423 46.3807 24.825 46.2823C23.616 46.2369 22.4071 46.1914 21.1982 46.146Z" fill="#FBFBFB"/>
<path opacity="0.09" d="M32.6709 46.5769C24.4133 56.3794 8.07575 62.641 5.36883 59.7152C4.86297 59.1685 5.09539 58.6353 5.98395 57.897C9.66158 59.5103 22.5676 54.4791 30.6749 46.4949C31.3448 46.5222 32.001 46.5496 32.6709 46.5769Z" fill="#253D4E"/>
<path d="M61.4727 19.3111C60.213 20.8672 57.3973 22.4973 54.7183 22.7152C50.8716 21.3965 47.5669 18.2755 48.1613 15.7213C48.6956 13.4251 51.2247 12.3534 51.8994 12.1018C54.1607 11.2584 57.3106 11.5252 59.1978 13.7335C60.8695 15.6896 61.5307 18.7976 61.4727 19.3111Z" fill="#FBFBFB"/>
<path opacity="0.09" d="M61.4751 19.3146C61.0376 19.8615 60.4087 20.422 59.6431 20.9142C58.3306 19.3146 56.1978 17.1271 52.028 15.6369C51.6315 15.5001 52.8209 13.2854 54.4342 11.6584C56.1432 11.6584 57.9341 12.2874 59.1919 13.7366C60.8735 15.6917 61.5298 18.7951 61.4751 19.3146Z" fill="#253D4E"/>
<path d="M63.0662 21.7036C61.6951 21.8668 60.7016 17 53.306 14.3588C52.6898 14.1387 55.967 8.81762 58.6779 8.63037C67.623 12.5926 64.778 21.4999 63.0662 21.7036Z" fill="#FBFBFB"/>
<path d="M43.2498 2.26835C50.5643 -1.66313 56.5968 3.29932 58.087 6.54098C58.5445 7.53596 58.6782 8.63037 58.6782 8.63037C56.6207 10.151 51.6923 16.149 54.7184 22.715C55.686 25.2256 58.3043 35.414 53.2831 43.6746C44.9581 55.72 28.8082 49.8151 24.957 49.6227C34.825 36.5337 29.361 36.726 33.8763 23.0717C35.55 18.0108 35.9135 6.21154 43.2498 2.26835Z" fill="#FBFBFB"/>
<path d="M54.7215 22.7134C52.3925 17.6673 54.7692 12.9481 56.9279 10.3535C56.5428 4.59359 49.4298 2.87356 46.6032 6.58914C43.7317 10.3638 45.787 19.5672 54.7215 22.7134Z" fill="#FBFBFB"/>
<path opacity="0.09" d="M58.6765 8.62811C58.6765 8.62811 58.5397 7.53436 58.0886 6.53632C56.8718 3.89775 52.6335 0.0970811 47.1376 0.944737C51.1023 1.5463 54.0418 4.40361 55.0125 6.53632C55.49 7.60108 55.2473 8.83089 54.4451 9.67833C52.1799 12.0712 49.0974 17.1924 51.6492 22.7098C52.3476 24.5482 53.931 30.4813 52.7692 36.7625C51.9873 40.9898 49.0544 44.6119 45 46.0413C44.8232 46.1036 44.6458 46.163 44.4679 46.2194C43.2343 46.611 42.1957 45.2346 42.9094 44.155C45.0173 40.9665 46.6826 37.1991 47.4771 32.9521C47.7748 31.3608 46.8751 29.7794 45.3721 29.1779L34.3683 24.7742C34.0402 24.7331 33.6847 24.7468 33.3292 24.8152C30.0573 35.9562 33.8132 37.0307 26.6239 47.3278C26.1179 48.0506 25.577 48.8033 24.959 49.6244C28.8143 49.8157 44.9605 55.7218 53.2865 43.6772C55.9963 39.2243 56.4805 34.1897 56.2006 30.1239C56.201 30.118 56.2018 30.0924 56.2018 30.0787C55.9557 26.6198 55.1628 23.8581 54.7253 22.7097C51.6902 16.1475 56.6257 10.1457 58.6765 8.62811Z" fill="#253D4E"/>
<path d="M34.371 21.2489C27.0901 20.3643 13.2172 46.9456 15.024 50.5243C16.9554 54.35 23.0799 49.4517 23.9291 48.4655C23.6647 49.9597 23.5202 51.9431 25.719 52.2355C32.0747 53.0806 46.3824 42.9028 47.8567 26.6425" fill="#FBFBFB"/>
<path d="M15.0286 50.5218C16.955 54.3498 23.0774 49.4544 23.9239 48.4605C23.6664 49.9573 23.5191 51.945 25.7152 52.2395C31.6783 53.037 44.6225 44.1294 47.4321 29.6147C42.2789 37.2218 34.8125 41.4841 30.763 40.2965C28.9639 39.7689 28.4022 38.6205 28.66 37.1359C27.2967 39.4827 19.9025 41.2053 19.7646 36.8782C16.4396 43.0129 14.2312 48.9635 15.0286 50.5218Z" fill="#FBFBFB"/>
<path d="M15.0287 50.5217C16.9551 54.3497 23.0775 49.4543 23.9241 48.4604C23.6665 49.9572 23.5193 51.9449 25.7153 52.2395C31.2365 52.9755 42.7577 45.3808 46.6593 32.7188C41.6166 41.8594 33.7885 46.9155 29.1752 46.302C26.979 46.0076 26.1326 44.1784 26.3903 42.6815C24.7527 44.465 16.855 47.1946 18.2435 39.835C15.8018 44.8286 14.3661 49.2211 15.0287 50.5217Z" fill="#FBFBFB"/>
<path opacity="0.09" d="M40.7367 43.569C35.7465 49.5162 29.4029 52.729 25.7252 52.2369C23.5241 51.9498 23.6608 49.9537 23.9341 48.4636C23.0865 49.4478 16.9617 54.356 15.0203 50.528C13.5027 47.5202 23.0318 28.3253 30.4281 22.7473C24.0161 30.5127 17.6862 44.116 18.944 46.6042C20.2678 49.233 23.571 47.7419 25.7852 46.2308C26.5188 45.7302 27.5755 46.0491 27.8272 46.9008C28.0373 47.6116 28.5506 48.1708 29.6352 48.3132C32.3969 48.6822 36.6761 46.9597 40.7367 43.569Z" fill="#253D4E"/>
<path d="M51.4543 7.65959C52.3477 7.65959 53.0719 8.38376 53.0719 9.27713C53.0719 10.1705 52.3477 10.8947 51.4543 10.8947C50.561 10.8947 49.8368 10.1705 49.8368 9.27713C49.8368 8.38376 50.561 7.65959 51.4543 7.65959ZM59.4242 8.08046C59.3348 7.62656 59.1558 6.89418 58.8296 6.19352C57.9098 4.19557 55.4959 1.68213 52.174 0.570665C49.15 -0.440725 45.9284 -0.103522 42.8616 1.54859C36.943 4.72954 35.3336 12.5747 34.1573 18.303C34.0033 19.0546 33.8554 19.7573 33.706 20.4268C30.2523 20.7 26.2856 25.3058 23.4857 29.293C18.2163 36.7983 12.9658 48.0339 14.2769 50.8459C11.9199 52.6609 9.90661 54.0586 8.41824 55.0855C5.67927 56.9747 4.42955 57.8371 4.3041 58.9694C4.268 59.2925 4.32149 59.7812 4.77539 60.2725C5.40091 60.9547 6.459 61.2604 7.81416 61.2604C8.19566 61.2604 8.608 61.2278 9.03325 61.1808C5.47813 65.4262 4.06774 67.5715 5.00442 68.8705C5.37696 69.3819 6.11928 69.9921 7.53985 70.0001H7.5685C12.5705 70.0001 23.005 62.5932 30.266 54.2311C30.3316 54.5022 30.4376 54.7651 30.6086 55.0015C31.0244 55.5756 31.6707 55.904 32.3816 55.904L47.2008 55.9174C47.9338 55.9174 48.6173 55.5556 49.0285 54.9481C49.4304 54.3566 49.5118 53.609 49.2515 52.956C48.9364 52.1416 48.341 50.9667 47.305 49.9947C47.2967 49.9867 47.2869 49.9802 47.2785 49.9722C49.9532 48.6505 52.1849 46.7022 53.9859 44.0948C58.5132 36.6443 57.0715 27.4474 55.8114 23.3874C57.7984 23.0035 59.6532 22.0116 60.9339 20.9716C61.6147 21.8372 62.18 22.5233 62.9819 22.5233C63.0393 22.5233 63.0981 22.5199 63.1581 22.5126C64.4599 22.3577 65.341 20.3757 65.608 18.5994C65.8618 16.9193 66.1238 11.2842 59.4242 8.08046ZM21.6427 40.1883C23.5779 40.6783 26.2442 40.0681 27.9657 38.9346C28.3235 39.952 29.1947 40.6916 30.5325 41.0841C31.0787 41.2431 31.6634 41.3205 32.2803 41.3205C35.9652 41.3205 40.7569 38.5515 44.8385 34.1726C39.9769 41.8456 33.1834 46.0152 29.2843 45.4888C28.554 45.3913 27.9725 45.0736 27.6013 44.5689C27.2448 44.083 27.0939 43.4287 27.1988 42.8199C27.2603 42.4622 27.0786 42.1056 26.7522 41.9455C26.4265 41.7839 26.0326 41.8601 25.7862 42.1257C24.8703 43.1217 21.5786 44.4315 19.9237 43.6076C18.9951 43.1414 18.7027 41.9474 19.0394 40.0723C19.226 39.6917 19.4229 39.3044 19.6225 38.9147C20.0845 39.524 20.7658 39.967 21.6427 40.1883ZM17.58 43.2612C17.9467 44.2123 18.5756 44.7661 19.1887 45.0734C21.0606 46.0147 23.8643 45.2616 25.6587 44.239C25.7828 44.7062 25.9918 45.1482 26.2795 45.5407C26.9203 46.4126 27.8844 46.9573 29.0673 47.1149C29.343 47.1523 29.6293 47.1696 29.9257 47.1696C33.291 47.1696 37.8984 44.8122 42.0701 40.4194C39.7949 43.7837 37.2951 46.0641 35.7988 47.259C32.2214 50.1175 28.3095 51.7437 25.8269 51.4219C25.3649 51.3606 25.0512 51.2083 24.8683 50.9586C24.4732 50.4192 24.604 49.3591 24.7369 48.6088C24.801 48.2457 24.6147 47.8839 24.2809 47.725C23.9477 47.566 23.5486 47.6502 23.3076 47.9306C22.6967 48.6396 19.2087 51.3992 17.0645 51.1269C16.4698 51.0535 16.0538 50.745 15.7561 50.1548C15.3859 49.4221 16.0979 46.7562 17.58 43.2612ZM5.93367 59.1549C6.03583 58.721 7.72075 57.5594 9.34956 56.4353C10.8589 55.3952 12.9015 53.9774 15.3023 52.1272C15.7475 52.4651 16.2698 52.6825 16.8648 52.7557C18.8849 52.9973 21.3741 51.5741 22.989 50.3645C23.0457 50.924 23.206 51.466 23.5437 51.9266C23.7952 52.2701 24.1269 52.5314 24.5215 52.7239C16.3816 58.3338 7.4332 60.7436 5.93367 59.1549ZM7.56992 68.3592C7.56325 68.3592 7.55592 68.3592 7.54925 68.3592C6.65872 68.3539 6.4111 68.0148 6.36231 67.9694C6.20678 67.0348 9.73555 62.8691 11.5922 60.6941C16.2443 59.4981 22.2025 56.5219 26.8438 53.0772C27.672 53.0388 28.5698 52.8697 29.5157 52.582C22.2293 61.1938 11.7252 68.3604 7.56992 68.3592ZM31.937 54.0387C31.8776 53.9559 31.7888 53.7851 31.8622 53.5621L32.4745 51.6951C34.1895 51.9175 35.834 52.0521 37.3756 52.0521C38.9681 52.0518 40.4505 51.9066 41.8627 51.6671C42.3166 52.203 42.7121 52.8209 43.0031 53.546C43.0858 53.7609 43.0858 53.9452 43.0031 54.0653C42.9163 54.1908 42.728 54.2643 42.4851 54.2643H32.3815C32.2028 54.2644 32.0413 54.1816 31.937 54.0387ZM46.1755 51.1843C46.9939 51.952 47.4678 52.8933 47.7242 53.5567C47.811 53.7703 47.7268 53.9439 47.6708 54.028C47.6201 54.1028 47.4732 54.2777 47.2036 54.2777L44.6455 54.2701C44.7318 53.8526 44.7057 53.4005 44.5307 52.9466C44.2851 52.3366 43.9768 51.792 43.6355 51.2856C44.2882 51.1179 44.9246 50.927 45.5357 50.7016C45.7549 50.8502 45.9766 50.9941 46.1755 51.1843ZM52.6107 43.203C48.8226 48.6835 42.8433 50.9991 34.3994 50.2648C35.2113 49.7488 36.0238 49.1793 36.8229 48.5408C40.0232 45.984 47.584 38.7397 48.6734 26.7163C48.7147 26.265 48.381 25.8658 47.9297 25.8251C47.5079 25.7991 47.0806 26.1162 47.0392 26.5681C46.9535 27.5143 46.8117 28.4178 46.6472 29.3016C41.5918 36.6761 34.4935 40.5326 30.9944 39.5087C29.718 39.1349 29.2615 38.4674 29.4684 37.2764C29.5358 36.8851 29.3142 36.5007 28.9404 36.3652C28.5678 36.2316 28.1507 36.3819 27.9511 36.7237C27.2468 37.936 24.0706 39.1056 22.0445 38.5982C21.1493 38.3716 20.7025 37.8643 20.6153 37.0389C21.8493 34.7869 23.2662 32.4603 24.8282 30.2357C28.6607 24.7784 32.0999 21.7958 34.2722 22.0634C34.3413 22.0717 34.385 22.0654 34.4184 22.0529C34.7692 22.0288 35.0774 21.7954 35.1621 21.4366C35.3643 20.5841 35.5585 19.6375 35.7648 18.6329C36.875 13.2216 38.3971 5.81104 43.6386 2.99332C46.3369 1.54071 49.0325 1.24901 51.6533 2.12685C54.4944 3.07743 56.5919 5.25706 57.3409 6.88324C57.5758 7.38659 57.7161 7.92865 57.7935 8.29517C57.6786 8.39481 57.5522 8.51217 57.4224 8.63609C56.7552 6.46685 55.1114 4.79123 52.8375 4.10818C50.1793 3.30974 47.473 4.08685 45.9496 6.09279C44.5077 7.98804 44.1739 11.0441 45.0804 14.0687C46.3442 18.2938 49.6163 21.6411 54.0703 23.3307C55.2609 26.6803 57.0492 35.894 52.6107 43.203ZM54.923 15.9228C57.2818 17.0611 58.7803 18.4229 59.8955 19.7017C58.7623 20.6205 57.0415 21.5214 55.2501 21.8098C54.4315 19.7088 54.4582 17.6997 54.923 15.9228ZM53.3212 21.2267C50.0325 19.6022 47.6404 16.8989 46.6521 13.5981C45.8938 11.0667 46.1247 8.57145 47.2556 7.08602C48.3637 5.63013 50.3651 5.07932 52.3664 5.67946C54.4658 6.3099 55.8258 7.96737 56.0707 10.1322C54.1349 12.5639 52.0523 16.6131 53.3212 21.2267ZM62.9899 20.8431C62.7923 20.6835 61.6735 19.267 61.6735 19.267C60.4358 17.7447 58.6088 15.8497 55.4559 14.3639C56.4077 12.1051 57.9099 10.3854 58.8011 9.59531C63.3176 11.7943 64.0519 15.215 64.0727 17.0981C64.094 19.0868 63.3784 20.52 62.9899 20.8431Z" fill="#253D4E"/>
</g>
<defs>
<clipPath id="clip0_1621_941">
<rect width="70" height="70" fill="white"/>
</clipPath>
</defs>
</svg>
