<svg width="10" height="10" viewBox="0 0 10 10" fill="none" xmlns="http://www.w3.org/2000/svg">
<g clip-path="url(#clip0_996_7660)">
<path d="M2.81215 0.0242357C2.77848 0.038662 2.72559 0.0723228 2.69674 0.101175C2.59335 0.197351 2.57171 0.269482 2.57171 0.526751V0.767188H2.02351C1.55466 0.767188 1.44646 0.774402 1.28777 0.815276C0.691484 0.966752 0.198587 1.45965 0.047111 2.05593C0.00142782 2.23626 -0.000976562 2.33725 -0.000976562 5.38359C-0.000976562 8.42994 0.00142782 8.53093 0.047111 8.71125C0.198587 9.30754 0.691484 9.80044 1.28777 9.95191C1.4681 9.9976 1.57149 10 5.00013 10C8.42877 10 8.53216 9.9976 8.71249 9.95191C9.30878 9.80044 9.80167 9.30754 9.95315 8.71125C9.99883 8.53093 10.0012 8.42994 10.0012 5.38359C10.0012 2.33725 9.99883 2.23626 9.95315 2.05593C9.80167 1.45965 9.30878 0.966752 8.71249 0.815276C8.5538 0.774402 8.4456 0.767188 7.97675 0.767188H7.42855V0.517133C7.42855 0.300739 7.42134 0.259865 7.37566 0.190138C7.24822 0.00500011 7.04145 -0.0503006 6.86593 0.050684C6.71445 0.139646 6.67358 0.233417 6.66396 0.519537L6.65434 0.767188H5.00013H3.34592L3.3363 0.519537C3.32909 0.315166 3.31947 0.259865 3.27138 0.182924C3.17761 0.0290442 2.97324 -0.0406828 2.81215 0.0242357ZM2.57171 1.78664C2.57171 2.00304 2.57892 2.04391 2.62701 2.11364C2.74963 2.29397 2.93958 2.35167 3.1175 2.26031C3.2786 2.17856 3.32668 2.07277 3.3363 1.78424L3.34592 1.53659H5.00013H6.65434L6.66396 1.78424C6.67358 2.07277 6.72166 2.17856 6.88276 2.26031C7.06068 2.35167 7.25063 2.29397 7.37566 2.11364C7.42134 2.04391 7.42855 2.00304 7.42855 1.78664V1.53659H7.84451C8.33019 1.53659 8.51774 1.56304 8.7173 1.6544C8.90244 1.74096 9.02746 1.86599 9.11402 2.05113C9.20058 2.23626 9.23184 2.43583 9.23184 2.79167V3.07539H5.00013H0.768425V2.79167C0.768425 2.43583 0.799681 2.23626 0.886239 2.05113C0.972797 1.86599 1.09782 1.74096 1.28296 1.6544C1.48252 1.56063 1.61957 1.5438 2.13411 1.53899L2.57171 1.53659V1.78664ZM9.23184 6.04961C9.23184 7.45617 9.22222 8.31453 9.20539 8.41311C9.17413 8.61508 9.07074 8.83869 8.95533 8.9541C8.83992 9.06951 8.61631 9.17289 8.41435 9.20415C8.19795 9.24022 1.80231 9.24022 1.58591 9.20415C1.38395 9.17289 1.16034 9.06951 1.04493 8.9541C0.929518 8.83869 0.82613 8.61508 0.794873 8.41311C0.778042 8.31453 0.768425 7.45617 0.768425 6.04961V3.84479H5.00013H9.23184V6.04961Z" fill="#62686E"/>
<path d="M6.17799 5.31389C6.11307 5.33313 5.91591 5.51586 5.33645 6.09531L4.57907 6.85029L4.27853 6.54734C4.11263 6.38143 3.94672 6.22996 3.90825 6.20832C3.80487 6.15542 3.62454 6.16023 3.52355 6.22275C3.43459 6.28045 3.34082 6.44154 3.34082 6.54493C3.34082 6.57859 3.35284 6.6363 3.36486 6.67477C3.37929 6.71083 3.61492 6.9657 3.88902 7.2422C4.43481 7.7904 4.47328 7.81444 4.67044 7.76395C4.7594 7.73991 4.88443 7.6245 5.67788 6.83105C6.17799 6.33335 6.60356 5.89094 6.6228 5.85007C6.76225 5.55433 6.49056 5.22733 6.17799 5.31389Z" fill="#62686E"/>
</g>
<defs>
<clipPath id="clip0_996_7660">
<rect width="10" height="10" fill="white"/>
</clipPath>
</defs>
</svg>
