<svg width="40" height="40" viewBox="0 0 40 40" fill="none" xmlns="http://www.w3.org/2000/svg">
<path d="M32.8883 8.28125C32.8883 3.75852 29.2071 0 24.6834 0C22.9206 0 21.2735 0.754141 19.9949 2.11141C18.7163 0.754141 17.0692 0 15.3064 0C10.7827 0 7.10156 3.75852 7.10156 8.28125C7.10156 12.8303 10.4405 15.1786 14.3072 17.8988C15.9016 19.0203 17.5511 20.1808 19.2269 21.6342L19.9938 22.3002L20.7618 21.6353C22.6562 19.9965 24.4579 18.7137 26.0467 17.5818C29.8687 14.8616 32.8883 12.7124 32.8883 8.28125ZM23.5113 11.7969H21.1671V14.1406H18.8228V11.7969H16.4786V9.45312H18.8228V7.10938H21.1671V9.45312H23.5113V11.7969Z" fill="#FF6B55"/>
<path d="M38.5936 10.7186C36.2024 10.7186 35.5852 21.828 35.5382 22.0625C35.3001 23.6903 34.1532 26.1 32.2162 27.5509L27.1392 31.2363L25.7336 29.3595L30.8106 25.6752C32.8217 24.1677 33.7383 21.5936 31.2248 21.5936C28.9737 21.5936 24.7658 24.1993 23.5184 25.233C22.0288 26.4674 21.168 28.3014 21.168 30.2358V40H28.2007C28.2007 38.8749 28.8102 37.6483 29.7478 36.4764C30.7325 35.1874 32.1391 33.8749 33.5924 32.5389C36.3586 29.9374 39.2264 27.2655 39.6016 24.5468C39.8243 22.7206 40.0093 19.5884 40 16.7968C39.9899 13.6707 39.725 10.8196 38.5936 10.7186Z" fill="#FF6B55"/>
<path d="M16.1979 25.0156C12.8924 22.7421 10.3842 21.5936 8.76667 21.5936C6.25317 21.5936 7.16977 24.1677 9.1809 25.6752L14.2578 29.3595L12.8522 31.2363L7.77529 27.5509C5.83816 26.1 4.69119 23.6903 4.45309 22.0625C4.40613 21.828 3.78889 10.7186 1.39768 10.7186C0.0848966 10.8358 -0.0557586 14.6561 0.0146471 18.3124C0.0616103 20.9843 0.272515 23.5858 0.389649 24.5468C0.764807 27.2655 3.63261 29.9375 6.39882 32.5389C7.85226 33.8749 9.25873 35.1874 10.2434 36.4764C11.181 37.6483 11.7905 38.8749 11.7905 40H18.8233V30.2826C18.8234 28.2122 17.8513 26.262 16.1979 25.0156Z" fill="#FF6B55"/>
</svg>
