<svg width="70" height="70" viewBox="0 0 70 70" fill="none" xmlns="http://www.w3.org/2000/svg">
<g clip-path="url(#clip0_1621_868)">
<path d="M44.9034 38.1409C42.0274 39.0509 38.3198 39.7249 33.6282 39.7249C28.9494 39.7249 25.2495 39.0547 22.3765 38.1485C11.8768 49.8749 22.6018 61.4 25.9692 64.5246C26.3556 64.8831 26.2385 65.4895 25.7477 65.7067C24.5235 66.2483 24.0973 67.1097 23.9832 67.8553C23.8651 68.6297 24.5244 69.3166 25.3559 69.3166H30.2931C32.3728 69.3166 33.3105 68.0309 33.562 66.1302H33.6706C33.9221 68.0309 34.8598 69.3166 36.9395 69.3166H41.9303C42.7618 69.3166 43.4211 68.6294 43.303 67.8553C43.1892 67.1097 42.7629 66.2483 41.5387 65.7067C41.0476 65.4895 40.9309 64.8831 41.3173 64.5246C44.6855 61.3992 55.4146 49.87 44.9034 38.1409Z" fill="#FBFBFB"/>
<path d="M33.8981 46.3477H33.3351C31.1749 46.3477 29.4238 48.0988 29.4238 50.2589V50.3207C29.4238 50.3207 33.3184 58.6652 33.6164 64.2928C33.9145 58.6649 37.8091 50.3207 37.8091 50.3207C37.8435 48.1368 36.0826 46.3477 33.8981 46.3477Z" fill="#FBFBFB"/>
<path d="M33.6158 64.293C33.5923 64.7362 33.5909 65.1628 33.6158 65.5669C33.6407 65.163 33.6393 64.7365 33.6158 64.293Z" fill="#FBFBFB"/>
<path d="M52.5789 25.6332C54.4506 25.6332 56.5561 23.9026 56.5561 23.9026C53.7596 23.4361 53.1846 20.7184 51.687 17.228C57.8445 14.1518 56.2835 4.6958 55.4364 1.1124C55.3267 0.6481 54.7282 0.529975 54.4419 0.911421C53.7039 1.89416 52.133 3.24384 48.8558 4.00017C45.6905 4.73052 43.9104 6.36021 42.9627 7.63115C38.5098 5.83849 33.6289 6.10263 33.6289 6.10263C33.6289 6.10263 28.7478 5.83849 24.2951 7.63115C23.3468 6.36021 21.5668 4.73052 18.4014 4.00017C15.1243 3.24384 13.5534 1.89416 12.8154 0.911421C12.5288 0.529975 11.9305 0.648374 11.8209 1.1124C10.9738 4.69552 9.41273 14.1518 15.5703 17.228C14.0727 20.7181 13.4976 23.4358 10.7012 23.9026C10.7012 23.9026 12.8066 25.6332 14.6783 25.6332C14.6783 25.6332 13.7426 27.8581 11.169 28.3525C11.169 28.3525 12.5729 30.8247 17.0179 30.8247C17.0179 30.8247 15.614 32.8024 13.9764 33.2968C13.9764 33.2968 19.1233 39.7245 33.6286 39.7245C48.1339 39.7245 53.2809 33.2968 53.2809 33.2968C51.6432 32.8024 50.2394 30.8247 50.2394 30.8247C54.6844 30.8247 56.0882 28.3525 56.0882 28.3525C53.5146 27.8581 52.5789 25.6332 52.5789 25.6332Z" fill="#FBFBFB"/>
<path d="M33.7704 27.7583C33.7704 27.7583 33.7619 30.5542 30.5293 30.7894C30.8167 33.5297 32.1573 35.6043 33.7704 35.6043C35.3834 35.6043 36.724 33.5297 37.0114 30.7894C33.7788 30.5542 33.7704 27.7583 33.7704 27.7583Z" fill="#FBFBFB"/>
<path d="M31.6113 34.1577C32.1896 35.0576 32.9435 35.6047 33.7698 35.6047C34.5964 35.6047 35.35 35.0576 35.9284 34.1577C35.3503 33.2564 34.5967 32.7087 33.7698 32.7087C32.943 32.7085 32.1894 33.2564 31.6113 34.1577Z" fill="#FBFBFB"/>
<path d="M47.7184 65.3651C50.2983 64.0099 58.6789 58.7115 49.2341 51.1091C48.2546 57.4898 43.3921 62.6001 41.3183 64.5242C40.9319 64.8827 41.0487 65.4892 41.5398 65.7063C42.764 66.248 43.1903 67.1093 43.304 67.855C43.4221 68.6294 42.7629 69.3162 41.9314 69.3162H47.413C48.2554 69.3162 48.9084 68.6127 48.7815 67.829C48.6858 67.2381 48.3919 66.578 47.6604 66.0637C47.4042 65.8838 47.4389 65.5119 47.7184 65.3651Z" fill="#FBFBFB"/>
<path d="M58.2958 39.0668C56.3796 38.7942 54.6293 40.2232 54.5402 42.1567C54.3143 47.0523 52.8908 50.4889 51.1621 52.8823C52.3119 54.1125 53.0007 55.2721 53.3428 56.353C57.8179 52.4204 60.0023 46.8396 61.0086 43.2097C61.5402 41.2929 60.2651 39.3471 58.2958 39.0668Z" fill="#FBFBFB"/>
<path d="M55.4366 1.1127C55.4295 1.08263 55.4153 1.05829 55.4044 1.03149C54.8091 2.23763 52.5852 6.28286 49.0161 7.47259C44.8048 8.87642 47.1444 11.9176 47.1444 11.9176L45.9746 12.6195C45.9746 12.6195 46.6765 15.8947 49.4839 15.8947L51.8707 17.1266C57.8079 13.9531 56.275 4.65892 55.4366 1.1127Z" fill="#FBFBFB"/>
<path d="M18.2416 7.47234C14.6724 6.28262 12.4486 2.23738 11.8533 1.03125C11.8424 1.05832 11.8281 1.08266 11.821 1.11246C10.9827 4.65867 9.44978 13.9528 15.3869 17.1266L17.7738 15.8948C20.5811 15.8948 21.2831 12.6195 21.2831 12.6195L20.1133 11.9176C20.1133 11.9176 22.4528 8.87617 18.2416 7.47234Z" fill="#FBFBFB"/>
<path d="M36.1069 24.8792C36.1069 26.0184 34.9084 27.6292 33.7693 27.6292C32.6301 27.6292 31.4316 26.0184 31.4316 24.8792C31.4316 23.7401 32.6301 24.6042 33.7693 24.6042C34.9084 24.6042 36.1069 23.7401 36.1069 24.8792Z" fill="#FBFBFB"/>
<path d="M33.6325 47.9795C35.3031 47.9795 36.6575 46.6252 36.6575 44.9545C36.6575 43.2838 35.3031 41.9294 33.6325 41.9294C31.9618 41.9294 30.6074 43.2838 30.6074 44.9545C30.6074 46.6252 31.9618 47.9795 33.6325 47.9795Z" fill="#FBFBFB"/>
<path d="M33.6282 39.7248C29.5398 39.7248 26.1986 39.2129 23.5039 38.4793C24.2673 40.5875 27.5237 42.2522 31.6657 42.6585C32.1946 42.2051 32.8806 41.9295 33.6318 41.9295C34.3829 41.9295 35.0689 42.2051 35.5978 42.6585C39.7414 42.2519 42.9986 40.5861 43.7604 38.4768C41.0643 39.2118 37.721 39.7248 33.6282 39.7248Z" fill="#FBFBFB"/>
<path d="M19.5702 65.3651C16.9903 64.0099 8.60971 58.7115 18.0545 51.1091C19.034 57.4898 23.8965 62.6001 25.9703 64.5242C26.3566 64.8827 26.2399 65.4892 25.7488 65.7063C24.5246 66.248 24.0983 67.1093 23.9846 67.855C23.8664 68.6294 24.5257 69.3162 25.3572 69.3162H19.8756C19.0331 69.3162 18.3802 68.6127 18.5071 67.829C18.6028 67.2381 18.8967 66.578 19.6281 66.0637C19.8844 65.8838 19.8496 65.5119 19.5702 65.3651Z" fill="#FBFBFB"/>
<path d="M47.4129 70.0001H41.9313C41.5537 70.0001 41.2477 69.6941 41.2477 69.3165C41.2477 68.9389 41.5537 68.6329 41.9313 68.6329C42.1553 68.6329 42.3617 68.5419 42.4979 68.3833C42.5734 68.2952 42.6573 68.15 42.6283 67.9581C42.5157 67.2201 42.0691 66.6879 41.263 66.3314C40.8154 66.1334 40.5015 65.7353 40.423 65.2663C40.3465 64.8089 40.5073 64.3438 40.8532 64.023C42.8539 62.1664 47.6098 57.1816 48.5581 51.0052C48.5953 50.7635 48.7585 50.5603 48.9863 50.4717C49.2141 50.3831 49.4719 50.4231 49.6622 50.5765C52.9796 53.2466 54.5297 55.9533 54.2702 58.6213C53.9169 62.2509 50.29 64.7222 48.3951 65.7758C48.9682 66.2904 49.3325 66.9548 49.4563 67.7196C49.5457 68.2714 49.3855 68.8361 49.0169 69.2695C48.6215 69.7338 48.0369 70.0001 47.4129 70.0001ZM43.9012 68.6329H47.4127C47.6352 68.6329 47.8403 68.5421 47.9754 68.3835C48.0391 68.3089 48.1408 68.1511 48.1064 67.9384C48.0172 67.3879 47.7427 66.9578 47.2666 66.6229C46.9533 66.4022 46.7807 66.0448 46.8051 65.6664C46.83 65.2811 47.0523 64.9423 47.3998 64.7597C48.9521 63.9443 52.5965 61.7007 52.909 58.4889C53.0988 56.539 52.0149 54.4904 49.6844 52.3894C48.3038 58.4345 43.7617 63.1888 41.7828 65.0252C41.7705 65.0435 41.7768 65.064 41.8159 65.0812C43.3723 65.7697 43.8517 66.9135 43.9794 67.7519C44.025 68.0497 43.9966 68.3513 43.9012 68.6329ZM48.0358 65.9704C48.0361 65.9702 48.0361 65.9702 48.0358 65.9704V65.9704Z" fill="#253D4E"/>
<path d="M25.3571 70.0002H19.8755C19.2512 70.0002 18.6669 69.7339 18.2718 69.2701C17.9032 68.837 17.7429 68.2721 17.8323 67.7203C17.9562 66.9555 18.3202 66.291 18.8936 65.7764C16.9984 64.7228 13.3715 62.2515 13.0182 58.6219C12.7584 55.9537 14.3088 53.2469 17.6262 50.5768C17.8162 50.4234 18.0741 50.3832 18.3021 50.4721C18.5299 50.5607 18.6934 50.7639 18.7303 51.0056C19.6786 57.182 24.4345 62.1667 26.4355 64.0234C26.7814 64.3444 26.9422 64.8092 26.8656 65.2667C26.7872 65.7357 26.473 66.1338 26.0256 66.3317C25.2198 66.6883 24.7733 67.2204 24.6606 67.9584C24.6314 68.1504 24.7153 68.2953 24.7908 68.3834C24.927 68.5422 25.1337 68.633 25.3576 68.633C25.7352 68.633 26.0412 68.939 26.0412 69.3166C26.0412 69.6942 25.7347 70.0002 25.3571 70.0002ZM17.6035 52.3897C15.273 54.4911 14.1888 56.5394 14.3788 58.4896C14.6916 61.7014 18.3357 63.9446 19.8881 64.76C20.2356 64.9424 20.4576 65.2815 20.4828 65.6665C20.5071 66.0449 20.3348 66.4026 20.0212 66.6232C19.5452 66.9579 19.2706 67.388 19.1815 67.9387C19.147 68.1515 19.249 68.309 19.3125 68.3839C19.4473 68.5425 19.6523 68.6333 19.8752 68.6333H23.3867C23.2913 68.3514 23.2631 68.05 23.3085 67.7523C23.4362 66.9142 23.9155 65.7701 25.4719 65.0816C25.511 65.0644 25.5173 65.0441 25.5168 65.0395C23.527 63.1902 18.9843 58.4351 17.6035 52.3897Z" fill="#253D4E"/>
<path d="M36.9404 70C35.4841 70 34.3982 69.454 33.7125 68.3772C32.4653 66.4188 32.6873 62.7091 34.3723 57.3505C35.5934 53.4666 37.1744 50.0653 37.1903 50.0314C37.35 49.6896 37.7566 49.5417 38.0987 49.7011C38.4407 49.8605 38.5887 50.2674 38.429 50.6095C36.7339 54.2421 32.7893 64.3831 34.8655 67.6427C35.2899 68.3088 35.9683 68.6326 36.9401 68.6326C37.3177 68.6326 37.6237 68.9385 37.6237 69.3161C37.6237 69.6938 37.318 70 36.9404 70Z" fill="#253D4E"/>
<path d="M30.2933 70C29.9157 70 29.6097 69.6941 29.6097 69.3164C29.6097 68.9388 29.9157 68.6328 30.2933 68.6328C31.2651 68.6328 31.9438 68.3091 32.3679 67.643C34.4438 64.3834 30.4995 54.2421 28.8044 50.6098C28.645 50.2677 28.7927 49.8608 29.1347 49.7014C29.4771 49.542 29.8837 49.6896 30.0431 50.0317C30.059 50.0656 31.64 53.4669 32.8612 57.3508C34.5461 62.7091 34.7681 66.4191 33.521 68.3775C32.8354 69.454 31.7494 70 30.2933 70Z" fill="#253D4E"/>
<path d="M53.3444 57.0367C53.2831 57.0367 53.2213 57.0285 53.1609 57.0115C52.9386 56.9494 52.7622 56.7794 52.6928 56.5592C52.3624 55.5155 51.6799 54.4355 50.6647 53.3491C50.4415 53.1104 50.4186 52.747 50.6097 52.482C52.5744 49.7621 53.6676 46.2774 53.859 42.125C53.9101 41.0184 54.4307 39.9766 55.2874 39.2673C56.1512 38.5517 57.284 38.2329 58.3939 38.3901C59.5279 38.5515 60.5377 39.1935 61.1647 40.1514C61.7911 41.1087 61.9751 42.2899 61.6694 43.3927C60.5732 47.3463 58.3174 52.8935 53.7961 56.8669C53.6695 56.9776 53.5084 57.0367 53.3444 57.0367ZM52.0346 52.8282C52.7092 53.6078 53.2363 54.3933 53.6104 55.1762C57.4052 51.4842 59.3655 46.5845 60.3517 43.0271C60.5524 42.3036 60.4316 41.5281 60.0206 40.9C59.6091 40.2711 58.9457 39.8498 58.2014 39.7437C57.4719 39.6408 56.7276 39.8503 56.1594 40.3203C55.5906 40.7915 55.2587 41.4548 55.2251 42.1882C55.0309 46.386 53.9582 49.962 52.0346 52.8282Z" fill="#253D4E"/>
<path d="M33.6286 40.4084C18.9636 40.4084 13.6613 33.9971 13.4429 33.7242C13.301 33.547 13.2564 33.311 13.3237 33.0942C13.3912 32.8776 13.5615 32.7081 13.7789 32.6428C14.456 32.4382 15.107 31.9116 15.5978 31.4232C11.9092 30.963 10.6328 28.793 10.5745 28.6902C10.4657 28.4985 10.4558 28.2664 10.5483 28.0662C10.6407 27.8661 10.8236 27.7228 11.0399 27.6812C12.2892 27.4412 13.0879 26.7321 13.5465 26.1606C11.8526 25.7201 10.344 24.4935 10.2672 24.4306C10.0602 24.2603 9.97158 23.9849 10.0408 23.7257C10.1099 23.4667 10.3243 23.2721 10.5885 23.228C12.4593 22.9158 13.1336 21.4346 14.2585 18.6239C14.4007 18.2687 14.5462 17.9053 14.701 17.5307C12.1689 16.0139 10.7186 13.2886 10.3875 9.41862C10.1026 6.08679 10.7462 2.68604 11.1556 0.955185C11.2677 0.481864 11.6324 0.125849 12.1077 0.0265909C12.5854 -0.0734873 13.0672 0.108075 13.3619 0.501005C14.0395 1.4028 15.4904 2.62671 18.5551 3.33382C21.6022 4.0371 23.4493 5.53909 24.5179 6.81194C28.7622 5.24214 33.1473 5.39554 33.6286 5.41796C34.1106 5.39526 38.4955 5.24241 42.7392 6.81194C43.8078 5.53909 45.6549 4.0371 48.7021 3.33382C51.7668 2.62671 53.2179 1.4028 53.8952 0.500731C54.1903 0.108075 54.6723 -0.0729404 55.1495 0.0265909C55.6247 0.125849 55.9895 0.481864 56.1016 0.955185C56.5106 2.68604 57.1546 6.08679 56.8697 9.41862C56.5385 13.2886 55.0882 16.0139 52.5562 17.5307C52.711 17.9053 52.8564 18.2687 52.9986 18.6239C54.1235 21.4346 54.7978 22.916 56.6687 23.228C56.9331 23.2721 57.1472 23.4667 57.2164 23.7257C57.2856 23.9846 57.1972 24.2603 56.99 24.4306C56.9131 24.4935 55.4046 25.7201 53.7106 26.1606C54.1692 26.7321 54.9676 27.4412 56.217 27.6812C56.4335 27.7228 56.6165 27.8661 56.7086 28.0662C56.8008 28.2664 56.7912 28.4985 56.6824 28.6902C56.6241 28.793 55.3477 30.963 51.659 31.4232C52.1499 31.9116 52.8009 32.4382 53.4779 32.6428C53.6953 32.7084 53.8657 32.8776 53.9332 33.0942C54.0005 33.311 53.9559 33.547 53.814 33.7242C53.5955 33.9974 48.2933 40.4084 33.6286 40.4084ZM15.1505 33.5098C16.9035 35.0892 22.4127 39.0412 33.6286 39.0412C44.8947 39.0412 50.3706 35.093 52.1105 33.5123C50.7406 32.6966 49.7332 31.2928 49.6818 31.2203C49.5336 31.012 49.5145 30.7383 49.6318 30.511C49.7491 30.2838 49.9834 30.1411 50.2391 30.1411C52.7326 30.1411 54.1536 29.3243 54.8749 28.7012C52.7881 27.8398 51.9866 25.9884 51.9483 25.8981C51.8597 25.6871 51.8824 25.4456 52.009 25.2548C52.1356 25.0639 52.3495 24.9493 52.5786 24.9493C53.4181 24.9493 54.3467 24.52 55.0426 24.1099C53.3596 23.2064 52.5917 21.2874 51.7288 19.1319C51.5185 18.6064 51.3008 18.0628 51.0583 17.4976C50.9156 17.1648 51.0569 16.7785 51.381 16.6166C56.9194 13.8497 55.698 5.33347 54.8296 1.52366C53.9606 2.58132 52.2647 3.91515 49.0089 4.66628C46.0309 5.35343 44.3749 6.88003 43.5101 8.03968C43.3244 8.2885 42.9952 8.38093 42.7067 8.26526C38.4542 6.55327 33.7122 6.78268 33.6647 6.78514C33.6406 6.78624 33.6154 6.78624 33.5914 6.78514C33.5446 6.78268 28.8013 6.55327 24.5494 8.26526C24.2612 8.38093 23.9314 8.2885 23.746 8.03968C22.8811 6.88003 21.2252 5.35343 18.2472 4.66628C14.9911 3.91487 13.2952 2.58132 12.4265 1.52366C11.5581 5.33374 10.3366 13.8499 15.8751 16.6166C16.1991 16.7785 16.3408 17.1648 16.1978 17.4976C15.9552 18.0628 15.7376 18.6064 15.5273 19.1319C14.6646 21.2874 13.8968 23.2064 12.2135 24.1099C12.9094 24.52 13.838 24.9493 14.6777 24.9493C14.9066 24.9493 15.1204 25.0639 15.2473 25.2548C15.3739 25.4456 15.3966 25.6871 15.308 25.8981C15.27 25.9887 14.4683 27.8404 12.3808 28.7014C13.1008 29.3232 14.5224 30.1411 17.0175 30.1411C17.2732 30.1411 17.5075 30.2838 17.6248 30.511C17.7421 30.7383 17.723 31.012 17.5748 31.2203C17.5239 31.2925 16.5185 32.6939 15.1505 33.5098Z" fill="#253D4E"/>
<path d="M51.8712 17.8104C51.627 17.8104 51.391 17.6794 51.2677 17.4489C51.0897 17.1158 51.2155 16.7019 51.5483 16.5238C53.8894 15.2723 55.2233 12.8097 55.5131 9.20447C55.6947 6.94533 55.4251 4.64572 55.1166 2.93209C53.9914 4.71326 51.9994 7.1988 49.2323 8.12084C48.1057 8.49654 47.436 9.00923 47.2416 9.64498C46.9696 10.5345 47.6789 11.4912 47.686 11.5008C47.8049 11.6553 47.8519 11.8535 47.8159 12.0449C47.7798 12.2363 47.663 12.4034 47.4959 12.5038L46.7801 12.9333C47.0592 13.7137 47.8131 15.2113 49.4838 15.2113C49.8614 15.2113 50.1674 15.5173 50.1674 15.8949C50.1674 16.2726 49.8614 16.5785 49.4838 16.5785C46.826 16.5785 45.589 14.0826 45.3062 12.7627C45.245 12.477 45.3721 12.1836 45.6229 12.0332L46.2119 11.6799C45.9297 11.0964 45.645 10.1916 45.9343 9.24548C46.2655 8.16212 47.2296 7.34755 48.8 6.82419C52.1135 5.71978 54.2236 1.87962 54.7915 0.728999C54.9107 0.487554 55.1612 0.341539 55.4294 0.348374C55.6985 0.358218 55.9367 0.525015 56.0381 0.77439C56.0515 0.803101 56.0819 0.868999 56.1021 0.955406C56.5051 2.65974 57.1414 6.01181 56.8762 9.31412C56.547 13.4132 54.9714 16.2447 52.1933 17.7294C52.0902 17.7844 51.98 17.8104 51.8712 17.8104Z" fill="#253D4E"/>
<path d="M41.9308 70.0001H36.94C35.7867 70.0001 34.4241 69.6471 33.6169 68.2258C32.8095 69.6474 31.4472 70.0001 30.2939 70.0001H25.3567C24.7338 70.0001 24.1492 69.7354 23.753 69.2742C23.3876 68.849 23.2255 68.2942 23.3084 67.7522C23.4363 66.9138 23.9154 65.7701 25.4721 65.0815C25.5109 65.0643 25.5172 65.0441 25.5166 65.0394C23.6018 63.2596 20.1395 59.5835 18.3337 54.8038C16.013 48.6605 17.2019 42.9036 21.8679 37.6927C22.0467 37.4925 22.3267 37.4157 22.5826 37.4966C25.8322 38.5217 29.5487 39.0413 33.6287 39.0413C37.7185 39.0413 41.4425 38.519 44.6975 37.4892C44.9539 37.408 45.2337 37.4846 45.4128 37.6847C50.0836 42.8967 51.2753 48.6553 48.9549 54.8006C47.1494 59.5819 43.686 63.2591 41.7823 65.0255C41.7703 65.0438 41.7766 65.0643 41.8157 65.0815C43.3721 65.7701 43.8512 66.9138 43.9791 67.7522C44.062 68.2942 43.8998 68.849 43.5345 69.2742C43.1383 69.7354 42.554 70.0001 41.9308 70.0001ZM33.5625 65.4466H33.6711C34.014 65.4466 34.3038 65.7006 34.3489 66.0405C34.5863 67.8334 35.3855 68.6329 36.9403 68.6329H41.9311C42.155 68.6329 42.3615 68.5419 42.4976 68.3833C42.5731 68.2953 42.6571 68.1501 42.6281 67.9581C42.5154 67.2201 42.0689 66.688 41.2628 66.3314C40.8152 66.1335 40.5013 65.7353 40.4228 65.2664C40.3462 64.8089 40.507 64.3441 40.8526 64.0231C44.1921 60.9245 54.2497 50.0283 44.6824 38.924C41.3976 39.9092 37.6816 40.4082 33.6287 40.4082C29.5857 40.4082 25.8778 39.9116 22.5991 38.9313C13.0424 50.0332 23.0964 60.9256 26.4348 64.0231C26.7807 64.3441 26.9415 64.8089 26.865 65.2664C26.7865 65.7353 26.4726 66.1332 26.0252 66.3314C25.2191 66.688 24.7726 67.2201 24.66 67.9581C24.6307 68.1501 24.7146 68.2953 24.7904 68.3833C24.9266 68.5419 25.133 68.6329 25.3569 68.6329H30.2941C31.8489 68.6329 32.6482 67.8334 32.8852 66.0405C32.9298 65.7006 33.2196 65.4466 33.5625 65.4466Z" fill="#253D4E"/>
<path d="M33.6325 48.6631C31.5874 48.6631 29.9238 46.9995 29.9238 44.9545C29.9238 42.9094 31.5874 41.2458 33.6325 41.2458C35.6775 41.2458 37.3411 42.9094 37.3411 44.9545C37.3411 46.9995 35.6775 48.6631 33.6325 48.6631ZM33.6325 42.613C32.3413 42.613 31.291 43.6633 31.291 44.9545C31.291 46.2457 32.3413 47.2959 33.6325 47.2959C34.9236 47.2959 35.9739 46.2457 35.9739 44.9545C35.9739 43.6633 34.9236 42.613 33.6325 42.613Z" fill="#253D4E"/>
<path d="M35.5982 43.3421C35.4358 43.3421 35.2778 43.2841 35.1534 43.1774C34.7287 42.8135 34.1887 42.6133 33.6322 42.6133C33.0758 42.6133 32.5355 42.8138 32.1108 43.1777C31.9694 43.2989 31.7851 43.3563 31.5992 43.339C27.1512 42.9026 23.7212 41.0865 22.8612 38.7122C22.7743 38.4721 22.8282 38.2039 23.0012 38.016C23.1741 37.8282 23.4376 37.753 23.6835 37.8197C26.6607 38.6302 30.0064 39.0414 33.6284 39.0414C37.2531 39.0414 40.6016 38.6296 43.581 37.8172C43.8271 37.7503 44.0901 37.8257 44.2632 38.0133C44.4363 38.2009 44.4904 38.4691 44.4037 38.7092C43.5454 41.0848 40.1151 42.9021 35.665 43.339C35.6425 43.341 35.6204 43.3421 35.5982 43.3421ZM25.0993 39.5678C26.3965 40.737 28.7396 41.6405 31.4622 41.9494C32.0925 41.4939 32.8521 41.2459 33.6322 41.2459C34.4126 41.2459 35.1719 41.4939 35.8022 41.9494C38.5267 41.6402 40.8712 40.7359 42.1676 39.5656C39.5387 40.1253 36.675 40.4086 33.6284 40.4086C30.5856 40.4083 27.7251 40.1262 25.0993 39.5678Z" fill="#253D4E"/>
<path d="M33.6325 48.6632C31.5874 48.6632 29.9238 46.9996 29.9238 44.9546C29.9238 44.577 30.2298 44.271 30.6074 44.271H36.6575C37.0351 44.271 37.3411 44.577 37.3411 44.9546C37.3411 46.9996 35.6775 48.6632 33.6325 48.6632ZM31.3927 45.6382C31.6859 46.5969 32.5792 47.296 33.6325 47.296C34.6857 47.296 35.5791 46.5969 35.8722 45.6382H31.3927Z" fill="#253D4E"/>
<path d="M33.5977 46.4631C33.22 46.4631 32.9141 46.1572 32.9141 45.7796V44.9546C32.9141 44.577 33.22 44.271 33.5977 44.271C33.9753 44.271 34.2812 44.577 34.2812 44.9546V45.7796C34.2812 46.1572 33.9753 46.4631 33.5977 46.4631Z" fill="#253D4E"/>
<path d="M33.7693 28.3128C32.2131 28.3128 30.748 26.3785 30.748 24.8793C30.748 24.4153 30.8941 24.0658 31.1817 23.8408C31.6553 23.4697 32.2495 23.6174 32.8243 23.7598C33.1436 23.8391 33.4739 23.9209 33.7693 23.9209C34.0646 23.9209 34.3949 23.8391 34.7143 23.7598C35.2888 23.6174 35.8829 23.47 36.3568 23.8408C36.6447 24.0658 36.7905 24.4155 36.7905 24.8793C36.7905 26.3785 35.3254 28.3128 33.7693 28.3128ZM32.1215 25.0001C32.2055 25.8396 33.1209 26.9459 33.7693 26.9459C34.4176 26.9459 35.3333 25.8399 35.417 25.0001C35.2964 25.0239 35.1537 25.0595 35.0429 25.0868C34.6814 25.1765 34.2314 25.2881 33.7693 25.2881C33.3071 25.2881 32.8571 25.1765 32.4956 25.0868C32.3848 25.0595 32.2421 25.0239 32.1215 25.0001Z" fill="#253D4E"/>
<path d="M37.3059 31.4844C37.196 31.4844 37.0839 31.4803 36.9693 31.4721C33.1406 31.1987 33.0862 27.7947 33.0859 27.7602C33.0848 27.3826 33.39 27.0758 33.7676 27.0747H33.7695C34.1447 27.0747 34.4496 27.3771 34.4531 27.752C34.4572 27.9779 34.5671 29.9297 37.0666 30.1085C37.7336 30.1555 38.2441 30.0106 38.6203 29.6631C39.3479 28.9912 39.3663 27.7679 39.3663 27.7556C39.3693 27.3793 39.6837 27.0835 40.0526 27.0763C40.4288 27.0777 40.7334 27.3821 40.7334 27.7586C40.7334 27.8324 40.72 29.5761 39.5571 30.6592C38.9681 31.2072 38.2118 31.4844 37.3059 31.4844Z" fill="#253D4E"/>
<path d="M30.2342 31.4844C29.328 31.4844 28.572 31.2074 27.983 30.6589C26.82 29.5761 26.8066 27.8319 26.8066 27.7583C26.8066 27.3807 27.1126 27.0747 27.4902 27.0747C27.8679 27.0747 28.1738 27.3807 28.1738 27.7583C28.1738 27.7679 28.1921 28.9912 28.9198 29.6631C29.296 30.0106 29.8043 30.1572 30.4734 30.1085C33.0509 29.9245 33.0867 27.8447 33.087 27.7564C33.088 27.3796 33.394 27.0747 33.7705 27.0747H33.7725C34.1501 27.0758 34.4552 27.3826 34.4541 27.7602C34.4541 27.7944 34.3997 31.1984 30.5708 31.4721C30.4562 31.4801 30.3441 31.4844 30.2342 31.4844Z" fill="#253D4E"/>
<path d="M33.7703 36.2879C31.7969 36.2879 30.1847 34.0561 29.8495 30.8604C29.83 30.6764 29.8864 30.4924 30.005 30.3505C30.1237 30.2086 30.2952 30.1208 30.4795 30.1074C32.9754 29.9255 33.0826 27.9732 33.0867 27.7509C33.0935 27.3779 33.3979 27.0771 33.7703 27.0771H33.7755C34.149 27.0799 34.4506 27.379 34.4539 27.752C34.4583 27.9784 34.5684 29.9261 37.0611 30.1074C37.2457 30.1208 37.4168 30.2086 37.5355 30.3505C37.6545 30.4924 37.7105 30.6764 37.6911 30.8604C37.3559 34.0561 35.7437 36.2879 33.7703 36.2879ZM31.3025 31.3742C31.6703 33.4086 32.694 34.921 33.7703 34.921C34.8465 34.921 35.8703 33.4086 36.2381 31.3742C34.9805 31.121 34.2245 30.485 33.7703 29.8156C33.3161 30.485 32.5603 31.121 31.3025 31.3742Z" fill="#253D4E"/>
<path d="M61.8203 28.0381C61.767 28.0381 61.7128 28.0318 61.6587 28.0187C52.7889 25.8684 44.895 26.3808 44.8166 26.3863C44.4379 26.4109 44.1136 26.1279 44.0876 25.7514C44.0616 25.3748 44.346 25.0484 44.7225 25.0224C44.8032 25.0172 52.9084 24.4908 61.9808 26.6901C62.3477 26.7789 62.5731 27.1486 62.4842 27.5156C62.4084 27.8281 62.1284 28.0381 61.8203 28.0381Z" fill="#253D4E"/>
<path d="M61.0918 34.7305C60.9854 34.7305 60.8777 34.7057 60.7768 34.6532C52.6803 30.4406 44.8936 29.0474 44.816 29.0337C44.4441 28.9687 44.1953 28.6146 44.2603 28.2424C44.3254 27.8705 44.6792 27.622 45.0517 27.6868C45.1315 27.7007 53.1263 29.1314 61.4079 33.4402C61.7428 33.6144 61.873 34.0273 61.6988 34.3622C61.5769 34.5966 61.3384 34.7305 61.0918 34.7305Z" fill="#253D4E"/>
<path d="M5.99382 28.038C5.68566 28.038 5.40593 27.828 5.32992 27.5152C5.24105 27.1483 5.46636 26.7788 5.83332 26.6897C14.906 24.4905 23.0107 25.0165 23.0916 25.022C23.4681 25.048 23.7525 25.3745 23.7265 25.751C23.7008 26.1275 23.3743 26.4105 22.9978 26.3862C22.9185 26.3807 15.0143 25.8708 6.15543 28.0186C6.10129 28.0317 6.04687 28.038 5.99382 28.038Z" fill="#253D4E"/>
<path d="M6.72337 34.7305C6.47646 34.7305 6.23829 34.5965 6.11634 34.3621C5.94216 34.0272 6.07232 33.6146 6.40728 33.4401C14.6892 29.1313 22.6839 27.7007 22.7635 27.6867C23.1362 27.6222 23.4895 27.8705 23.5545 28.2423C23.6196 28.6142 23.3708 28.9683 22.9992 29.0337C22.9213 29.0473 15.1245 30.446 7.0381 34.6531C6.93775 34.7056 6.82974 34.7305 6.72337 34.7305Z" fill="#253D4E"/>
<path d="M37.7735 22.793C37.3969 22.793 37.091 22.4884 37.0899 22.1116C37.0852 20.6651 38.2583 19.4847 39.7045 19.48C40.4129 19.4762 41.0648 19.7483 41.5619 20.2424C42.0588 20.7362 42.3338 21.3941 42.3363 22.0946C42.3374 22.4722 42.0325 22.7793 41.6549 22.7804C41.6541 22.7804 41.6533 22.7804 41.6527 22.7804C41.2762 22.7804 40.9702 22.4758 40.9691 22.099C40.968 21.7632 40.8365 21.4485 40.5983 21.212C40.3613 20.9765 40.0471 20.8469 39.7132 20.8469C39.7118 20.8469 39.7105 20.8469 39.7091 20.8469C39.0165 20.8491 38.4549 21.4146 38.457 22.1069C38.4581 22.4846 38.1533 22.7913 37.7756 22.7927C37.7748 22.793 37.774 22.793 37.7735 22.793Z" fill="#253D4E"/>
<path d="M29.6254 22.7867C29.2477 22.7867 28.9418 22.4807 28.9418 22.1031C28.9418 21.4104 28.3782 20.8472 27.6856 20.8472C26.993 20.8472 26.4297 21.4107 26.4297 22.1031C26.4297 22.4807 26.1237 22.7867 25.7461 22.7867C25.3685 22.7867 25.0625 22.4807 25.0625 22.1031C25.0625 20.6566 26.2394 19.48 27.6856 19.48C29.1321 19.48 30.3089 20.6569 30.3089 22.1031C30.3089 22.4807 30.003 22.7867 29.6254 22.7867Z" fill="#253D4E"/>
<path d="M15.3858 17.8105C15.277 17.8105 15.1668 17.7845 15.064 17.7295C12.2862 16.2445 10.7103 13.4133 10.3811 9.31423C10.1159 6.01165 10.7522 2.65958 11.1552 0.955516C11.1757 0.86911 11.2061 0.803212 11.2203 0.771493C11.3217 0.522118 11.5594 0.356688 11.8284 0.346845C12.0961 0.337548 12.3466 0.487391 12.4658 0.728837C13.0337 1.87946 15.1447 5.71962 18.4574 6.82403C20.0277 7.34739 20.9919 8.16224 21.323 9.24532C21.6123 10.1914 21.3276 11.0965 21.0452 11.6797L21.6342 12.033C21.8849 12.1834 22.0121 12.4768 21.9508 12.7625C21.6681 14.0824 20.4308 16.5784 17.7732 16.5784C17.3956 16.5784 17.0896 16.2724 17.0896 15.8948C17.0896 15.5172 17.3956 15.2112 17.7732 15.2112C19.4327 15.2112 20.1926 13.7103 20.4751 12.9321L19.7611 12.5039C19.594 12.4035 19.4776 12.2367 19.4412 12.045C19.4048 11.8534 19.4521 11.6554 19.5711 11.5009C19.5765 11.4938 20.291 10.5313 20.0138 9.6388C19.8169 9.00606 19.1478 8.49528 18.0253 8.12095C15.2587 7.19891 13.2662 4.71309 12.1407 2.93192C11.8322 4.64556 11.5626 6.94544 11.7442 9.20485C12.034 12.8101 13.3679 15.2724 15.709 16.524C16.0418 16.702 16.1676 17.1162 15.9896 17.449C15.866 17.6792 15.6297 17.8105 15.3858 17.8105Z" fill="#253D4E"/>
<path d="M33.7698 36.2881C32.737 36.2881 31.7661 35.6627 31.0363 34.5271C30.8916 34.3021 30.8916 34.0136 31.036 33.7886C31.7655 32.6513 32.7365 32.0249 33.7701 32.0249C34.8037 32.0249 35.7747 32.6513 36.5042 33.7886C36.6486 34.0136 36.6483 34.3024 36.5039 34.5274C35.7736 35.6627 34.8026 36.2881 33.7698 36.2881ZM32.4551 34.1572C32.7641 34.5312 33.2186 34.9209 33.7698 34.9209C34.3211 34.9209 34.7755 34.5312 35.0848 34.1572C34.7758 33.7826 34.3216 33.3921 33.7698 33.3921C33.2183 33.3921 32.7638 33.7826 32.4551 34.1572Z" fill="#253D4E"/>
</g>
<defs>
<clipPath id="clip0_1621_868">
<rect width="70" height="70" fill="white"/>
</clipPath>
</defs>
</svg>
