<svg width="248" height="273" viewBox="0 0 248 273" fill="none" xmlns="http://www.w3.org/2000/svg">
<g opacity="0.1">
<path d="M9.02292 195.978C15.5803 169.97 36.5048 146.675 59.1277 133.185C80.7789 120.276 113.712 111.004 135.156 129.465C142.964 136.186 146.712 147.524 137.728 155.033C129.38 162.008 117.775 159.62 111.451 151.199C94.3823 128.455 121.512 99.5841 140.404 88.7273C152.352 81.8631 165.918 77.8527 179.688 77.1547C192.462 76.5051 207.666 78.0788 218.506 85.3822C220.063 86.4281 218.676 89.2286 216.902 88.7234C207.426 86.02 198.644 82.7107 188.677 82.1089C178.34 81.4862 167.857 82.9558 158.036 86.1798C138.549 92.5831 116.908 108.109 111.791 129.119C109.074 140.257 115.766 158.903 130.383 154.116C136.312 152.173 140.376 146.452 138.029 140.261C135.886 134.605 130.12 130.458 124.904 127.893C103.695 117.462 77.0583 126.447 58.3114 138.118C47.7139 144.719 38.2585 153.083 30.3701 162.758C21.9305 173.117 16.4962 184.549 11.2189 196.691C10.7009 197.879 8.69784 197.269 9.02292 195.978Z" fill="url(#paint0_linear_1543_46329)"/>
<path d="M6.95561 203.007C7.27278 173.207 26.1767 146.718 52.0001 132.905C64.4311 126.259 78.0927 122.218 92.0342 120.323C106.264 118.38 122.767 117.463 136.331 123.005C145.786 126.87 158.39 138.832 150.676 149.804C143.889 159.458 127.012 162.795 116.702 157.747C105.156 152.092 102.408 137.582 106.087 126.271C110.477 112.773 122.204 101.891 133.601 94.0187C158.546 76.7781 191.148 71.1118 220.311 79.6082C223.09 80.4204 222.331 84.8783 219.504 84.0859C198.284 78.1167 175.682 79.4357 155.231 87.6385C144.81 91.8166 135.035 97.8029 126.694 105.336C117.146 113.963 107.146 125.873 109.066 139.644C111.186 154.839 126.44 158.798 139.076 153.275C146.455 150.05 151.504 144.076 146.64 136.122C142.691 129.661 134.888 126.31 127.772 124.796C104.971 119.936 77.6062 124.863 56.8814 135.011C30.893 147.735 10.6986 173.097 9.94312 202.762C9.89393 204.664 6.93758 204.942 6.95561 203.007Z" fill="url(#paint1_linear_1543_46329)"/>
<path d="M187.3 89.9948C203.991 88.0436 220.697 86.1801 237.368 84.0437C236.869 85.5585 236.371 87.0789 235.872 88.5937C230.545 82.7511 225.194 76.9682 219.46 71.5184C214.18 66.5088 207.599 62.1605 203.127 56.4343C201.713 54.627 204.041 52.2073 205.975 53.1401C212.74 56.4108 218.5 62.8736 223.836 68.0659C229.414 73.4934 234.784 79.167 239.732 85.1781C241.006 86.7238 239.602 89.0848 237.789 89.2246C221.049 90.5169 204.323 92.0863 187.596 93.5696C185.283 93.7729 185.015 90.2588 187.3 89.9948Z" fill="url(#paint2_linear_1543_46329)"/>
<path d="M192.716 93.394C198.17 90.7771 204.076 88.9504 209.737 86.8407C212.42 85.838 215.1 84.8391 217.779 83.844C219.019 83.3768 225.791 81.7293 226.072 80.4322C226.218 79.7626 220.391 75.4768 219.673 74.8477C217.538 72.9888 215.406 71.126 213.271 69.2671C209.109 65.6336 203.329 62.0297 200.609 57.159C199.632 55.4192 201.23 53.4835 203.125 54.241C206.638 55.6477 209.192 58.542 211.996 61.0308C215.175 63.8464 218.353 66.6657 221.532 69.4813C224.472 72.0922 232.551 76.7282 231.659 81.5916C230.81 86.2383 221.819 87.1391 218.24 88.3799C210.197 91.172 202.116 94.5862 193.858 96.6398C191.688 97.1773 190.721 94.3475 192.716 93.394Z" fill="url(#paint3_linear_1543_46329)"/>
<path d="M192.629 91.7559C198.92 90.1333 205.792 90.188 212.244 89.2971C219.718 88.2657 227.233 86.9983 234.486 84.8938C234.206 86.3668 233.922 87.838 233.642 89.311C228.431 84.5622 223.022 80.027 217.379 75.8014C211.889 71.6919 204.9 68.5415 200.139 63.6631C198.754 62.2492 199.674 59.0585 202.02 59.7438C208.257 61.5659 214.201 66.628 219.37 70.4558C225.591 75.0583 231.454 80.0529 237.057 85.3882C238.75 87.0018 237.772 89.5816 235.56 89.942C228.225 91.1395 220.945 92.5579 213.553 93.4198C206.906 94.1934 199.468 95.4269 192.83 94.3226C191.581 94.1169 191.307 92.0982 192.629 91.7559Z" fill="url(#paint4_linear_1543_46329)"/>
</g>
<defs>
<linearGradient id="paint0_linear_1543_46329" x1="72.1328" y1="227.193" x2="155.028" y2="54.4752" gradientUnits="userSpaceOnUse">
<stop stop-color="#F86CA7"/>
<stop offset="1" stop-color="#FF7F18"/>
</linearGradient>
<linearGradient id="paint1_linear_1543_46329" x1="67.4561" y1="232.904" x2="155.888" y2="48.6493" gradientUnits="userSpaceOnUse">
<stop stop-color="#F86CA7"/>
<stop offset="1" stop-color="#FF7F18"/>
</linearGradient>
<linearGradient id="paint2_linear_1543_46329" x1="206.174" y1="102.783" x2="225.502" y2="62.5118" gradientUnits="userSpaceOnUse">
<stop stop-color="#F86CA7"/>
<stop offset="1" stop-color="#FF7F18"/>
</linearGradient>
<linearGradient id="paint3_linear_1543_46329" x1="200.764" y1="100.471" x2="219.252" y2="61.9502" gradientUnits="userSpaceOnUse">
<stop stop-color="#F86CA7"/>
<stop offset="1" stop-color="#FF7F18"/>
</linearGradient>
<linearGradient id="paint4_linear_1543_46329" x1="206.14" y1="100.764" x2="221.499" y2="68.7613" gradientUnits="userSpaceOnUse">
<stop stop-color="#F86CA7"/>
<stop offset="1" stop-color="#FF7F18"/>
</linearGradient>
</defs>
</svg>
