<svg width="11" height="11" viewBox="0 0 11 11" fill="none" xmlns="http://www.w3.org/2000/svg">
<g clip-path="url(#clip0_1704_33532)">
<path d="M2.11516 6.51852L10.5773 6.51852C10.6609 6.5186 10.7426 6.54424 10.8121 6.59221C10.8816 6.64018 10.9358 6.70833 10.9678 6.78804C10.9998 6.86775 11.0082 6.95546 10.9919 7.04009C10.9756 7.12471 10.9354 7.20246 10.8763 7.2635L8.05556 10.1736C8.01682 10.2165 7.97011 10.2509 7.91821 10.2747C7.86631 10.2986 7.81028 10.3114 7.75347 10.3124C7.69666 10.3135 7.64023 10.3027 7.58755 10.2807C7.53486 10.2588 7.48701 10.2261 7.44683 10.1846C7.40665 10.1432 7.37498 10.0938 7.3537 10.0395C7.33242 9.98512 7.32197 9.9269 7.32297 9.86829C7.32397 9.80968 7.33641 9.75188 7.35953 9.69833C7.38266 9.64479 7.416 9.5966 7.45757 9.55663L9.55561 7.39154L2.11516 7.39154C2.00294 7.39154 1.89532 7.34555 1.81598 7.26369C1.73663 7.18183 1.69205 7.0708 1.69205 6.95503C1.69205 6.83926 1.73663 6.72824 1.81598 6.64637C1.89532 6.56451 2.00294 6.51852 2.11516 6.51852ZM2.94444 0.826432L0.123739 3.7365C0.0646414 3.79754 0.0244043 3.87529 0.00810944 3.95991C-0.00818542 4.04454 0.000192853 4.13225 0.0321861 4.21196C0.0641793 4.29167 0.118352 4.35982 0.187863 4.40779C0.257374 4.45576 0.339105 4.4814 0.422733 4.48148L8.88485 4.48148C8.99706 4.48148 9.10468 4.43549 9.18403 4.35363C9.26337 4.27176 9.30795 4.16074 9.30795 4.04497C9.30795 3.9292 9.26337 3.81817 9.18403 3.73631C9.10468 3.65445 8.99706 3.60846 8.88485 3.60846L1.44439 3.60846L3.54243 1.44337C3.584 1.4034 3.61734 1.35521 3.64047 1.30167C3.66359 1.24812 3.67603 1.19032 3.67703 1.13171C3.67803 1.0731 3.66758 1.01488 3.6463 0.96053C3.62502 0.906177 3.59335 0.856803 3.55317 0.815352C3.51299 0.773902 3.46514 0.741224 3.41245 0.719271C3.35977 0.697316 3.30334 0.686535 3.24653 0.687569C3.18972 0.688603 3.13369 0.701431 3.08179 0.725289C3.02989 0.749147 2.98318 0.783545 2.94444 0.826432Z" fill="#727272"/>
</g>
<defs>
<clipPath id="clip0_1704_33532">
<rect width="11" height="11" fill="white" transform="translate(0 11) rotate(-90)"/>
</clipPath>
</defs>
</svg>
