<svg width="106" height="65" viewBox="0 0 106 65" fill="none" xmlns="http://www.w3.org/2000/svg">
<g opacity="0.4">
<path d="M101.602 27.9793C73.1495 51.1528 32.3721 52.0835 3.82901 28.6472C2.31576 27.4054 0.226669 29.6208 1.75024 30.8965C31.0245 55.3563 74.0716 54.8695 101.873 28.3038C102.034 28.1437 101.789 27.8236 101.602 27.9793Z" fill="#FF6B55"/>
<path d="M100.745 27.2286C99.2362 27.0957 97.9187 28.3606 96.5918 28.9867C94.7131 29.8673 92.7401 30.357 90.6881 30.5871C89.2653 30.7366 89.3187 32.9782 90.7493 32.814C92.8985 32.579 94.98 32.0809 96.9525 31.1841C98.4713 30.4995 100.852 29.5649 101.146 27.7356C101.195 27.4494 101.013 27.258 100.745 27.2286Z" fill="#FF6B55"/>
<path d="M101.306 27.6129C99.7915 28.839 98.5064 30.0076 97.3839 31.6696C96.2187 33.3939 95.3932 35.2616 94.6664 37.2102C94.0795 38.8078 96.7208 39.4594 97.2714 37.8235C98.3927 34.4963 100.064 31.1125 101.787 28.0586C101.951 27.7866 101.584 27.3924 101.306 27.6129Z" fill="#FF6B55"/>
</g>
</svg>
