<svg width="100" height="100" viewBox="0 0 100 100" fill="none" xmlns="http://www.w3.org/2000/svg">
<g clip-path="url(#clip0_1635_61621)">
<path d="M29.7737 38.1813V41.3918C29.7737 47.1558 33.9211 57.3502 37.8022 64.9696C39.9407 69.1689 42.2028 73.0156 44.1704 75.8034C44.7792 76.6647 45.3278 77.3827 45.8252 77.9823H39.8453V80.912H61.1992V77.9823H54.1764C54.6738 77.3827 55.2224 76.6647 55.8312 75.8034C57.7988 73.0156 60.0609 69.1689 62.1994 64.9696C66.0805 57.3509 70.2278 47.1558 70.2278 41.3918V38.1813L74.3965 42.3508L83.2375 33.5098L70.2278 20.4994V0.304413H57.4768V7.72858L50.0038 0.195312L16.7656 33.5106L25.605 42.3508L29.7737 38.1813ZM49.9977 4.34952L60.4065 14.8422V3.2341H67.2974V21.7133L79.094 33.5091L74.3958 38.2072L67.2974 31.1089V41.391C67.2974 45.6558 64.4577 53.9558 59.8862 63.0524C57.8812 67.0418 55.7373 70.7588 53.8498 73.5184C51.4977 76.9585 50.3258 77.7718 50.0008 77.9465C49.675 77.7718 48.5039 76.9585 46.151 73.5184C44.2635 70.7588 42.1196 67.0418 40.1146 63.0524C35.5439 53.9558 32.7034 45.6558 32.7034 41.391V31.1089L25.605 38.2072L20.9061 33.5083L49.9977 4.34952Z" fill="#FF6B55"/>
<path d="M48.8276 73.9234L51.1729 72.1679C49.0344 69.3122 46.2954 64.6087 43.8464 59.5862C43.1918 58.2419 42.5639 56.8908 41.9818 55.5686L39.3008 56.7496C39.8982 58.1061 40.5413 59.4924 41.2135 60.8703C44.8527 68.3349 47.7503 72.4853 48.8276 73.9234Z" fill="#FF6B55"/>
<path d="M60.0065 25.6858H39.9961V45.6954H60.0057V25.6858H60.0065ZM57.0768 34.2254H51.4654V28.6155H57.0768V34.2254ZM48.5357 28.6155V34.2254H42.9258V28.6155H48.5357ZM42.9258 37.1551H48.5357V42.7657H42.9258V37.1551ZM51.4654 42.7657V37.1551H57.0768V42.7657H51.4654Z" fill="#FF6B55"/>
<path d="M87.3703 72.2107H60.1395V75.1404H70.5589L78.0754 83.7532H72.5426L66.3162 76.619L64.109 78.5454L68.6546 83.7532H31.6017L36.1473 78.5454L33.9401 76.619L27.7138 83.7532H21.2486L26.7479 77.4521H11.9446L13.961 75.1404H39.8605V72.2107H12.6297L0 86.6829H100L87.3703 72.2107ZM6.44455 83.7532L9.38721 80.3818H20.3026L17.3599 83.7532H6.44455ZM81.9633 83.7532L74.4476 75.1404H78.8071L83.4061 80.41L85.6133 78.4836L82.6958 75.1404H86.039L93.5555 83.7532H81.9633Z" fill="#FF6B55"/>
<path d="M68.6399 30.0767L55.8264 17.1601L57.9061 15.0971L70.7197 28.0137L68.6399 30.0767ZM54.4515 15.7739L52.3878 13.6941L54.4676 11.6303L56.5313 13.7101L54.4515 15.7739ZM51.0122 12.3071L48.9492 10.2273L51.029 8.16431L53.092 10.2441L51.0122 12.3071Z" fill="#FF6B55"/>
</g>
<defs>
<clipPath id="clip0_1635_61621">
<rect width="100" height="100" fill="white"/>
</clipPath>
</defs>
</svg>
