<svg width="50" height="50" viewBox="0 0 50 50" fill="none" xmlns="http://www.w3.org/2000/svg">
<g clip-path="url(#clip0_1543_45909)">
<path d="M16.8891 0.282803C16.629 0.441174 16.3009 0.757919 16.1538 0.995476C15.9163 1.38009 15.8937 1.56108 15.8597 3.30317L15.8145 5.20362H9.37783C3.28054 5.20362 2.90724 5.21493 2.51131 5.41855C1.75339 5.80317 1.35747 6.47059 1.35747 7.34163C1.35747 8.00905 1.4819 8.38235 1.80995 8.71041C2.05882 8.95927 2.05882 8.95927 1.83258 9.19683C1.26697 9.819 1.3009 8.78959 1.26697 28.0656L1.24434 46.1086L0.791855 46.3122C0.147059 46.595 0 46.957 0 48.2014C0 49.2195 0 49.2308 0.384615 49.6154L0.769231 50H25H49.2308L49.6154 49.6154C50 49.2308 50 49.2195 50 48.2014C50 46.957 49.8529 46.595 49.2081 46.3122L48.7557 46.1086L48.733 28.0656C48.6991 8.50679 48.7443 9.95475 48.1674 9.15158C48.0656 9.00452 48.0882 8.90271 48.2692 8.64253C49.0385 7.55656 48.6765 6.02941 47.5113 5.42986C47.0814 5.21493 46.8326 5.20362 40.6222 5.20362H34.1742L34.1403 3.30317C34.1063 1.43665 34.095 1.38009 33.7896 0.927601C33.6199 0.667419 33.2805 0.350677 33.0317 0.226242C32.6018 0.0113106 32.3869 0 24.9774 0H17.3643L16.8891 0.282803ZM32.6584 1.40271L32.9751 1.67421L33.0317 4.94344C33.0882 8.39367 33.0995 8.41629 33.6765 8.94796C34.3439 9.58145 34.095 9.55882 40.8145 9.61538L47.0814 9.67194L47.2964 9.94344C47.5113 10.2036 47.5113 10.6561 47.5113 28.1787V46.1538H40.1018H32.6923V41.7081V37.2738L33.0543 37.1041C33.5634 36.8665 33.8122 36.4593 33.9027 35.7692C33.9819 35.0452 33.7217 34.276 33.2805 33.9706C32.9864 33.7783 32.5452 33.767 25.0452 33.767C16.4593 33.767 16.7421 33.7443 16.3235 34.3778C16.0747 34.7511 16.0407 36.1425 16.2783 36.5724C16.3688 36.7421 16.629 36.9683 16.8665 37.0701L17.2964 37.2738L17.3077 41.7081V46.1538H9.89819H2.48869V28.1787C2.48869 10.6561 2.48869 10.2036 2.70362 9.94344L2.91855 9.67194L9.18552 9.61538C14.7398 9.57013 15.4751 9.5362 15.7805 9.36652C16.233 9.11765 16.6968 8.61991 16.8439 8.22398C16.9231 8.03167 16.9683 6.78733 16.9683 5.02262C16.9683 1.99095 17.0362 1.52715 17.5 1.25565C17.6357 1.17647 20.0226 1.14253 25.0226 1.13122H32.3416L32.6584 1.40271ZM31.448 41.7421V46.1538H30.6561H29.8643V42.6584C29.8643 39.1629 29.8643 39.1516 29.6154 38.9819C29.4005 38.8235 28.767 38.8009 25 38.8009C21.233 38.8009 20.5995 38.8235 20.3846 38.9819C20.1357 39.1516 20.1357 39.1629 20.1357 42.6584V46.1538H19.3439H18.552V41.7421V37.3303H25H31.448V41.7421ZM24.4344 43.0995V46.1538H22.8507H21.267V43.0995V40.0452H22.8507H24.4344V43.0995ZM28.733 43.0995V46.1538H27.1493H25.5656V43.0995V40.0452H27.1493H28.733V43.0995Z" fill="url(#paint0_linear_1543_45909)"/>
<path d="M23.948 3.5974C23.7897 3.76709 23.7557 4.04989 23.7557 5.06799C23.7557 5.76935 23.7105 6.33496 23.6539 6.33496C23.5974 6.33496 23.1109 6.07478 22.5679 5.76935C21.1539 4.95487 20.9164 5.00012 20.2602 6.24446C19.853 7.00238 19.9661 7.23993 20.9616 7.81686C21.4028 8.07704 21.9231 8.37116 22.0928 8.48428L22.4209 8.67659L21.4707 9.21957C19.8983 10.1245 19.7964 10.2829 20.3168 11.1879C20.9729 12.3078 21.1879 12.3417 22.6019 11.5386C23.1449 11.2218 23.6313 10.973 23.6765 10.973C23.7218 10.973 23.7557 11.5499 23.7557 12.2512C23.7557 13.8689 23.8349 13.9707 25.0001 13.9707C26.1652 13.9707 26.2444 13.8689 26.2444 12.2512C26.2444 11.5046 26.2897 10.973 26.3575 10.973C26.4141 10.973 26.8892 11.2218 27.4209 11.5386C28.6313 12.2512 28.948 12.2739 29.4005 11.6517C30.2716 10.4413 30.1924 10.1698 28.7331 9.32138L27.6019 8.66527L27.9186 8.47297C28.0883 8.37116 28.5974 8.07704 29.0385 7.81686C30.034 7.23993 30.1471 7.00238 29.7399 6.24446C29.0838 5.00012 28.8462 4.95487 27.4322 5.76935C26.8892 6.07478 26.4028 6.33496 26.3462 6.33496C26.2897 6.33496 26.2444 5.75803 26.2444 5.05668C26.2444 3.45034 26.2105 3.39378 24.9774 3.39378C24.2987 3.39378 24.0951 3.43903 23.948 3.5974Z" fill="url(#paint1_linear_1543_45909)"/>
<path d="M5.4974 12.1267C5.33903 12.3416 5.31641 12.9185 5.31641 16.1765C5.31641 19.4344 5.33903 20.0113 5.4974 20.2262C5.66708 20.4751 5.6784 20.4751 9.27568 20.4751C12.3979 20.4751 12.9069 20.4525 13.054 20.2941C13.2123 20.147 13.235 19.6154 13.235 16.1878C13.235 12.5226 13.2236 12.2398 13.0313 12.0701C12.8503 11.9004 12.4092 11.8778 9.24174 11.8778C5.6784 11.8778 5.66708 11.8778 5.4974 12.1267ZM11.9906 14.3099V15.6108H9.27568H6.56075V14.3099V13.009H9.27568H11.9906V14.3099ZM11.9906 18.043V19.3439H9.27568H6.56075V18.043V16.7421H9.27568H11.9906V18.043Z" fill="url(#paint2_linear_1543_45909)"/>
<path d="M36.9579 12.0814C36.7882 12.2737 36.7656 12.7262 36.7656 16.2104C36.7656 19.6154 36.7882 20.147 36.9466 20.2941C37.0937 20.4525 37.6027 20.4751 40.7136 20.4751C43.9263 20.4751 44.3335 20.4525 44.4692 20.2828C44.5937 20.1357 44.6276 19.3326 44.6276 16.1765C44.6276 13.0203 44.5937 12.2172 44.4692 12.0701C44.3335 11.9004 43.9263 11.8778 40.7249 11.8778C37.3991 11.8778 37.1276 11.8891 36.9579 12.0814ZM43.4398 14.3099V15.6108H40.7249H38.01V14.3099V13.009H40.7249H43.4398V14.3099ZM43.4398 18.043V19.3439H40.7249H38.01V18.043V16.7421H40.7249H43.4398V18.043Z" fill="url(#paint3_linear_1543_45909)"/>
<path d="M20.565 16.4707C19.7506 16.9006 19.5469 18.4164 20.1239 19.6381C20.8592 21.1879 22.2279 21.9006 23.2687 21.2671C24.3773 20.5997 24.2754 18.5182 23.0764 17.1495C22.375 16.3576 21.3003 16.0635 20.565 16.4707Z" fill="url(#paint4_linear_1543_45909)"/>
<path d="M27.7034 16.5158C26.7306 17.0249 25.9727 18.371 25.9727 19.5701C25.9727 20.4412 26.1989 20.9502 26.7306 21.2669C27.76 21.9004 29.1514 21.1764 29.8754 19.638C30.4523 18.4276 30.2374 16.9683 29.4229 16.4819C28.993 16.233 28.2125 16.2443 27.7034 16.5158Z" fill="url(#paint5_linear_1543_45909)"/>
<path d="M17.0819 21.3008C16.6747 21.5044 16.29 22.1379 16.29 22.613C16.3014 24.4003 18.824 26.0519 20.0118 25.0451C20.8715 24.3212 20.6452 22.975 19.4688 21.923C18.6882 21.2216 17.738 20.9727 17.0819 21.3008Z" fill="url(#paint6_linear_1543_45909)"/>
<path d="M31.2785 21.3577C30.0681 21.9347 29.2084 23.4166 29.5251 24.3781C29.8305 25.317 30.826 25.5998 31.9572 25.0681C32.9753 24.6043 33.6314 23.6315 33.6428 22.6021C33.6541 22.0138 33.6201 21.912 33.2921 21.5953C32.8283 21.1315 31.9799 21.0297 31.2785 21.3577Z" fill="url(#paint7_linear_1543_45909)"/>
<path d="M24.2767 22.8507C23.7564 23.009 23.3265 23.5068 22.7722 24.6041C22.331 25.4751 22.0595 25.8032 21.0188 26.8326C20.3514 27.5 19.7405 28.1787 19.684 28.3371C19.3898 29.1176 19.7631 30.2149 20.4079 30.4864C20.9396 30.7127 21.4373 30.7013 22.8514 30.4185C23.5075 30.2941 24.469 30.1923 25.0007 30.1923C25.5324 30.1923 26.4939 30.2941 27.15 30.4185C28.564 30.7013 29.0618 30.7127 29.5935 30.4864C30.0459 30.3054 30.4192 29.6041 30.4306 28.9593C30.4306 28.3937 30.1251 27.9525 28.8582 26.7081C27.9419 25.8032 27.6591 25.4525 27.2292 24.6041C26.9464 24.0385 26.5618 23.4502 26.3921 23.2692C25.8717 22.7828 25.0573 22.6244 24.2767 22.8507Z" fill="url(#paint8_linear_1543_45909)"/>
<path d="M5.58798 23.0092C5.38436 23.1676 5.37305 23.3486 5.37305 27.2061C5.37305 31.0635 5.38436 31.2445 5.58798 31.4029C5.76897 31.5273 6.47033 31.5613 9.29839 31.5613C12.6355 31.5613 12.7939 31.55 13.0088 31.335C13.2237 31.1201 13.235 30.9617 13.235 27.2061C13.235 23.4504 13.2237 23.292 13.0088 23.0771C12.7939 22.8622 12.6355 22.8509 9.29839 22.8509C6.47033 22.8509 5.76897 22.8848 5.58798 23.0092ZM11.9907 25.3396V26.5839H9.27576H6.56083V25.3396V24.0952H9.27576H11.9907V25.3396ZM11.9907 29.0726V30.3169H9.27576H6.56083V29.0726V27.8282H9.27576H11.9907V29.0726Z" fill="url(#paint9_linear_1543_45909)"/>
<path d="M36.9919 23.0771C36.7769 23.292 36.7656 23.4504 36.7656 27.2061C36.7656 30.9617 36.7769 31.1201 36.9919 31.335C37.2068 31.55 37.3652 31.5613 40.7023 31.5613C43.5303 31.5613 44.2317 31.5273 44.4127 31.4029C44.6163 31.2445 44.6276 31.0635 44.6276 27.2061C44.6276 23.3486 44.6163 23.1676 44.4127 23.0092C44.2317 22.8848 43.5303 22.8509 40.7023 22.8509C37.3652 22.8509 37.2068 22.8622 36.9919 23.0771ZM43.4398 25.3396V26.5839H40.7249H38.01V25.3396V24.0952H40.7249H43.4398V25.3396ZM43.4398 29.0726V30.3169H40.7249H38.01V29.0726V27.8282H40.7249H43.4398V29.0726Z" fill="url(#paint10_linear_1543_45909)"/>
<path d="M5.58879 34.0951C5.38517 34.2534 5.37385 34.4571 5.33992 38.7444C5.31729 42.6584 5.3286 43.2806 5.48698 43.5068L5.65666 43.7783H9.26526C12.6024 43.7783 12.8739 43.767 13.0435 43.5747C13.2132 43.3824 13.2358 42.896 13.2358 38.8801C13.2358 34.5362 13.2245 34.3779 13.0096 34.1629C12.7947 33.948 12.6363 33.9367 9.29919 33.9367C6.47114 33.9367 5.76978 33.9706 5.58879 34.0951ZM11.9915 36.7647V38.3485H9.27657H6.56164V36.7647V35.181H9.27657H11.9915V36.7647ZM11.9915 41.0634V42.6471H9.27657H6.56164V41.0634V39.4797H9.27657H11.9915V41.0634Z" fill="url(#paint11_linear_1543_45909)"/>
<path d="M36.9919 34.163C36.7769 34.3779 36.7656 34.5363 36.7656 38.9028C36.7656 42.8734 36.7882 43.439 36.9466 43.5974C37.105 43.7558 37.5688 43.7784 40.7588 43.7558L44.3901 43.7218L44.5371 43.439C44.7294 43.0544 44.752 34.7625 44.5597 34.344C44.4919 34.1969 44.3222 34.0386 44.1864 34.0046C44.062 33.9707 42.433 33.9367 40.5892 33.9367C37.3652 33.9367 37.2068 33.9481 36.9919 34.163ZM43.4398 36.7648V38.3485H40.7249H38.01V36.7648V35.1811H40.7249H43.4398V36.7648ZM43.4398 41.0634V42.6472H40.7249H38.01V41.0634V39.4797H40.7249H43.4398V41.0634Z" fill="url(#paint12_linear_1543_45909)"/>
</g>
<defs>
<linearGradient id="paint0_linear_1543_45909" x1="0" y1="25" x2="50" y2="25" gradientUnits="userSpaceOnUse">
<stop stop-color="#F86CA7"/>
<stop offset="1" stop-color="#FF7F18"/>
</linearGradient>
<linearGradient id="paint1_linear_1543_45909" x1="20.0352" y1="8.68224" x2="29.9633" y2="8.68224" gradientUnits="userSpaceOnUse">
<stop stop-color="#F86CA7"/>
<stop offset="1" stop-color="#FF7F18"/>
</linearGradient>
<linearGradient id="paint2_linear_1543_45909" x1="5.31641" y1="16.1765" x2="13.235" y2="16.1765" gradientUnits="userSpaceOnUse">
<stop stop-color="#F86CA7"/>
<stop offset="1" stop-color="#FF7F18"/>
</linearGradient>
<linearGradient id="paint3_linear_1543_45909" x1="36.7656" y1="16.1765" x2="44.6276" y2="16.1765" gradientUnits="userSpaceOnUse">
<stop stop-color="#F86CA7"/>
<stop offset="1" stop-color="#FF7F18"/>
</linearGradient>
<linearGradient id="paint4_linear_1543_45909" x1="19.7949" y1="18.8929" x2="24.0414" y2="18.8929" gradientUnits="userSpaceOnUse">
<stop stop-color="#F86CA7"/>
<stop offset="1" stop-color="#FF7F18"/>
</linearGradient>
<linearGradient id="paint5_linear_1543_45909" x1="25.9727" y1="18.8997" x2="30.2006" y2="18.8997" gradientUnits="userSpaceOnUse">
<stop stop-color="#F86CA7"/>
<stop offset="1" stop-color="#FF7F18"/>
</linearGradient>
<linearGradient id="paint6_linear_1543_45909" x1="16.29" y1="23.2545" x2="20.531" y2="23.2545" gradientUnits="userSpaceOnUse">
<stop stop-color="#F86CA7"/>
<stop offset="1" stop-color="#FF7F18"/>
</linearGradient>
<linearGradient id="paint7_linear_1543_45909" x1="29.459" y1="23.2501" x2="33.6445" y2="23.2501" gradientUnits="userSpaceOnUse">
<stop stop-color="#F86CA7"/>
<stop offset="1" stop-color="#FF7F18"/>
</linearGradient>
<linearGradient id="paint8_linear_1543_45909" x1="19.582" y1="26.697" x2="30.4306" y2="26.697" gradientUnits="userSpaceOnUse">
<stop stop-color="#F86CA7"/>
<stop offset="1" stop-color="#FF7F18"/>
</linearGradient>
<linearGradient id="paint9_linear_1543_45909" x1="5.37305" y1="27.2061" x2="13.235" y2="27.2061" gradientUnits="userSpaceOnUse">
<stop stop-color="#F86CA7"/>
<stop offset="1" stop-color="#FF7F18"/>
</linearGradient>
<linearGradient id="paint10_linear_1543_45909" x1="36.7656" y1="27.2061" x2="44.6276" y2="27.2061" gradientUnits="userSpaceOnUse">
<stop stop-color="#F86CA7"/>
<stop offset="1" stop-color="#FF7F18"/>
</linearGradient>
<linearGradient id="paint11_linear_1543_45909" x1="5.33105" y1="38.8575" x2="13.2358" y2="38.8575" gradientUnits="userSpaceOnUse">
<stop stop-color="#F86CA7"/>
<stop offset="1" stop-color="#FF7F18"/>
</linearGradient>
<linearGradient id="paint12_linear_1543_45909" x1="36.7656" y1="38.85" x2="44.6932" y2="38.85" gradientUnits="userSpaceOnUse">
<stop stop-color="#F86CA7"/>
<stop offset="1" stop-color="#FF7F18"/>
</linearGradient>
<clipPath id="clip0_1543_45909">
<rect width="50" height="50" fill="white"/>
</clipPath>
</defs>
</svg>
