<?xml version="1.0" encoding="iso-8859-1"?>
<!-- Uploaded to: SVG Repo, www.svgrepo.com, Generator: SVG Repo Mixer Tools -->
<svg height="30px" width="30px" version="1.1" id="Layer_1" xmlns="http://www.w3.org/2000/svg" xmlns:xlink="http://www.w3.org/1999/xlink"
     viewBox="0 0 512 512" xml:space="preserve">
<path style="fill:#EC5565;" d="M512,256.006C512,397.402,397.394,512.004,256.004,512C114.606,512.004,0,397.402,0,256.006
	C-0.007,114.61,114.606,0,256.004,0C397.394,0,512,114.614,512,256.006z"/>
    <path style="fill:#D94453;" d="M512,256.005c0-14.762-1.318-29.207-3.716-43.285c-0.244-0.201-101.229-101.269-101.493-101.534
	c-0.264-0.265-0.6-0.389-0.898-0.596c-0.208-0.297-0.332-0.633-0.596-0.898c-0.265-0.266-0.601-0.388-0.898-0.596
	c-0.208-0.297-0.332-0.633-0.596-0.898c-2.435-2.435-6.381-2.435-8.816,0L256,247.184c0,0-137.491-137.491-137.493-137.492
	l-1.493-1.493c-2.435-2.435-6.38-2.435-8.816,0c-2.436,2.435-2.435,6.38,0,8.816c0,0,32.873,32.873,32.874,32.875l85.175,85.175
	L247.184,256L108.198,394.985c-2.435,2.435-2.435,6.381,0,8.816c0.265,0.265,0.601,0.389,0.898,0.596
	c0.207,0.297,102.81,102.9,103.107,103.107c0.179,0.258,0.317,0.535,0.518,0.781c14.077,2.398,28.523,3.715,43.282,3.715
	C397.394,512.004,512,397.401,512,256.005z"/>
    <path style="fill:#F4F6F9;" d="M264.816,256l138.986-138.986c2.435-2.435,2.435-6.381,0-8.816c-2.435-2.435-6.381-2.435-8.816,0
	L256,247.184L117.014,108.198c-2.435-2.435-6.381-2.435-8.816,0s-2.435,6.381,0,8.816L247.184,256L108.198,394.986
	c-2.435,2.435-2.435,6.381,0,8.816c1.218,1.218,2.813,1.826,4.407,1.826c1.595,0,3.19-0.609,4.407-1.826L256,264.816
	l138.986,138.986c1.218,1.218,2.813,1.826,4.407,1.826s3.19-0.609,4.407-1.826c2.435-2.435,2.435-6.381,0-8.816L264.816,256z"/>
</svg>