<svg width="39" height="26" viewBox="0 0 39 26" fill="none" xmlns="http://www.w3.org/2000/svg">
<rect x="1.14258" y="0.5" width="37.0685" height="24.9999" rx="3.5" fill="white" stroke="#D9D9D9"/>
<path d="M16.959 24.9166L37.6247 18.6875V21.9166C37.6247 23.5735 36.2816 24.9166 34.6247 24.9166H16.959Z" fill="#FD6020"/>
<path fill-rule="evenodd" clip-rule="evenodd" d="M33.7024 9.86986C34.8394 9.86986 35.4647 10.3937 35.4647 11.3832C35.5215 12.1398 35.0099 12.7801 34.3277 12.8965L35.8626 15.05H34.6688L33.3613 12.9547H33.2476V15.05H32.2812V9.86986H33.7024ZM33.248 12.2565H33.5323C34.1576 12.2565 34.4418 11.9654 34.4418 11.4416C34.4418 10.976 34.1576 10.6849 33.5323 10.6849H33.248V12.2565ZM28.9277 15.0503H31.6564V14.1772H29.8941V12.7803H31.5995V11.9072H29.8941V10.7432H31.6564V9.87011H28.9277V15.0503ZM26.0846 13.3623L24.7771 9.87011H23.7539L25.8572 15.1667H26.3689L28.4722 9.87011H27.449L26.0846 13.3623ZM14.5449 12.4892C14.5449 13.9443 15.6819 15.1666 17.103 15.1666C17.5578 15.1666 17.9557 15.0502 18.3537 14.8755V13.7115C18.0694 14.0607 17.6715 14.2935 17.2167 14.2935C16.3072 14.2935 15.5682 13.5951 15.5682 12.6638V12.5474C15.5113 11.6161 16.2503 10.8013 17.1599 10.7431C17.6146 10.7431 18.0694 10.9759 18.3537 11.3251V10.161C18.0126 9.92821 17.5578 9.87001 17.1599 9.87001C15.6819 9.7536 14.5449 10.9759 14.5449 12.4892ZM12.7805 11.849C12.2121 11.6162 12.0415 11.4998 12.0415 11.2088C12.0984 10.8596 12.3826 10.5685 12.7237 10.6267C13.0079 10.6267 13.2922 10.8013 13.5196 11.0342L14.0312 10.3357C13.6332 9.98649 13.1216 9.75368 12.61 9.75368C11.8142 9.69547 11.132 10.3357 11.0751 11.1506V11.2088C11.0751 11.9072 11.3594 12.3147 12.2689 12.6057C12.4963 12.6639 12.7237 12.7803 12.9511 12.8967C13.1216 13.0131 13.2353 13.1877 13.2353 13.4205C13.2353 13.828 12.8942 14.1772 12.5532 14.1772H12.4963C12.0415 14.1772 11.6436 13.8862 11.4731 13.4787L10.8478 14.119C11.1888 14.7592 11.871 15.1084 12.5532 15.1084C13.4627 15.1666 14.2017 14.4682 14.2586 13.5369V13.3623C14.2017 12.6639 13.9175 12.3147 12.7805 11.849ZM9.48438 15.0503H10.4508V9.87011H9.48438V15.0503ZM4.99414 9.87011H6.41531H6.69955C8.06387 9.92831 9.14396 11.0924 9.08711 12.4893C9.08711 13.2459 8.74603 13.9444 8.17756 14.4682C7.66594 14.8756 7.04063 15.1085 6.41531 15.0503H4.99414V9.87011ZM6.24517 14.1773C6.69995 14.2355 7.21157 14.0609 7.55265 13.7699C7.89373 13.4207 8.06427 12.955 8.06427 12.4312C8.06427 11.9656 7.89373 11.4999 7.55265 11.1507C7.21157 10.8597 6.69995 10.6851 6.24517 10.7433H5.96094V14.1773H6.24517Z" fill="black"/>
<path fill-rule="evenodd" clip-rule="evenodd" d="M21.2497 9.75C19.8285 9.75 18.6348 10.9141 18.6348 12.4274C18.6348 13.8825 19.7717 15.1048 21.2497 15.163C22.7277 15.2212 23.8647 13.9989 23.9215 12.4856C23.8647 10.9723 22.7277 9.75 21.2497 9.75V9.75Z" fill="#FD6020"/>
</svg>
