<svg width="70" height="70" viewBox="0 0 70 70" fill="none" xmlns="http://www.w3.org/2000/svg">
<path d="M38.7486 21.0207C35.0608 19.1827 33.8632 15.3827 33.4759 13.2485C33.3144 12.3591 32.5458 11.708 31.639 11.708C30.7322 11.708 29.9637 12.3591 29.8021 13.2485C29.4148 15.3824 28.2173 19.1827 24.5295 21.0207C19.2387 23.658 19.2387 29.9213 23.8682 31.8993C28.3865 33.8298 31.639 28.6851 31.639 28.6851C31.639 28.6851 34.8915 33.8295 39.4099 31.8993C44.0396 29.9213 44.0396 23.658 38.7486 21.0207Z" fill="#FBFBFB"/>
<path d="M34.7067 22.0606C34.7067 23.5511 33.1336 25.1064 31.6385 25.1064C30.1434 25.1064 28.5703 23.5511 28.5703 22.0606C28.5703 20.5701 30.1434 21.1708 31.6385 21.1708C33.1336 21.1705 34.7067 20.5701 34.7067 22.0606Z" fill="#FBFBFB"/>
<path d="M37.3962 33.0095C34.9034 33.0095 32.8271 31.3218 31.6394 29.8535C30.1039 31.7511 27.0826 34.0163 23.5984 32.5274C21.2858 31.5395 19.8628 29.512 19.7918 27.1038C19.7114 24.3768 21.4093 21.8117 24.2232 20.4093C27.651 18.7006 28.7673 15.1131 29.1277 13.1269C29.3488 11.9084 30.4054 11.0244 31.6394 11.0244C32.8737 11.0244 33.93 11.9087 34.1511 13.1269C34.5115 15.1131 35.6278 18.7006 39.0556 20.4093C41.8692 21.8117 43.5674 24.3768 43.487 27.1038C43.416 29.512 41.9929 31.5395 39.6804 32.5274C38.8916 32.8646 38.126 33.0092 37.3962 33.0095ZM31.6394 28.0015C31.8747 28.0015 32.0939 28.1218 32.2195 28.3206C32.2266 28.3318 33.0026 29.5388 34.2748 30.4939C35.8832 31.7016 37.5201 31.9633 39.1404 31.271C40.949 30.4982 42.0612 28.9254 42.1164 27.0639C42.1808 24.8753 40.7732 22.7939 38.4426 21.6324C34.4807 19.6576 33.2078 15.6083 32.8018 13.3705C32.699 12.8034 32.2102 12.3919 31.6397 12.3919C31.0691 12.3919 30.5804 12.8034 30.4775 13.3708C30.0716 15.6086 28.7986 19.6576 24.8368 21.6324C22.5061 22.7942 21.0985 24.8753 21.163 27.0642C21.2178 28.9257 22.3303 30.4985 24.139 31.2712C28.0739 32.9526 31.0305 28.3674 31.0598 28.3209C31.1849 28.1221 31.4041 28.0015 31.6394 28.0015Z" fill="#253D4E"/>
<path d="M31.6389 25.7899C29.7444 25.7899 27.8848 23.9426 27.8848 22.0605C27.8848 21.5128 28.0496 21.0854 28.3746 20.7901C28.9504 20.267 29.782 20.3442 30.6619 20.4256C30.9861 20.4557 31.321 20.4869 31.6387 20.4869C31.9563 20.4869 32.2912 20.4557 32.6154 20.4256C33.4953 20.3439 34.3267 20.2668 34.9027 20.7901C35.2277 21.0854 35.3926 21.5128 35.3926 22.0605C35.3929 23.9426 33.5335 25.7899 31.6389 25.7899ZM29.7025 21.7349C29.5072 21.7349 29.3492 21.7515 29.2984 21.8007C29.2982 21.801 29.2565 21.8576 29.2565 22.0605C29.2565 23.1644 30.5256 24.4227 31.6392 24.4227C32.7528 24.4227 34.0217 23.1644 34.0217 22.0605C34.0217 21.8579 33.98 21.8013 33.9794 21.8007C33.859 21.6837 33.1333 21.751 32.743 21.7874C32.388 21.8204 32.0205 21.8543 31.6392 21.8543C31.258 21.8543 30.8907 21.8202 30.5355 21.7874C30.3092 21.7663 29.971 21.7349 29.7025 21.7349Z" fill="#253D4E"/>
<path d="M31.5783 29.5469C31.1995 29.5469 30.8926 29.2409 30.8926 28.8633V25.6431C30.8926 25.2654 31.1995 24.9595 31.5783 24.9595C31.9571 24.9595 32.264 25.2654 32.264 25.6431V28.8633C32.264 29.2409 31.9571 29.5469 31.5783 29.5469Z" fill="#253D4E"/>
<path d="M42.9717 1.41041C42.532 1.3992 42.1417 1.4044 41.7958 1.42299C40.502 1.49299 40.0154 3.17161 41.0824 3.90442C42.14 4.63094 43.2739 5.99293 43.3219 8.50197C43.4125 13.2453 45.7 26.4405 49.0869 25.3697C51.7047 24.542 46.6888 20.3396 52.3564 14.7478C58.0238 9.15603 47.7536 1.53346 42.9717 1.41041Z" fill="#FBFBFB"/>
<path d="M20.3188 1.41041C20.7585 1.3992 21.1488 1.4044 21.4947 1.42299C22.7885 1.49299 23.2751 3.17161 22.2081 3.90442C21.1505 4.63094 20.0166 5.99293 19.9686 8.50197C19.878 13.2453 17.5905 26.4405 14.2036 25.3697C11.5858 24.542 16.6017 20.3396 10.9341 14.7478C5.26699 9.15603 15.5372 1.53346 20.3188 1.41041Z" fill="#FBFBFB"/>
<path d="M43.3221 8.5019C43.2741 5.99285 42.1402 4.63087 41.0825 3.90435C40.4887 3.49665 40.3773 2.79638 40.6173 2.24295C38.3621 0.899286 36.2306 0.619014 34.6104 0.69667C32.6281 0.791552 30.6453 0.791552 28.663 0.69667C27.0464 0.619287 24.9201 0.898465 22.6701 2.23502C22.9145 2.78955 22.8042 3.49474 22.2076 3.90462C21.15 4.63114 20.0161 5.99312 19.9681 8.50217C19.885 12.8583 17.9485 24.3412 15.0098 25.3579C15.5729 28.306 18.8701 30.1758 22.7041 31.2488C19.2818 28.7969 19.7242 23.4151 24.527 21.0212C28.2148 19.1831 29.4124 15.3832 29.7997 13.249C29.9612 12.3595 30.7298 11.7085 31.6366 11.7085C32.5434 11.7085 33.3119 12.3595 33.4735 13.249C33.8608 15.3829 35.0583 19.1831 38.7461 21.0212C43.5489 23.4151 43.9913 28.7969 40.569 31.2488C44.4058 30.175 47.7046 28.3033 48.2645 25.3518C45.3345 24.2988 43.4052 12.8501 43.3221 8.5019Z" fill="#FBFBFB"/>
<path d="M48.7007 26.1141C48.3345 26.1141 47.9028 26.0094 47.4461 25.6826C46.1029 24.7221 44.9221 22.0686 43.9369 17.7967C43.0975 14.157 42.6757 10.4339 42.6392 8.51469C42.6044 6.69059 41.9505 5.32888 40.6961 4.46701C39.9679 3.9669 39.653 3.09163 39.8947 2.23714C40.138 1.37609 40.8709 0.788206 41.7618 0.740082C42.1367 0.719574 42.5506 0.715199 42.9925 0.726683C46.5714 0.818831 52.5843 4.64037 54.2391 8.80453C55.1821 11.1777 54.6991 13.401 52.8416 15.2333C49.6506 18.3816 50.1001 20.9598 50.4282 22.8425C50.6465 24.0956 50.8942 25.5161 49.297 26.0209C49.13 26.0739 48.9278 26.1141 48.7007 26.1141ZM42.5267 2.08785C42.2824 2.08785 42.0514 2.09359 41.8355 2.10535C41.3841 2.12968 41.2458 2.49609 41.2143 2.60765C41.1836 2.71675 41.1111 3.0919 41.474 3.341C42.6008 4.1151 43.9555 5.6365 44.0104 8.48844C44.0968 13.019 45.9449 22.9261 48.2457 24.5717C48.5441 24.7852 48.7427 24.7617 48.8823 24.7177C49.2509 24.6012 49.328 24.5186 49.0767 23.0765C48.7399 21.1452 48.1765 17.9124 51.8767 14.2618C53.3334 12.8249 53.699 11.158 52.964 9.3082C51.4219 5.42814 45.8056 2.16687 42.9571 2.09332C42.8095 2.08976 42.6661 2.08785 42.5267 2.08785Z" fill="#253D4E"/>
<path d="M14.5936 26.1143C14.3662 26.1143 14.1643 26.0741 13.9976 26.0211C12.4004 25.5163 12.6481 24.0958 12.8664 22.8427C13.1945 20.9601 13.644 18.3821 10.4529 15.2335C8.59574 13.4009 8.11245 11.1779 9.05545 8.80476C10.7105 4.64087 16.7234 0.819332 20.3024 0.727184C20.7437 0.7157 21.1581 0.720075 21.5331 0.740309C22.424 0.788434 23.1569 1.37632 23.4002 2.23737C23.6415 3.09186 23.3269 3.96713 22.5987 4.46724C21.3441 5.32911 20.6902 6.69082 20.6556 8.51519C20.6192 10.4344 20.1973 14.1575 19.358 17.7972C18.3727 22.0694 17.1919 24.7226 15.8487 25.6831C15.3918 26.0096 14.9598 26.1143 14.5936 26.1143ZM20.7678 2.08807C20.6285 2.08807 20.485 2.08999 20.338 2.09382C17.4893 2.1671 11.8729 5.42864 10.3306 9.3087C9.59552 11.1585 9.96115 12.8251 11.4179 14.2623C15.118 17.9129 14.5544 21.1457 14.2178 23.077C13.9663 24.5194 14.0437 24.6017 14.4123 24.7182C14.5519 24.7627 14.7502 24.786 15.0489 24.5724C16.0679 23.8437 17.1511 21.2628 18.0208 17.491C18.8382 13.9464 19.2488 10.3401 19.2839 8.48948C19.3385 5.63755 20.6932 4.11615 21.8203 3.34178C22.1832 3.09268 22.1107 2.71752 22.08 2.60842C22.0485 2.49686 21.9102 2.13018 21.4588 2.10585C21.2434 2.09382 21.0119 2.08807 20.7678 2.08807ZM20.3199 1.4105H20.3227H20.3199Z" fill="#253D4E"/>
<path d="M40.5713 31.9322C40.3134 31.9322 40.0699 31.7861 39.9536 31.5447C39.8093 31.2458 39.9012 30.8868 40.1714 30.6932C41.5321 29.7184 42.2356 28.2006 42.1018 26.5291C41.9411 24.5248 40.5729 22.6944 38.442 21.6321C34.4804 19.6574 33.2075 15.6083 32.8012 13.3705C32.6984 12.8034 32.2096 12.3916 31.6391 12.3916C31.0686 12.3916 30.5798 12.8031 30.4769 13.3705C30.071 15.6083 28.798 19.6574 24.8362 21.6321C22.7052 22.6944 21.3371 24.5251 21.1763 26.5291C21.0422 28.2006 21.746 29.7184 23.1068 30.6932C23.377 30.8868 23.4688 31.2458 23.3246 31.5447C23.1803 31.8436 22.8416 31.9961 22.5212 31.9065C17.7135 30.5612 14.8839 28.3406 14.3383 25.4854C14.2747 25.152 14.4659 24.8228 14.7874 24.7115C15.1664 24.5803 16.5115 23.7102 17.8959 18.0208C18.7558 14.4864 19.2456 10.5503 19.2849 8.48886C19.3394 5.63693 20.6942 4.11553 21.8212 3.34116C22.1556 3.11147 22.1506 2.74972 22.0447 2.50937C21.9057 2.19355 22.0242 1.82386 22.3215 1.64722C24.3263 0.456409 26.4731 -0.0942914 28.6982 0.0131689C30.6497 0.106684 32.6284 0.106684 34.5797 0.0131689C36.8124 -0.0931976 38.9628 0.45887 40.9715 1.6557C41.2669 1.83179 41.3856 2.19874 41.249 2.51374C41.1453 2.753 41.1421 3.11311 41.4739 3.34088C42.601 4.11525 43.9557 5.63665 44.0103 8.48832C44.1052 13.4583 46.1964 23.8803 48.4996 24.7077C48.8164 24.8217 49.0034 25.1479 48.9409 25.4777C48.3986 28.3365 45.5691 30.5592 40.7572 31.9056C40.695 31.924 40.6327 31.9322 40.5713 31.9322ZM15.8063 25.7036C16.418 27.6091 18.3967 28.9102 20.5128 29.781C19.9656 28.7745 19.7133 27.616 19.809 26.4202C20.0084 23.9347 21.6583 21.6876 24.2226 20.4096C27.6504 18.7009 28.7667 15.1134 29.1271 13.1272C29.3482 11.9087 30.4045 11.0247 31.6388 11.0247C32.8731 11.0247 33.9294 11.909 34.1505 13.1272C34.5109 15.1134 35.6278 18.7011 39.055 20.4096C41.6193 21.6876 43.2692 23.9347 43.4686 26.4202C43.5646 27.6157 43.312 28.7745 42.7647 29.781C44.8844 28.9085 46.8659 27.6048 47.474 25.6937C44.2859 23.4012 42.7069 12.084 42.6388 8.51484C42.604 6.69075 41.9501 5.32876 40.6958 4.46689C40.0622 4.03158 39.7465 3.30999 39.8274 2.58019C38.183 1.69699 36.4408 1.29258 34.6455 1.37898C32.6506 1.47468 30.6275 1.47468 28.6323 1.37898C26.8429 1.29367 25.1069 1.69425 23.4675 2.57116C23.5522 3.30397 23.2368 4.02912 22.5991 4.46689C21.3448 5.32876 20.6909 6.69047 20.656 8.51484C20.5875 12.0971 19.0034 23.4313 15.8063 25.7036Z" fill="#253D4E"/>
<path d="M34.9557 31.7259C32.9054 30.6885 31.6388 28.6855 31.6388 28.6855C31.6388 28.6855 30.3183 30.7702 28.1932 31.7869L27.7354 34.697C27.3651 37.0502 29.1899 39.177 31.5795 39.177C33.9691 39.177 35.794 37.0502 35.4237 34.697L34.9557 31.7259Z" fill="#FBFBFB"/>
<path d="M34.7637 31.6206C34.8276 31.6556 34.8898 31.6922 34.9554 31.7253L35.4228 34.6965C35.5281 35.3659 35.4508 36.0147 35.2385 36.6037C36.8252 35.6363 38.1114 34.0476 38.872 32.0942C37.3025 32.5858 35.9036 32.2443 34.7637 31.6206Z" fill="#FBFBFB"/>
<path d="M27.735 34.6968L28.1928 31.7866C28.218 31.7746 28.2416 31.7606 28.2668 31.748C27.1982 32.2755 25.9214 32.5383 24.502 32.1229C25.2217 33.9558 26.4028 35.4698 27.8625 36.4432C27.6927 35.898 27.6393 35.3054 27.735 34.6968Z" fill="#FBFBFB"/>
<path d="M27.8617 36.4437C26.402 35.4703 25.2209 33.9563 24.5011 32.1234C24.2924 32.0625 24.0815 31.9914 23.8667 31.8995C23.4397 31.7171 23.0529 31.4978 22.7051 31.2487C21.0034 30.7724 19.4093 30.1383 18.1113 29.3237C19.1182 33.3687 23.1815 36.5881 28.4056 37.5402C28.1692 37.2077 27.9846 36.8386 27.8617 36.4437Z" fill="#FBFBFB"/>
<path d="M40.5702 31.2484C40.2224 31.4975 39.8357 31.7168 39.4086 31.8992C39.227 31.9768 39.0484 32.0389 38.8713 32.0944C38.1107 34.0476 36.8248 35.6365 35.238 36.6039C35.1152 36.9446 34.9478 37.2651 34.7383 37.5557C39.9936 36.6274 44.0923 33.408 45.1179 29.3538C43.8285 30.1544 42.251 30.7781 40.5702 31.2484Z" fill="#FBFBFB"/>
<path d="M31.5789 39.8606C30.2393 39.8606 28.9715 39.2788 28.1009 38.2638C27.23 37.249 26.8499 35.9103 27.0575 34.591L27.5153 31.6811C27.5501 31.4588 27.6925 31.2679 27.896 31.1706C29.8212 30.2494 31.0465 28.3394 31.0586 28.3203C31.1842 28.122 31.4031 28.0017 31.6384 28.0017C31.874 28.0017 32.0929 28.1223 32.2182 28.3208C32.2295 28.3383 33.4172 30.181 35.2656 31.1161C35.462 31.2157 35.5986 31.403 35.6326 31.6198L36.1 34.591C36.3076 35.9103 35.9274 37.2488 35.0566 38.2638C34.1863 39.2788 32.9185 39.8606 31.5789 39.8606ZM28.8162 32.2364L28.4125 34.8029C28.2671 35.7268 28.5335 36.6644 29.1432 37.3751C29.7532 38.0858 30.6408 38.4934 31.5792 38.4934C32.5175 38.4934 33.4051 38.0858 34.0148 37.3751C34.6246 36.6644 34.8909 35.7268 34.7455 34.8029L34.3308 32.1664C33.1143 31.4754 32.1894 30.5078 31.6381 29.834C31.0671 30.5307 30.0963 31.5424 28.8162 32.2364Z" fill="#253D4E"/>
<path d="M35.2391 37.2877C35.0849 37.2877 34.9313 37.236 34.806 37.134C34.5805 36.9508 34.4952 36.6457 34.5937 36.3728C34.7783 35.8609 34.8293 35.3326 34.7459 34.8027L34.3284 32.1487C34.0783 31.9439 34.0015 31.5849 34.1628 31.2918C34.3446 30.9609 34.7613 30.8395 35.0937 31.0211L35.094 31.0214C36.2816 31.6713 37.4833 31.813 38.6669 31.4422C38.9181 31.3637 39.1927 31.4353 39.3729 31.6273C39.5531 31.8192 39.6068 32.0971 39.5114 32.3418C38.7014 34.421 37.3113 36.1417 35.5965 37.1871C35.4862 37.2546 35.3625 37.2877 35.2391 37.2877ZM35.8181 32.7949L36.1006 34.5911C36.1239 34.7395 36.1401 34.8883 36.1486 35.0365C36.7441 34.4612 37.2661 33.7746 37.6915 33.0049C37.065 33.0418 36.4402 32.9718 35.8181 32.7949Z" fill="#253D4E"/>
<path d="M27.8628 37.127C27.73 37.127 27.5973 37.0887 27.4815 37.0116C25.9123 35.9651 24.6275 34.3174 23.8637 32.3722C23.7682 32.1294 23.8198 31.8538 23.9967 31.6613C24.1733 31.4688 24.4443 31.3938 24.6953 31.4671C25.776 31.7835 26.8759 31.6719 27.9629 31.1354C28.3022 30.9678 28.7133 31.1062 28.8815 31.4441C28.9959 31.6741 28.9684 31.9374 28.8327 32.1351L28.413 34.8025C28.3367 35.2878 28.3721 35.7718 28.5181 36.2408C28.6042 36.5172 28.5063 36.818 28.2731 36.9911C28.1516 37.0816 28.0073 37.127 27.8628 37.127ZM25.6734 33.0074C26.0527 33.6934 26.5092 34.3155 27.0248 34.8501C27.0333 34.7637 27.0446 34.6772 27.0583 34.5906L27.3359 32.8261C26.7835 32.9707 26.2297 33.0312 25.6734 33.0074Z" fill="#253D4E"/>
<path d="M37.3498 15.9769C36.9721 15.9769 36.6652 15.6723 36.6641 15.2955C36.6619 14.6169 36.9249 13.9781 37.4047 13.4966C37.8847 13.0153 38.5237 12.749 39.2045 12.7468H39.213C39.8905 12.7468 40.528 13.0088 41.0088 13.4851C41.4918 13.9633 41.7587 14.6004 41.7612 15.2791C41.7623 15.6567 41.4564 15.9638 41.0776 15.9649C41.0768 15.9649 41.076 15.9649 41.0755 15.9649C40.6978 15.9649 40.3908 15.6603 40.3897 15.2835C40.3886 14.9701 40.2652 14.6756 40.0422 14.455C39.8192 14.234 39.526 14.1115 39.2089 14.114C38.8946 14.1148 38.5992 14.2379 38.3776 14.4604C38.1559 14.6828 38.0344 14.9778 38.0355 15.2911C38.0366 15.6688 37.7308 15.9758 37.352 15.9769C37.3514 15.9769 37.3506 15.9769 37.3498 15.9769Z" fill="#253D4E"/>
<path d="M25.9739 15.9709C25.5951 15.9709 25.2882 15.6649 25.2882 15.2873C25.2882 14.6404 24.7602 14.114 24.1109 14.114C23.4617 14.114 22.9339 14.6404 22.9339 15.2873C22.9339 15.6649 22.627 15.9709 22.2482 15.9709C21.8694 15.9709 21.5625 15.6649 21.5625 15.2873C21.5625 13.8865 22.7057 12.7468 24.1109 12.7468C25.5164 12.7468 26.6596 13.8865 26.6596 15.2873C26.6596 15.6649 26.3527 15.9709 25.9739 15.9709Z" fill="#253D4E"/>
<path d="M28.406 38.2232C28.3652 38.2232 28.3237 38.2196 28.2826 38.212C22.7686 37.2071 18.5152 33.7829 17.446 29.4877C17.3786 29.217 17.4831 28.9327 17.7096 28.7692C17.9365 28.6054 18.2401 28.5961 18.4768 28.7445C19.6412 29.4752 21.1262 30.0961 22.8907 30.59C22.9677 30.6116 23.0404 30.6463 23.1054 30.6928C23.4198 30.9181 23.767 31.1125 24.137 31.2705C24.3043 31.3422 24.4812 31.4045 24.6944 31.4669C24.8979 31.5265 25.0622 31.6766 25.1398 31.8735C25.8025 33.5611 26.9049 34.9822 28.2431 35.8747C28.3737 35.9616 28.4702 36.0909 28.5168 36.2402C28.6172 36.5626 28.7681 36.8664 28.965 37.1431C29.1263 37.3698 29.134 37.6714 28.9842 37.906C28.857 38.1059 28.6375 38.2232 28.406 38.2232ZM19.3754 30.7745C20.6497 33.3353 23.3142 35.3942 26.7049 36.4259C25.5663 35.4607 24.6239 34.164 23.9881 32.6776C23.8509 32.6306 23.7226 32.5811 23.5967 32.5273C23.1743 32.3468 22.7741 32.1275 22.4063 31.8743C21.2924 31.5571 20.2789 31.1893 19.3754 30.7745Z" fill="#253D4E"/>
<path d="M34.7383 38.2392C34.5054 38.2392 34.2849 38.1208 34.1581 37.9199C34.0095 37.6844 34.0188 37.3828 34.1815 37.157C34.3523 36.9199 34.4906 36.656 34.5929 36.3725C34.6458 36.2259 34.747 36.1018 34.8803 36.0206C36.3401 35.1305 37.5308 33.6482 38.2321 31.8469C38.3076 31.6533 38.4669 31.5045 38.6658 31.4422C38.849 31.3847 38.9991 31.3303 39.1387 31.2707C39.5092 31.1124 39.8565 30.918 40.1705 30.6932C40.2355 30.6465 40.3082 30.6117 40.3853 30.5901C42.1303 30.1018 43.6008 29.4907 44.7558 28.7734C44.9933 28.6263 45.2967 28.637 45.5224 28.8016C45.7485 28.9659 45.8516 29.2506 45.7833 29.521C44.6927 33.8312 40.4045 37.2491 34.8581 38.2288C34.8181 38.2357 34.778 38.2392 34.7383 38.2392ZM39.3888 32.6417C38.7632 34.1191 37.8405 35.4012 36.7175 36.3684C40.0095 35.3228 42.5947 33.3037 43.8504 30.7982C42.9603 31.2029 41.9636 31.5628 40.8697 31.8742C40.5019 32.1271 40.102 32.3467 39.679 32.5274C39.5858 32.5671 39.4903 32.6048 39.3888 32.6417Z" fill="#253D4E"/>
<path d="M60.5707 41.1955L59.701 40.6391C59.6124 40.5825 59.5959 40.4616 59.6634 40.3812C63.7945 35.4569 61.9562 29.878 61.5812 28.8893C61.548 28.8018 61.4526 28.7578 61.3634 28.787L60.5938 29.0397C60.4942 29.0725 60.39 29.0088 60.3694 28.9062C59.4972 24.5712 56.1709 23.3301 55.1352 23.0449C55.0002 23.0077 54.8823 23.1356 54.9256 23.2683C57.8133 32.0986 51.8484 38.687 48.25 41.7036C48.2898 42.0618 48.3252 42.4244 48.3556 42.7913C50.7628 42.7681 53.1367 43.3363 54.4851 45.2397C58.3937 43.9116 60.1667 42 60.6138 41.4509C60.6791 41.3697 60.6585 41.2516 60.5707 41.1955Z" fill="#FBFBFB"/>
<path d="M54.4831 45.9229C54.2648 45.9229 54.0541 45.8187 53.923 45.6336C52.8901 44.1753 51.0233 43.4469 48.3605 43.4745C48.3583 43.4745 48.3561 43.4745 48.3539 43.4745C47.9979 43.4745 47.7003 43.2022 47.6706 42.8478C47.6405 42.4872 47.6059 42.1306 47.5667 41.7784C47.5414 41.5515 47.6317 41.327 47.807 41.1801C51.3985 38.1693 57.0143 31.8661 54.2719 23.4798C54.1732 23.1774 54.2483 22.8473 54.468 22.6185C54.6861 22.391 55.0111 22.3018 55.3161 22.3858C56.3738 22.677 59.7969 23.9386 60.9119 28.2149L61.1478 28.1375C61.5861 27.9929 62.0579 28.2174 62.2211 28.6472C62.6341 29.7366 64.4381 35.2922 60.5487 40.3702L60.9396 40.6204C61.1461 40.7525 61.2868 40.9663 61.3255 41.2072C61.3642 41.447 61.2981 41.6928 61.1445 41.8818C60.6648 42.471 58.7826 44.5013 54.7045 45.8868C54.6315 45.9108 54.5569 45.9229 54.4831 45.9229ZM48.9806 42.1147C51.5524 42.2003 53.4787 42.9774 54.7201 44.4302C57.4457 43.4286 58.9798 42.1664 59.6921 41.4467L59.329 41.2143C59.1216 41.0817 58.9815 40.8665 58.9444 40.6237C58.9071 40.3798 58.9771 40.1315 59.1359 39.942C62.5872 35.8279 61.6149 31.2413 61.097 29.593L60.8063 29.6884C60.5737 29.765 60.3189 29.7382 60.1071 29.6152C59.894 29.4916 59.7437 29.2821 59.6951 29.0404C59.0821 25.9927 57.1418 24.6233 55.8653 24.0398C56.8365 27.7517 56.4226 31.425 54.6307 34.9729C53.0681 38.066 50.7416 40.4621 48.968 41.9895C48.9721 42.0313 48.9762 42.0729 48.9806 42.1147Z" fill="#253D4E"/>
<path d="M35.9834 67.6214C36.0714 67.1093 36.2088 66.558 36.4242 66.0866C36.767 65.3355 36.9648 64.533 36.9648 63.7148V48.0959C36.9648 46.2179 35.8885 44.5823 34.2891 43.6969C33.4887 43.3296 32.5937 43.1175 31.6474 43.1035C30.7011 43.1175 29.8061 43.3296 29.0058 43.6969C27.4067 44.582 26.3301 46.2179 26.3301 48.0959V63.7148C26.3301 64.533 26.5278 65.3355 26.8707 66.0866C27.0857 66.558 27.2234 67.1093 27.3115 67.6214C27.3301 67.7294 27.3351 67.8358 27.329 67.94C28.6725 68.4207 30.1257 68.69 31.6474 68.69C33.1692 68.69 34.6226 68.4209 35.9658 67.94C35.9598 67.8358 35.9647 67.7292 35.9834 67.6214Z" fill="#FBFBFB"/>
<path d="M50.6118 65.018L54.0237 56.9596C58.2184 45.224 53.3506 42.7426 48.3539 42.791C48.8553 48.8107 48.059 55.9599 44.0075 63.0734C43.5239 63.9224 43.756 64.9715 44.5435 65.5849C45.0372 65.9696 45.5734 66.4549 46.0106 67.0168C46.6681 67.8612 46.1549 69.0137 45.1581 69.2645L45.2094 69.3159H55.4453C56.5828 64.481 50.6118 65.018 50.6118 65.018Z" fill="#FBFBFB"/>
<path d="M17.2825 67.0168C17.7199 66.4549 18.2559 65.9696 18.7496 65.5849C19.5371 64.9715 19.7692 63.9224 19.2856 63.0734C15.2338 55.9602 14.4378 48.8107 14.9392 42.791C9.94278 42.7426 5.07499 45.224 9.2694 56.9596L12.6813 65.018C12.6813 65.018 6.7103 64.4807 7.84777 69.3159H18.0837L18.1349 69.2645C17.1382 69.0137 16.625 67.8612 17.2825 67.0168Z" fill="#FBFBFB"/>
<path d="M45.0481 29.6089C43.918 33.5425 39.8838 36.6471 34.7392 37.556V37.5558C34.0382 38.5292 32.8958 39.1767 31.5792 39.1767C30.2552 39.1767 29.1065 38.5221 28.4065 37.5396C23.3401 36.6165 19.3659 33.5606 18.212 29.6876C15.8638 35.173 11.3803 49.194 19.2861 63.0733C19.7697 63.9224 19.5376 64.9715 18.7502 65.5849C18.2564 65.9696 17.7202 66.4549 17.283 67.0168C16.5416 67.9692 17.2874 69.3159 18.539 69.3159H25.7911C26.7435 69.3159 27.4638 68.509 27.3112 67.6211C27.2232 67.109 27.0858 66.5577 26.8705 66.0863C26.5276 65.3352 26.3298 64.5327 26.3298 63.7145V48.0956C26.3298 45.3041 28.7033 43.0392 31.6472 42.996C34.5911 43.0395 36.9645 45.3041 36.9645 48.0956V63.7145C36.9645 64.5327 36.7668 65.3352 36.4239 66.0863C36.2089 66.5577 36.0712 67.109 35.9831 67.6211C35.8306 68.5092 36.5509 69.3159 37.5033 69.3159H44.7554C46.0067 69.3159 46.7528 67.9692 46.0114 67.0168C45.5739 66.4549 45.0379 65.9696 44.5442 65.5849C43.7567 64.9715 43.5247 63.9224 44.0083 63.0733C51.9527 49.1257 47.3864 35.0363 45.0481 29.6089Z" fill="#FBFBFB"/>
<path d="M55.4451 70H45.2092C45.0263 70 44.8513 69.9272 44.7224 69.7979L44.6711 69.7465C44.4977 69.5723 44.4314 69.3186 44.4972 69.082C44.563 68.8455 44.7512 68.6623 44.9901 68.6024C45.266 68.533 45.4926 68.3309 45.5806 68.0755C45.6347 67.9191 45.6591 67.6812 45.4687 67.4368C45.1239 66.9941 44.6705 66.5525 44.1209 66.1243C43.0616 65.2991 42.7629 63.8745 43.4107 62.7367C46.8355 56.7244 48.2687 50.0329 47.6702 42.8486C47.6543 42.6594 47.7182 42.4721 47.8468 42.3315C47.9754 42.191 48.1562 42.1103 48.3468 42.1084C51.4756 42.0778 53.7242 42.9911 55.0329 44.822C56.8273 47.3327 56.7049 51.4938 54.6692 57.19C54.6648 57.2023 54.6601 57.2144 54.6549 57.2264L51.6462 64.3325C52.7582 64.3959 54.4511 64.6953 55.4578 65.85C56.2452 66.7537 56.4655 67.9727 56.1128 69.4731C56.0401 69.7815 55.7636 70 55.4451 70ZM46.8352 68.6328H54.8746C54.9764 67.8319 54.8274 67.2123 54.4245 66.7483C53.5133 65.6994 51.406 65.6357 50.672 65.6994C50.4355 65.721 50.1991 65.6143 50.0576 65.4207C49.916 65.2269 49.8861 64.9734 49.9797 64.7527L53.3841 56.7124C55.2548 51.4714 55.4336 47.7376 53.9162 45.6147C52.9809 44.306 51.3599 43.5923 49.0929 43.4876C49.5562 50.6667 48.0473 57.3659 44.6036 63.4113C44.2893 63.9633 44.4379 64.636 44.9654 65.0464C45.6042 65.5441 46.138 66.066 46.5522 66.5979C46.9877 67.1573 47.1065 67.8581 46.8777 68.5204C46.8646 68.5584 46.8506 68.5956 46.8352 68.6328Z" fill="#253D4E"/>
<path d="M18.0843 70H7.84809C7.52964 70 7.25316 69.7815 7.18048 69.4725C6.82747 67.9722 7.04799 66.7535 7.83548 65.8495C8.84184 64.6945 10.535 64.3953 11.647 64.3319L8.63832 57.2258C8.63311 57.2138 8.62844 57.2018 8.62405 57.1895C6.58829 51.4933 6.46568 47.3318 8.26035 44.8214C9.56898 42.9908 11.8099 42.0789 14.9464 42.1078C15.137 42.1098 15.3181 42.1904 15.4464 42.331C15.5748 42.4715 15.6387 42.6588 15.6231 42.848C15.0246 50.0323 16.4577 56.7238 19.8825 62.7361C20.5306 63.8739 20.2319 65.2988 19.1724 66.124C18.623 66.5519 18.1693 66.9938 17.8245 67.4365C17.6341 67.6812 17.6586 67.9191 17.7126 68.0752C17.8009 68.3309 18.0272 68.5327 18.3031 68.6021C18.542 68.6623 18.7302 68.8455 18.796 69.0818C18.8619 69.3183 18.7958 69.572 18.6221 69.7462L18.5708 69.7976C18.4422 69.9269 18.2669 70 18.0843 70ZM8.41889 68.6328H16.4583C16.4432 68.5959 16.4292 68.5584 16.416 68.5204C16.1873 67.8581 16.3058 67.1573 16.7416 66.5979C17.1555 66.0663 17.6896 65.544 18.3281 65.0467C18.8556 64.6357 19.0045 63.9633 18.6902 63.4112C15.2465 57.3658 13.7376 50.6667 14.2009 43.4876C11.9333 43.5921 10.3128 44.306 9.37752 45.6147C7.86016 47.7376 8.039 51.4711 9.90964 56.7123L13.3141 64.7527C13.4076 64.9739 13.378 65.2277 13.2362 65.4215C13.0944 65.6154 12.8604 65.7218 12.6207 65.6994C11.8864 65.6356 9.78045 65.6996 8.86927 66.7485C8.46606 67.2123 8.31713 67.8316 8.41889 68.6328Z" fill="#253D4E"/>
<path d="M31.6476 69.3734C30.0932 69.3734 28.5624 69.1076 27.0974 68.5831C26.8111 68.4806 26.6268 68.2023 26.6446 67.8996C26.6479 67.8446 26.6449 67.7896 26.6355 67.736C26.5415 67.1886 26.4106 66.7284 26.2466 66.3691C25.847 65.4939 25.6445 64.6006 25.6445 63.7143V48.0951C25.6445 46.0471 26.805 44.1325 28.6729 43.0987C28.688 43.0902 28.7034 43.0825 28.719 43.0754C29.6346 42.6551 30.6163 42.4345 31.6372 42.4194C32.6784 42.4345 33.6601 42.6551 34.5756 43.0754C34.5913 43.0825 34.6066 43.0904 34.6217 43.0987C36.4896 44.1328 37.6501 46.0474 37.6501 48.0951V63.7143C37.6501 64.6006 37.4474 65.4939 37.0481 66.3691C36.884 66.7282 36.7532 67.1884 36.6591 67.736C36.6498 67.7896 36.6471 67.8446 36.6501 67.8996C36.6679 68.2023 36.4836 68.4806 36.1972 68.5831C34.7328 69.1076 33.202 69.3734 31.6476 69.3734ZM27.9754 67.4366C30.3535 68.1932 32.9417 68.1932 35.3198 67.4366C35.4333 66.8025 35.5946 66.2532 35.8 65.8031C36.1179 65.107 36.279 64.4042 36.279 63.7146V48.0954C36.279 46.5519 35.3982 45.1024 33.9785 44.3067C33.2442 43.9736 32.4568 43.7986 31.6372 43.7866C30.8376 43.7986 30.0501 43.9739 29.3162 44.3067C27.8967 45.1027 27.0157 46.5519 27.0157 48.0954V63.7146C27.0157 64.4042 27.1767 65.107 27.4946 65.8031C27.7003 66.2529 27.8619 66.8023 27.9754 67.4366Z" fill="#253D4E"/>
<path d="M44.7563 70H37.5041C36.8313 70 36.2021 69.7123 35.778 69.2108C35.3751 68.7345 35.2039 68.1133 35.3081 67.506C35.4222 66.8423 35.5879 66.2695 35.8008 65.8033C36.1187 65.1071 36.2797 64.4044 36.2797 63.7148V48.0956C36.2797 45.6981 34.1976 43.717 31.6382 43.6796C29.0988 43.7173 27.0167 45.6983 27.0167 48.0956V63.7148C27.0167 64.4044 27.1777 65.1071 27.4956 65.8033C27.7084 66.2695 27.8741 66.8423 27.9882 67.506C28.0924 68.1133 27.9213 68.7345 27.5184 69.2108C27.094 69.7123 26.4651 70 25.7923 70H18.5401C17.667 70 16.8922 69.5269 16.518 68.7654C16.1637 68.0438 16.2476 67.2336 16.7424 66.5979C17.1566 66.0663 17.6903 65.544 18.3289 65.0467C18.8563 64.6357 19.0053 63.9633 18.6909 63.4112C10.6214 49.244 15.2275 34.9203 17.5823 29.4196C17.6958 29.1546 17.966 28.9909 18.2521 29.0053C18.5406 29.022 18.788 29.217 18.8701 29.4932C19.9444 33.0992 23.7365 35.9936 28.5308 36.8672C28.7066 36.8994 28.8629 36.9984 28.9666 37.1439C29.5772 38.0014 30.5298 38.4933 31.58 38.4933C32.6226 38.4933 33.5714 38.0063 34.183 37.1573C34.2872 37.0124 34.4444 36.9139 34.6205 36.883C39.5004 36.0212 43.3349 33.0919 44.3896 29.4207C44.4694 29.1429 44.716 28.9449 45.0053 28.9266C45.2936 28.9088 45.5643 29.0734 45.6787 29.3389C48.0527 34.8489 52.7005 49.1989 44.6051 63.411C44.2908 63.963 44.4395 64.6357 44.9669 65.0461C45.6057 65.5438 46.1395 66.0658 46.5537 66.5976C47.0488 67.2333 47.1324 68.0435 46.7781 68.7651C46.4042 69.5269 45.6293 70 44.7563 70ZM31.6379 42.3127C34.9625 42.3611 37.6508 44.9554 37.6508 48.0956V63.7148C37.6508 64.601 37.4481 65.4943 37.0488 66.3695C36.8848 66.7288 36.7539 67.1888 36.6598 67.7367C36.6234 67.9489 36.6826 68.1595 36.8261 68.3295C36.989 68.5223 37.2361 68.6328 37.5038 68.6328H44.756C45.1688 68.6328 45.4349 68.3908 45.5462 68.1641C45.617 68.0197 45.7015 67.7332 45.4703 67.4362C45.1255 66.9935 44.6721 66.5519 44.1224 66.1237C43.0631 65.2985 42.7644 63.8739 43.4123 62.7361C50.5298 50.2409 47.3974 37.5983 45.0539 31.4471C43.3632 34.7598 39.6619 37.3082 35.123 38.1805C34.2568 39.2373 32.9523 39.8605 31.5797 39.8605C30.1968 39.8605 28.8865 39.2305 28.0203 38.1622C23.5656 37.2801 19.9121 34.7634 18.2175 31.51C15.8935 37.6465 12.7841 50.2732 19.883 62.7361C20.5311 63.8739 20.2324 65.2988 19.1729 66.124C18.6235 66.5519 18.1698 66.9938 17.825 67.4365C17.5938 67.7334 17.6783 68.02 17.749 68.1644C17.8604 68.3911 18.1262 68.6331 18.5393 68.6331H25.7914C26.0591 68.6331 26.3063 68.5226 26.4692 68.3298C26.6129 68.1597 26.6722 67.9492 26.6354 67.737C26.5413 67.1893 26.4105 66.7291 26.2465 66.3698C25.8468 65.4946 25.6444 64.6012 25.6444 63.715V48.0958C25.645 44.9554 28.3333 42.3611 31.6379 42.3127Z" fill="#253D4E"/>
</svg>
