<svg width="40" height="40" viewBox="0 0 40 40" fill="none" xmlns="http://www.w3.org/2000/svg">
<path d="M3.32267 16.6275L3.90832 16.2091V33.8993C3.90904 35.2536 4.44688 36.5523 5.40385 37.5105C6.36083 38.4687 7.65881 39.0082 9.01305 39.0107H30.9691C32.3233 39.0082 33.6213 38.4687 34.5783 37.5105C35.5352 36.5523 36.0731 35.2536 36.0738 33.8993V16.2091L36.6581 16.6264C37 16.8627 37.4035 16.9938 37.819 17.0036C38.2345 17.0134 38.6438 16.9015 38.9965 16.6817C39.3492 16.4618 39.6299 16.1436 39.804 15.7662C39.9781 15.3888 40.0381 14.9687 39.9765 14.5577C39.9315 14.2833 39.8326 14.0204 39.6853 13.7845C39.5381 13.5486 39.3455 13.3443 39.1186 13.1833L23.6725 2.14952C22.5937 1.39458 21.309 0.989569 19.9923 0.98938C18.6756 0.989191 17.3907 1.39383 16.3117 2.14847L0.863487 13.183C0.415112 13.5124 0.114453 14.005 0.0265766 14.5544C-0.0613001 15.1037 0.0706729 15.6656 0.393936 16.1184C0.717199 16.5711 1.20575 16.8784 1.75386 16.9737C2.30198 17.069 2.86557 16.9446 3.32267 16.6275ZM21.5 30C21.4998 30.9753 20.689 30.8098 20 31.5C19.311 32.1902 19.5 31 19 30.5V26C18.0247 25.998 15.189 26.1902 14.5 25.5C13.811 24.8098 14.5002 24.4753 14.5 23.5L17.9416 17.0036L19.5 14C19.8574 13.7499 20.0638 13.9997 20.5 14C20.9362 14.0003 20.6429 15.7495 21 16V19.5L25.5 20.5L21.5 30ZM1.69415 14.3467L17.1431 3.31103C17.9782 2.72663 18.973 2.41328 19.9923 2.41348C21.0116 2.41368 22.0062 2.72742 22.8411 3.31214L38.288 14.3467C38.4355 14.4532 38.535 14.6137 38.5647 14.7932C38.5943 14.9728 38.5518 15.1568 38.4464 15.3051C38.3386 15.4502 38.1787 15.5478 38.0003 15.5774C37.822 15.6071 37.6391 15.5664 37.4901 15.4639L22.0426 4.42931C21.4447 4.00097 20.7278 3.77055 19.9923 3.77036C19.2568 3.77018 18.5397 4.00023 17.9416 4.42826L2.49061 15.4649C2.34214 15.5651 2.16042 15.6032 1.9842 15.5713C1.80798 15.5394 1.6512 15.4399 1.54731 15.294C1.44341 15.1481 1.40062 14.9674 1.42805 14.7905C1.45548 14.6135 1.55097 14.4542 1.69415 14.3467Z" fill="#FF6B55"/>
<path d="M20.2395 13.6001C19.9029 13.5146 19.5471 13.547 19.2315 13.6919C18.9158 13.8368 18.6594 14.0855 18.5049 14.3966L13.5286 24.1122C13.4111 24.3478 13.3553 24.6094 13.3667 24.8724C13.378 25.1354 13.456 25.3912 13.5934 25.6158C13.7307 25.8404 13.9229 26.0264 14.1519 26.1563C14.3809 26.2862 14.6391 26.3558 14.9024 26.3585H18.5593L18.56 30.5959C18.5638 30.9401 18.6823 31.2733 18.8968 31.5426C19.1112 31.8118 19.4094 32.0019 19.744 32.0827C20.0787 32.1634 20.4307 32.1302 20.7444 31.9884C21.058 31.8465 21.3154 31.6041 21.4758 31.2995L26.452 21.5839C26.5695 21.3484 26.6252 21.0868 26.6139 20.8238C26.6025 20.5607 26.5245 20.3049 26.3872 20.0803C26.2498 19.8557 26.0576 19.6698 25.8287 19.5399C25.5997 19.4099 25.3414 19.3404 25.0782 19.3377H21.4212L21.4205 15.1002C21.4248 14.7529 21.3099 14.4145 21.095 14.1416C20.8801 13.8686 20.5781 13.6775 20.2395 13.6001ZM25.0783 20.7672C25.0977 20.7673 25.1167 20.7723 25.1336 20.7819C25.1505 20.7914 25.1647 20.8051 25.1748 20.8216C25.185 20.8381 25.1907 20.857 25.1915 20.8764C25.1923 20.8957 25.1882 20.915 25.1795 20.9323L20.2039 30.6476C20.1998 30.6601 20.1931 30.6717 20.1843 30.6815C20.1755 30.6913 20.1648 30.6993 20.1528 30.7048C20.1408 30.7103 20.1278 30.7132 20.1146 30.7135C20.1014 30.7137 20.0883 30.7112 20.0761 30.7062C20.0631 30.7049 20.0505 30.7009 20.039 30.6946C20.0276 30.6883 20.0175 30.6798 20.0094 30.6695C20.0013 30.6592 19.9954 30.6473 19.992 30.6347C19.9886 30.6221 19.9878 30.6089 19.9896 30.5959L19.9889 25.6437C19.9888 25.4541 19.9135 25.2724 19.7794 25.1383C19.6454 25.0043 19.4636 24.929 19.2741 24.9289H14.9023C14.8829 24.9288 14.8638 24.9238 14.8469 24.9142C14.83 24.9047 14.8158 24.8911 14.8057 24.8745C14.7956 24.858 14.7898 24.8391 14.789 24.8197C14.7882 24.8004 14.7924 24.7811 14.8011 24.7638L19.7767 15.0485C19.7882 15.0258 19.8071 15.0077 19.8303 14.9971C19.8534 14.9864 19.8794 14.9839 19.9042 14.9898C19.929 14.9958 19.951 15.0099 19.9667 15.0299C19.9825 15.05 19.991 15.0747 19.991 15.1002L19.9917 20.0524C19.9918 20.2419 20.0671 20.4237 20.2011 20.5577C20.3352 20.6918 20.5169 20.7671 20.7065 20.7672L25.0783 20.7672Z" fill="#FF6B55"/>
</svg>
