<svg width="12" height="10" viewBox="0 0 12 10" fill="none" xmlns="http://www.w3.org/2000/svg">
<path d="M10.9453 0.78125H1.05469C0.471961 0.78125 0 1.25614 0 1.83594V8.16406C0 8.7473 0.47543 9.21875 1.05469 9.21875H10.9453C11.5232 9.21875 12 8.7493 12 8.16406V1.83594C12 1.25717 11.5299 0.78125 10.9453 0.78125ZM10.7976 1.48438C10.5821 1.69871 6.87382 5.38749 6.74578 5.51485C6.54656 5.71407 6.28172 5.82376 6 5.82376C5.71828 5.82376 5.45344 5.71405 5.25356 5.5142C5.16745 5.42853 1.50007 1.78048 1.20239 1.48438H10.7976ZM0.703125 8.02095V1.97949L3.74152 5.00187L0.703125 8.02095ZM1.20284 8.51562L4.24003 5.49774L4.75704 6.01203C5.08905 6.34405 5.53048 6.52688 6 6.52688C6.46952 6.52688 6.91095 6.34405 7.2423 6.01269L7.75997 5.49774L10.7972 8.51562H1.20284ZM11.2969 8.02095L8.25848 5.00187L11.2969 1.97949V8.02095Z" fill="#A1A1A1"/>
</svg>
