<svg width="314" height="111" viewBox="0 0 314 111" fill="none" xmlns="http://www.w3.org/2000/svg">
<path opacity="0.2" d="M21.8309 15.981C82.4138 5.55034 144.155 0.883742 205.069 7.82134C231.547 10.8299 261.726 14.0495 285.844 26.3915C297.286 32.254 308.51 41.5518 308.775 56.2926C309.101 74.9825 292.004 87.3428 277.484 93.9164C226.582 116.953 163.821 105.48 111.333 97.1199C82.4632 92.4911 53.6594 85.5437 27.0822 72.6302C18.8206 68.6271 -2.68415 59.5751 8.76586 47.4013C14.6673 41.1136 24.979 38.0686 32.7009 35.413C90.2388 15.5243 150.807 17.3106 209.6 26.3145C212.597 26.7737 213.269 21.8134 210.272 21.3541C149.965 12.1449 87.192 10.2977 28.4307 31.8718C19.0887 35.2863 -4.39865 43.6062 1.36471 58.696C4.94023 68.0937 17.4508 73.0433 25.3392 76.8635C40.185 84.0339 55.7797 89.3488 71.6307 93.5082C105.426 102.349 140.584 106.085 175.318 109.102C205.31 111.688 236.365 112.488 265.654 103.024C286.253 96.3751 316.481 80.3472 312.751 52.4678C309.722 29.8674 285.329 19.9213 267.263 15.0383C187.524 -6.59149 102.399 -0.784832 21.7205 14.961C21.1062 15.0892 21.2201 16.0833 21.8309 15.981Z" fill="url(#paint0_linear_1543_46222)"/>
<defs>
<linearGradient id="paint0_linear_1543_46222" x1="3.40786" y1="31.6276" x2="311.165" y2="73.3598" gradientUnits="userSpaceOnUse">
<stop stop-color="#F86CA7"/>
<stop offset="1" stop-color="#FF7F18"/>
</linearGradient>
</defs>
</svg>
