<svg width="70" height="70" viewBox="0 0 70 70" fill="none" xmlns="http://www.w3.org/2000/svg">
<path d="M68.9739 37.93C68.9739 45.004 66.8124 51.5734 63.1126 57.0122C60.8896 60.2812 58.1127 63.1415 54.9135 65.4589C54.4486 65.7966 53.8867 65.977 53.3111 65.977H16.6862C16.1106 65.977 15.5487 65.7966 15.0839 65.4589C9.89115 61.6962 5.80326 56.4995 3.40371 50.4496C1.86836 46.5762 1.02344 42.3516 1.02344 37.93C1.02344 27.125 6.0685 17.497 13.9313 11.2748C14.7134 10.6568 15.1741 9.72026 15.1741 8.72358V6.07397C15.1741 4.94194 16.0929 4.02319 17.2249 4.02319H52.7724C53.9045 4.02319 54.8232 4.94194 54.8232 6.07397V8.72372C54.8232 9.7204 55.284 10.6569 56.066 11.2749C63.9288 17.4971 68.9739 27.125 68.9739 37.93Z" fill="#FBFBFB"/>
<path d="M19.8692 65.4589C20.334 65.7966 20.8959 65.977 21.4715 65.977H16.6862C16.1106 65.977 15.5487 65.7966 15.0839 65.4589C9.89115 61.6962 5.80326 56.4995 3.40371 50.4496C1.86836 46.5762 1.02344 42.3516 1.02344 37.93C1.02344 27.125 6.0685 17.497 13.9313 11.2748C14.7134 10.6568 15.1741 9.72026 15.1741 8.72358V6.07397C15.1741 4.94194 16.0929 4.02319 17.2249 4.02319H22.0102C20.8781 4.02319 19.9594 4.94194 19.9594 6.07397V8.72372C19.9594 9.7204 19.4987 10.6569 18.7166 11.2749C10.8538 17.4971 5.80873 27.125 5.80873 37.93C5.80873 42.3516 6.65365 46.5762 8.189 50.4496C10.5886 56.4995 14.6766 61.6964 19.8692 65.4589Z" fill="#FBFBFB"/>
<path d="M38.8937 23.8641C37.6468 24.3085 35.8667 24.9716 34.4885 25.5977L32.4008 26.5684L25.9748 25.4747L25.875 23.9831C25.875 23.9831 24.9713 19.1623 29.4694 15.8263C29.7797 15.5953 30.1817 15.5269 30.5494 15.6458C30.9692 15.7812 31.5953 16.0081 32.3528 16.3609C32.9284 16.6289 33.5805 16.9693 34.2764 17.3986C34.9491 17.8128 35.6627 18.3078 36.3873 18.8984C36.9328 19.3427 37.4852 19.8417 38.0321 20.3996C38.5065 20.8849 38.9768 21.414 39.4334 21.9937C39.9409 22.6364 39.6648 23.588 38.8937 23.8641Z" fill="#FBFBFB"/>
<path d="M63.1132 57.0121C60.8902 60.281 58.1133 63.1413 54.914 65.4587C54.4492 65.7964 53.8873 65.9769 53.3117 65.9769H16.6868C16.1112 65.9769 15.5493 65.7964 15.0845 65.4587C9.89174 61.6961 5.80385 56.4994 3.4043 50.4495H31.3925C34.5029 50.4495 37.4985 51.6211 39.7845 53.7307C40.9274 54.7862 42.2481 55.6065 43.6715 56.1629C45.0948 56.7194 46.6205 57.012 48.1765 57.012H63.1132V57.0121Z" fill="#FBFBFB"/>
<path d="M11.7109 27.2981C13.0701 27.2981 14.1719 26.1963 14.1719 24.8372C14.1719 23.478 13.0701 22.3762 11.7109 22.3762C10.3518 22.3762 9.25 23.478 9.25 24.8372C9.25 26.1963 10.3518 27.2981 11.7109 27.2981Z" fill="#FBFBFB"/>
<path d="M38.3646 37.1179L38.631 39.7806C38.7271 40.7418 38.1445 41.6414 37.2282 41.9468L37.1385 41.9766C36.3761 42.2308 35.8301 42.904 35.7388 43.7024C35.583 45.0663 34.1622 45.9078 32.8957 45.3782C27.9679 43.3174 26.1988 39.0558 26.1988 39.0558C26.1988 39.0558 25.5312 37.5293 25.5312 36.0596L38.2122 35.3076L38.3646 37.1179Z" fill="#FBFBFB"/>
<path d="M29.989 24.8554L30.0779 26.1733L25.9748 25.4747L25.875 23.9831C25.875 23.9831 24.9713 19.1622 29.4694 15.8263C29.7797 15.5953 30.1817 15.5269 30.5494 15.6458C30.9692 15.7812 31.5953 16.0081 32.3528 16.3609C32.4868 16.4238 32.6262 16.4894 32.7684 16.5605C29.1373 20.3121 29.989 24.8554 29.989 24.8554Z" fill="#FBFBFB"/>
<path d="M35.6089 44.2259C35.2986 45.0203 34.522 45.5384 33.6867 45.5384C33.4255 45.5384 33.1576 45.4878 32.8964 45.3785C27.9676 43.3181 26.1984 39.0551 26.1984 39.0551C26.1984 39.0551 25.5312 37.5293 25.5312 36.0596L29.8066 35.8066C29.9542 37.1971 30.5066 38.4576 30.5066 38.4576C30.5066 38.4576 31.8984 41.8128 35.6089 44.2259Z" fill="#FBFBFB"/>
<path d="M60.7579 26.0154C59.0136 25.7 55.6084 25.5303 51.1952 27.4837C47.3473 29.187 43.5157 31.4684 39.3164 31.7414L39.5317 35.1866C48.2519 37.1798 46.0607 47.8425 57.2107 45.6725C57.8816 45.542 58.311 44.8794 58.148 44.2157C56.2623 36.5378 49.1299 35.0722 49.1299 35.0722C57.8519 34.3519 60.7456 29.8852 61.6565 27.6386C61.9421 26.9348 61.5054 26.1506 60.7579 26.0154Z" fill="#FBFBFB"/>
<path d="M17.5215 20.0518C18.8429 20.0518 19.9141 18.9806 19.9141 17.6592C19.9141 16.3378 18.8429 15.2666 17.5215 15.2666C16.2001 15.2666 15.1289 16.3378 15.1289 17.6592C15.1289 18.9806 16.2001 20.0518 17.5215 20.0518Z" fill="#FBFBFB"/>
<path d="M28.8506 38.8842L25.5092 38.8664C24.816 38.8623 24.1229 38.8254 23.4338 38.753C22.675 38.6778 21.9203 38.5588 21.1725 38.3989C20.173 38.1856 19.1859 37.8971 18.2139 37.5334C17.5617 37.2887 16.8904 36.8129 16.2082 36.3289C15.3729 35.7369 14.8588 34.6555 14.8574 33.4852V33.4797C14.8574 32.5951 15.1541 31.7489 15.6736 31.1281C17.2855 29.2031 18.9316 27.6158 20.6353 26.4358C21.2259 26.0257 21.8234 25.6661 22.429 25.3571C25.7267 23.6755 29.2651 23.5224 33.2246 25.3462C37.0529 27.1099 38.9054 30.5198 38.9054 30.5225C42.7236 37.2121 35.6867 38.6724 28.8506 38.8842Z" fill="#FBFBFB"/>
<path d="M21.4721 65.9771H16.6868C16.1112 65.9771 15.5493 65.7967 15.0845 65.459C9.89174 61.6963 5.80385 56.4996 3.4043 50.4497H8.18959C10.589 56.4996 14.677 61.6965 19.8697 65.459C20.3346 65.7967 20.8965 65.9771 21.4721 65.9771Z" fill="#FBFBFB"/>
<path d="M21.4721 65.9771H16.6868C16.1112 65.9771 15.5493 65.7967 15.0845 65.459C9.89174 61.6963 5.80385 56.4996 3.4043 50.4497H8.18959C10.589 56.4996 14.677 61.6965 19.8697 65.459C20.3346 65.7967 20.8965 65.9771 21.4721 65.9771Z" fill="#FBFBFB"/>
<path d="M28.2189 38.753C28.6961 38.8036 29.176 38.8364 29.6572 38.8528C29.3879 38.8651 29.1199 38.8761 28.8506 38.8843L25.5092 38.8665C24.816 38.8624 24.1229 38.8255 23.4338 38.753C22.675 38.6778 21.9203 38.5589 21.1725 38.3989C20.173 38.1857 19.1859 37.8972 18.2139 37.5335C17.5617 37.2888 16.8904 36.813 16.2082 36.329C15.3729 35.737 14.8588 34.6556 14.8574 33.4853V33.4798C14.8574 32.5952 15.1541 31.7489 15.6736 31.1282C17.2855 29.2032 18.9316 27.6159 20.6353 26.4359C21.2259 26.0258 21.8234 25.6662 22.429 25.3572C24.8421 24.1267 27.3839 23.7152 30.1237 24.2963C29.1311 24.5164 28.1632 24.8732 27.2143 25.3572C26.6087 25.6662 26.0112 26.0258 25.4206 26.4359C23.7171 27.6158 22.071 29.2031 20.4589 31.1282C19.9394 31.7489 19.6427 32.5952 19.6427 33.4798V33.4853C19.6441 34.6556 20.1581 35.737 20.9935 36.329C21.6757 36.813 22.347 37.2888 22.9992 37.5335C23.9712 37.8972 24.9583 38.1857 25.9578 38.3989C26.7055 38.559 27.4602 38.678 28.2189 38.753Z" fill="#FBFBFB"/>
<path d="M56.702 10.4713C56.1598 10.0423 55.8489 9.40534 55.8489 8.72394V6.07446C55.8489 4.37819 54.4689 2.99829 52.7727 2.99829H17.225C15.5288 2.99829 14.1489 4.37819 14.1489 6.07446V8.72394C14.1489 9.40534 13.838 10.0423 13.2957 10.4713C-4.92286 24.8867 -4.3146 52.6708 14.4819 66.2894C15.1256 66.7556 15.8879 67.0021 16.6866 67.0021H22.3136C22.8799 67.0021 23.339 66.543 23.339 65.9767C23.339 65.4104 22.8799 64.9513 22.3136 64.9513H16.6866C16.3228 64.9513 15.9765 64.8397 15.6852 64.6286C10.9764 61.2171 7.31716 56.6504 4.97913 51.4752H31.3917C34.2528 51.4752 36.9864 52.5439 39.0887 54.4845C41.3891 56.608 44.3778 57.8639 47.5044 58.021C47.5219 58.0218 47.5393 58.0223 47.5566 58.0223C48.0994 58.0223 48.5523 57.5964 48.5798 57.0483C48.6083 56.4827 48.1727 56.0011 47.6072 55.9727C44.9592 55.8398 42.4279 54.776 40.4797 52.9776C37.9974 50.6862 34.7699 49.4244 31.3917 49.4244H4.13134C2.77303 45.7869 2.04897 41.8981 2.04897 37.9308C2.04897 27.7973 6.6121 18.375 14.5683 12.0798C15.605 11.2595 16.1996 10.0364 16.1996 8.72421V6.07446C16.1996 5.50899 16.6596 5.04907 17.225 5.04907H52.7726C53.3381 5.04907 53.798 5.50899 53.798 6.07446V8.72394C53.798 10.036 54.3926 11.2591 55.4294 12.0796C69.0469 22.8545 71.769 41.894 62.5407 55.9899C62.5205 55.9887 62.5004 55.9869 62.4799 55.9869H51.6571C51.0907 55.9869 50.6317 56.446 50.6317 57.0123C50.6317 57.5786 51.0907 58.0377 51.6571 58.0377H61.0864C59.1754 60.523 56.9037 62.7514 54.3127 64.6285C54.0214 64.8396 53.6751 64.9512 53.3111 64.9512H26.415C25.8487 64.9512 25.3896 65.4103 25.3896 65.9766C25.3896 66.5428 25.8487 67.0019 26.415 67.0019H53.3108C54.1097 67.0019 54.8722 66.7554 55.5157 66.2892C59.9038 63.11 63.5457 58.8955 66.0476 54.1016C73.5421 39.7406 70.3519 21.2717 56.702 10.4713Z" fill="#253D4E"/>
<path d="M8.22461 24.8372C8.22461 26.7596 9.78867 28.3235 11.7109 28.3235C13.6332 28.3235 15.1973 26.7594 15.1973 24.8372C15.1973 22.9149 13.6332 21.3508 11.7109 21.3508C9.78867 21.3508 8.22461 22.9148 8.22461 24.8372ZM13.1466 24.8372C13.1466 25.6288 12.5025 26.2727 11.7111 26.2727C10.9195 26.2727 10.2755 25.6286 10.2755 24.8372C10.2755 24.0457 10.9196 23.4016 11.7111 23.4016C12.5025 23.4016 13.1466 24.0456 13.1466 24.8372Z" fill="#253D4E"/>
<path d="M17.5215 21.0774C19.4062 21.0774 20.9395 19.5441 20.9395 17.6594C20.9395 15.7748 19.4062 14.2415 17.5215 14.2415C15.6368 14.2415 14.1035 15.7748 14.1035 17.6594C14.1035 19.5441 15.6368 21.0774 17.5215 21.0774ZM17.5215 16.2921C18.2754 16.2921 18.8887 16.9054 18.8887 17.6593C18.8887 18.4132 18.2754 19.0265 17.5215 19.0265C16.7676 19.0265 16.1543 18.4132 16.1543 17.6593C16.1543 16.9054 16.7676 16.2921 17.5215 16.2921Z" fill="#253D4E"/>
<path d="M40.2656 36.344C47.5825 38.5502 45.84 48.9309 57.4079 46.6791C58.4518 46.4759 59.2095 45.5595 59.2095 44.5002C59.2095 43.639 58.0032 38.5234 52.8752 35.5224C57.1642 34.494 60.9733 32.0557 62.608 28.0242C63.1373 26.7202 62.3336 25.258 60.9417 25.0063C57.0527 24.303 53.2733 25.3563 49.7014 27.0408C49.1892 27.2824 48.9697 27.8934 49.2114 28.4057C49.453 28.918 50.0638 29.1371 50.5762 28.8958C53.6955 27.4246 57.1015 26.3958 60.5768 27.0246C60.6862 27.0444 60.7481 27.1535 60.7078 27.2536C59.7935 29.5079 57.063 33.3885 49.047 34.0504C47.8726 34.1475 47.7705 35.8395 48.9249 36.0768C48.99 36.0902 55.4423 37.4926 57.1538 44.4613C57.1763 44.552 57.1141 44.6472 57.0162 44.6662C46.9922 46.6169 49.279 37.0239 40.978 34.4187C41.042 33.8584 41.0024 33.2632 40.8622 32.6356C43.1226 32.3045 45.1501 31.4761 46.8736 30.6792C47.3877 30.4416 47.6118 29.8322 47.374 29.3181C47.1363 28.8041 46.5268 28.5799 46.013 28.8179C44.3321 29.5951 42.3478 30.4057 40.1949 30.6566C39.7521 29.943 38.6725 27.8859 36.2093 25.9772C37.2621 25.5483 38.3775 25.1367 39.239 24.8295C39.9127 24.5892 40.4329 24.0349 40.6305 23.3471C40.8275 22.661 40.6812 21.9174 40.2393 21.3581C36.7302 16.9171 32.5143 15.2014 30.8647 14.67C30.1849 14.4508 29.4353 14.5751 28.8593 15.0023C24.9841 17.8768 24.7036 21.7264 24.7855 23.3753C24.3563 23.4822 23.93 23.6125 23.507 23.7674C20.5879 24.8365 17.7687 27.0288 14.8883 30.4695C13.2336 32.4461 13.5579 35.7073 15.617 37.1669C16.3353 37.676 17.078 38.2024 17.8548 38.4938C20.2765 39.4018 22.8356 39.8715 25.4615 39.8909C26.0821 41.1052 28.1401 44.501 32.5005 46.3245C34.4028 47.12 36.525 45.8572 36.7579 43.8189C36.8037 43.4184 37.0805 43.0771 37.4629 42.9496L37.5527 42.9196C38.9333 42.4594 39.7964 41.1265 39.6516 39.6786L39.414 37.3033C39.7504 37.0097 40.0332 36.6897 40.2656 36.344ZM30.0811 16.6492C30.1267 16.6155 30.1844 16.6052 30.2358 16.6218C30.577 16.7317 31.0425 16.8996 31.5942 17.1412C30.9576 17.774 30.1707 18.7246 29.7593 19.8676C29.5675 20.4005 29.8439 20.988 30.3767 21.1797C30.4914 21.221 30.6087 21.2405 30.724 21.2405C31.1441 21.2405 31.5383 20.9804 31.6888 20.5621C32.0917 19.4428 33.084 18.5198 33.5352 18.1426C34.1212 18.4925 34.7428 18.9095 35.3784 19.4022C34.7077 19.7733 33.8631 20.3569 33.2634 21.1752C32.9287 21.632 33.0276 22.2736 33.4845 22.6084C33.6671 22.7422 33.8793 22.8068 34.0897 22.8068C34.4053 22.8068 34.7169 22.6614 34.9176 22.3875C35.5573 21.5145 36.7292 20.9996 37.0538 20.8695C37.5869 21.3953 38.1165 21.9792 38.6303 22.6293C38.6657 22.6742 38.6755 22.725 38.6596 22.7807C38.6482 22.8203 38.6199 22.8727 38.55 22.8976C37.2971 23.3445 35.5187 24.0073 34.1168 24.6411C33.9655 24.5636 33.8118 24.4876 33.6539 24.4149C31.3299 23.3444 29.0449 22.8889 26.8265 23.0489C26.8056 21.7091 27.1436 18.8283 30.0811 16.6492ZM32.796 26.2778C36.7575 28.1024 39.9232 32.7929 38.6709 35.0289C36.9604 38.0836 27.4583 38.0403 24.0565 37.7801C26.0508 34.3212 25.6199 31.2452 24.8449 29.1977C24.3443 27.8751 23.6484 26.8296 23.1108 26.1441C26.3412 24.5706 29.5057 24.7624 32.796 26.2778ZM16.8014 35.4925C15.7496 34.747 15.556 32.8665 16.4609 31.7858C18.1077 29.8185 19.7172 28.2918 21.3231 27.1923C21.7637 27.7189 22.4509 28.6663 22.9269 29.9238C23.8887 32.465 23.516 35.0072 21.8211 37.4829C20.7148 37.2719 19.6302 36.9691 18.5752 36.5734C18.047 36.3754 17.4427 35.9471 16.8014 35.4925ZM37.6111 39.8827C37.657 40.3425 37.4262 40.7999 36.8148 41.0038C35.6784 41.3825 34.8564 42.3961 34.7206 43.586C34.6418 44.2745 33.9264 44.6975 33.2918 44.4321C30.431 43.2358 28.7168 41.2102 27.8517 39.9043C30.769 39.9203 34.7867 39.631 37.4709 38.4816L37.6111 39.8827Z" fill="#253D4E"/>
<path d="M19.7994 29.6987C18.9813 29.6979 18.3172 30.3604 18.3164 31.1786C18.3156 31.9967 18.9781 32.6607 19.7963 32.6616C20.6144 32.6624 21.2784 31.9998 21.2792 31.1817C21.2801 30.3635 20.6175 29.6996 19.7994 29.6987Z" fill="#253D4E"/>
</svg>
