<svg width="84" height="97" viewBox="0 0 84 97" fill="none" xmlns="http://www.w3.org/2000/svg">
<g opacity="0.3">
<path d="M5.28091 0.620041C4.99144 0.992214 4.49521 1.5298 4.20574 1.90197C3.87492 2.23279 3.54411 3.22525 3.42005 4.135C3.29599 5.04476 3.00652 5.7891 2.84111 5.7891C2.63435 5.7891 2.46894 7.73267 2.46894 10.0898C2.46894 12.9431 2.30353 14.4731 2.01406 14.5558C1.68324 14.6799 1.43513 16.334 1.31107 19.0219C1.22837 21.4203 0.938899 23.488 0.732136 23.612C0.525374 23.7361 0.277259 25.9691 0.111849 28.5743C-0.0949135 32.6269 -0.053561 33.4126 0.566726 33.9915C0.938899 34.3637 1.22837 34.8599 1.22837 35.108C1.22837 35.7697 1.93136 35.6456 2.88247 34.8599C3.33734 34.4464 3.70951 33.702 3.70951 33.2058C3.70951 32.6682 3.91628 32.2547 4.12304 32.2547C4.37115 32.2547 4.53656 31.5517 4.53656 30.6833C4.53656 29.8149 4.82603 28.7397 5.15685 28.2849C5.52902 27.7886 5.73579 26.548 5.77714 24.9353C5.77714 23.5293 5.9839 22.3301 6.19066 22.2474C6.43878 22.1647 6.72825 20.8828 6.89366 19.3114C7.01771 17.7813 7.26583 16.5407 7.43124 16.5407C7.59665 16.5407 7.84476 15.1761 7.96882 13.5634C8.13423 11.9093 8.4237 10.5033 8.67181 10.4206C8.91993 10.3379 9.08534 8.3116 9.08534 5.12746L9.08534 -0.000244141H7.43124C6.48013 -0.000244141 5.57038 0.247871 5.28091 0.620041Z" fill="url(#paint0_linear_1611_402)"/>
<path d="M49.6109 16.0869C49.6109 16.2936 49.1973 16.6244 48.7011 16.7898C47.6259 17.1207 46.7162 17.9477 46.7162 18.568C46.7162 18.8161 46.4267 19.0229 46.0959 19.0229C45.7651 19.0229 45.4756 19.2296 45.4756 19.4778C45.4756 19.7259 44.9794 20.4702 44.3591 21.0905C42.5809 22.9514 42.1674 23.4889 42.1674 23.9852C42.1674 24.1919 41.878 24.3987 41.5471 24.3987C41.2163 24.3987 40.9268 24.6882 40.9268 25.019C40.9268 25.3498 40.7614 25.6393 40.5133 25.6393C40.3066 25.6393 40.0998 25.9287 40.0998 26.2596C40.0998 26.5904 39.8103 26.8799 39.4795 26.8799C39.1073 26.8799 38.8592 27.252 38.8592 27.9137C38.8592 28.5753 38.6111 28.9475 38.2389 28.9475C37.9081 28.9475 37.6186 29.1542 37.6186 29.4024C37.6186 29.6918 37.1638 30.3121 36.5848 30.8497C36.0059 31.3873 35.551 32.0903 35.551 32.3797C35.551 32.7106 35.2616 33.0827 34.9307 33.2481C34.5999 33.3722 34.3104 33.9511 34.3104 34.5301C34.3104 35.109 34.145 35.5639 33.8969 35.5639C33.6902 35.5639 33.4834 36.3082 33.4834 37.218V38.8721H35.5924C37.6186 38.8721 38.8592 38.2518 38.8592 37.2593C38.8592 37.0112 39.1487 36.8044 39.4795 36.8044C39.8103 36.8044 40.0998 36.515 40.0998 36.1842C40.0998 35.8533 40.2652 35.5639 40.472 35.5639C40.6787 35.5639 40.9682 35.109 41.0923 34.5301C41.2577 33.9511 41.5471 33.4962 41.7539 33.4962C42.002 33.4962 42.1674 33.2068 42.1674 32.876C42.1674 32.5451 42.4569 32.2557 42.7877 32.2557C43.1185 32.2557 43.408 31.9662 43.408 31.6354C43.408 31.3046 43.6148 31.0151 43.8215 31.0151C44.0696 31.0151 44.235 30.5602 44.235 29.9813C44.235 29.3196 44.4832 28.9475 44.8553 28.9475C45.1861 28.9475 45.4756 28.658 45.4756 28.3272C45.4756 27.9964 45.641 27.7069 45.8891 27.7069C46.0959 27.7069 46.3854 27.252 46.5508 26.6731C46.6748 26.0942 46.9643 25.6393 47.1711 25.6393C47.3778 25.6393 47.5432 25.3498 47.5432 25.019C47.5432 24.6882 47.7087 24.3987 47.9568 24.3987C48.1635 24.3987 48.453 23.9438 48.6184 23.3649C48.7425 22.786 49.1146 22.3311 49.4455 22.3311C49.7763 22.3311 50.0244 21.9176 50.0244 21.2973C50.0244 20.7183 50.2312 20.2635 50.4379 20.2635C50.686 20.2635 50.8514 19.2296 50.8514 17.9891C50.8514 16.2523 50.7274 15.7147 50.2312 15.7147C49.9003 15.7147 49.6109 15.8801 49.6109 16.0869Z" fill="url(#paint1_linear_1611_402)"/>
<path d="M74.4229 30.6006C74.4229 30.8488 74.7123 31.0142 75.0431 31.0142C75.374 31.0142 75.6634 30.9315 75.6634 30.8488C75.6634 30.766 75.374 30.6006 75.0431 30.4352C74.7123 30.3112 74.4229 30.3939 74.4229 30.6006Z" fill="url(#paint2_linear_1611_402)"/>
<path d="M66.4826 47.8458C65.821 47.9285 65.3248 48.2179 65.3248 48.4247C65.3248 48.6315 64.7045 48.7969 63.9188 48.7969C63.1744 48.7969 61.8512 49.0863 61.0655 49.4172C60.2384 49.748 58.9151 50.0375 58.0881 50.0375C57.3024 50.0375 56.6407 50.2029 56.6407 50.451C56.6407 50.6577 56.1032 50.8645 55.4415 50.8645C54.7799 50.8645 53.9528 51.1126 53.622 51.4434C53.3326 51.7743 52.5882 52.1051 52.0506 52.1878C51.389 52.2705 51.0168 52.6427 50.9341 53.2216C50.8514 53.7592 50.6033 54.1727 50.3965 54.1727C49.7349 54.1727 50.0244 56.2403 50.8101 57.1501C51.513 57.8944 52.0093 57.9771 55.028 57.8117C57.261 57.729 58.5016 57.4809 58.6257 57.1501C58.7084 56.8606 59.4941 56.6538 60.4038 56.6538C61.5617 56.6538 62.0166 56.4884 62.0166 56.0336C62.0166 55.5787 62.4714 55.4133 63.6707 55.4133C64.5804 55.4133 65.3248 55.2479 65.3248 55.0411C65.3248 54.8343 66.0691 54.5862 66.9789 54.4208C67.8886 54.2968 68.633 54.0073 68.633 53.8005C68.633 53.5938 69.3773 53.3456 70.2871 53.1802C71.1968 53.0562 71.9412 52.7254 71.9412 52.5186C71.9412 52.2705 72.396 52.1051 72.975 52.1051C73.5539 52.1051 74.0088 51.8983 74.0088 51.6916C74.0088 51.4434 74.2983 51.278 74.6291 51.278C74.9599 51.278 75.2494 50.9886 75.2494 50.6577C75.2494 50.3269 75.5388 50.0375 75.8696 50.0375C76.9035 50.0375 76.6553 48.0939 75.5802 47.8044C74.5464 47.5563 68.3021 47.5563 66.4826 47.8458Z" fill="url(#paint3_linear_1611_402)"/>
<path d="M52.8359 87.2954C51.8434 88.3292 51.7607 93.0433 52.7118 93.0433C53.0427 93.0433 53.3321 93.2088 53.3321 93.4569C53.3321 93.6636 53.787 93.9531 54.3659 94.1185C54.9449 94.2426 55.3997 94.532 55.3997 94.6974C55.3997 94.8629 56.2681 95.1523 57.3847 95.3177C58.4598 95.4831 59.4109 95.7726 59.535 95.938C59.7418 96.2688 68.6325 96.4756 78.0609 96.3929C81.1623 96.3515 81.8653 96.2275 81.8653 95.7313C81.8653 95.4004 82.1548 95.111 82.4856 95.111C82.8164 95.111 83.1059 94.9042 83.1059 94.6974C83.1059 94.4493 82.8164 94.2839 82.4856 94.2839C82.1548 94.2839 81.8653 93.9945 81.8653 93.6636C81.8653 93.3328 81.6586 93.0433 81.4105 93.0433C81.1623 93.0433 80.7075 92.7539 80.3766 92.4231C80.0045 92.0922 79.3015 91.8028 78.7225 91.8028C78.185 91.8028 77.7301 91.596 77.7301 91.3892C77.7301 91.1411 76.6963 90.9757 75.4557 90.9757C73.8016 90.9757 73.0986 90.8103 72.9332 90.3554C72.7678 89.9419 72.0648 89.7351 70.7002 89.7351C69.5836 89.7351 68.6325 89.5284 68.5498 89.2803C68.4671 89.0322 67.4333 88.7013 66.2341 88.5773C65.0349 88.4946 64.0838 88.2465 64.0838 88.081C64.0838 87.9156 63.3394 87.6675 62.4297 87.5021C61.5199 87.3781 60.7756 87.0472 60.7756 86.8405C60.7756 86.5924 59.2869 86.4269 57.1779 86.4683C54.1592 86.5097 53.4148 86.6337 52.8359 87.2954Z" fill="url(#paint4_linear_1611_402)"/>
</g>
<defs>
<linearGradient id="paint0_linear_1611_402" x1="0" y1="17.7677" x2="9.08534" y2="17.7677" gradientUnits="userSpaceOnUse">
<stop stop-color="#F86CA7"/>
<stop offset="1" stop-color="#FF7F18"/>
</linearGradient>
<linearGradient id="paint1_linear_1611_402" x1="33.4834" y1="27.2934" x2="50.8514" y2="27.2934" gradientUnits="userSpaceOnUse">
<stop stop-color="#F86CA7"/>
<stop offset="1" stop-color="#FF7F18"/>
</linearGradient>
<linearGradient id="paint2_linear_1611_402" x1="74.4229" y1="30.6955" x2="75.6634" y2="30.6955" gradientUnits="userSpaceOnUse">
<stop stop-color="#F86CA7"/>
<stop offset="1" stop-color="#FF7F18"/>
</linearGradient>
<linearGradient id="paint3_linear_1611_402" x1="50.0293" y1="52.7533" x2="76.5285" y2="52.7533" gradientUnits="userSpaceOnUse">
<stop stop-color="#F86CA7"/>
<stop offset="1" stop-color="#FF7F18"/>
</linearGradient>
<linearGradient id="paint4_linear_1611_402" x1="52.043" y1="91.4366" x2="83.1059" y2="91.4365" gradientUnits="userSpaceOnUse">
<stop stop-color="#F86CA7"/>
<stop offset="1" stop-color="#FF7F18"/>
</linearGradient>
</defs>
</svg>
