<svg width="51" height="18" viewBox="0 0 51 18" fill="none" xmlns="http://www.w3.org/2000/svg">
<path d="M6.16004 0H6.60468C8.14834 0.036973 9.66683 0.720973 10.7575 1.93184C10.3548 2.38476 9.94368 2.81919 9.54937 3.27211C8.93695 2.66206 8.19868 2.19065 7.39329 2.02427C6.20199 1.74697 4.91841 1.99654 3.92006 2.74525C2.82944 3.53092 2.09117 4.86195 1.93177 6.28541C1.75559 7.69038 2.11633 9.1693 2.94689 10.26C3.74389 11.323 4.96035 11.9885 6.21877 12.0347C7.39329 12.1087 8.61815 11.7112 9.47387 10.8054C10.145 10.1676 10.4554 9.19703 10.5561 8.25422C9.16346 8.25422 7.77081 8.26347 6.37817 8.25422V6.35011H12.2424C12.5444 8.39287 12.1082 10.6944 10.6987 12.1549C9.75911 13.1901 8.45875 13.8002 7.13322 13.9203C5.84963 14.059 4.5241 13.7909 3.38314 13.1069C2.01566 12.3028 0.925035 10.944 0.388111 9.34493C-0.115255 7.87525 -0.123644 6.21146 0.346164 4.73254C0.774025 3.38303 1.59619 2.19065 2.65326 1.35876C3.66838 0.536109 4.90163 0.0831893 6.16004 0Z" fill="#3780FF"/>
<path d="M39.8008 0.480957H41.5961V13.6803C41.0005 13.6803 40.3964 13.6896 39.8008 13.6711C39.8092 9.28053 39.8008 4.88074 39.8008 0.480957Z" fill="#38B137"/>
<path d="M16.2373 5.05612C17.3447 4.82503 18.5444 5.08385 19.4589 5.81406C20.2894 6.46109 20.8683 7.47785 21.0445 8.58704C21.271 9.87185 20.9857 11.2768 20.2307 12.2936C19.4169 13.4305 18.083 14.0406 16.7826 13.9481C15.5913 13.8742 14.4336 13.2179 13.7289 12.1457C12.9319 10.9626 12.7389 9.33574 13.1752 7.94925C13.6114 6.46109 14.8447 5.32417 16.2373 5.05612ZM16.489 6.81233C16.036 6.94174 15.6165 7.22828 15.3145 7.63498C14.5007 8.7072 14.551 10.4542 15.4487 11.4524C15.9605 12.0255 16.7323 12.2936 17.4454 12.1364C18.1082 12.007 18.687 11.5171 19.0058 10.8701C19.5595 9.77017 19.4001 8.25428 18.5528 7.39466C18.0075 6.84006 17.2105 6.60898 16.489 6.81233Z" fill="#FA3913"/>
<path d="M25.1292 5.05606C26.396 4.78801 27.7803 5.17623 28.7283 6.15601C30.2719 7.68115 30.4397 10.5373 29.1226 12.2935C28.3256 13.4027 27.0336 14.0128 25.7584 13.9481C24.542 13.9111 23.3423 13.2456 22.6208 12.1456C21.807 10.9348 21.6308 9.27099 22.0922 7.85677C22.5537 6.41482 23.7617 5.31487 25.1292 5.05606ZM25.3809 6.81228C24.9279 6.94169 24.5084 7.22823 24.2064 7.62569C23.401 8.67942 23.4345 10.3987 24.2987 11.4062C24.8104 12.007 25.6074 12.3028 26.3457 12.1364C27.0001 11.9977 27.5873 11.5171 27.9061 10.8701C28.4514 9.76088 28.292 8.24499 27.4363 7.38536C26.891 6.83077 26.094 6.60893 25.3809 6.81228Z" fill="#FCBD06"/>
<path d="M32.6715 5.59222C33.6362 4.9267 34.9198 4.74184 35.9601 5.31492C36.2873 5.47205 36.5558 5.74011 36.8158 6.00816C36.8242 5.75859 36.8158 5.49978 36.8242 5.24097C37.3863 5.25022 37.9484 5.24097 38.5189 5.25022V13.4028C38.5105 14.6321 38.2253 15.9354 37.4199 16.832C36.539 17.821 35.1883 18.1261 33.9718 17.9227C32.6715 17.7101 31.5389 16.6656 31.0355 15.3438C31.5389 15.0758 32.0674 14.8632 32.5876 14.6136C32.8812 15.3716 33.4768 16.0186 34.2235 16.1665C34.9702 16.3144 35.8343 16.111 36.3209 15.427C36.841 14.7245 36.841 13.7633 36.8158 12.9036C36.4299 13.3196 35.9853 13.6893 35.4484 13.828C34.2822 14.1884 32.9986 13.7448 32.101 12.8759C31.1949 12.007 30.658 10.6668 30.7083 9.33573C30.7335 7.82908 31.5053 6.37789 32.6715 5.59222ZM34.4081 6.77535C33.8963 6.86778 33.4181 7.18205 33.0909 7.61649C32.3023 8.65173 32.3023 10.3063 33.0993 11.323C33.5523 11.9238 34.2822 12.2566 34.9869 12.1734C35.6497 12.0995 36.2621 11.6373 36.5893 10.9995C37.143 9.91806 37.0507 8.44838 36.3041 7.50557C35.8427 6.92324 35.1044 6.6367 34.4081 6.77535Z" fill="#3780FF"/>
<path d="M43.7525 6.06378C44.7592 5.02853 46.3113 4.67729 47.6032 5.22264C48.8281 5.73102 49.6083 7.01583 50.0026 8.33762C48.1821 9.16951 46.37 9.99216 44.5495 10.8241C44.8012 11.3509 45.1871 11.8316 45.7072 12.0257C46.4371 12.3122 47.3096 12.2105 47.922 11.6744C48.1653 11.4711 48.3583 11.203 48.5428 10.9442C49.0043 11.2862 49.4657 11.619 49.9271 11.961C49.2727 13.0424 48.1737 13.8004 46.9908 13.9205C45.682 14.0962 44.2894 13.5416 43.4421 12.4139C42.0494 10.6392 42.1837 7.66286 43.7525 6.06378ZM44.6501 7.77378C44.3649 8.2267 44.2475 8.78129 44.2558 9.32664C45.4723 8.77205 46.6888 8.21745 47.9052 7.65362C47.7039 7.13599 47.2173 6.82172 46.7223 6.73853C45.9253 6.5814 45.0948 7.0528 44.6501 7.77378Z" fill="#FA3913"/>
</svg>
