<svg width="102" height="34" viewBox="0 0 102 34" fill="none" xmlns="http://www.w3.org/2000/svg">
<g clip-path="url(#clip0_1736_5876)">
<path d="M12.5622 0.00305176H13.4693C16.6183 0.0729623 19.7159 1.36631 21.9408 3.65588C21.1193 4.51228 20.2807 5.33373 19.4763 6.19013C18.227 5.03661 16.721 4.14525 15.078 3.83065C12.6478 3.30632 10.0294 3.77822 7.99278 5.19391C5.76795 6.67951 4.26191 9.19628 3.93674 11.8878C3.57734 14.5444 4.31325 17.3409 6.00755 19.4032C7.63338 21.4131 10.1149 22.6715 12.682 22.7589C15.078 22.8987 17.5767 22.1472 19.3223 20.4344C20.6914 19.2284 21.3247 17.3933 21.53 15.6106C18.6891 15.6106 15.8482 15.6281 13.0072 15.6106V12.0102H24.97C25.5861 15.8727 24.6961 20.2247 21.821 22.9861C19.9042 24.9436 17.2515 26.0972 14.5475 26.3244C11.929 26.5865 9.225 26.0797 6.89748 24.7863C4.10788 23.2658 1.88305 20.6966 0.787746 17.6729C-0.239099 14.894 -0.256213 11.748 0.702176 8.9516C1.57499 6.39986 3.25218 4.14525 5.40855 2.57226C7.47936 1.01675 9.99513 0.16035 12.5622 0.00305176Z" fill="#3780FF"/>
<path d="M81.1895 0.911865H84.8519V25.8699C83.6368 25.8699 82.4046 25.8874 81.1895 25.8524C81.2066 17.5506 81.1895 9.23122 81.1895 0.911865Z" fill="#38B137"/>
<path d="M33.1159 9.56324C35.3749 9.1263 37.8222 9.61568 39.6877 10.9964C41.382 12.2198 42.5628 14.1424 42.9222 16.2397C43.3843 18.6691 42.8024 21.3257 41.2622 23.2482C39.6021 25.398 36.881 26.5515 34.2283 26.3767C31.7981 26.2369 29.4363 24.996 27.9988 22.9686C26.3729 20.7314 25.9793 17.6554 26.8692 15.0337C27.7592 12.2198 30.2749 10.0701 33.1159 9.56324ZM33.6293 12.884C32.7051 13.1287 31.8494 13.6705 31.2333 14.4395C29.5733 16.4669 29.6759 19.7702 31.5071 21.6578C32.5511 22.7414 34.1256 23.2482 35.5803 22.9511C36.9323 22.7064 38.1132 21.7801 38.7635 20.5567C39.8931 18.4768 39.5679 15.6105 37.8394 13.9851C36.7269 12.9364 35.1011 12.4995 33.6293 12.884Z" fill="#FA3913"/>
<path d="M51.257 9.56331C53.8412 9.05646 56.665 9.79052 58.5989 11.6431C61.7479 14.527 62.0902 19.9275 59.4033 23.2483C57.7774 25.3456 55.1419 26.4991 52.5405 26.3768C50.059 26.3069 47.6117 25.0485 46.1399 22.9686C44.4798 20.6791 44.1204 17.5331 45.0617 14.859C46.0029 12.1325 48.4674 10.0527 51.257 9.56331ZM51.7704 12.8841C50.8462 13.1287 49.9905 13.6706 49.3744 14.4221C47.7315 16.4145 47.7999 19.6654 49.5627 21.5704C50.6066 22.7065 52.2325 23.2658 53.7385 22.9512C55.0734 22.689 56.2714 21.7802 56.9217 20.5567C58.0342 18.4594 57.709 15.5931 55.9634 13.9677C54.8509 12.919 53.2251 12.4995 51.7704 12.8841Z" fill="#FCBD06"/>
<path d="M66.6422 10.5769C68.6103 9.31855 71.2288 8.969 73.3509 10.0526C74.0184 10.3497 74.566 10.8566 75.0966 11.3634C75.1137 10.8915 75.0966 10.4022 75.1137 9.91279C76.2603 9.93027 77.407 9.91279 78.5707 9.93027V25.3455C78.5536 27.6701 77.9717 30.1344 76.3288 31.8297C74.5318 33.6998 71.7764 34.2766 69.2949 33.8921C66.6422 33.4901 64.3318 31.5151 63.3049 29.0158C64.3318 28.509 65.41 28.107 66.4711 27.6351C67.07 29.0683 68.2851 30.2917 69.8083 30.5714C71.3315 30.851 73.0942 30.4665 74.0868 29.1731C75.1479 27.8448 75.1479 26.0272 75.0966 24.4018C74.3093 25.1882 73.4023 25.8874 72.307 26.1495C69.9281 26.8311 67.3096 25.9922 65.4784 24.3493C63.6301 22.7064 62.5348 20.1722 62.6375 17.6554C62.6888 14.8065 64.2633 12.0625 66.6422 10.5769ZM70.1848 12.8141C69.1409 12.9889 68.1653 13.5831 67.4979 14.4045C65.8892 16.362 65.8892 19.4905 67.515 21.4131C68.4392 22.5491 69.9281 23.1783 71.3657 23.021C72.7177 22.8812 73.967 22.0073 74.6345 20.8014C75.764 18.7565 75.5758 15.9775 74.0526 14.1948C73.1113 13.0937 71.6053 12.5519 70.1848 12.8141Z" fill="#3780FF"/>
<path d="M89.2491 11.4683C91.3028 9.51085 94.4689 8.8467 97.1045 9.87788C99.6032 10.8392 101.195 13.2685 101.999 15.7678C98.2854 17.3408 94.5887 18.8963 90.875 20.4693C91.3884 21.4656 92.1757 22.3744 93.2367 22.7414C94.7257 23.2832 96.5055 23.091 97.7549 22.0773C98.2512 21.6928 98.6448 21.1859 99.0213 20.6965C99.9626 21.3432 100.904 21.9724 101.845 22.6191C100.51 24.664 98.2683 26.0971 95.8552 26.3243C93.1854 26.6564 90.3444 25.6078 88.6159 23.4755C85.775 20.1198 86.0488 14.492 89.2491 11.4683ZM91.0804 14.7017C90.4985 15.5581 90.2589 16.6068 90.276 17.638C92.7575 16.5893 95.2391 15.5406 97.7206 14.4745C97.3099 13.4958 96.3173 12.9015 95.3075 12.7442C93.6817 12.4471 91.9874 13.3385 91.0804 14.7017Z" fill="#FA3913"/>
</g>
<defs>
<clipPath id="clip0_1736_5876">
<rect width="102" height="34" fill="white"/>
</clipPath>
</defs>
</svg>
