<svg width="11" height="9" viewBox="0 0 11 9" fill="none" xmlns="http://www.w3.org/2000/svg">
<path d="M6.52133 4.76462C6.1364 4.39419 5.62641 4.18774 5.09627 4.18774C4.56612 4.18774 4.05614 4.39419 3.67121 4.76462L1.95233 6.41656C0.967105 7.32656 1.67788 9.0661 3.00794 8.99817C3.72926 8.9785 4.31512 8.60306 5.09451 8.61736C5.90205 8.60306 6.50198 8.9338 7.22683 8.99817C8.53401 9.02856 9.2096 7.30868 8.23845 6.41656L6.52133 4.76462Z" fill="#FF6B55"/>
<path d="M9.48138 2.33682C8.80931 2.20274 8.29558 2.96256 8.16187 3.6169C7.76074 5.64249 9.6925 6.02866 10.1446 4.06385C10.3294 3.22179 10.0373 2.46197 9.48138 2.33682Z" fill="#FF6B55"/>
<path d="M6.6323 3.43082C7.30085 3.43082 7.84448 2.65848 7.84448 1.71094C7.77763 -0.570313 5.48697 -0.570313 5.42188 1.71094C5.42188 2.65848 5.96551 3.43082 6.6323 3.43082Z" fill="#FF6B55"/>
<path d="M2.03236 3.6169C1.90041 2.96256 1.38492 2.20274 0.712855 2.33682C-0.532755 2.65684 -0.00495423 5.35465 1.21251 5.36181C1.90217 5.33856 2.22061 4.52511 2.03236 3.6169Z" fill="#FF6B55"/>
<path d="M3.55984 3.43082C4.22663 3.43082 4.77026 2.65848 4.77026 1.71094C4.70517 -0.570313 2.41451 -0.570313 2.34766 1.71094C2.34766 2.65848 2.89129 3.43082 3.55984 3.43082Z" fill="#FF6B55"/>
</svg>
