<svg width="49" height="46" viewBox="0 0 49 46" fill="none" xmlns="http://www.w3.org/2000/svg">
<g opacity="0.05">
<mask id="mask0_2004_5" style="mask-type:alpha" maskUnits="userSpaceOnUse" x="0" y="0" width="49" height="46">
<rect width="49" height="46" fill="#D9D9D9"/>
</mask>
<g mask="url(#mask0_2004_5)">
<path d="M27.7999 27.7097C27.7527 25.2482 26.7635 22.9135 25.0359 21.1859C23.3082 19.4583 20.9736 18.4691 18.512 18.4219L7.52733 18.2037C1.35123 17.9586 -2.00129 25.9436 2.55445 30.0565C4.96917 32.3431 8.10182 33.0288 10.5951 35.6152C13.2732 38.2002 14.1505 41.2331 16.3028 43.8049C20.4636 48.1638 28.2698 44.7607 28.0123 38.6887L27.7999 27.7097Z" fill="#FF6B55"/>
<path d="M45.3565 29.4421C43.6033 26.815 39.4531 27.617 36.885 29.3136C28.9769 34.6073 34.0136 42.1609 41.8899 37.2315C45.236 35.0894 46.7603 31.6616 45.3565 29.4421Z" fill="#FF6B55"/>
<path d="M32.5104 23.7252C34.689 25.9038 38.9774 25.1585 42.0653 22.0707C49.2815 14.4188 41.8167 6.95408 34.1706 14.176C31.0827 17.2638 30.3375 21.5523 32.5104 23.7252Z" fill="#FF6B55"/>
<path d="M16.9067 9.33835C18.6091 6.77602 19.4053 2.62009 16.7783 0.866939C11.6762 -2.14935 4.60469 8.36216 8.54881 12.3529C10.872 14.5246 14.5606 12.9115 16.9067 9.33835Z" fill="#FF6B55"/>
<path d="M22.4966 13.7127C24.6695 15.8856 28.9579 15.1403 32.0457 12.0525C39.2677 4.40634 31.8029 -3.05838 24.151 4.15782C21.0632 7.24563 20.3179 11.5341 22.4966 13.7127Z" fill="#FF6B55"/>
</g>
</g>
</svg>
