<svg width="14" height="14" viewBox="0 0 14 14" fill="none" xmlns="http://www.w3.org/2000/svg">
<path d="M8.95158 7.36402C8.42324 6.86369 7.72326 6.58484 6.99561 6.58484C6.26796 6.58484 5.56797 6.86369 5.03964 7.36402L2.6804 9.59528C1.32813 10.8244 2.3037 13.174 4.12927 13.0822C5.11933 13.0556 5.92345 12.5485 6.99319 12.5679C8.10157 12.5485 8.92501 12.9953 9.9199 13.0822C11.7141 13.1233 12.6414 10.8002 11.3084 9.59528L8.95158 7.36402Z" fill="#F46F30"/>
<path d="M13.0128 4.0847C12.0903 3.9036 11.3852 4.92988 11.2017 5.81368C10.6511 8.54963 13.3025 9.07122 13.9231 6.41738C14.1767 5.28002 13.7758 4.25374 13.0128 4.0847Z" fill="#F46F30"/>
<path d="M9.10473 5.56254C10.0223 5.56254 10.7685 4.51936 10.7685 3.23953C10.6767 0.158275 7.53271 0.158275 7.44336 3.23953C7.44336 4.51936 8.18953 5.56254 9.10473 5.56254Z" fill="#F46F30"/>
<path d="M2.78951 5.81368C2.6084 4.92988 1.90087 3.9036 0.978429 4.0847C-0.731233 4.51695 -0.00679992 8.16085 1.66423 8.17051C2.61082 8.13911 3.04789 7.04039 2.78951 5.81368Z" fill="#F46F30"/>
<path d="M4.88839 5.56254C5.80359 5.56254 6.54976 4.51936 6.54976 3.23953C6.46041 0.158275 3.31637 0.158275 3.22461 3.23953C3.22461 4.51936 3.97078 5.56254 4.88839 5.56254Z" fill="#F46F30"/>
</svg>
