<svg width="35" height="35" viewBox="0 0 35 35" fill="none" xmlns="http://www.w3.org/2000/svg">
<g clip-path="url(#clip0_1621_809)">
<path d="M16.5892 22.3802C17.84 21.0593 18.5371 19.3094 18.5371 17.4902C18.5371 15.6711 17.84 13.9212 16.5892 12.6003L11.011 6.70222C7.93821 3.32154 2.06427 5.76046 2.29367 10.3244C2.36008 12.7995 3.62784 14.8098 3.57954 17.4842C3.62784 20.2552 2.511 22.3138 2.29367 24.801C2.19105 29.2864 7.99858 31.6046 11.011 28.2722L16.5892 22.3802Z" fill="#F46F30"/>
<path d="M24.7874 32.5341C25.2402 30.228 22.6745 28.4652 20.4649 28.0064C13.6251 26.63 12.3211 33.2586 18.9557 34.8101C21.7991 35.4439 24.3648 34.4418 24.7874 32.5341Z" fill="#F46F30"/>
<path d="M21.0928 22.7603C21.0928 25.0544 23.7008 26.9198 26.9004 26.9198C34.6035 26.6904 34.6035 18.8303 26.9004 18.6069C23.7008 18.6069 21.0928 20.4723 21.0928 22.7603Z" fill="#F46F30"/>
<path d="M20.4649 6.97378C22.6745 6.52101 25.2402 4.75218 24.7874 2.44607C23.7068 -1.82808 14.597 -0.0170002 14.5729 4.16056C14.6514 6.52704 17.3982 7.61973 20.4649 6.97378Z" fill="#F46F30"/>
<path d="M21.0928 12.22C21.0928 14.508 23.7008 16.3734 26.9004 16.3734C34.6035 16.15 34.6035 8.28995 26.9004 8.06055C23.7008 8.06055 21.0928 9.92596 21.0928 12.22Z" fill="#F46F30"/>
</g>
<defs>
<clipPath id="clip0_1621_809">
<rect width="35" height="35" fill="white" transform="translate(35) rotate(90)"/>
</clipPath>
</defs>
</svg>
