<svg width="35" height="35" viewBox="0 0 35 35" fill="none" xmlns="http://www.w3.org/2000/svg">
<g clip-path="url(#clip0_1621_817)">
<path d="M18.4108 12.6198C17.16 13.9407 16.4629 15.6906 16.4629 17.5098C16.4629 19.3289 17.16 21.0788 18.4108 22.3997L23.989 28.2978C27.0618 31.6785 32.9357 29.2395 32.7063 24.6756C32.6399 22.2005 31.3722 20.1902 31.4205 17.5158C31.3722 14.7448 32.489 12.6862 32.7063 10.199C32.809 5.71358 27.0014 3.39539 23.989 6.72778L18.4108 12.6198Z" fill="#F46F30"/>
<path d="M10.2126 2.46587C9.75984 4.77199 12.3255 6.53477 14.5351 6.99358C21.3749 8.37 22.6789 1.74144 16.0443 0.189947C13.2009 -0.443931 10.6352 0.558201 10.2126 2.46587Z" fill="#F46F30"/>
<path d="M13.9072 12.2396C13.9072 9.94561 11.2992 8.0802 8.09962 8.0802C0.396481 8.3096 0.396481 16.1697 8.09962 16.3931C11.2992 16.3931 13.9072 14.5277 13.9072 12.2396Z" fill="#F46F30"/>
<path d="M14.5351 28.0262C12.3255 28.479 9.75984 30.2478 10.2126 32.5539C11.2932 36.8281 20.403 35.017 20.4271 30.8394C20.3486 28.473 17.6018 27.3803 14.5351 28.0262Z" fill="#F46F30"/>
<path d="M13.9072 22.78C13.9072 20.492 11.2992 18.6266 8.09962 18.6266C0.396481 18.85 0.396481 26.71 8.09962 26.9395C11.2992 26.9395 13.9072 25.074 13.9072 22.78Z" fill="#F46F30"/>
</g>
<defs>
<clipPath id="clip0_1621_817">
<rect width="35" height="35" fill="white" transform="translate(0 35) rotate(-90)"/>
</clipPath>
</defs>
</svg>
