<svg width="33" height="35" viewBox="0 0 33 35" fill="none" xmlns="http://www.w3.org/2000/svg">
<path d="M7.0625 17.5L23.9375 17.5" stroke="#F46F30" stroke-width="1.3" stroke-linecap="round"/>
<path d="M18.3125 22L23.9375 17.5L18.3125 13" stroke="#F46F30" stroke-width="1.3" stroke-linecap="round"/>
<path fill-rule="evenodd" clip-rule="evenodd" d="M2.0002 26.9892C4.9863 31.2297 9.91973 34 15.5002 34C24.6129 34 32.0002 26.6127 32.0002 17.5C32.0002 8.3873 24.6129 1 15.5002 1C9.91973 1 4.9863 3.77035 2.0002 8.01076V8H0.800782C3.91865 3.18562 9.3374 0 15.5002 0C25.1652 0 33.0002 7.83502 33.0002 17.5C33.0002 27.165 25.1652 35 15.5002 35C9.3374 35 3.91865 31.8144 0.800781 27H2.0002V26.9892Z" fill="#F46F30"/>
</svg>
