<svg width="40" height="40" viewBox="0 0 40 40" fill="none" xmlns="http://www.w3.org/2000/svg">
<path d="M34.1211 5.64844C31.6527 5.64844 29.6445 3.64023 29.6445 1.17188C29.6445 0.524687 29.1198 0 28.4727 0H11.5274C10.8802 0 10.3555 0.524687 10.3555 1.17188C10.3555 3.64023 8.34734 5.64844 5.87891 5.64844C5.23172 5.64844 4.70703 6.17313 4.70703 6.82031V24.707C4.70703 28.3384 7.24562 32.0173 12.2523 35.6414C15.8393 38.2378 19.3725 39.8312 19.5211 39.8977C19.6734 39.9659 19.8367 40 20 40C20.1633 40 20.3266 39.9659 20.4789 39.8977C20.6275 39.8312 24.1607 38.2378 27.7477 35.6414C32.7544 32.0173 35.293 28.3384 35.293 24.707V6.82031C35.293 6.17313 34.7683 5.64844 34.1211 5.64844ZM28.3492 16.6379L25.0248 19.8784L25.7987 24.3905C25.8179 24.4746 25.8281 24.5623 25.8281 24.6523C25.8281 25.2986 25.3049 25.8227 24.659 25.8242C24.6575 25.8242 24.6561 25.8242 24.6545 25.8242C24.4679 25.8242 24.2808 25.7798 24.1093 25.6896L20 23.5291L15.8905 25.6895C15.4958 25.897 15.0173 25.8625 14.6564 25.6002C14.2955 25.3381 14.1148 24.8937 14.1902 24.4541L14.9752 19.8784L11.6507 16.6378C11.3313 16.3265 11.2163 15.8608 11.3542 15.4365C11.492 15.0123 11.8588 14.703 12.3002 14.639L16.8945 13.9714L18.9491 9.80828C19.1464 9.40836 19.5538 9.15508 19.9999 9.15508C20.446 9.15508 20.8534 9.40828 21.0508 9.80828L23.1053 13.9714L27.6998 14.639C28.1412 14.703 28.5079 15.0123 28.6457 15.4365C28.7837 15.8609 28.6687 16.3266 28.3492 16.6379Z" fill="white"/>
</svg>
