<svg width="38" height="38" viewBox="0 0 38 38" fill="none" xmlns="http://www.w3.org/2000/svg">
<path d="M19 0C11.6336 0 5.64062 5.99302 5.64062 13.3594C5.64062 15.8482 6.33004 18.2771 7.63481 20.3843L18.2396 37.4737C18.4427 37.8011 18.8006 38 19.1855 38C19.1884 38 19.1913 38 19.1943 38C19.5825 37.997 19.9412 37.7919 20.1406 37.4588L30.475 20.2038C31.7078 18.1411 32.3594 15.7744 32.3594 13.3594C32.3594 5.99302 26.3664 0 19 0ZM28.5643 19.0607L19.1686 34.7482L9.52724 19.2112C8.4412 17.4573 7.85234 15.4338 7.85234 13.3594C7.85234 7.22074 12.8614 2.21172 19 2.21172C25.1386 2.21172 30.1402 7.22074 30.1402 13.3594C30.1402 15.3723 29.5902 17.344 28.5643 19.0607Z" fill="white"/>
<path d="M19 6.67969C15.3168 6.67969 12.3203 9.6762 12.3203 13.3594C12.3203 17.019 15.2681 20.0391 19 20.0391C22.778 20.0391 25.6797 16.9788 25.6797 13.3594C25.6797 9.6762 22.6832 6.67969 19 6.67969ZM19 17.8273C16.5317 17.8273 14.532 15.821 14.532 13.3594C14.532 10.9039 16.5445 8.89141 19 8.89141C21.4555 8.89141 23.4605 10.9039 23.4605 13.3594C23.4605 15.7851 21.5074 17.8273 19 17.8273Z" fill="white"/>
</svg>
