<svg width="37" height="22" viewBox="0 0 37 22" fill="none" xmlns="http://www.w3.org/2000/svg">
<path fill-rule="evenodd" clip-rule="evenodd" d="M18.7952 19.1528C19.9258 18.1189 20.8284 16.8596 21.445 15.4556C22.0616 14.0516 22.3787 12.5339 22.376 10.9999C22.3788 9.46586 22.0617 7.94817 21.4451 6.54417C20.8284 5.14016 19.9258 3.88084 18.7952 2.84698C16.8619 1.078 14.2972 0 11.4828 0C5.46697 0 0.589844 4.92476 0.589844 10.9999C0.589844 17.0748 5.46697 21.9998 11.4828 21.9998C14.2972 21.9998 16.8621 20.9218 18.7952 19.1528Z" fill="#3A9BD9"/>
<path fill-rule="evenodd" clip-rule="evenodd" d="M26.1071 0C23.2928 0 20.7277 1.078 18.7947 2.84698C18.4005 3.20803 18.033 3.59725 17.695 4.0116H19.8937C20.1956 4.38143 20.4732 4.77052 20.7248 5.17641H16.8645C16.6321 5.55176 16.4224 5.94072 16.2365 6.34123H21.3518C21.5279 6.7203 21.6822 7.10914 21.814 7.50585H15.7752C15.6486 7.88795 15.543 8.27675 15.459 8.67047H22.1305C22.2938 9.43613 22.376 10.2169 22.3757 10.9999C22.3757 12.2211 22.178 13.3961 21.8142 14.4938H15.7752C15.9066 14.8906 16.0606 15.2795 16.2365 15.6586H21.3518C21.1662 16.0591 20.9568 16.4481 20.7246 16.8234H16.8645C17.1158 17.2293 17.3932 17.6184 17.6948 17.9882H19.8937C19.5561 18.4027 19.1888 18.792 18.7947 19.153C20.7277 20.922 23.2928 22 26.1071 22C32.1228 22 37.0001 17.075 37.0001 11.0001C37.0001 4.92476 32.1228 0 26.1071 0Z" fill="#CC2131"/>
<path fill-rule="evenodd" clip-rule="evenodd" d="M35.5527 17.1316C35.5527 16.9353 35.7102 16.7761 35.9048 16.7761C36.099 16.7761 36.2565 16.9353 36.2565 17.1316C36.2565 17.3274 36.099 17.4866 35.9048 17.4866C35.8112 17.4863 35.7215 17.4487 35.6554 17.3821C35.5894 17.3156 35.5525 17.2254 35.5527 17.1316ZM35.9046 17.4012C36.0521 17.4012 36.1718 17.2808 36.1718 17.1314C36.1718 16.9819 36.0521 16.8612 35.9046 16.8612C35.7567 16.8612 35.637 16.9819 35.637 17.1314C35.637 17.2808 35.7569 17.4012 35.9046 17.4012ZM35.8571 17.2872H35.7849V16.9747H35.9157C35.9428 16.9747 35.9704 16.9755 35.9943 16.9907C36.0068 16.9995 36.0168 17.0112 36.0237 17.0248C36.0306 17.0384 36.0341 17.0535 36.0338 17.0687C36.0338 17.1039 36.0134 17.137 35.9803 17.1495L36.0373 17.287H35.9572L35.9101 17.1635H35.8573V17.2872V17.1105H35.8972C35.9116 17.1105 35.928 17.1113 35.941 17.1041C35.9468 17.1001 35.9515 17.0947 35.9547 17.0884C35.9579 17.0822 35.9595 17.0752 35.9593 17.0682C35.9591 17.0619 35.9573 17.0557 35.9543 17.0503C35.9513 17.0448 35.947 17.0401 35.9418 17.0366C35.9293 17.0289 35.9091 17.0309 35.8955 17.0309H35.8575V17.2872H35.8571Z" fill="#CC2131"/>
<path fill-rule="evenodd" clip-rule="evenodd" d="M33.2493 13.3842C33.2493 13.188 33.4068 13.0288 33.601 13.0288C33.7952 13.0288 33.9527 13.188 33.9527 13.3842C33.9527 13.5805 33.7952 13.7393 33.601 13.7393C33.4068 13.7393 33.2493 13.5803 33.2493 13.3842ZM33.6008 13.6538C33.7483 13.6538 33.868 13.5331 33.868 13.384C33.868 13.2346 33.7483 13.1138 33.6008 13.1138C33.4529 13.1138 33.3336 13.2346 33.3336 13.384C33.3336 13.5331 33.4531 13.6538 33.6008 13.6538ZM33.5533 13.5399H33.4811V13.2278H33.6119C33.639 13.2278 33.667 13.2282 33.6905 13.2438C33.703 13.2525 33.7131 13.2641 33.7199 13.2776C33.7268 13.2912 33.7303 13.3062 33.73 13.3214C33.73 13.3569 33.7098 13.3897 33.6765 13.4022L33.7335 13.5397H33.6538L33.6063 13.4162H33.5535V13.5399V13.3632H33.5934C33.6082 13.3632 33.6246 13.3643 33.6372 13.3571C33.6429 13.3531 33.6476 13.3477 33.6508 13.3414C33.654 13.3352 33.6556 13.3282 33.6555 13.3212C33.6554 13.3149 33.6537 13.3086 33.6507 13.3031C33.6476 13.2975 33.6433 13.2927 33.638 13.2892C33.6255 13.282 33.6053 13.2836 33.5921 13.2836H33.5537V13.5399H33.5533ZM10.1248 13.7393H8.76911L9.57483 9.45221L7.71973 13.7393H6.48352L6.25757 9.47679L5.44932 13.7393H4.21875L5.27027 8.16255H7.38577L7.49767 11.6151L8.98923 8.16255H11.1937L10.1248 13.7393ZM25.276 13.6837C24.9051 13.7865 24.6151 13.8308 24.3018 13.8308C23.6082 13.8308 23.2294 13.4794 23.2294 12.8349C23.2294 12.7073 23.2434 12.5715 23.2693 12.4279L23.3518 11.9845L23.4153 11.6256L24.0437 8.16235H25.392L25.1966 9.20388H25.8885L25.7026 10.3065H25.0078L24.6505 12.1987C24.6373 12.2605 24.6295 12.3234 24.6274 12.3866C24.6274 12.6209 24.7677 12.7227 25.09 12.7227C25.2443 12.7227 25.364 12.7087 25.4557 12.6804L25.276 13.6837ZM29.2357 9.24114C29.1221 9.19588 29.0954 9.19588 29.0822 9.19217C29.0104 9.17618 28.972 9.16681 28.9654 9.16564C28.9204 9.15775 28.8747 9.15396 28.829 9.15433C28.3839 9.15433 28.063 9.35448 27.648 9.89075L27.7677 9.20349H26.5399L25.7135 13.7391H27.0702C27.5556 10.9652 27.7634 10.4795 28.4142 10.4795C28.4633 10.4795 28.5199 10.4834 28.5857 10.491L28.7441 10.5236L29.2357 9.24114ZM19.9017 10.6367C19.9017 11.2097 20.2214 11.6043 20.9462 11.9008C21.5016 12.1287 21.5874 12.1954 21.5874 12.4014C21.5874 12.6837 21.3426 12.8111 20.8002 12.8111C20.3907 12.8111 20.0103 12.7555 19.571 12.6316L19.3828 13.6778L19.4435 13.6882L19.6948 13.7346C19.7757 13.7486 19.895 13.7621 20.0533 13.7742C20.3794 13.7997 20.6319 13.8118 20.8097 13.8118C22.2569 13.8118 22.9254 13.3329 22.9254 12.2984C22.9254 11.6759 22.646 11.3109 21.9588 11.0361C21.3837 10.8065 21.3171 10.7555 21.3171 10.5439C21.3171 10.2994 21.5452 10.1738 21.9884 10.1738C22.2579 10.1738 22.6253 10.1994 22.9739 10.2419L23.1693 9.19198C22.8143 9.14321 22.2756 9.10322 21.9625 9.10322C20.4281 9.10341 19.897 9.80023 19.9017 10.6367ZM14.5321 13.7393H13.4055L13.4318 13.2691C13.0887 13.6413 12.6313 13.8177 12.0097 13.8177C11.275 13.8177 10.7708 13.3124 10.7708 12.5789C10.7708 11.474 11.6467 10.8301 13.1523 10.8301C13.3066 10.8301 13.5026 10.8423 13.7046 10.865C13.7467 10.7159 13.7581 10.6516 13.7581 10.5704C13.7581 10.2702 13.5217 10.1578 12.8886 10.1578C12.5015 10.1578 12.064 10.207 11.762 10.2842L11.5741 10.3324L11.4525 10.3617L11.6405 9.34199C12.3164 9.1672 12.7625 9.10107 13.2636 9.10107C14.4288 9.10107 15.0446 9.56185 15.0446 10.4315C15.0446 10.6553 15.0241 10.8252 14.9344 11.33L14.6511 12.9391L14.6034 13.2278L14.5687 13.4584L14.5456 13.6162L14.5321 13.7393ZM13.5431 11.7186C13.4426 11.7061 13.3414 11.6998 13.2401 11.6999C12.4717 11.6999 12.0825 11.9319 12.0825 12.3899C12.0825 12.6722 12.2724 12.8524 12.5688 12.8524C13.1216 12.8526 13.5197 12.3893 13.5431 11.7186ZM18.9797 13.6413C18.527 13.7645 18.0597 13.8264 17.5906 13.8253C16.0749 13.8241 15.2849 13.1273 15.2849 11.7934C15.2849 10.2364 16.2899 9.09015 17.6542 9.09015C18.7703 9.09015 19.483 9.73215 19.483 10.7388C19.483 11.0729 19.4344 11.3987 19.3166 11.8585H16.621C16.6127 11.9055 16.6084 11.9532 16.6079 12.0009C16.6079 12.5267 17.0098 12.7949 17.7973 12.7949C18.2815 12.7949 18.7192 12.7061 19.2051 12.5079L18.9797 13.6413ZM18.2577 10.9426C18.2651 10.8482 18.269 10.7709 18.269 10.7113C18.269 10.3429 18.0314 10.1268 17.6277 10.1268C17.1965 10.1268 16.888 10.4167 16.7629 10.9399L18.2577 10.9426ZM33.45 11.6829C33.247 13.1917 32.2037 13.8608 30.8166 13.8608C29.2828 13.8608 28.6634 12.9213 28.6634 11.7701C28.6634 10.1627 29.7125 9.07357 31.3329 9.07357C32.7394 9.07357 33.4862 9.96917 33.4862 11.1205C33.4862 11.4007 33.4858 11.4192 33.45 11.6829ZM32.0538 11.1026C32.0538 10.6281 31.8631 10.1802 31.3072 10.1802C30.6154 10.1802 30.1866 11.006 30.1866 11.735C30.1866 12.3499 30.4805 12.7631 30.9651 12.7543C31.259 12.7543 31.8857 12.3501 32.0096 11.6441C32.0386 11.4795 32.0538 11.2988 32.0538 11.1026Z" fill="white"/>
</svg>
