<svg width="35" height="35" viewBox="0 0 35 35" fill="none" xmlns="http://www.w3.org/2000/svg">
<g opacity="0.8" clip-path="url(#clip0_1621_790)">
<path d="M22.3799 18.4096C21.0591 17.1588 19.3091 16.4617 17.49 16.4617C15.6709 16.4617 13.9209 17.1588 12.6001 18.4096L6.70198 23.9878C3.32129 27.0606 5.76022 32.9345 10.3241 32.7051C12.7993 32.6387 14.8096 31.3709 17.484 31.4192C20.2549 31.3709 22.3135 32.4878 24.8007 32.7051C29.2862 32.8077 31.6044 27.0002 28.272 23.9878L22.3799 18.4096Z" fill="white" fill-opacity="0.5"/>
<path d="M32.5349 10.2116C30.2287 9.75887 28.466 12.3246 28.0072 14.5341C26.6307 21.3739 33.2593 22.6779 34.8108 16.0433C35.4447 13.1999 34.4425 10.6342 32.5349 10.2116Z" fill="white" fill-opacity="0.5"/>
<path d="M22.7608 13.9062C25.0549 13.9062 26.9203 11.2982 26.9203 8.09864C26.6909 0.395504 18.8308 0.395504 18.6074 8.09864C18.6074 11.2982 20.4728 13.9062 22.7608 13.9062Z" fill="white" fill-opacity="0.5"/>
<path d="M6.97378 14.5341C6.52101 12.3246 4.75218 9.75887 2.44607 10.2116C-1.82808 11.2923 -0.0169998 20.402 4.16056 20.4261C6.52704 20.3477 7.61973 17.6009 6.97378 14.5341Z" fill="white" fill-opacity="0.5"/>
<path d="M12.22 13.9062C14.508 13.9062 16.3734 11.2982 16.3734 8.09864C16.15 0.395504 8.28995 0.395504 8.06055 8.09864C8.06055 11.2982 9.92596 13.9062 12.22 13.9062Z" fill="white" fill-opacity="0.5"/>
</g>
<defs>
<clipPath id="clip0_1621_790">
<rect width="35" height="35" fill="white"/>
</clipPath>
</defs>
</svg>
