<svg width="38" height="22" viewBox="0 0 38 22" fill="none" xmlns="http://www.w3.org/2000/svg">
<path fill-rule="evenodd" clip-rule="evenodd" d="M18.8074 19.1485C20.7291 20.9234 23.3098 22 26.1169 22C32.1455 22 37.0249 17.0713 37.0249 11.0093C37.0249 4.92892 32.1455 0 26.1169 0C23.3098 0 20.7291 1.07637 18.8074 2.85151C16.6032 4.87202 15.209 7.78021 15.209 11.0093C15.2092 14.2385 16.6032 17.1469 18.8074 19.1485Z" fill="#E9B040"/>
<path fill-rule="evenodd" clip-rule="evenodd" d="M35.5801 17.1279C35.5801 16.939 35.7309 16.7881 35.9191 16.7881C36.1262 16.7881 36.2767 16.9392 36.2767 17.1279C36.2767 17.3359 36.126 17.4869 35.9191 17.4869C35.7309 17.4869 35.5801 17.3359 35.5801 17.1279ZM35.9191 17.4115C36.0699 17.4115 36.2014 17.279 36.2014 17.1281C36.2014 16.9772 36.0697 16.8639 35.9191 16.8639C35.787 16.8639 35.6555 16.9772 35.6555 17.1281C35.6555 17.279 35.7872 17.4115 35.9191 17.4115ZM35.8814 17.2982H35.806V16.977H35.9377C35.9568 16.977 35.9945 16.977 36.0131 16.9961C36.0508 17.0148 36.0508 17.0339 36.0508 17.0717C36.0508 17.1095 36.0322 17.1472 35.9945 17.1472L36.0699 17.2984H35.9754L35.9377 17.1659H35.8814V17.2982V17.1092H35.9568C35.9754 17.1092 35.9754 17.0901 35.9754 17.0715C35.9754 17.0523 35.9754 17.0523 35.9568 17.0337H35.8814V17.2982Z" fill="#E9B040"/>
<path fill-rule="evenodd" clip-rule="evenodd" d="M22.3336 9.83872C22.2959 9.44222 22.2205 9.06462 22.1451 8.66789H15.4759C15.5513 8.27139 15.6644 7.89378 15.7773 7.51595H21.8249C21.6937 7.11841 21.5428 6.72765 21.3728 6.34512H16.2485C16.4369 5.94512 16.6444 5.5544 16.8702 5.17429H20.7325C20.484 4.77098 20.207 4.38602 19.9037 4.02235H17.6992C18.0402 3.60494 18.4117 3.21358 18.8107 2.85151C16.8704 1.09527 14.3081 0 11.4822 0C5.47243 0 0.574219 4.92892 0.574219 11.0093C0.574219 17.0713 5.47243 22 11.4822 22C14.3081 22 16.8702 20.9234 18.8107 19.1485C19.2037 18.7928 19.569 18.4076 19.9037 17.9963H17.6992C17.3977 17.6187 17.134 17.2411 16.8702 16.8255H20.7325C20.9753 16.4521 21.1895 16.0607 21.373 15.6547H16.2485C16.0788 15.277 15.9094 14.8994 15.7773 14.5025H21.8249C21.9566 14.1249 22.0511 13.7286 22.1449 13.3317C22.2203 12.9541 22.2957 12.5578 22.3334 12.1608C22.3715 11.778 22.3905 11.3934 22.3901 11.0087C22.3901 10.6128 22.3713 10.2163 22.3336 9.83872Z" fill="#CC2131"/>
<path fill-rule="evenodd" clip-rule="evenodd" d="M35.5801 13.5589C35.5801 13.3513 35.7309 13.2004 35.9191 13.2004C36.1262 13.2004 36.2767 13.3516 36.2767 13.5589C36.2767 13.7479 36.126 13.9179 35.9191 13.9179C35.7309 13.9179 35.5801 13.7476 35.5801 13.5589ZM35.9191 13.8232C36.0699 13.8232 36.2014 13.7098 36.2014 13.5589C36.2014 13.408 36.0697 13.2947 35.9191 13.2947C35.787 13.2947 35.6555 13.408 35.6555 13.5589C35.6555 13.7098 35.7872 13.8232 35.9191 13.8232ZM35.8814 13.7098H35.806V13.4078H36.0131C36.0508 13.4269 36.0508 13.4647 36.0508 13.5025C36.0508 13.5212 36.0322 13.5589 35.9945 13.578L36.0699 13.7101H35.9754L35.9377 13.5967H35.8814V13.7098V13.54H35.9191C35.9377 13.54 35.9568 13.54 35.9568 13.5209C35.9754 13.5209 35.9754 13.5023 35.9754 13.4831C35.9754 13.4831 35.9754 13.4645 35.9568 13.4645C35.9568 13.4454 35.9377 13.4645 35.9191 13.4645H35.8814V13.7098Z" fill="white"/>
<path fill-rule="evenodd" clip-rule="evenodd" d="M15.0976 14.182C14.7398 14.2762 14.4759 14.3331 14.2123 14.3331C13.6471 14.3331 13.3079 13.9742 13.3079 13.3321C13.3079 13.2001 13.3267 13.0678 13.3455 12.9167L13.4209 12.4826L13.4775 12.1237L13.9861 9.0268H15.1165L14.9846 9.70668H15.7005L15.5309 10.8397H14.8149L14.5136 12.6902C14.4948 12.7849 14.4948 12.8413 14.4948 12.8791C14.4948 13.1247 14.6078 13.219 14.8903 13.219C15.0223 13.219 15.1351 13.2003 15.2482 13.1812L15.0976 14.182ZM18.7526 14.1442C18.3382 14.2575 17.9615 14.314 17.5469 14.314C16.2657 14.314 15.5309 13.6341 15.5309 12.2937C15.5309 10.7262 16.3976 9.5931 17.6032 9.5931C18.5639 9.5931 19.1857 10.2352 19.1857 11.2358C19.1857 11.5761 19.148 11.897 19.054 12.3502H16.699C16.6801 12.4257 16.6801 12.4635 16.6801 12.5013C16.6801 13.03 17.038 13.2943 17.7163 13.2943C18.1495 13.2943 18.5262 13.2001 18.9409 13.0114L18.7526 14.1442ZM18.0555 11.4438V11.2171C18.0555 10.8395 17.8482 10.6317 17.4903 10.6317C17.1134 10.6317 16.8497 10.9148 16.7367 11.4436H18.0555V11.4438ZM6.05466 14.2384H4.88659L5.56486 9.95205L4.03892 14.2384H3.22895L3.13471 9.97094L2.41875 14.2384H1.26953L2.19259 8.66786H3.907L3.94469 12.105L5.09391 8.66786H6.97794L6.05466 14.2384ZM8.89966 12.2181C8.78658 12.199 8.74889 12.199 8.6735 12.199C7.99523 12.199 7.65621 12.4633 7.65621 12.8789C7.65621 13.1623 7.82583 13.3512 8.08947 13.3512C8.65465 13.3512 8.88059 12.8789 8.89966 12.2181ZM9.84157 14.2384H8.82427L8.84312 13.7666C8.57926 14.1251 8.22139 14.314 7.59967 14.314C7.03448 14.314 6.54468 13.8044 6.54468 13.0678C6.54468 12.8602 6.58238 12.6715 6.63892 12.4826C6.82716 11.7836 7.52428 11.3496 8.59811 11.3305C8.73004 11.3305 8.93713 11.3305 9.1256 11.3496C9.16308 11.1984 9.16308 11.1415 9.16308 11.0473C9.16308 10.745 8.91829 10.6506 8.37195 10.6506C8.03292 10.6506 7.65599 10.7073 7.39235 10.8017L7.22273 10.8395L7.14734 10.8582L7.31696 9.83847C7.8633 9.66845 8.25887 9.5931 8.69235 9.5931C9.70964 9.5931 10.256 10.0652 10.256 10.9337C10.256 11.1604 10.2748 11.3305 10.1994 11.8214L9.9358 13.4454L9.89811 13.7288L9.87926 13.9555L9.86041 14.1066L9.84157 14.2384ZM24.4422 9.74424C24.7812 9.74424 25.0828 9.83869 25.4972 10.0463L25.7043 8.83767C25.5912 8.78099 25.5535 8.78099 25.4029 8.72432L24.9322 8.59207C24.7814 8.55429 24.5932 8.5354 24.3856 8.5354C23.8014 8.5354 23.4624 8.55429 23.1047 8.7621C22.9162 8.89434 22.6712 9.06436 22.4074 9.36641L22.2566 9.32862L21.0508 10.1783L21.1076 9.70623H19.8639L19.1296 14.2382H20.3167L20.7497 11.8025C20.7497 11.8025 20.9196 11.4623 20.9947 11.3494C21.2209 11.066 21.4092 11.066 21.6539 11.066H21.7484C21.7089 11.3538 21.6899 11.644 21.6916 11.9345C21.6916 13.4074 22.5205 14.3329 23.8016 14.3329C24.122 14.3329 24.4049 14.2951 24.838 14.1818L25.0455 12.8978C24.6688 13.1054 24.3295 13.1998 24.0468 13.1998C23.35 13.1998 22.9351 12.6711 22.9351 11.8403C22.9347 10.6128 23.5566 9.74424 24.4422 9.74424ZM34.4455 8.66786L34.1821 10.2541C33.8994 9.8198 33.5601 9.612 33.108 9.612C32.4861 9.612 31.9023 9.97071 31.5442 10.6506V10.6319L30.7907 10.1785L30.8661 9.70645H29.6038L28.8878 14.2384H30.0559L30.4517 11.8028C30.4517 11.8028 30.753 11.4625 30.8284 11.3496C31.0169 11.1229 31.2051 11.0849 31.3559 11.0662C31.2242 11.4438 31.1488 11.897 31.1488 12.4071C31.1488 13.5401 31.7326 14.2953 32.5991 14.2953C33.0326 14.2953 33.3717 14.1442 33.6918 13.7853L33.6355 14.2384H34.7473L35.6515 8.66786H34.4455ZM32.9952 13.1623C32.5994 13.1623 32.3923 12.8602 32.3923 12.2746C32.3923 11.3869 32.769 10.745 33.3151 10.745C33.7295 10.745 33.9371 11.0662 33.9371 11.6327C33.9371 12.5391 33.5603 13.1623 32.9952 13.1623ZM27.5508 12.2181C27.4377 12.199 27.4 12.199 27.3247 12.199C26.646 12.199 26.3069 12.4633 26.3069 12.8789C26.3069 13.1623 26.4768 13.3512 26.7404 13.3512C27.3056 13.3512 27.5318 12.8789 27.5508 12.2181ZM28.4927 14.2384H27.4564L27.4941 13.7666C27.2304 14.1251 26.8721 14.314 26.2508 14.314C25.6666 14.314 25.1581 13.823 25.1581 13.0678C25.1581 11.9917 25.9679 11.3307 27.2491 11.3307C27.3812 11.3307 27.5881 11.3307 27.7579 11.3498C27.7956 11.1987 27.8147 11.1418 27.8147 11.0475C27.8147 10.7453 27.5697 10.6508 27.0045 10.6508C26.6841 10.6508 26.2885 10.7075 26.0249 10.8019L25.8741 10.8397L25.7987 10.8584L25.9681 9.8387C26.5147 9.66867 26.9105 9.59333 27.3435 9.59333C28.3608 9.59333 28.8883 10.0654 28.8883 10.934C28.8883 11.1607 28.926 11.3307 28.832 11.8216L28.587 13.4457L28.5493 13.729L28.5116 13.9557L28.493 14.1069V14.2384H28.4927ZM12.3094 10.6695C12.5356 10.6695 12.8557 10.6884 13.195 10.745L13.3646 9.68756C13.0254 9.64978 12.5733 9.5931 12.3094 9.5931C10.9908 9.5931 10.5575 10.3108 10.5575 11.1415C10.5575 11.6894 10.8023 12.0857 11.4429 12.3877C11.9138 12.6144 11.9892 12.652 11.9892 12.86C11.9892 13.1429 11.7444 13.3132 11.2921 13.3132C10.9342 13.3132 10.595 13.2563 10.2183 13.1243L10.0864 14.1626L10.105 14.1818L10.3311 14.2195C10.4065 14.2382 10.5008 14.2573 10.6327 14.276C10.9152 14.2951 11.1602 14.3138 11.311 14.3138C12.6298 14.3138 13.1761 13.8041 13.1761 12.8031C13.1761 12.1801 12.8746 11.8025 12.2906 11.5383C11.7819 11.3113 11.7254 11.274 11.7254 11.066C11.7254 10.8584 11.9515 10.6695 12.3094 10.6695Z" fill="#1B3771"/>
<path fill-rule="evenodd" clip-rule="evenodd" d="M26.0279 8.47895L25.8204 9.68757C25.406 9.47976 25.1044 9.38552 24.7654 9.38552C23.8798 9.38552 23.2583 10.2541 23.2583 11.4816C23.2583 12.3315 23.6727 12.8411 24.37 12.8411C24.6523 12.8411 24.9915 12.7469 25.3683 12.5582L25.1612 13.823C24.7277 13.9364 24.4452 13.9933 24.1248 13.9933C22.8439 13.9933 22.0525 13.0678 22.0525 11.5763C22.0525 9.59333 23.1452 8.1958 24.7088 8.1958C24.9159 8.1958 25.1042 8.21469 25.255 8.25247L25.7261 8.36582C25.8771 8.4225 25.9148 8.44139 26.0279 8.47895ZM22.2222 9.30996H22.1091C21.7137 9.30996 21.4876 9.49887 21.1295 10.0463L21.2426 9.34752H20.1685L19.4341 13.8797H20.6213C21.0543 11.1038 21.1674 10.6317 21.7326 10.6317H21.808C21.921 10.0841 22.0716 9.68735 22.2601 9.32863L22.2222 9.30996ZM15.4024 13.823C15.0823 13.9364 14.8184 13.9742 14.5548 13.9742C13.9519 13.9742 13.6126 13.6343 13.6126 12.9736C13.6126 12.8602 13.6315 12.7093 13.6503 12.5769L13.7257 12.1237L13.7823 11.7652L14.2909 8.66787H15.459L15.3271 9.34774H15.9299L15.7792 10.4619H15.1763L14.8561 12.3504C14.8373 12.426 14.8373 12.4829 14.8373 12.5393C14.8373 12.766 14.9503 12.8605 15.2328 12.8605C15.3647 12.8605 15.4776 12.8605 15.553 12.8227L15.4024 13.823ZM10.8621 10.7828C10.8621 11.3496 11.1257 11.7459 11.7475 12.0481C12.2373 12.2748 12.3126 12.3502 12.3126 12.5391C12.3126 12.8225 12.1053 12.9545 11.6344 12.9545C11.2765 12.9545 10.9561 12.898 10.5794 12.7847L10.4098 13.823L10.4663 13.8422L10.6736 13.8799C10.7488 13.8986 10.8432 13.9177 10.9938 13.9177C11.2574 13.9555 11.4836 13.9555 11.6344 13.9555C12.8776 13.9555 13.4619 13.4832 13.4619 12.4448C13.4619 11.8214 13.2171 11.4625 12.633 11.1796C12.1244 10.9529 12.0679 10.8964 12.0679 10.6886C12.0679 10.4432 12.2752 10.3299 12.6519 10.3299C12.8781 10.3299 13.1982 10.3488 13.4998 10.3866L13.6692 9.34796C13.3679 9.29129 12.8969 9.2535 12.633 9.2535C11.3142 9.25328 10.8432 9.95205 10.8621 10.7828ZM35.0521 13.8799H33.9403L33.9971 13.4454C33.6767 13.7853 33.3374 13.9364 32.9039 13.9364C32.0374 13.9364 31.4722 13.2003 31.4722 12.0672C31.4722 10.5564 32.3578 9.27217 33.3937 9.27217C33.8649 9.27217 34.2039 9.47998 34.5246 9.89537L34.7882 8.30915H35.9563L35.0521 13.8799ZM33.3186 12.8225C33.8651 12.8225 34.2418 12.1804 34.2418 11.2927C34.2418 10.7073 34.0343 10.405 33.6199 10.405C33.0924 10.405 32.6971 11.0282 32.6971 11.9159C32.6971 12.5204 32.9042 12.8225 33.3186 12.8225ZM19.0195 13.7853C18.6049 13.9177 18.2282 13.9742 17.7949 13.9742C16.476 13.9742 15.7978 13.2756 15.7978 11.9348C15.7978 10.3863 16.6645 9.23439 17.8514 9.23439C18.831 9.23439 19.4525 9.87648 19.4525 10.8773C19.4525 11.2173 19.4148 11.5385 19.3018 12.0103H16.9661C16.9472 12.0672 16.9472 12.105 16.9472 12.1428C16.9472 12.6715 17.3053 12.9358 17.9834 12.9358C18.4166 12.9358 18.7933 12.8602 19.208 12.6524L19.0195 13.7853ZM18.3601 11.0849V10.8584C18.3601 10.4808 18.1528 10.273 17.7949 10.273C17.4182 10.273 17.1543 10.5564 17.0412 11.0849H18.3601ZM6.35945 13.8799H5.19138L5.86965 9.59311L4.34371 13.8799H3.53351L3.43928 9.63089L2.72354 13.8799H1.63086L2.55392 8.30915H4.24948L4.30602 11.765L5.43617 8.30915H7.28251L6.35945 13.8799ZM9.27962 11.8592C9.16654 11.8592 9.10999 11.8405 9.01576 11.8405C8.35634 11.8405 8.01732 12.0859 8.01732 12.5391C8.01732 12.8225 8.16809 12.9923 8.43173 12.9923C8.92153 12.9923 9.26077 12.5391 9.27962 11.8592ZM10.1461 13.8799H9.16631L9.18516 13.4076C8.88361 13.7853 8.48805 13.9555 7.94171 13.9555C7.30113 13.9555 6.86787 13.4645 6.86787 12.728C6.86787 11.6141 7.62131 10.972 8.94015 10.972C9.07208 10.972 9.2417 10.9909 9.42995 11.0095C9.46764 10.8586 9.46764 10.8019 9.46764 10.7264C9.46764 10.4243 9.26033 10.311 8.71399 10.311C8.37496 10.311 7.99802 10.3488 7.73439 10.4243L7.56477 10.481L7.45168 10.4999L7.62131 9.4802C8.20534 9.31018 8.60091 9.2535 9.03439 9.2535C10.0517 9.2535 10.598 9.70668 10.598 10.5752C10.598 10.8019 10.5792 10.972 10.5038 11.4818L10.2399 13.0872L10.2022 13.3701L10.1834 13.5968L10.1645 13.767L10.1461 13.8799ZM27.9308 11.8592C27.7986 11.8592 27.7423 11.8405 27.6671 11.8405C26.9889 11.8405 26.6494 12.0859 26.6494 12.5391C26.6494 12.8225 26.8193 12.9923 27.0829 12.9923C27.5541 12.9923 27.9117 12.5391 27.9308 11.8592ZM28.7973 13.8799H27.8177L27.8363 13.4076C27.535 13.7853 27.1394 13.9555 26.5931 13.9555C25.9525 13.9555 25.519 13.4645 25.519 12.728C25.519 11.6141 26.2725 10.972 27.5913 10.972C27.7235 10.972 27.8931 10.9909 28.0625 11.0095C28.1002 10.8586 28.1193 10.8019 28.1193 10.7264C28.1193 10.4243 27.9117 10.311 27.3658 10.311C27.0264 10.311 26.631 10.3488 26.3672 10.4243L26.2164 10.481L26.1033 10.4999L26.2727 9.4802C26.857 9.31018 27.2523 9.2535 27.6858 9.2535C28.7031 9.2535 29.2306 9.70668 29.2306 10.5752C29.2306 10.8019 29.2306 10.972 29.1365 11.4818L28.8915 13.0872L28.8538 13.3701L28.8161 13.5968L28.7975 13.767V13.8799H28.7973ZM31.9623 9.30996H31.8492C31.4538 9.30996 31.2277 9.49887 30.8696 10.0463L30.9827 9.34752H29.9086L29.1926 13.8797H30.3607C30.7942 11.1038 30.9073 10.6317 31.4725 10.6317H31.5478C31.6609 10.0841 31.8115 9.68735 32 9.32863L31.9623 9.30996Z" fill="white"/>
</svg>
