<svg width="39" height="26" viewBox="0 0 39 26" fill="none" xmlns="http://www.w3.org/2000/svg">
<rect x="0.966797" y="0.5" width="37.0685" height="24.9999" rx="3.5" fill="white" stroke="#D9D9D9"/>
<path fill-rule="evenodd" clip-rule="evenodd" d="M19.7687 18.5874C18.4728 19.701 16.7919 20.3732 14.9552 20.3732C10.8562 20.3732 7.5332 17.0251 7.5332 12.895C7.5332 8.76485 10.8562 5.41675 14.9552 5.41675C16.7919 5.41675 18.4728 6.08895 19.7687 7.20251C21.0646 6.08895 22.7455 5.41675 24.5822 5.41675C28.6813 5.41675 32.0042 8.76485 32.0042 12.895C32.0042 17.0251 28.6813 20.3732 24.5822 20.3732C22.7455 20.3732 21.0646 19.701 19.7687 18.5874Z" fill="#ED0006"/>
<path fill-rule="evenodd" clip-rule="evenodd" d="M19.7695 18.5866C21.3653 17.215 22.3771 15.174 22.3771 12.895C22.3771 10.6159 21.3653 8.57493 19.7695 7.20329C21.0656 6.08927 22.7468 5.41675 24.5839 5.41675C28.683 5.41675 32.006 8.76485 32.006 12.895C32.006 17.0251 28.683 20.3732 24.5839 20.3732C22.7468 20.3732 21.0656 19.7006 19.7695 18.5866Z" fill="#F9A000"/>
<path fill-rule="evenodd" clip-rule="evenodd" d="M19.7707 18.5873C21.3669 17.2157 22.3792 15.1744 22.3792 12.8948C22.3792 10.6153 21.3669 8.57404 19.7707 7.20239C18.1744 8.57404 17.1621 10.6153 17.1621 12.8948C17.1621 15.1744 18.1744 17.2157 19.7707 18.5873Z" fill="#FF5E00"/>
</svg>
