<svg width="40" height="40" viewBox="0 0 40 40" fill="none" xmlns="http://www.w3.org/2000/svg">
<path d="M27.8569 18.5715C28.2514 18.5715 28.5711 18.2517 28.5711 17.8573C28.5711 17.4628 28.2514 17.143 27.8569 17.143C27.4624 17.143 27.1426 17.4628 27.1426 17.8573C27.1426 18.2517 27.4624 18.5715 27.8569 18.5715Z" fill="url(#paint0_linear_1543_46310)"/>
<path d="M18.5717 7.14299C18.9662 7.14299 19.286 6.82319 19.286 6.4287C19.286 6.03421 18.9662 5.71442 18.5717 5.71442C18.1772 5.71442 17.8574 6.03421 17.8574 6.4287C17.8574 6.82319 18.1772 7.14299 18.5717 7.14299Z" fill="url(#paint1_linear_1543_46310)"/>
<path d="M22.1427 0.00012207C17.4088 0.00012207 13.5713 3.83768 13.5713 8.57155C13.5713 13.3054 17.4088 17.143 22.1427 17.143C26.8766 17.143 30.7141 13.3054 30.7141 8.57155C30.709 3.8398 26.8745 0.00523982 22.1427 0.00012207ZM16.4284 6.42869C16.4284 5.24523 17.3878 4.28584 18.5713 4.28584C19.7548 4.28584 20.7141 5.24523 20.7141 6.42869C20.7141 7.61216 19.7548 8.57155 18.5713 8.57155C17.3878 8.57155 16.4284 7.61216 16.4284 6.42869ZM22.1427 15.0001C19.7768 14.9978 17.8594 13.0804 17.857 10.7144C17.857 10.3199 18.1768 10.0001 18.5713 10.0001C18.9658 10.0001 19.2856 10.3199 19.2856 10.7144C19.2856 12.2924 20.5648 13.5716 22.1427 13.5716C23.7207 13.5716 24.9999 12.2924 24.9999 10.7144C24.9999 10.3199 25.3197 10.0001 25.7141 10.0001C26.1086 10.0001 26.4284 10.3199 26.4284 10.7144C26.4261 13.0804 24.5087 14.9978 22.1427 15.0001ZM25.7141 8.57155C24.5307 8.57155 23.5713 7.61216 23.5713 6.42869C23.5713 5.24523 24.5307 4.28584 25.7141 4.28584C26.8976 4.28584 27.857 5.24523 27.857 6.42869C27.857 6.99702 27.6312 7.54206 27.2294 7.94392C26.8275 8.34579 26.2825 8.57155 25.7141 8.57155Z" fill="url(#paint2_linear_1543_46310)"/>
<path d="M25.7143 7.14298C26.1088 7.14298 26.4286 6.82318 26.4286 6.42869C26.4286 6.03421 26.1088 5.71441 25.7143 5.71441C25.3198 5.71441 25 6.03421 25 6.42869C25 6.82318 25.3198 7.14298 25.7143 7.14298Z" fill="url(#paint3_linear_1543_46310)"/>
<path d="M35.4545 10.853C35.3566 10.3358 35.2452 9.83869 35.113 9.37298C34.4778 7.2061 33.1523 5.30597 31.338 3.96155C31.1452 3.81083 30.9537 3.66869 30.7666 3.52726C31.9358 5.47916 32.3823 7.77972 32.028 10.0273C33.2102 10.0961 34.3706 10.3758 35.4545 10.853Z" fill="url(#paint4_linear_1543_46310)"/>
<path d="M0.428571 24.0958C0.614682 24.2264 0.811586 24.3409 1.01714 24.438C1.62714 24.7494 2.46214 25.1766 2.63357 26.0487C2.73585 26.5885 2.66925 27.1467 2.44286 27.6473C2.31857 27.9116 2.19 28.1401 2.07786 28.3373C2.04286 28.3987 2.00643 28.4673 1.97071 28.5294C2.26643 28.7673 2.67071 29.0701 2.84214 29.1966C2.99752 29.3119 3.09946 29.4853 3.12464 29.6772C3.14982 29.869 3.09608 30.0629 2.97571 30.2144C2.86961 30.3524 2.77727 30.5005 2.7 30.6566C2.74929 30.6851 2.79857 30.7137 2.84857 30.7416C3.4799 31.0136 3.96204 31.5463 4.17 32.2016C4.27495 32.7056 4.25385 33.2277 4.10857 33.7216C4.07571 33.8708 4.04214 34.0201 4.02286 34.1701C3.9811 34.6021 4.03851 35.038 4.19071 35.4444C4.34914 36.1024 4.99567 36.5205 5.66072 36.3951C7.74243 35.895 9.79348 35.275 11.8036 34.538C12.5607 34.2808 13.245 34.038 13.78 33.8544C14.2614 33.6866 14.6236 33.5601 14.8143 33.4973C17.785 32.5587 18.3857 31.4866 18.37 30.7516C18.364 30.4964 18.4946 30.2574 18.7126 30.1246C18.9306 29.9918 19.2029 29.9854 19.4269 30.1078C19.6509 30.2302 19.7926 30.4628 19.7986 30.718C19.84 32.4987 18.31 33.8916 15.2493 34.8608C15.0693 34.9194 14.7179 35.0423 14.2493 35.2044L13.5786 35.4387C14.7593 36.7441 15.6214 38.3054 16.0971 40.0001L32.2986 39.9551C32.2829 39.9301 32.2671 39.9066 32.2514 39.8837C32.0453 39.5857 31.8601 39.2738 31.6971 38.9501C31.342 38.23 31.0455 37.4823 30.8107 36.7144C30.3773 35.2525 30.0766 33.7546 29.9121 32.2387C29.8194 31.4513 29.7986 30.657 29.85 29.8658C25.0029 29.0883 21.4356 24.9092 21.4286 20.0001C21.433 19.5117 21.4726 19.0243 21.5471 18.5416C17.3176 18.2963 13.7037 15.4077 12.5325 11.3362C11.3613 7.26469 12.888 2.89739 16.3407 0.442265C15.3057 0.607979 14.3043 0.799407 13.3857 0.985836C10.5036 1.55726 8.35 2.58155 6.98286 4.02727C5.85489 5.23582 4.98311 6.66011 4.42 8.21441C4.18296 8.90589 3.98855 9.61127 3.83786 10.3266L3.76643 10.6301C3.59445 11.2792 3.36027 11.9103 3.06714 12.5144C2.93214 12.8144 2.79786 13.1144 2.68143 13.4201C2.61378 13.575 2.57621 13.7412 2.57071 13.9101C2.60214 14.1416 2.875 14.3916 3.16357 14.6566C3.75338 15.0728 4.134 15.7241 4.20714 16.4423C4.19382 16.7811 4.09927 17.1119 3.93143 17.4066C3.03621 19.289 1.93931 21.0687 0.66 22.7144C0.115714 23.3794 0 23.643 0 23.7494C0.132051 23.8777 0.2755 23.9936 0.428571 24.0958ZM5.16071 10.953L5.23214 10.6437C5.36992 9.98928 5.54642 9.34362 5.76071 8.71012C6.25727 7.33546 7.02674 6.07543 8.02286 5.00584C9.11758 3.95061 10.4656 3.19515 11.9371 2.81226C12.3147 2.69707 12.7141 2.90974 12.8293 3.28727C12.9445 3.66479 12.7318 4.06422 12.3543 4.17941C11.1206 4.49167 9.98711 5.11397 9.06143 5.98727C8.19841 6.91585 7.53176 8.00912 7.10143 9.20155C6.90862 9.77932 6.74907 10.3677 6.62357 10.9637L6.55214 11.2758C6.45508 11.6515 6.07586 11.881 5.69802 11.7927C5.32019 11.7044 5.08195 11.3306 5.16143 10.9508L5.16071 10.953ZM5 12.8573C5.39449 12.8573 5.71429 13.1771 5.71429 13.5716C5.71429 13.966 5.39449 14.2858 5 14.2858C4.60551 14.2858 4.28571 13.966 4.28571 13.5716C4.28571 13.1771 4.60551 12.8573 5 12.8573Z" fill="url(#paint5_linear_1543_46310)"/>
<path d="M35.0004 18.5715C35.3949 18.5715 35.7147 18.2517 35.7147 17.8573C35.7147 17.4628 35.3949 17.143 35.0004 17.143C34.6059 17.143 34.2861 17.4628 34.2861 17.8573C34.2861 18.2517 34.6059 18.5715 35.0004 18.5715Z" fill="url(#paint6_linear_1543_46310)"/>
<path d="M31.7174 11.4437C31.1902 13.1848 30.1982 14.7493 28.8482 15.9687C29.7729 16.4534 30.2123 17.5351 29.8875 18.5274C29.5626 19.5196 28.5686 20.1321 27.5363 19.9761C26.5039 19.8201 25.7353 18.9412 25.7182 17.8973C24.8455 18.2343 23.9295 18.446 22.9974 18.5258C22.5605 20.8939 23.1496 23.3361 24.6182 25.2445C26.0867 27.1529 28.2965 28.348 30.6974 28.5323H30.7053H30.7089C30.9467 28.5523 31.1853 28.5687 31.4282 28.5687C36.1016 28.5669 39.9111 24.8197 39.99 20.1469C40.0689 15.4742 36.3881 11.6005 31.7174 11.4408V11.4437ZM34.9996 26.4287C34.6051 26.4287 34.2853 26.1089 34.2853 25.7144C34.2853 24.1364 33.0061 22.8573 31.4282 22.8573C29.8502 22.8573 28.571 24.1364 28.571 25.7144C28.571 26.1089 28.2512 26.4287 27.8567 26.4287C27.4622 26.4287 27.1424 26.1089 27.1424 25.7144C27.1424 23.3475 29.0612 21.4287 31.4282 21.4287C33.7951 21.4287 35.7139 23.3475 35.7139 25.7144C35.7139 26.1089 35.3941 26.4287 34.9996 26.4287ZM34.9996 20.0001C33.8161 20.0001 32.8567 19.0407 32.8567 17.8573C32.8567 16.6738 33.8161 15.7144 34.9996 15.7144C36.183 15.7144 37.1424 16.6738 37.1424 17.8573C37.1424 19.0407 36.183 20.0001 34.9996 20.0001Z" fill="url(#paint7_linear_1543_46310)"/>
<defs>
<linearGradient id="paint0_linear_1543_46310" x1="27.1426" y1="17.8573" x2="28.5711" y2="17.8573" gradientUnits="userSpaceOnUse">
<stop stop-color="#F86CA7"/>
<stop offset="1" stop-color="#FF7F18"/>
</linearGradient>
<linearGradient id="paint1_linear_1543_46310" x1="17.8574" y1="6.4287" x2="19.286" y2="6.4287" gradientUnits="userSpaceOnUse">
<stop stop-color="#F86CA7"/>
<stop offset="1" stop-color="#FF7F18"/>
</linearGradient>
<linearGradient id="paint2_linear_1543_46310" x1="13.5713" y1="8.57155" x2="30.7141" y2="8.57155" gradientUnits="userSpaceOnUse">
<stop stop-color="#F86CA7"/>
<stop offset="1" stop-color="#FF7F18"/>
</linearGradient>
<linearGradient id="paint3_linear_1543_46310" x1="25" y1="6.42869" x2="26.4286" y2="6.42869" gradientUnits="userSpaceOnUse">
<stop stop-color="#F86CA7"/>
<stop offset="1" stop-color="#FF7F18"/>
</linearGradient>
<linearGradient id="paint4_linear_1543_46310" x1="30.7666" y1="7.19012" x2="35.4545" y2="7.19012" gradientUnits="userSpaceOnUse">
<stop stop-color="#F86CA7"/>
<stop offset="1" stop-color="#FF7F18"/>
</linearGradient>
<linearGradient id="paint5_linear_1543_46310" x1="0" y1="20.2212" x2="32.2986" y2="20.2212" gradientUnits="userSpaceOnUse">
<stop stop-color="#F86CA7"/>
<stop offset="1" stop-color="#FF7F18"/>
</linearGradient>
<linearGradient id="paint6_linear_1543_46310" x1="34.2861" y1="17.8573" x2="35.7147" y2="17.8573" gradientUnits="userSpaceOnUse">
<stop stop-color="#F86CA7"/>
<stop offset="1" stop-color="#FF7F18"/>
</linearGradient>
<linearGradient id="paint7_linear_1543_46310" x1="22.8564" y1="20.0048" x2="39.9913" y2="20.0048" gradientUnits="userSpaceOnUse">
<stop stop-color="#F86CA7"/>
<stop offset="1" stop-color="#FF7F18"/>
</linearGradient>
</defs>
</svg>
