<svg width="39" height="26" viewBox="0 0 39 26" fill="none" xmlns="http://www.w3.org/2000/svg">
<rect x="0.609375" y="0.5" width="37.0685" height="24.9999" rx="3.5" fill="white" stroke="#D9D9D9"/>
<path fill-rule="evenodd" clip-rule="evenodd" d="M10.878 16.5112H9.186C9.07021 16.5112 8.97174 16.595 8.95368 16.7089L8.26935 21.0303C8.25575 21.1156 8.32205 21.1925 8.4089 21.1925H9.21667C9.33246 21.1925 9.43093 21.1087 9.44899 20.9946L9.63356 19.8291C9.65136 19.7149 9.75008 19.6312 9.86562 19.6312H10.4013C11.5158 19.6312 12.159 19.094 12.3271 18.0295C12.4028 17.5638 12.3303 17.1978 12.1113 16.9415C11.8709 16.6602 11.4443 16.5112 10.878 16.5112ZM11.0732 18.0896C10.9807 18.6943 10.5168 18.6943 10.0683 18.6943H9.81292L9.99205 17.5649C10.0027 17.4967 10.0621 17.4464 10.1313 17.4464H10.2484C10.5539 17.4464 10.8422 17.4464 10.9911 17.6199C11.0798 17.7234 11.1071 17.8771 11.0732 18.0896ZM15.9358 18.0702H15.1255C15.0565 18.0702 14.9968 18.1205 14.9862 18.1888L14.9504 18.4145L14.8937 18.3327C14.7183 18.0791 14.3272 17.9944 13.9368 17.9944C13.0413 17.9944 12.2766 18.6698 12.1277 19.6173C12.0503 20.0899 12.1603 20.5418 12.4295 20.857C12.6764 21.1467 13.0298 21.2675 13.4501 21.2675C14.1715 21.2675 14.5716 20.8054 14.5716 20.8054L14.5354 21.0297C14.5218 21.1155 14.5881 21.1924 14.6744 21.1924H15.4043C15.5204 21.1924 15.6183 21.1085 15.6366 20.9945L16.0746 18.2324C16.0884 18.1474 16.0223 18.0702 15.9358 18.0702ZM14.8063 19.6409C14.7281 20.102 14.3607 20.4115 13.8922 20.4115C13.6569 20.4115 13.4688 20.3363 13.3482 20.1939C13.2284 20.0525 13.1828 19.8511 13.221 19.6269C13.294 19.1697 13.6676 18.8502 14.129 18.8502C14.359 18.8502 14.5461 18.9263 14.6693 19.0699C14.7927 19.2151 14.8417 19.4176 14.8063 19.6409ZM19.4368 18.0701H20.2511C20.3651 18.0701 20.4317 18.1975 20.3669 18.2906L17.6588 22.184C17.6149 22.2471 17.5427 22.2846 17.4655 22.2846H16.6523C16.5378 22.2846 16.4709 22.1562 16.5372 22.0628L17.3805 20.8773L16.4836 18.2558C16.4526 18.1647 16.5202 18.0701 16.6175 18.0701H17.4175C17.5215 18.0701 17.6132 18.1381 17.6432 18.2371L18.1192 19.8204L19.2422 18.1728C19.2862 18.1085 19.3592 18.0701 19.4368 18.0701Z" fill="#253B80"/>
<path fill-rule="evenodd" clip-rule="evenodd" d="M28.2645 21.0303L28.9589 16.6298C28.9695 16.5615 29.0289 16.5112 29.098 16.511H29.8797C29.966 16.511 30.0323 16.5881 30.0187 16.6734L29.3339 20.9946C29.3161 21.1086 29.2176 21.1925 29.1016 21.1925H28.4035C28.3171 21.1925 28.2508 21.1156 28.2645 21.0303ZM22.9464 16.5112H21.2541C21.1386 16.5112 21.0401 16.595 21.022 16.7088L20.3377 21.0303C20.3241 21.1156 20.3904 21.1925 20.4768 21.1925H21.3451C21.4259 21.1925 21.4949 21.1338 21.5075 21.054L21.7017 19.8291C21.7195 19.7149 21.8182 19.6312 21.9337 19.6312H22.4691C23.5839 19.6312 24.227 19.094 24.3952 18.0295C24.4711 17.5638 24.3982 17.1978 24.1793 16.9415C23.9389 16.6601 23.5127 16.5112 22.9464 16.5112ZM23.1416 18.0896C23.0493 18.6943 22.5854 18.6943 22.1366 18.6943H21.8815L22.0609 17.5649C22.0716 17.4967 22.1304 17.4464 22.1999 17.4464H22.3169C22.6223 17.4464 22.9108 17.4464 23.0597 17.6199C23.1485 17.7234 23.1755 17.8771 23.1416 18.0896ZM28.0038 18.0702H27.1941C27.1245 18.0702 27.0654 18.1205 27.055 18.1888L27.0191 18.4145L26.9622 18.3327C26.7868 18.0791 26.3959 17.9944 26.0055 17.9944C25.1101 17.9944 24.3456 18.6698 24.1967 19.6173C24.1195 20.0899 24.2291 20.5418 24.4982 20.857C24.7457 21.1467 25.0985 21.2675 25.5188 21.2675C26.2402 21.2675 26.6403 20.8054 26.6403 20.8054L26.6042 21.0297C26.5906 21.1155 26.6569 21.1923 26.7438 21.1923H27.4733C27.5888 21.1923 27.6873 21.1085 27.7054 20.9945L28.1436 18.2323C28.1569 18.1474 28.0907 18.0702 28.0038 18.0702ZM26.8744 19.6409C26.7967 20.1019 26.4288 20.4114 25.9602 20.4114C25.7254 20.4114 25.5369 20.3363 25.4161 20.1939C25.2964 20.0525 25.2514 19.8511 25.289 19.6269C25.3624 19.1697 25.7356 18.8502 26.197 18.8502C26.4271 18.8502 26.6141 18.9262 26.7374 19.0699C26.8612 19.2151 26.9102 19.4176 26.8744 19.6409Z" fill="#179BD7"/>
<path d="M17.1417 14.9649L17.3497 13.649L16.8864 13.6382H14.6738L16.2115 3.92746C16.2162 3.89814 16.2317 3.8708 16.2544 3.85139C16.2771 3.83199 16.3061 3.82129 16.3364 3.82129H20.0671C21.3057 3.82129 22.1603 4.07799 22.6066 4.58466C22.8158 4.82236 22.9491 5.07074 23.0135 5.34408C23.0811 5.6309 23.0823 5.97356 23.0163 6.3915L23.0115 6.422V6.68979L23.2208 6.80785C23.397 6.90094 23.5369 7.0075 23.6443 7.12952C23.8233 7.33274 23.9391 7.59103 23.988 7.89725C24.0385 8.21219 24.0218 8.58694 23.9391 9.01122C23.8436 9.49928 23.6893 9.92435 23.4809 10.2722C23.2891 10.5926 23.0449 10.8584 22.755 11.0645C22.4782 11.2602 22.1492 11.4087 21.7774 11.5038C21.4169 11.5972 21.0061 11.6444 20.5555 11.6444H20.2652C20.0576 11.6444 19.8558 11.7189 19.6976 11.8524C19.5389 11.9887 19.4338 12.1748 19.4017 12.3785L19.3798 12.497L19.0123 14.8163L18.9956 14.9015C18.9912 14.9285 18.9837 14.942 18.9725 14.9511C18.9626 14.9593 18.9483 14.9649 18.9343 14.9649H17.1417Z" fill="#253B80"/>
<path d="M23.4186 6.45312C23.4075 6.52403 23.3948 6.59652 23.3805 6.671C22.8884 9.18694 21.2052 10.0561 19.0554 10.0561H17.9609C17.698 10.0561 17.4765 10.2462 17.4355 10.5045L16.875 14.0445L16.7163 15.0479C16.6897 15.2175 16.821 15.3704 16.9927 15.3704H18.9342C19.1641 15.3704 19.3593 15.204 19.3955 14.9783L19.4146 14.88L19.7801 12.5696L19.8036 12.4429C19.8393 12.2163 20.035 12.05 20.2649 12.05H20.5553C22.4361 12.05 23.9086 11.2893 24.339 9.0883C24.5187 8.16884 24.4257 7.40111 23.9499 6.86115C23.806 6.69833 23.6274 6.56325 23.4186 6.45312Z" fill="#179BD7"/>
<path d="M22.9021 6.24864C22.827 6.22685 22.7493 6.20704 22.6698 6.18922C22.5899 6.17179 22.5079 6.15634 22.4236 6.14287C22.1285 6.09533 21.8051 6.07275 21.4587 6.07275H18.5345C18.4625 6.07275 18.3942 6.08899 18.3329 6.11831C18.1981 6.18288 18.0979 6.31005 18.0736 6.46573L17.4515 10.39L17.4336 10.5045C17.4746 10.2462 17.6961 10.056 17.959 10.056H19.0535C21.2034 10.056 22.8866 9.18648 23.3786 6.67094C23.3932 6.59646 23.4056 6.52397 23.4167 6.45306C23.2923 6.3873 23.1574 6.33104 23.0122 6.2831C22.9765 6.27122 22.9395 6.25974 22.9021 6.24864Z" fill="#222D65"/>
<path d="M18.0738 6.46596C18.0981 6.31027 18.1983 6.18311 18.3331 6.11893C18.3948 6.08961 18.4628 6.07337 18.5347 6.07337H21.459C21.8054 6.07337 22.1287 6.09595 22.4238 6.14349C22.5082 6.15696 22.5901 6.17241 22.6701 6.18983C22.7496 6.20767 22.8271 6.22748 22.9024 6.24926C22.9397 6.26035 22.9767 6.27184 23.0128 6.28333C23.158 6.33126 23.2929 6.38791 23.4173 6.45328C23.5638 5.52352 23.4162 4.89048 22.9115 4.31724C22.3551 3.68619 21.3508 3.41602 20.0657 3.41602H16.3349C16.0723 3.41602 15.8485 3.60616 15.8079 3.86485L14.254 13.6755C14.2233 13.8695 14.3736 14.0447 14.5701 14.0447H16.8734L17.4517 10.3902L18.0738 6.46596Z" fill="#253B80"/>
</svg>
