<svg width="62" height="105" viewBox="0 0 62 105" fill="none" xmlns="http://www.w3.org/2000/svg">
<g opacity="0.03" clip-path="url(#clip0_1543_45814)">
<path d="M35.4672 0.593887C34.9208 0.926468 34.2319 1.59163 33.9231 2.09049C33.4242 2.89819 33.3767 3.27828 33.3054 6.93665L33.2104 10.9276H19.6934C6.88914 10.9276 6.1052 10.9514 5.27376 11.379C3.68213 12.1867 2.85068 13.5882 2.85068 15.4174C2.85068 16.819 3.11199 17.6029 3.8009 18.2919C4.32353 18.8145 4.32353 18.8145 3.84842 19.3133C2.66063 20.6199 2.7319 18.4581 2.66063 58.9378L2.61312 96.8281L1.6629 97.2557C0.308824 97.8495 0 98.6097 0 101.223C0 103.361 0 103.385 0.807692 104.192L1.61538 105H52.5H103.385L104.192 104.192C105 103.385 105 103.361 105 101.223C105 98.6097 104.691 97.8495 103.337 97.2557L102.387 96.8281L102.339 58.9378C102.268 17.8643 102.363 20.905 101.152 19.2183C100.938 18.9095 100.985 18.6957 101.365 18.1493C102.981 15.8688 102.221 12.6618 99.7738 11.4027C98.871 10.9514 98.3484 10.9276 85.3066 10.9276H71.7658L71.6946 6.93665C71.6233 3.01697 71.5995 2.89819 70.9581 1.94796C70.6018 1.40158 69.8891 0.73642 69.3665 0.475113C68.4638 0.0237503 68.0124 0 52.4525 0H36.4649L35.4672 0.593887ZM68.5826 2.9457L69.2477 3.51584L69.3665 10.3812C69.4853 17.6267 69.509 17.6742 70.7206 18.7907C72.1222 20.121 71.5995 20.0735 85.7104 20.1923L98.871 20.3111L99.3224 20.8812C99.7738 21.4276 99.7738 22.3778 99.7738 59.1753V96.9231H84.2138H68.6538V87.5871V78.2749L69.414 77.9186C70.483 77.4197 71.0057 76.5645 71.1957 75.1154C71.362 73.595 70.8156 71.9796 69.8891 71.3382C69.2715 70.9344 68.345 70.9106 52.595 70.9106C34.5645 70.9106 35.1584 70.8631 34.2794 72.1934C33.7568 72.9774 33.6855 75.8993 34.1844 76.802C34.3744 77.1584 34.9208 77.6335 35.4197 77.8473L36.3224 78.2749L36.3462 87.5871V96.9231H20.7862H5.22624V59.1753C5.22624 22.3778 5.22624 21.4276 5.6776 20.8812L6.12896 20.3111L19.2896 20.1923C30.9536 20.0973 32.4977 20.026 33.1391 19.6697C34.0894 19.1471 35.0634 18.1018 35.3722 17.2704C35.5385 16.8665 35.6335 14.2534 35.6335 10.5475C35.6335 4.18099 35.776 3.20701 36.75 2.63688C37.0351 2.47059 42.0475 2.39932 52.5475 2.37556H67.9174L68.5826 2.9457ZM66.0407 87.6584V96.9231H64.3778H62.7149V89.5826C62.7149 82.2421 62.7149 82.2183 62.1923 81.862C61.741 81.5294 60.4106 81.4819 52.5 81.4819C44.5894 81.4819 43.2591 81.5294 42.8077 81.862C42.2851 82.2183 42.2851 82.2421 42.2851 89.5826V96.9231H40.6222H38.9593V87.6584V78.3937H52.5H66.0407V87.6584ZM51.3122 90.509V96.9231H47.9864H44.6606V90.509V84.095H47.9864H51.3122V90.509ZM60.3394 90.509V96.9231H57.0136H53.6878V90.509V84.095H57.0136H60.3394V90.509Z" fill="#253D4E"/>
<path d="M50.2913 7.55469C49.9587 7.91102 49.8874 8.50491 49.8874 10.6429C49.8874 12.1158 49.7924 13.3036 49.6736 13.3036C49.5548 13.3036 48.5333 12.7572 47.3931 12.1158C44.4236 10.4054 43.9247 10.5004 42.5469 13.1135C41.6917 14.7051 41.9293 15.204 44.0198 16.4155C44.9462 16.9619 46.039 17.5796 46.3953 17.8171L47.0842 18.221L45.0888 19.3612C41.7867 21.2617 41.5729 21.5943 42.6657 23.4947C44.0435 25.8465 44.4949 25.9178 47.4643 24.2312C48.6046 23.566 49.6261 23.0434 49.7211 23.0434C49.8161 23.0434 49.8874 24.2549 49.8874 25.7278C49.8874 29.1248 50.0537 29.3386 52.5005 29.3386C54.9474 29.3386 55.1137 29.1248 55.1137 25.7278C55.1137 24.1599 55.2087 23.0434 55.3512 23.0434C55.47 23.0434 56.4677 23.566 57.5842 24.2312C60.1261 25.7278 60.7913 25.7753 61.7415 24.4687C63.5707 21.9269 63.4044 21.3567 60.3399 19.575L57.9643 18.1972L58.6295 17.7934C58.9858 17.5796 60.0548 16.9619 60.9813 16.4155C63.0718 15.204 63.3094 14.7051 62.4542 13.1135C61.0763 10.5004 60.5775 10.4054 57.608 12.1158C56.4677 12.7572 55.4462 13.3036 55.3275 13.3036C55.2087 13.3036 55.1137 12.092 55.1137 10.6192C55.1137 7.24586 55.0424 7.12709 52.453 7.12709C51.0277 7.12709 50.6001 7.22211 50.2913 7.55469Z" fill="#253D4E"/>
<path d="M11.5442 25.4663C11.2116 25.9176 11.1641 27.1291 11.1641 33.9708C11.1641 40.8124 11.2116 42.0239 11.5442 42.4753C11.9005 42.9979 11.9242 42.9979 19.4785 42.9979C26.0351 42.9979 27.1041 42.9504 27.4129 42.6178C27.7455 42.309 27.793 41.1925 27.793 33.9945C27.793 26.2977 27.7693 25.7038 27.3654 25.3475C26.9853 24.9911 26.0589 24.9436 19.4073 24.9436C11.9242 24.9436 11.9005 24.9436 11.5442 25.4663ZM25.1799 30.0511V32.783H19.4785H13.7772V30.0511V27.3192H19.4785H25.1799V30.0511ZM25.1799 37.8905V40.6224H19.4785H13.7772V37.8905V35.1586H19.4785H25.1799V37.8905Z" fill="#253D4E"/>
<path d="M43.1866 34.5884C41.4762 35.4911 41.0486 38.6744 42.2601 41.24C43.8042 44.4945 46.6787 45.9911 48.8642 44.6608C51.1922 43.2592 50.9784 38.8882 48.4603 36.0137C46.9875 34.3508 44.7307 33.7332 43.1866 34.5884Z" fill="#253D4E"/>
<path d="M58.1776 34.6833C56.1346 35.7523 54.543 38.5792 54.543 41.0973C54.543 42.9265 55.0181 43.9955 56.1346 44.6606C58.2964 45.9909 61.2183 44.4706 62.7387 41.2398C63.9502 38.698 63.4988 35.6335 61.7884 34.612C60.8857 34.0894 59.2466 34.1131 58.1776 34.6833Z" fill="#253D4E"/>
<path d="M35.8719 44.7316C35.0167 45.1592 34.209 46.4895 34.209 47.4873C34.2327 51.2406 39.5303 54.709 42.0246 52.5947C43.83 51.0744 43.3549 48.2474 40.8843 46.0382C39.2452 44.5653 37.2497 44.0427 35.8719 44.7316Z" fill="#253D4E"/>
<path d="M65.6853 44.851C63.1434 46.0626 61.338 49.1746 62.0031 51.1938C62.6445 53.1655 64.735 53.7594 67.1106 52.6429C69.2486 51.6689 70.6264 49.6259 70.6502 47.4641C70.6739 46.2289 70.6027 46.0151 69.9138 45.3499C68.9398 44.3759 67.1581 44.1621 65.6853 44.851Z" fill="#253D4E"/>
<path d="M50.9809 47.9864C49.8881 48.319 48.9854 49.3642 47.8214 51.6685C46.8949 53.4977 46.3248 54.1866 44.1393 56.3484C42.7377 57.75 41.4549 59.1753 41.3361 59.5079C40.7185 61.147 41.5024 63.4513 42.8565 64.0215C43.973 64.4966 45.0182 64.4728 47.9877 63.8789C49.3655 63.6176 51.3848 63.4038 52.5013 63.4038C53.6178 63.4038 55.637 63.6176 57.0148 63.8789C59.9843 64.4728 61.0295 64.4966 62.1461 64.0215C63.0963 63.6414 63.8802 62.1685 63.904 60.8145C63.904 59.6267 63.2626 58.7002 60.6019 56.0871C58.6777 54.1866 58.0838 53.4502 57.1811 51.6685C56.5872 50.4808 55.7795 49.2455 55.4232 48.8654C54.3305 47.8439 52.62 47.5113 50.9809 47.9864Z" fill="#253D4E"/>
<path d="M11.7355 48.3192C11.3079 48.6517 11.2842 49.0318 11.2842 57.1325C11.2842 65.2332 11.3079 65.6133 11.7355 65.9459C12.1156 66.2072 13.5885 66.2784 19.5274 66.2784C26.5353 66.2784 26.8679 66.2547 27.3192 65.8033C27.7706 65.352 27.7944 65.0194 27.7944 57.1325C27.7944 49.2456 27.7706 48.9131 27.3192 48.4617C26.8679 48.0103 26.5353 47.9866 19.5274 47.9866C13.5885 47.9866 12.1156 48.0579 11.7355 48.3192ZM25.1812 53.2128V55.826H19.4799H13.7785V53.2128V50.5997H19.4799H25.1812V53.2128ZM25.1812 61.0522V63.6653H19.4799H13.7785V61.0522V58.4391H19.4799H25.1812V61.0522Z" fill="#253D4E"/>
<path d="M11.7356 71.5997C11.308 71.9323 11.2842 72.3599 11.2129 81.3633C11.1654 89.5828 11.1892 90.8893 11.5218 91.3644L11.8781 91.9346H19.4562C26.4641 91.9346 27.0342 91.9108 27.3905 91.507C27.7469 91.1031 27.7944 90.0816 27.7944 81.6484C27.7944 72.5262 27.7706 72.1936 27.3193 71.7423C26.8679 71.2909 26.5353 71.2672 19.5274 71.2672C13.5885 71.2672 12.1157 71.3384 11.7356 71.5997ZM25.1813 77.2061V80.5319H19.4799H13.7786V77.2061V73.8803H19.4799H25.1813V77.2061ZM25.1813 86.2332V89.559H19.4799H13.7786V86.2332V82.9074H19.4799H25.1813V86.2332Z" fill="#253D4E"/>
</g>
<defs>
<clipPath id="clip0_1543_45814">
<rect width="62" height="105" fill="white"/>
</clipPath>
</defs>
</svg>
