<svg width="16" height="16" viewBox="0 0 16 16" fill="none" xmlns="http://www.w3.org/2000/svg">
<path d="M1.13133 16C0.700357 16 0.404031 15.8793 0.242415 15.638C0.0807983 15.3484 0 15.0106 0 14.6244V4.27149C0 3.06485 0.242444 2.14781 0.727293 1.52036C1.26601 0.892909 1.88553 0.482651 2.58587 0.289588C3.34008 0.096529 4.01348 0 4.60607 0C4.98318 0 5.27945 0.0241323 5.49494 0.0723971C5.71043 0.0723971 5.92591 0.0965293 6.1414 0.144794V2.17195C5.38719 2.17195 4.87543 2.34087 4.60607 2.67873C4.39058 2.96832 4.28282 3.35445 4.28282 3.8371V7.45701H4.92928C5.36025 7.45701 5.71046 7.57767 5.97982 7.819C6.24918 8.01206 6.38386 8.34992 6.38386 8.83258V14.6244C6.38386 15.5415 5.89897 16 4.92928 16H1.13133ZM10.7475 16C10.3165 16 10.0202 15.8793 9.8586 15.638C9.69699 15.3484 9.61619 15.0106 9.61619 14.6244V4.27149C9.61619 3.06485 9.85858 2.14781 10.3434 1.52036C10.8822 0.892909 11.5017 0.482651 12.202 0.289588C12.9562 0.096529 13.6296 0 14.2222 0C14.5993 0 14.8956 0.0241323 15.1111 0.0723971C15.3266 0.0723971 15.5421 0.0965293 15.7576 0.144794V2.17195C15.0034 2.17195 14.4916 2.34087 14.2222 2.67873C14.0067 2.96832 13.899 3.35445 13.899 3.8371V7.45701H14.5455C14.9764 7.45701 15.3266 7.57767 15.596 7.819C15.8653 8.01206 16 8.34992 16 8.83258V14.6244C16 15.5415 15.5152 16 14.5455 16H10.7475Z" fill="#F46F30"/>
</svg>
