<svg width="16" height="16" viewBox="0 0 16 16" fill="none" xmlns="http://www.w3.org/2000/svg">
<path d="M1.77779 16C1.45456 16 1.15823 16 0.88887 16C0.673382 15.952 0.457903 15.9039 0.242415 15.8559V13.8378C0.996624 13.8378 1.48146 13.6697 1.69695 13.3333C1.96631 12.997 2.10099 12.6126 2.10099 12.1802V8.57658H1.37375C0.996643 8.57658 0.673401 8.45646 0.404041 8.21622C0.13468 7.97598 0 7.63964 0 7.20721V1.44144C0 0.480481 0.457922 0 1.37375 0H5.25253C5.68351 0 5.97978 0.144144 6.1414 0.432431C6.30301 0.720721 6.38381 1.05706 6.38381 1.44144V11.7477C6.38381 12.949 6.11445 13.8619 5.57573 14.4865C5.09088 15.0631 4.49833 15.4715 3.79799 15.7117C3.09765 15.9039 2.42425 16 1.77779 16ZM11.3939 16C11.0707 16 10.7744 16 10.5051 16C10.2896 15.952 10.0741 15.9039 9.8586 15.8559V13.8378C10.6128 13.8378 11.0977 13.6697 11.3131 13.3333C11.5825 12.997 11.7172 12.6126 11.7172 12.1802V8.57658H10.9899C10.6128 8.57658 10.2895 8.45646 10.0202 8.21622C9.75082 7.97598 9.61614 7.63964 9.61614 7.20721V1.44144C9.61614 0.480481 10.0741 0 10.9899 0H14.8687C15.2996 0 15.596 0.144144 15.7576 0.432431C15.9192 0.720721 16 1.05706 16 1.44144V11.7477C16 12.949 15.7306 13.8619 15.1919 14.4865C14.7071 15.0631 14.1145 15.4715 13.4141 15.7117C12.7138 15.9039 12.0404 16 11.3939 16Z" fill="#F46F30"/>
</svg>
