<svg width="70" height="70" viewBox="0 0 70 70" fill="none" xmlns="http://www.w3.org/2000/svg">
<g clip-path="url(#clip0_1621_967)">
<path d="M43.6077 26.6471C45.4654 22.8403 47.24 17.3855 48.1621 12.6583C49.8125 4.19709 48.1068 1.28771 45.4055 0.761072C42.7043 0.234158 40.0303 2.28904 38.3801 10.7506C37.6708 14.387 37.2664 18.6144 37.25 22.2956C39.7629 22.9967 41.9693 24.5441 43.6077 26.6471Z" fill="#FBFBFB"/>
<path d="M24.7939 26.6471C26.4323 24.5438 28.6387 22.9967 31.1516 22.2954C31.1352 18.6141 30.7307 14.3867 30.0214 10.7503C28.371 2.28904 25.697 0.234158 22.9957 0.761072C20.2945 1.28799 18.5888 4.19709 20.2392 12.6583C21.1613 17.3858 22.9361 22.8406 24.7939 26.6471Z" fill="#FBFBFB"/>
<path d="M47.7815 35.5636C47.0408 34.5926 46.5106 33.4705 46.2443 32.2785C44.9085 26.3058 40.0241 21.8767 34.2002 21.8767C28.3762 21.8767 23.4918 26.3058 22.1561 32.2785C21.8895 33.4705 21.3593 34.5924 20.6188 35.5636C19.7504 36.7022 19.2344 38.1238 19.2344 39.6666C19.2344 43.02 21.6685 45.7959 24.8491 46.3442C26.0192 46.546 27.1578 46.917 28.1687 47.5396C29.9542 48.6394 32.0105 49.2672 34.2004 49.2672C36.3904 49.2672 38.4466 48.6394 40.2322 47.5396C41.2434 46.9167 42.382 46.546 43.552 46.3442C46.7318 45.7957 49.1665 43.0205 49.1665 39.6666C49.1659 38.1238 48.65 36.7022 47.7815 35.5636Z" fill="#FBFBFB"/>
<path d="M41.3359 67.599C41.3359 69.3058 39.9556 69.3159 38.2529 69.3159C36.5502 69.3159 35.1699 69.3058 35.1699 67.599C35.1699 65.8922 36.5502 64.5083 38.2529 64.5083C39.9556 64.5083 41.3359 65.8922 41.3359 67.599Z" fill="#FBFBFB"/>
<path d="M32.9961 67.599C32.9961 69.3058 31.6158 69.3159 29.9131 69.3159C28.2104 69.3159 26.8301 69.3058 26.8301 67.599C26.8301 65.8922 28.2104 64.5083 29.9131 64.5083C31.6158 64.5086 32.9961 65.8922 32.9961 67.599Z" fill="#FBFBFB"/>
<path d="M40.2316 47.5396C38.4461 48.6394 36.3898 49.2672 34.1999 49.2672C32.0099 49.2672 29.9536 48.6394 28.1681 47.5396C27.2617 46.9813 26.2524 46.6263 25.2098 46.4133C21.2983 54.4417 26.2174 61.935 28.5575 64.8266C30.6069 63.8174 32.9967 65.3177 32.9967 67.599C32.9967 67.7866 32.9773 67.9506 32.9453 68.0997C33.6677 68.2066 34.4531 68.2131 35.22 68.0997C35.1881 67.9506 35.1686 67.7868 35.1686 67.599C35.1686 65.8922 36.549 64.5083 38.2517 64.5083C38.7389 64.5083 39.198 64.6248 39.6076 64.8266C41.9431 61.9408 46.8474 54.4704 42.9772 46.4595C42.0106 46.6766 41.0765 47.0193 40.2316 47.5396Z" fill="#FBFBFB"/>
<path d="M40.6627 65.674C40.6627 65.6737 40.6627 65.6737 40.6627 65.674C42.3492 65.4993 43.5452 65.3678 44.417 65.277C46.5246 63.4928 49.4643 59.6414 44.31 54.491C43.9086 57.7369 42.5136 60.5785 41.1909 62.6361C41.1898 62.6378 41.1888 62.6397 41.1877 62.6413C40.7004 63.3987 40.1653 64.1398 39.6094 64.8266C40.0201 65.029 40.3799 65.3185 40.6627 65.674Z" fill="#FBFBFB"/>
<path d="M23.7506 65.277C24.6223 65.3677 25.8184 65.4993 27.5052 65.6737V65.674C27.7882 65.3188 28.1478 65.0292 28.5585 64.8269C27.9495 64.0741 27.3436 63.2308 26.782 62.3279C26.7809 62.3263 26.78 62.3249 26.7789 62.3233C25.5176 60.2949 24.239 57.5756 23.8578 54.4912C18.7032 59.6414 21.643 63.4928 23.7506 65.277Z" fill="#FBFBFB"/>
<path d="M52.1683 50.9676C50.0626 48.9978 46.5549 51.0182 44.4128 52.6564C44.4134 53.2782 44.3707 53.8868 44.2969 54.4832L44.3089 54.4911C45.1134 55.2948 45.7204 56.067 46.1645 56.8044C50.5523 58.6477 55.1121 53.7211 52.1683 50.9676Z" fill="#FBFBFB"/>
<path d="M49.2271 68.2635L49.0138 67.2687C48.7893 66.2223 47.983 65.4238 46.9773 65.1838C46.3117 65.0249 45.51 65.1725 40.662 65.6738C41.0828 66.202 41.3357 66.8706 41.3357 67.5993C41.3357 68.8486 40.5947 69.1877 39.5307 69.2804L39.5195 69.3162H48.479C48.928 69.3159 49.3581 68.8738 49.2271 68.2635Z" fill="#FBFBFB"/>
<path d="M26.8313 67.5992C26.8313 66.8705 27.0845 66.2022 27.505 65.6736C22.657 65.1724 21.8556 65.0245 21.1897 65.1836C20.184 65.4237 19.3774 66.2221 19.1532 67.2686L18.9399 68.2634C18.8089 68.8737 19.239 69.3161 19.6883 69.3161H28.6477L28.6365 69.2803C27.5723 69.1876 26.8313 68.8485 26.8313 67.5992Z" fill="#FBFBFB"/>
<path d="M34.0976 51.4106C32.4882 51.4106 31.1836 52.7152 31.1836 54.3247V59.8664C31.1836 59.8664 31.2101 60.0089 31.2563 60.2602C31.7294 61.6555 32.3274 63.837 32.5521 65.9974C32.8324 66.4568 32.9979 67.0004 32.9979 67.599C32.9979 67.7865 32.9784 67.9506 32.9464 68.0996C33.6689 68.2065 34.4542 68.2131 35.2212 68.0996C35.1892 67.9506 35.1698 67.7868 35.1698 67.599C35.1698 67.0141 35.333 66.468 35.6155 66.0024C35.8419 63.8266 36.4467 61.6263 36.9211 60.2309C36.9641 59.9971 36.9884 59.8661 36.9884 59.8661L37.0116 54.3496C37.0256 52.7305 35.7169 51.4106 34.0976 51.4106Z" fill="#FBFBFB"/>
<path d="M37.5355 37.5107C37.5355 38.5348 35.8257 39.9826 34.2004 39.9826C32.575 39.9826 30.8652 38.5345 30.8652 37.5107C30.8652 36.4867 32.575 36.408 34.2004 36.408C35.8254 36.4077 37.5355 36.4867 37.5355 37.5107Z" fill="#FBFBFB"/>
<path d="M34.2009 41.019C34.2009 41.9474 33.5614 42.7245 32.6992 42.9386V43.7829C32.6992 44.2437 33.0763 44.6208 33.537 44.6208H34.8648C35.3256 44.6208 35.7027 44.2437 35.7027 43.7829V42.9386C34.8408 42.7242 34.2009 41.9474 34.2009 41.019Z" fill="#FBFBFB"/>
<path d="M43.6065 26.6471C45.4642 22.8403 47.2388 17.3855 48.1609 12.6583C48.7813 9.47745 48.9273 7.08186 48.7244 5.30178C48.2487 4.61928 47.614 4.2537 46.8883 4.11206C44.6819 3.68167 42.4778 5.46421 41.0605 12.7305C40.3955 16.1398 40.0228 20.1492 40.0417 23.4903C41.4015 24.2934 42.6093 25.3669 43.6065 26.6471Z" fill="#FBFBFB"/>
<path d="M24.7933 26.6471C25.7908 25.3668 26.9985 24.293 28.3581 23.4902C28.3769 20.1491 28.0043 16.1397 27.3393 12.7305C25.922 5.46441 23.7178 3.68187 21.5115 4.11199C20.7858 4.25363 20.1511 4.61922 19.6753 5.30172C19.4727 7.08152 19.6185 9.47738 20.2389 12.6583C21.1609 17.3857 22.9358 22.8405 24.7933 26.6471Z" fill="#FBFBFB"/>
<path d="M36.1795 43.6829C34.7105 43.6829 33.5156 42.488 33.5156 41.0191V40.146C33.5156 39.7684 33.8216 39.4624 34.1992 39.4624C34.5768 39.4624 34.8828 39.7684 34.8828 40.146V41.0191C34.8828 41.7341 35.4644 42.3157 36.1795 42.3157C36.8945 42.3157 37.4764 41.7341 37.4764 41.0191C37.4764 40.6415 37.7823 40.3355 38.16 40.3355C38.5376 40.3355 38.8436 40.6415 38.8436 41.0191C38.8438 42.488 37.6486 43.6829 36.1795 43.6829Z" fill="#253D4E"/>
<path d="M32.2188 43.6829C30.7499 43.6829 29.5547 42.488 29.5547 41.0191C29.5547 40.6415 29.8607 40.3355 30.2383 40.3355C30.6159 40.3355 30.9219 40.6415 30.9219 41.0191C30.9219 41.7341 31.5035 42.3157 32.2188 42.3157C32.9338 42.3157 33.5154 41.7341 33.5154 41.0191V40.146C33.5154 39.7684 33.8214 39.4624 34.199 39.4624C34.5766 39.4624 34.8826 39.7684 34.8826 40.146V41.0191C34.8826 42.488 33.6877 43.6829 32.2188 43.6829Z" fill="#253D4E"/>
<path d="M34.2002 49.9508C31.9623 49.9508 29.7527 49.3184 27.8099 48.1218C26.9521 47.5935 25.9169 47.2222 24.7327 47.018C21.1506 46.4003 18.5508 43.3085 18.5508 39.6663C18.5508 38.0188 19.078 36.4567 20.0752 35.1489C20.7588 34.2528 21.2477 33.2085 21.4889 32.1293C22.9291 25.6901 28.1558 21.1929 34.2002 21.1929C40.2445 21.1929 45.4715 25.6901 46.9112 32.1293C47.1526 33.2083 47.6415 34.2525 48.3251 35.1489H48.3254C49.3226 36.4567 49.8498 38.0188 49.8498 39.6663C49.8498 43.3082 47.25 46.3997 43.6679 47.0177C42.4834 47.2222 41.4479 47.5935 40.5907 48.1218C38.6479 49.3184 36.438 49.9508 34.2002 49.9508ZM34.2002 22.5603C28.8009 22.5603 24.1226 26.6179 22.8232 32.4276C22.5391 33.6983 21.9646 34.926 21.1621 35.9779C20.3481 37.0454 19.9177 38.3207 19.9177 39.6663C19.9177 42.641 22.0404 45.1662 24.9648 45.6704C26.3216 45.9042 27.5201 46.3374 28.5269 46.9578C30.2539 48.0215 32.2155 48.5837 34.2002 48.5837C36.1848 48.5837 38.1464 48.0215 39.8734 46.9578C40.88 46.3376 42.0782 45.9045 43.4355 45.6704C46.3599 45.166 48.4826 42.6408 48.4826 39.6663C48.4826 38.321 48.0522 37.0457 47.2379 35.9779H47.2382C46.4354 34.9257 45.8609 33.698 45.5771 32.4276C44.278 26.6179 39.5995 22.5603 34.2002 22.5603Z" fill="#253D4E"/>
<path d="M43.6077 27.3308C43.3982 27.3308 43.1989 27.2346 43.0685 27.0675C41.4798 25.029 39.4047 23.6066 37.0663 22.9542C36.7696 22.8713 36.565 22.6006 36.5664 22.2927C36.5834 18.5108 36.9998 14.2564 37.7091 10.62C38.5092 6.51893 39.5745 3.6853 40.9663 1.9569C42.24 0.375615 43.7781 -0.252198 45.5365 0.0906928C49.2271 0.81038 50.3362 5.08311 48.8334 12.7897C47.904 17.5549 46.0938 23.1119 44.2224 26.9475C44.1188 27.1594 43.9134 27.3029 43.6791 27.3275C43.6547 27.3297 43.6312 27.3308 43.6077 27.3308ZM37.9382 21.7899C40.0238 22.4696 41.9025 23.7001 43.4423 25.391C45.102 21.7221 46.6573 16.8021 47.4911 12.528C48.8205 5.71175 48.0748 1.97851 45.2748 1.43245C44.0345 1.19101 42.9747 1.64327 42.0313 2.8144C40.7995 4.34401 39.7968 7.05815 39.0514 10.8816C38.3891 14.2753 37.988 18.2204 37.9382 21.7899Z" fill="#253D4E"/>
<path d="M24.7929 27.3307C24.7694 27.3307 24.7456 27.3296 24.7218 27.3269C24.4872 27.3026 24.2818 27.1587 24.1785 26.9468C22.3068 23.1116 20.4969 17.5542 19.5675 12.7891C18.0641 5.08249 19.1735 0.81003 22.8641 0.0903428C26.5555 -0.629892 29.1881 2.91304 30.6912 10.6196C31.4005 14.256 31.817 18.5107 31.8339 22.2924C31.8353 22.6003 31.6307 22.8712 31.3341 22.9538C28.9956 23.6062 26.92 25.0287 25.3318 27.0671C25.2017 27.2345 25.0023 27.3307 24.7929 27.3307ZM23.7306 1.37194C23.5326 1.37194 23.3314 1.39191 23.1257 1.4321C20.3255 1.97843 19.5798 5.7114 20.9093 12.5276C21.743 16.8017 23.2983 21.7217 24.958 25.3907C26.4978 23.7 28.3766 22.4693 30.4623 21.7898C30.4126 18.2206 30.0114 14.2755 29.3497 10.8813C28.1176 4.56569 26.2287 1.37194 23.7306 1.37194Z" fill="#253D4E"/>
<path d="M38.2513 70C36.5729 70 34.4844 70 34.4844 67.5995C34.4844 65.5183 36.1742 63.8252 38.2513 63.8252C40.3283 63.8252 42.0178 65.5183 42.0178 67.5995C42.0178 70 39.9293 70 38.2513 70ZM38.2513 65.1924C36.9281 65.1924 35.8516 66.2722 35.8516 67.5995C35.8516 68.4783 36.2103 68.6328 38.2513 68.6328C40.2919 68.6328 40.6507 68.4783 40.6507 67.5995C40.6507 66.2719 39.5744 65.1924 38.2513 65.1924Z" fill="#253D4E"/>
<path d="M29.9131 70C28.235 70 26.1465 70 26.1465 67.5995C26.1465 65.5183 27.8363 63.8252 29.9131 63.8252C31.9898 63.8252 33.6797 65.5183 33.6797 67.5995C33.6797 70 31.5912 70 29.9131 70ZM29.9131 65.1924C28.5899 65.1924 27.5137 66.2722 27.5137 67.5995C27.5137 68.4783 27.8724 68.6328 29.9131 68.6328C31.9538 68.6328 32.3125 68.4783 32.3125 67.5995C32.3125 66.2719 31.2363 65.1924 29.9131 65.1924Z" fill="#253D4E"/>
<path d="M32.5503 66.5844C32.2044 66.5844 31.9077 66.323 31.8711 65.9716C31.4924 62.3332 29.9992 58.8513 29.9841 58.8166C29.8343 58.4701 29.9934 58.0676 30.3396 57.9175C30.6863 57.7677 31.0883 57.9265 31.2384 58.2727C31.3032 58.422 32.8298 61.9761 33.2309 65.83C33.27 66.2054 32.9974 66.5417 32.6217 66.5806C32.5976 66.5833 32.5738 66.5844 32.5503 66.5844Z" fill="#253D4E"/>
<path d="M35.6143 66.5844C35.5905 66.5844 35.5667 66.5833 35.5426 66.5806C35.1669 66.5415 34.8943 66.2054 34.9334 65.83C35.3346 61.9764 36.8614 58.4223 36.926 58.2727C37.0766 57.9263 37.4786 57.7671 37.825 57.9175C38.1715 58.0677 38.3306 58.4702 38.1805 58.8166C38.1655 58.8513 36.6719 62.333 36.2932 65.9716C36.2569 66.323 35.9602 66.5844 35.6143 66.5844Z" fill="#253D4E"/>
<path d="M34.0826 68.8656C33.6664 68.8656 33.2499 68.8358 32.845 68.7759C32.658 68.7483 32.4909 68.6447 32.3834 68.4894C32.2757 68.3341 32.2371 68.1413 32.2768 67.9565C32.3011 67.8427 32.3129 67.7259 32.3129 67.5991C32.3129 66.7615 31.8885 65.9975 31.1776 65.5551C30.4713 65.1154 29.6048 65.0725 28.8594 65.44C28.5733 65.5814 28.2269 65.5051 28.0259 65.2568C25.6317 62.2982 20.5048 54.5102 24.5951 46.1143C24.7318 45.8337 25.0414 45.6811 25.3465 45.744C26.5472 45.9893 27.6169 46.3978 28.5263 46.9581C30.2533 48.0218 32.215 48.584 34.1996 48.584C36.1842 48.584 38.1461 48.0218 39.8729 46.9581C40.7235 46.4339 41.7175 46.0421 42.8276 45.793C43.1372 45.7238 43.4546 45.8766 43.5927 46.1627C47.641 54.5422 42.526 62.3072 40.1389 65.2571C39.9382 65.5051 39.5918 65.5816 39.3055 65.4403C38.9716 65.2757 38.617 65.1925 38.2517 65.1925C36.9285 65.1925 35.852 66.2723 35.852 67.5996C35.852 67.7262 35.864 67.8433 35.8883 67.957C35.928 68.1416 35.8894 68.3346 35.7817 68.4899C35.6737 68.6452 35.5069 68.7489 35.3201 68.7765C34.9149 68.8358 34.4987 68.8656 34.0826 68.8656ZM33.6784 67.4875C33.9469 67.5025 34.2176 67.5025 34.4862 67.4875C34.5452 65.4578 36.2115 63.8248 38.2514 63.8248C38.6405 63.8248 39.0208 63.8844 39.3881 64.002C41.6546 61.0729 45.7113 54.4041 42.5936 47.2616C41.8474 47.4727 41.175 47.7612 40.5901 48.1216C38.6473 49.3181 36.4371 49.9506 34.1996 49.9506C31.9621 49.9506 29.7521 49.3181 27.8094 48.1216C27.1684 47.727 26.4258 47.4191 25.5959 47.2042C22.4306 54.3685 26.5021 61.0634 28.7768 64.0025C29.818 63.6687 30.9509 63.8038 31.8997 64.3944C32.9828 65.0681 33.6418 66.2182 33.6784 67.4875ZM40.2314 47.5397H40.2341H40.2314Z" fill="#253D4E"/>
<path d="M40.6602 66.3573C40.4535 66.3573 40.2564 66.2635 40.1262 66.1C39.9066 65.8246 39.6228 65.5966 39.3054 65.4399C39.1189 65.348 38.9843 65.1766 38.9398 64.9734C38.8952 64.7703 38.9452 64.5581 39.0759 64.3968C39.6195 63.7246 40.1361 63.0096 40.6105 62.2716C40.6137 62.2667 40.6168 62.2618 40.62 62.2571C41.7794 60.4491 43.2303 57.6371 43.6295 54.4073C43.6615 54.148 43.8387 53.9296 44.0856 53.8448C44.3325 53.7595 44.6059 53.8227 44.7913 54.0075C46.9146 56.1294 47.9468 58.2759 47.8598 60.3876C47.7584 62.8444 46.1708 64.6863 44.857 65.7987C44.752 65.8875 44.6229 65.9425 44.4862 65.9567C44.146 65.9923 43.7564 66.0338 43.3071 66.0819C42.6057 66.1569 41.7595 66.2471 40.7308 66.3537C40.7073 66.3559 40.6837 66.3573 40.6602 66.3573ZM40.6077 64.6587C40.7237 64.7519 40.8341 64.852 40.9383 64.9578C41.7988 64.8682 42.5243 64.7908 43.1389 64.7249C43.5075 64.6855 43.8362 64.6505 44.1307 64.6193C45.2015 63.6752 46.4166 62.2005 46.494 60.3313C46.5517 58.934 45.9657 57.4782 44.7498 55.991C44.2557 58.3341 43.2546 60.6873 41.7641 63.0055C41.7622 63.0088 41.7597 63.0121 41.7578 63.0156C41.3955 63.5786 41.0102 64.1288 40.6077 64.6587Z" fill="#253D4E"/>
<path d="M27.5052 66.3573C27.4817 66.3573 27.4582 66.3563 27.4347 66.3538C26.4106 66.2477 25.5674 66.1577 24.8676 66.0828C24.4148 66.0344 24.0224 65.9926 23.6798 65.9568C23.5431 65.9425 23.4138 65.8876 23.309 65.7987C21.9952 64.6864 20.4076 62.8448 20.3059 60.3879C20.2187 58.2759 21.2512 56.1291 23.3744 54.0073C23.559 53.823 23.8327 53.7595 24.0801 53.8446C24.3271 53.9296 24.504 54.1478 24.536 54.407C24.8447 56.9035 25.7946 59.4454 27.3595 61.9618C27.8891 62.8131 28.4702 63.6306 29.0901 64.3965C29.2208 64.5581 29.2708 64.7703 29.2262 64.9732C29.1814 65.1761 29.0471 65.3478 28.8606 65.4397C28.5426 65.5964 28.2588 65.8244 28.0401 66.0995C27.9094 66.2633 27.7119 66.3573 27.5052 66.3573ZM24.0353 64.6194C24.3229 64.6497 24.6434 64.6839 25.0016 64.7222C25.6218 64.7884 26.3549 64.8666 27.2277 64.9576C27.3316 64.8518 27.4423 64.752 27.5583 64.6588C27.0778 64.0266 26.6231 63.3665 26.2015 62.6889C24.8206 60.4683 23.8876 58.2226 23.4162 55.9908C22.2003 57.478 21.614 58.9343 21.672 60.3316C21.7491 62.2008 22.9645 63.6755 24.0353 64.6194Z" fill="#253D4E"/>
<path d="M48.1439 57.8937C47.4138 57.8937 46.6564 57.7528 45.8993 57.4348C45.7658 57.3788 45.6535 57.2814 45.5785 57.1573C45.1492 56.4442 44.563 55.7135 43.8367 54.9862C43.6787 54.8369 43.5915 54.6168 43.618 54.3994C43.6929 53.7926 43.7293 53.2228 43.7287 52.6571C43.7285 52.444 43.8277 52.2431 43.997 52.1135C47.6851 49.2929 50.7528 48.7078 52.6349 50.4685C53.9952 51.741 54.1669 53.5711 53.0825 55.2449C52.1276 56.7187 50.2516 57.8937 48.1439 57.8937ZM46.6263 56.2519C48.8171 57.058 50.9797 55.976 51.9354 54.5014C52.2769 53.9742 52.9376 52.6234 51.7013 51.4668C49.9363 49.8158 46.669 51.8395 45.0926 53.0008C45.0833 53.4044 45.0571 53.8118 45.0133 54.2326C45.6587 54.9031 46.1998 55.5804 46.6263 56.2519Z" fill="#253D4E"/>
<path d="M48.4772 69.9997H39.5177C39.3001 69.9997 39.0956 69.8961 38.9668 69.7208C38.8377 69.5456 38.8002 69.3194 38.8653 69.1116L38.8765 69.0758C38.9594 68.8114 39.1934 68.6233 39.4696 68.5992C40.472 68.512 40.6503 68.2612 40.6503 67.599C40.6503 67.0493 40.4688 66.5306 40.1253 66.0994C39.9697 65.9039 39.9328 65.6392 40.0296 65.409C40.1264 65.1785 40.3411 65.0193 40.5896 64.9936C41.6213 64.887 42.4698 64.7962 43.1725 64.7213C45.9236 64.4274 46.4956 64.3664 47.1338 64.5187C48.4061 64.8222 49.4058 65.8457 49.68 67.1254L49.8936 68.1199V68.1201C49.9975 68.6049 49.8881 69.0919 49.5939 69.4561C49.3153 69.8015 48.9079 69.9997 48.4772 69.9997ZM41.8365 68.6326H48.4772C48.4848 68.6326 48.5095 68.6235 48.5311 68.5967C48.5655 68.5541 48.5745 68.4884 48.5573 68.407L48.3438 67.4122C48.1791 66.6441 47.5798 66.0305 46.8169 65.8484C46.407 65.7508 45.7532 65.8205 43.3183 66.0808C42.8646 66.1292 42.3503 66.1842 41.7654 66.2457C41.9306 66.6758 42.0178 67.1352 42.0178 67.5992C42.0178 68.0127 41.9502 68.3528 41.8365 68.6326Z" fill="#253D4E"/>
<path d="M28.647 69.9999H19.6875C19.2569 69.9999 18.8497 69.8017 18.5705 69.4566C18.276 69.0924 18.1669 68.6054 18.2708 68.1206L18.4841 67.1255C18.7587 65.8459 19.7581 64.8227 21.0304 64.5189C21.6689 64.3666 22.2414 64.4278 24.9925 64.7215C25.6949 64.7967 26.5432 64.8872 27.5748 64.9938C27.8234 65.0195 28.038 65.1787 28.1348 65.4092C28.2316 65.6394 28.195 65.9044 28.0391 66.0996C27.6957 66.5308 27.5141 67.0493 27.5141 67.5991C27.5141 68.2611 27.6924 68.5119 28.6948 68.5994C28.9707 68.6234 29.2048 68.8116 29.2876 69.076L29.2989 69.1118C29.3639 69.3193 29.3262 69.5455 29.1974 69.721C29.0692 69.8963 28.8646 69.9999 28.647 69.9999ZM21.7955 65.8065C21.6024 65.8065 21.4651 65.8207 21.3481 65.8486C20.5849 66.0307 19.9856 66.6446 19.821 67.4121L19.6077 68.4069C19.5902 68.4884 19.5992 68.554 19.6339 68.5966C19.6577 68.6259 19.6829 68.6325 19.6878 68.6325H26.3285C26.215 68.3527 26.1472 68.0128 26.1472 67.5991C26.1472 67.1351 26.2342 66.6757 26.3996 66.2456C25.815 66.1841 25.3009 66.1291 24.8476 66.0807C23.1088 65.8951 22.2775 65.8065 21.7955 65.8065Z" fill="#253D4E"/>
<path d="M37.3301 34.6669C36.9536 34.6669 36.6479 34.3623 36.6465 33.9855C36.6443 33.3262 36.8992 32.7058 37.3634 32.2382C37.828 31.7706 38.4468 31.512 39.1061 31.5098H39.1137C40.4708 31.5098 41.5768 32.6114 41.5812 33.9693C41.5826 34.347 41.2774 34.654 40.8998 34.6551C40.8993 34.6551 40.8985 34.6551 40.8976 34.6551C40.5211 34.6551 40.2154 34.3505 40.214 33.9737C40.2121 33.3683 39.7186 32.877 39.1137 32.877C39.1126 32.877 39.1113 32.877 39.1102 32.877C38.8162 32.8778 38.5403 32.9932 38.3331 33.2018C38.1261 33.4102 38.0123 33.6869 38.0134 33.9808C38.0148 34.3584 37.7096 34.6655 37.332 34.6666C37.3315 34.6669 37.3306 34.6669 37.3301 34.6669Z" fill="#253D4E"/>
<path d="M30.8605 34.6611C30.4829 34.6611 30.1769 34.3551 30.1769 33.9775C30.1769 33.3708 29.6834 32.8772 29.0766 32.8772C28.4698 32.8772 27.9766 33.3708 27.9766 33.9775C27.9766 34.3551 27.6706 34.6611 27.293 34.6611C26.9154 34.6611 26.6094 34.3551 26.6094 33.9775C26.6094 32.6169 27.7163 31.51 29.0766 31.51C30.437 31.51 31.5441 32.6169 31.5441 33.9775C31.5441 34.3551 31.2381 34.6611 30.8605 34.6611Z" fill="#253D4E"/>
<path d="M51.8376 42.9298C51.7301 42.9298 51.6213 42.9044 51.5198 42.8511L50.9473 42.5498C47.9569 40.9758 44.737 39.9986 41.3759 39.6447C41.0004 39.6051 40.7281 39.2688 40.7675 38.8933C40.8071 38.5176 41.1456 38.2461 41.5189 38.2849C45.0533 38.6571 48.4398 39.6849 51.5838 41.3398L52.1564 41.6411C52.4908 41.8169 52.6188 42.2304 52.443 42.5645C52.3207 42.7972 52.0834 42.9298 51.8376 42.9298Z" fill="#253D4E"/>
<path d="M50.1387 47.5073C49.9724 47.5073 49.8056 47.4468 49.6741 47.3249L49.2 46.8849C46.7221 44.5864 43.8674 42.8044 40.7149 41.5882C40.3627 41.4523 40.1875 41.0566 40.3234 40.7044C40.459 40.3522 40.8544 40.1761 41.2071 40.3126C44.522 41.5917 47.5241 43.4656 50.1297 45.8825L50.6038 46.3224C50.8808 46.5792 50.8966 47.0118 50.6402 47.2885C50.5054 47.4337 50.3224 47.5073 50.1387 47.5073Z" fill="#253D4E"/>
<path d="M16.899 42.9299C16.6535 42.9299 16.4159 42.797 16.2936 42.5646C16.1178 42.2305 16.2461 41.817 16.5802 41.6412L17.1528 41.3399C20.2973 39.685 23.6836 38.6572 27.2177 38.285C27.5929 38.2443 27.9298 38.5177 27.9692 38.8934C28.0088 39.2689 27.7362 39.6055 27.3608 39.6448C23.9997 39.9987 20.7797 40.9759 17.7896 42.5498L17.217 42.8512C17.1153 42.9048 17.0062 42.9299 16.899 42.9299Z" fill="#253D4E"/>
<path d="M18.5996 47.5071C18.4161 47.5071 18.2329 47.4336 18.0984 47.2884C17.8416 47.0117 17.858 46.5791 18.1347 46.3223L18.6089 45.8824C21.2142 43.4657 24.2163 41.5916 27.5314 40.3125C27.8836 40.1763 28.2793 40.3521 28.4152 40.7043C28.5511 41.0565 28.3755 41.4521 28.0233 41.588C24.8709 42.8043 22.0159 44.5866 19.5383 46.8848L19.0642 47.3248C18.9326 47.4467 18.7658 47.5071 18.5996 47.5071Z" fill="#253D4E"/>
<path d="M34.0837 68.8656C33.6675 68.8656 33.2511 68.8357 32.8461 68.7759C32.6591 68.7482 32.492 68.6446 32.3845 68.4893C32.2768 68.334 32.2382 68.1412 32.2779 67.9564C32.3022 67.8426 32.314 67.7259 32.314 67.599C32.314 67.1484 32.1978 66.7295 31.9684 66.3535C31.9156 66.2668 31.8825 66.1692 31.8721 66.0683C31.6195 63.6418 30.9044 61.3518 30.6086 60.4798C30.5979 60.4483 30.5897 60.4161 30.5837 60.3833L30.5115 59.9917C30.5038 59.9504 30.5 59.9083 30.5 59.8662V54.3244C30.5 52.3406 32.1138 50.7268 34.0976 50.7268C35.0645 50.7268 35.9718 51.105 36.6523 51.7916C37.3329 52.4782 37.7034 53.3887 37.695 54.3556L37.6714 59.8692C37.6712 59.9099 37.6673 59.9507 37.66 59.9909L37.593 60.3548C37.587 60.3876 37.5785 60.4199 37.5678 60.4513C37.2698 61.3272 36.5493 63.6287 36.2947 66.0735C36.2843 66.1738 36.2518 66.2706 36.1993 66.357C35.9726 66.7311 35.8525 67.1607 35.8525 67.5993C35.8525 67.7259 35.8646 67.8429 35.8889 67.9566C35.9286 68.1412 35.89 68.3343 35.7823 68.4896C35.6743 68.6449 35.5075 68.7485 35.3207 68.7761C34.916 68.8358 34.4998 68.8656 34.0837 68.8656ZM33.6795 67.4874C33.948 67.5025 34.219 67.5025 34.4873 67.4874C34.505 66.8908 34.6639 66.3078 34.9505 65.7861C35.2275 63.3017 35.9414 60.9938 36.2572 60.0587L36.3045 59.8025L36.3278 54.3471C36.333 53.7447 36.1033 53.1801 35.6814 52.7543C35.2595 52.3286 34.6967 52.0943 34.0976 52.0943C32.8677 52.0943 31.8672 53.0948 31.8672 54.3247V59.8038L31.9194 60.0879C32.2328 61.0184 32.9415 63.3142 33.2161 65.7804C33.5029 66.3004 33.662 66.8853 33.6795 67.4874ZM36.9879 59.8662H36.9906H36.9879Z" fill="#253D4E"/>
<path d="M34.2004 40.6662C32.2849 40.6662 30.1816 39.0147 30.1816 37.5105C30.1816 35.7241 32.6973 35.7241 34.2004 35.7241C35.7034 35.7241 38.2191 35.7241 38.2191 37.5105C38.2193 39.0147 36.1158 40.6662 34.2004 40.6662ZM34.2004 37.0913C31.74 37.0913 31.5488 37.4121 31.5488 37.5105C31.5488 38.0727 32.8799 39.299 34.2004 39.299C35.5208 39.299 36.8519 38.073 36.8519 37.5105C36.8521 37.4123 36.6607 37.0913 34.2004 37.0913Z" fill="#253D4E"/>
<path d="M34.8648 45.3046H33.537C32.6981 45.3046 32.0156 44.6221 32.0156 43.7832V42.9388C32.0156 42.6249 32.2295 42.3512 32.5341 42.2755C33.1129 42.1316 33.5171 41.6148 33.5171 41.0193C33.5171 40.6417 33.823 40.3357 34.2007 40.3357C34.5783 40.3357 34.8843 40.6417 34.8843 41.0193C34.8843 41.6151 35.2887 42.1316 35.8675 42.2755C36.1721 42.3512 36.386 42.6249 36.386 42.9388V43.7832C36.386 44.6218 35.7035 45.3046 34.8648 45.3046ZM33.3828 43.4146V43.7829C33.3828 43.8666 33.4534 43.9371 33.537 43.9371H34.8648C34.9485 43.9371 35.0191 43.8666 35.0191 43.7829V43.4146C34.7052 43.2631 34.4284 43.0534 34.2009 42.801C33.9732 43.0537 33.6967 43.2631 33.3828 43.4146Z" fill="#253D4E"/>
<path d="M43.6068 27.3311C43.397 27.3311 43.1977 27.2348 43.0673 27.0678C42.1138 25.8433 40.9788 24.8379 39.6942 24.0791C39.4872 23.9569 39.3595 23.7348 39.3581 23.4945C39.339 20.0828 39.7245 16.01 40.3895 12.5999C41.0788 9.06738 41.9776 6.61957 43.1376 5.11757C44.2209 3.71457 45.5271 3.14964 47.019 3.44168C47.9725 3.62761 48.7348 4.12199 49.2852 4.9114C49.3501 5.00437 49.3908 5.11211 49.4039 5.22503C49.6249 7.16535 49.4324 9.7105 48.8319 12.7897C47.9025 17.5549 46.0923 23.1122 44.2209 26.9475C44.1173 27.1594 43.9119 27.3032 43.6776 27.3275C43.6538 27.3297 43.6303 27.3311 43.6068 27.3311ZM40.725 23.107C41.7209 23.7368 42.6306 24.5018 43.4416 25.3913C45.1014 21.7223 46.6567 16.8024 47.4904 12.528C48.0452 9.68343 48.2383 7.34062 48.0652 5.56027C47.7327 5.14464 47.3036 4.89007 46.7581 4.78371C45.7891 4.59558 44.9827 4.96636 44.2204 5.95347C43.2078 7.2646 42.3706 9.5891 41.7324 12.8619C41.1073 16.0625 40.7354 19.8608 40.725 23.107Z" fill="#253D4E"/>
<path d="M24.7942 27.3309C24.7707 27.3309 24.7469 27.3298 24.7231 27.3271C24.4885 27.3028 24.2831 27.159 24.1798 26.947C22.3081 23.1118 20.4982 17.5545 19.5688 12.7893C18.9683 9.71035 18.7758 7.1652 18.997 5.22434C19.0099 5.11168 19.0506 5.00395 19.1154 4.91098C19.6656 4.12156 20.4279 3.62692 21.3817 3.44125C26.0503 2.53043 27.5255 10.1096 28.0114 12.5998C28.6767 16.0101 29.0623 20.0827 29.0428 23.4943C29.0415 23.7347 28.9138 23.9567 28.7068 24.0792C27.4225 24.8375 26.2877 25.8432 25.3337 27.0676C25.203 27.2347 25.0036 27.3309 24.7942 27.3309ZM20.336 5.55985C20.1627 7.34047 20.3557 9.68328 20.9105 12.5276C21.7443 16.802 23.2996 21.7219 24.9596 25.3912C25.7706 24.5014 26.6801 23.7363 27.6759 23.1069C27.6655 19.8609 27.2937 16.0623 26.6694 12.8614C25.5401 7.07086 23.8497 4.35399 21.6434 4.78328C21.0976 4.88938 20.6685 5.14395 20.336 5.55985Z" fill="#253D4E"/>
</g>
<defs>
<clipPath id="clip0_1621_967">
<rect width="70" height="70" fill="white"/>
</clipPath>
</defs>
</svg>
