<svg width="70" height="70" viewBox="0 0 70 70" fill="none" xmlns="http://www.w3.org/2000/svg">
<g clip-path="url(#clip0_1635_62198)">
<path d="M0.791016 59.8766C0.81722 59.5089 0.839292 59.1409 0.870812 58.7736C0.900411 58.4288 0.919451 58.0812 0.979761 57.7413C1.07993 57.1767 1.36017 56.729 1.90533 56.4842C1.92555 56.4751 1.94296 56.4598 1.97797 56.4365C1.9261 56.2853 1.87287 56.1344 1.82245 55.9825C1.61538 55.3587 1.38097 54.7458 1.27834 54.0884C1.10818 52.9984 1.47075 52.1033 2.20107 51.3211C2.83269 50.6445 3.64178 50.3117 4.52544 50.1426C4.89724 50.0714 5.28088 50.0579 5.66011 50.0324C5.76732 50.0252 5.823 49.9973 5.86825 49.8985C6.13997 49.3052 6.40506 48.7083 6.69891 48.126C6.98978 47.5496 7.42942 47.1317 8.08499 46.9922C8.53095 46.8973 8.97 46.9561 9.40515 47.067C9.4989 47.091 9.59238 47.1159 9.72093 47.1495C9.6768 46.892 9.63687 46.6619 9.598 46.4316C9.45213 45.5672 9.73273 44.9498 10.4814 44.4958C11.231 44.0412 12.0625 43.7892 12.8979 43.5628C13.4812 43.4048 14.083 43.3151 14.6765 43.195C14.732 43.1838 14.7877 43.1735 14.8724 43.1572C14.7742 42.9913 14.687 42.8436 14.5994 42.6962C14.4549 42.4528 14.3085 42.2105 14.1663 41.9657C14.1222 41.8897 14.0811 41.8647 13.9868 41.8985C12.4549 42.4473 11.0636 42.1094 9.85538 41.1058C8.70989 40.1543 8.07614 38.8882 7.99169 37.3855C7.94722 36.5943 8.17727 35.8579 8.54894 35.1608C8.93382 34.4389 9.44821 33.861 10.2362 33.5715C10.3385 33.5339 10.3456 33.4783 10.3145 33.3848C9.83663 31.9488 9.83039 30.4797 10.0087 28.9974C10.1373 27.9285 10.3867 26.8927 10.8924 25.9358C11.094 25.5544 11.3413 25.196 11.583 24.8375C11.6871 24.6832 11.7509 24.5305 11.7616 24.3436C11.8547 22.7226 11.2454 21.379 10.1006 20.2761C9.27816 19.4838 8.5478 18.613 7.79823 17.7572C7.77238 17.7277 7.7511 17.6941 7.71699 17.648C7.79625 17.598 7.8665 17.5506 7.9396 17.5081C8.50585 17.1787 9.13291 17.0539 9.77052 16.9633C10.859 16.8087 11.9513 16.7176 13.052 16.7457C14.0024 16.77 14.94 16.8863 15.8628 17.1176C15.9915 17.1499 16.1223 17.1737 16.2525 17.1992C16.2913 17.2068 16.3315 17.2068 16.3863 17.2116C16.381 17.1747 16.3829 17.1472 16.3732 17.1248C15.8908 16.0189 15.1997 15.0741 14.237 14.3341C13.7161 13.9338 13.4758 13.6263 13.1582 13.0099C13.5106 12.7538 13.9108 12.6217 14.3371 12.5531C15.1489 12.4224 15.9497 12.5294 16.7491 12.663C18.209 12.907 19.612 13.3433 20.9729 13.9199C21.609 14.1893 22.1773 14.5546 22.6073 15.112C22.6267 15.1115 22.6461 15.1109 22.6655 15.1104C22.714 14.8611 22.7932 14.6132 22.8056 14.3622C22.8629 13.192 22.5091 12.178 21.6195 11.3805C21.4733 11.2494 21.3292 11.1157 21.1887 10.9785C20.9217 10.718 20.7484 10.402 20.6505 10.0434C20.5556 9.6956 20.6462 9.52711 20.9934 9.43659C21.4226 9.3247 21.8616 9.29542 22.3005 9.35037C23.7908 9.53698 25.0967 10.1698 26.2827 11.0589C27.2228 11.7635 28.0018 12.6187 28.5199 13.6871C28.5965 13.8452 28.6882 13.8769 28.8575 13.8599C29.7356 13.7714 30.6 13.8668 31.4458 14.1121C32.8494 14.5192 34.1617 15.1228 35.3491 15.9805C36.2245 16.6129 36.9214 17.4058 37.4267 18.3633C37.4402 18.3888 37.4537 18.4143 37.4692 18.4386C37.4748 18.4474 37.4861 18.4525 37.5036 18.4661C37.5201 18.4443 37.5418 18.4252 37.5517 18.4011C37.8774 17.6103 38.1878 16.8146 38.3276 15.9642C38.4251 15.3713 38.335 14.7903 38.2257 14.2099C38.2012 14.0794 38.1751 13.9491 38.1542 13.818C38.1321 13.6794 38.1979 13.5997 38.3351 13.6105C38.4481 13.6194 38.5761 13.6301 38.6679 13.6874C39.6207 14.2819 40.551 14.9083 41.2946 15.766C41.965 16.5393 42.4463 17.4098 42.6138 18.4336C42.7431 19.2236 42.6334 19.9867 42.3546 20.7307C42.3392 20.7718 42.3246 20.8131 42.301 20.8777C42.3538 20.8583 42.3859 20.8512 42.4133 20.8357C42.9971 20.5077 43.5838 20.1848 44.1623 19.8477C44.5046 19.6482 44.5791 19.6475 44.8424 19.9366C45.3955 20.544 45.8298 21.2183 45.9939 22.0374C46.2 23.0658 45.9414 23.9943 45.3698 24.8513C45.281 24.9844 45.1847 25.1125 45.0806 25.2587C45.1776 25.3062 45.2596 25.3452 45.3406 25.3863C46.2688 25.858 47.0259 26.5035 47.4307 27.491C47.7582 28.2899 47.823 29.1187 47.6134 29.9553C47.3384 31.0527 46.6167 31.7219 45.5417 32.0288C45.3148 32.0935 45.3148 32.0925 45.3842 32.3116C45.853 33.7921 45.9518 35.2779 45.4432 36.7708C45.1237 37.7089 44.603 38.5283 43.9557 39.2719C43.9109 39.3234 43.8677 39.3763 43.823 39.4294C44.435 39.8499 44.9366 40.3692 45.3828 40.9355C45.6376 41.2589 45.8419 41.6273 46.0313 41.9949C46.1257 42.1783 46.2388 42.2568 46.4282 42.2626C46.7747 42.2733 47.1212 42.282 47.4675 42.297C48.0455 42.3222 48.5317 42.5443 48.9034 42.993C49.0125 43.1246 49.1343 43.1786 49.3081 43.1709C49.9333 43.1432 50.5352 43.2899 51.1351 43.4413C52.4056 43.7621 53.6789 44.0729 54.944 44.4142C55.2432 44.4949 55.5442 44.64 55.7927 44.8249C56.6332 45.4505 57.5923 45.809 58.5722 46.1271C58.6878 46.1646 58.8275 46.1654 58.9485 46.1428C59.4932 46.0409 59.966 46.1993 60.3954 46.5207C60.9965 46.9708 61.4833 47.5199 61.8118 48.2003C61.8799 48.3412 61.9678 48.4473 62.1388 48.4334C63.2327 48.3446 64.098 48.8053 64.8473 49.552C65.8279 50.5292 66.6352 51.638 67.3423 52.8235C67.4517 53.0071 67.5508 53.197 67.6651 53.3775C68.1721 54.1781 68.2682 55.0476 68.1056 55.9613C68.0338 56.3649 67.9613 56.7683 67.8837 57.1708C67.8417 57.3882 67.8946 57.5664 68.0574 57.7198C68.2886 57.9375 68.5281 58.1496 68.7346 58.3894C68.8983 58.5796 69.0431 58.7958 69.1514 59.022C69.348 59.4328 69.2967 59.8415 69.0059 60.1913C68.8418 60.3887 68.643 60.5645 68.4358 60.7175C67.7993 61.1874 67.0885 61.5212 66.3529 61.8046C66.1158 61.8959 65.8807 61.9929 65.6409 62.0764C65.532 62.1144 65.5017 62.172 65.5172 62.2821C65.5584 62.5736 65.5955 62.8659 65.6255 63.1588C65.6902 63.7906 65.5037 64.3503 65.0993 64.8309C64.3481 65.7232 63.3886 66.2667 62.2283 66.3737C61.5712 66.4343 60.9011 66.405 60.2402 66.3635C58.7002 66.267 57.1611 66.1759 55.617 66.2129C55.4542 66.2168 55.3498 66.3033 55.2491 66.4108C54.8244 66.8645 54.3542 67.2626 53.8195 67.5826C52.8698 68.151 51.8373 68.3926 50.7374 68.3506C50.5562 68.3437 50.3784 68.2691 50.1964 68.245C50.1329 68.2365 50.0568 68.2773 49.9957 68.3118C49.9595 68.3323 49.94 68.3838 49.9151 68.4227C49.3049 69.376 48.4086 69.8097 47.3026 69.887C45.8542 69.9882 44.4183 69.8695 42.9818 69.6994C42.6364 69.6585 42.2794 69.6994 41.9289 69.721C41.1393 69.7695 40.3508 69.8357 39.5611 69.8827C38.898 69.9222 38.2339 69.9443 37.5703 69.9756C37.5254 69.9777 37.481 69.9916 37.4364 70C37.2168 70 36.9973 70 36.7777 70C36.7098 69.9883 36.6424 69.9706 36.574 69.966C35.7473 69.9097 34.9897 69.6654 34.3296 69.1506C34.0653 68.9445 33.769 68.8974 33.4456 68.9712C32.883 69.0998 32.3199 69.2263 31.756 69.3487C30.9881 69.5153 30.2166 69.5875 29.4364 69.4292C28.441 69.2272 27.445 69.0281 26.4488 68.8304C26.0495 68.7512 25.6626 68.6547 25.2384 68.7627C24.025 69.0717 22.8019 69.3427 21.583 69.63C20.879 69.796 20.1713 69.8576 19.4533 69.728C18.4243 69.5422 17.5111 69.0894 16.6877 68.4682C16.2063 68.105 15.7765 67.6721 15.3345 67.2588C15.206 67.1385 15.0943 67.0956 14.9106 67.1105C14.5863 67.1368 14.2495 67.1452 13.9314 67.087C12.672 66.8565 11.4041 66.7451 10.1252 66.7337C9.24777 66.7259 8.37025 66.7138 7.49297 66.6935C6.97611 66.6815 6.45968 66.6266 6.00201 66.3647C5.63246 66.1532 5.27701 65.9139 4.93097 65.6652C4.17605 65.1225 3.4331 64.5633 2.68101 64.0167C2.41962 63.8267 2.13701 63.6655 1.87934 63.4709C1.33934 63.0632 0.976438 62.5355 0.847469 61.8609C0.831376 61.7768 0.809968 61.6936 0.79103 61.61C0.791016 61.0323 0.791016 60.4544 0.791016 59.8766ZM45.7829 30.1823C45.7037 30.1159 45.6443 30.0507 45.5716 30.0079C45.3052 29.8509 45.0453 29.675 44.7618 29.5572C44.522 29.4576 44.2666 29.4967 44.0393 29.6566C43.917 29.7427 43.9091 29.8153 43.9917 29.9378C44.3398 30.4546 44.6793 30.9772 45.0216 31.498C45.2059 31.7783 45.2056 31.7785 45.4832 31.5977C45.5025 31.5851 45.5205 31.5706 45.5397 31.5578C45.8372 31.3599 46.0139 31.0578 46.2136 30.7759C46.7211 30.0595 46.9811 29.2762 46.7876 28.3975C46.5514 27.3252 45.8807 26.5794 44.9182 26.1039C44.161 25.7298 43.3097 25.878 42.7097 26.5684C42.4223 26.8991 42.2344 27.271 42.078 27.6711C42.0247 27.8075 41.9222 27.9246 41.8412 28.0519C41.6324 27.9108 41.5529 27.7597 41.6054 27.5521C41.6518 27.3685 41.6963 27.1844 41.7408 27.0003C41.756 26.9371 41.7686 26.8732 41.7848 26.7983C41.15 26.8642 40.5422 26.8166 39.9406 26.7076C38.9592 26.5297 38.016 26.2144 37.1277 25.7705C36.0489 25.2315 34.995 24.6421 33.9381 24.0604C33.6923 23.9251 33.4856 23.8978 33.2289 24.0341C32.8118 24.2555 32.3809 24.4531 31.9471 24.6403C30.2051 25.3921 28.4014 25.9362 26.5144 26.1634C25.6579 26.2665 24.7947 26.3328 23.9327 26.3638C23.2944 26.3868 22.653 26.3284 22.0132 26.3011C21.7833 26.2913 21.5537 26.2697 21.3246 26.2472C20.9582 26.2112 20.5917 26.1755 20.2266 26.129C19.9626 26.0953 19.7959 26.2076 19.6546 26.4232C19.4016 26.8091 19.1553 27.2048 18.8576 27.555C17.2973 29.3904 15.95 31.3758 14.6794 33.4165C14.4187 33.8351 14.2097 34.2756 14.1625 34.7776C14.1463 34.9494 14.121 35.123 13.908 35.2179C13.84 35.127 13.7429 35.042 13.7034 34.9356C13.5894 34.629 13.3692 34.4656 13.0654 34.3825C12.5329 34.2368 11.9937 34.1709 11.4416 34.2076C10.89 34.2443 10.3886 34.4101 9.97555 34.786C9.25537 35.4414 8.98817 36.2979 8.94274 37.2355C8.91191 37.8719 9.09166 38.4706 9.39357 39.0248C10.2351 40.5698 11.6166 41.323 13.2868 41.6344C13.4482 41.6645 13.6298 41.6679 13.7854 41.6242C13.9383 41.5813 14.081 41.4763 14.2084 41.3739C14.417 41.206 14.5197 41.2094 14.6758 41.4291C14.7091 41.4761 14.7338 41.5293 14.7681 41.5754C14.9884 41.8713 15.1894 42.1847 15.4353 42.4576C16.1883 43.2934 17.1292 43.8612 18.1628 44.2773C20.0943 45.0548 22.122 45.3549 24.1869 45.4131C25.4431 45.4486 26.7022 45.4572 27.9546 45.2862C28.5354 45.2068 29.1245 45.1858 29.7039 45.0982C30.4527 44.985 31.2001 44.853 31.9399 44.6916C34.8596 44.0548 37.5732 42.9224 40.0571 41.255C41.6005 40.219 42.9652 39.0003 43.962 37.4051C44.4394 36.6411 44.6704 35.8137 44.6961 34.92C44.7211 34.0508 44.5962 33.1973 44.413 32.3527C44.1619 31.1952 43.7394 30.1118 42.9629 29.193C42.938 29.1635 42.9042 29.1196 42.9102 29.0894C42.9708 28.7812 42.9916 28.4585 43.2454 28.2216C43.5205 27.9647 43.8541 27.8261 44.211 27.7464C44.4678 27.6891 44.7712 27.8526 44.9007 28.0924C44.2823 28.3636 43.6995 28.6951 43.1529 29.1193C43.2175 29.177 43.2796 29.2201 43.3257 29.2763C43.4114 29.3809 43.4841 29.3726 43.5865 29.2911C43.6939 29.2056 43.8174 29.1376 43.9407 29.0753C44.4468 28.8195 44.9455 28.8066 45.4283 29.1375C45.7636 29.3671 45.9117 29.78 45.7829 30.1823ZM17.8299 50.1646C17.822 50.1934 17.8144 50.2054 17.8168 50.2147C17.8316 50.2702 17.847 50.3257 17.8652 50.3801C18.0963 51.0719 18.2316 51.7851 18.11 52.5064C17.9796 53.2803 17.7248 54.0258 17.3485 54.7197C17.0481 55.2736 16.72 55.8063 16.1825 56.1791C15.4408 56.6936 14.658 56.7333 14.0212 56.2244C13.791 56.0405 13.5787 55.8081 13.4273 55.5563C12.9006 54.6805 12.4043 53.7866 11.8961 52.8997C11.8639 52.8436 11.8283 52.7894 11.7804 52.7119C11.76 52.7603 11.7495 52.7742 11.7486 52.7887C11.7132 53.3818 11.6708 53.9747 11.6468 54.5683C11.6302 54.978 11.4684 55.3191 11.1458 55.5498C10.5103 56.0043 9.83733 56.394 9.05304 56.5434C8.90477 56.5716 8.75994 56.618 8.59464 56.6609C8.6267 56.7099 8.63538 56.7314 8.65075 56.7455C9.46231 57.4931 9.99712 58.4072 10.2779 59.4702C10.3089 59.5875 10.3787 59.6115 10.4695 59.6308C10.9694 59.7367 11.4732 59.8266 11.9689 59.9494C13.4157 60.3078 14.7684 60.876 15.9575 61.7938C16.1469 61.94 16.3295 62.095 16.5109 62.2424C16.5363 62.2246 16.5485 62.22 16.5546 62.2112C16.5939 62.1543 16.6323 62.0966 16.6704 62.0389C16.9681 61.5889 17.3454 61.2218 17.8061 60.9397C18.3554 60.6033 18.9686 60.4425 19.5851 60.295C20.1084 60.1698 20.6385 60.0969 21.1744 60.2176C21.9694 60.3968 22.7381 60.6553 23.4665 61.0223C24.1547 61.3689 24.7364 61.8429 25.1355 62.5134C25.2058 62.6314 25.2688 62.6517 25.3945 62.6136C26.1487 62.3849 26.9053 62.1642 27.6611 61.9408C28.8303 61.5952 30.0032 61.5446 31.1834 61.8881C31.9827 62.1208 32.7157 62.4905 33.4105 62.9427C33.5315 63.0214 33.6478 63.0804 33.8116 63.045C34.9284 62.8035 36.0241 62.4489 37.1701 62.3645C37.6151 62.3317 38.0677 62.3625 38.5142 62.3983C39.0236 62.4392 39.5285 62.5417 40.0382 62.5746C40.8023 62.6239 41.5149 62.812 42.1504 63.2463C42.2666 63.3258 42.3413 63.3155 42.4538 63.2441C43.4141 62.6348 44.3821 62.0376 45.3409 61.426C45.8077 61.1283 46.3057 61.0765 46.8345 61.1716C47.496 61.2905 48.0834 61.5654 48.5983 61.9978C48.7837 62.1535 48.9896 62.2086 49.2252 62.1132C49.3585 62.0592 49.4987 62.0222 49.6321 61.9683C50.7663 61.5097 51.9401 61.4048 53.1441 61.5737C53.4669 61.619 53.6932 61.5359 53.8669 61.2228C54.4351 60.1985 55.133 59.2731 55.9742 58.4473C56.9668 57.4728 58.1196 57.1808 59.4519 57.4811C59.7474 57.5477 60.0434 57.6118 60.365 57.6828C60.365 57.3185 60.3524 56.9787 60.3678 56.6401C60.3951 56.0403 60.2372 55.5107 59.8825 55.0188C59.498 54.4854 59.3404 53.8827 59.4573 53.2165C59.4955 52.9988 59.4975 52.7675 59.472 52.5475C59.41 52.0135 59.1409 51.5561 58.881 51.0999C58.7582 50.8843 58.5661 50.7468 58.3157 50.7101C58.1168 50.6809 57.9162 50.663 57.7164 50.6396C56.8479 50.5377 55.9788 50.4406 55.1111 50.3322C54.1296 50.2096 53.1488 50.0815 52.1689 49.9463C51.7768 49.8922 51.4194 49.7655 51.2979 49.3259C51.2397 49.1155 51.1724 48.9036 51.1504 48.6881C51.1212 48.4022 50.9629 48.2821 50.7049 48.2188C50.1123 48.0734 49.5217 47.9193 48.9332 47.7583C48.3334 47.5942 47.7201 47.4607 47.2087 47.0716C47.1818 47.0511 47.1283 47.0404 47.0987 47.0528C46.9075 47.1329 46.715 47.2122 46.5319 47.3087C46.3838 47.3866 46.3257 47.5257 46.3081 47.6941C46.2826 47.9388 46.2539 48.1859 46.193 48.4233C46.0951 48.8047 45.8382 48.9732 45.4472 48.9411C45.3562 48.9337 45.2668 48.9066 45.1767 48.8882C44.7408 48.7991 44.4003 48.543 44.0817 48.2535C43.7873 47.986 43.4627 47.74 43.2191 47.4311C42.726 46.8061 42.2786 46.1449 41.8125 45.4986C41.5583 45.1461 41.5584 45.146 41.1647 45.3464C41.1442 45.3568 41.1238 45.3676 41.1033 45.3782C40.9321 45.4677 40.7609 45.5571 40.5801 45.6516C41.1563 46.663 41.7183 47.6493 42.2819 48.6385C42.2425 48.671 42.2167 48.6933 42.1899 48.7143C41.213 49.4801 40.1269 50.0514 38.9649 50.472C35.8422 51.6022 32.6416 52.4163 29.332 52.7567C28.4555 52.8468 27.573 52.8802 26.6927 52.9301C26.1509 52.9609 25.6083 52.9825 25.0657 52.9919C24.413 53.0032 23.7569 53.0371 23.1079 52.9875C22.4624 52.9381 21.8216 52.81 21.183 52.6932C20.4765 52.5639 19.996 52.1611 19.7832 51.4591C19.6779 51.1116 19.56 50.7679 19.4465 50.4229C19.3997 50.2807 19.3888 50.0788 19.2899 50.0149C19.1858 49.9475 18.9948 50.0027 18.8439 50.0214C18.5028 50.0639 18.163 50.117 17.8299 50.1646ZM8.66754 17.9555C8.6645 17.9862 8.66147 18.0169 8.65843 18.0475C9.06788 18.1558 9.36554 18.421 9.65801 18.6991C9.95505 18.9815 10.2752 19.2397 10.5701 19.5243C11.2682 20.1981 11.8229 20.9736 12.1779 21.8819C12.5645 22.8713 12.4739 23.8869 12.323 24.9024C12.297 25.0771 12.1601 25.1639 11.9827 25.1622C11.8765 25.1611 11.8357 25.2052 11.809 25.3078C11.6477 25.9264 11.4931 26.5473 11.3074 27.1587C10.9609 28.3 10.7268 29.4596 10.6832 30.6533C10.6533 31.4697 10.7425 32.2766 10.9047 33.0763C10.9677 33.3869 10.9663 33.3784 11.281 33.3896C11.7009 33.4046 12.1262 33.4001 12.5382 33.4694C12.9099 33.5318 13.2701 33.6729 13.6288 33.7982C13.7934 33.8557 13.868 33.8249 13.9425 33.6652C14.7899 31.8485 15.821 30.142 17.025 28.5388C17.7545 27.5676 18.5407 26.6584 19.6118 26.0419C19.6579 26.0154 19.7085 25.9632 19.7195 25.9145C19.7899 25.6018 20.0222 25.5333 20.2929 25.521C20.3908 25.5165 20.4892 25.5256 20.5873 25.5281C21.303 25.5465 22.0187 25.5699 22.7345 25.5808C23.0345 25.5854 23.3347 25.5588 23.6349 25.5547C24.6575 25.541 25.6694 25.431 26.6713 25.2268C28.0067 24.9545 29.3445 24.6934 30.6766 24.4057C31.7264 24.179 32.7989 24.0313 33.7831 23.5532C33.9073 23.4929 34.104 23.5211 34.2454 23.5704C34.5001 23.6591 34.7372 23.7973 34.9838 23.9103C36.0114 24.3814 37.0275 24.8807 38.0713 25.3126C39.1934 25.7769 40.3817 26.0094 41.5827 26.1805C41.9533 26.2334 42.2521 26.1785 42.4824 25.8664C42.5364 25.7932 42.6127 25.7355 42.6825 25.675C42.989 25.4095 43.325 25.1945 43.7425 25.1767C44.0825 25.1622 44.3215 25.0155 44.4822 24.7211C44.5481 24.6004 44.6172 24.4794 44.7009 24.3708C45.0667 23.8963 45.2146 23.3532 45.2532 22.7635C45.3073 21.937 44.9317 21.2451 44.5933 20.539C44.5893 20.5307 44.5738 20.5279 44.5618 20.5214C44.3574 20.6582 44.1531 20.7966 43.947 20.9325C43.4045 21.29 42.8122 21.5211 42.1704 21.6218C41.9081 21.663 41.6351 21.7182 41.495 21.3957C41.4653 21.3274 41.4342 21.2484 41.4411 21.1779C41.454 21.0475 41.493 20.9194 41.5237 20.7909C41.7009 20.0493 41.8303 19.3066 41.7179 18.5368C41.6095 17.7937 41.2819 17.1448 40.8331 16.5716C40.3964 16.0139 39.8817 15.5171 39.4002 14.9945C39.3719 14.9638 39.3347 14.9413 39.279 14.8968C39.2645 15.0646 39.26 15.2025 39.2396 15.338C39.1872 15.6844 39.1683 16.0426 39.0628 16.3727C38.826 17.1137 38.548 17.8417 38.2786 18.5719C38.2275 18.7104 38.151 18.8436 38.0651 18.9642C37.8768 19.2287 37.7636 19.2373 37.5138 19.0299C37.4872 19.0078 37.4613 18.9845 37.4371 18.9598C37.2441 18.7622 37.0633 18.5508 36.8563 18.3691C36.5094 18.0646 36.154 17.7685 35.7877 17.4876C35.1425 16.9928 34.5191 16.4585 33.8278 16.0371C32.5135 15.2359 31.0928 14.6798 29.5507 14.492C29.1943 14.4486 28.8254 14.4192 28.4978 14.6452C28.4363 14.5873 28.3779 14.5399 28.3282 14.4845C27.9275 14.0371 27.531 13.5859 27.1282 13.1404C26.5857 12.5403 26.0483 11.9313 25.3706 11.4774C25.0508 11.2632 24.6954 11.103 24.3641 10.9049C23.5582 10.4231 22.6935 10.1342 21.7534 10.0833C21.6193 10.0761 21.4846 10.0824 21.3502 10.0824C21.348 10.0998 21.3459 10.1172 21.3438 10.1347C21.3677 10.156 21.3895 10.1807 21.416 10.198C21.7561 10.4204 22.0907 10.6387 22.388 10.9303C23.0894 11.6184 23.5444 12.4141 23.5162 13.4061C23.498 14.0474 23.411 14.6951 23.2719 15.3216C23.1904 15.688 22.9886 15.801 22.6406 15.6186C22.4108 15.4981 22.1781 15.3802 21.9382 15.2822C20.0229 14.4997 18.0964 13.7508 16.047 13.3845C15.5895 13.3027 15.1312 13.1779 14.6728 13.3768C14.6168 13.4011 14.5346 13.4429 14.5289 13.4852C14.5225 13.533 14.5767 13.6087 14.6253 13.6411C15.0211 13.905 15.375 14.2088 15.6782 14.5811C16.2303 15.259 16.7111 15.9716 16.9278 16.8327C16.9845 17.058 16.9589 17.2786 16.8638 17.4915C16.8132 17.6048 16.7431 17.6218 16.6271 17.5766C16.518 17.5341 16.3959 17.5 16.2806 17.503C15.7152 17.5174 15.1505 17.5576 14.5852 17.5662C13.3442 17.5852 12.103 17.5829 10.8621 17.6059C10.4435 17.6137 10.0225 17.6501 9.60857 17.7132C9.29005 17.7617 8.9809 17.8724 8.66754 17.9555ZM20.0606 49.22C20.0744 49.2959 20.0911 49.3688 20.1006 49.4426C20.173 50.0099 20.3138 50.5583 20.5157 51.0945C20.6854 51.5449 20.9905 51.815 21.4646 51.867C22.2822 51.9568 23.1002 52.0662 23.9208 52.1003C25.1263 52.1503 26.3316 52.0722 27.5309 51.939C28.4734 51.8344 29.4162 51.7274 30.3541 51.5889C31.6497 51.3976 32.9396 51.1767 34.2048 50.8206C35.4 50.4842 36.6202 50.2349 37.7718 49.7532C38.8561 49.2998 39.9404 48.8466 41.0257 48.3959C41.1606 48.3398 41.1771 48.2758 41.0986 48.1497C40.8089 47.6839 40.5311 47.2107 40.2457 46.7423C39.6166 45.7099 38.9402 44.7126 38.1047 43.8314C38.0096 43.7311 37.9388 43.7098 37.812 43.7785C37.5183 43.9376 37.2259 44.111 36.9126 44.2199C35.6071 44.6737 34.3033 45.1362 32.9814 45.5379C31.4807 45.9938 29.9318 46.2184 28.3694 46.3406C27.6685 46.3955 26.967 46.4557 26.2647 46.4753C25.1048 46.5078 23.9431 46.501 22.789 46.3694C22.0532 46.2855 21.3196 46.1672 20.5927 46.0251C19.441 45.8 18.3166 45.4734 17.2749 44.9195C16.8277 44.6817 16.4049 44.3966 15.9787 44.1212C15.7537 43.9758 15.5341 43.9124 15.2817 44.0406C15.2271 44.0684 15.1601 44.0736 15.098 44.085C14.5165 44.1916 13.929 44.2729 13.355 44.4105C12.8132 44.5404 12.2805 44.7148 11.7534 44.8976C11.4293 45.0099 11.1112 45.153 10.8127 45.3219C10.5156 45.4899 10.4146 45.7884 10.486 46.1141C10.6088 46.6749 10.7387 47.2355 10.8995 47.7863C11.6339 50.3017 12.791 52.6251 14.1472 54.8553C14.2659 55.0506 14.4144 55.2331 14.5745 55.3966C14.8242 55.6515 15.123 55.6724 15.4206 55.4744C15.5252 55.4049 15.6209 55.3173 15.7068 55.2251C16.2552 54.6369 16.6231 53.941 16.8882 53.1894C17.1905 52.3322 17.18 51.4737 16.8632 50.6194C16.7128 50.2139 16.5673 49.8066 16.4241 49.3985C16.2988 49.0415 16.1797 48.6824 16.0558 48.3181C16.2448 48.2609 16.3651 48.3571 16.471 48.4609C16.7512 48.7358 17.016 49.0267 17.3031 49.2938C17.3959 49.3802 17.5452 49.4716 17.6577 49.4595C18.1308 49.4086 18.5985 49.3093 19.0707 49.2476C19.3923 49.2056 19.715 49.0984 20.0606 49.22ZM33.6425 64.3245C33.8793 64.5091 34.072 64.6531 34.2577 64.8056C34.6193 65.1024 34.929 65.4394 34.8992 65.9474C34.8851 66.1887 34.8738 66.4514 34.6689 66.6314C34.6268 66.6684 34.5174 66.6874 34.4788 66.6596C34.3041 66.5336 34.2155 66.3397 34.2408 66.1342C34.2738 65.8654 34.2034 65.644 34.0354 65.447C33.6875 65.039 33.3432 64.6275 32.9813 64.2322C32.7961 64.03 32.6026 63.8092 32.3663 63.6858C31.9132 63.4491 31.434 63.2562 30.9527 63.0811C30.2931 62.8411 29.6038 62.7663 28.9111 62.8857C28.4826 62.9595 28.0604 63.0828 27.6441 63.2122C26.9191 63.4376 26.2004 63.6836 25.48 63.9237C25.2175 64.0112 25.1709 64.1168 25.2866 64.3659C25.3397 64.4803 25.407 64.5887 25.4749 64.6953C25.6713 65.0034 25.6645 65.1505 25.4154 65.4188C25.2583 65.588 25.0999 65.7588 24.924 65.9073C24.5852 66.1933 24.2348 66.4656 23.8862 66.7397C23.818 66.7934 23.735 66.8368 23.6719 66.7133C24.0414 66.2111 24.4092 65.7089 24.7797 65.2087C24.9088 65.0344 24.9477 64.8584 24.822 64.665C24.7984 64.6286 24.7697 64.5782 24.7773 64.5413C24.8579 64.148 24.6668 63.8666 24.4143 63.6005C24.2882 63.4675 24.1671 63.3225 24.0768 63.1641C23.8861 62.8296 23.6331 62.5632 23.3071 62.3618C23.2041 62.2981 23.1075 62.2243 23.0061 62.1578C21.9862 61.4893 20.891 61.1323 19.6628 61.3937C19.0556 61.523 18.4663 61.7419 17.9877 62.1368C17.6322 62.4301 17.3456 62.8126 17.0551 63.1767C16.8879 63.3862 16.8446 63.6533 16.834 63.9274C16.8254 64.1486 16.7936 64.3775 16.7223 64.586C16.5491 65.0931 16.3479 65.5908 16.155 66.0911C16.1329 66.1484 16.0994 66.2054 16.058 66.2505C15.8993 66.4234 15.8961 66.5082 16.0669 66.6714C16.7573 67.3306 17.5336 67.8665 18.3987 68.2697C18.9645 68.5334 19.5631 68.6972 20.1878 68.6712C20.5928 68.6543 21.0005 68.5785 21.3961 68.4839C22.7281 68.1654 24.0547 67.8248 25.3848 67.4987C25.5047 67.4693 25.6404 67.4572 25.7601 67.4808C27.0523 67.7353 28.3419 68.003 29.6343 68.2562C29.9201 68.3121 30.227 68.3955 30.5024 68.3456C31.5715 68.1518 32.6334 67.9166 33.6946 67.6815C34.1139 67.5885 34.4588 67.6712 34.7754 67.9668C35.1917 68.3556 35.6814 68.615 36.248 68.7256C36.8084 68.8349 37.3723 68.8319 37.9376 68.8048C38.9691 68.7552 40.0009 68.7079 41.0315 68.6434C41.4155 68.6194 41.7972 68.5535 42.1789 68.4991C42.343 68.4758 42.4554 68.3835 42.4683 68.2051C42.4846 67.9814 42.5201 67.7561 42.5074 67.5338C42.4713 66.9015 42.4229 66.2696 42.3641 65.639C42.3217 65.1852 42.205 64.7484 41.8923 64.3987C41.3362 63.7771 40.5808 63.5543 39.7984 63.4445C39.2356 63.3655 38.6601 63.3664 38.0898 63.3554C37.6312 63.3466 37.1603 63.3133 36.7157 63.3991C36.1145 63.5152 35.5325 63.7319 34.9439 63.9112C34.5263 64.0384 34.1115 64.1751 33.6425 64.3245ZM9.37409 59.5715C9.28342 59.3688 9.20322 59.1779 9.11379 58.9915C8.66158 58.049 8.01174 57.3098 7.0189 56.9023C6.29727 56.6062 5.55789 56.4354 4.79528 56.6483C3.99737 56.8711 3.21506 57.1512 2.43063 57.42C2.16723 57.5102 2.02148 57.7299 2.00806 58.0034C1.95405 59.1046 1.9068 60.2062 1.86862 61.308C1.84594 61.9628 2.13423 62.4483 2.70991 62.7673C2.99256 62.9239 3.26988 63.0907 3.54367 63.2624C4.34369 63.7641 5.06624 64.3667 5.78105 64.9804C6.16772 65.3124 6.60571 65.5603 7.12529 65.6055C7.53297 65.641 7.94302 65.6545 8.35233 65.6646C9.44329 65.6915 10.5363 65.6799 11.6249 65.7442C12.4212 65.7912 13.2156 65.9113 14.0038 66.0414C14.7044 66.1572 15.0081 66.068 15.2845 65.4766C15.5725 64.8602 15.8208 64.2252 15.7824 63.5201C15.766 63.2187 15.678 62.9453 15.4502 62.7469C15.0985 62.4409 14.7543 62.1205 14.3063 61.9482C14.1018 61.8695 13.9054 61.77 13.7026 61.6866C12.7917 61.3123 11.9012 60.8808 10.9264 60.6836C10.8654 60.6713 10.8011 60.6748 10.7383 60.6709C10.7313 60.6852 10.7241 60.6994 10.7171 60.7136C10.757 60.766 10.7954 60.8197 10.8371 60.8707C11.2745 61.4066 11.7148 61.9404 12.1496 62.4785C12.3999 62.7884 12.6235 63.1146 12.7028 63.5477C12.6352 63.5319 12.5816 63.5254 12.5324 63.5069C12.2465 63.3994 12.034 63.1912 11.8489 62.9629C11.3107 62.2992 10.7861 61.6245 10.2528 60.9569C10.1551 60.8345 10.0416 60.7248 9.90114 60.5719C9.81955 60.8698 9.75394 61.1094 9.68532 61.36C9.33157 61.1649 9.3673 60.8031 9.29066 60.467C9.06899 60.6005 8.87223 60.7174 8.677 60.8368C8.1647 61.1501 7.65307 61.4651 7.0745 61.6465C6.76778 61.7426 6.45554 61.808 6.12034 61.7761C6.92158 60.639 8.15927 60.1453 9.37409 59.5715ZM65.0683 51.3394C65.0303 51.2729 65.014 51.23 64.9858 51.1974C64.6839 50.8479 64.3932 50.4877 64.0743 50.1545C63.4428 49.4946 62.6802 49.2217 61.7678 49.421C61.1393 49.5583 60.5078 49.6823 59.8777 49.8122C59.4611 49.8981 59.3264 50.2165 59.5586 50.5723C59.7599 50.8808 59.9647 51.187 60.1681 51.494C60.3613 51.7854 60.4765 52.1038 60.4536 52.455C60.4368 52.7126 60.374 52.9672 60.3572 53.2248C60.3188 53.8124 60.504 54.3383 60.8367 54.8166C61.0208 55.0813 61.1617 55.3679 61.1842 55.6905C61.2267 56.3 61.2679 56.9107 61.2714 57.5212C61.2733 57.8469 61.388 58.0319 61.6879 58.1524C62.3381 58.4137 62.9566 58.7322 63.4805 59.2142C64.0073 59.6991 64.5523 60.1645 64.8836 60.8199C64.9458 60.943 65.0327 61.0534 65.1008 61.1738C65.15 61.2608 65.2031 61.2814 65.2969 61.236C65.4576 61.1582 65.6246 61.0933 65.7882 61.0215C66.564 60.6812 67.359 60.3795 68.0192 59.8207C68.2828 59.5976 68.3234 59.4188 68.0897 59.1668C67.8544 58.9131 67.6048 58.6719 67.3518 58.4355C66.9863 58.0938 66.8011 57.6791 66.8563 57.1815C66.8961 56.8225 66.9791 56.4685 67.0393 56.1116C67.073 55.912 67.0994 55.7112 67.133 55.4851C66.9866 55.5032 66.879 55.5148 66.7719 55.53C66.2033 55.6107 65.6298 55.667 65.0675 55.7796C64.2567 55.9419 63.5188 56.2687 62.9341 56.8817C62.8878 56.9303 62.8205 56.9586 62.7642 56.9981C62.674 57.0614 62.5689 57.0834 62.5007 56.9931C62.4395 56.9121 62.3632 56.7792 62.391 56.7063C62.4676 56.5058 62.5541 56.2742 62.7112 56.1465C63.0492 55.8715 63.4187 55.6255 63.803 55.4193C64.4743 55.0592 65.212 54.8882 65.962 54.7871C66.2662 54.746 66.5776 54.757 66.8859 54.7498C66.9604 54.7481 67.0355 54.7686 67.1302 54.7816C67.1146 54.7121 67.1122 54.6714 67.0966 54.6365C66.9231 54.2474 66.7819 53.8387 66.5648 53.4754C66.21 52.8817 65.804 52.3187 65.4233 51.7403C65.3685 51.6571 65.3172 51.6614 65.2371 51.6974C65.091 51.7632 64.9403 51.8645 64.7902 51.8669C64.3641 51.8738 63.9365 51.8492 63.5114 51.8137C63.3624 51.8013 63.2097 51.7383 63.0771 51.6652C63.0076 51.6269 62.9269 51.5031 62.9431 51.4422C62.9637 51.3641 63.0689 51.2692 63.1513 51.2534C63.5532 51.1768 63.9601 51.1328 64.3691 51.2082C64.592 51.2493 64.8147 51.2918 65.0683 51.3394ZM60.8763 60.7407C60.804 60.7004 60.7564 60.6813 60.7174 60.651C60.3488 60.3645 59.9793 60.079 59.6147 59.7874C59.1083 59.3823 58.5788 59.0175 57.9888 58.7391C57.6652 58.5864 57.3844 58.5892 57.1092 58.8244C56.8332 59.0604 56.5179 59.2607 56.2815 59.5306C55.7194 60.1723 55.189 60.8419 54.6558 61.5082C54.4016 61.8258 54.4079 61.8393 54.7436 62.0904C55.0115 62.2907 55.2274 62.5201 55.3513 62.8417C55.463 63.1314 55.6236 63.4018 55.7473 63.6874C55.808 63.8276 55.8539 63.9805 55.8712 64.1317C55.9006 64.3891 55.9082 64.6496 55.9138 64.909C55.9217 65.2732 55.9168 65.2483 56.2886 65.2387C57.0956 65.2178 57.9038 65.206 58.7106 65.2258C59.6562 65.249 60.6005 65.3229 61.546 65.3504C62.4322 65.3762 63.2071 65.0673 63.8729 64.4857C64.2303 64.1736 64.5352 63.8149 64.5072 63.3103C64.4884 62.9692 64.4253 62.6205 64.319 62.2959C63.935 61.1236 63.229 60.1877 62.1609 59.554C61.2231 58.9977 60.1856 58.705 59.1274 58.4836C58.9216 58.4406 58.7059 58.4455 58.4947 58.4283C58.9426 58.7923 59.4864 58.9647 59.9021 59.3573C60.3162 59.7484 60.7105 60.1397 60.8763 60.7407ZM8.88717 53.0314C8.55264 52.7753 8.50904 52.7219 8.45026 52.3476C8.40757 52.0757 8.25383 51.9147 8.00901 51.8222C7.93902 51.7958 7.86818 51.7703 7.79585 51.7516C7.20574 51.5993 6.61718 51.4403 6.02399 51.3011C5.68779 51.2221 5.37491 51.0737 5.00011 51.1182C4.08764 51.2265 3.31497 51.5787 2.71413 52.2788C2.34534 52.7084 2.12906 53.2028 2.25001 53.7767C2.39577 54.4682 2.57421 55.153 2.7469 55.8386C2.78937 56.0073 2.90562 56.0583 3.08564 56.0135C3.31456 55.9567 3.54107 55.8899 3.77027 55.8343C4.17837 55.7353 4.58318 55.5994 4.99754 55.5546C5.73473 55.475 6.45785 55.5889 7.14618 55.8763C7.39601 55.9806 7.63821 56.1032 7.88364 56.218C8.14498 56.3403 8.21025 56.3261 8.41727 56.1286C8.55077 56.0013 8.68331 55.8684 8.835 55.7655C9.30752 55.4452 9.78527 55.1323 10.2686 54.8286C10.4709 54.7015 10.5926 54.5393 10.61 54.3014C10.6349 53.9625 10.6516 53.6227 10.6849 53.2846C10.7451 52.6726 10.8206 52.0621 10.8782 51.4499C10.9017 51.2006 10.9605 50.9282 10.8902 50.7013C10.6582 49.9531 10.3729 49.2216 10.1117 48.4823C10.0234 48.2324 9.84967 48.12 9.58959 48.109C9.40033 48.101 9.21232 48.0639 9.02305 48.0553C8.80159 48.0452 8.57376 48.0202 8.35865 48.0581C7.93529 48.1328 7.66834 48.4339 7.51077 48.806C7.2214 49.4894 6.96513 50.1869 6.69607 50.8789C6.69312 50.8865 6.70357 50.8993 6.71194 50.9201C6.84948 50.9572 6.99333 50.9966 7.13745 51.0348C7.57124 51.15 8.00707 51.258 8.4384 51.3817C8.80607 51.4872 9.08425 51.9013 9.03149 52.2565C8.99374 52.5106 8.938 52.7622 8.88717 53.0314ZM61.1869 48.5663C61.0444 48.3389 60.9334 48.1368 60.799 47.9516C60.31 47.2779 59.7188 46.8123 58.8119 46.9964C58.6852 47.0221 58.5412 47.0189 58.416 46.9868C57.3648 46.7178 56.3598 46.3392 55.4627 45.7106C54.9582 45.357 54.9422 45.3752 54.4919 45.7976C54.2375 46.0362 53.939 46.229 53.6518 46.4301C53.5976 46.4681 53.4747 46.4807 53.4334 46.4459C53.3813 46.402 53.3486 46.2909 53.3631 46.2201C53.4147 45.9683 53.5165 45.7404 53.7469 45.5906C53.8773 45.5059 54.0016 45.4105 54.1204 45.3101C54.1674 45.2704 54.1919 45.2042 54.2267 45.15C54.171 45.1197 54.1185 45.0731 54.0592 45.0613C52.5724 44.7653 51.0845 44.4749 49.5983 44.1763C49.4819 44.1529 49.4147 44.1804 49.3453 44.264C49.1424 44.5082 48.9251 44.741 48.732 44.9926C48.4692 45.3352 48.2058 45.6798 47.9768 46.045C47.8183 46.2977 47.886 46.4402 48.1671 46.5309C49.0377 46.8119 49.9058 47.1004 50.8109 47.2613C51.4619 47.3771 51.9479 47.7029 52.0847 48.4035C52.1067 48.5163 52.1257 48.6308 52.1329 48.7453C52.1435 48.9144 52.2431 48.9974 52.3938 49.0198C52.9685 49.1056 53.5438 49.1874 54.1195 49.266C54.8434 49.3648 55.5677 49.4602 56.2921 49.5548C56.9825 49.645 57.6738 49.7283 58.3635 49.8228C58.6355 49.86 58.8335 49.7726 58.9774 49.5388C59.0404 49.4366 59.1062 49.3116 59.204 49.26C59.5137 49.097 59.831 48.9407 60.1605 48.8255C60.4782 48.7144 60.8148 48.6577 61.1869 48.5663ZM42.8625 63.8932C42.9912 64.1382 43.1399 64.3455 43.2145 64.5768C43.5026 65.47 43.6153 66.3971 43.6327 67.3301C43.6432 67.8928 43.5788 68.4577 43.5315 69.0202C43.5182 69.1788 43.568 69.2168 43.7067 69.2021C44.0558 69.1653 44.4054 69.133 44.7542 69.0933C45.6401 68.9925 46.5269 68.8971 47.4111 68.7825C47.9021 68.7189 48.3805 68.5958 48.7198 68.1927C49.0759 67.7697 49.3426 67.293 49.5268 66.7709C49.6581 66.3989 49.704 66.0075 49.6397 65.6281C49.515 64.8932 49.2537 64.2043 48.7533 63.6317C48.5559 63.4058 48.3513 63.1836 48.1296 62.9823C47.7438 62.6322 47.3347 62.3119 46.8159 62.1743C46.3804 62.0588 45.9654 62.0837 45.5696 62.3247C45.0433 62.6452 44.5123 62.9581 43.9795 63.2676C43.6115 63.4814 43.237 63.684 42.8625 63.8932ZM45.2983 48.0113C45.3313 47.9166 45.373 47.8438 45.3806 47.7675C45.4554 47.018 45.5499 46.2692 45.5863 45.5176C45.6107 45.013 45.5477 44.5044 45.5293 43.9975C45.5126 43.5405 45.4418 43.094 45.2984 42.6591C45.0298 41.8452 44.533 41.1772 43.9567 40.5607C43.7609 40.3512 43.5561 40.1499 43.3464 39.9356C41.9724 41.3538 40.3727 42.4166 38.6802 43.3671C38.7139 43.4091 38.7307 43.4315 38.7489 43.4526C39.1625 43.9337 39.5783 44.4128 39.988 44.8972C40.0577 44.9796 40.1115 44.9708 40.1937 44.9262C40.5942 44.7086 40.9969 44.4951 41.3996 44.2816C41.6173 44.1662 41.8541 44.1539 42.0911 44.1768C42.4162 44.2081 42.555 44.3616 42.4871 44.6292C42.4421 44.8061 42.4824 44.942 42.5864 45.0791C43.0677 45.7136 43.5308 46.3627 44.0309 46.9819C44.3683 47.3996 44.778 47.7495 45.2983 48.0113ZM50.4416 67.4823C50.5067 67.4913 50.5506 67.504 50.594 67.5023C50.8762 67.4918 51.1617 67.5021 51.4396 67.4614C52.6721 67.2805 53.6846 66.6856 54.5116 65.7686C54.7467 65.508 54.8968 65.1947 54.9215 64.8345C54.9616 64.2516 54.7604 63.7333 54.4662 63.2503C54.2501 62.8957 53.9039 62.7084 53.4994 62.6426C53.1935 62.5929 52.8847 62.5425 52.5759 62.5332C52.0934 62.5187 51.6087 62.5193 51.1272 62.5503C50.739 62.5753 50.3545 62.6552 49.9681 62.7097C49.8125 62.7316 49.6564 62.7506 49.4725 62.7746C49.5255 62.8581 49.5616 62.909 49.5918 62.9633C49.8915 63.5017 50.2322 64.0223 50.4792 64.584C50.8333 65.3897 50.874 66.2334 50.5724 67.0772C50.5266 67.2055 50.4885 67.3365 50.4416 67.4823ZM46.5381 46.4385C46.7755 46.3434 46.926 46.2366 47.0149 46.0312C47.2889 45.3979 47.535 44.7483 48.022 44.2312C48.198 44.0442 48.3474 43.8321 48.5076 43.6332C48.1251 43.2363 46.8437 42.9173 46.2973 43.0879C46.5759 44.1772 46.5454 45.2947 46.5381 46.4385Z" fill="#4EBC4E"/>
<path d="M48.9246 2.61439C48.9398 2.44251 48.9461 2.29298 48.9672 2.14558C49.0577 1.51292 49.3995 1.04346 49.9695 0.781186C50.3964 0.584727 50.8565 0.457837 51.3068 0.315404C51.6526 0.205994 52.0027 0.104196 52.3572 0.0295997C52.6661 -0.0353618 52.9734 0.013392 53.2784 0.109917C53.53 0.189555 53.7966 0.22083 54.0548 0.280807C54.6554 0.420293 55.2047 0.661533 55.6525 1.10059C55.9637 1.40582 56.186 1.76474 56.3217 2.17937C56.4323 2.51759 56.4663 2.54179 56.8248 2.56343C57.2998 2.5921 57.7665 2.66481 58.2143 2.83119C60.4397 3.658 61.2193 6.30803 59.8147 8.28143C59.6645 8.49239 59.4908 8.68798 59.316 8.87972C59.0677 9.15209 58.7623 9.31077 58.3827 9.29766C58.3498 9.29652 58.3165 9.30692 58.2682 9.31427C58.3048 9.51336 58.3494 9.70362 58.3734 9.89644C58.4726 10.6918 58.2565 11.3995 57.7376 12.0046C57.0911 12.7583 56.3173 13.3204 55.2977 13.4236C54.412 13.5134 53.558 13.3829 52.7849 12.9041C52.6856 12.8426 52.6297 12.8604 52.5454 12.9283C52.2806 13.1419 52.0174 13.3607 51.7338 13.5474C50.2131 14.5483 48.3619 13.5867 48.0293 12.0059C47.962 11.6859 47.9402 11.355 47.9159 11.0278C47.9064 10.9001 47.8705 10.859 47.7441 10.8583C46.1805 10.8503 45.0635 9.45202 45.18 7.97123C45.2066 7.63326 45.3059 7.31556 45.4684 7.0163C45.4953 6.96676 45.5101 6.86824 45.4817 6.83761C45.1536 6.48371 45.0188 6.05082 44.9899 5.58787C44.9649 5.18733 44.9263 4.77271 44.9989 4.38394C45.1785 3.42201 45.9888 2.69707 47.016 2.58017C47.5101 2.52395 48.017 2.57864 48.518 2.58647C48.644 2.58846 48.7698 2.60337 48.9246 2.61439ZM58.1423 9.08938C58.6759 8.62038 59.1494 8.12368 59.4486 7.48136C59.702 6.93719 59.8597 6.37559 59.7331 5.77439C59.5144 4.73588 58.9385 3.96402 57.9569 3.53371C57.5463 3.35367 57.1156 3.21605 56.6875 3.0799C56.1464 2.90787 55.5942 2.80123 55.0215 2.90079C54.9618 2.91116 54.8988 2.90218 54.8374 2.90218C54.8356 2.88512 54.8339 2.86807 54.8322 2.85101C54.8664 2.83694 54.8997 2.81987 54.9349 2.80928C55.2157 2.72493 55.4964 2.64002 55.7782 2.55914C55.9054 2.52261 55.9292 2.45762 55.833 2.36772C55.6309 2.17893 55.4403 1.97209 55.2155 1.81455C54.2599 1.14459 53.1943 0.871817 52.0293 0.955485C51.3914 1.00131 50.7962 1.16736 50.239 1.47892C49.93 1.65167 49.6893 1.88939 49.5786 2.22744C49.3847 2.81913 49.4355 2.89979 49.9157 3.15539C50.4462 3.43783 50.9132 3.80273 51.2571 4.30459C51.3332 4.41553 51.3823 4.54486 51.4602 4.69781C51.4023 4.67623 51.3898 4.67457 51.3812 4.66784C51.3496 4.64281 51.3186 4.61675 51.2884 4.58995C50.9351 4.27699 50.5477 4.02108 50.0979 3.86626C49.6402 3.70873 49.1844 3.54587 48.7266 3.3887C48.1679 3.19688 47.5937 3.19484 47.0206 3.28724C46.2993 3.40354 45.811 3.88722 45.6439 4.59324C45.5497 4.99161 45.5963 5.38299 45.6692 5.77428C45.7202 6.04782 45.7874 6.31833 45.8536 6.61804C46.3298 6.32334 46.7934 6.29794 47.2651 6.55061C47.2117 6.57127 47.157 6.5726 47.1028 6.57811C46.5202 6.63746 46.0764 6.8663 45.8865 7.50815C45.8177 7.74072 45.7917 7.99479 45.7955 8.23827C45.8053 8.85503 46.0488 9.39223 46.5462 9.74794C47.1932 10.2106 47.9083 10.5457 48.7408 10.5581C48.6647 10.6068 48.5848 10.6458 48.5018 10.6761C48.3284 10.7396 48.2637 10.8469 48.3075 11.0231C48.3809 11.3186 48.4479 11.6163 48.5359 11.9076C48.9449 13.2608 50.3307 13.7585 51.4505 12.8897C51.6601 12.7271 51.8621 12.5543 52.0614 12.3791C52.3635 12.1135 52.6602 11.8417 52.9686 11.5641C53.1131 11.8068 53.0653 12.0265 53.0382 12.2489C53.0083 12.4941 53.0815 12.5679 53.3285 12.5895C53.5921 12.6126 53.8558 12.6354 54.1185 12.6664C54.6278 12.7265 55.1244 12.6846 55.6238 12.557C56.5877 12.3107 57.754 10.9864 57.4932 9.85895C57.3793 9.36646 57.2768 8.87251 56.9505 8.47376C56.7602 8.24123 56.521 8.04874 56.2948 7.82947C57.1469 7.89349 57.6925 8.41355 58.1423 9.08938Z" fill="#4EBC4E"/>
<path d="M52.5045 25.0661C52.4171 24.9423 52.333 24.8195 52.2452 24.6994C51.8105 24.1043 51.6721 23.4618 51.9258 22.7534C51.9772 22.6099 51.9719 22.4713 51.8644 22.3472C50.7165 21.0215 51.2188 19.3089 52.3439 18.4252C53.3488 17.636 54.4462 17.588 55.5849 18.126C55.8868 18.2687 55.8851 18.2722 56.1283 18.0493C57.1044 17.1546 58.7007 16.9651 59.8277 17.6078C60.4652 17.9713 60.7892 18.5086 60.7284 19.2495C60.7154 19.4078 60.7714 19.4564 60.9099 19.4952C61.2876 19.601 61.6675 19.7048 62.0346 19.8414C63.339 20.3268 64.2627 21.6428 64.1642 22.9438C64.0803 24.052 63.4842 24.8438 62.4946 25.3415C62.4386 25.3697 62.3802 25.3929 62.313 25.4229C62.3306 25.4659 62.3419 25.503 62.36 25.5366C63.1962 27.087 62.3045 28.953 60.5679 29.2916C60.0067 29.401 59.453 29.3472 58.9004 29.236C58.818 29.2195 58.7463 29.1996 58.705 29.3094C58.3535 30.2431 57.6541 30.7564 56.7097 31.0098C55.3799 31.3666 54.1145 31.2724 52.9172 30.5617C51.6641 29.8179 50.9287 28.1241 51.2785 26.788C51.4515 26.1272 51.8088 25.5892 52.3651 25.1874C52.3978 25.1637 52.4306 25.1401 52.4626 25.1154C52.4714 25.1086 52.4775 25.0982 52.5045 25.0661ZM57.0979 19.9791C56.9544 19.7736 56.8296 19.5435 56.6569 19.3582C56.2982 18.9734 55.8116 18.8025 55.3225 18.6621C54.7437 18.4961 54.1522 18.3958 53.5533 18.5554C52.7435 18.7712 52.0229 19.6082 51.9331 20.449C51.8798 20.9487 51.9851 21.4119 52.339 21.797C52.419 21.884 52.4818 21.8915 52.5708 21.8161C52.6897 21.7155 52.813 21.6195 52.9401 21.5296C53.0283 21.4672 53.1199 21.3935 53.2207 21.3685C53.4653 21.3081 53.7153 21.2668 53.9648 21.2298C54.187 21.197 54.4054 21.2003 54.5785 21.4372C54.3928 21.4895 54.221 21.56 54.0429 21.583C53.7671 21.6188 53.5143 21.7 53.2943 21.8681C52.906 22.1649 52.67 22.5767 52.4974 23.0183C52.4348 23.1784 52.4407 23.3863 52.4763 23.5598C52.5968 24.1471 52.9575 24.5574 53.4904 24.8189C53.6385 24.8916 53.763 24.9783 53.763 25.161C53.7631 25.2876 53.5685 25.5 53.4258 25.5427C52.3519 25.8637 51.743 26.8514 51.9749 27.9777C52.1836 28.9911 52.7893 29.7008 53.7175 30.1441C54.2371 30.3924 54.7875 30.4137 55.3527 30.4167C56.339 30.422 57.2108 30.1276 57.9841 29.5271C58.2755 29.3008 58.5497 29.059 58.3486 28.6233C58.3965 28.6157 58.4241 28.6081 58.4519 28.6074C58.9424 28.5949 59.4329 28.5834 59.9234 28.5714C60.6002 28.5549 61.1554 28.2902 61.555 27.7396C61.9623 27.1784 62.1141 26.3086 61.6057 25.6979C61.4361 25.4942 61.2386 25.3134 61.0725 25.1071C60.8858 24.875 60.6613 24.7094 60.382 24.6086C60.2461 24.5595 60.1181 24.4886 59.9865 24.4276C59.9928 24.4028 59.9992 24.378 60.0056 24.3532C60.2386 24.3889 60.4839 24.3901 60.7018 24.4683C61.035 24.5877 61.3493 24.7598 61.6713 24.9104C61.8516 24.9947 62.0363 25.0094 62.193 24.8787C62.444 24.6693 62.7104 24.4672 62.9159 24.2173C63.2184 23.8496 63.446 23.4191 63.4792 22.9371C63.5301 22.1979 63.2542 21.557 62.756 21.0188C62.3336 20.5625 61.7575 20.3397 61.2174 20.069C60.669 19.7942 60.089 19.6346 59.4663 19.6806C59.4444 19.6822 59.4215 19.6714 59.3856 19.6634C59.7468 19.4502 60.143 19.519 60.5161 19.4437C60.5106 19.4006 60.5112 19.3652 60.5009 19.3333C60.4833 19.2786 60.4647 19.2228 60.4365 19.1731C60.0705 18.5283 59.5301 18.0917 58.8112 17.923C58.3177 17.8072 57.8044 17.7989 57.2998 17.8833C56.8758 17.9542 56.5268 18.1634 56.2602 18.5089C56.6055 18.9741 57.1275 19.3296 57.0979 19.9791Z" fill="#4EBC4E"/>
<path d="M66.7624 37.2176C66.8128 37.2909 66.856 37.3517 66.8973 37.4138C67.357 38.1053 67.4741 38.8518 67.1752 39.6265C66.7138 40.8222 65.8911 41.6281 64.5888 41.8543C64.1375 41.9327 63.691 41.8694 63.2566 41.7249C63.0539 41.6575 62.8494 41.5958 62.6478 41.5253C62.4602 41.4597 62.3029 41.4994 62.1489 41.6226C61.6726 42.0036 61.139 42.2433 60.519 42.2671C59.3547 42.3118 58.3839 41.4227 58.3532 40.2567C58.3415 39.8132 58.3744 39.3682 58.3978 38.9244C58.4039 38.8091 58.3713 38.758 58.2621 38.7292C58.0111 38.6629 57.7581 38.5997 57.5142 38.5122C56.9108 38.2959 56.5003 37.8871 56.3817 37.2455C56.2569 36.571 56.5016 36.0188 57.0258 35.5905C57.1924 35.4544 57.2563 35.3038 57.2536 35.0837C57.2399 33.9431 57.7104 33.0583 58.7141 32.4951C59.5953 32.0006 60.5454 31.9326 61.5216 32.1258C61.913 32.2032 62.1971 32.4643 62.4776 32.7253C62.5704 32.8116 62.656 32.9514 62.7598 32.9669C62.8601 32.9819 62.9787 32.8663 63.091 32.8117C63.8466 32.4444 64.6183 32.4717 65.3775 32.7709C66.5026 33.2143 67.273 33.9912 67.5068 35.2147C67.6236 35.8262 67.4919 36.3855 67.0686 36.8606C66.9655 36.9764 66.8667 37.0959 66.7624 37.2176ZM62.9309 35.2572C62.9349 34.621 62.7642 34.0844 62.4295 33.6044C62.1145 33.1524 61.7284 32.7602 61.1573 32.6983C60.7213 32.651 60.2697 32.6707 59.8328 32.7243C58.6453 32.8701 57.7328 33.8409 57.6146 35.0339C57.6004 35.1772 57.6361 35.2595 57.7878 35.291C57.9839 35.3317 58.1765 35.39 58.4117 35.4515C58.1131 35.5825 57.8581 35.6889 57.6079 35.8053C57.1844 36.0024 56.9221 36.4846 56.9551 36.991C56.9849 37.4497 57.2617 37.8015 57.7374 37.9369C58.2605 38.0859 58.7851 38.2417 59.3403 38.2111C59.3704 38.2094 59.4011 38.2204 59.4315 38.2254C59.436 38.2395 59.4405 38.2535 59.445 38.2676C59.3641 38.3149 59.2857 38.3675 59.2016 38.4084C59.0517 38.4812 58.9385 38.5829 58.9323 38.7589C58.9166 39.2027 58.8811 39.6481 58.9025 40.0905C58.9279 40.616 59.1189 41.081 59.5766 41.3922C59.9452 41.6428 60.3553 41.6466 60.7743 41.5727C61.5221 41.4409 62.2071 41.1811 62.7383 40.6067C62.7848 40.5564 62.8496 40.5229 62.9059 40.4816L62.9361 40.5091C62.857 40.7024 62.7779 40.8957 62.6847 41.1233C62.9193 41.1679 63.1244 41.2276 63.3326 41.2421C63.7038 41.2679 64.0853 41.3207 64.4476 41.2652C65.2706 41.1393 65.8578 40.6397 66.2727 39.9367C66.5514 39.4646 66.7266 38.951 66.5757 38.4026C66.3727 37.6648 66.0022 37.0312 65.3053 36.6623C65.7968 36.5593 66.2008 36.8282 66.6253 37.0583C66.8627 36.4902 66.9475 35.93 66.8657 35.3573C66.7609 34.6237 66.3155 34.1021 65.7311 33.6883C65.2616 33.3559 64.7229 33.2141 64.1579 33.1719C63.8101 33.1459 63.4684 33.1862 63.1489 33.3471C63.0328 33.4055 63.001 33.4843 63.0228 33.6103C63.0717 33.893 63.1263 34.1767 63.1447 34.4621C63.1617 34.7256 63.1267 34.9899 62.9309 35.2572Z" fill="#4EBC4E"/>
<path d="M35.9352 36.2874C36.1869 36.5183 36.2347 36.792 36.2572 37.0756C36.3674 38.4647 35.7535 39.5275 34.7467 40.4087C33.9884 41.0723 33.1422 41.5872 32.1419 41.78C30.5557 42.0857 29.0908 41.7821 27.792 40.8022C27.3796 40.4911 27.1015 40.0611 26.8914 39.5898C26.8844 39.5741 26.8792 39.5575 26.8735 39.5412C26.829 39.416 26.7953 39.2612 26.9272 39.2042C26.9914 39.1764 27.1541 39.2732 27.2144 39.3559C27.7565 40.0985 28.4245 40.6858 29.3101 40.9608C31.093 41.5147 32.7316 41.2337 34.1711 40.0129C35.0399 39.276 35.639 38.3571 35.8952 37.2389C35.9506 36.9973 35.917 36.7354 35.925 36.4829C35.9267 36.4279 35.9306 36.373 35.9352 36.2874Z" fill="#4EBC4E"/>
<path d="M26.0826 34C26.0448 34.3007 26.0357 34.5641 25.9761 34.8155C25.6111 36.3563 24.5872 37.2339 23.1024 37.6401C22.1797 37.8926 21.3099 37.7318 20.4722 37.3104C20.4516 37.3001 20.427 37.2931 20.4117 37.2772C20.0599 36.9112 19.6987 36.5534 19.3635 36.1728C19.2336 36.0253 19.2749 35.8171 19.3476 35.6437C19.4015 35.5151 19.7199 35.5775 19.842 35.7091C20.0877 35.9741 20.319 36.2662 20.6085 36.4743C21.3737 37.0243 22.2179 36.9871 23.0709 36.7039C23.5104 36.5581 23.8925 36.3113 24.2214 35.9861C24.8407 35.3736 25.4949 34.7928 25.9826 34.0597C25.9907 34.0475 26.01 34.0427 26.0826 34Z" fill="#4EBC4E"/>
<path d="M39.0395 29.4058C39.2333 29.4056 39.3824 29.4883 39.518 29.5935C40.0003 29.968 40.1601 30.57 39.9437 31.2368C39.7476 31.8411 39.3317 32.282 38.8132 32.6163C37.6386 33.3734 36.4126 33.389 35.1803 32.774C34.7748 32.5716 34.4049 32.2961 34.0271 32.0416C33.9416 31.984 33.87 31.8837 33.8289 31.7873C33.7416 31.5826 33.8663 31.4287 34.081 31.4843C34.2394 31.5253 34.3918 31.6053 34.5344 31.6891C34.9789 31.9503 35.4365 32.18 35.9424 32.2947C36.8768 32.5065 37.7409 32.394 38.4829 31.7304C38.8914 31.3652 39.1287 30.9205 39.1116 30.3637C39.1037 30.1055 39.0699 29.848 39.0487 29.5902C39.0441 29.5338 39.0429 29.4772 39.0395 29.4058Z" fill="#4EBC4E"/>
<path d="M13.903 39.1677C13.8378 39.4564 13.5455 39.6722 13.206 39.6872C12.5637 39.7156 12.0328 39.2624 11.8961 38.5689C11.8075 38.1194 11.8813 37.7268 12.3023 37.469C12.3969 37.4111 12.5119 37.3867 12.6523 37.3338C12.5475 37.2365 12.4553 37.1281 12.3421 37.0502C12.0683 36.8616 11.7567 36.83 11.4314 36.852C11.2933 36.8613 11.1525 36.8306 11.0078 36.8176C11.0522 36.5111 11.1952 36.3306 11.4665 36.2606C11.9992 36.1233 12.4884 36.1922 12.89 36.594C13.1567 36.8609 13.1522 37.1715 12.9153 37.4633C12.8658 37.5243 12.8472 37.612 12.8206 37.6895C12.7948 37.7647 12.785 37.846 12.7544 37.9188C12.5738 38.3481 12.7219 38.7314 13.1564 38.9087C13.4001 39.0082 13.6542 39.0824 13.903 39.1677Z" fill="#4EBC4E"/>
<path d="M38.074 26.9744C37.8309 26.9952 37.6188 27.0095 37.4076 27.0322C36.601 27.119 35.7927 27.194 34.9888 27.3018C34.3567 27.3865 33.7279 27.501 33.1021 27.6248C32.5829 27.7274 32.1352 27.9623 31.8447 28.4331C31.8246 28.4657 31.7747 28.48 31.7387 28.5028C31.7213 28.4692 31.6873 28.4343 31.6896 28.4021C31.6972 28.2935 31.6891 28.1701 31.7384 28.0807C32.0001 27.605 32.441 27.3446 32.9248 27.149C33.5635 26.8907 34.2334 26.7562 34.9134 26.6613C35.9049 26.523 36.8775 26.6232 37.8402 26.8725C37.8958 26.8869 37.9511 26.9029 38.0056 26.9209C38.0206 26.9259 38.0323 26.9411 38.074 26.9744Z" fill="#4EBC4E"/>
<path d="M18.2634 33.7363C18.1578 33.5375 18.2106 33.3806 18.303 33.2398C18.5277 32.8976 18.7493 32.5519 18.9957 32.2254C19.937 30.9786 21.1448 30.0984 22.6418 29.6329C23.1608 29.4716 23.6967 29.4039 24.251 29.4342C24.2092 29.4552 24.1687 29.4793 24.1255 29.4967C23.7083 29.6645 23.2903 29.8301 22.8733 29.9984C21.9335 30.3775 21.1273 30.9783 20.2902 31.5323C19.774 31.8739 19.431 32.3621 19.0385 32.8117C18.7809 33.1067 18.5348 33.4117 18.2634 33.7363Z" fill="#4EBC4E"/>
<path d="M49.9773 58.7171C49.3825 58.6519 48.7875 58.5888 48.193 58.5205C47.9963 58.4979 47.8301 58.5217 47.6672 58.6633C47.1355 59.1253 46.4961 59.3362 45.8052 59.4148C44.4109 59.5734 43.0958 59.2119 41.7875 58.8061C40.9404 58.5434 40.123 58.2168 39.3992 57.689C38.928 57.3454 38.9267 57.3473 39.1075 56.8032C39.2257 56.4476 39.3375 56.0898 39.4646 55.7375C39.5129 55.6035 39.5885 55.4774 39.6645 55.3558C41.1814 52.9275 43.3669 51.4638 46.1499 50.8597C46.9475 50.6866 47.7521 50.5767 48.5686 50.5951C49.9915 50.6272 51.3412 50.963 52.6085 51.6153C53.4575 52.0523 54.0703 52.7153 54.4434 53.5922C54.5111 53.7511 54.5193 53.9367 54.5466 54.1113C54.6542 54.8004 54.5194 55.4144 53.9944 55.9128C53.9401 55.9643 53.9011 56.0649 53.9051 56.1401C53.9475 56.9432 53.5636 57.4977 52.9142 57.9184C52.1979 58.3823 51.4086 58.595 50.568 58.6529C50.3725 58.6664 50.1771 58.682 49.9816 58.6967C49.9802 58.7035 49.9787 58.7103 49.9773 58.7171ZM53.6814 55.3735C53.8026 54.9309 53.9275 54.5375 54.0147 54.136C54.0802 53.8346 53.9507 53.6023 53.6761 53.4434C53.4016 53.2845 53.1346 53.1116 52.8719 52.9336C51.5129 52.0131 50.0033 51.5916 48.3731 51.5813C48.0114 51.579 47.6486 51.614 47.2878 51.6476C46.4237 51.7278 45.5918 51.9456 44.7839 52.259C43.6988 52.68 42.7494 53.3073 41.9142 54.1178C41.4544 54.5639 40.9475 54.9685 40.6004 55.514C40.3098 55.9707 40.0626 56.4551 39.7971 56.9277C39.6631 57.1662 39.689 57.2664 39.9369 57.3746C40.3169 57.5405 40.6962 57.7113 41.0865 57.85C42.2784 58.2734 43.4966 58.576 44.7714 58.5975C44.996 58.6013 45.2215 58.6135 45.4441 58.6417C45.7107 58.6755 45.7852 58.641 45.8726 58.3919C45.9641 58.1314 46.025 57.8547 46.1533 57.6138C46.4731 57.0133 46.8172 56.4254 47.1641 55.8399C47.3867 55.4642 47.6832 55.1475 48.0272 54.8781C48.7214 54.3344 49.5101 54.0336 50.387 53.9418C51.2396 53.8524 52.0514 53.9818 52.823 54.3512C52.9326 54.4036 53.021 54.5005 53.1291 54.5846C53.0799 54.6229 53.0529 54.6439 53.0175 54.6715C53.235 54.9015 53.4429 55.1213 53.6814 55.3735ZM49.7439 57.8879C50.1224 57.858 50.5028 57.843 50.879 57.795C51.5733 57.7065 52.2044 57.4544 52.7404 56.9948C53.0127 56.7613 53.1237 56.4628 53.0168 56.1102C52.895 55.7085 52.758 55.3114 52.6305 54.9114C52.5415 54.6323 52.4149 54.566 52.1261 54.6026C51.6931 54.6574 51.2581 54.7048 50.8225 54.73C50.1262 54.7702 49.4693 54.9285 48.8728 55.3017C48.1165 55.7749 47.5949 56.4564 47.1683 57.2221C47.0396 57.4533 47.0508 57.4796 47.3031 57.551C48.1004 57.7768 48.9145 57.874 49.7439 57.8879ZM47.5754 58.4684C47.5566 58.4121 47.5558 58.3945 47.5493 58.3921C47.2856 58.294 47.0224 58.1948 46.7562 58.1042C46.729 58.0949 46.6662 58.1288 46.6503 58.1587C46.5866 58.2786 46.5349 58.4048 46.4576 58.5752C46.8568 58.5371 47.2107 58.5033 47.5754 58.4684Z" fill="#4EBC4E"/>
<path d="M22.2559 53.9917C22.5722 53.9124 22.8811 53.9035 23.1949 53.9693C23.8318 54.103 24.4673 54.2461 25.1081 54.3577C25.4473 54.4168 25.7971 54.4123 26.1412 54.4459C27.6204 54.5906 29.0598 54.3317 30.4952 54.025C31.9261 53.7192 33.3571 53.4135 34.7893 53.1137C34.907 53.0891 35.0344 53.1105 35.1574 53.1105C35.1632 53.1253 35.169 53.1402 35.1748 53.155C35.1246 53.1904 35.0772 53.231 35.0236 53.2602C33.3375 54.1776 31.5248 54.712 29.6383 55.0046C29.0018 55.1033 28.3548 55.137 27.7116 55.1879C27.3842 55.2139 27.0546 55.2195 26.7259 55.2213C26.0292 55.2252 25.3536 55.0912 24.6853 54.9034C24.0975 54.7383 23.505 54.5904 22.9155 54.4313C22.6825 54.3684 22.3917 54.1717 22.2559 53.9917Z" fill="#4EBC4E"/>
<path d="M40.9641 60.2319C40.6857 60.3094 40.4116 60.4189 40.1279 60.4584C39.3151 60.5714 38.5659 60.3125 37.8377 59.9957C36.8525 59.5672 36.069 58.8785 35.3993 58.0501C35.2616 57.8797 35.1219 57.7104 34.9742 57.5487C34.874 57.4391 34.8627 57.3155 34.8716 57.1794C34.8796 57.0548 34.9483 57.0093 35.0648 57.0096C35.2393 57.01 35.351 57.1146 35.4537 57.2368C35.9086 57.7784 36.416 58.2632 36.9982 58.6679C37.8103 59.2326 38.7026 59.6013 39.6711 59.8022C40.1038 59.892 40.5269 60.0278 40.9544 60.1427C40.9576 60.1724 40.9609 60.2022 40.9641 60.2319Z" fill="#4EBC4E"/>
<path d="M22.5261 56.2503C22.7842 56.2915 23.0447 56.3214 23.2999 56.3759C24.6683 56.6682 26.0398 56.613 27.4182 56.4537C28.1508 56.3691 28.8904 56.345 29.6268 56.2936C29.6338 56.3123 29.6408 56.331 29.6478 56.3496C29.5969 56.3849 29.5485 56.4249 29.4946 56.4548C28.9072 56.7812 28.2698 56.9533 27.6122 57.0639C26.8452 57.193 26.0723 57.2187 25.2994 57.1614C24.5032 57.1024 23.718 56.9723 22.9942 56.6067C22.8233 56.5203 22.6669 56.4051 22.5039 56.3032C22.5113 56.2855 22.5187 56.2679 22.5261 56.2503Z" fill="#4EBC4E"/>
<path d="M51.168 59.8268C51.2462 59.451 51.4995 59.3457 51.7559 59.2268C52.2359 59.0043 52.7438 58.8151 53.1724 58.5152C53.7408 58.1174 54.2443 57.6269 54.7756 57.1759C54.8195 57.1387 54.8609 57.0985 54.9054 57.0619C54.9215 57.0486 54.9431 57.0419 54.9837 57.0212C54.9894 57.3223 54.9247 57.5876 54.7903 57.831C54.4125 58.5147 53.8427 58.9981 53.1591 59.3554C52.6596 59.6164 52.124 59.7741 51.5706 59.8654C51.445 59.8861 51.3087 59.8421 51.168 59.8268Z" fill="#4EBC4E"/>
<path d="M17.5953 57.2867C17.2154 57.7713 16.742 57.9822 16.2113 58.104C15.6727 58.2275 15.1565 58.1164 14.6468 57.9673C13.9644 57.7676 13.3648 57.4193 12.8742 56.8974C12.8391 56.8601 12.8248 56.8034 12.8008 56.7558C12.8572 56.7581 12.9199 56.7451 12.9689 56.7653C13.4218 56.9526 13.8652 57.1646 14.325 57.3323C14.967 57.5664 15.6271 57.5917 16.3012 57.4569C16.7116 57.3749 17.1325 57.3456 17.5953 57.2867Z" fill="#4EBC4E"/>
<path d="M34.3473 59.9126C34.5063 59.9459 34.6563 59.9644 34.7978 60.0094C35.369 60.191 35.9367 60.3832 36.5075 60.5662C36.6714 60.6188 36.7848 60.7185 36.8723 60.8637C36.9242 60.9499 36.9033 61.0005 36.8296 61.0503C36.6631 61.1627 36.4815 61.1802 36.3023 61.1042C35.6498 60.8275 35.0005 60.543 34.3505 60.2601C34.3143 60.2443 34.2713 60.2234 34.2526 60.1922C34.2108 60.1225 34.1823 60.0448 34.1484 59.9704C34.2161 59.9507 34.2837 59.931 34.3473 59.9126Z" fill="#4EBC4E"/>
<path d="M16.5727 58.9556C16.2168 59.3638 15.2016 59.4283 14.7773 59.0791C15.0214 58.8006 16.1726 58.717 16.5727 58.9556Z" fill="#4EBC4E"/>
<path d="M29.5575 57.8654C29.2705 58.3669 28.3354 58.5208 27.8672 58.1515C28.4111 57.9268 28.9578 57.8282 29.5575 57.8654Z" fill="#4EBC4E"/>
</g>
<defs>
<clipPath id="clip0_1635_62198">
<rect width="70" height="70" fill="white"/>
</clipPath>
</defs>
</svg>
