<svg width="15" height="10" viewBox="0 0 15 10" fill="none" xmlns="http://www.w3.org/2000/svg">
<path d="M5.06183 0.0599947C5.01668 0.0890255 3.96435 1.15733 2.72862 2.43175C0.26 4.98058 0.37003 4.84994 0.446205 5.11992C0.477239 5.23024 0.76501 5.53795 2.74273 7.57586C3.98692 8.85899 5.04208 9.92729 5.08722 9.95342C5.32138 10.0811 5.65147 9.93309 5.72483 9.66892C5.74175 9.61376 5.75304 9.1609 5.75304 8.64997V7.72682H9.06241C11.3194 7.72682 12.4254 7.73552 12.541 7.75875C13.1787 7.87777 13.6808 8.50192 13.6808 9.17832C13.6808 9.30605 13.7711 9.4541 13.9066 9.5499C14.1097 9.69215 14.4228 9.58764 14.5301 9.34088C14.578 9.23347 14.5837 9.13477 14.5837 8.18839C14.5837 7.08816 14.5611 6.72528 14.468 6.2637C14.2564 5.22153 13.6978 4.2287 12.9332 3.53779C12.2674 2.93687 11.4944 2.54206 10.6198 2.35336C10.3122 2.2866 10.284 2.28369 8.03264 2.27498L5.75586 2.26627L5.7474 1.28216C5.73893 0.338683 5.73611 0.295138 5.67969 0.216757C5.53016 0.00774097 5.25085 -0.0619307 5.06183 0.0599947ZM4.85023 2.23724C4.85023 2.84687 4.85305 2.873 4.91512 2.9659C4.94897 3.02105 5.02233 3.09073 5.07593 3.12266C5.17186 3.18362 5.217 3.18362 7.72794 3.20104C10.5746 3.21846 10.3941 3.20685 11.0147 3.43038C12.2674 3.88324 13.2323 4.98058 13.5511 6.30725C13.6216 6.60626 13.7006 7.22169 13.6724 7.25363C13.6639 7.26234 13.6216 7.24201 13.5765 7.21008C13.4269 7.10267 13.094 6.94591 12.874 6.87914L12.6511 6.81237L8.94109 6.80366L5.2311 6.79786L5.10414 6.86172C5.03361 6.89946 4.94897 6.97204 4.91512 7.02719C4.85305 7.12299 4.85023 7.14912 4.85023 7.75875C4.85023 8.11001 4.84176 8.39451 4.82766 8.39451C4.81637 8.39451 4.06591 7.63102 3.15746 6.69625L1.50701 4.998L3.15746 3.29974C4.06591 2.36498 4.81637 1.60149 4.82766 1.60149C4.84176 1.60149 4.85023 1.88598 4.85023 2.23724Z" fill="url(#paint0_linear_1670_56)"/>
<defs>
<linearGradient id="paint0_linear_1670_56" x1="0.416992" y1="5" x2="14.5837" y2="5" gradientUnits="userSpaceOnUse">
<stop stop-color="#F86CA7"/>
<stop offset="1" stop-color="#FF7F18"/>
</linearGradient>
</defs>
</svg>
