<svg width="70" height="70" viewBox="0 0 70 70" fill="none" xmlns="http://www.w3.org/2000/svg">
<path d="M47.8573 48.1964C53.2027 42.851 52.7807 34.2703 47.576 29.4875C45.044 27.0962 41.6679 25.8302 38.2919 26.1115C34.9158 26.2522 31.8211 27.7995 29.8518 30.3316C32.2432 28.3622 35.3379 27.2368 38.2919 27.5182C41.2459 27.6589 44.0593 29.0655 46.0286 31.1756C50.2487 35.8176 49.686 42.5697 45.7473 46.3677C41.8086 50.3064 35.1972 50.8691 30.5551 46.6491C28.4451 44.6797 27.0384 41.8663 26.8978 38.9123C26.7571 35.9583 27.7418 32.8636 29.7111 30.4722C27.1791 32.4416 25.6317 35.6769 25.4911 38.9123C25.3504 42.2884 26.6164 45.6644 28.8671 48.1964C33.9312 53.1198 42.5119 53.5418 47.8573 48.1964Z" fill="#FF6B55"/>
<path d="M55.1728 48.8998C59.5335 41.585 58.6895 32.8636 53.7661 26.8148C54.0475 18.5154 54.0475 18.0934 54.3288 7.26194C54.3288 6.13659 54.1882 5.01125 53.6255 4.02657C52.6408 1.91655 50.3901 0.509862 47.9987 0.509862C38.0113 0.369194 50.1088 0.369194 11.2843 0.0878576C10.8623 0.228526 1.29688 -1.74083 1.29688 7.40261V25.8302L1.43754 50.3064C1.57821 62.9666 1.43754 63.5293 1.57821 64.2326C2.00022 67.3273 4.67291 69.8593 7.90828 70H11.003L35.4793 69.578L47.7174 69.2967C49.8274 69.4373 52.0781 68.1713 53.0628 66.3426C53.6255 65.3579 53.7661 64.3733 53.7661 63.2479V62.5446C55.7355 65.0766 57.4235 67.046 58.1269 67.7493C60.6589 70.2813 64.8789 70.2813 67.411 67.7493C69.943 65.2173 69.943 60.9972 67.411 58.4652C66.2856 57.1992 60.3776 52.4165 55.1728 48.8998ZM52.7815 66.0613C51.7968 67.7493 49.8274 68.734 47.8581 68.5933L35.6199 68.312L11.003 67.7493C10.0183 67.7493 8.89296 67.7493 8.04895 67.7493C5.93893 67.6086 4.25091 65.9206 3.96957 63.9513C3.8289 63.5293 3.96957 50.1658 3.96957 50.3064L4.11024 25.8302C4.11024 23.8608 4.11024 32.7229 4.11024 7.40261C4.11024 6.83994 4.11024 6.5586 4.25091 6.13659C4.67291 3.8859 6.5016 2.76056 8.33029 2.61989H11.425C53.3441 2.19788 35.6199 2.33855 48.1394 2.19788C49.9681 2.05721 51.6561 3.04189 52.5001 4.72991C52.9221 5.57392 53.2035 6.41793 53.2035 7.40261C53.4848 18.5154 53.4848 18.5154 53.7661 26.8148C53.3441 26.2522 52.7815 25.6895 52.2188 25.1268C48.5614 21.6101 43.4974 19.6407 38.4333 19.7814C33.5099 19.9221 28.5865 22.1728 25.4918 25.8302C29.1492 22.5948 33.7913 20.9068 38.4333 21.1881C43.0754 21.3288 47.4361 23.4388 50.6714 26.6742C56.4388 32.7229 57.1422 42.007 52.2188 48.7591C51.6561 49.4624 51.0934 50.1658 50.5308 50.7284C49.9681 51.4318 49.2648 51.9945 48.5614 52.4165C41.8093 57.3399 32.6659 56.7772 26.4765 50.8691C19.8651 44.539 18.8804 33.5669 25.7732 25.6895C18.1771 32.3009 17.4737 44.6797 24.9291 52.4165C30.8372 58.6059 40.684 60.4346 48.9834 55.5112C50.5308 57.9025 52.3595 60.2939 54.0475 62.4039C53.6255 63.6699 53.4848 64.9359 52.7815 66.0613ZM65.4416 65.7799C64.0349 67.1866 61.6436 67.1866 60.0962 65.7799C58.9709 64.6546 54.3288 58.8872 50.9528 53.8231C51.9375 52.9791 52.7815 52.2758 53.6255 51.1504C58.6895 54.5265 64.4569 59.1685 65.5823 60.2939C66.2856 60.9972 66.7076 61.9819 66.7076 62.9666C66.567 64.0919 66.145 65.0766 65.4416 65.7799Z" fill="#FF6B55"/>
<path d="M62.9107 61.7006C62.6293 61.7006 62.2073 61.8412 61.6447 62.1226C61.3633 62.6852 61.3633 62.9666 61.2227 63.3886C61.2227 63.9513 61.504 64.2326 62.0667 64.2326C62.348 64.2326 62.77 64.0919 63.3327 63.8106C63.614 63.2479 63.614 62.9666 63.7547 62.5446C63.7547 61.9819 63.4733 61.7006 62.9107 61.7006Z" fill="#FF6B55"/>
<path d="M36.4647 11.904C39.278 11.7633 41.9507 11.3413 44.7641 10.7786C41.9507 10.216 39.278 9.93463 36.4647 9.6533C31.1193 9.23129 25.7739 9.23129 20.0065 9.6533C17.1931 9.79396 14.5204 10.216 11.707 10.7786C14.5204 11.3413 17.1931 11.6227 20.0065 11.904C25.7739 12.326 30.9786 12.326 36.4647 11.904Z" fill="#FF6B55"/>
<path d="M26.3365 19.6407C22.3978 17.8121 15.5051 17.8121 11.707 19.6407C15.5051 21.4694 22.3978 21.4694 26.3365 19.6407Z" fill="#FF6B55"/>
<path d="M11.707 57.0585C15.6457 58.8872 22.3978 58.8872 26.3365 57.0585C22.3978 55.0892 15.5051 55.2298 11.707 57.0585Z" fill="#FF6B55"/>
</svg>
