<svg width="161" height="121" viewBox="0 0 161 121" fill="none" xmlns="http://www.w3.org/2000/svg">
<g opacity="0.5">
<path d="M100.886 74.4609C99.6615 49.901 100.397 25.4688 100.392 0.905658C100.579 0.664378 100.393 0.200629 100.032 0.163731C95.4353 -0.306529 90.3966 0.320726 85.8365 0.97692C85.6549 1.00297 85.6057 1.16864 85.643 1.31768C84.7216 1.8422 83.8983 2.557 83.0276 3.15821C82.0694 3.81983 81.0529 4.39969 80.1174 5.09278C80.1062 5.1011 80.1055 5.1163 80.0961 5.12606C80.0458 5.12932 79.9948 5.13438 79.9449 5.13728C79.6975 5.1532 79.5774 5.34058 79.581 5.52615C79.5054 5.58077 79.4381 5.65167 79.3997 5.75911C79.0333 6.78862 78.643 7.79823 78.2483 8.80495C78.0519 8.83063 78.0002 9.0578 78.1065 9.17935C74.6631 17.8614 70.2087 25.7539 65.3437 33.7642C65.2688 33.7707 65.1925 33.7729 65.1176 33.7798C64.945 33.796 64.9439 34.0337 65.1176 34.0489C65.1346 34.0503 65.1523 34.0507 65.1697 34.0522C65.0235 34.2923 64.881 34.5322 64.7341 34.7727C64.6676 34.8816 64.716 35.0028 64.8014 35.0737C64.7732 35.1461 64.7609 35.2264 64.7945 35.3049C65.59 37.1819 67.4197 38.7761 68.748 40.3037C70.0908 41.8483 71.3775 43.8075 73.1001 44.9329C73.2835 45.0526 73.4499 44.9644 73.5403 44.8182C73.638 44.8953 73.7765 44.9202 73.8905 44.8942C74.6042 44.731 75.2944 44.4847 75.9904 44.2593C77.0202 43.9258 78.4093 43.7015 79.267 43.0197C79.361 42.9451 79.3831 42.8529 79.3788 42.7599C80.0274 42.3436 80.4452 41.5159 80.8583 40.8944C81.0489 40.6079 81.2301 40.3153 81.4211 40.0284C81.0048 51.8464 80.6239 63.6891 80.6832 75.4984C80.6785 75.498 80.6738 75.4973 80.6691 75.4969C80.4524 75.4749 80.3992 75.8493 80.6174 75.88C80.6398 75.8833 80.6619 75.8862 80.6843 75.8894C80.6901 76.8748 80.6778 77.8613 80.6901 78.8459C80.6926 79.0337 80.7946 79.1357 80.919 79.199C80.867 79.4804 81.0402 79.8302 81.3803 79.8078C86.0018 79.5061 90.4111 79.6833 95.0189 79.9991C95.118 80.006 95.1972 79.9749 95.2667 79.9304C95.3872 79.9293 95.5011 79.8888 95.5977 79.8237C95.6939 79.8371 95.7981 79.8197 95.9005 79.7401C97.6488 78.3771 99.2972 76.8947 101.057 75.5429C101.491 75.209 101.276 74.5608 100.886 74.4609ZM80.053 40.4238C79.6805 41.0254 79.1856 41.6613 79.0275 42.3635C79.0138 42.3609 79.0022 42.3494 78.9884 42.3483C78.2425 42.2861 77.4576 42.71 76.7652 42.9509C76.2877 43.117 75.8106 43.283 75.3371 43.4606C74.9236 43.6158 74.5098 43.7692 74.0977 43.928C74.0254 43.9558 73.9201 43.9841 73.8181 44.0181C76.4776 39.8414 79.4247 35.5733 81.7283 31.172C81.6505 33.5001 81.5687 35.8308 81.4866 38.1619C80.9957 38.9074 80.5226 39.6653 80.053 40.4238ZM81.572 78.8202C81.6284 77.892 81.6715 76.9623 81.7217 76.0338C83.4396 76.2754 85.1583 76.5149 86.882 76.7117C87.2271 76.7511 87.2198 76.2168 86.882 76.1737C85.1731 75.9556 83.4588 75.7802 81.7445 75.6069C81.801 74.5485 81.8288 73.4871 81.8784 72.4279C81.8957 72.5318 81.9616 72.6298 82.0972 72.637C84.1686 72.7484 86.2402 72.8924 88.3148 72.913C88.6773 72.9167 88.67 72.3787 88.3148 72.3549C86.2457 72.2163 84.17 72.2008 82.0972 72.1527C81.9659 72.1498 81.9033 72.2359 81.8824 72.3332C81.9518 70.8388 81.9923 69.3416 82.0498 67.8462C83.2548 67.9489 84.4796 68.0968 85.6824 68.0719C85.8922 68.0675 85.9599 67.7228 85.7345 67.6888C84.531 67.5079 83.287 67.4927 82.0654 67.4381C82.1175 66.0624 82.1508 64.6849 82.1945 63.3089C83.8477 63.4319 85.5739 63.4774 87.1894 63.1023C87.4571 63.0401 87.4021 62.6082 87.1243 62.6201C85.4737 62.6907 83.8614 62.8675 82.2097 62.8209C82.2792 60.6063 82.3338 58.3903 82.3873 56.1747C84.5281 56.57 86.7344 56.6077 88.8751 56.2173C89.1855 56.1605 89.1179 55.6367 88.8003 55.6624C86.6425 55.8371 84.5491 55.8466 82.4015 55.6527C82.4264 54.5939 82.4402 53.535 82.4626 52.4759C83.5323 52.5135 84.6236 52.5924 85.6842 52.4932C85.9219 52.4708 85.9223 52.1456 85.6842 52.1232C84.6258 52.0237 83.537 52.1022 82.4687 52.1402C82.5161 49.8753 82.544 47.6156 82.5841 45.3511C83.9378 45.1981 85.2747 45.219 86.6403 45.2013C86.9633 45.197 87.065 44.6598 86.7199 44.6135C85.3514 44.4294 83.9577 44.5476 82.5943 44.7607C82.6196 43.313 82.6427 41.8679 82.6681 40.4198C83.9946 40.3848 85.3323 40.3692 86.6428 40.2068C87.0064 40.1616 87.0303 39.6305 86.6428 39.6215C85.3272 39.5918 83.9974 39.7126 82.6785 39.8121C82.7408 36.2432 82.8041 32.6728 82.8605 29.1119C82.8714 28.4268 81.8198 28.4293 81.7977 29.1119C81.7974 29.1217 81.797 29.1314 81.7966 29.1412C81.7652 29.1643 81.7326 29.1839 81.7037 29.22C78.2798 33.4745 75.5729 38.7001 73.0813 43.5825C72.4562 42.6113 71.6274 41.7221 70.8113 40.8586C71.9407 40.5591 73.0219 40.549 74.2045 40.5747C74.4385 40.5797 74.4989 40.2053 74.2609 40.1587C73.0415 39.9185 71.7222 40.1721 70.557 40.5881C70.2112 40.2223 69.8715 39.8595 69.5557 39.4981C69.105 38.9827 68.6528 38.4097 68.1855 37.8374C69.9334 38.134 71.724 38.3435 73.4886 38.2197C73.8199 38.1966 73.8235 37.7202 73.4886 37.7017C71.5478 37.5965 69.6375 37.5552 67.7112 37.2695C66.9462 36.3687 66.1268 35.5168 65.1838 34.9529C65.4041 34.6729 65.6048 34.3781 65.8208 34.0948C69.0638 34.3325 72.4084 34.2956 75.6406 34.1126C75.9383 34.0959 75.9397 33.6633 75.6406 33.6485C72.5017 33.4922 69.257 33.4773 66.1037 33.7136C67.3788 32.0192 68.5639 30.2579 69.6997 28.4633C72.5792 28.3848 75.3949 28.6416 78.2671 28.8757C78.5128 28.8956 78.5641 28.5002 78.3254 28.4463C75.5943 27.8288 72.7488 27.8205 69.9627 28.0538C70.9003 26.5537 71.7848 25.0188 72.6356 23.4644C74.1155 23.3736 75.5881 23.3718 77.0738 23.4008C77.3917 23.4069 77.3765 22.9493 77.0738 22.9164C75.6923 22.7666 74.3014 22.8089 72.9206 22.9529C73.5247 21.833 74.0945 20.6939 74.6574 19.5518C75.7317 19.4491 76.8046 19.3211 77.8613 19.1105C78.1076 19.0613 78.0555 18.6475 77.8016 18.6681C76.8307 18.7466 75.8666 18.8949 74.9062 19.0646C75.6319 17.5731 76.3127 16.0611 76.9739 14.5414C78.762 14.536 80.562 14.5588 82.3392 14.3797C82.6771 14.3457 82.6927 13.8458 82.3392 13.8418C80.6083 13.8223 78.872 13.9941 77.145 14.1453C77.8385 12.5363 78.4903 10.9135 79.1205 9.28534C80.1927 9.33164 81.2819 9.39567 82.3367 9.29474C82.6822 9.26183 82.6829 8.78976 82.3367 8.75684C81.3466 8.66206 80.3265 8.71379 79.3187 8.75901C79.5133 8.25004 79.7011 7.73999 79.8932 7.23066C80.7823 7.06101 81.6132 7.1178 82.5234 7.3135C82.8511 7.38404 82.9603 6.94091 82.6594 6.82045C81.8415 6.49344 80.9361 6.49235 80.0892 6.70976C80.1742 6.48041 80.2654 6.25252 80.3475 6.02282C80.3605 5.98592 80.3569 5.95517 80.3616 5.92117C84.8656 6.1657 89.7668 6.22647 94.1728 5.29427C94.2933 5.26895 94.3663 5.19805 94.4249 5.12064C94.4191 5.14777 94.3949 5.15862 94.3935 5.18901C93.4023 29.7189 93.6016 54.4394 94.6362 78.9664C90.3977 78.1633 85.8257 78.2067 81.572 78.8202ZM95.8028 78.7443C94.9115 54.2151 95.6205 29.7156 95.2468 5.18648C95.2399 4.72453 94.6854 4.67498 94.4846 4.98607C94.5736 4.69523 94.4108 4.31251 94.039 4.30709C89.9372 4.24849 85.7273 4.7003 81.5995 5.01248C82.2405 4.67679 82.8692 4.31577 83.4841 3.93848C84.4941 3.31846 85.5898 2.70459 86.4012 1.83026C86.4801 1.74525 86.5119 1.65048 86.5155 1.55823C90.8965 1.55245 95.4957 1.64505 99.8275 1.08074C97.7978 25.4865 98.6692 50.3485 99.7555 74.7829C99.7602 74.8881 99.7921 74.9739 99.8355 75.0487C98.3921 76.1528 96.9875 77.3711 95.8028 78.7443Z" fill="#FF6B55"/>
<path d="M86.4001 49.1957C85.5352 49.1053 84.6377 49.1953 83.7695 49.2192C83.4885 49.2268 83.4878 49.6486 83.7695 49.6566C84.6381 49.6804 85.5352 49.7705 86.4001 49.6801C86.7112 49.6475 86.7119 49.2283 86.4001 49.1957Z" fill="#FF6B55"/>
<path d="M85.8705 36.8127C84.9242 36.9823 84.0191 37.1259 83.0536 37.0692C82.8344 37.0561 82.8431 37.3821 83.0536 37.4056C84.0267 37.5126 85.0389 37.5065 85.9794 37.2084C86.2348 37.1274 86.128 36.7664 85.8705 36.8127Z" fill="#FF6B55"/>
<path d="M85.9201 32.8484C84.9727 32.8166 83.9917 32.9971 83.0493 33.0912C82.7238 33.1237 82.7118 33.6276 83.0493 33.6092C84.0217 33.5556 85.0367 33.5792 85.9946 33.3968C86.3133 33.3361 86.2236 32.8589 85.9201 32.8484Z" fill="#FF6B55"/>
<path d="M46.0338 60.2809C46.6974 61.4288 45.775 65.7158 46.5078 68.3797C47.832 73.1922 51.8726 76.7684 56.2932 79.7813C56.7242 80.0751 57.286 80.0729 57.712 79.7717C62.7136 76.2352 65.849 74.3036 66.9751 71.1981C67.9525 68.5025 67.3569 65.287 67.9186 62.4655C67.7939 62.2217 66.4096 59.6202 66.3384 59.5927C66.3301 59.5895 66.3216 59.5909 66.3133 59.5885C63.175 57.3361 60.117 55.9093 56.4082 54.9699C56.3764 54.9618 56.2732 54.9669 56.2475 54.9752C52.6834 56.13 49.6655 58.2379 46.1624 59.8221C45.9601 59.9136 45.9715 60.1732 46.0338 60.2809V60.2809ZM56.3468 55.5804C59.9074 56.4918 62.8596 57.8676 65.8791 60.02C65.0408 62.7255 66.4407 66.2836 65.5277 69.1063C64.1896 73.2418 59.9262 76.0082 56.2956 78.1787C51.6982 76.213 48.257 72.5 47.0782 68.2156C46.4025 65.7606 47.2403 61.8418 46.6686 60.2506C50.1327 58.6478 52.9585 56.6947 56.3468 55.5804V55.5804Z" fill="#FF6B55"/>
<path d="M49.999 62.6118C50.369 63.2525 49.8316 65.8888 50.2748 67.5003C51.0374 70.2717 53.2653 72.6663 56.2344 73.906C56.3825 73.9682 56.478 73.892 56.5589 73.8434C58.888 72.4516 61.5259 70.7204 62.3856 68.0622C62.9931 66.1845 62.0854 63.9082 62.6392 62.4128C62.6972 62.2564 62.6201 62.0814 62.4672 62.0222C62.4582 62.0187 62.449 62.0202 62.4399 62.0176C60.5547 61.1093 58.6781 60.2119 56.4725 59.2279C56.433 59.2104 56.3375 59.1927 56.2646 59.2168C54.2352 59.8742 52.2749 60.8167 50.0953 62.1826C49.9469 62.2754 49.9186 62.4725 49.999 62.6118V62.6118ZM61.8233 67.8717C61.0275 70.3319 58.4763 71.9931 56.3207 73.2834C53.5893 72.0982 51.5467 69.8861 50.8452 67.3362C50.4489 65.8968 50.9298 63.6149 50.6166 62.57C52.6317 61.325 54.4604 60.4489 56.3396 59.83C58.42 60.7599 60.2119 61.6145 62.0002 62.4759C61.5625 64.1238 62.3508 66.2413 61.8233 67.8717Z" fill="#FF6B55"/>
<path d="M59.3729 63.7648L55.7071 67.8057C55.3645 68.1838 55.2805 68.1636 55.0059 67.8319L53.3543 65.8323C53.2488 65.7045 53.0621 65.6883 52.937 65.7964C52.812 65.9043 52.7962 66.0954 52.9019 66.2232L54.5535 68.2229C55.0884 68.8718 55.5859 68.8304 56.1413 68.2179L59.8071 64.177C59.9184 64.0543 59.9115 63.8626 59.7915 63.7488C59.6716 63.6352 59.4843 63.6421 59.3729 63.7648V63.7648Z" fill="#FF6B55"/>
<path d="M68.7104 54.0367C68.5665 53.9572 68.3866 54.011 68.3087 54.1584L66.5944 57.3874C66.5163 57.5346 66.5697 57.7184 66.7134 57.7983C66.8567 57.8776 67.0368 57.8243 67.1151 57.6766L68.8294 54.4475C68.9075 54.3004 68.8541 54.1166 68.7104 54.0367V54.0367Z" fill="#FF6B55"/>
<path d="M68.2404 58.6866L71.3628 57.215C71.5113 57.145 71.5763 56.9651 71.5078 56.813C71.4392 56.6611 71.2631 56.5945 71.1148 56.6647L67.9925 58.1363C67.844 58.2063 67.779 58.3862 67.8474 58.5383C67.9163 58.6912 68.0931 58.7562 68.2404 58.6866V58.6866Z" fill="#FF6B55"/>
<path d="M71.5732 59.8184L68.7135 59.6703C68.5438 59.6622 68.4111 59.7904 68.4026 59.9575C68.3943 60.1245 68.52 60.2669 68.6834 60.2754L71.5431 60.4236C71.5483 60.4238 71.5533 60.424 71.5584 60.424C71.7151 60.424 71.8461 60.2981 71.854 60.1364C71.8623 59.9691 71.7365 59.8269 71.5732 59.8184Z" fill="#FF6B55"/>
</g>
<g opacity="0.4">
<path d="M156.826 69.0314C111.331 103.596 47.8274 102.899 4.64353 64.9271C2.35404 62.915 -1.01341 66.2526 1.29035 68.3179C45.5582 107.921 112.571 109.428 157.231 69.5506C157.49 69.31 157.125 68.7991 156.826 69.0314Z" fill="#FF6B55"/>
<path d="M155.534 67.8183C153.193 67.5323 151.077 69.4312 148.979 70.3358C146.009 71.6072 142.913 72.2655 139.708 72.5156C137.486 72.6733 137.451 76.1644 139.686 75.9841C143.043 75.7315 146.308 75.0658 149.424 73.7742C151.824 72.7887 155.577 71.4596 156.132 68.6285C156.222 68.1856 155.95 67.8782 155.534 67.8183Z" fill="#FF6B55"/>
<path d="M156.386 68.4466C153.965 70.2749 151.903 72.0259 150.069 74.5531C148.165 77.1751 146.782 80.038 145.549 83.032C144.552 85.4872 148.628 86.6401 149.57 84.1234C151.49 79.0048 154.27 73.8271 157.111 69.1655C157.38 68.7509 156.83 68.1182 156.386 68.4466Z" fill="#FF6B55"/>
</g>
</svg>
