<svg width="189" height="80" viewBox="0 0 189 80" fill="none" xmlns="http://www.w3.org/2000/svg">
<g opacity="0.2" clip-path="url(#clip0_1635_61686)">
<path d="M14.1881 22.1664C49.5697 15.4088 85.775 11.8206 121.78 14.6643C137.43 15.8965 155.264 17.1851 169.756 23.6183C176.631 26.6744 183.464 31.634 183.983 39.7832C184.636 50.1157 174.884 57.2313 166.504 61.1041C137.129 74.6764 99.9252 69.3544 68.8415 65.5862C51.7442 63.4968 34.6284 60.1239 18.6752 53.4147C13.7164 51.3352 0.842412 46.6792 7.27769 39.7588C10.5942 36.1847 16.5851 34.3322 21.0621 32.7374C54.4191 20.798 90.0933 20.7981 124.902 24.8193C126.676 25.0245 126.949 22.2698 125.175 22.0647C89.4708 17.9546 52.4977 17.9568 18.4627 30.8483C13.0513 32.8893 -0.560237 37.8744 3.20254 46.1268C5.53782 51.2666 13.0195 53.8002 17.7543 55.7846C26.6646 59.5086 35.9696 62.194 45.3969 64.2361C65.4956 68.5748 86.2705 70.0679 106.778 71.1702C124.485 72.1113 142.774 72.0469 159.769 66.3345C171.723 62.321 189.11 52.9626 186.228 37.6028C183.888 25.1514 169.293 20.0479 158.545 17.6417C111.103 6.97843 61.1699 11.5787 14.098 21.604C13.7398 21.685 13.8313 22.233 14.1881 22.1664Z" fill="#FF6B55"/>
<path d="M109.494 18.3536C114.274 20.9105 119.35 22.8413 124.452 24.6582C126.086 25.2427 127.066 22.7184 125.416 22.1468C120.255 20.3387 115.038 18.656 109.651 17.6555C109.222 17.5692 109.162 18.175 109.494 18.3536Z" fill="#FF6B55"/>
<path d="M110.478 26.68C115.179 26.3599 119.779 25.8697 124.438 25.0939C126.115 24.8087 125.662 22.1714 123.995 22.5012C119.351 23.4241 114.886 24.5978 110.36 25.9547C109.908 26.0992 110.008 26.7062 110.478 26.68Z" fill="#FF6B55"/>
</g>
<defs>
<clipPath id="clip0_1635_61686">
<rect width="182.959" height="60.9864" fill="white" transform="translate(6.75391 0.7771) rotate(5.66561)"/>
</clipPath>
</defs>
</svg>
