<svg width="17" height="18" viewBox="0 0 17 18" fill="none" xmlns="http://www.w3.org/2000/svg">
<g clip-path="url(#clip0_1621_771)">
<path d="M7.65937 0.0386734C5.42309 0.281252 3.54218 1.91953 3.03605 4.06406C2.91401 4.58086 2.88529 4.99922 2.88529 6.33867C2.88529 7.75547 2.89606 7.85039 3.11143 8.12813C3.17605 8.2125 3.31245 8.325 3.41295 8.38477L3.59602 8.49024L3.61038 8.82422C3.62833 9.22149 3.70371 9.41484 3.92626 9.63281C4.13804 9.84023 4.34982 9.92461 4.70877 9.94219L5.0067 9.95977L5.10003 10.1391C5.22208 10.3781 5.37284 10.5926 5.58462 10.8352L5.76051 11.0355L5.4554 11.6297L5.15029 12.2238L4.1165 12.5648C2.75966 13.0148 2.35404 13.2258 1.69357 13.8445C0.799778 14.6848 0.25776 15.7254 0.0675148 16.9629C0.0387986 17.1563 0.0136719 17.4129 0.0136719 17.5324C0.0136719 17.7258 0.02803 17.768 0.117768 17.8664L0.221864 17.9824L8.24805 17.993L16.2742 18L16.3891 17.9016C16.486 17.8137 16.504 17.7715 16.5183 17.5887C16.5255 17.4762 16.5076 17.2055 16.4752 16.991C16.285 15.7324 15.7466 14.6918 14.8456 13.8445C14.1851 13.2258 13.7795 13.0148 12.4227 12.5648L11.3889 12.2238L11.0838 11.6297L10.7787 11.0355L10.9546 10.8352C11.4068 10.3184 11.7084 9.69609 11.8376 9.01758C11.8699 8.8418 11.9058 8.66602 11.913 8.62735C11.9309 8.55352 11.9524 8.55 12.3868 8.53594C12.7601 8.52539 12.8785 8.50781 13.0114 8.44805C13.2267 8.35313 13.46 8.12461 13.5605 7.91367C13.6323 7.75899 13.6359 7.6957 13.6467 6.45117C13.6539 5.66367 13.6431 4.99922 13.618 4.76367C13.4923 3.52969 12.9862 2.47149 12.0996 1.58555C10.9366 0.421877 9.31414 -0.140623 7.65937 0.0386734ZM9.14902 0.791018C10.1182 0.987892 10.8756 1.38867 11.5576 2.05313C12.3078 2.78789 12.7529 3.67383 12.8929 4.70039L12.9252 4.92188H12.577H12.2324L12.1858 4.56328C12.0314 3.33633 11.2956 2.3168 10.1792 1.77539C9.60489 1.49766 9.13107 1.40625 8.26958 1.40625C7.4081 1.40625 6.93428 1.49766 6.35996 1.77539C5.24361 2.3168 4.50776 3.33633 4.35341 4.56328L4.30675 4.92188H3.95856C3.64627 4.92188 3.61038 4.91484 3.62115 4.85859C3.62833 4.82695 3.65345 4.67227 3.67499 4.51758C3.76473 3.93399 4.016 3.3082 4.39648 2.73867C4.65852 2.34492 5.25797 1.75078 5.64205 1.50117C6.19484 1.13906 6.91274 0.857815 7.47989 0.776955C7.62706 0.755861 7.78859 0.731251 7.83884 0.72422C8.0255 0.692579 8.87263 0.734768 9.14902 0.791018ZM9.10236 2.1586C9.63002 2.26055 10.0105 2.43281 10.4269 2.75977C11.073 3.26953 11.4427 4.01133 11.4894 4.87969L11.5109 5.27695L11.353 5.25235C10.9258 5.19258 10.2941 5.05195 10.0069 4.95352C9.30696 4.71445 8.54598 4.28203 8.05421 3.84258C7.72398 3.55078 7.66654 3.51563 7.47989 3.51563C7.11735 3.51563 6.47841 3.67031 6.13741 3.83906C5.83948 3.98672 5.51642 4.21172 5.29387 4.4332L5.06414 4.6582L5.08567 4.48945C5.1467 4.05352 5.41232 3.50508 5.75333 3.10078C6.15176 2.6332 6.80506 2.26758 7.46194 2.14805C7.75628 2.09531 8.80442 2.10235 9.10236 2.1586ZM7.57681 4.36992C8.53521 5.19961 9.7054 5.71992 11.0838 5.92031C11.2776 5.94844 11.4463 5.98008 11.4535 5.99063C11.4822 6.01875 11.3997 7.03125 11.3207 7.67813C11.1268 9.22149 10.9617 9.71367 10.4341 10.3535C10.0931 10.7648 9.51515 11.134 8.98749 11.2746C8.66443 11.3625 7.87474 11.3625 7.55168 11.2746C6.98453 11.1234 6.38867 10.7262 6.01895 10.248C5.91486 10.1145 5.82871 9.99141 5.82871 9.97734C5.82871 9.95977 5.98665 9.94922 6.18048 9.94922L6.52866 9.95273L6.63635 10.132C6.76916 10.3605 6.99171 10.5293 7.25016 10.6031C7.55527 10.6875 8.47778 10.6629 8.70392 10.5574C8.91929 10.4625 9.15261 10.234 9.24953 10.023C9.35721 9.79805 9.35721 9.39727 9.24953 9.17227C9.15261 8.96133 8.91929 8.73281 8.70392 8.63789C8.47778 8.53242 7.55527 8.50781 7.25016 8.59219C6.99171 8.66602 6.76916 8.83477 6.63635 9.06328L6.52866 9.24258L6.001 9.24609C5.70666 9.24609 5.46975 9.23555 5.46975 9.21797C5.46975 9.20391 5.44463 9.08086 5.41591 8.94727C5.29028 8.34961 5.13234 7.04531 5.08926 6.25781L5.06773 5.81836L5.3513 5.44922C5.50924 5.24531 5.74615 4.98164 5.87896 4.86211C6.27022 4.51055 6.81942 4.275 7.36143 4.22227C7.38656 4.22227 7.48348 4.28555 7.57681 4.36992ZM4.33546 5.79024C4.34623 5.88516 4.36418 6.14883 4.37495 6.38086C4.38931 6.61289 4.42161 7.00664 4.45033 7.25977C4.47545 7.50938 4.50058 7.74492 4.50058 7.78008C4.50058 7.83984 4.47187 7.84688 4.15958 7.83281C3.8437 7.82227 3.81139 7.81524 3.72165 7.72383L3.62115 7.62891L3.61038 6.62695L3.59961 5.625H3.95856H4.31393L4.33546 5.79024ZM12.9288 6.62695L12.918 7.62891L12.8175 7.72383C12.7278 7.81524 12.6955 7.82227 12.3796 7.83281C12.0673 7.84688 12.0386 7.83984 12.0386 7.78008C12.0386 7.74492 12.0637 7.50938 12.0888 7.25977C12.1176 7.00664 12.1499 6.60586 12.1642 6.36328C12.175 6.1207 12.1929 5.85703 12.2037 5.77266L12.2217 5.625H12.5806H12.9396L12.9288 6.62695ZM4.62621 8.62031C4.63339 8.66602 4.65852 8.79961 4.68006 8.92266C4.70159 9.0457 4.73031 9.16875 4.74108 9.20039C4.77697 9.28828 4.54007 9.22852 4.42879 9.12305C4.357 9.04922 4.33905 8.99297 4.32828 8.78906L4.31393 8.54297H4.4611C4.58314 8.54297 4.60827 8.55703 4.62621 8.62031ZM8.51008 9.35859C8.65725 9.50625 8.65007 9.71016 8.48855 9.85078L8.37009 9.95625L7.8891 9.94219C7.42964 9.93164 7.40451 9.92813 7.31836 9.84023C7.18555 9.71367 7.16401 9.53438 7.26452 9.41133C7.38656 9.26367 7.45476 9.24609 7.95371 9.25664C8.39881 9.26367 8.41317 9.26719 8.51008 9.35859ZM10.5166 12.0621L10.7535 12.5262L10.6566 12.7898C10.5274 13.1414 10.2725 13.7285 10.0931 14.0766L9.94948 14.3543L9.34285 13.7602L8.73622 13.166L8.89057 13.0078C8.97672 12.9199 9.31773 12.5684 9.64796 12.2238C9.98179 11.8828 10.2582 11.6016 10.2654 11.6016C10.2725 11.6016 10.3838 11.809 10.5166 12.0621ZM7.1676 13.7707C6.8589 14.0871 6.60045 14.3438 6.59328 14.3438C6.56097 14.3438 6.12305 13.4051 5.95434 12.9762L5.78204 12.5438L5.99382 12.1254L6.20202 11.707L6.96659 12.4523L7.72757 13.1941L7.1676 13.7707ZM8.30907 12.041H8.83673L8.54598 12.3398C8.38445 12.5051 8.24446 12.6422 8.23369 12.6492C8.22292 12.6527 8.06139 12.5051 7.87474 12.3223C7.54809 12.0023 7.54091 11.9883 7.65937 12.0129C7.72757 12.0305 8.02191 12.041 8.30907 12.041ZM5.36207 13.4297C5.74256 14.3578 6.25586 15.2824 6.92351 16.2422C7.10658 16.5023 7.33631 16.8469 7.4404 17.0086L7.62347 17.2969H4.1847H0.742346L0.774652 17.0578C0.964897 15.6551 1.86228 14.3508 3.08272 13.7039C3.35552 13.5598 5.0426 12.9691 5.13952 12.9832C5.16464 12.9867 5.26515 13.1871 5.36207 13.4297ZM12.2683 13.2539C12.7385 13.4086 13.2518 13.602 13.4134 13.6828C14.6482 14.3121 15.5743 15.6375 15.7645 17.0578L15.7968 17.2969H12.3545H8.9157L9.09877 17.0086C9.20286 16.8469 9.43259 16.5023 9.61566 16.2422C10.269 15.3035 10.7428 14.4598 11.1125 13.5703C11.2238 13.3102 11.3207 13.0676 11.3315 13.0324C11.3458 13.0008 11.3673 12.9727 11.3853 12.9727C11.4032 12.9727 11.7981 13.0992 12.2683 13.2539ZM8.90493 14.3508C9.26747 14.7059 9.56182 15.0082 9.56182 15.0258C9.56182 15.0434 9.38952 15.3105 9.17774 15.6164C8.96236 15.9258 8.68238 16.3477 8.54598 16.5516C8.41317 16.759 8.28753 16.9277 8.26958 16.9277C8.25164 16.9277 8.126 16.759 7.99319 16.5516C7.85679 16.3477 7.57322 15.9223 7.35784 15.6129C7.14606 15.3 6.97736 15.0258 6.98812 15.0012C7.00966 14.9484 8.19779 13.7109 8.2301 13.7109C8.24087 13.7109 8.54598 13.9992 8.90493 14.3508Z" fill="#214842"/>
<path d="M12.0891 13.9569C11.9742 14.0026 11.8594 14.1643 11.8594 14.2768C11.8594 14.4175 12.0245 14.5862 12.186 14.6108C12.2973 14.6284 12.3368 14.6143 12.4373 14.5265C12.5378 14.4386 12.5593 14.3964 12.5593 14.2733C12.5593 14.1503 12.5378 14.1081 12.4409 14.0237C12.3224 13.9218 12.2255 13.9007 12.0891 13.9569Z" fill="#214842"/>
<path d="M13.3482 14.6214C13.219 14.6741 13.1328 14.8007 13.1328 14.9413C13.1328 15.0644 13.1651 15.1065 13.4774 15.4229C13.6712 15.6198 13.8866 15.88 13.9764 16.0241C14.1486 16.3124 14.2743 16.4003 14.4609 16.3687C14.5973 16.344 14.6835 16.2597 14.7266 16.1085C14.7876 15.9046 14.4753 15.3983 14.0087 14.9448C13.6677 14.6108 13.5384 14.5476 13.3482 14.6214Z" fill="#214842"/>
</g>
<defs>
<clipPath id="clip0_1621_771">
<rect width="16.5405" height="18" fill="white"/>
</clipPath>
</defs>
</svg>
