<svg width="20" height="23" viewBox="0 0 20 23" fill="none" xmlns="http://www.w3.org/2000/svg">
<g clip-path="url(#clip0_1007_40)">
<path d="M9.26237 0.0494137C6.55838 0.359375 4.28407 2.45273 3.67209 5.19297C3.52452 5.85332 3.4898 6.38789 3.4898 8.09941C3.4898 9.90977 3.50282 10.0311 3.76324 10.3859C3.84136 10.4938 4.00629 10.6375 4.12782 10.7139L4.34918 10.8486L4.36654 11.2754C4.38824 11.783 4.47938 12.0301 4.74848 12.3086C5.00456 12.5736 5.26063 12.6814 5.69466 12.7039L6.0549 12.7264L6.16775 12.9555C6.31532 13.2609 6.49761 13.535 6.75369 13.8449L6.96636 14.101L6.59744 14.8602L6.22852 15.6193L4.97852 16.0551C3.33789 16.6301 2.84744 16.8996 2.04883 17.6902C0.968099 18.7639 0.312717 20.0936 0.0826823 21.6748C0.0479601 21.9219 0.0175781 22.2498 0.0175781 22.4025C0.0175781 22.6496 0.0349392 22.7035 0.143446 22.8293L0.269314 22.9775L9.97418 22.991L19.679 23L19.8179 22.8742C19.9351 22.7619 19.9568 22.708 19.9742 22.4744C19.9829 22.3307 19.9612 21.9848 19.9221 21.7107C19.6921 20.1025 19.041 18.7729 17.9516 17.6902C17.153 16.8996 16.6625 16.6301 15.0219 16.0551L13.7719 15.6193L13.403 14.8602L13.0341 14.101L13.2467 13.8449C13.7936 13.1846 14.1582 12.3895 14.3145 11.5225C14.3535 11.2979 14.3969 11.0732 14.4056 11.0238C14.4273 10.9295 14.4533 10.925 14.9785 10.907C15.4299 10.8936 15.5731 10.8711 15.7337 10.7947C15.9941 10.6734 16.2763 10.3814 16.3978 10.1119C16.4846 9.91426 16.4889 9.8334 16.502 8.24316C16.5106 7.23691 16.4976 6.38789 16.4672 6.08691C16.3153 4.51016 15.7033 3.15801 14.6313 2.02598C13.225 0.539062 11.2632 -0.179688 9.26237 0.0494137ZM11.0636 1.01074C12.2355 1.2623 13.1513 1.77441 13.9759 2.62344C14.883 3.56231 15.4212 4.69434 15.5905 6.00606L15.6296 6.28906H15.2086H14.7919L14.7355 5.83086C14.5488 4.26309 13.6591 2.96035 12.3092 2.26855C11.6148 1.91367 11.0419 1.79688 10.0002 1.79688C8.95855 1.79688 8.38563 1.91367 7.69119 2.26855C6.34136 2.96035 5.45161 4.26309 5.26497 5.83086L5.20855 6.28906H4.78754C4.40994 6.28906 4.36654 6.28008 4.37956 6.2082C4.38824 6.16777 4.41862 5.97012 4.44466 5.77246C4.55317 5.02676 4.85699 4.22715 5.31706 3.49941C5.6339 2.99629 6.35872 2.23711 6.82313 1.91817C7.49154 1.45547 8.35959 1.09609 9.04536 0.992773C9.22331 0.96582 9.41862 0.934376 9.47938 0.92539C9.70508 0.884962 10.7294 0.938868 11.0636 1.01074ZM11.0072 2.7582C11.6452 2.88848 12.1053 3.10859 12.6087 3.52637C13.39 4.17773 13.837 5.12559 13.8934 6.23516L13.9195 6.74277L13.7285 6.71133C13.212 6.63496 12.4481 6.45527 12.1009 6.32949C11.2546 6.02402 10.3344 5.47149 9.7398 4.90996C9.3405 4.53711 9.27105 4.49219 9.04536 4.49219C8.60699 4.49219 7.83442 4.68984 7.42209 4.90547C7.06185 5.09414 6.67122 5.38164 6.40213 5.66465L6.12435 5.95215L6.15039 5.73652C6.22418 5.17949 6.54536 4.47871 6.95768 3.96211C7.43945 3.36465 8.22938 2.89746 9.02365 2.74473C9.37956 2.67734 10.6469 2.68633 11.0072 2.7582ZM9.16254 5.58379C10.3214 6.64395 11.7363 7.30879 13.403 7.56484C13.6374 7.60078 13.8414 7.64121 13.85 7.65469C13.8848 7.69063 13.7849 8.98438 13.6895 9.81094C13.4551 11.783 13.2554 12.4119 12.6174 13.2295C12.2051 13.7551 11.5063 14.2268 10.8683 14.4064C10.4776 14.5188 9.52279 14.5188 9.13216 14.4064C8.4464 14.2133 7.72591 13.7057 7.27886 13.0947C7.153 12.924 7.04883 12.7668 7.04883 12.7488C7.04883 12.7264 7.2398 12.7129 7.47418 12.7129L7.89518 12.7174L8.02539 12.9465C8.18598 13.2385 8.45508 13.4541 8.76758 13.5484C9.1365 13.6562 10.252 13.6248 10.5254 13.49C10.7858 13.3688 11.0679 13.0768 11.1851 12.8072C11.3153 12.5197 11.3153 12.0076 11.1851 11.7201C11.0679 11.4506 10.7858 11.1586 10.5254 11.0373C10.252 10.9025 9.1365 10.8711 8.76758 10.9789C8.45508 11.0732 8.18598 11.2889 8.02539 11.5809L7.89518 11.81L7.25716 11.8145C6.90126 11.8145 6.6148 11.801 6.6148 11.7785C6.6148 11.7605 6.58442 11.6033 6.5497 11.4326C6.39779 10.6689 6.20681 9.00234 6.15473 7.99609L6.12869 7.43457L6.47157 6.96289C6.66254 6.70234 6.949 6.36543 7.10959 6.2127C7.58268 5.76348 8.24675 5.4625 8.90213 5.39512C8.93251 5.39512 9.0497 5.47598 9.16254 5.58379ZM5.24327 7.39863C5.25629 7.51992 5.278 7.85684 5.29102 8.15332C5.30838 8.44981 5.34744 8.95293 5.38216 9.27637C5.41254 9.59531 5.44293 9.89629 5.44293 9.94121C5.44293 10.0176 5.4082 10.0266 5.0306 10.0086C4.64865 9.99512 4.60959 9.98613 4.50109 9.86934L4.37956 9.74805L4.36654 8.46777L4.35352 7.1875H4.78754H5.21723L5.24327 7.39863ZM15.6339 8.46777L15.6209 9.74805L15.4993 9.86934C15.3908 9.98613 15.3518 9.99512 14.9698 10.0086C14.5922 10.0266 14.5575 10.0176 14.5575 9.94121C14.5575 9.89629 14.5879 9.59531 14.6183 9.27637C14.653 8.95293 14.6921 8.44082 14.7094 8.13086C14.7224 7.8209 14.7441 7.48398 14.7572 7.37617L14.7789 7.1875H15.2129H15.6469L15.6339 8.46777ZM5.59484 11.0148C5.60352 11.0732 5.6339 11.2439 5.65994 11.4012C5.68598 11.5584 5.7207 11.7156 5.73372 11.7561C5.77713 11.8684 5.49067 11.792 5.35612 11.6572C5.26931 11.5629 5.24761 11.491 5.23459 11.2305L5.21723 10.916H5.39518C5.54275 10.916 5.57313 10.934 5.59484 11.0148ZM10.291 11.9582C10.469 12.1469 10.4603 12.4074 10.265 12.5871L10.1217 12.7219L9.54015 12.7039C8.98459 12.6904 8.95421 12.6859 8.85004 12.5736C8.68945 12.4119 8.66341 12.1828 8.78494 12.0256C8.93251 11.8369 9.01497 11.8145 9.61827 11.8279C10.1565 11.8369 10.1738 11.8414 10.291 11.9582ZM12.7172 15.4127L13.0037 16.0057L12.8865 16.3426C12.7303 16.7918 12.4221 17.542 12.2051 17.9867L12.0315 18.3416L11.298 17.5824L10.5645 16.8232L10.7511 16.6211C10.8553 16.5088 11.2676 16.0596 11.6669 15.6193C12.0705 15.1836 12.4047 14.8242 12.4134 14.8242C12.4221 14.8242 12.5566 15.0893 12.7172 15.4127ZM8.66775 17.5959C8.29449 18.0002 7.98199 18.3281 7.97331 18.3281C7.93425 18.3281 7.40473 17.1287 7.20074 16.5807L6.9924 16.0281L7.24848 15.4936L7.50022 14.959L8.4247 15.9113L9.34484 16.8592L8.66775 17.5959ZM10.048 15.3857H10.686L10.3344 15.7676C10.1391 15.9787 9.96984 16.1539 9.95681 16.1629C9.94379 16.1674 9.74848 15.9787 9.52279 15.7451C9.12782 15.3363 9.11914 15.3184 9.26237 15.3498C9.34484 15.3723 9.70074 15.3857 10.048 15.3857ZM6.48459 17.1602C6.94466 18.3461 7.56532 19.5275 8.37261 20.7539C8.59397 21.0863 8.87175 21.5266 8.99761 21.7332L9.21897 22.1016H5.06098H0.898655L0.937717 21.7961C1.16775 20.0037 2.25282 18.3371 3.72852 17.5105C4.05838 17.3264 6.09831 16.5717 6.2155 16.5896C6.24588 16.5941 6.3674 16.8502 6.48459 17.1602ZM14.8353 16.9355C15.4039 17.1332 16.0245 17.3803 16.2198 17.4836C17.7129 18.2877 18.8327 19.9813 19.0627 21.7961L19.1018 22.1016H14.9395H10.7815L11.0028 21.7332C11.1287 21.5266 11.4065 21.0863 11.6278 20.7539C12.4178 19.5545 12.9907 18.4764 13.4377 17.3398C13.5723 17.0074 13.6895 16.6975 13.7025 16.6525C13.7198 16.6121 13.7459 16.5762 13.7676 16.5762C13.7893 16.5762 14.2667 16.7379 14.8353 16.9355ZM10.7684 18.3371C11.2068 18.7908 11.5627 19.1771 11.5627 19.1996C11.5627 19.2221 11.3544 19.5635 11.0983 19.9543C10.8379 20.3496 10.4993 20.8887 10.3344 21.1492C10.1738 21.4143 10.0219 21.6299 10.0002 21.6299C9.97852 21.6299 9.82661 21.4143 9.66602 21.1492C9.50109 20.8887 9.1582 20.3451 8.89779 19.9498C8.64171 19.55 8.43772 19.1996 8.45074 19.1682C8.47678 19.1008 9.91341 17.5195 9.95247 17.5195C9.9655 17.5195 10.3344 17.8879 10.7684 18.3371Z" fill="url(#paint0_linear_1007_40)"/>
<path d="M14.6186 17.834C14.4797 17.8924 14.3408 18.099 14.3408 18.2428C14.3408 18.4225 14.5405 18.6381 14.7358 18.6695C14.8703 18.692 14.9181 18.674 15.0396 18.5617C15.1611 18.4494 15.1872 18.3955 15.1872 18.2383C15.1872 18.0811 15.1611 18.0272 15.0439 17.9193C14.9007 17.7891 14.7835 17.7621 14.6186 17.834Z" fill="url(#paint1_linear_1007_40)"/>
<path d="M16.1423 18.6829C15.986 18.7503 15.8818 18.912 15.8818 19.0917C15.8818 19.2489 15.9209 19.3028 16.2985 19.7071C16.5329 19.9587 16.7933 20.2911 16.9018 20.4753C17.1101 20.8437 17.262 20.956 17.4877 20.9155C17.6527 20.8841 17.7568 20.7763 17.8089 20.5831C17.8827 20.3226 17.5051 19.6757 16.9409 19.0962C16.5285 18.6694 16.3723 18.5886 16.1423 18.6829Z" fill="url(#paint2_linear_1007_40)"/>
</g>
<defs>
<linearGradient id="paint0_linear_1007_40" x1="0.0175781" y1="11.5038" x2="19.9761" y2="11.5038" gradientUnits="userSpaceOnUse">
<stop stop-color="#F86CA7"/>
<stop offset="1" stop-color="#FF7F18"/>
</linearGradient>
<linearGradient id="paint1_linear_1007_40" x1="14.3408" y1="18.2365" x2="15.1872" y2="18.2365" gradientUnits="userSpaceOnUse">
<stop stop-color="#F86CA7"/>
<stop offset="1" stop-color="#FF7F18"/>
</linearGradient>
<linearGradient id="paint2_linear_1007_40" x1="15.8818" y1="19.7855" x2="17.8181" y2="19.7855" gradientUnits="userSpaceOnUse">
<stop stop-color="#F86CA7"/>
<stop offset="1" stop-color="#FF7F18"/>
</linearGradient>
<clipPath id="clip0_1007_40">
<rect width="20" height="23" fill="white"/>
</clipPath>
</defs>
</svg>
