<svg width="40" height="40" viewBox="0 0 40 40" fill="none" xmlns="http://www.w3.org/2000/svg">
<g clip-path="url(#clip0_1543_46285)">
<path d="M34.2263 21.3533H31.1328C31.4481 22.2166 31.6204 23.1482 31.6204 24.1192V35.8106C31.6204 36.2155 31.5499 36.6041 31.4217 36.9655H36.5359C38.4463 36.9655 40.0004 35.4113 40.0004 33.5009V27.1274C40.0005 23.9436 37.4102 21.3533 34.2263 21.3533Z" fill="url(#paint0_linear_1543_46285)"/>
<path d="M8.38008 24.1193C8.38008 23.1482 8.55234 22.2166 8.86766 21.3534H5.77422C2.59031 21.3534 0 23.9437 0 27.1276V33.5011C0 35.4114 1.55414 36.9656 3.46453 36.9656H8.57875C8.45055 36.6041 8.38008 36.2155 8.38008 35.8107V24.1193Z" fill="url(#paint1_linear_1543_46285)"/>
<path d="M23.5357 18.3451H16.4637C13.2798 18.3451 10.6895 20.9354 10.6895 24.1193V35.8107C10.6895 36.4484 11.2065 36.9655 11.8443 36.9655H28.1551C28.7929 36.9655 29.3099 36.4485 29.3099 35.8107V24.1193C29.3099 20.9354 26.7196 18.3451 23.5357 18.3451Z" fill="url(#paint2_linear_1543_46285)"/>
<path d="M19.9999 3.0345C16.1708 3.0345 13.0557 6.14966 13.0557 9.9788C13.0557 12.5761 14.4892 14.8444 16.6062 16.0354C17.6104 16.6002 18.768 16.923 19.9999 16.923C21.2318 16.923 22.3894 16.6002 23.3936 16.0354C25.5107 14.8444 26.9441 12.576 26.9441 9.9788C26.9441 6.14973 23.8289 3.0345 19.9999 3.0345Z" fill="url(#paint3_linear_1543_46285)"/>
<path d="M7.80566 9.5071C4.94199 9.5071 2.6123 11.8368 2.6123 14.7005C2.6123 17.5641 4.94199 19.8938 7.80566 19.8938C8.53207 19.8938 9.22379 19.7433 9.85215 19.4729C10.9386 19.0051 11.8343 18.1772 12.3886 17.1401C12.7777 16.4122 12.999 15.5818 12.999 14.7005C12.999 11.8369 10.6693 9.5071 7.80566 9.5071Z" fill="url(#paint4_linear_1543_46285)"/>
<path d="M32.1943 9.5071C29.3307 9.5071 27.001 11.8368 27.001 14.7005C27.001 15.5819 27.2223 16.4123 27.6114 17.1401C28.1657 18.1773 29.0614 19.0052 30.1479 19.4729C30.7762 19.7433 31.4679 19.8938 32.1943 19.8938C35.058 19.8938 37.3877 17.5641 37.3877 14.7005C37.3877 11.8368 35.058 9.5071 32.1943 9.5071Z" fill="url(#paint5_linear_1543_46285)"/>
</g>
<defs>
<linearGradient id="paint0_linear_1543_46285" x1="31.1328" y1="29.1594" x2="40.0004" y2="29.1594" gradientUnits="userSpaceOnUse">
<stop stop-color="#F86CA7"/>
<stop offset="1" stop-color="#FF7F18"/>
</linearGradient>
<linearGradient id="paint1_linear_1543_46285" x1="0" y1="29.1595" x2="8.86766" y2="29.1595" gradientUnits="userSpaceOnUse">
<stop stop-color="#F86CA7"/>
<stop offset="1" stop-color="#FF7F18"/>
</linearGradient>
<linearGradient id="paint2_linear_1543_46285" x1="10.6895" y1="27.6553" x2="29.3099" y2="27.6553" gradientUnits="userSpaceOnUse">
<stop stop-color="#F86CA7"/>
<stop offset="1" stop-color="#FF7F18"/>
</linearGradient>
<linearGradient id="paint3_linear_1543_46285" x1="13.0557" y1="9.97876" x2="26.9441" y2="9.97876" gradientUnits="userSpaceOnUse">
<stop stop-color="#F86CA7"/>
<stop offset="1" stop-color="#FF7F18"/>
</linearGradient>
<linearGradient id="paint4_linear_1543_46285" x1="2.6123" y1="14.7005" x2="12.999" y2="14.7005" gradientUnits="userSpaceOnUse">
<stop stop-color="#F86CA7"/>
<stop offset="1" stop-color="#FF7F18"/>
</linearGradient>
<linearGradient id="paint5_linear_1543_46285" x1="27.001" y1="14.7005" x2="37.3877" y2="14.7005" gradientUnits="userSpaceOnUse">
<stop stop-color="#F86CA7"/>
<stop offset="1" stop-color="#FF7F18"/>
</linearGradient>
<clipPath id="clip0_1543_46285">
<rect width="40" height="40" fill="white"/>
</clipPath>
</defs>
</svg>
