<svg width="40" height="34" viewBox="0 0 40 34" fill="none" xmlns="http://www.w3.org/2000/svg">
<path d="M34.2263 18.3533H31.1328C31.4481 19.2166 31.6204 20.1482 31.6204 21.1192V32.8106C31.6204 33.2155 31.5499 33.6041 31.4217 33.9655H36.5359C38.4463 33.9655 40.0004 32.4112 40.0004 30.5009V24.1274C40.0005 20.9436 37.4102 18.3533 34.2263 18.3533Z" fill="#FF6B55"/>
<path d="M8.38008 21.1192C8.38008 20.1481 8.55234 19.2166 8.86766 18.3533H5.77422C2.59031 18.3533 0 20.9436 0 24.1275V30.501C0 32.4113 1.55414 33.9655 3.46453 33.9655H8.57875C8.45055 33.604 8.38008 33.2155 8.38008 32.8106V21.1192Z" fill="#FF6B55"/>
<path d="M23.5357 15.345H16.4637C13.2798 15.345 10.6895 17.9353 10.6895 21.1192V32.8106C10.6895 33.4483 11.2065 33.9654 11.8443 33.9654H28.1551C28.7929 33.9654 29.3099 33.4484 29.3099 32.8106V21.1192C29.3099 17.9353 26.7196 15.345 23.5357 15.345Z" fill="#FF6B55"/>
<path d="M20.0009 0.0344238C16.1718 0.0344238 13.0566 3.14958 13.0566 6.97872C13.0566 9.57598 14.4902 11.8443 16.6072 13.0353C17.6113 13.6001 18.769 13.9229 20.0009 13.9229C21.2327 13.9229 22.3904 13.6001 23.3945 13.0353C25.5116 11.8443 26.9451 9.57591 26.9451 6.97872C26.9451 3.14966 23.8299 0.0344238 20.0009 0.0344238Z" fill="#FF6B55"/>
<path d="M7.80664 6.50708C4.94297 6.50708 2.61328 8.83677 2.61328 11.7004C2.61328 14.5641 4.94297 16.8938 7.80664 16.8938C8.53305 16.8938 9.22477 16.7433 9.85312 16.4729C10.9395 16.0051 11.8353 15.1772 12.3896 14.14C12.7787 13.4122 13 12.5818 13 11.7004C13 8.83685 10.6703 6.50708 7.80664 6.50708Z" fill="#FF6B55"/>
<path d="M32.1934 6.50708C29.3297 6.50708 27 8.83677 27 11.7004C27 12.5818 27.2213 13.4122 27.6104 14.14C28.1647 15.1772 29.0605 16.0052 30.1469 16.4729C30.7752 16.7433 31.467 16.8938 32.1934 16.8938C35.057 16.8938 37.3867 14.5641 37.3867 11.7004C37.3867 8.83677 35.057 6.50708 32.1934 6.50708Z" fill="#FF6B55"/>
</svg>
