<svg width="62" height="16" viewBox="0 0 62 16" fill="none" xmlns="http://www.w3.org/2000/svg">
<path d="M17.7717 3L23.8415 3V4.53429L21.4516 4.53429V13.1834H20.1416V4.53429H17.7617L17.7717 3ZM23.5815 5.81061H24.7015V7.23628H24.7215C24.7615 7.03261 24.8315 6.84252 24.9315 6.65244C25.0315 6.46235 25.1515 6.28583 25.3015 6.13648C25.4415 5.97354 25.6014 5.85134 25.7814 5.7563C25.9514 5.66125 26.1314 5.60694 26.3114 5.60694C26.4514 5.60694 26.5514 5.62052 26.6014 5.62052C26.6514 5.6341 26.7114 5.64768 26.7614 5.64768V7.20913C26.6814 7.18197 26.5914 7.16839 26.5014 7.15481C26.4114 7.14123 26.3314 7.12766 26.2414 7.12766C26.0414 7.12766 25.8514 7.18197 25.6714 7.29059C25.4915 7.39921 25.3415 7.56215 25.2015 7.76581C25.0715 7.98306 24.9615 8.24104 24.8815 8.55333C24.8015 8.86562 24.7615 9.23222 24.7615 9.63956V13.1426H23.5615L23.5815 5.81061ZM32.2612 13.1834H31.0813V12.1515H31.0613C30.9113 12.5316 30.6913 12.8168 30.4013 13.0476C30.1113 13.2784 29.8113 13.387 29.5113 13.387C28.8013 13.387 28.2814 13.1562 27.9614 12.6674C27.6414 12.1922 27.4814 11.459 27.4814 10.495V5.81061H28.6813V10.332C28.6813 10.9838 28.7713 11.4454 28.9613 11.7034C29.1413 11.9749 29.4013 12.1107 29.7313 12.1107C29.9813 12.1107 30.1913 12.0564 30.3613 11.9478C30.5313 11.8392 30.6713 11.7034 30.7713 11.5269C30.8813 11.3504 30.9513 11.1331 31.0013 10.8887C31.0513 10.6443 31.0713 10.3728 31.0713 10.0876V5.81061H32.2712V13.1834H32.2612ZM34.3011 10.8208C34.3411 11.2961 34.4711 11.6219 34.7011 11.8256C34.9311 12.0157 35.2111 12.1107 35.5311 12.1107C35.6411 12.1107 35.7711 12.0971 35.9111 12.07C36.0511 12.0428 36.1911 12.0021 36.3111 11.9342C36.4411 11.8663 36.5411 11.7713 36.6211 11.6355C36.7011 11.4997 36.7411 11.3368 36.7311 11.1331C36.7211 10.9295 36.6711 10.7529 36.5611 10.6172C36.4511 10.4814 36.3211 10.3863 36.1611 10.2913C36.0011 10.2098 35.8111 10.1419 35.6011 10.0876C35.3911 10.0333 35.1811 9.96542 34.9611 9.89754C34.7411 9.82965 34.5211 9.74818 34.3111 9.65314C34.1012 9.55809 33.9212 9.43589 33.7512 9.25938C33.5912 9.09644 33.4512 8.89278 33.3612 8.6348C33.2612 8.37682 33.2112 8.0781 33.2112 7.69793C33.2112 7.29059 33.2812 6.96472 33.4312 6.69317C33.5712 6.42161 33.7612 6.20437 33.9812 6.04143C34.2011 5.8785 34.4511 5.7563 34.7211 5.68841C34.9911 5.62052 35.2511 5.59336 35.4911 5.59336C35.7711 5.59336 36.0411 5.6341 36.2911 5.71557C36.5411 5.79703 36.7811 5.91923 36.9811 6.10932C37.191 6.28583 37.361 6.53023 37.491 6.81537C37.631 7.1005 37.711 7.45353 37.751 7.86086H36.5011C36.4411 7.4671 36.3111 7.20913 36.1111 7.07335C35.9011 6.93757 35.6711 6.86968 35.4011 6.86968C35.3211 6.86968 35.2111 6.88326 35.1011 6.89683C34.9811 6.92399 34.8811 6.95115 34.7711 7.00546C34.6711 7.05977 34.5811 7.14124 34.5111 7.23628C34.4411 7.33133 34.4011 7.4671 34.4011 7.63004C34.4011 7.8337 34.4511 7.98306 34.5511 8.10526C34.6511 8.22746 34.7811 8.32251 34.9511 8.41755C35.1111 8.49902 35.3011 8.56691 35.5111 8.62122C35.7211 8.67553 35.9411 8.74342 36.1611 8.81131C36.3811 8.8792 36.5911 8.96066 36.8011 9.05571C37.011 9.15075 37.201 9.27296 37.361 9.44947C37.521 9.6124 37.661 9.81607 37.761 10.0605C37.861 10.3049 37.911 10.6172 37.911 10.9702C37.911 11.4047 37.841 11.7713 37.691 12.0836C37.541 12.3823 37.351 12.6403 37.121 12.8303C36.8911 13.0204 36.6211 13.1562 36.3411 13.2513C36.0511 13.3327 35.7711 13.387 35.4911 13.387C35.1511 13.387 34.8311 13.3327 34.5411 13.2241C34.2511 13.1155 33.9912 12.9525 33.7812 12.7489C33.5712 12.5316 33.4012 12.2737 33.2812 11.9478C33.1612 11.6355 33.0912 11.2553 33.0812 10.8073H34.2911V10.8208H34.3011ZM38.251 5.81061H39.161V3.58385H40.3609V5.79703L41.4409 5.79703V7.00546H40.3609V10.943C40.3609 11.1195 40.3709 11.2553 40.3809 11.3911C40.3909 11.5133 40.4209 11.6219 40.4509 11.7034C40.4909 11.7849 40.5509 11.8527 40.6209 11.8935C40.7009 11.9342 40.8009 11.9614 40.9409 11.9614C41.0209 11.9614 41.1109 11.9614 41.1909 11.9478C41.2709 11.9342 41.3609 11.9206 41.4409 11.8935V13.1562C41.3109 13.1834 41.1809 13.1969 41.0509 13.2105C40.9209 13.2377 40.8009 13.2377 40.6609 13.2377C40.3409 13.2377 40.0909 13.1969 39.9009 13.1155C39.711 13.034 39.561 12.9118 39.451 12.7625C39.341 12.5995 39.271 12.4094 39.231 12.1786C39.191 11.9478 39.171 11.6627 39.161 11.3639V7.01903H38.251V5.78345V5.81061ZM42.2809 5.81061H43.4108V6.81537H43.4308C43.6008 6.38088 43.8308 6.08217 44.1308 5.89208C44.4308 5.70199 44.7508 5.60694 45.1108 5.60694C45.5408 5.60694 45.9107 5.70199 46.2307 5.91923C46.5507 6.1229 46.8107 6.39445 47.0207 6.76106C47.2307 7.11408 47.3907 7.53499 47.4907 8.01022C47.5907 8.48544 47.6507 9.0014 47.6507 9.53093C47.6507 10.0333 47.6007 10.5085 47.5107 10.9702C47.4107 11.4318 47.2707 11.8527 47.0807 12.2058C46.8907 12.5588 46.6507 12.8439 46.3507 13.0612C46.0507 13.2784 45.7107 13.387 45.3108 13.387C45.1408 13.387 44.9608 13.3599 44.7908 13.3191C44.6208 13.2784 44.4508 13.2105 44.2908 13.1155C44.1308 13.0204 43.9808 12.8982 43.8508 12.7489C43.7108 12.5995 43.6008 12.423 43.5108 12.2329H43.4908V15.9125H42.2909V5.81061H42.2809ZM46.4707 9.50378C46.4707 9.17791 46.4407 8.85204 46.3707 8.53975C46.3107 8.22746 46.2107 7.95591 46.0807 7.7115C45.9507 7.4671 45.7907 7.27702 45.6108 7.12766C45.4208 6.9783 45.2008 6.91041 44.9608 6.91041C44.4608 6.91041 44.0808 7.14124 43.8208 7.61646C43.5708 8.09169 43.4408 8.72984 43.4408 9.51736C43.4408 9.89754 43.4708 10.237 43.5408 10.5493C43.6108 10.8616 43.7008 11.1331 43.8408 11.3639C43.9708 11.5948 44.1308 11.7713 44.3208 11.9071C44.5108 12.0428 44.7208 12.1107 44.9708 12.1107C45.2508 12.1107 45.4708 12.0293 45.6608 11.8799C45.8507 11.7305 46.0007 11.5269 46.1307 11.2961C46.2507 11.0516 46.3407 10.7801 46.3907 10.4678C46.4407 10.1419 46.4707 9.82965 46.4707 9.50378ZM48.5806 3L49.7806 3V4.53429H48.5806V3ZM48.5806 5.81061H49.7806V13.1834H48.5806V5.81061ZM50.8506 3H52.0505V13.1834H50.8506V3ZM55.7104 13.387C55.2804 13.387 54.8904 13.292 54.5504 13.0883C54.2105 12.8847 53.9305 12.6267 53.6905 12.2872C53.4605 11.9478 53.2805 11.5269 53.1605 11.0517C53.0405 10.5764 52.9705 10.0469 52.9705 9.4902C52.9705 8.93351 53.0305 8.41755 53.1605 7.94233C53.2805 7.4671 53.4605 7.05977 53.6905 6.70675C53.9205 6.3673 54.2105 6.09574 54.5504 5.90565C54.8904 5.71556 55.2804 5.60694 55.7104 5.60694C56.1404 5.60694 56.5304 5.70199 56.8704 5.90565C57.2104 6.09574 57.4903 6.3673 57.7303 6.70675C57.9603 7.04619 58.1403 7.4671 58.2603 7.94233C58.3803 8.41755 58.4503 8.93351 58.4503 9.4902C58.4503 10.0605 58.3903 10.5764 58.2603 11.0517C58.1303 11.5269 57.9603 11.9342 57.7303 12.2872C57.5003 12.6267 57.2104 12.8982 56.8704 13.0883C56.5304 13.2784 56.1504 13.387 55.7104 13.387ZM55.7104 12.0971C55.9704 12.0971 56.2104 12.0157 56.4004 11.8663C56.6004 11.717 56.7504 11.5133 56.8804 11.2689C57.0104 11.0245 57.1003 10.7394 57.1603 10.4406C57.2203 10.1284 57.2503 9.81607 57.2503 9.4902C57.2503 9.17791 57.2203 8.86562 57.1603 8.55333C57.1003 8.24104 57.0104 7.96948 56.8804 7.72508C56.7504 7.48068 56.5904 7.29059 56.4004 7.14124C56.2004 6.99188 55.9704 6.91041 55.7104 6.91041C55.4504 6.91041 55.2104 6.99188 55.0204 7.14124C54.8204 7.29059 54.6704 7.49426 54.5404 7.72508C54.4104 7.96948 54.3204 8.24104 54.2604 8.55333C54.2005 8.86562 54.1705 9.17791 54.1705 9.4902C54.1705 9.81607 54.2005 10.1284 54.2604 10.4406C54.3204 10.7529 54.4104 11.0245 54.5404 11.2689C54.6704 11.5133 54.8304 11.717 55.0204 11.8663C55.2204 12.0293 55.4504 12.0971 55.7104 12.0971ZM58.8103 5.81061H59.7203V3.58385H60.9202V5.79703H62.0002V7.00546H60.9202V10.943C60.9202 11.1195 60.9302 11.2553 60.9402 11.3911C60.9502 11.5133 60.9802 11.6219 61.0102 11.7034C61.0502 11.7849 61.1102 11.8527 61.1802 11.8935C61.2602 11.9342 61.3602 11.9614 61.5002 11.9614C61.5802 11.9614 61.6702 11.9614 61.7502 11.9478C61.8302 11.9342 61.9202 11.9206 62.0002 11.8935V13.1562C61.8702 13.1834 61.7402 13.1969 61.6102 13.2105C61.4802 13.2377 61.3602 13.2377 61.2202 13.2377C60.9002 13.2377 60.6502 13.1969 60.4602 13.1155C60.2702 13.034 60.1202 12.9118 60.0103 12.7625C59.9003 12.5995 59.8303 12.4094 59.7903 12.1786C59.7503 11.9478 59.7303 11.6627 59.7203 11.3639V7.01903H58.8103V5.78345V5.81061Z" fill="black"/>
<path d="M16.3691 6.1142L10.2564 6.1142L8.37471 0L6.48188 6.1142L0.369141 6.10249L5.31277 9.8858L3.41994 16L8.36357 12.2167L13.3072 16L11.4255 9.8858L16.3691 6.1142Z" fill="#00B67A"/>
<path d="M11.8489 11.2676L11.4258 9.8855L8.375 12.2164L11.8489 11.2676Z" fill="#005128"/>
</svg>
