<svg width="100" height="100" viewBox="0 0 100 100" fill="none" xmlns="http://www.w3.org/2000/svg">
<path d="M90.4443 11.1284C89.6399 9.43657 88.0371 8.13504 85.6255 8.06427C58.2227 7.26333 40.1589 8.06517 12.748 8.06431C12.2226 7.89816 11.6786 7.78381 11.1055 7.78381C8.047 7.78381 5.49574 10.3351 5.49574 13.3936V15.0766C5.49574 15.9268 5.70871 16.7294 6.05998 17.4574C5.88132 18.0048 5.49682 12.7204 5.49574 13.3936C5.44029 39.4884 3.50933 60.6094 3.99956 86.7083C4.00949 87.2408 4.08544 87.7285 4.20778 88.1831C4.38212 90.8282 6.17842 93.2848 9.60937 93.1596C39.1439 92.0793 59.3485 91.4701 88.8978 91.4768C90.8984 91.4768 92.3438 90.618 93.2378 89.3754C93.9925 88.5033 94.4815 87.3375 94.5076 85.867C94.9842 58.3261 92.9455 41.7147 91.5156 14.2353C91.45 12.9795 91.0501 11.9473 90.4443 11.1284ZM11.2609 86.7083C11.0609 62.2626 12.6529 37.8422 12.7049 13.3956C37.0148 13.401 61.3244 13.4754 85.6255 14.1044C86.9632 38.0735 88.8631 62.0216 88.7744 86.0366C62.934 86.0126 37.091 85.903 11.2609 86.7083Z" fill="#FF6B55"/>
<path d="M73.8698 39.8708C73.2805 39.3668 72.4971 39.0393 71.5 39.0393H59.8611C59.6365 34.2528 59.8745 32.8754 59.594 28.0918C59.4701 25.941 57.9067 24.745 56.2366 24.5001C55.8784 24.3898 55.4948 24.3115 55.0589 24.3115H41.8312C40.1328 24.3115 39.041 25.2346 38.5262 26.43C37.7844 27.038 37.2842 27.9656 37.2952 29.2246C37.3412 34.1243 37.4761 35.569 38.0485 40.4247C34.0328 40.7188 32.6397 41.0185 28.624 41.3066C27.9633 41.3536 27.4002 41.5454 26.9186 41.8238C25.3079 42.256 24.0879 43.7325 24.0879 45.4636V46.2197C24.0879 46.8413 24.2599 47.4237 24.5343 47.9465C24.8241 51.6476 24.8433 55.3575 24.8433 59.0709C24.8433 61.0618 26.1077 62.2253 27.6 62.5891C28.0125 62.7479 28.4728 62.8499 29.0014 62.8499H39.2743C39.3686 67.008 39.8007 68.1769 39.8205 72.3352C39.8309 74.2921 41.0569 75.4479 42.5159 75.8348C42.9431 76.0079 43.4258 76.1153 43.9775 76.1153H56.8288C57.9398 76.1153 58.7856 75.7123 59.3893 75.104C59.4277 75.0712 59.4616 75.035 59.5 75C59.5309 74.9672 59.5647 74.9364 59.5932 74.9014C60.2026 74.2964 60.608 73.4506 60.608 72.3352C60.6067 67.924 60.3576 66.4997 60.1658 62.0939H71.878C74.1218 62.0939 75.3196 60.4898 75.498 58.7609C75.8258 58.2283 76.0359 57.5864 76.0359 56.8019V43.1974C76.0359 41.4777 75.0874 40.3766 73.8698 39.8708ZM70.9767 54.5348H56.2366C54.0804 54.5348 52.8827 56.013 52.6331 57.662C52.4982 58.0773 52.4227 58.5395 52.4568 59.0709C52.7153 63.2269 52.7986 67.3837 52.8238 71.5431H47.0994C46.9965 67.7628 46.8064 63.9862 46.7878 60.205C46.7868 59.8434 46.7313 59.5169 46.653 59.209C46.7149 57.2729 45.5064 55.2909 43.0075 55.2909H29.7603C29.7379 53.0611 29.6585 50.8348 29.5044 48.61C33.5009 48.3169 37.4972 48.0194 41.4961 47.7324C41.8506 47.7067 42.1738 47.6327 42.4778 47.5341C44.4517 47.6392 46.3444 46.4613 46.0311 43.9523C45.3886 38.7961 44.8073 33.6437 44.6083 28.4568H51.8826C52.0744 32.9919 52.1741 37.5317 52.4557 42.0628C52.4732 42.3369 52.5202 42.5915 52.5793 42.8342C52.5869 44.7188 53.8044 46.5979 56.2355 46.5979H70.9756V54.5348H70.9767Z" fill="#FF6B55"/>
</svg>
