<svg width="50" height="50" viewBox="0 0 50 50" fill="none" xmlns="http://www.w3.org/2000/svg">
<g clip-path="url(#clip0_1543_46006)">
<path d="M39.4823 30.9456C38.4057 29.8735 35.7531 26.9304 33.6684 22.1517C32.2111 18.6542 28.8201 16.3948 25.0273 16.3948C21.2356 16.3948 17.8451 18.6547 16.3875 22.153C13.7783 28.1344 10.2071 31.2969 10.172 31.3276C10.1693 31.3298 10.1668 31.3321 10.1643 31.3344C8.18193 33.108 7.04492 35.6486 7.04492 38.3048C7.04492 40.0865 7.53018 41.8042 8.44814 43.2724C8.6626 43.6154 9.11455 43.7196 9.45742 43.5051C9.80039 43.2907 9.90459 42.8388 9.69014 42.4958C8.90684 41.2431 8.50967 39.8331 8.50967 38.3048C8.50967 36.0663 9.46728 33.925 11.1373 32.4291C11.3462 32.2466 15.004 28.9913 17.7326 22.7327C17.7343 22.7289 17.7359 22.725 17.7375 22.7211C18.9658 19.7677 21.8272 17.8593 25.0273 17.8593C28.2284 17.8593 31.0903 19.7672 32.3184 22.72C32.32 22.7239 32.3216 22.7277 32.3232 22.7315C34.5296 27.7915 37.3651 30.9102 38.4819 32.0163C38.5028 32.0369 38.5249 32.0563 38.5481 32.0744C40.7879 33.8134 41.9028 36.5603 41.5308 39.4216C41.2317 41.7053 39.9679 43.6894 37.9719 45.0083C35.8158 46.433 33.1551 46.8517 30.6728 46.1571C28.9737 45.6822 27.0158 45.4311 25.0104 45.4311C23.0386 45.4311 21.1099 45.6739 19.4326 46.1333C16.893 46.8292 14.0941 46.3498 11.9458 44.8512C11.6142 44.6199 11.1575 44.7011 10.9261 45.0329C10.6946 45.3646 10.776 45.8211 11.1077 46.0526C13.6086 47.7972 16.8653 48.3553 19.8196 47.546C21.3726 47.1208 23.1674 46.8959 25.0104 46.8959C26.8844 46.8959 28.7061 47.1283 30.2782 47.5677C31.1946 47.8241 32.1315 47.9503 33.0643 47.9502C35.0746 47.9502 37.0644 47.3636 38.7794 46.2303C41.1353 44.6737 42.6282 42.3231 42.9834 39.611C43.4211 36.244 42.1128 33.008 39.4823 30.9456Z" fill="url(#paint0_linear_1543_46006)"/>
<path d="M11.3927 23.2021C11.3779 22.7978 11.0362 22.4812 10.6341 22.4968C10.2298 22.5116 9.91415 22.8512 9.92889 23.2555C9.99071 24.9498 9.34549 26.3134 8.20272 26.9035C7.79169 27.1157 7.34432 27.2163 6.88133 27.2162C5.21815 27.2161 3.35565 25.9174 2.27567 23.8293C1.58905 22.501 1.32557 21.0644 1.53368 19.784C1.7287 18.5843 2.31883 17.6743 3.19579 17.2216C5.08319 16.2464 7.74188 17.6256 9.12264 20.296C9.30838 20.6552 9.75018 20.7959 10.1097 20.6101C10.469 20.4243 10.6096 19.9824 10.4238 19.6231C9.59344 18.0173 8.33993 16.7426 6.89413 16.034C5.37489 15.2894 3.82264 15.249 2.52362 15.9201C1.2242 16.591 0.359166 17.8797 0.0878768 19.5491C-0.170229 21.1376 0.144615 22.8965 0.974596 24.5021C1.80487 26.1074 3.05838 27.3818 4.50419 28.0905C5.30555 28.4833 6.11581 28.6802 6.89354 28.6801C7.59022 28.6801 8.26083 28.522 8.87479 28.205C10.5344 27.3482 11.4757 25.4779 11.3927 23.2021Z" fill="url(#paint1_linear_1543_46006)"/>
<path d="M49.9123 19.549C49.641 17.8797 48.776 16.5909 47.4766 15.9202C46.1775 15.2489 44.6252 15.2894 43.1058 16.034C41.66 16.7427 40.4065 18.0173 39.5762 19.6231V19.6232C38.7462 21.2285 38.4313 22.9876 38.6894 24.576C38.9607 26.2453 39.8258 27.5341 41.1253 28.205C41.7392 28.522 42.4097 28.68 43.1065 28.68C43.8842 28.68 44.6946 28.483 45.4959 28.0904C46.9416 27.3818 48.1952 26.1073 49.0256 24.5019C49.8556 22.8964 50.1704 21.1374 49.9123 19.549ZM47.7245 23.829C46.3437 26.4987 43.6848 27.8777 41.7973 26.9032C40.9206 26.4507 40.3304 25.5406 40.1353 24.3409C39.9272 23.0606 40.1908 21.624 40.8773 20.2957C42.2582 17.6253 44.9172 16.2462 46.8045 17.2216C47.6811 17.6741 48.2714 18.5842 48.4664 19.7839C48.6745 21.0644 48.4109 22.501 47.7245 23.829Z" fill="url(#paint2_linear_1543_46006)"/>
<path d="M32.1112 15.6452C32.2546 15.6636 32.3978 15.6728 32.5411 15.6728C33.6777 15.6728 34.8023 15.0954 35.7478 14.0155C36.0141 13.7111 35.9834 13.2484 35.6791 12.982C35.3746 12.7155 34.9122 12.7463 34.6455 13.0507C34.2212 13.5353 33.3514 14.3285 32.2904 14.1914C31.4777 14.0958 30.7414 13.4784 30.2172 12.453C29.6519 11.3472 29.4243 9.89665 29.5929 8.47321C29.8022 6.70485 30.6689 4.99177 31.801 4.10905C32.3786 3.65857 32.9654 3.46814 33.5532 3.54372C34.3663 3.63972 35.1028 4.2573 35.6272 5.28259C36.1928 6.38825 36.4205 7.83874 36.2522 9.26179C36.2141 9.5821 36.1538 9.90583 36.0731 10.224C35.9736 10.6161 36.2108 11.0146 36.6029 11.114C36.9946 11.2134 37.3935 10.9764 37.493 10.5842C37.5893 10.2047 37.6612 9.81775 37.7067 9.43425C37.9114 7.70466 37.636 5.99343 36.9314 4.6156C36.1884 3.16286 35.0196 2.24187 33.7328 2.09001C32.7648 1.96501 31.785 2.26384 30.9002 2.95398C29.4535 4.0822 28.3952 6.13103 28.1383 8.30105C27.9335 10.0307 28.2088 11.7421 28.9131 13.1199C29.656 14.573 30.8245 15.4938 32.1112 15.6452Z" fill="url(#paint3_linear_1543_46006)"/>
<path d="M17.5253 15.6546C18.8947 15.6546 20.1592 14.8183 20.9948 13.3598C21.7915 11.9685 22.1234 10.1187 21.9054 8.28433C21.4924 4.78823 19.2138 2.04956 16.718 2.04956C15.3485 2.04956 14.0842 2.8853 13.2493 4.34263C12.4531 5.73296 12.1213 7.58306 12.3386 9.41812C12.7519 12.9153 15.0301 15.6546 17.5253 15.6546ZM14.5205 5.07075C14.8535 4.4895 15.5817 3.5144 16.7181 3.5144C18.425 3.5144 20.1343 5.77749 20.4508 8.4562V8.45669C20.6326 9.98569 20.3675 11.5075 19.7237 12.6317C19.3904 13.2135 18.6614 14.1897 17.5252 14.1897C15.8188 14.1897 14.1098 11.9258 13.7932 9.24595C13.6121 7.71606 13.8772 6.19419 14.5205 5.07075Z" fill="url(#paint4_linear_1543_46006)"/>
<path d="M27.2674 25.7634H22.8451C22.4406 25.7634 22.1127 26.0914 22.1127 26.4958V30.8579H17.748C17.3436 30.8579 17.0156 31.1858 17.0156 31.5903V36.0102C17.0156 36.4147 17.3436 36.7426 17.748 36.7426H22.1127V41.1046C22.1127 41.5091 22.4405 41.8371 22.8451 41.8371H27.2674C27.6719 41.8371 27.9998 41.5091 27.9998 41.1046V36.7426H32.3645C32.7689 36.7426 33.0969 36.4147 33.0969 36.0102V31.5903C33.0969 31.1858 32.769 30.8579 32.3645 30.8579H27.9998V26.4958C27.9997 26.0914 27.6719 25.7634 27.2674 25.7634ZM31.632 32.3227V35.2778H27.2674C26.8629 35.2778 26.535 35.6057 26.535 36.0102V40.3722H23.5775V36.0102C23.5775 35.6057 23.2497 35.2778 22.8451 35.2778H18.4805V32.3227H22.8451C23.2496 32.3227 23.5775 31.9948 23.5775 31.5903V27.2283H26.535V31.5903C26.535 31.9948 26.8628 32.3227 27.2674 32.3227H31.632Z" fill="url(#paint5_linear_1543_46006)"/>
</g>
<defs>
<linearGradient id="paint0_linear_1543_46006" x1="7.04492" y1="32.1725" x2="43.0665" y2="32.1725" gradientUnits="userSpaceOnUse">
<stop stop-color="#F86CA7"/>
<stop offset="1" stop-color="#FF7F18"/>
</linearGradient>
<linearGradient id="paint1_linear_1543_46006" x1="0" y1="22.0624" x2="11.3977" y2="22.0624" gradientUnits="userSpaceOnUse">
<stop stop-color="#F86CA7"/>
<stop offset="1" stop-color="#FF7F18"/>
</linearGradient>
<linearGradient id="paint2_linear_1543_46006" x1="38.6016" y1="22.0623" x2="50.0002" y2="22.0623" gradientUnits="userSpaceOnUse">
<stop stop-color="#F86CA7"/>
<stop offset="1" stop-color="#FF7F18"/>
</linearGradient>
<linearGradient id="paint3_linear_1543_46006" x1="28.0723" y1="8.86754" x2="37.7727" y2="8.86754" gradientUnits="userSpaceOnUse">
<stop stop-color="#F86CA7"/>
<stop offset="1" stop-color="#FF7F18"/>
</linearGradient>
<linearGradient id="paint4_linear_1543_46006" x1="12.2734" y1="8.8521" x2="21.9709" y2="8.8521" gradientUnits="userSpaceOnUse">
<stop stop-color="#F86CA7"/>
<stop offset="1" stop-color="#FF7F18"/>
</linearGradient>
<linearGradient id="paint5_linear_1543_46006" x1="17.0156" y1="33.8002" x2="33.0969" y2="33.8002" gradientUnits="userSpaceOnUse">
<stop stop-color="#F86CA7"/>
<stop offset="1" stop-color="#FF7F18"/>
</linearGradient>
<clipPath id="clip0_1543_46006">
<rect width="50" height="50" fill="white"/>
</clipPath>
</defs>
</svg>
