<svg width="39" height="26" viewBox="0 0 39 26" fill="none" xmlns="http://www.w3.org/2000/svg">
<rect x="0.5" y="0.5" width="37.0685" height="24.9999" rx="3.5" fill="white" stroke="#D9D9D9"/>
<path fill-rule="evenodd" clip-rule="evenodd" d="M11.5568 17.6129H9.25059L7.52121 11.0416C7.43912 10.7393 7.26484 10.4721 7.00847 10.3461C6.36866 10.0296 5.66364 9.77772 4.89453 9.65067V9.39768H8.60966C9.1224 9.39768 9.50696 9.77772 9.57105 10.2191L10.4683 14.9592L12.7734 9.39768H15.0156L11.5568 17.6129ZM16.2972 17.6129H14.1191L15.9126 9.39768H18.0906L16.2972 17.6129ZM20.9094 11.6736C20.9735 11.2311 21.3581 10.9781 21.8067 10.9781C22.5117 10.9146 23.2797 11.0417 23.9207 11.3571L24.3052 9.58829C23.6643 9.3353 22.9593 9.20825 22.3195 9.20825C20.2055 9.20825 18.6673 10.3462 18.6673 11.9255C18.6673 13.127 19.7569 13.7578 20.526 14.1378C21.3581 14.5168 21.6785 14.7698 21.6144 15.1487C21.6144 15.7172 20.9735 15.9702 20.3337 15.9702C19.5646 15.9702 18.7955 15.7807 18.0916 15.4642L17.707 17.234C18.4761 17.5495 19.3082 17.6765 20.0773 17.6765C22.4476 17.7389 23.9207 16.6021 23.9207 14.8957C23.9207 12.7469 20.9094 12.621 20.9094 11.6736ZM31.5441 17.6129L29.8147 9.39768H27.9571C27.5725 9.39768 27.188 9.65067 27.0598 10.0296L23.8574 17.6129H26.0995L26.5471 16.4126H29.3019L29.5583 17.6129H31.5441ZM28.2748 11.61L28.9146 14.7062H27.1211L28.2748 11.61Z" fill="#172B85"/>
</svg>
