<svg width="68" height="22" viewBox="0 0 68 22" fill="none" xmlns="http://www.w3.org/2000/svg">
<path d="M29.3282 21.6333H23.8078L27.258 0.379771H32.7789L29.3282 21.6333ZM19.1638 0.379771L13.9009 14.9981L13.2782 11.8502L13.2788 11.8514L11.4212 2.29341C11.4212 2.29341 11.1966 0.379771 8.80259 0.379771H0.102092L0 0.739643C0 0.739643 2.66063 1.29452 5.77443 3.16893L10.5705 21.6339H16.3222L25.105 0.379771H19.1638ZM62.584 21.6333H67.6529L63.2334 0.379202H58.7958C56.7466 0.379202 56.2475 1.9631 56.2475 1.9631L48.0144 21.6333H53.769L54.9198 18.4763H61.9374L62.584 21.6333ZM56.5096 14.1152L59.4101 6.16161L61.0419 14.1152H56.5096ZM48.446 5.49076L49.2338 0.926685C49.2338 0.926685 46.8029 0 44.2687 0C41.5293 0 35.0238 1.20014 35.0238 7.036C35.0238 12.5268 42.6591 12.595 42.6591 15.4791C42.6591 18.3632 35.8104 17.8464 33.5502 16.0277L32.7295 20.7999C32.7295 20.7999 35.1945 22 38.9605 22C42.7277 22 48.4108 20.0449 48.4108 14.7235C48.4108 9.19751 40.7069 8.683 40.7069 6.28044C40.7074 3.8773 46.0837 4.18601 48.446 5.49076Z" fill="#2566AF"/>
</svg>
