<svg width="54" height="54" viewBox="0 0 54 54" fill="none" xmlns="http://www.w3.org/2000/svg">
<g clip-path="url(#clip0_1543_46199)">
<path d="M50.6231 13.6392C50.6124 13.6328 50.6015 13.6266 50.5904 13.6207L47.2179 11.8243C46.832 11.6189 46.3522 11.7648 46.1464 12.1511C45.9407 12.5372 46.087 13.0168 46.4731 13.2226L49.8249 15.008C50.0163 15.13 50.0951 15.3768 50.0081 15.5885L49.7862 16.1284C49.2552 17.4204 48.5247 18.1177 47.5533 18.2588L42.1365 18.5624C40.4025 18.6595 38.9253 19.8035 38.3587 21.3913L31.0281 18.3545C31.8447 16.7853 32.5321 15.1432 33.0761 13.443C33.0801 13.4304 33.0838 13.4177 33.0872 13.405L33.1249 13.263C33.1938 13.0852 33.271 12.8807 33.354 12.6608C33.6841 11.7866 34.1363 10.5892 34.4718 10.038C34.5629 9.88827 34.6018 9.71233 34.5824 9.53807C34.3215 7.20738 35.856 4.71817 36.8619 3.36743C37.1565 4.69536 37.5973 6.67944 37.9328 8.17466C38.0106 8.52127 38.3095 8.77367 38.6643 8.79226C39.6207 8.84232 40.3355 9.03167 40.5951 9.18629C40.8271 9.32453 41.2345 9.82153 41.504 10.1504C41.8824 10.6121 42.1091 10.8808 42.3688 11.0353C42.3796 11.0417 42.3905 11.0479 42.4016 11.0538L43.6845 11.7372C44.0706 11.9427 44.5503 11.7966 44.756 11.4104C44.9616 11.0243 44.8154 10.5446 44.4293 10.3389L43.1918 9.6798C43.098 9.59594 42.8861 9.33752 42.7292 9.14605C42.3294 8.65835 41.8764 8.10559 41.406 7.82541C40.9513 7.55452 40.2212 7.35523 39.3511 7.25902C38.933 5.39037 38.4126 3.04384 38.1937 2.05524C38.1018 1.6403 37.7887 1.31893 37.3764 1.2168C36.964 1.11457 36.537 1.25229 36.2618 1.5764C35.1838 2.84625 32.7527 6.10852 32.9842 9.45063C32.608 10.1521 32.2038 11.2225 31.872 12.1013C31.7847 12.3327 31.7039 12.5467 31.6326 12.7294C31.6218 12.7569 31.6126 12.785 31.605 12.8136L31.5611 12.979C30.9036 15.0292 30.0274 16.9911 28.9576 18.8339L15.3954 0.322823C15.1362 -0.0295952 14.6406 -0.105211 14.2881 0.153954C13.9357 0.413119 13.86 0.908848 14.1192 1.26127L28.0582 20.2843C25.7599 23.769 22.7408 26.764 19.1792 29.0325C16.5101 30.7325 14.2947 33.0975 12.7725 35.8717C12.2469 36.8298 11.8089 37.832 11.458 38.8631C10.1653 36.9619 8.80696 34.3457 8.37227 31.3213C7.8343 27.5792 9.40292 24.7345 10.8136 23.007C11.3305 22.3741 11.337 21.5195 10.8298 20.8806C10.3207 20.2393 9.48381 20.0509 8.7474 20.4119C4.8106 22.3419 1.16835 27.322 2.75249 35.5113C2.8355 35.9408 3.2516 36.2218 3.68058 36.1385C4.1101 36.0554 4.39091 35.6399 4.3078 35.2104C3.61859 31.6474 3.93204 28.5623 5.23969 26.0408C6.53742 23.5383 8.43131 22.3311 9.44474 21.8343C9.47906 21.8174 9.53081 21.792 9.5891 21.8654C9.64413 21.9347 9.61234 21.9737 9.58678 22.0049C7.97539 23.9782 6.18468 27.2353 6.8044 31.5467C7.36846 35.4703 9.32909 38.7327 10.9075 40.8098C10.6345 42.023 10.482 43.2634 10.4528 44.5103C7.84222 43.1383 6.00261 40.9378 4.98296 37.955C4.84155 37.5411 4.39123 37.3202 3.97735 37.4617C3.56336 37.6032 3.34253 38.0534 3.48405 38.4673C4.73319 42.1216 7.0756 44.7468 10.4459 46.2715V47.884C10.4459 50.0015 11.4896 51.979 13.2378 53.1738C14.0283 53.7141 14.9617 53.9997 15.9369 53.9997H31.9379C32.6212 53.9997 33.2317 53.6456 33.5713 53.0527C33.9108 52.4597 33.9069 51.7539 33.5609 51.1646L33.418 50.9214C32.5914 49.5133 31.261 48.5023 29.7344 48.0608C30.5707 47.5191 31.3266 46.7819 31.8864 45.782C32.2983 45.0464 32.5751 44.2843 32.7539 43.5353L35.6228 52.803C35.8445 53.5187 36.4967 53.9997 37.246 53.9997H43.2508C43.7959 53.9997 44.2924 53.7227 44.5789 53.2589C44.8653 52.7951 44.8907 52.2271 44.6466 51.7396L44.4636 51.3741C43.7415 49.9323 42.3342 48.9791 40.7609 48.8181C40.455 47.1843 39.6501 42.7525 39.5163 40.6527C39.4395 39.4479 39.7287 38.2646 40.3525 37.2308C41.3379 35.5978 41.6616 33.671 41.2639 31.8056L39.8101 24.9851C39.6315 24.1472 39.6019 23.2922 39.7218 22.4439C39.9004 21.1823 40.9534 20.215 42.2255 20.1437L47.6749 19.8382C47.695 19.8371 47.7153 19.8352 47.7355 19.8325C49.3093 19.6222 50.4923 18.5784 51.2518 16.7302L51.4737 16.1903C51.8585 15.2537 51.4929 14.1569 50.6231 13.6392ZM30.2598 19.7508L38.0784 22.9896C38.0419 23.6632 38.0836 24.3372 38.2012 25.0037C38.2012 25.0044 38.2002 25.0054 38.2003 25.0061L29.2819 21.3116C29.2867 21.3044 29.2902 21.2957 29.2942 21.2875C29.4156 21.1053 30.0825 20.0471 30.2534 19.7556C30.2555 19.754 30.2586 19.7527 30.2598 19.7508ZM39.7142 32.1361C40.0277 33.6066 39.7725 35.1255 38.9959 36.4128C38.2046 37.7242 37.8378 39.2252 37.9351 40.7537C38.1065 43.4435 39.2737 49.4857 39.3234 49.7415C39.3983 50.1278 39.7448 50.3991 40.1387 50.3819C41.3594 50.3238 42.5001 50.9918 43.0469 52.0838L43.2132 52.4158H37.2458C37.1951 52.4158 37.151 52.3832 37.136 52.3348L32.5827 37.6262C32.582 37.6242 32.5814 37.6222 32.5808 37.6203C32.4491 37.2062 32.0073 36.9751 31.5917 37.1039C31.1741 37.2331 30.9403 37.6762 31.069 38.0938C31.0855 38.1484 32.2134 41.9547 30.5037 45.0087C29.3781 47.0196 27.1091 47.6712 25.4041 47.8638C24.9839 47.9112 24.675 48.2805 24.7026 48.7025C24.7303 49.1246 25.0868 49.4503 25.5075 49.4427L27.9039 49.399C29.6026 49.3688 31.1916 50.2588 32.0517 51.7239L32.1944 51.9671C32.2706 52.0968 32.2281 52.2101 32.1961 52.2661C32.164 52.3221 32.0879 52.4159 31.9375 52.4159H15.9366C15.2818 52.4159 14.6575 52.2259 14.1315 51.8663C12.8155 50.9669 12.0298 49.4784 12.0298 47.8844V44.9497C12.0298 42.0508 12.7669 39.1752 14.1613 36.6338C15.5558 34.0924 17.5852 31.9258 20.0303 30.3685C23.2661 28.3075 26.0769 25.6768 28.3421 22.637L38.5949 26.8843L39.7142 32.1361Z" fill="url(#paint0_linear_1543_46199)"/>
</g>
<defs>
<linearGradient id="paint0_linear_1543_46199" x1="2.37305" y1="26.9998" x2="51.6261" y2="26.9998" gradientUnits="userSpaceOnUse">
<stop stop-color="#F86CA7"/>
<stop offset="1" stop-color="#FF7F18"/>
</linearGradient>
<clipPath id="clip0_1543_46199">
<rect width="54" height="54" fill="white"/>
</clipPath>
</defs>
</svg>
