<svg width="10" height="10" viewBox="0 0 10 10" fill="none" xmlns="http://www.w3.org/2000/svg">
<g clip-path="url(#clip0_996_7679)">
<path d="M4.62891 0.0116549C4.5918 0.0155611 4.47656 0.029233 4.375 0.0409517C2.83008 0.216733 1.40234 1.18548 0.617188 2.58978C0.332031 3.1015 0.125 3.73822 0.0371094 4.37494C0.00195312 4.61908 0.00195312 5.3808 0.0371094 5.62494C0.242188 7.11322 1.03516 8.37689 2.27539 9.19134C3.79102 10.1874 5.77734 10.2656 7.38281 9.39447C7.62695 9.26166 7.68359 9.21673 7.73242 9.11517C7.81641 8.94134 7.76172 8.73822 7.59961 8.62298C7.5293 8.57416 7.49805 8.56439 7.39648 8.56439C7.32227 8.56439 7.25391 8.57611 7.2168 8.59564C6.88867 8.77337 6.75586 8.83783 6.57227 8.91205C5.94141 9.16595 5.26367 9.26361 4.59766 9.1972C2.92969 9.03314 1.51758 7.90228 0.998047 6.31634C0.708984 5.43353 0.708984 4.56634 0.998047 3.68353C1.41602 2.40814 2.41016 1.414 3.68945 0.99603C4.56641 0.70892 5.43555 0.70892 6.31641 0.997983C7.26953 1.31048 8.06055 1.93744 8.60352 2.81244C8.91992 3.32415 9.13672 3.97455 9.19922 4.60736C9.28711 5.5058 9.0625 6.4433 8.5625 7.24603C8.45312 7.42181 8.44727 7.43744 8.44727 7.55853C8.44727 7.71087 8.49805 7.80658 8.61914 7.88666C8.72852 7.95892 8.91797 7.96283 9.0293 7.89251C9.14648 7.82025 9.38477 7.43353 9.56836 7.01556C10.4844 4.94525 9.89844 2.52923 8.13477 1.10736C7.42383 0.535092 6.63477 0.191342 5.70312 0.0487642C5.50781 0.0194674 4.78125 -0.00592327 4.62891 0.0116549Z" fill="#62686E"/>
<path d="M4.88672 1.58391C4.79883 1.6093 4.67578 1.74016 4.65039 1.83001C4.63672 1.87883 4.62891 2.32415 4.62891 3.11907C4.62891 3.81829 4.62109 4.33586 4.61133 4.33586C4.60156 4.33586 4.54883 4.37688 4.49414 4.42571C4.42578 4.48625 4.37109 4.56243 4.32227 4.66399C4.25195 4.80461 4.24805 4.82219 4.24805 4.99797C4.24805 5.1679 4.25391 5.19719 4.31055 5.31633C4.39648 5.49797 4.50586 5.61125 4.68359 5.69915C4.82617 5.7675 4.83984 5.77141 5.0332 5.77141H5.23438L5.76562 6.30266C6.05859 6.59368 6.32617 6.84563 6.36133 6.86321C6.45898 6.91204 6.63086 6.90422 6.73047 6.84563C6.84961 6.77532 6.91406 6.66008 6.91406 6.51555C6.91406 6.45305 6.90039 6.37688 6.88281 6.34172C6.86523 6.30657 6.61328 6.03899 6.32227 5.74602L5.79102 5.21477V5.0136C5.79102 4.82024 5.78711 4.80657 5.7168 4.66399C5.66797 4.56243 5.61328 4.48625 5.54492 4.42571C5.49023 4.37688 5.4375 4.33586 5.42773 4.33586C5.41797 4.33586 5.4082 3.77141 5.40625 3.08L5.40039 1.8261L5.35352 1.75188C5.26172 1.60344 5.05859 1.53118 4.88672 1.58391Z" fill="#62686E"/>
</g>
<defs>
<clipPath id="clip0_996_7679">
<rect width="10" height="10" fill="white"/>
</clipPath>
</defs>
</svg>
