<svg width="54" height="54" viewBox="0 0 54 54" fill="none" xmlns="http://www.w3.org/2000/svg">
<path d="M13.4582 53.9985C12.1312 53.9978 10.8586 53.4753 9.91957 52.5454C8.98056 51.6155 8.45183 50.3542 8.44936 49.0382V9.70071C8.44936 9.49612 8.53131 9.2999 8.6772 9.15523C8.82308 9.01056 9.02094 8.92929 9.22725 8.92929C9.43356 8.92929 9.63142 9.01056 9.77731 9.15523C9.92319 9.2999 10.0051 9.49612 10.0051 9.70071V49.0382C10.0188 49.9376 10.3886 50.7956 11.0348 51.4268C11.6809 52.0581 12.5516 52.4119 13.4586 52.4119C14.3657 52.4119 15.2363 52.0581 15.8825 51.4268C16.5286 50.7956 16.8985 49.9376 16.9121 49.0382V45.3585C16.9121 45.1539 16.994 44.9576 17.1399 44.813C17.2858 44.6683 17.4837 44.587 17.69 44.587H48.5102V4.968C48.5092 4.05991 48.145 3.1893 47.4975 2.54719C46.85 1.90507 45.9721 1.54388 45.0564 1.54286H4.59333C4.38701 1.54286 4.18915 1.46158 4.04327 1.31691C3.89739 1.17224 3.81543 0.976024 3.81543 0.771429C3.81543 0.566833 3.89739 0.370617 4.04327 0.225946C4.18915 0.0812752 4.38701 0 4.59333 0H45.0564C46.3846 0.00142936 47.658 0.525301 48.5971 1.45667C49.5363 2.38804 50.0646 3.65084 50.066 4.968V45.3585C50.066 45.563 49.9841 45.7593 49.8382 45.9039C49.6923 46.0486 49.4944 46.1299 49.2881 46.1299H18.4679V49.0382C18.4652 50.3542 17.9363 51.6155 16.9972 52.5454C16.058 53.4753 14.7853 53.9978 13.4582 53.9985Z" fill="url(#paint0_linear_1543_46211)"/>
<path d="M48.9987 53.9999H13.4605C13.2542 53.9999 13.0563 53.9187 12.9105 53.774C12.7646 53.6293 12.6826 53.4331 12.6826 53.2285C12.6826 53.0239 12.7646 52.8277 12.9105 52.683C13.0563 52.5383 13.2542 52.4571 13.4605 52.4571C14.3752 52.4571 15.2525 52.0973 15.9 51.4566C16.5475 50.8159 16.9123 49.9467 16.9144 49.0396V45.3599C16.9144 45.1553 16.9963 44.9591 17.1422 44.8144C17.2881 44.6698 17.486 44.5885 17.6923 44.5885H53.2219C53.4282 44.5885 53.6261 44.6698 53.7719 44.8144C53.9178 44.9591 53.9998 45.1553 53.9998 45.3599V49.0396C53.9985 50.3547 53.4713 51.6155 52.5337 52.5455C51.5961 53.4754 50.3248 53.9985 48.9987 53.9999ZM17.0886 52.4571H48.9987C49.9123 52.4561 50.7881 52.0956 51.434 51.455C52.0799 50.8143 52.4432 49.9456 52.444 49.0396V46.1314H18.4702V49.0396C18.4712 50.3128 17.9762 51.5372 17.0886 52.4571Z" fill="url(#paint1_linear_1543_46211)"/>
<path d="M24.4633 40.1791C24.3214 40.1792 24.1822 40.1408 24.0607 40.068C23.9392 39.9953 23.8401 39.891 23.7741 39.7664L22.6368 37.6179L20.3078 38.3562C20.1657 38.4015 20.0135 38.4052 19.8693 38.3671C19.7251 38.3289 19.595 38.2504 19.4946 38.141C19.3941 38.0315 19.3275 37.8957 19.3028 37.7498C19.278 37.6038 19.2961 37.4539 19.3549 37.3178L22.6742 29.609C22.7551 29.4207 22.9082 29.2721 23.0997 29.1958C23.2912 29.1195 23.5054 29.1217 23.6952 29.202C23.885 29.2823 24.0348 29.4341 24.1118 29.624C24.1887 29.8139 24.1865 30.0263 24.1055 30.2145L21.4537 36.3728L22.7846 35.9516C22.959 35.8961 23.1474 35.9034 23.3169 35.9721C23.4864 36.0408 23.626 36.1666 23.7111 36.3273L24.3894 37.6087L27.235 30.9744C27.273 30.8785 27.3301 30.7911 27.4028 30.7175C27.4754 30.6438 27.5622 30.5854 27.6581 30.5455C27.7539 30.5057 27.8568 30.4853 27.9607 30.4855C28.0646 30.4858 28.1674 30.5067 28.2631 30.547C28.3587 30.5873 28.4452 30.6462 28.5175 30.7202C28.5898 30.7942 28.6464 30.8819 28.684 30.9779C28.7216 31.074 28.7394 31.1766 28.7364 31.2796C28.7333 31.3826 28.7095 31.4839 28.6663 31.5776L25.1782 39.7093C25.1207 39.8435 25.026 39.9588 24.9051 40.0418C24.7843 40.1248 24.6421 40.1721 24.4952 40.1783L24.4633 40.1791Z" fill="url(#paint2_linear_1543_46211)"/>
<path d="M33.2338 40.1791H33.202C33.0548 40.1732 32.9123 40.126 32.7911 40.043C32.6699 39.9599 32.575 39.8445 32.5174 39.7101L29.0394 31.5753C28.9588 31.3869 28.9569 31.1744 29.0342 30.9846C29.1115 30.7948 29.2617 30.6432 29.4517 30.5632C29.6417 30.4832 29.856 30.4814 30.0474 30.558C30.2388 30.6347 30.3916 30.7836 30.4723 30.9721L33.3109 37.6064L33.9884 36.3266C34.0735 36.166 34.213 36.0403 34.3823 35.9716C34.5516 35.9029 34.7399 35.8956 34.9141 35.9509L36.2435 36.3721L33.5948 30.2307C33.5516 30.1372 33.5278 30.036 33.5247 29.9331C33.5215 29.8303 33.5392 29.7279 33.5766 29.6319C33.6139 29.5359 33.6703 29.4483 33.7423 29.3743C33.8144 29.3002 33.9006 29.2412 33.996 29.2007C34.0914 29.1602 34.194 29.139 34.2977 29.1384C34.4015 29.1378 34.5043 29.1578 34.6001 29.1973C34.696 29.2367 34.7829 29.2947 34.8558 29.3679C34.9287 29.4411 34.9861 29.5281 35.0246 29.6236L38.3407 37.3179C38.3993 37.4537 38.4173 37.6035 38.3926 37.7492C38.3679 37.8949 38.3014 38.0306 38.2012 38.1399C38.101 38.2493 37.9712 38.3278 37.8273 38.3662C37.6834 38.4045 37.5314 38.4011 37.3894 38.3562L35.0603 37.6179L33.9231 39.7664C33.8571 39.891 33.758 39.9953 33.6365 40.068C33.515 40.1408 33.3758 40.1792 33.2338 40.1791Z" fill="url(#paint3_linear_1543_46211)"/>
<path d="M28.8521 32.447C28.4292 32.447 28.0185 32.3069 27.6852 32.049L26.4445 31.0916C26.3705 31.0379 26.2789 31.0136 26.1878 31.0237L24.632 31.2382C24.2129 31.2975 23.7859 31.2157 23.4192 31.006C23.0525 30.7962 22.7674 30.4705 22.6094 30.081L22.0206 28.6392C22.0035 28.5962 21.978 28.5569 21.9454 28.5238C21.9128 28.4906 21.8738 28.4643 21.8308 28.4464L20.3769 27.8624C19.9845 27.7053 19.6564 27.4225 19.4449 27.059C19.2335 26.6955 19.1508 26.2722 19.21 25.8567L19.4255 24.3138C19.4321 24.2689 19.4293 24.223 19.4174 24.1791C19.4055 24.1352 19.3847 24.0942 19.3563 24.0585L18.3909 22.8242C18.1306 22.4937 17.9893 22.0864 17.9893 21.6671C17.9893 21.2477 18.1306 20.8404 18.3909 20.5099L19.3547 19.2756C19.3831 19.2398 19.4039 19.1986 19.4159 19.1546C19.428 19.1106 19.431 19.0647 19.4247 19.0195L19.2093 17.4767C19.15 17.0612 19.2327 16.6379 19.4442 16.2744C19.6556 15.9109 19.9837 15.6281 20.3761 15.471L21.8308 14.8862C21.8734 14.8693 21.9122 14.844 21.9447 14.8117C21.9772 14.7795 22.0027 14.7411 22.0198 14.6988L22.6094 13.2562C22.7676 12.8669 23.0528 12.5414 23.4194 12.3316C23.786 12.1219 24.2129 12.04 24.632 12.099L26.1878 12.3135C26.2333 12.3198 26.2797 12.3169 26.3241 12.305C26.3684 12.293 26.4099 12.2723 26.446 12.2441L27.686 11.2875C28.0195 11.0299 28.4301 10.89 28.8528 10.89C29.2756 10.89 29.6862 11.0299 30.0197 11.2875L31.2604 12.2448C31.2966 12.273 31.3381 12.2935 31.3825 12.3053C31.4269 12.3171 31.4732 12.3199 31.5187 12.3135L33.0745 12.099C33.4935 12.0403 33.9203 12.1223 34.2868 12.332C34.6534 12.5417 34.9386 12.867 35.097 13.2562L35.6859 14.6988C35.7033 14.7412 35.7292 14.7797 35.7619 14.812C35.7947 14.8444 35.8336 14.8698 35.8765 14.887L37.3303 15.471C37.7225 15.6284 38.0503 15.9113 38.2617 16.2747C38.4732 16.6381 38.556 17.0612 38.4972 17.4767L38.2809 19.0195C38.269 19.1104 38.2939 19.2022 38.3502 19.2749L39.3148 20.5092C39.5754 20.8395 39.717 21.2469 39.717 21.6663C39.717 22.0857 39.5754 22.4931 39.3148 22.8234L38.3494 24.0539C38.2935 24.1267 38.2689 24.2185 38.2809 24.3092L38.4972 25.8521C38.556 26.2675 38.4732 26.6906 38.2617 27.054C38.0503 27.4174 37.7225 27.7003 37.3303 27.8578L35.8726 28.4464C35.8298 28.4637 35.7909 28.4892 35.7582 28.5215C35.7255 28.5538 35.6996 28.5923 35.682 28.6346L35.0939 30.0764C34.9351 30.4653 34.6498 30.7904 34.2834 31.0001C33.9169 31.2097 33.4903 31.2919 33.0714 31.2336L31.5156 31.0191C31.4237 31.0074 31.3309 31.032 31.2573 31.0878L30.0173 32.0443C29.6851 32.3038 29.2749 32.4455 28.8521 32.447ZM26.2313 29.4778C26.6536 29.4785 27.0639 29.6176 27.3982 29.8735L28.6428 30.8316C28.7032 30.8779 28.7773 30.903 28.8536 30.903C28.9299 30.903 29.0041 30.8779 29.0644 30.8316L30.3044 29.8743C30.5051 29.7202 30.7348 29.6074 30.9801 29.5424C31.2253 29.4773 31.4811 29.4614 31.7326 29.4955L33.2884 29.7092C33.3643 29.7216 33.4422 29.7076 33.5089 29.6695C33.5755 29.6314 33.6268 29.5715 33.654 29.5002L34.2429 28.0576C34.339 27.8238 34.4812 27.6114 34.6613 27.433C34.8414 27.2545 35.0557 27.1136 35.2915 27.0185L36.7461 26.4345C36.817 26.406 36.8762 26.3549 36.9144 26.2892C36.9526 26.2235 36.9676 26.147 36.957 26.0719L36.7415 24.5291C36.707 24.2801 36.7229 24.0269 36.7882 23.7841C36.8535 23.5413 36.9669 23.3139 37.1219 23.115L38.088 21.8808C38.1349 21.8211 38.1603 21.7477 38.1603 21.6721C38.1603 21.5965 38.1349 21.523 38.088 21.4634L37.1234 20.2291C36.9684 20.031 36.8547 19.8043 36.7889 19.5622C36.7231 19.3201 36.7064 19.0675 36.7399 18.819L36.9554 17.2761C36.966 17.201 36.9511 17.1246 36.9129 17.0589C36.8747 16.9932 36.8154 16.942 36.7446 16.9135L35.2899 16.3288C35.0542 16.2338 34.8401 16.093 34.6602 15.9147C34.4802 15.7363 34.3381 15.5241 34.2421 15.2904L33.6525 13.8479C33.6243 13.7771 33.5729 13.7179 33.5065 13.6798C33.4401 13.6417 33.3627 13.627 33.2868 13.638L31.731 13.8525C31.4798 13.8867 31.2242 13.8708 30.9792 13.8057C30.7342 13.7407 30.5048 13.6278 30.3044 13.4737L29.0598 12.5164C28.9996 12.4697 28.9253 12.4444 28.8489 12.4444C28.7725 12.4444 28.6983 12.4697 28.6381 12.5164L27.3935 13.473C27.1927 13.6264 26.9632 13.7389 26.7184 13.8041C26.4736 13.8692 26.2181 13.8857 25.9668 13.8525L24.411 13.638C24.3353 13.6278 24.2582 13.6429 24.192 13.6809C24.1258 13.7189 24.0743 13.7776 24.0454 13.8479L23.4558 15.2904C23.3599 15.524 23.2178 15.7362 23.038 15.9145C22.8582 16.0928 22.6443 16.2337 22.4087 16.3288L20.9541 16.9128C20.8832 16.9413 20.824 16.9925 20.7857 17.0581C20.7474 17.1238 20.7322 17.2002 20.7425 17.2753L20.9587 18.8182C20.9931 19.0676 20.9769 19.3213 20.9111 19.5644C20.8452 19.8075 20.731 20.035 20.5752 20.2338L19.6184 21.465C19.5714 21.5247 19.5458 21.5982 19.5458 21.674C19.5458 21.7498 19.5714 21.8234 19.6184 21.8831L20.5838 23.1174C20.7391 23.3162 20.8528 23.5437 20.9184 23.7866C20.984 24.0295 21.0001 24.283 20.9657 24.5322L20.7495 26.075C20.7389 26.1502 20.754 26.2267 20.7923 26.2924C20.8307 26.3581 20.8901 26.4092 20.9611 26.4376L22.4157 27.0223C22.6512 27.1176 22.8651 27.2585 23.0449 27.4368C23.2247 27.6151 23.3668 27.8272 23.4628 28.0607L24.0524 29.504C24.0814 29.574 24.1329 29.6325 24.1989 29.6703C24.2649 29.7081 24.3417 29.7232 24.4173 29.7131L25.9731 29.4994C26.0586 29.4864 26.1448 29.4792 26.2313 29.4778Z" fill="url(#paint4_linear_1543_46211)"/>
<path d="M28.8521 32.447C28.4292 32.447 28.0185 32.3069 27.6852 32.049L26.4445 31.0916C26.3705 31.0379 26.2789 31.0136 26.1878 31.0237L24.632 31.2382C24.2129 31.2975 23.7859 31.2157 23.4192 31.006C23.0525 30.7962 22.7674 30.4705 22.6094 30.081L22.0206 28.6392C22.0035 28.5962 21.978 28.5569 21.9454 28.5238C21.9128 28.4906 21.8738 28.4643 21.8308 28.4464L20.3769 27.8624C19.9845 27.7053 19.6564 27.4225 19.4449 27.059C19.2335 26.6955 19.1508 26.2722 19.21 25.8567L19.4255 24.3138C19.4321 24.2689 19.4293 24.223 19.4174 24.1791C19.4055 24.1352 19.3847 24.0942 19.3563 24.0585L18.3909 22.8242C18.1306 22.4937 17.9893 22.0864 17.9893 21.6671C17.9893 21.2477 18.1306 20.8404 18.3909 20.5099L19.3547 19.2756C19.3831 19.2398 19.4039 19.1986 19.4159 19.1546C19.428 19.1106 19.431 19.0647 19.4247 19.0195L19.2093 17.4767C19.15 17.0612 19.2327 16.6379 19.4442 16.2744C19.6556 15.9109 19.9837 15.6281 20.3761 15.471L21.8308 14.8862C21.8734 14.8693 21.9122 14.844 21.9447 14.8117C21.9772 14.7795 22.0027 14.7411 22.0198 14.6988L22.6094 13.2562C22.7676 12.8669 23.0528 12.5414 23.4194 12.3316C23.786 12.1219 24.2129 12.04 24.632 12.099L26.1878 12.3135C26.2333 12.3198 26.2797 12.3169 26.3241 12.305C26.3684 12.293 26.4099 12.2723 26.446 12.2441L27.686 11.2875C28.0195 11.0299 28.4301 10.89 28.8528 10.89C29.2756 10.89 29.6862 11.0299 30.0197 11.2875L31.2604 12.2448C31.2966 12.273 31.3381 12.2935 31.3825 12.3053C31.4269 12.3171 31.4732 12.3199 31.5187 12.3135L33.0745 12.099C33.4935 12.0403 33.9203 12.1223 34.2868 12.332C34.6534 12.5417 34.9386 12.867 35.097 13.2562L35.6859 14.6988C35.7033 14.7412 35.7292 14.7797 35.7619 14.812C35.7947 14.8444 35.8336 14.8698 35.8765 14.887L37.3303 15.471C37.7225 15.6284 38.0503 15.9113 38.2617 16.2747C38.4732 16.6381 38.556 17.0612 38.4972 17.4767L38.2809 19.0195C38.269 19.1104 38.2939 19.2022 38.3502 19.2749L39.3148 20.5092C39.5754 20.8395 39.717 21.2469 39.717 21.6663C39.717 22.0857 39.5754 22.4931 39.3148 22.8234L38.3494 24.0539C38.2935 24.1267 38.2689 24.2185 38.2809 24.3092L38.4972 25.8521C38.556 26.2675 38.4732 26.6906 38.2617 27.054C38.0503 27.4174 37.7225 27.7003 37.3303 27.8578L35.8726 28.4464C35.8298 28.4637 35.7909 28.4892 35.7582 28.5215C35.7255 28.5538 35.6996 28.5923 35.682 28.6346L35.0939 30.0764C34.9351 30.4653 34.6498 30.7904 34.2834 31.0001C33.9169 31.2097 33.4903 31.2919 33.0714 31.2336L31.5156 31.0191C31.4237 31.0074 31.3309 31.032 31.2573 31.0878L30.0173 32.0443C29.6851 32.3038 29.2749 32.4455 28.8521 32.447ZM26.2313 29.4778C26.6536 29.4785 27.0639 29.6176 27.3982 29.8735L28.6428 30.8316C28.7032 30.8779 28.7773 30.903 28.8536 30.903C28.9299 30.903 29.0041 30.8779 29.0644 30.8316L30.3044 29.8743C30.5051 29.7202 30.7348 29.6074 30.9801 29.5424C31.2253 29.4773 31.4811 29.4614 31.7326 29.4955L33.2884 29.7092C33.3643 29.7216 33.4422 29.7076 33.5089 29.6695C33.5755 29.6314 33.6268 29.5715 33.654 29.5002L34.2429 28.0576C34.339 27.8238 34.4812 27.6114 34.6613 27.433C34.8414 27.2545 35.0557 27.1136 35.2915 27.0185L36.7461 26.4345C36.817 26.406 36.8762 26.3549 36.9144 26.2892C36.9526 26.2235 36.9676 26.147 36.957 26.0719L36.7415 24.5291C36.707 24.2801 36.7229 24.0269 36.7882 23.7841C36.8535 23.5413 36.9669 23.3139 37.1219 23.115L38.088 21.8808C38.1349 21.8211 38.1603 21.7477 38.1603 21.6721C38.1603 21.5965 38.1349 21.523 38.088 21.4634L37.1234 20.2291C36.9684 20.031 36.8547 19.8043 36.7889 19.5622C36.7231 19.3201 36.7064 19.0675 36.7399 18.819L36.9554 17.2761C36.966 17.201 36.9511 17.1246 36.9129 17.0589C36.8747 16.9932 36.8154 16.942 36.7446 16.9135L35.2899 16.3288C35.0542 16.2338 34.8401 16.093 34.6602 15.9147C34.4802 15.7363 34.3381 15.5241 34.2421 15.2904L33.6525 13.8479C33.6243 13.7771 33.5729 13.7179 33.5065 13.6798C33.4401 13.6417 33.3627 13.627 33.2868 13.638L31.731 13.8525C31.4798 13.8867 31.2242 13.8708 30.9792 13.8057C30.7342 13.7407 30.5048 13.6278 30.3044 13.4737L29.0598 12.5164C28.9996 12.4697 28.9253 12.4444 28.8489 12.4444C28.7725 12.4444 28.6983 12.4697 28.6381 12.5164L27.3935 13.473C27.1927 13.6264 26.9632 13.7389 26.7184 13.8041C26.4736 13.8692 26.2181 13.8857 25.9668 13.8525L24.411 13.638C24.3353 13.6278 24.2582 13.6429 24.192 13.6809C24.1258 13.7189 24.0743 13.7776 24.0454 13.8479L23.4558 15.2904C23.3599 15.524 23.2178 15.7362 23.038 15.9145C22.8582 16.0928 22.6443 16.2337 22.4087 16.3288L20.9541 16.9128C20.8832 16.9413 20.824 16.9925 20.7857 17.0581C20.7474 17.1238 20.7322 17.2002 20.7425 17.2753L20.9587 18.8182C20.9931 19.0676 20.9769 19.3213 20.9111 19.5644C20.8452 19.8075 20.731 20.035 20.5752 20.2338L19.6184 21.465C19.5714 21.5247 19.5458 21.5982 19.5458 21.674C19.5458 21.7498 19.5714 21.8234 19.6184 21.8831L20.5838 23.1174C20.7391 23.3162 20.8528 23.5437 20.9184 23.7866C20.984 24.0295 21.0001 24.283 20.9657 24.5322L20.7495 26.075C20.7389 26.1502 20.754 26.2267 20.7923 26.2924C20.8307 26.3581 20.8901 26.4092 20.9611 26.4376L22.4157 27.0223C22.6512 27.1176 22.8651 27.2585 23.0449 27.4368C23.2247 27.6151 23.3668 27.8272 23.4628 28.0607L24.0524 29.504C24.0814 29.574 24.1329 29.6325 24.1989 29.6703C24.2649 29.7081 24.3417 29.7232 24.4173 29.7131L25.9731 29.4994C26.0586 29.4864 26.1448 29.4792 26.2313 29.4778Z" fill="url(#paint5_linear_1543_46211)"/>
<path d="M26.0914 26.6568C25.9782 26.6567 25.8663 26.6321 25.7637 26.5848C25.661 26.5374 25.57 26.4683 25.497 26.3824C25.4241 26.2966 25.3709 26.1959 25.3412 26.0875C25.3115 25.9792 25.3061 25.8657 25.3252 25.755L25.7826 23.1075L23.8433 21.2321C23.7407 21.1315 23.6683 21.0045 23.6342 20.8654C23.6002 20.7263 23.6059 20.5806 23.6506 20.4445C23.6953 20.3084 23.7773 20.1873 23.8875 20.0948C23.9976 20.0023 24.1316 19.942 24.2743 19.9207L26.9549 19.535L28.1536 17.1266C28.2252 17.0063 28.3272 16.9066 28.4495 16.8374C28.5718 16.7681 28.7102 16.7317 28.851 16.7317C28.9919 16.7317 29.1303 16.7681 29.2526 16.8374C29.3749 16.9066 29.4768 17.0063 29.5484 17.1266L30.7495 19.5303L33.4293 19.9161C33.5731 19.9366 33.7081 19.9967 33.8192 20.0895C33.9303 20.1822 34.013 20.304 34.058 20.4409C34.1029 20.5779 34.1083 20.7246 34.0735 20.8644C34.0387 21.0042 33.9651 21.1316 33.8611 21.2321L31.9163 23.1075L32.3737 25.755C32.3981 25.8968 32.3821 26.0425 32.3274 26.1757C32.2727 26.3089 32.1816 26.4243 32.0643 26.5088C31.947 26.5934 31.8082 26.6437 31.6636 26.6542C31.5189 26.6647 31.3742 26.6348 31.2458 26.5681L28.8475 25.3184L26.4508 26.5681C26.34 26.6259 26.2167 26.6563 26.0914 26.6568ZM28.8506 23.6752C28.9767 23.6753 29.1008 23.7057 29.2124 23.7639L30.5776 24.476L30.317 22.9694C30.2956 22.8461 30.3048 22.7196 30.3437 22.6007C30.3826 22.4818 30.45 22.374 30.5402 22.2867L31.6448 21.2198L30.1194 20.9999C29.9946 20.9819 29.876 20.9341 29.774 20.8606C29.6719 20.7871 29.5895 20.6901 29.5336 20.5779L28.8506 19.2063L28.1684 20.5779C28.1127 20.6902 28.0302 20.7874 27.9282 20.8611C27.8261 20.9347 27.7076 20.9826 27.5827 21.0007L26.0572 21.2205L27.161 22.2874C27.2513 22.3748 27.3187 22.4825 27.3576 22.6015C27.3965 22.7204 27.4057 22.8469 27.3843 22.9701L27.1245 24.4775L28.4881 23.7655C28.5999 23.707 28.7243 23.676 28.8506 23.6752Z" fill="url(#paint6_linear_1543_46211)"/>
<path d="M9.24063 10.4722H0.777896C0.571585 10.4722 0.373724 10.3909 0.22784 10.2462C0.0819566 10.1015 0 9.90532 0 9.70072V4.96029C0.0164213 3.65352 0.55141 2.4058 1.48904 1.48747C2.42668 0.569151 3.69143 0.0541992 5.00926 0.0541992C6.32709 0.0541992 7.59185 0.569151 8.52948 1.48747C9.46711 2.4058 10.0021 3.65352 10.0185 4.96029V9.70072C10.0185 9.90532 9.93657 10.1015 9.79068 10.2462C9.6448 10.3909 9.44694 10.4722 9.24063 10.4722ZM1.55579 8.92929H8.46273V4.96029C8.44912 4.06089 8.07928 3.2029 7.43311 2.57165C6.78694 1.94039 5.9163 1.58655 5.00926 1.58655C4.10222 1.58655 3.23158 1.94039 2.58541 2.57165C1.93924 3.2029 1.5694 4.06089 1.55579 4.96029V8.92929Z" fill="url(#paint7_linear_1543_46211)"/>
<defs>
<linearGradient id="paint0_linear_1543_46211" x1="3.81543" y1="26.9992" x2="50.066" y2="26.9992" gradientUnits="userSpaceOnUse">
<stop stop-color="#F86CA7"/>
<stop offset="1" stop-color="#FF7F18"/>
</linearGradient>
<linearGradient id="paint1_linear_1543_46211" x1="12.6826" y1="49.2942" x2="53.9998" y2="49.2942" gradientUnits="userSpaceOnUse">
<stop stop-color="#F86CA7"/>
<stop offset="1" stop-color="#FF7F18"/>
</linearGradient>
<linearGradient id="paint2_linear_1543_46211" x1="19.292" y1="34.6596" x2="28.7367" y2="34.6596" gradientUnits="userSpaceOnUse">
<stop stop-color="#F86CA7"/>
<stop offset="1" stop-color="#FF7F18"/>
</linearGradient>
<linearGradient id="paint3_linear_1543_46211" x1="28.9775" y1="34.6588" x2="38.4034" y2="34.6588" gradientUnits="userSpaceOnUse">
<stop stop-color="#F86CA7"/>
<stop offset="1" stop-color="#FF7F18"/>
</linearGradient>
<linearGradient id="paint4_linear_1543_46211" x1="17.9893" y1="21.6685" x2="39.717" y2="21.6685" gradientUnits="userSpaceOnUse">
<stop stop-color="#F86CA7"/>
<stop offset="1" stop-color="#FF7F18"/>
</linearGradient>
<linearGradient id="paint5_linear_1543_46211" x1="17.9893" y1="21.6685" x2="39.717" y2="21.6685" gradientUnits="userSpaceOnUse">
<stop stop-color="#F86CA7"/>
<stop offset="1" stop-color="#FF7F18"/>
</linearGradient>
<linearGradient id="paint6_linear_1543_46211" x1="23.6123" y1="21.6942" x2="34.0961" y2="21.6942" gradientUnits="userSpaceOnUse">
<stop stop-color="#F86CA7"/>
<stop offset="1" stop-color="#FF7F18"/>
</linearGradient>
<linearGradient id="paint7_linear_1543_46211" x1="0" y1="5.26318" x2="10.0185" y2="5.26318" gradientUnits="userSpaceOnUse">
<stop stop-color="#F86CA7"/>
<stop offset="1" stop-color="#FF7F18"/>
</linearGradient>
</defs>
</svg>
