<svg width="52" height="17" viewBox="0 0 52 17" fill="none" xmlns="http://www.w3.org/2000/svg">
<path d="M38.6877 8.18472C38.4113 8.6273 38.2946 10.0206 38.3905 10.9454C38.4243 11.2506 38.4797 11.5052 38.5602 11.6572C38.6708 11.8673 38.8564 11.9922 39.0681 12C39.2041 12.0068 39.2886 11.9838 41.8428 11.1632C41.8428 11.1632 42.9778 10.8013 42.9825 10.799C43.2657 10.7269 43.4561 10.4669 43.4743 10.1348C43.4929 9.79439 43.317 9.49378 43.027 9.38497C43.027 9.38497 42.2265 9.05899 42.2249 9.05899C39.4804 7.92786 39.3568 7.88349 39.2186 7.88194C39.0067 7.87337 38.8188 7.98001 38.6877 8.18472ZM44.8274 16.6126C44.872 16.4837 44.8773 16.3956 44.8851 13.7146C44.8851 13.7146 44.8912 12.5299 44.8919 12.5184C44.9103 12.2277 44.7223 11.9631 44.4146 11.8451C44.0975 11.723 43.756 11.7984 43.5642 12.0367C43.5642 12.0367 43.004 12.7008 43.0024 12.7008C41.0798 14.9576 40.9993 15.0619 40.9524 15.1955C40.9235 15.2741 40.913 15.3582 40.9217 15.4415C40.9332 15.5613 40.9877 15.6793 41.0775 15.7897C41.5234 16.319 43.6616 17.1048 44.3446 16.9884C44.5819 16.9454 44.7545 16.812 44.8276 16.6126M49.1652 15.6793C49.8099 15.4225 51.216 13.6349 51.315 12.9469C51.3496 12.7077 51.2745 12.5014 51.1093 12.3696C51.001 12.2883 50.9189 12.2568 48.3663 11.4195C48.3663 11.4195 47.2466 11.0497 47.2321 11.0427C46.961 10.9378 46.6517 11.0353 46.4437 11.2914C46.2273 11.5544 46.1951 11.9017 46.3678 12.1641L46.8183 12.8973C48.3333 15.3557 48.4492 15.5297 48.5582 15.6149C48.727 15.7475 48.942 15.769 49.1652 15.6793ZM47.8459 9.34963C50.7469 8.64723 50.8591 8.61033 50.9735 8.5353C51.1492 8.41714 51.2376 8.21928 51.2221 7.97845C51.2221 7.97082 51.2237 7.96242 51.2221 7.95401C51.1477 7.24227 49.8997 5.39115 49.2851 5.09054C49.0669 4.98624 48.8491 4.99309 48.6681 5.11421C48.5559 5.18706 48.4738 5.29759 46.9203 7.42021C46.9203 7.42021 46.2189 8.37496 46.2105 8.38414C46.0255 8.60893 46.0224 8.93102 46.2036 9.20703C46.3909 9.493 46.707 9.63264 46.9971 9.55216C46.9971 9.55216 46.9856 9.57287 46.9826 9.5766C47.1254 9.52289 47.3809 9.46016 47.8459 9.34963ZM44.9342 6.9563C44.8843 5.80742 44.5381 0.692599 44.4975 0.455663C44.4392 0.240833 44.2711 0.0874936 44.0301 0.0269364C43.2894 -0.156292 40.4589 0.635778 39.9347 1.17643C39.7659 1.35203 39.7038 1.56826 39.7544 1.76005C39.8373 1.92958 43.3439 7.44247 43.3439 7.44247C43.8619 8.28217 44.2849 8.15187 44.4238 8.10813C44.5612 8.06594 44.9817 7.93549 44.9342 6.95614" fill="#BF2519"/>
<path d="M1.67333 16.0976C2.11759 16.5087 2.95933 16.6253 3.98218 16.4175C4.94081 16.2282 5.53512 15.8002 6.10727 13.9827L8.95644 5.038C9.10383 4.56324 9.09284 4.15113 8.92385 3.84542C8.7865 3.59914 8.55802 3.43218 8.235 3.34643C7.72727 3.20748 7.09374 3.22149 6.69419 4.58482L5.19922 9.65876C5.19922 9.65876 2.15397 3.91073 2.15207 3.90978C1.95978 3.5255 1.39616 3.25064 0.822118 3.47818C0.0737821 3.76251 -0.175537 4.43489 0.12304 5.30112C0.12304 5.30112 3.82721 12.8329 3.83573 12.8534C3.83573 12.8534 3.93652 13.122 3.93652 13.1657C3.93652 13.1657 3.97006 13.3701 3.97006 13.3775C3.96248 13.6675 3.86548 13.9117 3.69194 14.0749C3.52124 14.2354 3.28405 14.3193 3.00688 14.3081C3.00688 14.3081 2.42924 14.2949 2.38548 14.2949C1.79192 14.3677 1.41851 14.7081 1.35865 15.234C1.31697 15.5726 1.42609 15.87 1.67333 16.0976ZM16.2685 7.61643H12.3022C12.1947 7.53825 12.1426 7.40668 12.2228 7.01124C12.2732 6.80339 12.3274 6.61693 12.4861 6.3557C12.5373 6.27752 12.5905 6.19726 12.6419 6.11719C12.9321 5.75051 13.325 5.5156 13.7721 5.4111C15.1665 5.07075 16.1388 5.77853 16.2966 6.98606C16.3722 7.51307 16.3225 7.61643 16.2685 7.61643ZM18.7062 6.92643C18.5783 5.6341 18.0791 4.62514 17.2607 4.00689C16.3888 3.34567 15.1551 3.13498 13.6946 3.39602C11.8636 3.7131 10.7642 5.02039 10.5122 7.18199C10.2023 9.76591 10.6278 11.713 11.7469 12.8142C12.5905 13.6471 13.8384 13.978 15.3559 13.7728C17.5201 13.4688 18.4933 12.2819 18.4933 11.5311C18.4933 10.9791 18.1593 10.5445 17.6684 10.4784C17.3874 10.4224 17.1504 10.4784 16.6258 10.9473C15.8699 11.6057 14.9937 11.8705 14.2171 11.6738C13.6255 11.5237 13.1636 11.1162 12.9544 10.5576C12.9544 10.5576 12.8612 10.1884 12.8667 10.2293C12.8033 9.89652 12.7745 9.56639 12.9796 9.43199L13.0346 9.39469H17.7887C18.2275 9.39469 18.4495 9.3379 18.5774 9.19972C18.8388 8.9099 18.818 8.08191 18.7062 6.92643ZM23.0159 0.0912571C22.6398 -0.0616958 22.2153 -0.0206186 21.8428 0.201239C21.4845 0.413064 21.3351 0.735628 21.3351 1.31848V12.6446C21.3351 12.6446 21.3976 13.0493 21.4042 13.0669C21.4845 13.3495 21.6935 13.5901 21.9837 13.7215C22.3058 13.8708 22.6771 13.868 23.0094 13.7122C23.4228 13.5331 23.6665 13.1201 23.6665 12.6082V1.26055C23.6665 1.26055 23.5945 0.712344 23.5945 0.702122C23.5282 0.438997 23.3109 0.211651 23.0159 0.0912571ZM31.9864 11.5955C30.4166 11.5955 30.1666 10.2032 30.1171 9.15239C30.1143 9.14955 30.0965 8.5368 30.0965 8.5368C30.0965 8.5368 30.1143 8.08191 30.1143 8.06412C30.216 6.24572 30.5921 5.52866 31.5524 5.32914C32.1973 5.17997 32.6901 5.25266 33.0597 5.55005C33.6148 5.99679 33.8594 6.94234 33.837 8.52014C33.8211 10.3673 33.4992 11.5955 31.9864 11.5955ZM32.103 3.27961C31.0513 3.06494 30.1516 3.24496 29.2864 3.83046C29.2864 3.83046 29.1894 3.90883 29.152 3.93136L29.0746 3.97054L28.8377 4.07674L28.7703 3.81097L28.7135 3.71499L28.6938 3.65536L28.6873 3.63757C28.6873 3.63757 28.6295 3.56015 28.621 3.54803C28.3728 3.16186 27.698 2.98487 27.0897 3.33166C26.7918 3.50052 26.6212 3.73827 26.6212 4.44795V15.5641C26.6212 16.1731 26.8125 16.5517 27.2304 16.7512C27.5832 16.9284 27.9799 16.9424 28.3205 16.7961C28.6098 16.6692 28.8226 16.4453 28.902 16.1731L28.9721 15.6966V13.7728L28.9514 13.4633L28.9598 13.3718L28.9719 13.3281L29.0867 12.9616L29.4349 13.1928C29.4349 13.1928 29.5226 13.2507 29.5599 13.2899L29.6645 13.3588C29.6653 13.3597 29.7858 13.4298 29.7858 13.4298C29.7877 13.4298 29.8977 13.4837 29.8977 13.4837C30.831 13.9238 32.0797 13.8725 33.0849 13.355C34.3504 12.6949 34.9756 11.5237 35.1202 9.55711C35.4225 5.62653 34.5173 3.7485 32.103 3.27942M36.9802 12.4655H37.11C37.2153 12.4655 37.3144 12.4598 37.3144 12.3415C37.3144 12.2351 37.2238 12.2241 37.1426 12.2241H36.9802V12.4655ZM36.8737 12.1289H37.1519C37.3339 12.1289 37.419 12.1952 37.419 12.346C37.419 12.4823 37.332 12.5391 37.2182 12.5512L37.4375 12.8861H37.3227L37.1155 12.5605H36.9802V12.8861H36.8737V12.1289ZM37.1193 13.0614C37.4262 13.0614 37.6736 12.8199 37.6736 12.4999C37.6736 12.1857 37.4264 11.9434 37.1193 11.9434C36.8112 11.9434 36.564 12.1857 36.564 12.5066C36.5633 12.5796 36.5772 12.652 36.6049 12.7196C36.6326 12.7872 36.6735 12.8487 36.7252 12.9003C36.7769 12.9519 36.8383 12.9928 36.906 13.0204C36.9737 13.048 37.0462 13.0619 37.1193 13.0612V13.0614ZM37.1193 11.8491C37.4777 11.8491 37.7791 12.1308 37.7791 12.4999C37.7791 12.8757 37.4777 13.1564 37.1193 13.1564C36.7599 13.1564 36.4594 12.8757 36.4594 12.5066C36.4594 12.1308 36.7599 11.8491 37.1193 11.8491Z" fill="#231F20"/>
</svg>
