<svg width="54" height="54" viewBox="0 0 54 54" fill="none" xmlns="http://www.w3.org/2000/svg">
<g clip-path="url(#clip0_1543_46181)">
<path d="M20.9291 37.332C23.3821 36.935 25.8695 36.935 28.3225 37.332C28.3653 37.339 28.4078 37.3423 28.4498 37.3423C28.831 37.3423 29.1669 37.0661 29.2297 36.6776C29.2996 36.2463 29.0066 35.8402 28.5753 35.7703C25.9546 35.346 23.2971 35.346 20.6764 35.7703C20.2452 35.8401 19.9522 36.2463 20.022 36.6776C20.0916 37.1087 20.4975 37.4027 20.9291 37.332Z" fill="url(#paint0_linear_1543_46181)"/>
<path d="M12.7519 17.9362C13.9042 19.0208 15.2199 19.5905 16.5341 19.5905C16.8362 19.5905 17.1383 19.5604 17.4382 19.4996C19.0429 19.1738 20.3591 18.0138 21.1443 16.233C21.8884 14.5456 22.0676 12.4804 21.6491 10.4181C21.2305 8.35566 20.2604 6.52377 18.9174 5.25994C17.5001 3.92618 15.8357 3.371 14.231 3.69668C12.6263 4.02248 11.31 5.18253 10.5248 6.96316C9.78072 8.65066 9.60153 10.7158 10.02 12.7782C10.4386 14.8404 11.4087 16.6723 12.7519 17.9362ZM11.9725 7.60135C12.5445 6.30387 13.4584 5.46782 14.5457 5.24718C14.7368 5.20837 14.9302 5.18917 15.1252 5.18917C16.0391 5.18917 16.9819 5.61105 17.833 6.41198C18.9399 7.45369 19.7446 8.98816 20.0985 10.7327C20.4526 12.4774 20.3099 14.204 19.6966 15.5948C19.1245 16.8924 18.2106 17.7285 17.1234 17.9491C16.0362 18.1702 14.8686 17.7561 13.836 16.7843C12.7291 15.7426 11.9245 14.2081 11.5705 12.4636C11.2165 10.7188 11.3593 8.99216 11.9725 7.60135Z" fill="url(#paint1_linear_1543_46181)"/>
<path d="M10.121 24.0985C10.2509 22.6895 9.87942 21.1461 9.07501 19.7529C8.2706 18.3595 7.11983 17.2663 5.83459 16.6743C4.45685 16.0394 3.08417 16.0443 1.96958 16.688C0.854987 17.3313 0.164483 18.5176 0.0253697 20.0282C-0.104462 21.4372 0.266999 22.9806 1.07141 24.3738C1.87582 25.767 3.02659 26.8604 4.31183 27.4524C4.99569 27.7675 5.67828 27.9249 6.32871 27.9249C6.98863 27.9249 7.61543 27.7628 8.17673 27.4387C9.29133 26.7953 9.98183 25.609 10.121 24.0985ZM7.38572 26.0687C7.06963 26.2511 6.71272 26.3373 6.33451 26.3373C5.00571 26.3371 3.41724 25.2728 2.44145 23.5828C1.79914 22.4703 1.50056 21.2595 1.60065 20.1734C1.69135 19.1886 2.10332 18.4374 2.7606 18.0579C3.07447 17.8767 3.43349 17.7864 3.82098 17.7864C4.24517 17.7864 4.70333 17.8947 5.17267 18.111C6.16333 18.5673 7.06267 19.4314 7.70497 20.5438C8.34728 21.6562 8.64586 22.8671 8.54577 23.9532C8.45485 24.938 8.043 25.6893 7.38572 26.0687Z" fill="url(#paint2_linear_1543_46181)"/>
<path d="M39.1318 24.0985C39.2711 25.6091 39.9616 26.7953 41.0763 27.4388C41.6377 27.7629 42.2644 27.925 42.9243 27.925C43.5746 27.925 44.2574 27.7676 44.9412 27.4525C46.2264 26.8605 47.3772 25.7672 48.1816 24.3739C48.986 22.9807 49.3575 21.4373 49.2276 20.0283C49.0885 18.5178 48.398 17.3315 47.2833 16.688C46.1687 16.0445 44.7963 16.0396 43.4183 16.6743C42.1331 17.2663 40.9823 18.3596 40.1779 19.7529C39.3735 21.146 39.0019 22.6894 39.1318 24.0985ZM41.5479 20.5438C42.1902 19.4313 43.0896 18.5673 44.0802 18.111C44.5497 17.8948 45.0077 17.7864 45.4319 17.7864C45.8193 17.7864 46.1785 17.8767 46.4923 18.0579C47.1496 18.4374 47.5615 19.1886 47.6522 20.1734C47.7523 21.2595 47.4538 22.4703 46.8114 23.5828C45.5578 25.7539 43.2937 26.8923 41.8672 26.0687C41.2099 25.6892 40.7979 24.9378 40.7071 23.9532C40.607 22.8672 40.9056 21.6563 41.5479 20.5438Z" fill="url(#paint3_linear_1543_46181)"/>
<path d="M47.8393 39.0827L44.2885 42.6335L42.7674 41.1122C42.4585 40.8032 41.9576 40.8033 41.6488 41.1121C41.3397 41.421 41.3397 41.9219 41.6487 42.2307L43.7293 44.3114C43.8776 44.4598 44.0788 44.5431 44.2887 44.5431C44.4985 44.5431 44.6996 44.4598 44.8481 44.3115L48.9582 40.2015C49.2671 39.8924 49.2671 39.3917 48.9582 39.0827C48.6491 38.7739 48.1483 38.7739 47.8393 39.0827Z" fill="url(#paint4_linear_1543_46181)"/>
<path d="M31.8141 19.4995C32.1142 19.5604 32.416 19.5904 32.7182 19.5904C34.0323 19.5903 35.3483 19.0207 36.5004 17.9361C37.8434 16.6723 38.8136 14.8403 39.2321 12.778C39.6506 10.7156 39.4714 8.65046 38.7274 6.96306C37.9423 5.18233 36.6259 4.02228 35.0212 3.69648C32.4898 3.18338 29.8244 4.92024 28.3871 8.01933C28.2033 8.41568 28.3756 8.88597 28.7719 9.06969C29.168 9.25332 29.6385 9.08108 29.8222 8.68494C30.9451 6.26359 32.9081 4.88132 34.7065 5.24698C35.7939 5.46762 36.7077 6.30378 37.2797 7.60115C37.8929 8.99207 38.0357 10.7187 37.6816 12.4633C37.3277 14.2079 36.5231 15.7424 35.4162 16.7841C34.3836 17.7559 33.2161 18.17 32.1288 17.9489C30.0107 17.5191 28.6501 14.6859 29.0314 11.499C29.0832 11.0653 28.7738 10.6714 28.3399 10.6196C27.9067 10.5682 27.5123 10.8771 27.4605 11.3111C26.9741 15.3768 28.8458 18.897 31.8141 19.4995Z" fill="url(#paint5_linear_1543_46181)"/>
<path d="M45.3028 32.9997C43.9878 32.9997 42.7408 33.2947 41.6222 33.8194C40.9335 31.0205 39.7125 28.5181 37.9817 26.37C36.2182 24.1812 33.9182 22.3932 31.3302 21.199C27.0697 19.2334 22.1827 19.2333 17.9223 21.199C15.3337 22.3934 13.0333 24.1819 11.2697 26.3714C9.32556 28.7848 8.02302 31.644 7.39802 34.8698C7.31491 35.2986 7.59524 35.7138 8.02418 35.7969C8.07502 35.8067 8.12564 35.8114 8.17553 35.8114C8.54689 35.8114 8.87806 35.5488 8.95125 35.1708C9.52669 32.2009 10.7211 29.5743 12.5016 27.3639C14.1132 25.3633 16.2169 23.7282 18.5851 22.6356C22.4244 20.8641 26.8284 20.8641 30.6676 22.6356C33.0354 23.728 35.1386 25.3625 36.75 27.3625C38.4289 29.4465 39.5864 31.9006 40.1958 34.6635C38.0222 36.2462 36.6057 38.8086 36.6057 41.6971C36.6057 41.8118 36.6099 41.9253 36.6143 42.0388C36.2923 41.9444 35.9412 41.8322 35.5483 41.6976C28.5052 39.285 20.7476 39.285 13.7045 41.6976C12.0416 42.2674 10.2263 42.7677 9.37313 42.1578C8.83271 41.7717 8.55859 40.8434 8.55859 39.3989C8.55859 39.0002 8.56851 38.6002 8.58781 38.2104C8.60964 37.774 8.27362 37.4027 7.83729 37.381C7.39907 37.3591 7.02961 37.6952 7.00789 38.1315C6.98711 38.5475 6.97656 38.9739 6.97656 39.3989C6.97656 41.4116 7.45961 42.7351 8.45334 43.445C9.01918 43.8493 9.68542 44.0203 10.4508 44.0203C11.5163 44.0202 12.7734 43.6888 14.2172 43.1943C20.9298 40.8948 28.323 40.8948 35.0356 43.1943C35.7379 43.4348 36.3278 43.6132 36.8509 43.7425C37.7734 47.5542 41.2118 50.3945 45.3031 50.3945C47.3248 50.3945 49.2946 49.6848 50.8493 48.3964C51.1857 48.1176 51.2325 47.619 50.9537 47.2826C50.6748 46.9462 50.1763 46.8993 49.8399 47.1783C48.5682 48.2321 46.957 48.8125 45.303 48.8125C41.3796 48.8125 38.1876 45.6204 38.1876 41.6971C38.1876 37.7738 41.3796 34.5818 45.303 34.5818C49.2263 34.5818 52.4183 37.7738 52.4183 41.6971C52.4183 42.8447 52.1518 43.9421 51.6259 44.959C51.4253 45.3471 51.5772 45.8243 51.9653 46.0249C52.3533 46.2254 52.8306 46.0736 53.0312 45.6855C53.6742 44.4419 54.0002 43.1 54.0002 41.6971C54.0001 36.9013 50.0985 32.9997 45.3028 32.9997Z" fill="url(#paint6_linear_1543_46181)"/>
</g>
<defs>
<linearGradient id="paint0_linear_1543_46181" x1="20.0117" y1="36.3973" x2="29.24" y2="36.3973" gradientUnits="userSpaceOnUse">
<stop stop-color="#F86CA7"/>
<stop offset="1" stop-color="#FF7F18"/>
</linearGradient>
<linearGradient id="paint1_linear_1543_46181" x1="9.79883" y1="11.5981" x2="21.8703" y2="11.5981" gradientUnits="userSpaceOnUse">
<stop stop-color="#F86CA7"/>
<stop offset="1" stop-color="#FF7F18"/>
</linearGradient>
<linearGradient id="paint2_linear_1543_46181" x1="0" y1="22.0633" x2="10.1464" y2="22.0633" gradientUnits="userSpaceOnUse">
<stop stop-color="#F86CA7"/>
<stop offset="1" stop-color="#FF7F18"/>
</linearGradient>
<linearGradient id="paint3_linear_1543_46181" x1="39.1064" y1="22.0634" x2="49.253" y2="22.0634" gradientUnits="userSpaceOnUse">
<stop stop-color="#F86CA7"/>
<stop offset="1" stop-color="#FF7F18"/>
</linearGradient>
<linearGradient id="paint4_linear_1543_46181" x1="41.417" y1="41.6971" x2="49.1899" y2="41.6971" gradientUnits="userSpaceOnUse">
<stop stop-color="#F86CA7"/>
<stop offset="1" stop-color="#FF7F18"/>
</linearGradient>
<linearGradient id="paint5_linear_1543_46181" x1="27.3838" y1="11.5989" x2="39.4533" y2="11.5989" gradientUnits="userSpaceOnUse">
<stop stop-color="#F86CA7"/>
<stop offset="1" stop-color="#FF7F18"/>
</linearGradient>
<linearGradient id="paint6_linear_1543_46181" x1="6.97656" y1="35.0596" x2="54.0002" y2="35.0596" gradientUnits="userSpaceOnUse">
<stop stop-color="#F86CA7"/>
<stop offset="1" stop-color="#FF7F18"/>
</linearGradient>
<clipPath id="clip0_1543_46181">
<rect width="54" height="54" fill="white"/>
</clipPath>
</defs>
</svg>
