<svg width="17" height="17" viewBox="0 0 17 17" fill="none" xmlns="http://www.w3.org/2000/svg">
<g clip-path="url(#clip0_1635_61745)">
<path d="M10.1704 13.0185C9.7453 13.1968 9.56702 13.7042 9.75901 14.1157L10.431 15.5282C10.623 15.9258 11.0893 16.1042 11.5007 15.9258C12.6664 15.4321 13.6675 14.7875 14.4629 14.0058C15.4366 13.0871 16.0949 12.0311 16.4514 10.8654C16.808 9.6859 17 8.0815 17 6.03811L17 1.82792C17 1.37535 16.6297 1.00508 16.1772 1.00508L10.7876 1.00508C10.335 1.00508 9.96472 1.37535 9.96472 1.82792L9.96472 7.21752C9.96472 7.67022 10.335 8.04036 10.7876 8.04036L13.3658 8.04036C13.3384 9.42561 13.0092 10.5363 12.4058 11.373C11.9121 12.0447 11.1716 12.5933 10.1704 13.0185Z" fill="#253D4E"/>
<path d="M0.488834 13.0185C0.0637 13.1968 -0.114445 13.7042 0.0774139 14.1156L0.7494 15.5143C0.941396 15.912 1.40767 16.0903 1.81909 15.912C2.97107 15.4183 3.95861 14.7738 4.7676 14.0058C5.74143 13.0732 6.41328 12.0173 6.76998 10.8516C7.12654 9.69973 7.30469 8.09506 7.30469 6.03796L7.30469 1.82776C7.30469 1.3752 6.93441 1.00492 6.48185 1.00492L1.09225 1.00492C0.639687 1.00492 0.269409 1.3752 0.269409 1.82776L0.269409 7.21736C0.269409 7.67006 0.639687 8.0402 1.09225 8.0402L3.68419 8.0402C3.65677 9.42545 3.32749 10.5361 2.72421 11.3728C2.23051 12.0447 1.48995 12.5932 0.488834 13.0185Z" fill="#253D4E"/>
</g>
<defs>
<clipPath id="clip0_1635_61745">
<rect width="17" height="17" fill="white" transform="translate(17 17) rotate(180)"/>
</clipPath>
</defs>
</svg>
