<svg width="50" height="50" viewBox="0 0 50 50" fill="none" xmlns="http://www.w3.org/2000/svg">
<g clip-path="url(#clip0_1543_45977)">
<path d="M23.2227 0.771484C14.7754 5.03906 7.11914 11.6016 1.99219 18.9941C0.751953 20.7812 0.292969 21.5527 0.292969 21.8652C0.292969 22.1094 0.605469 22.5098 2.06055 24.1699C3.11523 25.3711 3.91602 26.1914 4.05273 26.2305C4.46289 26.3281 4.66797 26.1816 5.29297 25.3125L5.9082 24.4629L5.9375 32.832L5.95703 41.2012L6.21094 41.3965C6.55273 41.6699 6.88477 41.6504 7.17773 41.3574L7.42188 41.123V31.8555V22.5977L8.52539 21.377C12.4805 17.041 18.0469 12.4414 23.3887 9.0918L25 8.08594L26.1523 8.79883C27.7148 9.76562 29.7656 11.1621 31.3379 12.3242C32.0508 12.8613 32.7344 13.3398 32.8613 13.3984C33.3398 13.6133 33.8965 13.0566 33.7598 12.4902C33.6133 11.9043 25.7227 6.54297 25.0098 6.54297C24.248 6.54297 17.6465 11.0742 14.1309 14.0137C10.6445 16.9238 7.50977 20.1074 5.05859 23.2031C4.20898 24.2871 4.16016 24.3262 4.00391 24.1504C3.48633 23.6133 1.95312 21.8262 1.95312 21.7578C1.95312 21.6309 3.4668 19.4043 4.27734 18.3203C6.875 14.8828 10.293 11.3965 13.9258 8.49609C16.9043 6.11328 20.498 3.78906 23.7988 2.11914L25 1.51367L26.2891 2.16797C29.9414 4.01367 33.8477 6.61133 37.3535 9.53125C38.9941 10.8984 42.7539 14.6484 44.043 16.2109C45.5762 18.0664 48.0469 21.4844 48.0469 21.7578C48.0469 21.8262 46.5234 23.6133 46.0059 24.1504C45.8398 24.3262 45.791 24.2871 44.9121 23.1738C42.9883 20.7617 41.1914 18.8184 38.9648 16.7578C37.002 14.9316 35.8691 13.9746 35.5664 13.8574C35.0488 13.6621 34.5117 14.2578 34.7266 14.7852C34.7754 14.9219 35.3906 15.5176 36.084 16.123C37.6562 17.4902 40 19.7754 41.4648 21.377L42.5781 22.5977V35.5664V48.5352H38.7695H34.9609V43.0859C34.9609 40.0977 34.9121 37.1582 34.8633 36.5625C34.4824 32.2461 31.5039 28.7695 27.2754 27.7148C26.0449 27.4023 23.9453 27.4023 22.7148 27.7148C20.9375 28.1641 19.502 28.9551 18.1738 30.2246C16.3672 31.9531 15.3711 34.0137 15.1367 36.5039C15.0879 37.0801 15.0391 40.0195 15.0391 43.0371V48.5352H11.2305H7.42188V46.0449V43.5449L7.17773 43.3105C6.88477 43.0176 6.55273 42.998 6.21094 43.2715L5.95703 43.4668V46.5332V49.5996L6.21094 49.7949L6.47461 50H25H43.5254L43.7891 49.7949L44.043 49.5996L44.0625 37.0312L44.0918 24.4629L44.707 25.3125C45.332 26.1816 45.5762 26.3574 45.9863 26.2207C46.0938 26.1914 46.9824 25.2637 47.9492 24.1602C49.4238 22.4805 49.707 22.1094 49.707 21.8555C49.707 21.3281 47.3145 17.8516 45.2441 15.3809C41.3379 10.6934 36.416 6.48438 30.8984 3.06641C28.5742 1.63086 25.4199 0 24.9609 0C24.8438 0 24.0625 0.351562 23.2227 0.771484ZM27.2754 29.2383C30.2637 30.1172 32.4316 32.3633 33.2227 35.3809C33.418 36.1523 33.4277 36.4258 33.4668 42.3633L33.5156 48.5352H25H16.4941L16.5332 42.3535C16.5625 36.4258 16.5723 36.1523 16.7773 35.3809C17.6367 32.0898 20.166 29.707 23.4863 29.043C24.5215 28.8379 26.2012 28.9258 27.2754 29.2383Z" fill="url(#paint0_linear_1543_45977)"/>
<path d="M21.3181 12.4902C20.2342 12.7734 19.3845 13.7695 19.2674 14.8828C19.1013 16.4551 20.3904 17.8711 21.9724 17.8711C23.1248 17.8711 24.2478 17.041 24.5701 15.9668C25.0584 14.2578 23.9256 12.5879 22.197 12.4512C21.8845 12.4316 21.4939 12.4512 21.3181 12.4902ZM22.5486 14.043C22.9099 14.2383 23.242 14.7559 23.242 15.1172C23.242 15.791 22.6365 16.4062 21.9724 16.4062C21.3084 16.4062 20.7029 15.791 20.7029 15.1172C20.7029 14.5312 21.3767 13.8672 21.9724 13.8672C22.1092 13.8672 22.3728 13.9453 22.5486 14.043Z" fill="url(#paint1_linear_1543_45977)"/>
<path d="M27.3728 12.4902C26.2888 12.7734 25.4392 13.7695 25.322 14.8828C25.156 16.4551 26.4451 17.8711 28.0271 17.8711C29.1795 17.8711 30.3025 17.041 30.6248 15.9668C31.1131 14.2578 29.9802 12.5879 28.2517 12.4512C27.9392 12.4316 27.5486 12.4512 27.3728 12.4902ZM28.6033 14.043C28.9646 14.2383 29.2967 14.7559 29.2967 15.1172C29.2967 15.791 28.6912 16.4062 28.0271 16.4062C27.3631 16.4062 26.7576 15.791 26.7576 15.1172C26.7576 14.5312 27.4314 13.8672 28.0271 13.8672C28.1638 13.8672 28.4275 13.9453 28.6033 14.043Z" fill="url(#paint2_linear_1543_45977)"/>
<path d="M16.553 16.7383C15.9671 17.002 15.5081 17.4414 15.2053 18.0078C14.9026 18.584 14.9026 19.7949 15.2151 20.3809C15.7131 21.3184 16.4553 21.7969 17.5393 21.8555C18.428 21.9043 19.053 21.6504 19.6682 20.9961C20.6253 19.9707 20.6448 18.4961 19.7073 17.4316C18.9065 16.5234 17.6174 16.2402 16.553 16.7383ZM18.3987 18.1738C19.385 18.9551 18.9065 20.4102 17.6663 20.4102C17.2756 20.4102 17.1292 20.3613 16.8557 20.1074C16.2698 19.5996 16.26 18.877 16.846 18.291C17.1194 18.0176 17.2366 17.9688 17.6565 17.9688C17.9983 17.9688 18.2131 18.0273 18.3987 18.1738Z" fill="url(#paint3_linear_1543_45977)"/>
<path d="M31.2012 16.7384C30.2734 17.1681 29.5898 18.213 29.5898 19.1896C29.5898 19.7853 29.8828 20.5079 30.3027 20.9669C31.6211 22.4025 33.8672 22.1095 34.7852 20.3907C35.0977 19.8048 35.0977 18.5841 34.7949 18.0177C34.0918 16.6896 32.5 16.1232 31.2012 16.7384ZM33.1543 18.2911C33.7402 18.8771 33.7305 19.5997 33.1445 20.1075C32.5195 20.6642 31.5918 20.4786 31.2012 19.7267C30.7715 18.8966 31.3867 17.9689 32.3438 17.9689C32.7637 17.9689 32.8809 18.0177 33.1543 18.2911Z" fill="url(#paint4_linear_1543_45977)"/>
<path d="M24.1501 18.1055C23.3591 18.3594 22.5193 19.0723 22.2361 19.707C22.1775 19.8535 21.8943 20.1953 21.6111 20.4785C20.7029 21.3574 20.3611 22.4805 20.654 23.584C20.9275 24.6191 21.6794 25.4687 22.6657 25.8496C23.0271 25.9863 23.4372 26.0156 25.1462 26.0254C27.1579 26.0254 27.2068 26.0254 27.7439 25.7715C28.4861 25.4199 29.0427 24.8926 29.365 24.2383C29.5993 23.7598 29.6384 23.5645 29.6384 22.8516C29.6384 22.1387 29.5993 21.9434 29.365 21.4648C29.2087 21.1523 28.8864 20.7227 28.6228 20.4883C28.3689 20.2539 28.0759 19.8926 27.9685 19.6777C27.7243 19.1504 27.0993 18.5449 26.5134 18.2715C25.9177 17.9785 24.7654 17.9004 24.1501 18.1055ZM25.9763 19.6582C26.3864 19.873 26.738 20.3516 26.8747 20.8789C26.904 20.9863 27.1091 21.1914 27.3239 21.3281C28.154 21.8457 28.4568 22.793 28.0368 23.6035C27.6072 24.4531 26.9529 24.6484 24.7654 24.5898C23.1443 24.5508 22.8904 24.4727 22.4216 23.9258C21.7478 23.1152 21.9626 21.875 22.8806 21.3379C23.2517 21.1133 23.4079 20.9277 23.4763 20.6055C23.5935 19.9902 24.3845 19.4434 25.156 19.4336C25.3904 19.4336 25.7322 19.5312 25.9763 19.6582Z" fill="url(#paint5_linear_1543_45977)"/>
</g>
<defs>
<linearGradient id="paint0_linear_1543_45977" x1="0.292969" y1="25" x2="49.707" y2="25" gradientUnits="userSpaceOnUse">
<stop stop-color="#F86CA7"/>
<stop offset="1" stop-color="#FF7F18"/>
</linearGradient>
<linearGradient id="paint1_linear_1543_45977" x1="19.2529" y1="15.1573" x2="24.6842" y2="15.1573" gradientUnits="userSpaceOnUse">
<stop stop-color="#F86CA7"/>
<stop offset="1" stop-color="#FF7F18"/>
</linearGradient>
<linearGradient id="paint2_linear_1543_45977" x1="25.3076" y1="15.1573" x2="30.7389" y2="15.1573" gradientUnits="userSpaceOnUse">
<stop stop-color="#F86CA7"/>
<stop offset="1" stop-color="#FF7F18"/>
</linearGradient>
<linearGradient id="paint3_linear_1543_45977" x1="14.9795" y1="19.1781" x2="20.3984" y2="19.1781" gradientUnits="userSpaceOnUse">
<stop stop-color="#F86CA7"/>
<stop offset="1" stop-color="#FF7F18"/>
</linearGradient>
<linearGradient id="paint4_linear_1543_45977" x1="29.5898" y1="19.1871" x2="35.0208" y2="19.1871" gradientUnits="userSpaceOnUse">
<stop stop-color="#F86CA7"/>
<stop offset="1" stop-color="#FF7F18"/>
</linearGradient>
<linearGradient id="paint5_linear_1543_45977" x1="20.5518" y1="22.008" x2="29.6384" y2="22.008" gradientUnits="userSpaceOnUse">
<stop stop-color="#F86CA7"/>
<stop offset="1" stop-color="#FF7F18"/>
</linearGradient>
<clipPath id="clip0_1543_45977">
<rect width="50" height="50" fill="white"/>
</clipPath>
</defs>
</svg>
