<svg width="100" height="100" viewBox="0 0 100 100" fill="none" xmlns="http://www.w3.org/2000/svg">
<g clip-path="url(#clip0_1635_61663)">
<path d="M98.4464 52.1797C82.9666 33.9653 68.4521 13.5839 48.0981 0.443994C46.5523 -0.554084 44.8634 0.267831 43.875 1.55077C29.5389 20.1732 11.2645 35.8736 1.05673 57.4056C0.0880979 59.4484 1.22753 62.0169 3.70131 62.0143C8.02399 62.0094 12.3456 61.9891 16.6678 61.9495C16.2008 74.1866 15.9947 86.3504 17.7708 98.5153C18.1097 100.836 21.9548 100.27 21.8359 97.9654C21.1602 84.8924 21.7642 71.9924 22.7494 58.9515C22.8731 57.3119 21.2983 55.9904 19.7664 55.9685C16.082 55.9166 12.3975 55.9198 8.71312 55.9133C18.6966 37.7193 34.2562 23.4046 47.1616 7.25438C64.3586 19.0675 77.3283 36.3801 90.5951 52.3815C86.1477 53.0069 81.8143 52.8816 77.1393 52.8056C75.4563 52.7778 74.0524 54.2294 74.0524 55.8919C74.0524 63.7866 73.9094 71.6973 74.0861 79.5899C74.1536 82.5846 74.3785 85.581 74.4979 88.5742C74.5541 90.0134 74.5648 91.4538 74.5311 92.8936C74.3753 93.5271 74.3389 93.9758 74.3994 94.2767C73.8923 95.2319 73.8918 96.5577 74.628 97.4166C74.7699 97.5815 74.9102 97.7464 75.0515 97.9113C75.7642 98.7439 77.3352 98.9597 78.2343 98.3225C81.9074 95.7197 80.7279 90.0258 80.5742 86.1646C80.2138 77.1139 80.2192 68.0734 80.224 59.0184C85.9528 59.0709 91.4454 58.9022 97.0837 57.3382C99.4579 56.679 99.9167 53.9097 98.4464 52.1797Z" fill="#FF6B55"/>
<path d="M67.5364 41.2992C59.3178 32.4975 50.4042 42.1833 46.4435 50.8886C41.5029 44.9601 33.7967 40.9523 28.6307 49.4895C20.4217 63.0556 34.4992 81.6282 45.4218 88.4027C47.501 89.6926 49.1716 87.3367 48.393 85.5482C49.4259 87.1573 52.2392 87.8062 53.7208 85.7105C60.2484 76.4815 78.4655 53.0015 67.5364 41.2992ZM64.4158 48.4288C64.1122 48.2681 63.8172 48.108 63.5543 47.9436C61.8028 46.8444 60.1558 45.6203 58.5312 44.3626C61.7648 42.9377 63.7728 45.2969 64.4158 48.4288ZM42.6123 54.7824C40.7666 53.2751 38.9279 51.7576 37.0758 50.2557C39.3102 50.441 41.1864 52.5437 42.6123 54.7824ZM48.1981 85.175C48.0536 84.963 47.8908 84.7552 47.6573 84.5791C45.0144 82.5819 42.6198 80.2457 40.5182 77.682C41.0242 78.1162 41.5023 78.5778 42.0201 79.0008C43.8326 80.4818 45.9964 82.38 48.3823 82.9658C47.9352 83.7572 47.9176 84.5234 48.1981 85.175ZM50.0931 80.5027C45.1991 79.0013 40.7217 75.2028 36.5452 71.7995C35.0272 69.0253 33.8551 66.0697 33.1472 62.971C35.9396 66.4734 38.9027 69.8023 42.1379 72.9154C44.5507 75.2376 47.3869 77.9936 50.4358 80.0283C50.3223 80.1852 50.2045 80.348 50.0931 80.5027ZM52.3639 77.3607C49.5839 75.2419 46.4799 73.3764 43.8647 71.188C40.0556 68.0016 36.5853 64.4269 33.3512 60.6648C33.1718 60.4555 32.9357 60.4057 32.706 60.4405C32.6717 60.1974 32.6107 59.9613 32.5828 59.7166C32.5416 59.361 32.5095 58.9482 32.4929 58.5C35.8116 62.0677 39.3605 65.4121 43.0139 68.6409C45.9626 71.2475 49.3295 74.5046 52.9561 76.535C52.7591 76.8103 52.5599 77.0892 52.3639 77.3607ZM54.7328 74.02C51.2224 71.0617 46.8633 68.7035 43.3245 65.8951C39.5255 62.88 35.9787 59.5747 32.5587 56.1403C32.6262 55.4185 32.7472 54.6871 32.9309 53.9937C35.8983 57.8784 39.5405 61.1318 43.3041 64.3471C46.3889 66.9832 50.8524 71.7299 55.1161 73.4535C54.9876 73.6404 54.8607 73.8342 54.7328 74.02ZM57.0277 70.5926C55.9541 69.7054 54.6942 69.0334 53.5071 68.2398C50.341 66.1254 47.2884 63.8294 44.2819 61.4953C40.6981 58.7137 36.6335 55.8346 33.431 52.6219C33.7785 51.8776 34.2561 51.2677 34.8649 50.8393C41.3712 57.3868 49.2171 65.1466 57.6445 69.6085C57.4384 69.9356 57.2387 70.2681 57.0277 70.5926ZM59.3917 66.7127C56.0093 64.4419 52.4919 62.3504 49.1941 59.9334C49.1164 59.8767 49.0425 59.8162 48.9649 59.7589C49.5148 59.4076 49.9458 58.893 50.0733 58.1852C50.1193 57.9287 50.1793 57.6765 50.2296 57.4206C51.5345 58.6039 52.8785 59.7407 54.3039 60.8003C56.1142 62.1464 58.3015 63.9027 60.552 64.6074C60.181 65.3125 59.7933 66.0151 59.3917 66.7127ZM61.8853 61.8685C60.2607 60.6424 58.2475 59.8012 56.5426 58.7346C54.5518 57.4891 52.7072 56.0359 50.9354 54.4981C51.1972 53.6124 51.5067 52.7466 51.8633 51.907C53.7095 53.5707 55.5333 55.2579 57.4957 56.7887C58.9141 57.8955 60.9081 59.5329 62.8512 59.5019C62.5514 60.2916 62.2424 61.0809 61.8853 61.8685ZM63.7037 56.9124C62.2232 55.781 60.1435 55.1497 58.5901 54.1034C56.6245 52.7787 54.7917 51.264 52.9272 49.7979C53.2041 49.323 53.5023 48.8635 53.8257 48.4197C55.6147 49.9205 57.4132 51.4134 59.1529 52.9688C60.5028 54.1768 62.0106 55.9706 63.7283 56.8144C63.7187 56.8471 63.7128 56.8792 63.7037 56.9124ZM60.6864 50.9796C58.8322 49.6303 57.0314 48.2055 55.219 46.7983C55.537 46.4749 55.8695 46.1622 56.2202 45.8634C57.7045 47.2583 59.4158 48.4705 61.0323 49.6485C62.0947 50.4228 63.2903 51.559 64.5625 52.3991C64.5283 52.79 64.4972 53.1803 64.4389 53.5739C63.2486 52.6074 61.8098 51.7967 60.6864 50.9796Z" fill="#FF6B55"/>
</g>
<defs>
<clipPath id="clip0_1635_61663">
<rect width="100" height="100" fill="white"/>
</clipPath>
</defs>
</svg>
