<svg width="40" height="40" viewBox="0 0 40 40" fill="none" xmlns="http://www.w3.org/2000/svg">
<path d="M32.8893 8.28137C32.8893 3.75864 29.2081 0.00012207 24.6844 0.00012207C22.9216 0.00012207 21.2745 0.754263 19.9959 2.11153C18.7173 0.754263 17.0701 0.00012207 15.3074 0.00012207C10.7837 0.00012207 7.10254 3.75864 7.10254 8.28137C7.10254 12.8304 10.4415 15.1787 14.3081 17.899C15.9026 19.0204 17.5521 20.1809 19.2279 21.6343L19.9947 22.3004L20.7628 21.6354C22.6572 19.9966 24.4589 18.7138 26.0477 17.5819C29.8697 14.8618 32.8893 12.7125 32.8893 8.28137ZM23.5123 11.797H21.168V14.1407H18.8238V11.797H16.4795V9.45325H18.8238V7.1095H21.168V9.45325H23.5123V11.797Z" fill="url(#paint0_linear_1543_46276)"/>
<path d="M38.5936 10.7188C36.2024 10.7188 35.5852 21.8282 35.5382 22.0626C35.3001 23.6904 34.1532 26.1001 32.2162 27.551L27.1392 31.2364L25.7336 29.3596L30.8106 25.6753C32.8217 24.1678 33.7383 21.5938 31.2248 21.5938C28.9737 21.5938 24.7658 24.1995 23.5184 25.2332C22.0288 26.4675 21.168 28.3016 21.168 30.236V40.0001H28.2007C28.2007 38.875 28.8102 37.6485 29.7478 36.4766C30.7325 35.1875 32.1391 33.875 33.5924 32.5391C36.3586 29.9375 39.2264 27.2657 39.6016 24.547C39.8243 22.7207 40.0093 19.5885 40 16.797C39.9899 13.6708 39.725 10.8198 38.5936 10.7188Z" fill="url(#paint1_linear_1543_46276)"/>
<path d="M16.1979 25.0157C12.8924 22.7422 10.3842 21.5938 8.76667 21.5938C6.25317 21.5938 7.16977 24.1678 9.1809 25.6753L14.2578 29.3596L12.8522 31.2364L7.77529 27.551C5.83816 26.1001 4.69119 23.6904 4.45309 22.0626C4.40613 21.8282 3.78889 10.7188 1.39768 10.7188C0.0848966 10.836 -0.0557586 14.6563 0.0146471 18.3125C0.0616103 20.9844 0.272515 23.586 0.389649 24.547C0.764807 27.2657 3.63261 29.9376 6.39882 32.5391C7.85226 33.875 9.25873 35.1875 10.2434 36.4766C11.181 37.6485 11.7905 38.875 11.7905 40.0001H18.8233V30.2828C18.8234 28.2124 17.8513 26.2621 16.1979 25.0157Z" fill="url(#paint2_linear_1543_46276)"/>
<defs>
<linearGradient id="paint0_linear_1543_46276" x1="7.10254" y1="11.1502" x2="32.8893" y2="11.1502" gradientUnits="userSpaceOnUse">
<stop stop-color="#F86CA7"/>
<stop offset="1" stop-color="#FF7F18"/>
</linearGradient>
<linearGradient id="paint1_linear_1543_46276" x1="21.168" y1="25.3594" x2="40.0004" y2="25.3594" gradientUnits="userSpaceOnUse">
<stop stop-color="#F86CA7"/>
<stop offset="1" stop-color="#FF7F18"/>
</linearGradient>
<linearGradient id="paint2_linear_1543_46276" x1="0" y1="25.3594" x2="18.8233" y2="25.3594" gradientUnits="userSpaceOnUse">
<stop stop-color="#F86CA7"/>
<stop offset="1" stop-color="#FF7F18"/>
</linearGradient>
</defs>
</svg>
