<svg width="40" height="40" viewBox="0 0 40 40" fill="none" xmlns="http://www.w3.org/2000/svg">
<g clip-path="url(#clip0_1543_46239)">
<path d="M39.0281 17.6428L36.3 14.9153C35.6525 14.2678 35.122 12.9883 35.122 12.0707V8.21317C35.122 6.37818 33.6229 4.87912 31.7884 4.87815H27.9293C27.0128 4.87815 25.7318 4.34659 25.0843 3.69961L22.3567 0.972016C21.0606 -0.324005 18.9386 -0.324005 17.6426 0.972016L14.915 3.70156C14.267 4.34904 12.9845 4.87912 12.0699 4.87912H8.21244C6.37989 4.87912 4.87888 6.37818 4.87888 8.21317V12.0708C4.87888 12.9848 4.3484 14.2683 3.70083 14.9154L0.972749 17.6429C-0.324249 18.939 -0.324249 21.061 0.972749 22.3591L3.70083 25.0866C4.34879 25.7341 4.87888 27.0172 4.87888 27.9312V31.7888C4.87888 33.6219 6.37989 35.1229 8.21244 35.1229H12.07C12.9866 35.1229 14.2675 35.6534 14.9151 36.3004L17.6427 39.029C18.9387 40.3241 21.0607 40.3241 22.3568 39.029L25.0844 36.3004C25.7324 35.653 27.0129 35.1229 27.9294 35.1229H31.7885C33.623 35.1229 35.1221 33.6219 35.1221 31.7888V27.9312C35.1221 27.0133 35.653 25.7337 36.3001 25.0866L39.0282 22.3591C40.3231 21.061 40.3231 18.9389 39.0281 17.6428ZM17.3536 27.5006L9.999 20.145L12.3561 17.7884L17.3542 22.7865L27.6429 12.5003L29.9994 14.8569L17.3536 27.5006Z" fill="white"/>
</g>
<defs>
<clipPath id="clip0_1543_46239">
<rect width="40" height="40" fill="white"/>
</clipPath>
</defs>
</svg>
