<svg width="127" height="127" viewBox="0 0 127 127" fill="none" xmlns="http://www.w3.org/2000/svg">
<path d="M60.7663 2.04717C61.8297 -0.305138 65.1703 -0.305133 66.2337 2.04717L73.3473 17.7832C74.1274 19.509 76.2919 20.089 77.8304 18.9845L91.859 8.91346C93.9561 7.408 96.8491 9.07828 96.5938 11.6471L94.8864 28.8317C94.6991 30.7164 96.2836 32.3009 98.1683 32.1137L115.353 30.4062C117.922 30.1509 119.592 33.044 118.087 35.141L108.016 49.1696C106.911 50.7081 107.491 52.8726 109.217 53.6528L124.953 60.7664C127.305 61.8298 127.305 65.1703 124.953 66.2337L109.217 73.3473C107.491 74.1274 106.911 76.2919 108.016 77.8305L118.087 91.859C119.592 93.9561 117.922 96.8491 115.353 96.5939L98.1683 94.8864C96.2836 94.6991 94.6991 96.2836 94.8864 98.1683L96.5938 115.353C96.8491 117.922 93.9561 119.592 91.859 118.087L77.8304 108.016C76.2919 106.911 74.1274 107.491 73.3473 109.217L66.2337 124.953C65.1703 127.305 61.8297 127.305 60.7663 124.953L53.6527 109.217C52.8726 107.491 50.7081 106.911 49.1696 108.016L35.141 118.087C33.0439 119.592 30.1509 117.922 30.4062 115.353L32.1136 98.1683C32.3009 96.2836 30.7164 94.6991 28.8317 94.8864L11.6471 96.5939C9.07824 96.8491 7.40797 93.9561 8.91344 91.859L18.9845 77.8305C20.089 76.2919 19.509 74.1274 17.7832 73.3473L2.04714 66.2337C-0.305169 65.1703 -0.305164 61.8298 2.04714 60.7664L17.7832 53.6528C19.509 52.8726 20.089 50.7081 18.9845 49.1696L8.91343 35.141C7.40796 33.0439 9.07825 30.1509 11.6471 30.4062L28.8317 32.1137C30.7164 32.3009 32.3009 30.7164 32.1136 28.8317L30.4062 11.6471C30.1509 9.07827 33.0439 7.408 35.141 8.91347L49.1696 18.9845C50.7081 20.089 52.8726 19.509 53.6527 17.7832L60.7663 2.04717Z" fill="url(#paint0_linear_1543_46375)"/>
<defs>
<linearGradient id="paint0_linear_1543_46375" x1="-4" y1="63.5" x2="131" y2="63.5" gradientUnits="userSpaceOnUse">
<stop stop-color="#F86CA7"/>
<stop offset="1" stop-color="#FF7F18"/>
</linearGradient>
</defs>
</svg>
