<svg width="54" height="54" viewBox="0 0 54 54" fill="none" xmlns="http://www.w3.org/2000/svg">
<g clip-path="url(#clip0_1543_46170)">
<path d="M18.7484 12.6797C18.5932 13.1571 18.7459 13.6689 19.1372 13.9835L22.6214 16.7839L21.4487 21.0975C21.3171 21.5818 21.4944 22.0855 21.9007 22.381C22.3072 22.6759 22.8408 22.6889 23.2609 22.414L27.0009 19.9658L30.741 22.4141C30.9427 22.5461 31.1704 22.6117 31.3977 22.6117C31.644 22.6117 31.8899 22.5346 32.1009 22.381C32.5075 22.0858 32.6849 21.5818 32.553 21.0975L31.3803 16.784L34.8642 13.9837C35.2558 13.6692 35.4085 13.1574 35.2533 12.6797C35.0981 12.2019 34.6737 11.8776 34.1722 11.8533L29.7074 11.6356L28.1207 7.45676C27.9426 6.98732 27.5029 6.68389 27.0008 6.68389C26.4986 6.68389 26.0589 6.98722 25.8809 7.45666L24.2941 11.6358L19.8296 11.8533C19.3279 11.8776 18.9035 12.2019 18.7484 12.6797ZM24.6964 13.3055C25.1723 13.2823 25.589 12.9795 25.7578 12.5342L27.0007 9.26102L28.2435 12.5346C28.4127 12.9797 28.8295 13.2823 29.3049 13.3055L32.802 13.4761L30.0729 15.6695C29.7015 15.9681 29.5425 16.458 29.6674 16.9174L30.586 20.296L27.6565 18.3783C27.4572 18.2479 27.2289 18.1827 27.0006 18.1827C26.7722 18.1827 26.5437 18.248 26.3443 18.3784L23.415 20.296L24.3336 16.9176C24.4587 16.4579 24.2995 15.9679 23.928 15.6695L21.199 13.4762L24.6964 13.3055ZM26.1569 3.94022V0.843872C26.1569 0.377911 26.5347 0.00012207 27.0007 0.00012207C27.4666 0.00012207 27.8444 0.377911 27.8444 0.843872V3.94022C27.8444 4.40619 27.4666 4.78397 27.0007 4.78397C26.5347 4.78397 26.1569 4.40619 26.1569 3.94022ZM31.2952 8.93923C30.9835 8.59298 31.0114 8.05941 31.3577 7.74765L34.8081 4.64075C35.1545 4.32888 35.6879 4.35683 35.9998 4.70319C36.3116 5.04944 36.2836 5.58301 35.9374 5.89477L32.4868 9.00167C32.3256 9.1469 32.1237 9.21841 31.9225 9.21841C31.6918 9.21841 31.4619 9.12433 31.2952 8.93923ZM18.0015 4.70319C18.3133 4.35683 18.8468 4.32888 19.1932 4.64075L22.6438 7.74765C22.99 8.05941 23.018 8.59298 22.7062 8.93923C22.5396 9.12422 22.3096 9.21841 22.0789 9.21841C21.8777 9.21841 21.6759 9.1469 21.5145 9.00167L18.064 5.89477C17.7176 5.58301 17.6898 5.04944 18.0015 4.70319ZM37.8253 13.9835L41.3095 16.7839L40.1368 21.0975C40.0052 21.5818 40.1825 22.0855 40.5888 22.381C40.995 22.6759 41.5287 22.6888 41.949 22.414L45.689 19.9658L49.4291 22.4141C49.6308 22.5461 49.8585 22.6117 50.0858 22.6117C50.3322 22.6117 50.578 22.5346 50.789 22.381C51.1954 22.086 51.3728 21.5822 51.2411 21.0975L50.0684 16.784L53.5523 13.9837C53.9438 13.6693 54.0965 13.1575 53.9413 12.6797C53.7861 12.2019 53.3617 11.8776 52.8603 11.8533L48.3955 11.6356L46.809 7.45676C46.6308 6.98732 46.1911 6.68389 45.689 6.68389C45.1868 6.68389 44.7471 6.98722 44.5689 7.45666L42.9823 11.6356L38.5179 11.8532C38.016 11.8775 37.5916 12.2019 37.4365 12.6797C37.2812 13.1574 37.434 13.6692 37.8253 13.9835ZM43.3844 13.3055C43.8604 13.2823 44.2772 12.9795 44.4461 12.5341L45.6889 9.26091L46.9315 12.534C47.1006 12.9795 47.5174 13.2823 47.9932 13.3054L51.4902 13.476L48.7614 15.6692C48.3898 15.9677 48.2306 16.4577 48.3557 16.9173L49.2742 20.2959L46.3447 18.3782C46.1454 18.2478 45.917 18.1826 45.6887 18.1826C45.4602 18.1826 45.2318 18.2479 45.0326 18.3783L42.1033 20.2959L43.0218 16.9175C43.1468 16.458 42.9877 15.9681 42.6163 15.6694L39.8873 13.476L43.3844 13.3055ZM0.448907 13.9835L3.93307 16.7839L2.76036 21.0975C2.62874 21.5818 2.80603 22.0855 3.2124 22.381C3.61888 22.6759 4.15244 22.6889 4.57252 22.414L8.31255 19.9658L12.0527 22.4141C12.2543 22.5461 12.482 22.6117 12.7093 22.6117C12.9557 22.6117 13.2016 22.5346 13.4126 22.381C13.819 22.086 13.9964 21.5822 13.8646 21.0975L12.6919 16.784L16.1759 13.9837C16.5672 13.6695 16.72 13.1578 16.5648 12.6792C16.4094 12.2017 15.985 11.8775 15.4839 11.8532L11.0191 11.6355L9.43253 7.45676C9.25439 6.98732 8.81469 6.68389 8.31255 6.68389C7.81031 6.68389 7.37061 6.98722 7.19247 7.45666L5.60591 11.6356L1.14141 11.8532C0.6397 11.8775 0.215293 12.2019 0.0602541 12.6792C-0.0953123 13.157 0.057301 13.6691 0.448907 13.9835ZM6.00795 13.3055C6.48393 13.2823 6.90075 12.9795 7.06971 12.5341L8.31245 9.26091L9.55508 12.534C9.72415 12.9795 10.141 13.2823 10.6167 13.3054L14.1138 13.476L11.385 15.6692C11.0134 15.9677 10.8541 16.4577 10.9792 16.9173L11.8978 20.2959L8.96825 18.3782C8.76892 18.2478 8.54058 18.1826 8.31224 18.1826C8.08379 18.1826 7.85535 18.2479 7.65612 18.3783L4.72683 20.2959L5.64535 16.9175C5.77033 16.458 5.61129 15.9681 5.23983 15.6694L2.51082 13.476L6.00795 13.3055ZM53.8679 44.8173C53.2742 42.9001 52.0583 41.1786 50.4438 39.9697C49.671 39.391 48.8293 38.9402 47.9415 38.6211C49.1724 37.655 49.9655 36.1552 49.9655 34.4727C49.9655 31.5653 47.6002 29.2001 44.6929 29.2001C41.7856 29.2001 39.4202 31.5653 39.4202 34.4727C39.4202 36.1532 40.2115 37.6515 41.44 38.6177C39.7935 39.2054 38.3349 40.2379 37.2178 41.6293C36.6958 40.8989 36.0936 40.2205 35.4165 39.6083C34.0524 38.3746 32.4515 37.4686 30.7274 36.9332C32.5557 35.7211 33.7644 33.6458 33.7644 31.2927C33.7644 27.5633 30.7301 24.5292 27.0008 24.5292C23.2714 24.5292 20.2372 27.5633 20.2372 31.2927C20.2372 33.6458 21.4457 35.7211 23.274 36.9332C21.5498 37.4685 19.9489 38.3746 18.5848 39.6083C17.9078 40.2205 17.3056 40.8989 16.7836 41.6292C15.6667 40.2377 14.208 39.2052 12.5615 38.6174C13.7899 37.6512 14.5812 36.1529 14.5812 34.4724C14.5812 31.565 12.2158 29.1998 9.3086 29.1998C6.40125 29.1998 4.0359 31.565 4.0359 34.4724C4.0359 36.1548 4.82902 37.6547 6.05984 38.6208C5.17201 38.9399 4.33037 39.3907 3.55739 39.9694C1.94298 41.1782 0.727028 42.8997 0.133344 44.8169C-0.14098 45.7024 0.0110002 46.6011 0.561231 47.3476C1.11136 48.0939 1.92494 48.5048 2.85201 48.5048H14.5161V50.0275C14.5161 52.2181 16.2982 54.0002 18.4888 54.0002H35.5125C37.703 54.0002 39.4852 52.2181 39.4853 50.0275V48.5052H51.1493C52.0765 48.5052 52.8901 48.0942 53.4401 47.348C53.9902 46.6015 54.1422 45.7027 53.8679 44.8173ZM44.6929 30.8876C46.6697 30.8876 48.278 32.4959 48.278 34.4727C48.278 36.4496 46.6697 38.0579 44.6929 38.0579C42.716 38.0579 41.1077 36.4496 41.1077 34.4727C41.1077 32.4959 42.716 30.8876 44.6929 30.8876ZM21.9247 31.2927C21.9247 28.4938 24.2018 26.2167 27.0008 26.2167C29.7997 26.2167 32.0769 28.4938 32.0769 31.2927C32.0769 34.0908 29.8012 36.3672 27.0035 36.3687C27.0026 36.3687 27.0015 36.3687 27.0007 36.3687C26.9998 36.3687 26.9989 36.3687 26.9979 36.3687C24.2003 36.3671 21.9247 34.0907 21.9247 31.2927ZM9.3086 30.8872C11.2854 30.8872 12.8937 32.4955 12.8937 34.4723C12.8937 36.4492 11.2854 38.0575 9.3086 38.0575C7.33169 38.0575 5.7234 36.4492 5.7234 34.4723C5.7234 32.4955 7.33169 30.8872 9.3086 30.8872ZM14.6257 46.8172H2.85212C2.46378 46.8172 2.15012 46.6588 1.91967 46.3462C1.68911 46.0335 1.63058 45.687 1.74543 45.316C2.77734 41.9838 5.81684 39.745 9.3086 39.745C11.9499 39.745 14.3559 41.0211 15.8357 43.1815C15.2507 44.318 14.841 45.543 14.6257 46.8172ZM37.7978 50.0274C37.7977 51.2875 36.7726 52.3126 35.5125 52.3126H18.4888C17.2288 52.3126 16.2036 51.2875 16.2036 50.0274V47.7068C16.8145 42.2026 21.4471 38.0576 26.9979 38.0562C26.9989 38.0562 26.9998 38.0563 27.0008 38.0563C27.0017 38.0563 27.0027 38.0562 27.0035 38.0562C32.5542 38.0577 37.1867 42.2026 37.7978 47.7068V50.0274ZM52.0818 46.3467C51.8513 46.6592 51.5378 46.8176 51.1493 46.8176H39.3758C39.1605 45.5433 38.7507 44.3183 38.1658 43.1817C39.6457 41.0215 42.0517 39.7454 44.6928 39.7454C48.1846 39.7454 51.2241 41.9843 52.256 45.3166C52.3709 45.6873 52.3122 46.0339 52.0818 46.3467Z" fill="url(#paint0_linear_1543_46170)"/>
</g>
<defs>
<linearGradient id="paint0_linear_1543_46170" x1="0" y1="27.0002" x2="54.0012" y2="27.0002" gradientUnits="userSpaceOnUse">
<stop stop-color="#F86CA7"/>
<stop offset="1" stop-color="#FF7F18"/>
</linearGradient>
<clipPath id="clip0_1543_46170">
<rect width="54" height="54" fill="white" transform="translate(0.000976562 0.00012207)"/>
</clipPath>
</defs>
</svg>
