<svg width="24" height="24" viewBox="0 0 24 24" xmlns="http://www.w3.org/2000/svg">
<g clip-path="url(#clip0_996_7602)">
<path d="M8.10679 0.135746C7.9819 0.211763 7.82443 0.3638 7.75385 0.477827C7.63982 0.662443 7.62896 0.749321 7.61267 1.58552L7.59095 2.49774H4.50136C1.57466 2.49774 1.39548 2.50317 1.20543 2.6009C0.841629 2.78552 0.651584 3.10588 0.651584 3.52398C0.651584 3.84434 0.711312 4.02353 0.868778 4.18099C0.988235 4.30045 0.988235 4.30045 0.879638 4.41448C0.608145 4.71312 0.624434 4.219 0.608145 13.4715L0.597285 22.1321L0.380091 22.2299C0.0705882 22.3656 0 22.5394 0 23.1367C0 23.6253 0 23.6308 0.184615 23.8154L0.369231 24H12H23.6308L23.8154 23.8154C24 23.6308 24 23.6253 24 23.1367C24 22.5394 23.9294 22.3656 23.6199 22.2299L23.4027 22.1321L23.3919 13.4715C23.3756 4.08326 23.3973 4.77828 23.1204 4.39276C23.0715 4.32217 23.0824 4.2733 23.1692 4.14842C23.5385 3.62715 23.3647 2.89412 22.8054 2.60633C22.5991 2.50317 22.4796 2.49774 19.4986 2.49774H16.4036L16.3873 1.58552C16.371 0.689592 16.3656 0.662443 16.219 0.445248C16.1376 0.320362 15.9747 0.168325 15.8552 0.108597C15.6489 0.00542831 15.5457 0 11.9891 0H8.33484L8.10679 0.135746ZM15.676 0.673302L15.8281 0.803619L15.8552 2.37285C15.8824 4.02896 15.8878 4.03982 16.1647 4.29502C16.4851 4.59909 16.3656 4.58823 19.591 4.61539L22.5991 4.64253L22.7023 4.77285C22.8054 4.89774 22.8054 5.11493 22.8054 13.5258V22.1538H19.2489H15.6923V20.0199V17.8914L15.8661 17.81C16.1104 17.6959 16.2299 17.5005 16.2733 17.1692C16.3113 16.8217 16.1864 16.4525 15.9747 16.3059C15.8335 16.2136 15.6217 16.2081 12.0217 16.2081C7.90045 16.2081 8.0362 16.1973 7.83529 16.5014C7.71584 16.6805 7.69955 17.3484 7.81357 17.5548C7.85701 17.6362 7.9819 17.7448 8.09593 17.7937L8.30226 17.8914L8.30769 20.0199V22.1538H4.75113H1.19457V13.5258C1.19457 5.11493 1.19457 4.89774 1.29774 4.77285L1.40091 4.64253L4.40905 4.61539C7.07511 4.59366 7.42805 4.57738 7.57466 4.49593C7.79186 4.37647 8.01448 4.13756 8.08507 3.94751C8.12308 3.8552 8.1448 3.25792 8.1448 2.41086C8.1448 0.955656 8.17738 0.73303 8.4 0.602715C8.46516 0.564705 9.61086 0.548416 12.0109 0.542986H15.524L15.676 0.673302ZM15.095 20.0362V22.1538H14.7149H14.3348V20.476C14.3348 18.7982 14.3348 18.7928 14.2154 18.7113C14.1122 18.6353 13.8081 18.6244 12 18.6244C10.1919 18.6244 9.88778 18.6353 9.78462 18.7113C9.66516 18.7928 9.66516 18.7982 9.66516 20.476V22.1538H9.28507H8.90498V20.0362V17.9186H12H15.095V20.0362ZM11.7285 20.6878V22.1538H10.9683H10.2081V20.6878V19.2217H10.9683H11.7285V20.6878ZM13.7919 20.6878V22.1538H13.0317H12.2715V20.6878V19.2217H13.0317H13.7919V20.6878Z"/>
<path d="M11.4954 1.72687C11.4193 1.80832 11.4031 1.94406 11.4031 2.43275C11.4031 2.7694 11.3813 3.0409 11.3542 3.0409C11.327 3.0409 11.0936 2.91601 10.8329 2.7694C10.1542 2.37845 10.0402 2.40017 9.72523 2.99746C9.52976 3.36126 9.58406 3.47529 10.0619 3.75221C10.2736 3.8771 10.5234 4.01827 10.6049 4.07257L10.7623 4.16488L10.3062 4.42551C9.55148 4.8599 9.50261 4.93592 9.75238 5.37031C10.0673 5.90786 10.1705 5.92415 10.8492 5.53863C11.1098 5.3866 11.3433 5.26714 11.3651 5.26714C11.3868 5.26714 11.4031 5.54406 11.4031 5.88072C11.4031 6.65719 11.4411 6.70605 12.0003 6.70605C12.5596 6.70605 12.5976 6.65719 12.5976 5.88072C12.5976 5.52234 12.6193 5.26714 12.6519 5.26714C12.6791 5.26714 12.9071 5.3866 13.1623 5.53863C13.7433 5.88072 13.8954 5.89158 14.1126 5.59293C14.5307 5.01194 14.4927 4.88162 13.7922 4.47438L13.2492 4.15945L13.4012 4.06714C13.4827 4.01827 13.727 3.8771 13.9388 3.75221C14.4166 3.47529 14.4709 3.36126 14.2755 2.99746C13.9605 2.40017 13.8465 2.37845 13.1678 2.7694C12.9071 2.91601 12.6736 3.0409 12.6465 3.0409C12.6193 3.0409 12.5976 2.76397 12.5976 2.42732C12.5976 1.65628 12.5813 1.62913 11.9895 1.62913C11.6637 1.62913 11.566 1.65085 11.4954 1.72687Z"/>
<path d="M2.63864 5.82089C2.56262 5.92405 2.55176 6.20098 2.55176 7.76478C2.55176 9.32858 2.56262 9.6055 2.63864 9.70867C2.72008 9.82812 2.72551 9.82812 4.45221 9.82812C5.95085 9.82812 6.1952 9.81727 6.26578 9.74125C6.3418 9.67066 6.35266 9.41546 6.35266 7.77021C6.35266 6.01093 6.34723 5.87518 6.25492 5.79374C6.16805 5.71229 5.95628 5.70143 4.43592 5.70143C2.72551 5.70143 2.72008 5.70143 2.63864 5.82089ZM5.75538 6.86885V7.49328H4.45221H3.14904V6.86885V6.24441H4.45221H5.75538V6.86885ZM5.75538 8.6607V9.28514H4.45221H3.14904V8.6607V8.03627H4.45221H5.75538V8.6607Z"/>
<path d="M17.7398 5.79917C17.6583 5.89147 17.6475 6.10867 17.6475 7.78107C17.6475 9.41546 17.6583 9.67066 17.7343 9.74125C17.8049 9.81727 18.0493 9.82812 19.5425 9.82812C21.0846 9.82812 21.28 9.81727 21.3452 9.73582C21.4049 9.66523 21.4212 9.27971 21.4212 7.76478C21.4212 6.24984 21.4049 5.86432 21.3452 5.79374C21.28 5.71229 21.0846 5.70143 19.5479 5.70143C17.9515 5.70143 17.8212 5.70686 17.7398 5.79917ZM20.8511 6.86885V7.49328H19.5479H18.2447V6.86885V6.24441H19.5479H20.8511V6.86885ZM20.8511 8.6607V9.28514H19.5479H18.2447V8.6607V8.03627H19.5479H20.8511V8.6607Z"/>
<path d="M9.87161 7.90585C9.48066 8.11218 9.38292 8.83979 9.65985 9.42621C10.0128 10.1701 10.6698 10.5122 11.1693 10.2081C11.7015 9.88775 11.6526 8.88865 11.077 8.23164C10.7404 7.85155 10.2246 7.71037 9.87161 7.90585Z"/>
<path d="M13.2976 7.92758C12.8306 8.17192 12.4668 8.81808 12.4668 9.39364C12.4668 9.81174 12.5754 10.0561 12.8306 10.2081C13.3247 10.5122 13.9926 10.1647 14.3401 9.42622C14.617 8.84523 14.5139 8.14477 14.1229 7.91129C13.9166 7.79183 13.5419 7.79726 13.2976 7.92758Z"/>
<path d="M8.19943 10.2243C8.00395 10.3221 7.81934 10.6261 7.81934 10.8542C7.82477 11.7121 9.03563 12.5049 9.60576 12.0216C10.0184 11.6741 9.90983 11.0279 9.34513 10.523C8.97047 10.1863 8.51436 10.0669 8.19943 10.2243Z"/>
<path d="M15.014 10.2517C14.433 10.5286 14.0203 11.2399 14.1724 11.7015C14.319 12.1521 14.7968 12.2879 15.3398 12.0327C15.8285 11.8101 16.1434 11.3431 16.1488 10.849C16.1543 10.5666 16.138 10.5177 15.9805 10.3657C15.7579 10.1431 15.3506 10.0942 15.014 10.2517Z"/>
<path d="M11.6529 10.9684C11.4031 11.0444 11.1968 11.2834 10.9307 11.81C10.7189 12.2281 10.5886 12.3856 10.0891 12.8797C9.7687 13.2001 9.47549 13.5259 9.44834 13.6019C9.30716 13.9766 9.48635 14.5033 9.79585 14.6336C10.0511 14.7422 10.29 14.7367 10.9687 14.601C11.2836 14.5413 11.7452 14.4924 12.0004 14.4924C12.2556 14.4924 12.7171 14.5413 13.032 14.601C13.7108 14.7367 13.9497 14.7422 14.2049 14.6336C14.4221 14.5467 14.6013 14.21 14.6067 13.9005C14.6067 13.6291 14.4601 13.4173 13.852 12.82C13.4121 12.3856 13.2764 12.2173 13.0701 11.81C12.9343 11.5386 12.7497 11.2562 12.6682 11.1693C12.4185 10.9358 12.0275 10.8598 11.6529 10.9684Z"/>
<path d="M2.68227 11.0444C2.58453 11.1205 2.5791 11.2073 2.5791 13.0589C2.5791 14.9105 2.58453 14.9974 2.68227 15.0734C2.76915 15.1331 3.1058 15.1494 4.46326 15.1494C6.06507 15.1494 6.14109 15.144 6.24426 15.0408C6.34743 14.9376 6.35286 14.8616 6.35286 13.0589C6.35286 11.2562 6.34743 11.1802 6.24426 11.077C6.14109 10.9738 6.06507 10.9684 4.46326 10.9684C3.1058 10.9684 2.76915 10.9847 2.68227 11.0444ZM5.75557 12.163V12.7603H4.4524H3.14924V12.163V11.5657H4.4524H5.75557V12.163ZM5.75557 13.9548V14.5521H4.4524H3.14924V13.9548V13.3576H4.4524H5.75557V13.9548Z"/>
<path d="M17.7561 11.077C17.6529 11.1802 17.6475 11.2562 17.6475 13.0589C17.6475 14.8616 17.6529 14.9376 17.7561 15.0408C17.8592 15.144 17.9352 15.1494 19.5371 15.1494C20.8945 15.1494 21.2312 15.1331 21.318 15.0734C21.4158 14.9974 21.4212 14.9105 21.4212 13.0589C21.4212 11.2073 21.4158 11.1205 21.318 11.0444C21.2312 10.9847 20.8945 10.9684 19.5371 10.9684C17.9352 10.9684 17.8592 10.9738 17.7561 11.077ZM20.8511 12.163V12.7603H19.5479H18.2447V12.163V11.5657H19.5479H20.8511V12.163ZM20.8511 13.9548V14.5521H19.5479H18.2447V13.9548V13.3576H19.5479H20.8511V13.9548Z"/>
<path d="M2.6823 16.3657C2.58457 16.4417 2.57914 16.5395 2.56285 18.5974C2.55199 20.4761 2.55742 20.7748 2.63344 20.8834L2.71488 21.0137H4.44701C6.04882 21.0137 6.17914 21.0082 6.26058 20.9159C6.34203 20.8236 6.35289 20.5901 6.35289 18.6625C6.35289 16.5775 6.34746 16.5015 6.2443 16.3983C6.14113 16.2951 6.06511 16.2897 4.4633 16.2897C3.10583 16.2897 2.76918 16.306 2.6823 16.3657ZM5.75561 17.6472V18.4073H4.45244H3.14927V17.6472V16.887H4.45244H5.75561V17.6472ZM5.75561 19.7105V20.4707H4.45244H3.14927V19.7105V18.9503H4.45244H5.75561V19.7105Z"/>
<path d="M17.7561 16.3983C17.6529 16.5014 17.6475 16.5774 17.6475 18.6734C17.6475 20.5793 17.6583 20.8507 17.7343 20.9268C17.8104 21.0028 18.033 21.0136 19.5642 21.0028L21.3072 20.9865L21.3778 20.8507C21.4701 20.6661 21.4809 16.686 21.3886 16.4851C21.3561 16.4145 21.2746 16.3385 21.2095 16.3222C21.1497 16.3059 20.3678 16.2897 19.4828 16.2897C17.9352 16.2897 17.8592 16.2951 17.7561 16.3983ZM20.8511 17.6471V18.4073H19.5479H18.2447V17.6471V16.8869H19.5479H20.8511V17.6471ZM20.8511 19.7105V20.4707H19.5479H18.2447V19.7105V18.9503H19.5479H20.8511V19.7105Z"/>
</g>
</svg>
