<svg width="108" height="66" viewBox="0 0 108 66" fill="none" xmlns="http://www.w3.org/2000/svg">
<path d="M72.7743 1.8645C72.7743 1.8645 82.5509 5.77508 81.0942 9.88664C80.063 12.797 77.9239 13.7208 76.9049 15.6118C75.2785 18.6298 69.9911 24.9967 70.3498 15.8151C70.548 10.7317 72.2017 7.17379 68.6414 3.43001C68.6414 3.43001 71.9652 5.66909 71.6652 11.7064C71.4839 15.3523 70.9404 18.9484 72.833 18.9125C73.8572 18.8934 75.3447 15.1345 76.6346 13.8505C79.5422 10.9552 80.1827 9.28951 80.0735 8.38136C79.9909 7.69852 78.4168 5.90771 77.7809 5.3407C76.5166 4.21247 74.5972 2.86358 72.7743 1.8645Z" fill="#DAC9C1"/>
<path d="M53.4618 16.6677C53.4618 16.6677 53.6152 15.1056 55.5846 15.0506C57.3668 15.0008 58.1742 15.5649 58.4451 17.2132C58.5172 17.6523 57.6319 18.3832 56.7338 17.8289C56.7338 17.8289 56.7425 17.0661 56.224 17.0887C55.709 17.1113 55.6055 17.4507 55.7712 17.9198C56.0246 18.6374 57.4662 18.261 57.4662 18.261C57.4662 18.261 57.2546 19.5241 55.1045 19.2033C54.6586 19.1367 53.8227 18.81 53.7646 18.0258C53.7646 18.0258 54.697 17.2937 54.1151 17.2248C53.6565 17.171 53.5821 17.9505 53.4618 16.6677Z" fill="#DAC9C1"/>
<path d="M54.4409 5.92748C54.882 2.15069 57.8123 1.5999 57.8123 1.5999C60.7826 -0.173532 61.9998 0.783842 63.4554 0.289807C66.267 -0.663513 70.6621 1.04042 70.6621 1.04042C62.9398 -0.45559 63.6861 1.39139 62.5462 1.15915C60.4211 0.726504 58.3988 2.25378 58.3988 2.25378C55.9103 2.16112 55.0506 5.03961 54.9774 5.94486C55.0128 6.63697 55.1529 7.13738 55.1529 7.13738C54.1973 8.46716 54.6228 10.2284 54.6228 10.2284C55.1099 14.3122 54.0194 15.1184 54.0194 15.1184C54.8222 14.0458 54.2961 10.5782 54.2961 10.5782C53.8259 8.02699 54.7292 6.83042 54.6832 6.61554C48.7152 9.53516 53.4812 14.9406 53.4812 14.9406C47.7044 9.22703 54.4409 5.92748 54.4409 5.92748Z" fill="#DAC9C1"/>
<path d="M63.2241 7.40308C63.2241 7.40308 62.8352 8.03032 63.0863 8.5232C63.0863 8.5232 65.4574 7.84325 66.6973 9.90279C66.6973 9.90279 66.2689 9.59235 65.8544 9.61089C65.8544 9.61089 64.028 10.7617 62.7957 9.63521C62.7957 9.63521 62.737 9.88426 62.866 10.2752C62.866 10.2752 61.943 8.88866 63.2241 7.40308Z" fill="#DAC9C1"/>
<path d="M56.7512 8.18454C56.7512 8.18454 55.205 8.16891 54.8184 9.41239C54.8184 9.41239 54.9725 9.78017 55.8246 9.7431C56.6768 9.70603 57.1988 8.95543 56.8686 7.68066L56.7512 8.18454Z" fill="#DAC9C1"/>
<path d="M67.9922 18.7261C67.9922 18.7261 66.4855 30.0866 55.4068 21.198C55.4068 21.198 54.1408 21.8166 54.6221 23.3931C54.6221 23.3931 52.1848 22.489 52.948 18.1348C52.948 18.1348 53.0375 21.4998 54.0205 21.7048C54.0205 21.7048 54.2356 20.7793 55.4202 20.4225C55.4202 20.4225 63.8604 28.0207 67.9922 18.7261Z" fill="#DAC9C1"/>
<path d="M58.5527 23.612C58.5527 23.612 56.4677 24.9684 54.593 22.178C54.5925 22.1774 56.3782 26.2171 58.5527 23.612Z" fill="#DAC9C1"/>
<path d="M60.7067 20.251C61.0188 20.2377 61.0427 20.73 60.7311 20.7433C60.4184 20.7572 60.3951 20.2643 60.7067 20.251Z" fill="#DAC9C1"/>
<path d="M60.6129 18.8814C60.9251 18.8675 60.9489 19.3604 60.6373 19.3737C60.3252 19.387 60.3014 18.8947 60.6129 18.8814Z" fill="#DAC9C1"/>
<path d="M59.7557 19.9047C59.9789 19.8949 59.9952 20.2465 59.7731 20.2563C59.5499 20.2661 59.5331 19.9146 59.7557 19.9047Z" fill="#DAC9C1"/>
<path d="M60.1363 21.509C60.3596 21.4991 60.3764 21.8507 60.1538 21.8606C59.9306 21.8704 59.9137 21.5188 60.1363 21.509Z" fill="#DAC9C1"/>
<path d="M61.8534 21.2229C62.0766 21.213 62.0929 21.5646 61.8708 21.5744C61.6476 21.5843 61.6307 21.2321 61.8534 21.2229Z" fill="#DAC9C1"/>
<path d="M62.242 19.7262C62.4205 19.7187 62.4338 19.9996 62.256 20.0077C62.0775 20.0152 62.0641 19.7338 62.242 19.7262Z" fill="#DAC9C1"/>
<path d="M59.0682 19.1246C59.2019 19.1188 59.2123 19.3297 59.0786 19.3354C58.9444 19.3412 58.9345 19.1304 59.0682 19.1246Z" fill="#DAC9C1"/>
<path d="M58.8143 21.3549C58.948 21.3491 58.9584 21.5599 58.8247 21.5657C58.691 21.572 58.6812 21.3606 58.8143 21.3549Z" fill="#DAC9C1"/>
<path d="M75.5254 20.0994C75.1778 20.8019 74.8744 21.5241 74.5814 22.2522C74.2931 22.9819 74.0286 23.7215 73.799 24.4773C73.6851 24.8555 73.5793 25.2378 73.4921 25.6293C73.4055 26.0214 73.3311 26.417 73.3159 26.8502C73.3066 27.2556 73.32 27.646 73.327 28.0387L73.3595 29.2103C73.4026 30.7695 73.4427 32.3246 73.3799 33.8721C73.3467 34.6447 73.2892 35.4168 73.1549 36.1732C73.0892 36.5514 72.9968 36.9244 72.8614 37.2806C72.7934 37.4584 72.7114 37.631 72.6079 37.7908C72.5068 37.9524 72.3801 38.0983 72.2243 38.2153C72.4004 38.1331 72.5562 38.0034 72.6905 37.8563C72.8236 37.7074 72.9358 37.5394 73.034 37.3651C73.2305 37.0147 73.3671 36.6359 73.4845 36.2548C73.7106 35.4886 73.8344 34.7003 73.9216 33.9144C74.0879 32.339 74.0949 30.7591 74.0501 29.1901L74.0077 28.0155C73.9908 27.6263 73.974 27.2336 73.9693 26.8566C73.9676 26.5068 74.0239 26.1262 74.0867 25.7521C74.153 25.3762 74.2332 24.9986 74.3204 24.6221C74.4948 23.868 74.6959 23.1151 74.8999 22.3622C75.1034 21.6081 75.3208 20.8575 75.5254 20.0994Z" fill="#DAC9C1"/>
<path d="M77.0359 18.6594C77.1643 18.9403 77.2928 19.2206 77.416 19.5039C77.5416 19.7853 77.6654 20.0668 77.7857 20.3506C78.0264 20.9176 78.2635 21.4841 78.4896 22.0551C78.943 23.1955 79.3656 24.3458 79.7318 25.5093C80.0969 26.6723 80.4114 27.8486 80.616 29.0347C80.7165 29.6272 80.7938 30.2215 80.8218 30.8134C80.8287 30.9611 80.8345 31.1088 80.8363 31.2559C80.8374 31.3294 80.8374 31.403 80.8369 31.4765L80.834 31.7065C80.8328 32.0412 80.8502 32.3621 80.8822 32.6864C80.9496 33.3328 81.0793 33.9652 81.2455 34.5809C81.4158 35.1954 81.6204 35.7943 81.8489 36.3787C82.3063 37.548 82.8423 38.6647 83.3625 39.7755C83.8799 40.8864 84.3879 41.9943 84.7373 43.1527C84.9111 43.7313 85.039 44.3238 85.0907 44.9273C85.1163 45.229 85.1198 45.5337 85.0982 45.8383C85.0802 46.1435 85.0326 46.4476 84.9634 46.7499C85.086 46.4656 85.1756 46.1655 85.243 45.8592C85.3069 45.5522 85.3441 45.2377 85.3587 44.9221C85.3877 44.2896 85.318 43.6548 85.1982 43.0351C85.0767 42.4154 84.9041 41.809 84.7065 41.2153C84.5094 40.6211 84.2874 40.0396 84.0589 39.4639C83.6026 38.3125 83.1143 37.1866 82.7063 36.0462C82.5028 35.4763 82.3151 34.9041 82.1674 34.3261C82.0163 33.7492 81.9018 33.1671 81.8436 32.5845C81.8128 32.2949 81.796 31.9978 81.7948 31.7146L81.796 31.4812C81.796 31.4001 81.7954 31.319 81.7937 31.2385C81.7902 31.0769 81.7844 30.9159 81.7727 30.7555C81.728 30.1137 81.6396 29.4813 81.5141 28.8604C81.3879 28.2395 81.2339 27.6279 81.0514 27.0273C80.8717 26.4256 80.6665 25.8342 80.4451 25.251C79.9998 24.0851 79.4854 22.9528 78.9169 21.8518C78.6315 21.3022 78.3356 20.7589 78.0211 20.2267C77.8642 19.9602 77.7049 19.6956 77.5422 19.4338C77.3777 19.1732 77.2126 18.9119 77.0359 18.6594Z" fill="#DAC9C1"/>
<path d="M70.6602 38.8766C70.5974 38.2933 70.4997 37.7147 70.3899 37.1379C70.2794 36.5616 70.148 35.9888 70.0056 35.4189C69.8586 34.8501 69.6964 34.2849 69.5191 33.7237C69.3412 33.163 69.1413 32.6087 68.9268 32.0603C68.8192 31.7857 68.707 31.5135 68.5908 31.2425C68.4716 30.9726 68.3484 30.7044 68.2194 30.4392C67.9618 29.9081 67.6834 29.3856 67.38 28.8771C67.0754 28.3692 66.7435 27.8769 66.3831 27.4049L66.2453 27.2288C66.1977 27.1697 66.1477 27.1095 66.0977 27.0516C65.9971 26.9357 65.8925 26.824 65.7832 26.7168C65.5652 26.5019 65.331 26.3039 65.0804 26.1266C64.8293 25.95 64.5631 25.7936 64.2777 25.6668C63.9923 25.5411 63.6888 25.4415 63.3587 25.4067C63.1936 25.3905 63.0215 25.3911 62.8448 25.4229C62.6693 25.4554 62.4867 25.522 62.3269 25.6372C62.1665 25.7507 62.0374 25.9123 61.9555 26.0826C61.8723 26.254 61.8299 26.4313 61.8113 26.6027C61.8067 26.6456 61.8032 26.6878 61.8008 26.7301L61.7985 26.7933L61.7979 26.8604C61.7979 26.8888 61.8008 26.9543 61.8055 26.9954C61.8101 27.0411 61.8171 27.0857 61.8247 27.1298C61.8584 27.3053 61.9171 27.4651 61.9857 27.6134C62.1246 27.9093 62.3007 28.163 62.4821 28.4034C62.6646 28.6431 62.8564 28.8684 63.05 29.0891C63.2453 29.308 63.4424 29.5217 63.6377 29.736C64.0295 30.1629 64.412 30.5921 64.7729 31.038C65.1345 31.4823 65.4705 31.9473 65.7559 32.4431C66.0454 32.936 66.279 33.4636 66.4366 34.0179C66.5941 34.5721 66.6662 35.1542 66.6516 35.7403C66.6941 35.4502 66.7092 35.1554 66.7034 34.86C66.6952 34.5646 66.6609 34.2692 66.6063 33.9768C66.4947 33.3924 66.2878 32.8277 66.0273 32.2937C65.7623 31.7608 65.4426 31.2598 65.0984 30.7814C64.7532 30.3031 64.3771 29.8519 64.0033 29.4059C63.8161 29.1829 63.6296 28.9617 63.447 28.7393C63.2633 28.5186 63.0837 28.2962 62.9198 28.0692C62.7565 27.8427 62.6071 27.6087 62.5042 27.373C62.453 27.2554 62.4153 27.1379 62.3967 27.0249C62.3926 26.9971 62.3885 26.9693 62.3868 26.9415C62.3844 26.9097 62.3844 26.9021 62.3844 26.857L62.3862 26.8147L62.3891 26.7684C62.3914 26.7377 62.3949 26.7075 62.3984 26.6774C62.4147 26.5587 62.4443 26.4487 62.4902 26.3577C62.5362 26.2668 62.5966 26.1956 62.6728 26.1428C62.8233 26.0351 63.0535 26.0021 63.2947 26.0305C63.5371 26.0577 63.7882 26.1371 64.0289 26.2448C64.2707 26.3531 64.5038 26.4909 64.7253 26.6479C64.9467 26.8043 65.1572 26.9803 65.3531 27.1715C65.4507 27.267 65.5449 27.3666 65.6356 27.4697C65.6809 27.5219 65.7239 27.5728 65.7675 27.6267L65.8989 27.7935C66.2494 28.2412 66.5737 28.7115 66.8778 29.1968C67.1835 29.681 67.4672 30.1814 67.7311 30.6928C67.8636 30.9483 67.9903 31.2071 68.1136 31.4684C68.2385 31.7284 68.3594 31.9908 68.4763 32.2554C68.7105 32.7842 68.925 33.3229 69.1308 33.865C69.3377 34.4071 69.5296 34.9556 69.7092 35.5092C69.8929 36.0612 70.0603 36.6195 70.2195 37.1807C70.2998 37.4611 70.3759 37.7431 70.4486 38.0258C70.5247 38.3072 70.5945 38.591 70.6602 38.8766Z" fill="#DAC9C1"/>
<path d="M53.3691 24.3398C53.3691 24.3398 23.3279 17.6857 22.5147 46.1156C22.5147 46.1156 20.5691 49.2298 23.3918 50.5162C23.3918 50.5162 20.8795 48.3408 23.9324 46.089C23.933 46.089 20.7174 21.1109 53.3691 24.3398Z" fill="#DAC9C1"/>
<path d="M22.4805 40.3396C22.4805 40.3396 19.2602 44.439 14.2292 47.4258C6.73411 51.8756 0.467312 50.1079 0.00984383 52.0783C-0.296492 53.3976 7.11079 56.7209 20.9808 49.1419C20.9808 49.1419 6.29583 55.4531 2.06235 51.8854C2.06293 51.8848 14.1164 52.1177 22.4805 40.3396Z" fill="#DAC9C1"/>
<path d="M39.7401 27.8997C39.7401 27.8997 51.9423 31.7014 29.1311 52.1398C29.1311 52.1398 38.7164 53.6544 36.1896 56.9354C36.1896 56.9354 38.3345 53.4598 26.5299 52.7057C26.5299 52.7051 49.773 34.2903 39.7401 27.8997Z" fill="#DAC9C1"/>
<path d="M28.3613 43.6062C27.9137 44.5045 27.4696 45.4005 27.004 46.2837C26.5413 47.1681 26.0687 48.0456 25.5694 48.9027C25.0683 49.7582 24.5475 50.602 23.965 51.3857C23.6755 51.7778 23.3675 52.1531 23.0361 52.4901C22.8705 52.6581 22.6978 52.8156 22.517 52.9512C22.3368 53.0867 22.1485 53.2014 21.9613 53.2738L21.8997 53.2975L21.855 53.3381C21.8346 53.3566 21.8271 53.3641 21.8149 53.3763L21.7829 53.4093C21.7625 53.4313 21.7428 53.4527 21.7242 53.4753C21.6864 53.5199 21.6509 53.5657 21.6178 53.6137C21.5515 53.7099 21.4922 53.8147 21.4457 53.93C21.3992 54.0446 21.3655 54.1703 21.3533 54.3024C21.3405 54.4344 21.3498 54.5711 21.3818 54.7003C21.4457 54.9609 21.5899 55.1735 21.7451 55.3379C21.9021 55.5036 22.0747 55.6304 22.2497 55.7399C22.6019 55.9548 22.9675 56.1001 23.3337 56.2241C23.7005 56.3457 24.0708 56.4384 24.4411 56.5189C25.1822 56.6758 25.9268 56.7743 26.6721 56.8444C27.4167 56.9133 28.1625 56.9515 28.9071 56.966L28.8931 56.9643C29.0669 56.9874 29.2448 57.0187 29.4198 57.0535C29.5953 57.0876 29.7697 57.127 29.9412 57.1768C30.1121 57.2266 30.2812 57.2851 30.4376 57.3674C30.5143 57.4096 30.5899 57.4583 30.6445 57.5255C30.6719 57.5591 30.6928 57.5979 30.7015 57.6407C30.7102 57.6836 30.7032 57.7305 30.6858 57.7728C30.7096 57.7334 30.7247 57.6871 30.7224 57.6384C30.7213 57.5898 30.7032 57.5423 30.6782 57.5006C30.6277 57.4178 30.5544 57.354 30.4794 57.2979C30.3277 57.1861 30.1592 57.1056 29.99 57.0326C29.8197 56.9602 29.6465 56.8971 29.4715 56.8397C29.2954 56.7841 29.1204 56.7488 28.9385 56.6909L28.9245 56.6903C28.1892 56.5965 27.4556 56.4969 26.7279 56.377C26.364 56.3167 26.0018 56.253 25.642 56.1795C25.2822 56.1082 24.9247 56.0272 24.5725 55.9351C24.2202 55.8441 23.8726 55.7393 23.5378 55.6159C23.2035 55.4932 22.8786 55.3484 22.5984 55.1659C22.4589 55.0762 22.3316 54.9754 22.2322 54.8665C22.1334 54.7582 22.0671 54.6435 22.0433 54.5352C22.0195 54.4269 22.0294 54.3169 22.0788 54.1958C22.1032 54.1362 22.1369 54.0759 22.1776 54.018C22.1979 53.989 22.22 53.9607 22.2427 53.934C22.2543 53.9207 22.2659 53.9074 22.2776 53.8952L22.2944 53.8778C22.2985 53.8738 22.3084 53.8645 22.3049 53.8674L22.1991 53.9317C22.4746 53.828 22.7112 53.678 22.9268 53.5141C23.1419 53.3496 23.3366 53.1695 23.5192 52.9824C23.8836 52.6071 24.1987 52.2006 24.4957 51.7859C25.0828 50.9507 25.5868 50.0733 26.0489 49.1767C26.5104 48.2801 26.9296 47.3645 27.3155 46.4355C27.6974 45.5047 28.0601 44.5665 28.3613 43.6062Z" fill="#DAC9C1"/>
<path d="M30.2006 54.447C30.2006 54.447 35.4624 55.31 31.0661 57.7558C31.0667 57.7564 34.0371 55.9714 30.2006 54.447Z" fill="#DAC9C1"/>
<path d="M32.4129 54.4789C32.4129 54.4789 37.741 54.3382 33.8638 57.5682C33.8644 57.5682 36.4598 55.2556 32.4129 54.4789Z" fill="#DAC9C1"/>
<path d="M85.1049 48.2529C85.313 48.4493 85.5292 48.6358 85.7449 48.824C85.9629 49.0093 86.1832 49.1912 86.4046 49.3713C86.8482 49.7321 87.3039 50.0779 87.7678 50.4138C88.6966 51.0828 89.6616 51.706 90.6852 52.2452C91.1979 52.5128 91.7251 52.7606 92.2791 52.9628L92.4878 53.0369L92.6901 53.1052C92.8191 53.1504 92.9464 53.1944 93.076 53.2425C93.3335 53.3375 93.5881 53.4406 93.8392 53.5501C94.3421 53.7701 94.8361 54.0134 95.3157 54.285C95.7964 54.5538 96.2661 54.8451 96.7218 55.1596C97.181 55.4706 97.6228 55.8025 98.0675 56.1517C98.1808 56.2386 98.2919 56.3255 98.4192 56.4187L98.4436 56.4361L98.4697 56.454C98.4849 56.4639 98.5029 56.4743 98.5104 56.4784C98.5505 56.5004 98.5813 56.5143 98.6092 56.5258C98.6645 56.5484 98.7092 56.5623 98.7528 56.5757C98.8383 56.6006 98.9144 56.6191 98.99 56.6353C99.2882 56.6996 99.5672 56.7459 99.8497 56.7894L101.522 57.0448C101.799 57.0882 102.075 57.134 102.351 57.182C102.626 57.229 102.901 57.2788 103.175 57.3326C103.722 57.4398 104.266 57.5602 104.8 57.7068C105.333 57.855 105.86 58.0259 106.353 58.2582C106.6 58.3734 106.837 58.5055 107.055 58.6624C107.273 58.8188 107.467 59.0036 107.612 59.2236C107.757 59.4431 107.838 59.7061 107.834 59.9812C107.835 60.2569 107.755 60.536 107.642 60.8001C107.803 60.5633 107.93 60.2928 107.98 59.9939C108.028 59.6957 107.98 59.3725 107.847 59.0916C107.717 58.8072 107.514 58.5686 107.294 58.363C107.073 58.1574 106.828 57.9854 106.576 57.8307C106.071 57.5249 105.535 57.2909 104.992 57.09C104.449 56.8896 103.898 56.7233 103.343 56.5774C102.235 56.2832 101.11 56.0752 100.004 55.8691C99.7305 55.8152 99.4527 55.766 99.1992 55.7046C99.137 55.6895 99.076 55.6733 99.026 55.6571C99.0016 55.6496 98.9789 55.6409 98.9691 55.6362C98.9644 55.6345 98.9627 55.6328 98.972 55.6374C98.9714 55.6374 98.9818 55.6432 98.99 55.6484C98.9964 55.653 98.99 55.6484 98.9894 55.6484C98.9789 55.6409 98.9975 55.6542 98.9941 55.6513L98.9755 55.6374C98.8749 55.5609 98.7633 55.4706 98.6528 55.382C98.2064 55.0252 97.7414 54.6702 97.2613 54.3418C96.7794 54.0151 96.2824 53.7082 95.7697 53.4307C95.2558 53.1556 94.7286 52.9031 94.1863 52.6877C93.9148 52.5805 93.641 52.4797 93.3643 52.3888C93.2272 52.3431 93.0859 52.299 92.9452 52.2579L92.7429 52.2L92.5488 52.1415C92.032 51.9776 91.5182 51.7737 91.0107 51.5478C89.9946 51.0961 89.0018 50.5638 88.0206 50.0067C87.5294 49.7281 87.0429 49.4391 86.5564 49.1478C86.3128 49.0024 86.071 48.8535 85.8298 48.7035C85.5862 48.5558 85.3467 48.4035 85.1049 48.2529Z" fill="#DAC9C1"/>
<path d="M75.9991 50.6218C76.1857 50.8882 76.3799 51.1483 76.5711 51.4112L77.1559 52.1902C77.5471 52.7086 77.947 53.2194 78.351 53.7279C79.1613 54.7426 79.9885 55.7417 80.8674 56.7089C81.0888 56.9499 81.3126 57.1891 81.5486 57.4242C81.6666 57.5424 81.7887 57.6576 81.9195 57.7723L82.0212 57.8586L82.0538 57.8847L82.0776 57.9032C82.0997 57.9194 82.1311 57.942 82.1526 57.9553C82.2439 58.015 82.3351 58.063 82.4246 58.103C82.6037 58.1829 82.7781 58.2368 82.9495 58.2808C83.1204 58.3248 83.2896 58.3573 83.4564 58.3845C83.7901 58.4384 84.1179 58.4731 84.4428 58.5021C85.742 58.6086 87.0127 58.6393 88.2781 58.7384C88.91 58.7835 89.5395 58.842 90.1644 58.9208C90.7899 58.9955 91.4113 59.094 92.0274 59.2144C93.2586 59.4548 94.4676 59.7994 95.6209 60.2859C95.7651 60.3467 95.9075 60.411 96.0505 60.4759L96.487 60.678C96.7788 60.813 97.0706 60.9485 97.3642 61.0805C97.9501 61.347 98.5395 61.6076 99.1336 61.859C99.7294 62.1063 100.328 62.3536 100.952 62.5435C101.109 62.5899 101.267 62.6327 101.43 62.6657C101.592 62.697 101.758 62.7225 101.93 62.7109C102.016 62.7045 102.103 62.6872 102.184 62.6524C102.266 62.6182 102.338 62.565 102.396 62.5018C102.511 62.3744 102.578 62.2227 102.645 62.075C102.554 62.2094 102.463 62.3478 102.344 62.4457C102.225 62.5447 102.078 62.5754 101.929 62.5626C101.78 62.5522 101.63 62.5111 101.482 62.4619C101.334 62.4115 101.188 62.3518 101.044 62.2875C100.466 62.0269 99.9003 61.7246 99.3359 61.4217C98.7709 61.1182 98.2082 60.8083 97.6443 60.5008L96.798 60.0386L96.3731 59.8069C96.2283 59.7282 96.0807 59.6535 95.933 59.5811C94.749 58.9973 93.4893 58.5878 92.2128 58.3011C91.5746 58.1575 90.93 58.048 90.2853 57.9576C89.6401 57.8708 88.9931 57.8076 88.3479 57.7584C87.7021 57.7126 87.0575 57.6808 86.4163 57.6547C85.7751 57.6316 85.1363 57.6101 84.5091 57.5748C84.1958 57.5563 83.8848 57.5325 83.5849 57.4931C83.2873 57.4526 82.9908 57.3999 82.7554 57.3072C82.6973 57.2846 82.6449 57.2592 82.6002 57.2325L82.5746 57.2175L82.5502 57.2001L82.5438 57.1954C82.5397 57.1926 82.5537 57.203 82.5455 57.1966L82.5351 57.1885L82.449 57.1219C82.3334 57.0292 82.2171 56.9261 82.1003 56.8225C81.8672 56.6134 81.637 56.3927 81.4086 56.1697C80.4948 55.2737 79.6019 54.3384 78.705 53.4094L77.3576 52.0136L76.6816 51.3163L75.9991 50.6218Z" fill="#DAC9C1"/>
<path d="M58.1425 49.0034C58.3064 49.1876 58.4767 49.3654 58.6453 49.5444C58.8162 49.7216 58.9888 49.8965 59.162 50.0714C59.5091 50.4207 59.8648 50.7606 60.2264 51.0954C60.5891 51.429 60.9582 51.7562 61.3384 52.0725C61.7185 52.3887 62.1086 52.6951 62.5213 52.9812C62.7288 53.1237 62.941 53.2609 63.1694 53.3878C63.2258 53.4196 63.2868 53.4509 63.3385 53.477L63.4949 53.5598C63.5995 53.616 63.7036 53.6739 63.8071 53.7329C64.2204 53.971 64.629 54.2229 65.0278 54.4893C65.4265 54.7558 65.8195 55.0303 66.1973 55.3228C66.5757 55.6129 66.9442 55.9153 67.2767 56.2396C67.443 56.4006 67.6017 56.5674 67.7359 56.7377C67.8028 56.8228 67.8638 56.9091 67.9115 56.992C67.9359 57.0331 67.9563 57.0742 67.9725 57.1118L67.9836 57.1396L67.9888 57.153L67.9964 57.1727L68.0062 57.197C68.0167 57.2213 68.0225 57.2323 68.0307 57.2485C68.0382 57.263 68.0464 57.2775 68.0539 57.2902C68.0696 57.3169 68.0859 57.3406 68.1022 57.362C68.1673 57.4483 68.23 57.5068 68.2911 57.5601C68.3521 57.6123 68.4108 57.6563 68.4695 57.6968C68.5864 57.7779 68.7003 57.8451 68.8136 57.9094C69.0403 58.0356 69.2641 58.1468 69.4891 58.2522C69.9378 58.4619 70.3819 58.6594 70.8243 58.8569C71.2649 59.0573 71.7015 59.2588 72.1281 59.4766C72.5536 59.6944 72.9704 59.9266 73.3616 60.1902C73.7505 60.4543 74.1196 60.7496 74.4056 61.1081C74.5486 61.2865 74.6666 61.4823 74.7456 61.6937C74.8258 61.9045 74.8607 62.1321 74.8497 62.3638C74.8386 62.5955 74.7776 62.8289 74.6846 63.0513C74.5945 63.276 74.4695 63.488 74.3323 63.6936C74.5061 63.5192 74.6631 63.3246 74.7962 63.1098C74.9264 62.8937 75.0281 62.6528 75.0781 62.3933C75.1299 62.1339 75.12 61.8582 75.0566 61.5964C74.9933 61.334 74.8776 61.089 74.7375 60.8661C74.4521 60.4207 74.0766 60.0593 73.683 59.7407C73.2878 59.4227 72.8675 59.1471 72.4397 58.8928C71.5852 58.3831 70.6894 57.965 69.8315 57.53C69.6187 57.42 69.4066 57.3117 69.2101 57.1953C69.1118 57.1373 69.0171 57.0783 68.9346 57.0174C68.8933 56.9873 68.8549 56.9572 68.8235 56.9288C68.7921 56.901 68.7671 56.8732 68.759 56.8605C68.7567 56.8576 68.7561 56.8553 68.7561 56.8559L68.7567 56.8576C68.7578 56.8599 68.7567 56.8576 68.7613 56.8674C68.7631 56.8709 68.7648 56.8773 68.7625 56.8703L68.7607 56.8651C68.7567 56.8547 68.7637 56.8732 68.7619 56.8686L68.7509 56.8385L68.7276 56.7806C68.6956 56.7047 68.6602 56.6358 68.623 56.5703C68.5486 56.44 68.4672 56.3247 68.3829 56.2159C68.2143 55.9998 68.0347 55.8093 67.8499 55.6286C67.1041 54.9185 66.2909 54.3434 65.4474 53.814C65.0243 53.5522 64.5941 53.3032 64.1494 53.0773C64.0384 53.0206 63.9262 52.965 63.8135 52.9111L63.4839 52.7582C63.2787 52.6603 63.0729 52.5445 62.87 52.4229C62.4626 52.1784 62.0621 51.908 61.665 51.6311C61.268 51.3531 60.8745 51.067 60.4833 50.7763C60.0909 50.4867 59.7026 50.1907 59.312 49.8959L58.1425 49.0034Z" fill="#DAC9C1"/>
<path d="M47.828 49.8931C47.9256 50.4612 48.0593 51.023 48.2151 51.579C48.3703 52.135 48.5499 52.6853 48.7517 53.2291C49.1591 54.3139 49.6567 55.3755 50.3165 56.3619C50.6484 56.853 51.0221 57.3256 51.4651 57.7478C51.6865 57.9586 51.9237 58.1596 52.1835 58.3357C52.3132 58.4237 52.448 58.5071 52.5875 58.5836C52.6579 58.6212 52.7282 58.6583 52.8009 58.6925L52.9055 58.7411L53.0095 58.7874C53.5641 59.0301 54.1401 59.1969 54.7144 59.3249C55.2905 59.45 55.8665 59.5288 56.4362 59.5925C57.0064 59.6521 57.5703 59.6944 58.126 59.7437C58.6817 59.7882 59.2293 59.8433 59.764 59.9249C60.2988 60.006 60.8185 60.1236 61.312 60.2944C61.8043 60.4682 62.2682 60.7016 62.6838 61.0109C62.789 61.0885 62.8849 61.1684 62.989 61.2576C63.0907 61.3451 63.193 61.4372 63.2918 61.5304C63.4901 61.7169 63.6796 61.9127 63.8627 62.1154C64.2277 62.5219 64.5544 62.965 64.8636 63.4365C65.0206 63.6705 65.1723 63.9137 65.3403 64.1535C65.5089 64.3921 65.6925 64.6348 65.9274 64.8334C66.0442 64.9325 66.1721 65.0199 66.3081 65.0865C66.4441 65.1537 66.5877 65.2018 66.7313 65.2325C67.0202 65.291 67.3091 65.2921 67.5898 65.2603C67.3091 65.2273 67.0307 65.1763 66.7795 65.0692C66.5273 64.9666 66.3116 64.8074 66.1413 64.607C65.9704 64.406 65.8355 64.1703 65.7088 63.9218C65.5827 63.6733 65.4606 63.415 65.3321 63.1556C65.2025 62.8967 65.0642 62.6378 64.9142 62.3841C64.7642 62.1304 64.5991 61.8837 64.4242 61.6445C64.2492 61.4047 64.0603 61.1754 63.8627 60.9547C63.7633 60.8441 63.6633 60.7369 63.5581 60.6298C63.4558 60.5238 63.3395 60.4149 63.2238 60.3159C62.9902 60.1143 62.7385 59.9342 62.4757 59.7744C62.2124 59.6162 61.9369 59.4813 61.6567 59.3649C61.0963 59.1309 60.5151 58.9832 59.9402 58.8708C59.3641 58.7602 58.791 58.6953 58.226 58.6345C57.6604 58.5789 57.1018 58.5326 56.5525 58.4718C56.0026 58.4156 55.4614 58.3421 54.9342 58.2361C54.4064 58.1335 53.8937 57.9899 53.4048 57.7994C52.4707 57.4519 51.6889 56.6914 51.0128 55.8354C50.3368 54.9736 49.7648 54.0023 49.244 53.0009C48.7249 51.9984 48.257 50.9582 47.828 49.8931Z" fill="#DAC9C1"/>
<path d="M68.0694 61.2537C68.0694 61.2537 71.2921 63.8258 68.9408 65.5135C68.9408 65.5135 72.8435 64.4982 68.0694 61.2537Z" fill="#DAC9C1"/>
<path d="M70.2997 60.8367C70.2997 60.8367 74.0798 62.4398 72.2563 64.7055C72.2563 64.7055 75.751 62.6669 70.2997 60.8367Z" fill="#DAC9C1"/>
<path d="M70.9461 40.9814C70.9461 40.9814 71.4814 49.113 72.4417 51.9603C72.4417 51.9603 74.6453 50.916 75.916 48.6532C75.916 48.6532 75.2621 50.6542 72.9131 52.5487C71.5291 53.6648 69.8492 54.7177 68.3239 55.2071C68.3239 55.2071 70.7879 53.4557 71.4727 52.7213C71.4727 52.7213 70.706 48.4568 70.9461 40.9814Z" fill="#DAC9C1"/>
<path d="M39.0884 43.5623C39.0884 43.5623 38.1769 49.8729 43.0266 51.6342C47.8762 53.396 48.8574 55.3392 48.8574 55.3392C48.8574 55.3392 47.5734 52.7752 43.6276 51.1147C40.251 49.6945 39.1076 46.4853 39.0884 43.5623Z" fill="#DAC9C1"/>
<path d="M31.9403 52.1526C31.9403 52.1526 33.8149 49.8162 36.7719 50.1811C36.7719 50.1811 42.1092 48.7267 39.197 52.7178C39.197 52.7178 40.2851 49.782 36.905 50.8801C36.9044 50.8795 35.0007 50.0467 31.9403 52.1526Z" fill="#DAC9C1"/>
<path d="M40.5647 50.7202C40.5647 50.7202 45.0469 52.7079 40.0258 54.3719C40.0264 54.3719 43.1496 52.9327 40.5647 50.7202Z" fill="#DAC9C1"/>
<path d="M42.9657 52.0986C42.9657 52.0986 45.7663 55.8835 40.8225 55.1683C40.8225 55.1683 43.7272 55.5609 42.9657 52.0986Z" fill="#DAC9C1"/>
<path d="M34.8581 52.4519C34.8581 52.4519 36.4456 56.4656 39.8496 55.1196C39.8502 55.1196 37.0943 55.4231 34.8581 52.4519Z" fill="#DAC9C1"/>
</svg>
