<svg width="23" height="23" viewBox="0 0 23 23" fill="none" xmlns="http://www.w3.org/2000/svg">
<g clip-path="url(#clip0_1607_26)">
<path d="M20.7988 2.91992H2.11134C0.922305 2.91992 -0.0449219 3.88715 -0.0449219 5.07619V18.0137C-0.0449219 19.2027 0.922305 20.1699 2.11134 20.1699H20.7988C21.9879 20.1699 22.9551 19.2027 22.9551 18.0137V5.07619C22.9551 3.88715 21.9879 2.91992 20.7988 2.91992ZM20.7988 4.35742C20.8965 4.35742 20.9894 4.37768 21.0743 4.41306L11.4551 12.7501L1.83581 4.41306C1.92074 4.37772 2.01364 4.35742 2.11129 4.35742H20.7988ZM20.7988 18.7324H2.11134C1.71477 18.7324 1.39257 18.4103 1.39257 18.0136V5.93179L10.9841 14.2444C11.1196 14.3616 11.2873 14.4199 11.4551 14.4199C11.6228 14.4199 11.7906 14.3617 11.9261 14.2444L21.5176 5.93179V18.0137C21.5175 18.4103 21.1954 18.7324 20.7988 18.7324Z" fill="#001D23"/>
</g>
<defs>
<clipPath id="clip0_1607_26">
<rect width="23" height="23" fill="white"/>
</clipPath>
</defs>
</svg>
