<svg width="61" height="61" viewBox="0 0 61 61" fill="none" xmlns="http://www.w3.org/2000/svg">
<g clip-path="url(#clip0_1543_46457)">
<path d="M60.822 33.6836L60.0211 32.6818C59.5762 32.1252 59.198 31.5909 59.198 31.4796C59.198 31.3905 59.5985 30.8785 60.0879 30.3887L61 29.4537L59.9767 28.5186C59.4205 28.0066 58.9756 27.5391 58.9756 27.4945C58.9756 27.4277 59.287 26.9602 59.643 26.4482C60.0212 25.9584 60.3104 25.4464 60.3104 25.3573C60.3104 25.2682 59.8432 24.8675 59.2648 24.4668C58.6641 24.0661 58.1747 23.7321 58.1302 23.6876C58.0857 23.6653 58.3749 23.0865 58.7531 22.4186L59.4427 21.1719L58.3304 20.6153C57.7298 20.3036 57.1736 19.9474 57.1069 19.8361C57.0401 19.7248 57.1736 19.1015 57.3961 18.4113L57.8187 17.1869L56.484 16.6971C55.5496 16.3631 55.1937 16.1182 55.2826 15.8956C55.3494 15.7398 55.4606 15.0942 55.5496 14.4931L55.6831 13.4022L54.593 13.2464C53.0357 13.046 52.969 12.9569 53.0357 11.4653L53.0802 10.1296L51.7009 10.0628L50.2994 9.99599V9.26131C50.2994 8.83832 50.2327 8.1927 50.1659 7.81423L50.0102 7.12409L48.6309 7.25766L47.2516 7.39124L46.9847 6.03321C46.829 5.29854 46.651 4.67518 46.562 4.67518C46.473 4.67518 45.8279 4.80876 45.1382 4.98686L43.8924 5.27628L43.403 3.98504C43.1583 3.25037 42.8913 2.67153 42.8468 2.67153C42.8023 2.67153 42.2462 2.8719 41.6233 3.11679C41.0004 3.36168 40.422 3.56204 40.3107 3.56204C40.2217 3.56204 39.9548 3.16131 39.7323 2.67153C39.1094 1.29124 38.9314 1.22445 37.5966 1.89234L36.4398 2.49343L35.8614 1.75876C35.55 1.35803 35.1718 0.868248 35.016 0.690146C34.7936 0.378467 34.6379 0.422993 33.748 1.06861C33.1696 1.44708 32.6357 1.78102 32.5467 1.78102C32.4577 1.78102 31.9683 1.38029 31.5011 0.890511C31.0339 0.40073 30.5667 0 30.5 0C30.4333 0 29.9438 0.445255 29.4099 0.979562L28.4533 1.95912L27.4522 1.20219C26.9183 0.779197 26.3844 0.445255 26.2732 0.445255C26.1619 0.445255 25.7615 0.890511 25.361 1.44708C24.9606 2.00365 24.6047 2.44891 24.5602 2.44891C24.5157 2.44891 23.9818 2.20401 23.3811 1.89234C22.7805 1.58066 22.202 1.33577 22.0908 1.33577C21.9796 1.33577 21.7126 1.7365 21.4902 2.22628C20.8895 3.56204 20.7115 3.65109 19.399 3.11679C18.7538 2.8719 18.2199 2.67153 18.1754 2.67153C18.1309 2.67153 17.864 3.2281 17.597 3.91825C17.0408 5.29854 17.1743 5.23175 15.0164 4.7865C14.3268 4.63066 14.3268 4.63066 13.9931 5.94416L13.6816 7.2354L12.3023 7.19088L10.9453 7.12409L10.8341 7.85876C10.7673 8.23723 10.6783 8.86058 10.6561 9.23905C10.5894 9.90693 10.5671 9.90693 9.18782 9.97372L7.76404 10.0405L7.85303 11.4653L7.91977 12.8901L6.58497 13.1796C5.27243 13.469 5.25018 13.4912 5.33917 14.1369C5.40591 14.5153 5.4504 15.1387 5.4504 15.5617C5.47265 16.2741 5.40591 16.3409 4.42706 16.6748C3.84865 16.8752 3.33698 17.0978 3.24799 17.1646C3.18125 17.2537 3.31473 17.877 3.55945 18.5672L4.00438 19.8361L2.78082 20.415C2.11342 20.7489 1.5795 21.1051 1.5795 21.1942C1.5795 21.3055 1.84646 21.8843 2.15791 22.5077C2.46937 23.131 2.69183 23.6653 2.64734 23.6876C2.60284 23.7321 2.11342 24.0661 1.51276 24.4668C0.355945 25.246 0.355945 25.246 1.44602 26.7153L2.02443 27.4723L1.02334 28.4964L0 29.5204L0.489424 29.9657C0.756382 30.1883 1.15682 30.6781 1.40153 31.012L1.84646 31.6354L1.00109 32.6595L0.155726 33.6836L1.24581 34.6186L2.31364 35.5536L1.60175 36.7336C1.20131 37.3792 0.912108 37.9135 0.956601 37.958C1.00109 37.9803 1.53501 38.3365 2.18016 38.715L3.33698 39.4274L2.78082 40.6518C2.49161 41.3197 2.2469 41.8985 2.2469 41.9431C2.2469 41.9876 2.80306 42.2547 3.49271 42.5219C4.69402 43.0117 4.73851 43.0562 4.58279 43.7241C4.11561 45.9281 4.07112 45.7723 5.47265 46.1953L6.7407 46.5515L6.58497 47.954L6.4515 49.3566L7.76404 49.5124C9.03209 49.646 9.09883 49.6905 9.23231 50.3584C9.29905 50.7369 9.36579 51.3825 9.36579 51.7832V52.5401H12.2133L12.3691 53.8982L12.5248 55.2562L13.3479 55.1226C13.7929 55.0336 14.4158 54.9223 14.7495 54.8555C15.2834 54.7442 15.3501 54.8332 15.7061 55.9241C15.9285 56.5697 16.151 57.1708 16.24 57.2599C16.3067 57.3266 16.9296 57.2153 17.6193 57.015L18.8651 56.6142L19.4657 57.7942C19.9996 58.9073 20.4001 59.219 20.7783 58.8405C20.8673 58.7737 21.3344 58.5288 21.8016 58.3062L22.6915 57.9055L23.3811 59.0186C23.7815 59.6197 24.182 60.1095 24.3155 60.1095C24.4267 60.1095 24.9606 59.7978 25.5168 59.4193L26.4956 58.7515L27.1185 59.4639C27.4522 59.8646 27.8527 60.3766 28.0084 60.5993C28.2753 60.9777 28.3643 60.9555 29.3877 60.0872L30.4778 59.1744L31.5678 60.0872L32.6802 61L33.5033 59.9982C33.9482 59.4416 34.4154 58.9964 34.5266 58.9964C34.6601 58.9964 35.194 59.2858 35.7279 59.6642C36.2619 60.0204 36.7513 60.3321 36.7958 60.3321C36.8625 60.3321 37.2185 59.8201 37.6189 59.219C38.0193 58.5956 38.353 58.1058 38.3975 58.1058C38.4198 58.1058 39.0204 58.3507 39.7101 58.6624L40.9781 59.219L41.512 57.9945C41.8235 57.3266 42.1349 56.7701 42.2462 56.7701C42.3574 56.7701 42.9581 56.9259 43.6032 57.1263C44.2484 57.3044 44.8045 57.438 44.8268 57.3934C44.849 57.3489 45.0492 56.7478 45.2717 56.0354C45.5609 55.0336 45.7389 54.7664 46.0281 54.8555C46.2283 54.9 46.8734 55.0113 47.4296 55.1004L48.4752 55.2339L48.6309 53.8759L48.7867 52.5401H51.612L51.6787 51.1376L51.7454 49.7573L53.147 49.5569L54.5263 49.3343L54.3928 47.954L54.2371 46.5515L55.5274 46.1953C56.9289 45.7723 56.8844 45.9281 56.4172 43.7241C56.2615 43.0562 56.306 43.0117 57.5073 42.5219C58.1969 42.2547 58.7531 41.9876 58.7531 41.9431C58.7531 41.8985 58.5084 41.3197 58.2192 40.6518L57.6853 39.4274L58.8198 38.715C59.465 38.3142 59.9989 37.958 60.0434 37.9358C60.0879 37.9135 59.7987 37.3569 59.3983 36.7113L58.6641 35.5536L59.7542 34.6186L60.822 33.6836Z" fill="url(#paint0_linear_1543_46457)"/>
<path d="M29.6104 13.3577H31.835V11.3318C31.835 9.3281 31.835 9.30584 31.3456 9.46168C29.8328 9.90694 29.8328 9.90694 29.8328 8.94964C29.8328 8.12591 29.8996 8.03686 30.5669 7.81423C30.9451 7.68066 31.5236 7.36898 31.835 7.12409C32.1465 6.8792 32.7471 6.67883 33.2143 6.67883H34.0374L34.1042 9.95146L34.1709 13.2464L35.172 13.3577C36.1508 13.469 36.1731 13.469 36.1731 14.2927V15.1387H29.6104V13.3577Z" fill="white"/>
<path d="M24.2711 11.354C24.5603 11.354 24.716 11.1982 24.716 10.9088C24.716 10.6639 24.5603 10.4635 24.3823 10.4635C24.2044 10.4635 24.0486 10.2632 24.0486 10.0183C24.0486 9.72885 24.2044 9.57301 24.4936 9.57301C24.7828 9.57301 24.9385 9.41717 24.9385 9.12775C24.9385 8.81607 25.0942 8.6825 25.4057 8.6825C25.7616 8.6825 25.8506 8.79381 25.7616 9.12775C25.6726 9.46169 25.7616 9.57301 26.0508 9.57301C26.2733 9.57301 26.5402 9.37264 26.607 9.12775C26.785 8.57118 27.3856 8.54892 27.3856 9.10549C27.3856 9.32812 27.5858 9.57301 27.8305 9.63979C28.4757 9.8179 28.409 10.4635 27.7193 10.4635C27.3189 10.4635 27.1632 10.5748 27.1632 10.9088C27.1632 11.1982 27.3189 11.354 27.6081 11.354C27.8973 11.354 28.053 11.5099 28.053 11.7993C28.053 12.1332 27.8973 12.2445 27.4969 12.2445C27.0964 12.2445 26.9407 12.3559 26.9407 12.6898C26.9407 13.0015 26.785 13.135 26.4735 13.135C26.1176 13.135 26.0508 13.046 26.1621 12.6898C26.2733 12.3336 26.2066 12.2445 25.8506 12.2445C25.5392 12.2445 25.3834 12.3781 25.3834 12.6898C25.3834 12.9792 25.2277 13.135 24.9385 13.135C24.6493 13.135 24.4936 12.9792 24.4936 12.6898C24.4936 12.4449 24.3378 12.2445 24.1599 12.2445C23.9819 12.2445 23.8262 12.0442 23.8262 11.7993C23.8262 11.5099 23.9819 11.354 24.2711 11.354Z" fill="white"/>
<path d="M12.2804 14.6712C19.8664 18.0996 32.1465 19.0347 41.7125 16.8974C44.2041 16.3409 47.9193 15.1164 49.3431 14.3817C50.5666 13.7361 50.8113 13.6693 50.1884 14.1591C49.3208 14.827 46.1618 16.2518 43.8259 17.0088C38.8427 18.6339 32.6359 19.3686 27.2523 18.9234C21.6016 18.4781 17.0634 17.3204 12.7475 15.1832C10.4339 14.0478 10.1002 13.6916 12.2804 14.6712Z" fill="white"/>
<path d="M21.6462 50.0912C21.2235 50.4474 21.1568 50.6478 21.268 51.2266L21.4238 51.9168L20.8453 51.5383C20.3114 51.1821 20.2224 51.1821 19.6885 51.5383L19.1101 51.9168L19.2658 51.2266C19.3771 50.6478 19.3103 50.4474 18.8876 50.0912L18.376 49.6682L19.0879 49.646C19.6663 49.646 19.8442 49.5347 19.9555 49.0894C20.0222 48.7777 20.1779 48.5328 20.2669 48.5328C20.3559 48.5328 20.5116 48.7777 20.5784 49.0894C20.6896 49.5347 20.8676 49.646 21.446 49.646L22.1579 49.6682L21.6462 50.0912Z" fill="white"/>
<path d="M27.1183 50.0467C26.4509 50.4474 26.3619 50.7591 26.7178 51.4492C27.007 51.9613 26.7623 51.9835 26.0949 51.516C25.65 51.2043 25.561 51.2043 25.1161 51.516C24.4042 52.0281 24.2485 51.9613 24.5377 51.2934C24.7824 50.7591 24.7379 50.6478 24.204 50.1803L23.5811 49.6459H24.3819C25.0716 49.6459 25.1828 49.5792 25.3163 48.9781C25.383 48.5996 25.5165 48.3102 25.6055 48.3102C25.7167 48.3102 25.8502 48.5996 25.9392 48.9781C26.0727 49.5792 26.1839 49.6459 26.8958 49.6459L27.7189 49.6682L27.1183 50.0467Z" fill="white"/>
<path d="M32.3683 50.2026C31.8788 50.6033 31.8343 50.7369 32.0346 51.2712C32.3015 51.9613 32.0123 52.0726 31.3004 51.5383C30.9222 51.2489 30.811 51.2712 30.2548 51.6719C29.5429 52.1839 29.5207 52.1617 29.8544 51.2712C30.0546 50.7146 30.0101 50.6033 29.454 50.158L28.8311 49.646H29.5652C30.1881 49.646 30.3661 49.5347 30.5663 48.9781C30.8777 48.1321 31.078 48.1321 31.2559 49.0004C31.3672 49.646 31.4561 49.6905 32.168 49.6015C33.1024 49.4902 33.1246 49.6015 32.3683 50.2026Z" fill="white"/>
<path d="M37.5964 50.158C37.1515 50.5365 37.0402 50.7591 37.1737 51.093C37.4852 51.85 37.4184 51.939 36.8178 51.5383C36.3061 51.2043 36.2171 51.2043 35.7277 51.516C34.9936 52.0058 34.9268 51.9613 35.1938 51.2711C35.394 50.7368 35.3495 50.6032 34.8601 50.2025C34.1037 49.6014 34.1259 49.4678 34.9491 49.6014C35.5497 49.6905 35.661 49.6014 35.9057 49.0003C36.0391 48.6219 36.1949 48.3102 36.2394 48.3102C36.2839 48.3102 36.4173 48.5996 36.5286 48.9781C36.7288 49.5346 36.9068 49.6459 37.4629 49.6459L38.1748 49.6682L37.5964 50.158Z" fill="white"/>
<path d="M42.9135 50.1135C42.4018 50.492 42.3351 50.6478 42.513 51.1153C42.8245 51.8945 42.8245 51.8945 42.0904 51.4715C41.4675 51.1376 41.4007 51.1376 41.0003 51.4938C40.4441 52.0058 40.2217 51.9836 40.5109 51.4493C40.8668 50.7591 40.7778 50.4475 40.1327 50.0467L39.5098 49.6683L40.3329 49.646C41.067 49.646 41.156 49.5792 41.3117 48.9113L41.4675 48.1989L41.7789 48.9113C42.0236 49.5347 42.1793 49.646 42.8023 49.646L43.5141 49.6683L42.9135 50.1135Z" fill="white"/>
<path d="M49.5212 46.685C46.9184 45.416 44.0708 44.5701 40.0664 43.8799C37.9753 43.5237 33.5482 42.9671 32.7028 42.9671C32.5916 42.9671 32.5026 43.7241 32.5026 44.6369C32.5026 45.5496 32.4581 46.3066 32.3914 46.3066C32.3246 46.3066 31.8797 46.0394 31.4125 45.7277L30.5227 45.1489L29.5216 45.75L28.4982 46.3511V42.9226L26.5628 43.0785C20.9789 43.5015 14.9723 44.9263 11.7466 46.5737C11.2572 46.8186 10.8345 46.9522 10.79 46.9077C10.5898 46.7073 14.8611 44.7704 17.1525 43.9912C19.8221 43.1007 23.2703 42.3883 26.1624 42.0766C29.1879 41.7872 35.3057 41.9876 38.309 42.4996C42.2244 43.1675 48.4756 45.4606 50.1886 46.8631C50.4333 47.0635 50.1441 46.9744 49.5212 46.685Z" fill="white"/>
<path d="M36.1731 14.2927V15.1387H29.6104V13.3577H31.835V11.3318C31.835 9.3281 31.835 9.30584 31.3456 9.46168C29.8328 9.90694 29.8328 9.90694 29.8328 8.94964C29.8328 8.12591 29.8996 8.03686 30.5669 7.81423C30.9451 7.68066 31.5236 7.36898 31.835 7.12409C32.1465 6.8792 32.7471 6.67883 33.2143 6.67883H34.0374L34.1042 9.95146L34.1709 13.2464L35.172 13.3577C36.1508 13.469 36.1731 13.469 36.1731 14.2927Z" fill="white"/>
<path d="M27.7193 10.4635C28.409 10.4635 28.4757 9.8179 27.8305 9.63979C27.5858 9.57301 27.3856 9.32812 27.3856 9.10549C27.3856 8.54892 26.785 8.57118 26.607 9.12775C26.5402 9.37264 26.2733 9.57301 26.0508 9.57301C25.7616 9.57301 25.6726 9.46169 25.7616 9.12775C25.8506 8.79381 25.7616 8.6825 25.4057 8.6825C25.0942 8.6825 24.9385 8.81607 24.9385 9.12775C24.9385 9.41717 24.7828 9.57301 24.4936 9.57301C24.2044 9.57301 24.0486 9.72885 24.0486 10.0183C24.0486 10.2632 24.2044 10.4635 24.3823 10.4635C24.5603 10.4635 24.716 10.6639 24.716 10.9088C24.716 11.1982 24.5603 11.354 24.2711 11.354C23.9819 11.354 23.8262 11.5099 23.8262 11.7993C23.8262 12.0442 23.9819 12.2445 24.1599 12.2445C24.3378 12.2445 24.4936 12.4449 24.4936 12.6898C24.4936 12.9792 24.6493 13.135 24.9385 13.135C25.2277 13.135 25.3834 12.9792 25.3834 12.6898C25.3834 12.3781 25.5392 12.2445 25.8506 12.2445C26.2066 12.2445 26.2733 12.3336 26.1621 12.6898C26.0508 13.046 26.1176 13.135 26.4735 13.135C26.785 13.135 26.9407 13.0015 26.9407 12.6898C26.9407 12.3559 27.0964 12.2445 27.4969 12.2445C27.8973 12.2445 28.053 12.1332 28.053 11.7993C28.053 11.5099 27.8973 11.354 27.6081 11.354C27.3189 11.354 27.1632 11.1982 27.1632 10.9088C27.1632 10.5748 27.3189 10.4635 27.7193 10.4635ZM26.4513 10.842C26.34 11.4208 25.6059 11.4876 25.6059 10.931C25.6059 10.5971 25.7394 10.4635 26.0731 10.4635C26.3845 10.4635 26.4958 10.5748 26.4513 10.842Z" fill="white"/>
<path d="M26.4508 10.842C26.3396 11.4208 25.6055 11.4876 25.6055 10.931C25.6055 10.5971 25.7389 10.4635 26.0726 10.4635C26.3841 10.4635 26.4953 10.5748 26.4508 10.842Z" fill="url(#paint1_linear_1543_46457)"/>
<path d="M50.1884 14.1591C49.3208 14.827 46.1618 16.2518 43.8259 17.0088C38.8427 18.6339 32.6359 19.3686 27.2523 18.9234C21.6016 18.4781 17.0634 17.3204 12.7475 15.1832C10.4339 14.0478 10.1002 13.6916 12.2804 14.6712C19.8664 18.0996 32.1465 19.0347 41.7125 16.8974C44.2041 16.3409 47.9193 15.1164 49.3431 14.3817C50.5666 13.7361 50.8113 13.6693 50.1884 14.1591Z" fill="white"/>
<path d="M20.7116 27.8285C20.4446 27.9621 19.7772 28.0511 19.1988 28.0066C18.3089 27.9398 18.1532 27.873 18.0865 27.4277C17.953 26.4927 18.1755 26.2701 19.2655 26.2701C19.8439 26.2701 20.4891 26.3814 20.7338 26.4927C21.29 26.8044 21.2677 27.5168 20.7116 27.8285Z" fill="url(#paint2_linear_1543_46457)"/>
<path d="M20.5331 24.5781C20.4441 24.6226 19.8657 24.7117 19.265 24.7339C18.2417 24.8007 18.1527 24.7562 18.086 24.2887C17.9525 23.4427 18.1972 23.1533 19.0426 23.1533C19.4875 23.1533 20.0436 23.2646 20.2884 23.3759C20.711 23.6208 20.8668 24.3555 20.5331 24.5781Z" fill="url(#paint3_linear_1543_46457)"/>
<path d="M48.6536 35.3978H47.697L47.6747 34.485C47.6525 33.973 47.697 33.461 47.7637 33.3496C47.9862 32.9934 49.6992 33.3051 50.0106 33.7504C50.6558 34.6409 50.0329 35.3978 48.6536 35.3978Z" fill="url(#paint4_linear_1543_46457)"/>
<path d="M49.5212 46.685C46.9184 45.416 44.0708 44.5701 40.0664 43.8799C37.9753 43.5237 33.5482 42.9671 32.7028 42.9671C32.5916 42.9671 32.5026 43.7241 32.5026 44.6369C32.5026 45.5496 32.4581 46.3066 32.3914 46.3066C32.3246 46.3066 31.8797 46.0394 31.4125 45.7277L30.5227 45.1489L29.5216 45.75L28.4982 46.3511V42.9226L26.5628 43.0785C20.9789 43.5015 14.9723 44.9263 11.7466 46.5737C11.2572 46.8186 10.8345 46.9522 10.79 46.9077C10.5898 46.7073 14.8611 44.7704 17.1525 43.9912C19.8221 43.1007 23.2703 42.3883 26.1624 42.0766C29.1879 41.7872 35.3057 41.9876 38.309 42.4996C42.2244 43.1675 48.4756 45.4606 50.1886 46.8631C50.4333 47.0635 50.1441 46.9744 49.5212 46.685Z" fill="white"/>
<path d="M26.7178 51.4492C27.007 51.9613 26.7623 51.9835 26.0949 51.516C25.65 51.2043 25.561 51.2043 25.1161 51.516C24.4042 52.0281 24.2485 51.9613 24.5377 51.2934C24.7824 50.7591 24.7379 50.6478 24.204 50.1803L23.5811 49.6459H24.3819C25.0716 49.6459 25.1828 49.5792 25.3163 48.9781C25.383 48.5996 25.5165 48.3102 25.6055 48.3102C25.7167 48.3102 25.8502 48.5996 25.9392 48.9781C26.0727 49.5792 26.1839 49.6459 26.8958 49.6459L27.7189 49.6682L27.1183 50.0467C26.4509 50.4474 26.3619 50.7591 26.7178 51.4492Z" fill="white"/>
<path d="M32.3683 50.2026C31.8788 50.6033 31.8343 50.7369 32.0346 51.2712C32.3015 51.9613 32.0123 52.0726 31.3004 51.5383C30.9222 51.2489 30.811 51.2712 30.2548 51.6719C29.5429 52.1839 29.5207 52.1617 29.8544 51.2712C30.0546 50.7146 30.0101 50.6033 29.454 50.158L28.8311 49.646H29.5652C30.1881 49.646 30.3661 49.5347 30.5663 48.9781C30.8777 48.1321 31.078 48.1321 31.2559 49.0004C31.3672 49.646 31.4561 49.6905 32.168 49.6015C33.1024 49.4902 33.1246 49.6015 32.3683 50.2026Z" fill="white"/>
<path d="M38.1748 49.6682L37.5964 50.158C37.1515 50.5365 37.0402 50.7591 37.1737 51.093C37.4852 51.85 37.4184 51.939 36.8178 51.5383C36.3061 51.2043 36.2171 51.2043 35.7277 51.516C34.9936 52.0058 34.9268 51.9613 35.1938 51.2711C35.394 50.7368 35.3495 50.6032 34.8601 50.2025C34.1037 49.6014 34.1259 49.4678 34.9491 49.6014C35.5497 49.6905 35.661 49.6014 35.9057 49.0003C36.0391 48.6219 36.1949 48.3102 36.2394 48.3102C36.2839 48.3102 36.4173 48.5996 36.5286 48.9781C36.7288 49.5346 36.9068 49.6459 37.4629 49.6459L38.1748 49.6682Z" fill="white"/>
<path d="M42.513 51.1153C42.8245 51.8945 42.8245 51.8945 42.0904 51.4715C41.4675 51.1376 41.4007 51.1376 41.0003 51.4938C40.4441 52.0058 40.2217 51.9836 40.5109 51.4493C40.8668 50.7591 40.7778 50.4475 40.1327 50.0467L39.5098 49.6683L40.3329 49.646C41.067 49.646 41.156 49.5792 41.3117 48.9113L41.4675 48.1989L41.7789 48.9113C42.0236 49.5347 42.1793 49.646 42.8023 49.646L43.5141 49.6683L42.9135 50.1135C42.4018 50.492 42.3351 50.6478 42.513 51.1153Z" fill="white"/>
<path d="M22.1579 49.6682L21.6462 50.0912C21.2235 50.4474 21.1568 50.6478 21.268 51.2266L21.4238 51.9168L20.8453 51.5383C20.3114 51.1821 20.2224 51.1821 19.6885 51.5383L19.1101 51.9168L19.2658 51.2266C19.3771 50.6478 19.3103 50.4474 18.8876 50.0912L18.376 49.6682L19.0879 49.646C19.6663 49.646 19.8442 49.5347 19.9555 49.0894C20.0222 48.7777 20.1779 48.5328 20.2669 48.5328C20.3559 48.5328 20.5116 48.7777 20.5784 49.0894C20.6896 49.5347 20.8676 49.646 21.446 49.646L22.1579 49.6682Z" fill="white"/>
<path d="M20.878 29.6651H17.1006V21.5504H20.7512C22.4042 21.5504 23.3852 22.3718 23.3852 23.6542C23.3852 24.636 22.7957 25.2727 22.0104 25.5042C22.9581 25.7001 23.5699 26.5328 23.5699 27.4567C23.5699 28.7991 22.5888 29.6651 20.878 29.6651ZM20.3708 23.1355H19.0761V24.8341H20.3708C21.0182 24.8341 21.3764 24.5447 21.3764 23.9904C21.3741 23.436 21.016 23.1355 20.3708 23.1355ZM20.5088 26.279H19.0761V28.0711H20.531C21.1895 28.0711 21.5699 27.7706 21.5699 27.1917C21.5721 26.6151 21.1673 26.279 20.5088 26.279Z" fill="white"/>
<path d="M29.6805 23.1355H26.6884V24.7762H29.3335V26.3012H26.6884V28.0823H29.6805V29.6651H24.7129V21.5504H29.6805V23.1355Z" fill="white"/>
<path d="M33.8942 29.7475C32.1501 29.7475 30.7864 28.8815 30.7285 27.2385H32.8308C32.8887 27.8619 33.2802 28.1624 33.8364 28.1624C34.4148 28.1624 34.7841 27.873 34.7841 27.3988C34.7841 25.8961 30.7285 26.7042 30.753 23.8256C30.753 22.2873 32.0121 21.4324 33.7095 21.4324C35.4759 21.4324 36.6661 22.3118 36.7484 23.859H34.6105C34.5749 23.3381 34.2056 23.0264 33.674 23.0153C33.2001 23.0041 32.8419 23.2468 32.8419 23.7544C32.8419 25.1636 36.8508 24.5291 36.8508 27.2452C36.853 28.6143 35.7896 29.7475 33.8942 29.7475Z" fill="white"/>
<path d="M37.625 21.5504H43.8985V23.1332H41.7495V29.6651H39.774V23.1332H37.625V21.5504Z" fill="white"/>
<path d="M10.3783 37.112H9.27484V39.7368H7.49512V32.4235H10.3783C12.1691 32.4235 13.0634 33.4342 13.0634 34.7767C13.0634 35.9878 12.2403 37.112 10.3783 37.112ZM10.2426 35.6961C10.95 35.6961 11.2526 35.3421 11.2526 34.7789C11.2526 34.2156 10.95 33.8617 10.2426 33.8617H9.27484V35.6961H10.2426Z" fill="white"/>
<path d="M18.4653 33.8528H15.769V35.331H18.1538V36.7069H15.769V38.312H18.4653V39.739H13.9893V32.4257H18.4653V33.8528Z" fill="white"/>
<path d="M19.2236 32.4257H24.8765V33.8528H22.941V39.739H21.1613V33.8528H19.2259V32.4257H19.2236Z" fill="white"/>
<path d="M31.3499 32.3411C33.0874 32.3411 34.3999 33.3207 34.8159 34.9036H32.8582C32.5557 34.278 32.004 33.9663 31.3277 33.9663C30.2354 33.9663 29.4857 34.7789 29.4857 36.0701C29.4857 37.3614 30.2354 38.174 31.3277 38.174C32.004 38.174 32.5557 37.8623 32.8582 37.2367H34.8159C34.3999 38.8196 33.0874 39.788 31.3499 39.788C29.1942 39.788 27.6748 38.2563 27.6748 36.0701C27.6748 33.8839 29.1942 32.3411 31.3499 32.3411Z" fill="white"/>
<path d="M40.4574 38.4456H37.73L37.2939 39.7368H35.4297L38.0726 32.4235H40.1326L42.7755 39.7368H40.8912L40.4574 38.4456ZM39.0937 34.3937L38.1994 37.0697H39.9991L39.0937 34.3937Z" fill="white"/>
<path d="M46.5668 32.4257C48.3577 32.4257 49.252 33.4565 49.252 34.7277C49.252 35.6449 48.7514 36.5087 47.628 36.8427L49.3143 39.739H47.3054L45.786 36.9785H45.3588V39.739H43.5791V32.4257H46.5668ZM46.4623 33.904H45.3588V35.7162H46.4623C47.1274 35.7162 47.4411 35.3733 47.4411 34.7989C47.4411 34.2579 47.1296 33.904 46.4623 33.904Z" fill="white"/>
<path d="M54.8403 33.8528H52.144V35.331H54.5266V36.7069H52.144V38.312H54.8403V39.739H50.3643V32.4257H54.8403V33.8528Z" fill="white"/>
</g>
<defs>
<linearGradient id="paint0_linear_1543_46457" x1="0" y1="30.5" x2="61" y2="30.5" gradientUnits="userSpaceOnUse">
<stop stop-color="#F86CA7"/>
<stop offset="1" stop-color="#FF7F18"/>
</linearGradient>
<linearGradient id="paint1_linear_1543_46457" x1="25.6055" y1="10.8889" x2="26.4602" y2="10.8889" gradientUnits="userSpaceOnUse">
<stop stop-color="#F86CA7"/>
<stop offset="1" stop-color="#FF7F18"/>
</linearGradient>
<linearGradient id="paint2_linear_1543_46457" x1="18.0518" y1="27.1441" x2="21.14" y2="27.1441" gradientUnits="userSpaceOnUse">
<stop stop-color="#F86CA7"/>
<stop offset="1" stop-color="#FF7F18"/>
</linearGradient>
<linearGradient id="paint3_linear_1543_46457" x1="18.0518" y1="23.9559" x2="20.7137" y2="23.9559" gradientUnits="userSpaceOnUse">
<stop stop-color="#F86CA7"/>
<stop offset="1" stop-color="#FF7F18"/>
</linearGradient>
<linearGradient id="paint4_linear_1543_46457" x1="47.6689" y1="34.2964" x2="50.2659" y2="34.2964" gradientUnits="userSpaceOnUse">
<stop stop-color="#F86CA7"/>
<stop offset="1" stop-color="#FF7F18"/>
</linearGradient>
<clipPath id="clip0_1543_46457">
<rect width="61" height="61" fill="white"/>
</clipPath>
</defs>
</svg>
