<svg width="40" height="40" viewBox="0 0 40 40" fill="none" xmlns="http://www.w3.org/2000/svg">
<path d="M7.95539 6.06088C7.95539 5.65252 7.62789 5.3208 7.21961 5.3208H4.78266C4.37867 5.3208 4.04688 5.65252 4.04688 6.06088V7.05604H7.95539V6.06088Z" fill="white"/>
<path d="M35.9525 6.06088C35.9525 5.65252 35.6207 5.3208 35.2167 5.3208H32.7797C32.3714 5.3208 32.0439 5.65252 32.0439 6.06088V7.05604H35.9525V6.06088Z" fill="white"/>
<path d="M15.1514 4.33419C15.1514 4.10028 15.3428 3.90887 15.5767 3.90887H24.4229C24.6568 3.90887 24.8482 4.10028 24.8482 4.33419V7.05614H26.5494V4.33419C26.5494 3.16458 25.5968 2.2077 24.4229 2.2077H15.5767C14.4029 2.2077 13.4502 3.16466 13.4502 4.33419V7.05614H15.1514V4.33419Z" fill="white"/>
<path d="M38.2875 7.90668H1.71191C0.771992 7.90668 0.0107422 8.66801 0.0107422 9.60785V34.1774C0.0107422 35.1173 0.771992 35.8786 1.71191 35.8786H2.97082V36.9418C2.97082 37.4096 3.35355 37.7925 3.82145 37.7925H7.58535C8.05316 37.7925 8.43598 37.4096 8.43598 36.9418V35.8786H31.5637V36.9418C31.5637 37.4096 31.9465 37.7925 32.4143 37.7925H36.1782C36.6461 37.7925 37.0289 37.4096 37.0289 36.9418V35.8786H38.2878C39.2277 35.8786 39.9889 35.1172 39.9889 34.1774V9.60785C39.9888 8.66801 39.2275 7.90668 38.2875 7.90668ZM19.9997 31.0236C14.9552 31.0236 10.8667 26.935 10.8667 21.8905C10.8667 16.8496 14.9552 12.7575 19.9997 12.7575C25.0443 12.7575 29.1328 16.8496 29.1328 21.8905C29.1328 26.935 25.0443 31.0236 19.9997 31.0236Z" fill="white"/>
<path d="M25.28 20.1149H21.7755V16.6105C21.7755 16.1406 21.3947 15.7598 20.9249 15.7598H19.0706C18.6009 15.7598 18.22 16.1406 18.22 16.6105V20.1149H14.7198C14.25 20.1149 13.8691 20.4958 13.8691 20.9655V22.8197C13.8691 23.2895 14.2499 23.6704 14.7198 23.6704H18.22V27.1706C18.22 27.6404 18.6008 28.0212 19.0706 28.0212H20.9249C21.3947 28.0212 21.7755 27.6405 21.7755 27.1706V23.6704H25.28C25.7498 23.6704 26.1306 23.2896 26.1306 22.8197V20.9655C26.1306 20.4958 25.7498 20.1149 25.28 20.1149Z" fill="white"/>
</svg>
