<svg width="100" height="100" viewBox="0 0 100 100" fill="none" xmlns="http://www.w3.org/2000/svg">
<g clip-path="url(#clip0_1635_61640)">
<path d="M91.9879 45.9231C91.982 45.9258 91.9766 45.9284 91.9707 45.9309C91.9824 45.9375 91.9943 45.9426 92.0068 45.9456C92.0004 45.9379 91.9941 45.9307 91.9879 45.9231Z" fill="#FF6B55"/>
<path d="M99.9389 31.1859C99.7369 28.9088 99.0295 26.7463 96.8842 25.6518C94.735 24.5559 92.1496 24.3324 90.1561 22.9201C88.0014 21.3932 88.3201 18.2014 87.2908 15.9873C85.9613 13.1273 82.4102 11.7533 79.5148 11.1252C77.5877 10.707 75.5732 10.4582 73.558 10.4125C70.6332 9.73086 67.6225 9.88262 64.6199 10.1416C62.0039 10.3674 59.1434 10.7141 56.9229 12.2397C52.0045 15.6184 53.7252 23.1635 56.917 27.1295C57.3797 27.7045 57.883 28.2242 58.4531 28.6936C59.0684 29.1998 59.4957 29.7303 59.9992 30.3182C59.7928 31.3699 58.9592 32.4428 58.5195 33.3139C58.1684 34.0098 57.8676 34.7854 57.8203 35.5635C56.965 36.0563 56.3555 36.9582 55.8471 37.7867C55.3348 38.6213 54.8721 39.6182 54.777 40.6258C48.2582 41.9314 41.7227 42.1934 35.1256 41.3121C33.3883 41.0801 31.6469 40.8473 29.8934 40.7875C28.2715 40.7324 26.6168 40.8693 25.0191 40.5207C21.7992 39.8172 20.5637 37.2736 19.5213 34.4248C17.184 28.0369 15.6481 20.8037 17.2227 14.052C17.6094 12.3939 18.0949 10.7057 18.7637 9.1375C19.2408 8.01836 19.9535 6.88711 19.9889 5.63555C20.0543 3.31934 17.9002 2.62657 16.0607 3.43379C13.9051 4.37989 12.434 6.04415 11.2955 8.05215C10.0707 10.2131 9.15274 12.5891 8.45899 15.0037C7.5668 13.2664 6.28204 11.7074 4.55782 12.6553C3.10118 13.4559 3.38419 15.5143 3.57247 16.8867C3.67559 17.6391 3.79219 18.3973 4.02579 19.1215C4.10176 19.3563 4.19005 19.5914 4.28106 19.8273C2.97696 19.1684 1.59747 19.0568 1.03419 20.7961C0.240241 23.2471 1.85352 25.9887 3.39844 28.1375C1.54356 28.5941 -0.178314 29.8984 0.0148499 31.9389C0.170905 33.5869 1.58106 34.644 2.91055 35.4106C3.17442 35.5627 4.75723 36.2854 5.58204 36.5785C5.49219 36.6965 5.40548 36.8266 5.34044 36.8977C4.96915 37.3041 4.57891 37.6926 4.22696 38.1166C3.45157 39.0508 2.7293 40.2139 3.05938 41.482C3.70743 43.9721 6.18672 43.577 8.25196 43.3193C8.03243 44.1902 7.77696 44.9691 8.49512 45.9313C9.4211 47.1715 10.8063 47.2939 12.1879 46.8547C12.5961 46.7248 13.2787 46.31 13.6893 46.5232C14.1147 46.7443 14.3988 47.4975 14.7418 47.8406C15.7369 48.8354 16.927 48.7287 18.1387 48.84C17.7324 50.0119 17.0979 51.1391 16.7383 52.3158C16.1945 54.0955 15.7834 55.8996 15.4293 57.7252C14.8514 60.7061 13.9815 63.7779 14.3408 66.8396C14.5055 68.242 14.9291 69.558 15.8107 70.6762C16.6652 71.7598 17.7932 72.559 18.7619 73.5299C21.0496 75.8232 19.9891 79.3078 19.6033 82.168C19.2352 84.8971 18.4654 87.8318 18.8443 90.5871C19.2543 93.568 21.4363 94.743 24.2049 95.1311C26.6996 95.4805 29.6188 96.3441 32.0734 95.4355C33.2516 94.9994 33.91 94.144 34.2629 93.1203C35.3461 93.6867 37.2363 93.2992 38.2377 93.0381C39.7606 92.6412 40.7299 91.7957 40.4549 90.1172C40.0717 87.7773 39.6779 85.4967 39.4945 83.1258C39.4027 81.9406 39.5225 80.6924 39.4672 79.5006C39.9354 79.5576 40.4031 79.6174 40.8693 79.6791C44.7049 80.1898 48.4469 80.5865 52.3154 80.1895C53.6428 80.0529 54.966 79.8721 56.2928 79.7295C56.002 80.8336 56.1141 82.2766 56.0781 83.1617C56.0012 85.0537 56.0781 86.943 56.0215 88.8324C55.9789 90.2537 56.1463 91.6598 57.4326 92.5102C58.3572 93.1217 59.4953 93.277 60.5637 93.0709C60.9078 94.5797 61.7266 95.816 63.524 96.4064C64.6445 96.7746 65.8842 96.8082 67.0529 96.8316C68.2736 96.8563 69.5055 96.9219 70.7258 96.8703C73.3381 96.7598 75.6225 95.8266 76.5897 93.2359C77.768 90.0801 77.0248 86.5391 76.4869 83.3313C76.2125 81.6955 75.915 80.0215 76.2268 78.3686C76.5225 76.8014 77.2375 75.3719 77.9277 73.949C79.4781 70.7535 80.8473 67.4455 81.1377 63.8688C81.3449 61.3148 81.0848 58.4652 80.2803 56.0287C79.9303 54.9682 79.4445 53.9227 78.6275 53.1426C79.1531 52.4754 79.5631 51.6975 79.8799 50.9586C80.7178 49.0047 79.8053 47.3869 78.3022 46.5428C78.424 46.3527 78.5232 46.1328 78.5932 45.8772C78.6076 45.8242 78.6145 45.7707 78.618 45.7172C78.8654 45.3137 79.2852 44.6365 79.6826 44.6123C80.0305 44.5912 80.5313 45.2635 80.8156 45.4371C81.4666 45.8338 82.2205 45.9354 82.9627 45.8158C83.2844 45.7641 83.6025 45.677 83.9184 45.5981C83.9311 45.5949 84.0768 45.6104 84.1781 45.61C84.182 45.6143 84.1855 45.6184 84.1895 45.6229C84.5994 46.1279 84.96 46.6287 85.5199 46.9891C86.5654 47.6609 87.7709 47.5455 88.8967 47.1315C89.6379 46.8588 90.3127 46.4301 91.0518 46.157C91.3277 46.0553 91.6943 46.0404 91.9709 45.9311C91.9238 45.9041 91.8854 45.8457 91.8732 45.7313C91.8787 45.7822 91.9303 45.8543 91.9881 45.9232C92.0131 45.9129 92.0387 45.9029 92.0619 45.8908C92.391 45.7172 92.173 45.9836 92.007 45.9457C92.0605 46.0078 92.1156 46.0662 92.1418 46.1014C92.7529 46.9227 93.484 47.9195 94.6477 47.7023C95.8742 47.4734 96.8043 46.1199 97.3373 45.0897C97.9924 43.8236 98.3389 42.4328 98.6596 41.0529C99.4059 37.84 100.234 34.5102 99.9389 31.1859ZM57.0557 39.3963C57.3572 38.6332 57.7916 37.9514 58.2186 37.2641C58.9838 38.5416 60.6 39.0293 61.8037 39.7959C63.2816 40.7375 64.7248 41.7531 66.1566 42.7637C68.2012 44.2065 70.2164 45.7322 72.5209 46.7445C73.3453 47.1066 74.6328 47.527 75.8211 47.5654C76.0328 47.6867 76.2484 47.8033 76.4768 47.9096C76.9764 48.1422 77.6498 48.3484 77.9666 48.8428C78.5754 49.7926 77.2846 51.526 76.6074 52.2C75.3598 53.4422 73.7297 52.2182 72.4705 51.5576C70.6475 50.601 68.8721 49.5557 67.0863 48.532C63.9373 46.727 60.6137 44.915 57.801 42.5969C57.3565 42.2307 56.7721 41.7504 56.6719 41.1447C56.5774 40.5719 56.8484 39.9203 57.0557 39.3963ZM38.4408 90.8258C38.1457 91.2061 36.6137 91.2008 36.1967 91.1973C35.674 91.1928 35.134 90.9934 34.6221 90.9975C34.6445 90.4619 34.6297 89.925 34.5998 89.4131C34.5203 88.0533 34.3756 86.7033 34.1709 85.3566C33.9281 83.7588 33.4395 81.8025 33.917 80.209C34.2348 79.1479 35.1189 79.142 36.0873 79.191C36.7623 79.225 37.4369 79.283 38.1107 79.3506C37.8957 79.9344 37.8356 80.6527 37.7943 81.0842C37.6465 82.6332 37.7154 84.2328 37.8389 85.7789C37.9178 86.7658 38.032 87.75 38.1797 88.7291C38.2516 89.2057 38.6996 90.4924 38.4408 90.8258ZM60.8225 81.575C60.7752 82.5803 60.7049 83.5844 60.6373 84.5885C60.507 86.5279 60.3713 88.4684 60.3424 90.4127C60.3404 90.5473 60.34 90.6814 60.3408 90.8152C59.4799 90.8555 58.5131 90.9035 58.2709 89.9582C58.1412 89.4521 58.2361 88.8719 58.2244 88.3535C58.2068 87.5848 58.1455 86.817 58.1256 86.048C58.0873 84.5678 58.1199 83.085 58.0721 81.6057C58.0525 80.9998 58.0858 80.2367 57.924 79.5797C57.9688 79.5764 58.0135 79.5721 58.0584 79.5689C58.7391 79.5223 60.3723 79.1379 60.7512 79.91C60.9756 80.3672 60.8449 81.0961 60.8225 81.575ZM78.8518 61.1703C79.0524 64.4121 78.3256 67.4988 77.0352 70.4641C75.8258 73.2434 74.134 75.8496 73.817 78.927C73.4949 82.0555 74.6152 85.193 74.8094 88.3037C74.9041 89.8236 74.8908 91.5289 74.1826 92.9186C73.6814 93.9024 72.6912 94.2914 71.6506 94.4455C70.5008 94.616 69.3152 94.5223 68.1588 94.5C67.0568 94.4793 65.9234 94.5309 64.8359 94.3211C63.9178 94.1443 63.1488 93.7947 62.8377 92.8566C62.3619 91.4223 62.6902 89.523 62.7631 88.0406C62.8549 86.1705 63.0037 84.3037 63.1115 82.4346C63.1791 81.2619 63.3428 79.9299 62.8236 78.8277C61.7078 76.4588 58.3982 77.1875 56.3559 77.4553C52.7092 77.9336 49.1893 78.502 45.4988 78.2076C42.3121 77.9535 39.1537 77.3572 35.9664 77.127C33.6615 76.9604 32.0447 78.0525 31.6275 80.382C31.1096 83.2729 32.0332 86.2666 32.2272 89.1572C32.3 90.2412 32.4531 91.5199 32.0572 92.5623C31.6596 93.609 30.2592 93.6055 29.3045 93.5885C27.9949 93.565 26.7123 93.3086 25.4184 93.1367C24.2949 92.9873 22.9666 92.9346 21.9963 92.2826C19.8606 90.8469 21.1055 86.6297 21.4174 84.585C21.8268 81.8998 22.4834 78.9914 22.2801 76.2707C22.1807 74.9402 21.8785 73.7516 21.0576 72.6805C20.2856 71.6736 19.2438 70.9393 18.3309 70.0709C16.1078 67.9565 16.3662 64.9105 16.8527 62.1092C17.4002 58.9568 18.0225 55.7699 18.9672 52.7119C19.4336 51.202 20.3549 49.8195 20.6109 48.2523C20.7104 47.6443 20.4596 47.0619 19.8283 46.8736C18.6432 46.5203 16.9223 47.0316 16.0916 45.9928C15.4563 45.1981 14.9967 44.4264 13.8996 44.2662C12.802 44.1057 11.9859 44.8647 10.9576 44.8922C9.59161 44.9285 10.6504 42.893 10.6432 42.0979C10.6377 41.5147 10.1418 40.9756 9.53926 40.994C8.74708 41.018 4.56251 42.1635 5.29258 40.3805C5.90821 38.8768 8.22481 37.95 8.0709 36.1272C7.98848 35.1514 7.13067 34.7572 6.31661 34.4445C5.31797 34.0607 4.38419 33.8217 3.47462 33.2357C2.65313 32.7066 1.56426 31.75 2.55196 30.8447C3.27462 30.1824 4.43165 30.0006 5.37012 30.0859C6.11622 30.1539 6.75313 29.1178 6.27969 28.5006C4.97208 26.7957 3.4629 24.8693 3.02227 22.718C2.96719 22.449 2.81817 21.7355 2.99337 21.4473C2.97715 21.526 3.17833 21.5272 3.38536 21.6322C4.07422 21.982 4.67012 22.54 5.19864 23.0951C5.84512 23.7742 6.92227 23.2256 6.96446 22.3639C7.04278 20.7602 6.14649 19.3813 5.79844 17.8629C5.58028 16.9113 5.22071 15.5688 5.48633 14.616C5.55899 14.3561 5.42794 14.3045 5.73028 14.5773C6.09669 14.908 6.35118 15.3576 6.58809 15.7836C7.04961 16.6137 7.39161 17.4938 7.74258 18.3738C8.07149 19.1986 9.43204 19.432 9.66075 18.3738C10.6303 13.8885 11.9221 7.50411 16.7111 5.53516C16.9111 5.45293 17.5231 5.15957 17.7475 5.28067C17.7436 5.27872 17.8039 5.50606 17.7922 5.75293C17.7639 6.35352 17.3859 7.01895 17.1516 7.5584C16.8428 8.26817 16.5596 8.98008 16.3164 9.71582C15.2842 12.8379 14.6213 16.0596 14.5834 19.3553C14.5451 22.7106 15.0266 26.099 15.791 29.3609C16.449 32.1691 17.2377 35.059 18.3822 37.7121C19.5023 40.3084 21.3545 42.2359 24.1715 42.8943C25.6416 43.2383 27.16 43.249 28.6607 43.2481C30.4811 43.2463 32.2779 43.3943 34.084 43.6154C37.7484 44.0641 41.3303 44.4047 45.0268 44.1754C48.4557 43.9625 51.8246 43.3842 55.1445 42.5248C55.6428 43.4324 56.5492 44.1238 57.3746 44.716C58.8453 45.7711 60.3477 46.8061 61.8717 47.7818C63.7205 48.9656 65.6479 50.025 67.5461 51.127C69.4295 52.2203 71.3158 53.3582 73.285 54.2926C74.4309 54.8361 75.6723 55.0775 76.8336 54.5939C76.8631 54.627 76.8951 54.6594 76.9301 54.6912C78.5516 56.1668 78.725 59.1232 78.8518 61.1703ZM96.8553 39.2662C96.5295 40.6107 96.2602 42.008 95.733 43.292C95.45 43.9814 95.0791 44.6057 94.5813 45.1607C94.5609 45.1834 94.3334 45.469 94.2035 45.577C94.0725 45.4621 93.9449 45.3436 93.8227 45.2191C93.166 44.5746 92.8022 44.0285 91.8154 44.2014C90.3871 44.4516 89.1494 45.3529 87.7219 45.5555C86.202 45.7711 86.1873 44.2254 85.0873 43.6701C84.4088 43.3275 83.7311 43.4391 83.0162 43.5393C82.1664 43.6582 81.9953 43.4049 81.3766 42.9189C79.2596 41.2561 77.333 43.2301 76.4004 45.2043C76.0553 45.3094 75.6988 45.3641 75.2643 45.3C74.1641 45.1371 73.1082 44.6041 72.144 44.0777C70.309 43.0764 68.6512 41.8168 66.9254 40.6473C65.5264 39.6992 64.1664 38.6873 62.7461 37.7713C61.916 37.2361 60.0248 36.7064 60.0178 35.5332C60.0098 34.1713 61.1002 32.8016 61.3996 31.4541C61.6289 31.5506 61.8713 31.6145 62.1295 31.6221C62.5227 31.634 62.8832 31.509 63.2307 31.342C63.4213 31.8068 63.6053 32.274 63.9535 32.6535C64.5699 33.3254 65.4738 33.585 66.3662 33.4801C68.3309 33.2492 69.5897 31.2793 70.4588 29.7C71.6045 27.6184 72.5164 25.4371 72.9801 23.0986C73.2029 21.9744 73.2012 20.8441 73.9051 19.8922C74.5875 18.9695 75.3893 18.2967 75.5762 17.1061C75.6705 16.5053 74.9938 15.9895 74.4992 16.4791C73.2656 17.7008 71.6883 18.5604 71.1828 20.3293C70.9133 21.2725 70.8641 22.2779 70.6652 23.2383C70.4404 24.3236 70.1293 25.3926 69.7186 26.4225C69.1268 27.9061 68.3584 29.6322 67.241 30.7965C66.7908 31.2656 66.0004 31.8555 65.4078 31.2592C64.9838 30.8326 64.8643 29.9369 64.5863 29.4092C64.3897 29.0356 63.8275 28.7803 63.417 28.9332C63.1484 29.0336 62.6428 29.3723 62.3647 29.3723C62.1025 29.3723 61.8338 28.9395 61.6453 28.6955C61.173 28.0846 60.7727 27.5975 60.1611 27.1147C59.0424 26.2316 58.1777 25.1469 57.4809 23.9061C56.1178 21.4789 55.2719 18.1234 56.6475 15.5176C57.9621 13.0273 61.426 12.4766 63.9486 12.1457C66.1201 11.8611 68.3412 11.6678 70.5572 11.6131C73.0982 12.0281 75.651 12.3643 78.1732 12.909C80.5637 13.425 84.0205 14.3162 85.2533 16.6611C86.382 18.8076 85.9924 21.4777 87.4912 23.477C88.9186 25.3807 91.2826 25.8719 93.4734 26.3713C93.6115 26.4029 93.752 26.4342 93.8934 26.466C92.9967 27.3898 92.424 28.9852 92.4693 30.0338C92.577 32.5127 95.5598 34.4402 97.9213 33.8627C97.7275 35.6916 97.2805 37.5117 96.8553 39.2662ZM94.0422 30.0227C93.8354 28.9279 94.3732 27.2857 95.4455 26.8856C95.8248 27.0199 96.1891 27.1844 96.5193 27.3996C97.3596 27.9477 97.6496 28.8637 97.8242 29.8078C97.9424 30.4467 98.0008 31.0897 98.0166 31.7342C96.6107 32.5018 94.3623 31.7186 94.0422 30.0227Z" fill="#FF6B55"/>
<path d="M84.0567 23.1127C83.5252 22.215 82.6897 21.5559 81.6252 21.4725C79.2952 21.2893 76.5491 23.9115 77.7176 26.274C78.0842 27.0156 79.0827 26.5746 79.1438 25.8879C79.2438 24.7664 80.7022 22.64 81.9985 23.7207C82.8957 24.4691 82.5793 26.201 83.8266 26.5527C84.1918 26.6555 84.5297 26.4773 84.7344 26.1832C85.2948 25.3781 84.495 23.8529 84.0567 23.1127Z" fill="#FF6B55"/>
</g>
<defs>
<clipPath id="clip0_1635_61640">
<rect width="100" height="100" fill="white"/>
</clipPath>
</defs>
</svg>
