<svg width="50" height="50" viewBox="0 0 50 50" fill="none" xmlns="http://www.w3.org/2000/svg">
<g clip-path="url(#clip0_1543_45945)">
<path d="M36.6699 0.156281C36.2989 0.234406 35.5664 0.498077 35.0586 0.751984C34.2774 1.13284 34.0039 1.32816 33.3008 2.04105C32.1192 3.23245 31.5723 4.34573 31.3379 6.00589C31.25 6.62112 31.25 7.00198 31.3379 7.57816L31.4551 8.33987L29.7266 10.0684C28.2715 11.5235 27.9492 11.8067 27.6465 11.8555C27.3633 11.8946 27.0996 12.0996 26.3282 12.8809L25.3614 13.8477L24.7657 13.3887C23.9844 12.7735 23.4473 12.4805 22.5879 12.168C21.4258 11.7578 20.5664 11.6992 16.4844 11.7383C12.9785 11.7774 12.6953 11.7969 12.0313 12.002C10.1563 12.5586 8.75003 13.6035 7.68558 15.2246L7.34378 15.7325L6.43558 15.7715C5.35159 15.8106 4.58987 15.9961 3.66214 16.4551C2.35354 17.0996 1.33792 18.1348 0.683622 19.4825C0.0683881 20.7617 2.87275e-05 21.2989 2.87275e-05 25.0489V28.3301L0.244169 28.5645C0.546904 28.877 0.917997 28.877 1.22073 28.5645L1.46487 28.3301V25.0782C1.46487 21.4258 1.5137 21.045 2.1094 19.9121C2.89065 18.4375 4.39456 17.4414 6.19143 17.2266L6.76761 17.1582L6.69925 17.4903C6.66018 17.6758 6.59183 19.3164 6.56253 21.1426L6.49417 24.4629L6.24026 25.0098C6.09378 25.3125 5.64456 26.0645 5.2344 26.6797C3.97464 28.5938 3.61331 29.6875 3.61331 31.709C3.61331 32.9492 3.75979 33.8965 4.09183 34.7559L4.27737 35.2539H4.0137C3.19339 35.2539 2.21683 34.5996 1.78714 33.75C1.56253 33.3203 1.52347 33.1055 1.49417 32.2266C1.44534 30.8887 1.41604 30.791 1.06448 30.6055C0.810576 30.4785 0.712919 30.4785 0.478544 30.5762C0.312529 30.6348 0.146513 30.7715 0.097685 30.8692C-0.058565 31.1426 -0.0195025 32.9004 0.146513 33.545C0.478544 34.7852 1.31839 35.791 2.50979 36.3575C3.0762 36.6211 3.31058 36.67 4.13089 36.6992L5.07815 36.7383L5.41995 37.2071L5.76175 37.6758V39.4727C5.76175 41.0352 5.83987 41.9922 6.01565 42.5977C6.05472 42.7149 5.97659 42.7735 5.74222 42.8223C4.68753 43.0469 3.31058 44.1309 2.80276 45.1367C1.99222 46.7578 2.08011 48.1934 3.06643 49.17C3.95511 50.0684 2.82229 50 17.0703 50C29.2481 49.9903 29.6192 49.9903 30.1074 49.8047C31.1231 49.4141 31.836 48.3594 31.836 47.2266C31.836 46.5918 31.6114 45.8301 31.377 45.6446C31.1133 45.4492 30.7324 45.4785 30.4785 45.7129C30.2637 45.918 30.2539 45.9766 30.3223 46.7285C30.4297 48.1055 30.0293 48.5352 28.6426 48.5352H27.8321V47.7051C27.8321 46.9434 27.8125 46.8457 27.5879 46.6309C27.2852 46.3184 26.9141 46.3184 26.6114 46.6309C26.3867 46.8457 26.3672 46.9434 26.3672 47.7051V48.5352H24.8535H23.3399V47.7051C23.3399 46.9434 23.3203 46.8457 23.0957 46.6309C22.793 46.3184 22.4219 46.3184 22.1192 46.6309C21.8946 46.8457 21.875 46.9434 21.875 47.7051V48.5352H21.0742C20.1465 48.5352 19.7461 48.3594 19.4727 47.8418C18.9649 46.8555 19.9121 45.0098 21.2305 44.4141C21.709 44.1992 21.836 44.1895 24.6778 44.1602L27.627 44.1309L28.3496 44.3848C29.1407 44.6582 29.4824 44.6192 29.6778 44.2481C29.9707 43.7012 29.5801 43.2032 28.6328 42.92C28.1739 42.7832 28.0371 42.6953 28.0762 42.5879C28.2422 42.0508 28.3301 41.2207 28.3789 39.4727C28.4473 37.5 28.4473 37.5 28.7305 37.1192L29.0039 36.7383L29.9707 36.6992C30.8399 36.67 30.9961 36.6309 31.6699 36.2989C32.8321 35.7227 33.6133 34.7754 33.9356 33.5254C34.1602 32.6758 34.1504 22.0996 33.9258 21.0254C33.75 20.1758 33.3692 19.2774 32.9102 18.6035L32.5977 18.1446L32.8516 17.8809C32.9981 17.7344 33.1348 17.4512 33.1641 17.2657C33.2129 16.9825 33.5157 16.6309 34.9512 15.2051L36.6699 13.4864L37.3535 13.584C38.1055 13.6914 39.2481 13.584 40.1465 13.3203L40.6543 13.1641L43.3496 15.8594C46.1133 18.6231 46.3282 18.7891 46.9336 18.6719C47.2461 18.6133 49.6192 16.3672 49.8633 15.8985C50.0293 15.586 50.0391 15.2051 49.8926 14.9121C49.834 14.795 48.5742 13.4864 47.0996 12.002C44.7657 9.65823 44.4239 9.27737 44.5117 9.12112C44.668 8.82816 44.9219 7.4805 44.9219 6.95316C44.9219 6.36722 44.6778 6.05472 44.1992 6.05472C43.7012 6.05472 43.4961 6.35745 43.4278 7.18753C43.3985 7.56839 43.2617 8.22269 43.125 8.63284C42.9883 9.043 42.8711 9.47269 42.8711 9.58987C42.8711 9.71683 43.0664 10 43.3301 10.2735L43.7891 10.7422L42.9199 11.6211L42.0508 12.4903L41.543 12.0117C41.2598 11.7383 40.9668 11.5235 40.8887 11.5235C40.8106 11.5235 40.4492 11.6309 40.0977 11.7676C38.9551 12.1973 37.9102 12.2559 36.543 11.9532C36.2305 11.8848 36.1817 11.9239 34.2481 13.8575L32.2754 15.8203L30.7129 14.2578L29.1504 12.6953L31.084 10.7617C32.1387 9.6973 33.0078 8.7598 33.0078 8.68167C33.0078 8.60355 32.9395 8.21292 32.8516 7.81253C32.4903 6.07425 33.1055 4.16995 34.4532 2.91019C36.5723 0.927765 39.9317 1.01566 41.8946 3.1055C42.2461 3.46683 42.6367 3.91605 42.7735 4.10159C43.3692 4.88284 44.3946 4.16995 43.9356 3.29105C43.8672 3.17386 43.6035 2.80276 43.3399 2.47073C41.836 0.576202 39.1602 -0.351532 36.6699 0.156281ZM48.3399 15.3809C48.3399 15.4395 47.9688 15.8594 47.5098 16.3086L46.6797 17.1387L44.9024 15.3516L43.1153 13.5742L43.9942 12.6953L44.8731 11.8164L46.6016 13.545C47.5586 14.502 48.3399 15.3223 48.3399 15.3809ZM16.0449 13.6914C15.918 14.5508 15.9766 16.4942 16.1524 17.2364C17.041 20.9961 20 23.1739 24.8535 23.6426L26.0547 23.7598L26.1133 24.209C26.2305 25.0879 26.5821 25.8985 27.3731 27.0801C28.7207 29.1211 29.0137 29.9512 29.0137 31.7383C29.0137 33.1055 28.7989 34.043 28.2227 35.1465C27.4512 36.6211 26.3184 37.7442 24.8535 38.4766C23.3399 39.2188 23.5645 39.1992 17.3145 39.2383C11.9532 39.2676 11.6797 39.2578 10.8789 39.0625C8.68167 38.545 6.91409 37.1582 5.8594 35.1367C5.293 34.0625 5.07815 33.125 5.07815 31.7871C5.07815 29.9707 5.39065 29.0528 6.64065 27.1973C7.96878 25.2344 8.00784 25.0782 8.00784 21.3867C8.00784 18.2422 8.08597 17.666 8.63284 16.5528C9.24807 15.3223 10.1758 14.4043 11.4063 13.7989C12.3242 13.3594 13.1934 13.2032 14.8242 13.1934L16.1231 13.1836L16.0449 13.6914ZM21.9434 13.4961C23.8574 14.1797 25.0879 15.4102 25.8106 17.3828C25.9864 17.8418 26.0157 18.2129 26.0547 20.0879L26.0938 22.2657H25.7617C25.2442 22.2559 23.4375 21.9922 22.8223 21.8262C19.4825 20.9375 17.6758 18.9356 17.4219 15.8301C17.3633 15.1465 17.5098 13.4668 17.6465 13.252C17.6758 13.1934 18.4473 13.1836 19.4727 13.2032C21.0547 13.2422 21.3184 13.2715 21.9434 13.4961ZM29.7168 15.3125L31.543 17.1387L31.0254 17.6563L30.5176 18.1641L28.6621 16.3086L26.8067 14.4532L27.2949 13.9649C27.5586 13.7012 27.8028 13.4766 27.8321 13.4766C27.8614 13.4766 28.711 14.2969 29.7168 15.3125ZM28.7793 18.4766C30.0586 19.7461 30.0977 19.7754 30.5176 19.7754C30.8594 19.7754 31.0059 19.7168 31.25 19.4825C31.6016 19.1407 31.5821 19.1309 32.0899 20.166C32.2657 20.5371 32.461 21.0938 32.5196 21.3965C32.5879 21.7578 32.6172 23.9844 32.5977 27.5977L32.5684 33.252L32.3047 33.75C31.8653 34.5801 30.8789 35.2539 30.1074 35.2539C29.834 35.2539 29.834 35.2344 30.0782 34.5313C30.3711 33.6719 30.4883 32.8614 30.4785 31.6895C30.4785 29.7266 30.1074 28.5938 28.8282 26.6407C27.5196 24.6387 27.5977 25 27.5196 21.1426C27.4903 19.3164 27.4219 17.6758 27.3926 17.5C27.3535 17.334 27.3535 17.1875 27.4024 17.1875C27.4414 17.1875 28.0664 17.7735 28.7793 18.4766ZM8.61331 39.8047C8.97464 39.9903 9.65823 40.2539 10.127 40.4004L10.9864 40.6739L16.6016 40.7032C22.5391 40.7422 23.0567 40.7129 24.2969 40.293C24.9707 40.0586 26.0742 39.5215 26.6504 39.1407L26.9824 38.9258L26.9141 40.1465C26.875 40.8106 26.7774 41.6504 26.6992 42.0117L26.543 42.6758H24.3164C23.0664 42.6758 21.8555 42.7246 21.5625 42.7832C19.1602 43.2813 17.3633 45.9473 18.0078 48.0762L18.1446 48.5352H17.0313H15.9278L16.0645 48.1348C16.6407 46.4942 15.459 44.0625 13.6621 43.1934C12.7344 42.7442 12.2266 42.6758 9.77542 42.6758H7.53909L7.4219 42.2559C7.36331 42.0313 7.28518 41.1914 7.25589 40.4004L7.19729 38.9551L7.57815 39.209C7.793 39.3555 8.25198 39.6192 8.61331 39.8047ZM12.8516 44.4141C14.1699 45.0098 15.1172 46.8555 14.6094 47.8418C14.336 48.3594 13.9356 48.5352 13.0176 48.5352H12.2071V47.7051C12.2071 46.9434 12.1875 46.8457 11.9629 46.6309C11.6602 46.3184 11.2891 46.3184 10.9864 46.6309C10.7617 46.8457 10.7422 46.9434 10.7422 47.7051V48.5352H9.22854H7.71487V47.7051C7.71487 46.9434 7.69534 46.8457 7.47073 46.6309C7.168 46.3184 6.7969 46.3184 6.49417 46.6309C6.26956 46.8457 6.25003 46.9434 6.25003 47.7051V48.5352H5.44925C4.52151 48.5352 4.12112 48.3594 3.84768 47.8418C3.50589 47.1778 3.87698 45.8985 4.61917 45.1367C5.52737 44.1992 5.80081 44.1407 9.37503 44.17C12.2559 44.1895 12.3731 44.1992 12.8516 44.4141Z" fill="url(#paint0_linear_1543_45945)"/>
<path d="M12.0122 18.0664C11.2993 18.1738 10.4204 18.5058 10.2056 18.75C9.98096 19.0039 9.98096 19.4726 10.2056 19.7265C10.4204 19.9609 10.9185 19.9804 11.3188 19.7754C11.8657 19.4922 12.7446 19.4238 13.6333 19.5996L14.4536 19.7656L14.6978 19.5312C15.0298 19.2187 15.0298 18.7402 14.6978 18.4765C14.2583 18.125 12.9302 17.9297 12.0122 18.0664Z" fill="url(#paint1_linear_1543_45945)"/>
<path d="M16.016 23.0273C13.6136 23.6621 12.2953 26.2207 13.1839 28.5351C13.6234 29.6582 14.9515 30.8593 15.9378 31.0253L16.3089 31.0839V31.9921V32.9101H13.0667C10.1175 32.9101 9.77573 32.8906 9.42417 32.7246C8.67221 32.3828 8.23276 31.7675 8.13511 30.9472C8.05698 30.2929 7.84214 30.039 7.37339 30.039C6.80698 30.039 6.6019 30.3515 6.68003 31.1035C6.80698 32.3339 7.61753 33.4863 8.75034 34.0429L9.32651 34.3261L16.8363 34.3554C25.1468 34.3847 24.9124 34.3945 25.8402 33.7597C26.4847 33.3203 27.0121 32.5976 27.2464 31.8457C27.6175 30.664 27.432 30.039 26.7093 30.039C26.2601 30.039 25.9769 30.3418 25.9769 30.8105C25.9769 31.5429 25.4789 32.3144 24.7757 32.666L24.2777 32.9101H21.0257H17.764L17.7933 32.0214L17.8226 31.123L18.2132 31.0058C20.3324 30.371 21.6214 28.1152 21.055 26.0156C20.6449 24.4531 19.346 23.2519 17.7738 22.9492C17.0804 22.8222 16.7679 22.832 16.016 23.0273ZM18.2621 24.6582C20.2054 25.6445 20.1957 28.4082 18.2523 29.3847C16.1332 30.4394 13.8285 28.5253 14.4828 26.2597C14.7367 25.4003 15.5472 24.6289 16.4359 24.4043C16.9242 24.2773 17.7445 24.3945 18.2621 24.6582Z" fill="url(#paint2_linear_1543_45945)"/>
<path d="M21.3668 18.0762C20.6051 18.1836 20.1364 18.3984 19.9997 18.7012C19.8532 19.0332 19.9899 19.4336 20.3317 19.6191C20.5563 19.7461 20.654 19.7461 21.1129 19.6289C21.8356 19.4336 22.7926 19.4727 23.4372 19.7168C23.7301 19.834 24.0915 19.9219 24.2379 19.9219C24.7946 19.9219 25.1168 19.1602 24.7165 18.7598C24.4626 18.5059 23.5446 18.1836 22.7731 18.0664C22.4118 18.0176 22.0797 17.9785 22.0211 17.9785C21.9723 17.9883 21.6696 18.0273 21.3668 18.0762Z" fill="url(#paint3_linear_1543_45945)"/>
<path d="M36.8453 3.21304C35.8004 3.60366 35.0972 4.26772 34.5894 5.34194C34.2379 6.10366 34.2183 7.37319 34.5601 8.23257C35.1949 9.8439 37.0308 10.8693 38.7594 10.5568C40.0094 10.3322 40.9664 9.58999 41.5426 8.39858C41.816 7.82241 41.8453 7.67593 41.8453 6.78726C41.8453 5.92788 41.816 5.74233 41.5816 5.25405C41.2203 4.4728 40.5367 3.76968 39.7652 3.39858C39.2183 3.12515 39.0133 3.07632 38.2418 3.05679C37.5484 3.02749 37.2457 3.06655 36.8453 3.21304ZM39.0621 4.69741C39.648 4.96108 39.9215 5.22476 40.1949 5.81069C40.9469 7.39272 39.8336 9.12124 38.0855 9.12124C36.1129 9.12124 35.0679 6.92397 36.2789 5.33218C36.8648 4.56069 38.1344 4.27749 39.0621 4.69741Z" fill="url(#paint4_linear_1543_45945)"/>
<path d="M15.4495 3.67194C15.1273 3.89655 15.0394 4.18952 15.1859 4.54108C15.3323 4.90241 18.3109 9.54108 18.5843 9.83405C18.9944 10.293 19.8245 9.961 19.8245 9.34577C19.8245 9.10163 16.68 4.15045 16.2991 3.77936C15.9769 3.47663 15.762 3.44733 15.4495 3.67194Z" fill="url(#paint5_linear_1543_45945)"/>
<path d="M23.2126 5.18558C22.8513 5.40042 22.8513 5.66409 23.2517 8.26175C23.5739 10.3809 23.6716 10.8203 23.8474 11.0059C24.1892 11.377 24.8239 11.2598 24.9997 10.791C25.0974 10.5469 24.404 5.71292 24.2282 5.38089C24.0622 5.07815 23.5642 4.9805 23.2126 5.18558Z" fill="url(#paint6_linear_1543_45945)"/>
<path d="M34.8046 19.873C34.4921 20.1953 34.5116 20.6543 34.8632 20.9082C35.1952 21.1523 40.5272 21.6308 40.9179 21.4453C41.3768 21.2305 41.4354 20.4394 40.996 20.2051C40.83 20.1172 36.0643 19.6387 35.2245 19.6289C35.1268 19.6289 34.9413 19.7363 34.8046 19.873Z" fill="url(#paint7_linear_1543_45945)"/>
<path d="M35.8597 24.1895C35.5277 24.4727 35.4984 24.834 35.7621 25.1367C35.9671 25.3809 36.3382 25.4883 39.9906 26.377C42.1976 26.9043 44.1312 27.3438 44.307 27.3438C44.9125 27.3438 45.2347 26.6406 44.8343 26.2012C44.7367 26.0938 44.4632 25.957 44.2289 25.8984C42.9105 25.5371 36.4652 24.0234 36.2796 24.0234C36.1527 24.0234 35.9671 24.1016 35.8597 24.1895Z" fill="url(#paint8_linear_1543_45945)"/>
</g>
<defs>
<linearGradient id="paint0_linear_1543_45945" x1="-0.000976562" y1="25.01" x2="49.9956" y2="25.01" gradientUnits="userSpaceOnUse">
<stop stop-color="#F86CA7"/>
<stop offset="1" stop-color="#FF7F18"/>
</linearGradient>
<linearGradient id="paint1_linear_1543_45945" x1="10.0371" y1="18.9696" x2="14.9468" y2="18.9696" gradientUnits="userSpaceOnUse">
<stop stop-color="#F86CA7"/>
<stop offset="1" stop-color="#FF7F18"/>
</linearGradient>
<linearGradient id="paint2_linear_1543_45945" x1="6.66406" y1="28.6154" x2="27.4327" y2="28.6154" gradientUnits="userSpaceOnUse">
<stop stop-color="#F86CA7"/>
<stop offset="1" stop-color="#FF7F18"/>
</linearGradient>
<linearGradient id="paint3_linear_1543_45945" x1="19.9414" y1="18.9502" x2="24.895" y2="18.9502" gradientUnits="userSpaceOnUse">
<stop stop-color="#F86CA7"/>
<stop offset="1" stop-color="#FF7F18"/>
</linearGradient>
<linearGradient id="paint4_linear_1543_45945" x1="34.3145" y1="6.83026" x2="41.8453" y2="6.83026" gradientUnits="userSpaceOnUse">
<stop stop-color="#F86CA7"/>
<stop offset="1" stop-color="#FF7F18"/>
</linearGradient>
<linearGradient id="paint5_linear_1543_45945" x1="15.1172" y1="6.78645" x2="19.8245" y2="6.78645" gradientUnits="userSpaceOnUse">
<stop stop-color="#F86CA7"/>
<stop offset="1" stop-color="#FF7F18"/>
</linearGradient>
<linearGradient id="paint6_linear_1543_45945" x1="22.9463" y1="8.15141" x2="25.0091" y2="8.15141" gradientUnits="userSpaceOnUse">
<stop stop-color="#F86CA7"/>
<stop offset="1" stop-color="#FF7F18"/>
</linearGradient>
<linearGradient id="paint7_linear_1543_45945" x1="34.584" y1="20.558" x2="41.2958" y2="20.558" gradientUnits="userSpaceOnUse">
<stop stop-color="#F86CA7"/>
<stop offset="1" stop-color="#FF7F18"/>
</linearGradient>
<linearGradient id="paint8_linear_1543_45945" x1="35.585" y1="25.6836" x2="45.0115" y2="25.6836" gradientUnits="userSpaceOnUse">
<stop stop-color="#F86CA7"/>
<stop offset="1" stop-color="#FF7F18"/>
</linearGradient>
<clipPath id="clip0_1543_45945">
<rect width="50" height="50" fill="white"/>
</clipPath>
</defs>
</svg>
