<svg width="495" height="582" viewBox="0 0 495 582" fill="none" xmlns="http://www.w3.org/2000/svg">
<path d="M250.111 28.186C106.654 48.7604 52.1454 124.091 42.8235 159.185C-17.2057 376.469 215.901 498.012 262.431 515.307C435.245 588.268 426.847 433.978 428.32 391.267C430.13 335.894 430.732 252.229 434.567 222.345C438.401 192.461 429.432 2.46801 250.111 28.186Z" stroke="#FFEAE7" stroke-width="2"/>
<path d="M298.483 26.479C154.509 20.7409 87.6518 84.9468 72.2198 117.767C-25.5887 320.557 180.461 482.267 222.845 507.697C378.686 610.722 398.248 457.488 407.377 415.757C419.114 361.636 434.763 279.477 443.892 250.787C453.021 222.096 478.451 33.6517 298.483 26.479Z" fill="#FFEAE7"/>
</svg>
