<svg width="49" height="49" viewBox="0 0 49 49" fill="none" xmlns="http://www.w3.org/2000/svg">
<g opacity="0.05">
<mask id="mask0_2004_6" style="mask-type:alpha" maskUnits="userSpaceOnUse" x="0" y="0" width="49" height="49">
<rect width="49" height="49" fill="#D9D9D9"/>
</mask>
<g mask="url(#mask0_2004_6)">
<path d="M22.8075 17.9262C22.2161 20.3161 22.5673 22.8273 23.7889 24.9432C25.0105 27.0591 27.0096 28.6188 29.3751 29.3015L39.929 32.3553C45.8312 34.1906 51.1362 27.3453 47.8002 22.1934C46.0595 19.3598 43.2111 17.8867 41.4722 14.7431C39.5543 11.553 39.492 8.39646 38.0786 5.35518C35.1877 0.0679545 26.7667 1.33469 25.4439 7.26642L22.8075 17.9262Z" fill="#FF6B55"/>
<path d="M6.29835 11.7093C7.31184 14.7006 11.5282 15.0001 14.4479 14.026C23.4566 10.9594 20.5466 2.35961 11.6628 5.08251C7.87635 6.28557 5.51676 9.20204 6.29835 11.7093Z" fill="#FF6B55"/>
<path d="M17.228 20.556C15.6874 17.8877 11.3522 17.4977 7.57044 19.6811C-1.38034 25.2046 3.89801 34.347 13.1528 29.3501C16.9346 27.1667 18.7644 23.2173 17.228 20.556Z" fill="#FF6B55"/>
<path d="M28.5757 38.4911C26.2682 40.5255 24.4235 44.3338 26.5073 46.7071C30.6548 50.9411 40.2059 42.618 37.4291 37.7425C35.7471 35.0435 31.7667 35.647 28.5757 38.4911Z" fill="#FF6B55"/>
<path d="M24.3079 32.8189C22.7714 30.1576 18.4362 29.7676 14.6544 31.951C5.6996 37.4675 10.9779 46.6098 20.2368 41.62C24.0186 39.4366 25.8484 35.4872 24.3079 32.8189Z" fill="#FF6B55"/>
</g>
</g>
</svg>
