<svg width="220" height="57" viewBox="0 0 220 57" fill="none" xmlns="http://www.w3.org/2000/svg">
<path opacity="0.25" d="M63.0151 6.66792L50.8543 3.8717L45.8794 9.24906L33.1658 7.31321L29.2965 13.3358L16.5829 12.2604L16.0302 18.7132L3.86935 19.5736L7.73869 26.0264L0 30.3283L11.0553 34.4151L12.1608 41.083L24.8744 41.5132L30.9548 47.7509L42.5628 46.4604L50.8543 52.0528L61.9095 49.6868L71.3065 54.8491L81.2563 51.6226L91.7588 56.3547L100.603 52.6981L111.658 57L119.95 52.9132L131.005 56.5698L138.744 52.0528L150.352 55.2792L156.985 50.3321L169.146 53.1283L174.673 47.7509L187.387 49.6868L190.704 43.8792L203.417 44.7396L204.523 38.5019L216.683 37.6415L212.261 30.9736L220 26.6717L208.945 22.5849L207.839 15.917L195.126 15.4868L189.598 9.24906L177.437 10.7547L169.698 4.94717L158.643 7.31321L149.246 2.15094L139.296 5.37736L128.794 0.645283L119.95 4.30189L108.894 0L100.603 4.30189L88.995 0.430189L81.2563 5.16226L69.6482 1.72075L63.0151 6.66792Z" fill="#F46F30"/>
</svg>
