<svg width="263" height="59" viewBox="0 0 263 59" fill="none" xmlns="http://www.w3.org/2000/svg">
<mask id="path-1-inside-1_1635_61070" fill="white">
<path d="M163.734 53.2416C188.404 52.7365 207.197 51.7986 225.761 48.7884C232.442 47.7086 239.015 45.953 245.5 44.1168C248.372 43.3058 251.097 41.7576 253.493 40.1164C257.446 37.4067 257.612 34.5574 253.982 31.6628C251.559 29.7297 248.781 28.0494 245.916 26.623C238.439 22.9008 230.271 20.499 222.061 18.2764C201.774 12.8056 180.949 9.54907 159.827 7.48416C135.843 5.14271 111.815 4.64275 87.711 6.11082C69.9614 7.18997 52.3131 9.09145 34.8392 12.1786C24.9794 13.9234 15.131 15.6469 5.27087 17.3813C5.13884 17.4068 5.01888 17.4319 4.89892 17.457C2.31466 17.8503 0.76145 17.319 0.447384 15.9396C0.146483 14.5911 1.29713 13.6309 3.98526 13.0981C20.8331 9.72959 37.6535 6.26795 54.7883 4.1962C73.1988 1.97541 91.6854 0.546478 110.265 0.410601C141.808 0.167552 172.979 2.80187 203.679 8.87117C215.834 11.2698 227.85 14.1646 239.286 18.4491C244.551 20.4295 249.558 22.9624 254.47 25.551C256.599 26.6685 258.436 28.3921 259.947 30.1479C263.322 34.0446 263.139 38.494 259.215 42.0389C256.931 44.1049 254.128 45.8544 251.228 47.2415C244.371 50.5228 236.8 52.0832 229.181 53.2899C204.715 57.1959 180.042 58.2866 155.263 58.0638C145.218 57.9751 135.175 57.9386 125.135 57.6302C112.143 57.2262 99.1493 56.7804 86.1913 55.9674C74.0082 55.2006 61.8405 54.1824 49.7446 52.7958C42.9019 52.01 36.1536 50.4682 29.4879 48.8712C26.3438 48.1132 23.2502 46.7262 20.571 45.0947C14.5945 41.4351 14.1067 36.1205 18.9273 31.2585C21.7754 28.3888 25.4562 26.525 29.3403 24.9468C38.0504 21.4231 47.2402 19.179 56.5663 17.3796C69.4694 14.8909 82.5278 13.735 95.7162 13.8813C99.0041 13.9129 100.504 14.6447 100.401 16.185C100.305 17.5893 98.9512 18.2742 95.8644 18.4655C88.0276 18.9688 80.1582 19.2329 72.3557 20.0278C59.0029 21.4031 45.9631 24.1265 33.5203 28.7213C30.6928 29.7608 27.9114 31.081 25.4536 32.6721C19.7827 36.3721 20.1084 39.8106 26.376 42.4668C29.3442 43.7223 32.5435 44.6771 35.7476 45.4225C45.8229 47.7682 56.1615 49.0071 66.5518 49.6482C86.3153 50.8719 106.088 52.0117 125.895 52.753C140.451 53.3115 155.018 53.1484 163.734 53.2416Z"/>
</mask>
<path d="M163.734 53.2416C188.404 52.7365 207.197 51.7986 225.761 48.7884C232.442 47.7086 239.015 45.953 245.5 44.1168C248.372 43.3058 251.097 41.7576 253.493 40.1164C257.446 37.4067 257.612 34.5574 253.982 31.6628C251.559 29.7297 248.781 28.0494 245.916 26.623C238.439 22.9008 230.271 20.499 222.061 18.2764C201.774 12.8056 180.949 9.54907 159.827 7.48416C135.843 5.14271 111.815 4.64275 87.711 6.11082C69.9614 7.18997 52.3131 9.09145 34.8392 12.1786C24.9794 13.9234 15.131 15.6469 5.27087 17.3813C5.13884 17.4068 5.01888 17.4319 4.89892 17.457C2.31466 17.8503 0.76145 17.319 0.447384 15.9396C0.146483 14.5911 1.29713 13.6309 3.98526 13.0981C20.8331 9.72959 37.6535 6.26795 54.7883 4.1962C73.1988 1.97541 91.6854 0.546478 110.265 0.410601C141.808 0.167552 172.979 2.80187 203.679 8.87117C215.834 11.2698 227.85 14.1646 239.286 18.4491C244.551 20.4295 249.558 22.9624 254.47 25.551C256.599 26.6685 258.436 28.3921 259.947 30.1479C263.322 34.0446 263.139 38.494 259.215 42.0389C256.931 44.1049 254.128 45.8544 251.228 47.2415C244.371 50.5228 236.8 52.0832 229.181 53.2899C204.715 57.1959 180.042 58.2866 155.263 58.0638C145.218 57.9751 135.175 57.9386 125.135 57.6302C112.143 57.2262 99.1493 56.7804 86.1913 55.9674C74.0082 55.2006 61.8405 54.1824 49.7446 52.7958C42.9019 52.01 36.1536 50.4682 29.4879 48.8712C26.3438 48.1132 23.2502 46.7262 20.571 45.0947C14.5945 41.4351 14.1067 36.1205 18.9273 31.2585C21.7754 28.3888 25.4562 26.525 29.3403 24.9468C38.0504 21.4231 47.2402 19.179 56.5663 17.3796C69.4694 14.8909 82.5278 13.735 95.7162 13.8813C99.0041 13.9129 100.504 14.6447 100.401 16.185C100.305 17.5893 98.9512 18.2742 95.8644 18.4655C88.0276 18.9688 80.1582 19.2329 72.3557 20.0278C59.0029 21.4031 45.9631 24.1265 33.5203 28.7213C30.6928 29.7608 27.9114 31.081 25.4536 32.6721C19.7827 36.3721 20.1084 39.8106 26.376 42.4668C29.3442 43.7223 32.5435 44.6771 35.7476 45.4225C45.8229 47.7682 56.1615 49.0071 66.5518 49.6482C86.3153 50.8719 106.088 52.0117 125.895 52.753C140.451 53.3115 155.018 53.1484 163.734 53.2416Z" fill="#FF6B55"/>
<path d="M163.734 53.2416L163.713 55.2415L163.744 55.2418L163.775 55.2412L163.734 53.2416ZM225.761 48.7884L225.442 46.8141L225.441 46.8142L225.761 48.7884ZM245.5 44.1169L244.956 42.1921L244.955 42.1925L245.5 44.1169ZM253.493 40.1164L254.623 41.7663L254.623 41.7661L253.493 40.1164ZM253.982 31.6628L252.736 33.2264L252.736 33.2264L253.982 31.6628ZM245.916 26.623L245.024 28.4134L245.024 28.4134L245.916 26.623ZM222.061 18.2764L222.583 16.3459L222.581 16.3454L222.061 18.2764ZM159.827 7.48416L160.021 5.49365L160.021 5.49363L159.827 7.48416ZM87.711 6.11082L87.8325 8.10713L87.8327 8.10712L87.711 6.11082ZM34.8392 12.1786L34.4911 10.2091L34.4905 10.2092L34.8392 12.1786ZM5.27087 17.3813L4.92425 15.4115L4.90772 15.4144L4.89125 15.4176L5.27087 17.3813ZM4.89892 17.457L5.19999 19.4342L5.25454 19.4259L5.30855 19.4146L4.89892 17.457ZM0.447384 15.9396L-1.50464 16.375L-1.50272 16.3834L0.447384 15.9396ZM3.98526 13.0981L4.37428 15.0599L4.37752 15.0593L3.98526 13.0981ZM54.7883 4.1962L54.5487 2.2106L54.5481 2.21067L54.7883 4.1962ZM110.265 0.410601L110.28 2.41054L110.281 2.41054L110.265 0.410601ZM203.679 8.87117L203.291 10.8332L203.292 10.8333L203.679 8.87117ZM239.286 18.4491L239.99 16.5772L239.987 16.5763L239.286 18.4491ZM254.47 25.551L253.537 27.3203L253.54 27.322L254.47 25.551ZM259.947 30.1479L258.432 31.4526L258.435 31.4572L259.947 30.1479ZM259.215 42.0389L257.874 40.5548L257.873 40.5556L259.215 42.0389ZM251.228 47.2415L250.365 45.4372L250.365 45.4374L251.228 47.2415ZM229.181 53.2899L228.868 51.3145L228.866 51.3149L229.181 53.2899ZM155.263 58.0638L155.281 56.0638L155.28 56.0638L155.263 58.0638ZM125.135 57.6302L125.073 59.6292L125.074 59.6293L125.135 57.6302ZM86.1913 55.9674L86.0658 57.9635L86.0662 57.9635L86.1913 55.9674ZM49.7446 52.7958L49.5165 54.7827L49.5169 54.7828L49.7446 52.7958ZM29.4879 48.8712L29.0193 50.8155L29.0221 50.8162L29.4879 48.8712ZM20.571 45.0947L19.5267 46.8003L19.5309 46.8029L20.571 45.0947ZM18.9273 31.2585L17.5077 29.8495L17.507 29.8503L18.9273 31.2585ZM29.3403 24.9468L28.5902 23.0928L28.5874 23.0939L29.3403 24.9468ZM56.5663 17.3796L56.1874 15.4158L56.1873 15.4158L56.5663 17.3796ZM95.7162 13.8813L95.6942 15.8811L95.6971 15.8812L95.7162 13.8813ZM100.401 16.185L102.396 16.3215L102.396 16.3189L100.401 16.185ZM95.8644 18.4655L95.7405 16.4693L95.7361 16.4696L95.8644 18.4655ZM72.3557 20.0278L72.1529 18.0381L72.1507 18.0383L72.3557 20.0278ZM33.5203 28.7213L34.2106 30.5985L34.2133 30.5975L33.5203 28.7213ZM25.4536 32.6721L24.3666 30.9932L24.3606 30.9971L25.4536 32.6721ZM26.376 42.4668L25.5957 44.3083L25.597 44.3088L26.376 42.4668ZM35.7476 45.4225L36.201 43.4746L36.2007 43.4746L35.7476 45.4225ZM66.5518 49.6482L66.6752 47.6521L66.6748 47.652L66.5518 49.6482ZM125.895 52.753L125.971 50.7545L125.97 50.7544L125.895 52.753ZM163.775 55.2412C188.463 54.7357 207.373 53.7963 226.082 50.7626L225.441 46.8142C207.022 49.8009 188.344 50.7373 163.693 51.242L163.775 55.2412ZM226.081 50.7628C232.884 49.6632 239.551 47.8798 246.045 46.0412L244.955 42.1925C238.479 44.0262 232.001 45.754 225.442 46.8141L226.081 50.7628ZM246.044 46.0416C249.216 45.1458 252.147 43.4624 254.623 41.7663L252.362 38.4664C250.046 40.0528 247.528 41.4658 244.956 42.1921L246.044 46.0416ZM254.623 41.7661C256.767 40.2969 258.441 38.4273 258.578 36.075C258.716 33.6878 257.227 31.6925 255.229 30.0992L252.736 33.2264C254.367 34.5277 254.61 35.4044 254.585 35.8429C254.557 36.3163 254.172 37.2262 252.362 38.4666L254.623 41.7661ZM255.229 30.0992C252.67 28.0581 249.766 26.3056 246.807 24.8326L245.024 28.4134C247.796 29.7931 250.447 31.4013 252.736 33.2264L255.229 30.0992ZM246.807 24.8326C239.136 21.014 230.798 18.57 222.583 16.3459L221.538 20.2069C229.743 22.428 237.741 24.7875 245.024 28.4134L246.807 24.8326ZM222.581 16.3454C202.157 10.8375 181.216 7.56572 160.021 5.49365L159.632 9.47466C180.681 11.5324 201.391 14.7738 221.54 20.2074L222.581 16.3454ZM160.021 5.49363C135.935 3.14226 111.802 2.63984 87.5893 4.11453L87.8327 8.10712C111.828 6.64566 135.75 7.14317 159.632 9.47469L160.021 5.49363ZM87.5895 4.11452C69.7786 5.19738 52.0532 7.10638 34.4911 10.2091L35.1873 14.1481C52.5731 11.0765 70.1442 9.18255 87.8325 8.10713L87.5895 4.11452ZM34.4905 10.2092C24.632 11.9538 14.7867 13.6768 4.92425 15.4115L5.61748 19.351C15.4753 17.6171 25.3268 15.8931 35.1878 14.148L34.4905 10.2092ZM4.89125 15.4176C4.74206 15.4464 4.60781 15.4746 4.48928 15.4994L5.30855 19.4146C5.42995 19.3892 5.53562 19.3671 5.65048 19.3449L4.89125 15.4176ZM4.59784 15.4798C3.44863 15.6547 2.78178 15.5774 2.46749 15.4702C2.33148 15.4238 2.31811 15.3911 2.34864 15.4226C2.38754 15.4628 2.39948 15.5045 2.39748 15.4958L-1.50272 16.3834C-1.16774 17.8547 -0.122332 18.8129 1.17616 19.2559C2.36307 19.6609 3.76494 19.6526 5.19999 19.4342L4.59784 15.4798ZM2.39939 15.5042C2.39704 15.4937 2.4141 15.5803 2.3688 15.7015C2.32698 15.8135 2.27908 15.8282 2.35513 15.7665C2.56094 15.5996 3.13552 15.3055 4.37428 15.0599L3.59624 11.1363C2.14686 11.4236 0.802057 11.8759 -0.164267 12.6594C-0.674278 13.073 -1.12143 13.6138 -1.37837 14.3017C-1.63879 14.9989 -1.65273 15.7112 -1.50462 16.375L2.39939 15.5042ZM4.37752 15.0593C21.249 11.686 37.9863 8.24229 55.0286 6.18173L54.5481 2.21067C37.3207 4.29362 20.4172 7.77314 3.593 11.1369L4.37752 15.0593ZM55.028 6.1818C73.3827 3.96774 91.7922 2.54575 110.28 2.41054L110.251 -1.58934C91.5786 -1.45279 73.015 -0.0169245 54.5487 2.2106L55.028 6.1818ZM110.281 2.41054C141.701 2.16843 172.737 4.79264 203.291 10.8332L204.066 6.90915C173.221 0.811103 141.914 -1.83332 110.25 -1.58933L110.281 2.41054ZM203.292 10.8333C215.4 13.2227 227.295 16.0926 238.584 20.322L239.987 16.5763C228.404 12.2366 216.268 9.3168 204.066 6.90901L203.292 10.8333ZM238.582 20.3211C243.722 22.2544 248.635 24.737 253.537 27.3203L255.402 23.7817C250.48 21.1879 245.38 18.6045 239.99 16.5772L238.582 20.3211ZM253.54 27.322C255.359 28.2762 257.004 29.7944 258.432 31.4526L261.463 28.8432C259.868 26.9898 257.84 25.0608 255.399 23.7801L253.54 27.322ZM258.435 31.4572C259.864 33.1073 260.4 34.7023 260.321 36.1134C260.243 37.5197 259.536 39.0538 257.874 40.5548L260.556 43.5231C262.818 41.4791 264.165 39.0161 264.315 36.3373C264.465 33.6633 263.405 31.0853 261.459 28.8387L258.435 31.4572ZM257.873 40.5556C255.767 42.461 253.138 44.1108 250.365 45.4372L252.091 49.0457C255.118 47.598 258.095 45.7488 260.557 43.5223L257.873 40.5556ZM250.365 45.4374C243.782 48.587 236.453 50.1133 228.868 51.3145L229.494 55.2652C237.147 54.0532 244.959 52.4586 252.092 49.0456L250.365 45.4374ZM228.866 51.3149C204.547 55.1975 179.993 56.2861 155.281 56.0638L155.245 60.0637C180.092 60.2871 204.884 59.1944 229.497 55.2649L228.866 51.3149ZM155.28 56.0638C145.221 55.975 135.208 55.9387 125.196 55.6312L125.074 59.6293C135.142 59.9385 145.215 59.9751 155.245 60.0637L155.28 56.0638ZM125.197 55.6312C112.206 55.2272 99.24 54.7821 86.3164 53.9714L86.0662 57.9635C99.0587 58.7786 112.08 59.2252 125.073 59.6292L125.197 55.6312ZM86.3168 53.9714C74.1608 53.2063 62.0279 52.1908 49.9722 50.8088L49.5169 54.7828C61.6532 56.174 73.8557 57.195 86.0658 57.9635L86.3168 53.9714ZM49.9726 50.8089C43.2625 50.0383 36.6193 48.5232 29.9538 46.9263L29.0221 50.8162C35.6878 52.4131 42.5412 53.9817 49.5165 54.7827L49.9726 50.8089ZM29.9565 46.9269C27.0497 46.2261 24.1476 44.9311 21.6111 43.3865L19.5309 46.8029C22.3529 48.5213 25.6379 50.0003 29.0193 50.8155L29.9565 46.9269ZM21.6153 43.3891C18.9526 41.7586 17.8636 39.9847 17.688 38.4064C17.511 36.8164 18.1948 34.8379 20.3476 32.6667L17.507 29.8503C14.8391 32.541 13.3566 35.6509 13.7125 38.8486C14.0697 42.0581 16.213 44.7712 19.5267 46.8003L21.6153 43.3891ZM20.3469 32.6674C22.9044 30.0905 26.2794 28.3493 30.0933 26.7997L28.5874 23.0939C24.633 24.7006 20.6464 26.687 17.5077 29.8495L20.3469 32.6674ZM30.0905 26.8008C38.6278 23.347 47.6742 21.1321 56.9454 19.3434L56.1873 15.4158C46.8062 17.2258 37.4729 19.4992 28.5902 23.0928L30.0905 26.8008ZM56.9452 19.3434C69.7141 16.8806 82.6381 15.7363 95.6942 15.8811L95.7383 11.8814C82.4174 11.7337 69.2247 12.9012 56.1874 15.4158L56.9452 19.3434ZM95.6971 15.8812C97.273 15.8964 98.0944 16.0887 98.449 16.2628C98.591 16.3325 98.544 16.3448 98.4757 16.2349C98.3983 16.1103 98.4076 16.0144 98.4052 16.0512L102.396 16.3189C102.445 15.5855 102.306 14.8206 101.874 14.1245C101.45 13.4432 100.842 12.9818 100.211 12.672C99.0198 12.0872 97.4474 11.8979 95.7354 11.8814L95.6971 15.8812ZM98.4053 16.0486C98.4035 16.0756 98.4062 16.0169 98.4568 15.9461C98.4987 15.8872 98.5047 15.9182 98.3546 15.9937C97.9943 16.1751 97.2212 16.3776 95.7405 16.4693L95.9883 20.4616C97.5944 20.3621 99.0415 20.1264 100.154 19.5665C100.74 19.2714 101.295 18.8559 101.714 18.2677C102.142 17.6675 102.35 16.9966 102.396 16.3215L98.4053 16.0486ZM95.7361 16.4696C87.9835 16.9676 80.0024 17.2384 72.1529 18.0381L72.5586 22.0175C80.314 21.2274 88.0717 20.9701 95.9928 20.4614L95.7361 16.4696ZM72.1507 18.0383C58.6634 19.4275 45.4552 22.182 32.8274 26.8451L34.2133 30.5975C46.471 26.071 59.3424 23.3787 72.5608 22.0173L72.1507 18.0383ZM32.8301 26.8441C29.8928 27.924 26.9727 29.3061 24.3666 30.9932L26.5406 34.351C28.8501 32.8559 31.4929 31.5976 34.2106 30.5985L32.8301 26.8441ZM24.3606 30.9971C22.8374 31.9909 21.5886 33.047 20.729 34.1831C19.8593 35.3325 19.3081 36.6785 19.4467 38.1485C19.5851 39.6158 20.3761 40.8374 21.4398 41.8112C22.4929 42.7753 23.9139 43.5955 25.5957 44.3083L27.1563 40.6254C25.7043 40.01 24.7342 39.4043 24.1407 38.861C23.5578 38.3273 23.4467 37.96 23.429 37.7732C23.4117 37.589 23.4506 37.2156 23.9189 36.5968C24.3973 35.9645 25.2344 35.2033 26.5465 34.3471L24.3606 30.9971ZM25.597 44.3088C28.6998 45.6213 32.0148 46.6074 35.2945 47.3705L36.2007 43.4746C33.0722 42.7467 29.9886 41.8234 27.1551 40.6249L25.597 44.3088ZM35.2942 47.3704C45.5096 49.7488 55.9651 50.9988 66.4288 51.6444L66.6748 47.652C56.358 47.0154 46.1361 45.7877 36.201 43.4746L35.2942 47.3704ZM66.4283 51.6444C86.1958 52.8684 105.988 54.0093 125.82 54.7516L125.97 50.7544C106.188 50.014 86.4347 48.8755 66.6752 47.6521L66.4283 51.6444ZM125.818 54.7515C140.41 55.3114 155.06 55.1489 163.713 55.2415L163.755 51.2417C154.977 51.1478 140.493 51.3117 125.971 50.7545L125.818 54.7515Z" fill="#F4EDE6" mask="url(#path-1-inside-1_1635_61070)"/>
</svg>
