<svg width="16" height="12" viewBox="0 0 16 12" fill="none" xmlns="http://www.w3.org/2000/svg">
<path d="M16 4.92239C16 4.57387 15.6944 4.27897 15.3333 4.27897H13.4444L10.4722 0.36484C10.1944 -0.0372964 9.63889 -0.117724 9.25 0.177177C8.83333 0.445268 8.75 0.98145 9.05556 1.35678L11.25 4.27897H4.72222L6.91667 1.35678C7.22222 0.98145 7.13889 0.445268 6.72222 0.177177C6.33333 -0.117724 5.77778 -0.0372964 5.5 0.36484L2.52778 4.27897H0.666667C0.277778 4.27897 0 4.57387 0 4.92239V5.35134C0 5.72667 0.277778 5.99476 0.666667 5.99476H0.888889L1.61111 10.9008C1.69444 11.5442 2.25 12 2.91667 12H13.0556C13.7222 12 14.2778 11.5442 14.3611 10.9008L15.1111 5.99476H15.3333C15.6944 5.99476 16 5.72667 16 5.35134V4.92239ZM8.66667 9.6408C8.66667 10.0161 8.36111 10.2842 8 10.2842C7.61111 10.2842 7.33333 10.0161 7.33333 9.6408V6.63818C7.33333 6.28966 7.61111 5.99476 8 5.99476C8.36111 5.99476 8.66667 6.28966 8.66667 6.63818V9.6408ZM11.7778 9.6408C11.7778 10.0161 11.4722 10.2842 11.1111 10.2842C10.7222 10.2842 10.4444 10.0161 10.4444 9.6408V6.63818C10.4444 6.28966 10.7222 5.99476 11.1111 5.99476C11.4722 5.99476 11.7778 6.28966 11.7778 6.63818V9.6408ZM5.55556 9.6408C5.55556 10.0161 5.25 10.2842 4.88889 10.2842C4.5 10.2842 4.22222 10.0161 4.22222 9.6408V6.63818C4.22222 6.28966 4.5 5.99476 4.88889 5.99476C5.25 5.99476 5.55556 6.28966 5.55556 6.63818V9.6408Z" fill="white"/>
</svg>
