<svg width="40" height="40" viewBox="0 0 40 40" fill="none" xmlns="http://www.w3.org/2000/svg">
<g clip-path="url(#clip0_1635_61878)">
<path d="M27.8569 18.5714C28.2514 18.5714 28.5711 18.2516 28.5711 17.8571C28.5711 17.4626 28.2514 17.1428 27.8569 17.1428C27.4624 17.1428 27.1426 17.4626 27.1426 17.8571C27.1426 18.2516 27.4624 18.5714 27.8569 18.5714Z" fill="#FF6B55"/>
<path d="M18.5717 7.14293C18.9662 7.14293 19.286 6.82313 19.286 6.42864C19.286 6.03415 18.9662 5.71436 18.5717 5.71436C18.1772 5.71436 17.8574 6.03415 17.8574 6.42864C17.8574 6.82313 18.1772 7.14293 18.5717 7.14293Z" fill="#FF6B55"/>
<path d="M22.1437 0C17.4098 0 13.5723 3.83756 13.5723 8.57143C13.5723 13.3053 17.4098 17.1429 22.1437 17.1429C26.8776 17.1429 30.7151 13.3053 30.7151 8.57143C30.71 3.83968 26.8754 0.00511775 22.1437 0ZM16.4294 6.42857C16.4294 5.2451 17.3888 4.28571 18.5723 4.28571C19.7557 4.28571 20.7151 5.2451 20.7151 6.42857C20.7151 7.61204 19.7557 8.57143 18.5723 8.57143C17.3888 8.57143 16.4294 7.61204 16.4294 6.42857ZM22.1437 15C19.7777 14.9976 17.8603 13.0802 17.858 10.7143C17.858 10.3198 18.1778 10 18.5723 10C18.9668 10 19.2866 10.3198 19.2866 10.7143C19.2866 12.2922 20.5657 13.5714 22.1437 13.5714C23.7217 13.5714 25.0008 12.2922 25.0008 10.7143C25.0008 10.3198 25.3206 10 25.7151 10C26.1096 10 26.4294 10.3198 26.4294 10.7143C26.427 13.0802 24.5097 14.9976 22.1437 15ZM25.7151 8.57143C24.5317 8.57143 23.5723 7.61204 23.5723 6.42857C23.5723 5.2451 24.5317 4.28571 25.7151 4.28571C26.8986 4.28571 27.858 5.2451 27.858 6.42857C27.858 6.99689 27.6322 7.54194 27.2304 7.9438C26.8285 8.34566 26.2834 8.57143 25.7151 8.57143Z" fill="#FF6B55"/>
<path d="M25.7143 7.1428C26.1088 7.1428 26.4286 6.82301 26.4286 6.42852C26.4286 6.03403 26.1088 5.71423 25.7143 5.71423C25.3198 5.71423 25 6.03403 25 6.42852C25 6.82301 25.3198 7.1428 25.7143 7.1428Z" fill="#FF6B55"/>
<path d="M35.4535 10.8528C35.3556 10.3357 35.2442 9.83853 35.1121 9.37281C34.4768 7.20594 33.1513 5.3058 31.3371 3.96139C31.1442 3.81067 30.9528 3.66853 30.7656 3.5271C31.9348 5.47899 32.3813 7.77956 32.0271 10.0271C33.2093 10.096 34.3697 10.3756 35.4535 10.8528Z" fill="#FF6B55"/>
<path d="M0.428571 24.0957C0.614682 24.2263 0.811586 24.3407 1.01714 24.4379C1.62714 24.7493 2.46214 25.1764 2.63357 26.0486C2.73585 26.5884 2.66925 27.1466 2.44286 27.6471C2.31857 27.9114 2.19 28.14 2.07786 28.3371C2.04286 28.3986 2.00643 28.4671 1.97071 28.5293C2.26643 28.7671 2.67071 29.07 2.84214 29.1964C2.99752 29.3118 3.09946 29.4852 3.12464 29.677C3.14982 29.8689 3.09608 30.0628 2.97571 30.2143C2.86961 30.3523 2.77727 30.5004 2.7 30.6564C2.74929 30.685 2.79857 30.7136 2.84857 30.7414C3.4799 31.0135 3.96204 31.5462 4.17 32.2014C4.27495 32.7054 4.25385 33.2275 4.10857 33.7214C4.07571 33.8707 4.04214 34.02 4.02286 34.17C3.9811 34.602 4.03851 35.0378 4.19071 35.4443C4.34914 36.1022 4.99567 36.5204 5.66072 36.395C7.74243 35.8949 9.79348 35.2748 11.8036 34.5379C12.5607 34.2807 13.245 34.0379 13.78 33.8543C14.2614 33.6864 14.6236 33.56 14.8143 33.4971C17.785 32.5586 18.3857 31.4864 18.37 30.7514C18.364 30.4962 18.4946 30.2572 18.7126 30.1244C18.9306 29.9917 19.2029 29.9853 19.4269 30.1077C19.6509 30.2301 19.7926 30.4627 19.7986 30.7179C19.84 32.4986 18.31 33.8914 15.2493 34.8607C15.0693 34.9193 14.7179 35.0421 14.2493 35.2043L13.5786 35.4386C14.7593 36.744 15.6214 38.3053 16.0971 40L32.2986 39.955C32.2829 39.93 32.2671 39.9064 32.2514 39.8836C32.0453 39.5856 31.8601 39.2736 31.6971 38.95C31.342 38.2298 31.0455 37.4822 30.8107 36.7143C30.3773 35.2524 30.0766 33.7544 29.9121 32.2386C29.8194 31.4512 29.7986 30.6569 29.85 29.8657C25.0029 29.0881 21.4356 24.9091 21.4286 20C21.433 19.5116 21.4726 19.0241 21.5471 18.5414C17.3176 18.2962 13.7037 15.4076 12.5325 11.3361C11.3613 7.26457 12.888 2.89726 16.3407 0.442139C15.3057 0.607853 14.3043 0.799282 13.3857 0.98571C10.5036 1.55714 8.35 2.58142 6.98286 4.02714C5.85489 5.23569 4.98311 6.65999 4.42 8.21428C4.18296 8.90577 3.98855 9.61114 3.83786 10.3264L3.76643 10.63C3.59445 11.2791 3.36027 11.9101 3.06714 12.5143C2.93214 12.8143 2.79786 13.1143 2.68143 13.42C2.61378 13.5748 2.57621 13.7411 2.57071 13.91C2.60214 14.1414 2.875 14.3914 3.16357 14.6564C3.75338 15.0727 4.134 15.724 4.20714 16.4421C4.19382 16.781 4.09927 17.1117 3.93143 17.4064C3.03621 19.2889 1.93931 21.0686 0.66 22.7143C0.115714 23.3793 0 23.6429 0 23.7493C0.132051 23.8775 0.2755 23.9935 0.428571 24.0957ZM5.16071 10.9529L5.23214 10.6436C5.36992 9.98915 5.54642 9.34349 5.76071 8.71C6.25727 7.33533 7.02674 6.0753 8.02286 5.00571C9.11758 3.95048 10.4656 3.19502 11.9371 2.81214C12.3147 2.69695 12.7141 2.90961 12.8293 3.28714C12.9445 3.66467 12.7318 4.06409 12.3543 4.17928C11.1206 4.49154 9.98711 5.11384 9.06143 5.98714C8.19841 6.91572 7.53176 8.00899 7.10143 9.20142C6.90862 9.7792 6.74907 10.3675 6.62357 10.9636L6.55214 11.2757C6.45508 11.6514 6.07586 11.8809 5.69802 11.7926C5.32019 11.7043 5.08195 11.3305 5.16143 10.9507L5.16071 10.9529ZM5 12.8571C5.39449 12.8571 5.71429 13.1769 5.71429 13.5714C5.71429 13.9659 5.39449 14.2857 5 14.2857C4.60551 14.2857 4.28571 13.9659 4.28571 13.5714C4.28571 13.1769 4.60551 12.8571 5 12.8571Z" fill="#FF6B55"/>
<path d="M34.9994 18.5714C35.3939 18.5714 35.7137 18.2516 35.7137 17.8571C35.7137 17.4626 35.3939 17.1428 34.9994 17.1428C34.605 17.1428 34.2852 17.4626 34.2852 17.8571C34.2852 18.2516 34.605 18.5714 34.9994 18.5714Z" fill="#FF6B55"/>
<path d="M31.7165 11.4435C31.1892 13.1847 30.1972 14.7491 28.8472 15.9685C29.7719 16.4532 30.2113 17.535 29.8865 18.5272C29.5617 19.5195 28.5676 20.1319 27.5353 19.9759C26.5029 19.8199 25.7343 18.941 25.7172 17.8971C24.8445 18.2342 23.9285 18.4458 22.9965 18.5257C22.5595 20.8937 23.1487 23.3359 24.6172 25.2443C26.0857 27.1527 28.2955 28.3478 30.6965 28.5321H30.7043H30.7079C30.9457 28.5521 31.1843 28.5685 31.4272 28.5685C36.1006 28.5667 39.9101 24.8195 39.989 20.1468C40.068 15.474 36.3871 11.6003 31.7165 11.4407V11.4435ZM34.9986 26.4285C34.6041 26.4285 34.2843 26.1087 34.2843 25.7142C34.2843 24.1363 33.0051 22.8571 31.4272 22.8571C29.8492 22.8571 28.57 24.1363 28.57 25.7142C28.57 26.1087 28.2502 26.4285 27.8557 26.4285C27.4613 26.4285 27.1415 26.1087 27.1415 25.7142C27.1415 23.3473 29.0602 21.4285 31.4272 21.4285C33.7941 21.4285 35.7129 23.3473 35.7129 25.7142C35.7129 26.1087 35.3931 26.4285 34.9986 26.4285ZM34.9986 20C33.8151 20 32.8557 19.0406 32.8557 17.8571C32.8557 16.6736 33.8151 15.7142 34.9986 15.7142C36.1821 15.7142 37.1415 16.6736 37.1415 17.8571C37.1415 19.0406 36.1821 20 34.9986 20Z" fill="#FF6B55"/>
</g>
<defs>
<clipPath id="clip0_1635_61878">
<rect width="40" height="40" fill="white"/>
</clipPath>
</defs>
</svg>
