<svg width="23" height="23" viewBox="0 0 23 23" fill="none" xmlns="http://www.w3.org/2000/svg">
<g clip-path="url(#clip0_1607_17)">
<path d="M18.1771 14.2474C17.7063 13.7571 17.1383 13.495 16.5364 13.495C15.9393 13.495 15.3665 13.7523 14.8762 14.2425L13.3422 15.7716C13.216 15.7037 13.0898 15.6406 12.9684 15.5775C12.7937 15.4901 12.6286 15.4076 12.4879 15.3202C11.051 14.4076 9.74519 13.2183 8.49278 11.6795C7.88599 10.9125 7.47823 10.2669 7.18212 9.61153C7.58017 9.24745 7.9491 8.86882 8.30832 8.50475C8.44424 8.36882 8.58016 8.22805 8.71608 8.09213C9.73548 7.07272 9.73548 5.75235 8.71608 4.73295L7.39085 3.40772C7.24037 3.25724 7.08503 3.1019 6.9394 2.94656C6.64814 2.6456 6.34232 2.33492 6.02679 2.04366C5.55592 1.57765 4.99282 1.33008 4.4006 1.33008C3.80837 1.33008 3.23556 1.57765 2.75013 2.04366C2.74528 2.04852 2.74528 2.04852 2.74043 2.05337L1.08996 3.7184C0.46861 4.33975 0.114245 5.09702 0.0365763 5.97565C-0.079927 7.39311 0.337543 8.71348 0.657928 9.57755C1.44433 11.6989 2.61907 13.6649 4.37147 15.7716C6.49766 18.3104 9.05588 20.3153 11.9782 21.7279C13.0947 22.257 14.5849 22.8832 16.25 22.99C16.3519 22.9949 16.4587 22.9997 16.5558 22.9997C17.6771 22.9997 18.6189 22.5968 19.3567 21.7958C19.3616 21.7861 19.3713 21.7813 19.3761 21.7716C19.6286 21.4657 19.9198 21.1891 20.2256 20.8929C20.4344 20.6939 20.648 20.4852 20.8567 20.2667C21.3373 19.7667 21.5897 19.1842 21.5897 18.5871C21.5897 17.9852 21.3324 17.4075 20.8421 16.9221L18.1771 14.2474ZM19.915 19.359C19.9101 19.359 19.9101 19.3638 19.915 19.359C19.7256 19.5629 19.5315 19.7473 19.3227 19.9512C19.0072 20.2522 18.6868 20.5677 18.3859 20.9221C17.8956 21.4463 17.3179 21.6939 16.5606 21.6939C16.4878 21.6939 16.4102 21.6939 16.3373 21.689C14.8956 21.5968 13.5558 21.0337 12.551 20.5531C9.80344 19.2231 7.39085 17.3347 5.38602 14.9416C3.7307 12.9464 2.62392 11.1018 1.89092 9.12124C1.43947 7.91252 1.27442 6.97078 1.34724 6.08245C1.39578 5.51449 1.61423 5.04362 2.01713 4.64072L3.67245 2.9854C3.91031 2.7621 4.16274 2.64074 4.41031 2.64074C4.71613 2.64074 4.9637 2.82521 5.11904 2.98054C5.12389 2.9854 5.12874 2.99025 5.1336 2.99511C5.42971 3.2718 5.71126 3.55821 6.00737 3.86403C6.15786 4.01937 6.31319 4.1747 6.46853 4.3349L7.79376 5.66012C8.30832 6.17468 8.30832 6.6504 7.79376 7.16496C7.65298 7.30573 7.51706 7.44651 7.37629 7.58243C6.96853 7.9999 6.58018 8.38824 6.15786 8.76688C6.14815 8.77659 6.13844 8.78144 6.13359 8.79115C5.71611 9.20862 5.79378 9.61638 5.88116 9.89308C5.88602 9.90764 5.89087 9.9222 5.89572 9.93677C6.24038 10.7717 6.72581 11.5581 7.46367 12.495L7.46852 12.4998C8.80831 14.1503 10.2209 15.4367 11.7791 16.4221C11.9782 16.5483 12.1821 16.6503 12.3762 16.7474C12.551 16.8347 12.716 16.9173 12.8568 17.0046C12.8762 17.0143 12.8956 17.0289 12.9151 17.0386C13.0801 17.1211 13.2354 17.16 13.3956 17.16C13.7985 17.16 14.051 16.9076 14.1335 16.825L15.7937 15.1649C15.9587 14.9998 16.2208 14.8008 16.5267 14.8008C16.8276 14.8008 17.0752 14.9901 17.2257 15.1551C17.2305 15.16 17.2305 15.16 17.2354 15.1649L19.9101 17.8396C20.4101 18.3347 20.4101 18.8444 19.915 19.359Z" fill="#001D23"/>
<path d="M12.43 5.47141C13.7019 5.685 14.8572 6.28693 15.7795 7.20925C16.7018 8.13157 17.2989 9.28689 17.5174 10.5587C17.5708 10.8791 17.8474 11.1024 18.163 11.1024C18.2018 11.1024 18.2358 11.0975 18.2746 11.0927C18.6338 11.0344 18.8717 10.6946 18.8135 10.3354C18.5513 8.79661 17.8232 7.39371 16.7115 6.28208C15.5999 5.17044 14.197 4.44229 12.6582 4.18016C12.299 4.12191 11.964 4.35977 11.9009 4.71413C11.8378 5.0685 12.0708 5.41315 12.43 5.47141Z" fill="#001D23"/>
<path d="M22.9732 10.1458C22.5411 7.61183 21.347 5.30604 19.512 3.47111C17.6771 1.63618 15.3713 0.442024 12.8374 0.00999088C12.483 -0.0531151 12.148 0.1896 12.0849 0.543965C12.0267 0.903183 12.2646 1.23813 12.6238 1.30124C14.8859 1.68473 16.949 2.75753 18.5897 4.39343C20.2305 6.03418 21.2984 8.09727 21.6819 10.3594C21.7353 10.6798 22.012 10.9031 22.3275 10.9031C22.3664 10.9031 22.4003 10.8982 22.4392 10.8933C22.7935 10.8399 23.0363 10.5001 22.9732 10.1458Z" fill="#001D23"/>
</g>
<defs>
<clipPath id="clip0_1607_17">
<rect width="23" height="23" fill="white"/>
</clipPath>
</defs>
</svg>
