<svg width="38" height="38" viewBox="0 0 38 38" fill="none" xmlns="http://www.w3.org/2000/svg">
<g clip-path="url(#clip0_1710_33703)">
<g clip-path="url(#clip1_1710_33703)">
<path d="M30.0317 23.5394C29.2537 22.7294 28.3154 22.2963 27.3209 22.2963C26.3344 22.2963 25.388 22.7213 24.578 23.5314L22.0436 26.0577C21.8351 25.9454 21.6266 25.8412 21.4261 25.7369C21.1373 25.5926 20.8646 25.4562 20.6321 25.3119C18.2581 23.8041 16.1007 21.8391 14.0315 19.2967C13.0289 18.0295 12.3552 16.9629 11.866 15.8801C12.5237 15.2786 13.1332 14.6531 13.7267 14.0515C13.9513 13.827 14.1758 13.5944 14.4004 13.3698C16.0846 11.6856 16.0846 9.50412 14.4004 7.81989L12.2109 5.63038C11.9623 5.38176 11.7056 5.12511 11.465 4.86847C10.9838 4.37122 10.4785 3.85793 9.95722 3.37672C9.17927 2.60678 8.24893 2.19775 7.27047 2.19775C6.29201 2.19775 5.34563 2.60678 4.54361 3.37672C4.53559 3.38474 4.53559 3.38474 4.52757 3.39276L1.80072 6.14367C0.77414 7.17025 0.188668 8.4214 0.0603455 9.87305C-0.132138 12.2149 0.557595 14.3964 1.08693 15.824C2.38619 19.3288 4.32707 22.577 7.22235 26.0577C10.7352 30.2523 14.9618 33.5646 19.7899 35.8985C21.6346 36.7727 24.0968 37.8073 26.8477 37.9837C27.0161 37.9917 27.1925 37.9997 27.3529 37.9997C29.2056 37.9997 30.7615 37.3341 31.9806 36.0107C31.9886 35.9947 32.0046 35.9867 32.0127 35.9706C32.4297 35.4654 32.9109 35.0082 33.4162 34.519C33.7611 34.1902 34.1139 33.8453 34.4588 33.4844C35.2528 32.6583 35.6699 31.6959 35.6699 30.7094C35.6699 29.7149 35.2448 28.7605 34.4347 27.9585L30.0317 23.5394ZM32.9029 31.9846C32.8949 31.9846 32.8949 31.9926 32.9029 31.9846C32.5901 32.3215 32.2693 32.6262 31.9244 32.9631C31.4031 33.4603 30.8738 33.9816 30.3765 34.5671C29.5665 35.4333 28.6121 35.8423 27.361 35.8423C27.2407 35.8423 27.1123 35.8423 26.992 35.8343C24.6101 35.6819 22.3965 34.7516 20.7363 33.9576C16.1969 31.7601 12.2109 28.6402 8.89856 24.6863C6.16369 21.39 4.33509 18.3423 3.12405 15.0701C2.37817 13.0731 2.10549 11.5172 2.22579 10.0495C2.30599 9.11113 2.6669 8.33318 3.33257 7.6675L6.06744 4.93263C6.46043 4.5637 6.87748 4.3632 7.28651 4.3632C7.79178 4.3632 8.20081 4.66796 8.45745 4.92461C8.46547 4.93263 8.47349 4.94065 8.48151 4.94867C8.97074 5.40582 9.43591 5.87901 9.92514 6.38428C10.1738 6.64092 10.4304 6.89757 10.6871 7.16223L12.8766 9.35174C13.7267 10.2019 13.7267 10.9878 12.8766 11.838C12.644 12.0706 12.4194 12.3032 12.1868 12.5277C11.5131 13.2175 10.8715 13.8591 10.1738 14.4846C10.1577 14.5007 10.1417 14.5087 10.1337 14.5247C9.44393 15.2145 9.57225 15.8882 9.71662 16.3453C9.72464 16.3694 9.73266 16.3934 9.74068 16.4175C10.3101 17.797 11.1121 19.0962 12.3312 20.6441L12.3392 20.6521C14.5528 23.379 16.8866 25.5043 19.4611 27.1324C19.7899 27.341 20.1268 27.5094 20.4476 27.6698C20.7363 27.8141 21.009 27.9505 21.2416 28.0948C21.2737 28.1109 21.3057 28.135 21.3378 28.151C21.6105 28.2873 21.8672 28.3515 22.1318 28.3515C22.7975 28.3515 23.2145 27.9344 23.3509 27.7981L26.0938 25.0552C26.3665 24.7825 26.7996 24.4537 27.3048 24.4537C27.8021 24.4537 28.2111 24.7665 28.4597 25.0392C28.4677 25.0472 28.4677 25.0472 28.4758 25.0552L32.8949 29.4743C33.721 30.2924 33.721 31.1345 32.9029 31.9846Z" fill="white"/>
<path d="M20.5357 9.03897C22.637 9.39186 24.5458 10.3864 26.0696 11.9102C27.5935 13.434 28.5799 15.3428 28.9409 17.4441C29.0291 17.9734 29.4862 18.3424 30.0075 18.3424C30.0717 18.3424 30.1278 18.3343 30.192 18.3263C30.7855 18.2301 31.1785 17.6687 31.0822 17.0752C30.6491 14.5328 29.4461 12.215 27.6095 10.3783C25.7729 8.54172 23.4551 7.3387 20.9127 6.90561C20.3192 6.80937 19.7658 7.20235 19.6616 7.78783C19.5573 8.3733 19.9423 8.94273 20.5357 9.03897Z" fill="white"/>
<path d="M37.9549 16.7626C37.2411 12.5761 35.2681 8.7665 32.2365 5.73488C29.2049 2.70326 25.3953 0.730301 21.2088 0.0165067C20.6233 -0.0877554 20.0699 0.313253 19.9657 0.898724C19.8694 1.49222 20.2624 2.04561 20.8559 2.14987C24.5933 2.78346 28.0019 4.55592 30.7127 7.25871C33.4235 9.96952 35.1879 13.3781 35.8215 17.1155C35.9097 17.6448 36.3669 18.0137 36.8882 18.0137C36.9524 18.0137 37.0085 18.0057 37.0727 17.9977C37.6581 17.9095 38.0591 17.3481 37.9549 16.7626Z" fill="white"/>
</g>
</g>
<defs>
<clipPath id="clip0_1710_33703">
<rect width="38" height="38" fill="white"/>
</clipPath>
<clipPath id="clip1_1710_33703">
<rect width="38" height="38" fill="white"/>
</clipPath>
</defs>
</svg>
