<svg width="24" height="36" viewBox="0 0 24 36" fill="none" xmlns="http://www.w3.org/2000/svg">
<g opacity="0.15">
<path d="M9.8392 13.7628C9.8392 15.3378 11.4998 16.5716 13.6198 16.5716C15.7397 16.5716 17.4004 15.3378 17.4004 13.7628C17.4004 12.1878 15.7397 10.9541 13.6198 10.9541C11.4998 10.9541 9.8392 12.1878 9.8392 13.7628ZM16.0256 13.7628C16.0256 14.427 15.0376 15.1672 13.6198 15.1672C12.202 15.1672 11.214 14.427 11.214 13.7628C11.214 13.0986 12.202 12.3585 13.6198 12.3585C15.0376 12.3585 16.0256 13.0986 16.0256 13.7628Z" fill="white"/>
<path d="M17.4004 22.1891C17.4004 20.6141 15.7397 19.3804 13.6198 19.3804C11.4998 19.3804 9.8392 20.6141 9.8392 22.1891C9.8392 23.7641 11.4998 24.9979 13.6198 24.9979C15.7397 24.9979 17.4004 23.7641 17.4004 22.1891ZM11.214 22.1891C11.214 21.5249 12.202 20.7847 13.6198 20.7847C15.0376 20.7847 16.0256 21.5249 16.0256 22.1891C16.0256 22.8533 15.0376 23.5935 13.6198 23.5935C12.202 23.5935 11.214 22.8533 11.214 22.1891Z" fill="white"/>
<path d="M10.1081 5.37873C8.87108 4.11508 6.76769 4.81874 5.49095 6.12361C4.13289 7.51029 3.58567 9.63939 4.76178 10.8408C5.85251 11.954 7.88049 11.6267 9.37871 10.0957C10.6674 8.77991 11.3382 6.63403 10.1081 5.37873ZM5.73366 9.84745C5.10409 9.20417 5.77917 7.81483 6.46311 7.11664C7.18101 6.38279 8.52574 5.74837 9.13627 6.37198C9.75952 7.00795 9.09613 8.39863 8.40689 9.10229C8.40682 9.10236 8.40675 9.1025 8.40661 9.10257C7.40462 10.1266 6.19359 10.3169 5.73366 9.84745Z" fill="white"/>
<path d="M10.1069 30.7107C11.1972 29.597 10.8767 27.5247 9.3776 25.9933C7.8787 24.4622 5.85058 24.1353 4.76046 25.2487C3.53039 26.5043 4.20588 28.6551 5.48963 29.9658C6.98826 31.4965 9.01624 31.8239 10.1069 30.7107ZM6.46173 28.9727C6.46166 28.9727 6.46159 28.9726 6.46159 28.9725C5.77888 28.2755 5.10559 26.8819 5.73235 26.242C6.19221 25.7723 7.40317 25.9625 8.40551 26.9863C9.35732 27.9586 9.62238 29.2195 9.13509 29.7175C8.67503 30.1869 7.464 29.9965 6.46173 28.9727Z" fill="white"/>
<path d="M5.48897 29.9658C5.48797 29.9658 5.48997 29.9678 5.48897 29.9658C5.48897 29.9668 5.48897 29.9668 5.48897 29.9658Z" fill="white"/>
<path d="M15.3437 35.7463C15.0752 36.0205 14.64 36.0205 14.3716 35.7463L12.9701 34.3147C11.5916 35.5401 9.7978 36.1284 7.86701 35.9765C5.83539 35.8169 3.85188 34.8461 2.2819 33.243C1.22677 32.1652 0.444115 30.8809 -1.2897e-06 29.5048L0.595412 28.1664C0.880398 28.1944 1.11858 28.3999 1.1933 28.6822C1.54029 29.9935 2.25289 31.2272 3.25399 32.2499C4.59198 33.6161 6.26782 34.4423 7.97259 34.5762C11.3502 34.842 13.9125 32.3011 13.9125 29.015C13.9125 28.9867 13.9107 28.9536 13.9072 28.914C13.8719 28.5315 14.1451 28.1916 14.519 28.1511C18.021 27.7712 20.5629 25.2638 20.5629 22.1891C20.5629 20.8395 20.0354 19.5124 19.0774 18.4523C18.8345 18.1833 18.8345 17.7688 19.0774 17.4998C20.0352 16.4397 20.5627 15.1125 20.5627 13.7629C20.5627 10.6922 18.0238 8.18539 14.5257 7.80228C14.164 7.76268 13.8953 7.44297 13.9123 7.07327C13.9109 5.53724 13.3537 4.12669 12.3428 3.09581C9.99872 0.701422 6.00716 1.02773 3.25516 3.83837C2.3008 4.81258 1.60469 6.00089 1.24203 7.27494C1.16291 7.55265 0.925216 7.75242 0.643116 7.77819L0.0620706 6.43491C0.51588 5.10497 1.27771 3.87165 2.28334 2.84506C5.42653 -0.365199 9.97727 -0.811438 12.898 1.71088L14.3715 0.205679C14.64 -0.0685952 15.0752 -0.068525 15.3437 0.205679C15.612 0.479882 15.6119 0.924507 15.3437 1.19871L13.8513 2.72323C14.6687 3.79076 15.1587 5.09079 15.2652 6.48982C18.0044 6.96766 20.4141 8.65621 21.4397 11.2003L23.1456 10.7644C23.5138 10.6702 23.8871 10.8989 23.9792 11.2752C24.0715 11.6512 23.8475 12.0327 23.4792 12.1268L21.8291 12.5484C21.9009 12.9466 21.9376 13.3525 21.9376 13.7628C21.9376 15.2675 21.4253 16.7422 20.4837 17.9759C21.4253 19.2096 21.9376 20.6843 21.9376 22.189C21.9376 22.5993 21.9009 23.0053 21.8292 23.4034L23.4792 23.825C23.8475 23.9191 24.0715 24.3001 23.9792 24.6767C23.8871 25.0528 23.5138 25.2815 23.1456 25.1874L21.4402 24.7516C20.4002 27.3336 17.9608 28.9903 15.2744 29.4611C15.1923 30.8784 14.7192 32.2004 13.9105 33.2892L15.3437 34.7532C15.6121 35.0274 15.6121 35.4721 15.3437 35.7463Z" fill="white"/>
</g>
</svg>
