<svg width="24" height="36" viewBox="0 0 24 36" fill="none" xmlns="http://www.w3.org/2000/svg">
<g opacity="0.15">
<path d="M14.1608 22.2372C14.1608 20.6622 12.5002 19.4284 10.3802 19.4284C8.26025 19.4284 6.59961 20.6622 6.59961 22.2372C6.59961 23.8122 8.26025 25.0459 10.3802 25.0459C12.5002 25.0459 14.1608 23.8122 14.1608 22.2372ZM7.97437 22.2372C7.97437 21.573 8.96241 20.8328 10.3802 20.8328C11.798 20.8328 12.786 21.573 12.786 22.2372C12.786 22.9014 11.798 23.6415 10.3802 23.6415C8.96241 23.6415 7.97437 22.9014 7.97437 22.2372Z" fill="white"/>
<path d="M6.59961 13.8109C6.59961 15.3859 8.26025 16.6196 10.3802 16.6196C12.5002 16.6196 14.1608 15.3859 14.1608 13.8109C14.1608 12.2359 12.5002 11.0021 10.3802 11.0021C8.26025 11.0021 6.59961 12.2359 6.59961 13.8109ZM12.786 13.8109C12.786 14.4751 11.798 15.2153 10.3802 15.2153C8.96241 15.2153 7.97437 14.4751 7.97437 13.8109C7.97437 13.1467 8.96241 12.4065 10.3802 12.4065C11.798 12.4065 12.786 13.1467 12.786 13.8109Z" fill="white"/>
<path d="M13.8919 30.6213C15.1289 31.8849 17.2323 31.1813 18.509 29.8764C19.8671 28.4897 20.4143 26.3606 19.2382 25.1592C18.1475 24.046 16.1195 24.3733 14.6213 25.9043C13.3326 27.2201 12.6618 29.366 13.8919 30.6213ZM18.2663 26.1526C18.8959 26.7958 18.2208 28.1852 17.5369 28.8834C16.819 29.6172 15.4743 30.2516 14.8637 29.628C14.2405 28.9921 14.9039 27.6014 15.5931 26.8977C15.5932 26.8976 15.5932 26.8975 15.5934 26.8974C16.5954 25.8734 17.8064 25.6831 18.2663 26.1526Z" fill="white"/>
<path d="M13.8931 5.2893C12.8028 6.40303 13.1233 8.47526 14.6224 10.0067C16.1213 11.5378 18.1494 11.8647 19.2395 10.7513C20.4696 9.49567 19.7941 7.34495 18.5104 6.03418C17.0117 4.50348 14.9838 4.17612 13.8931 5.2893ZM17.5383 7.02735C17.5383 7.02735 17.5384 7.02742 17.5384 7.02749C18.2211 7.72448 18.8944 9.11811 18.2677 9.75801C17.8078 10.2277 16.5968 10.0375 15.5945 9.01369C14.6427 8.04137 14.3776 6.78053 14.8649 6.28254C15.325 5.81306 16.536 6.00349 17.5383 7.02735Z" fill="white"/>
<path d="M18.511 6.03418C18.512 6.03418 18.51 6.03218 18.511 6.03418C18.511 6.03318 18.511 6.03318 18.511 6.03418Z" fill="white"/>
<path d="M8.65627 0.25373C8.92476 -0.0204739 9.36001 -0.0204739 9.62843 0.25373L11.0299 1.68528C12.4084 0.459892 14.2022 -0.128396 16.133 0.0234864C18.1646 0.183093 20.1481 1.15386 21.7181 2.75695C22.7732 3.83481 23.5559 5.11911 24 6.49518L23.4046 7.83355C23.1196 7.8056 22.8814 7.60014 22.8067 7.31779C22.4597 6.00646 21.7471 4.77279 20.746 3.75012C19.408 2.38388 17.7322 1.55769 16.0274 1.42379C12.6498 1.15801 10.0875 3.69894 10.0875 6.98503C10.0875 7.01333 10.0893 7.0464 10.0928 7.086C10.1281 7.46848 9.85486 7.80841 9.48099 7.84893C5.97899 8.22881 3.43712 10.7362 3.43712 13.8109C3.43712 15.1605 3.96462 16.4876 4.92255 17.5477C5.16554 17.8167 5.16554 18.2312 4.92255 18.5002C3.96476 19.5603 3.43726 20.8875 3.43726 22.2371C3.43726 25.3078 5.97617 27.8146 9.47426 28.1977C9.83596 28.2373 10.1047 28.557 10.0877 28.9267C10.0891 30.4628 10.6463 31.8733 11.6572 32.9042C14.0013 35.2986 17.9928 34.9723 20.7448 32.1616C21.6992 31.1874 22.3953 29.9991 22.758 28.7251C22.8371 28.4473 23.0748 28.2476 23.3569 28.2218L23.9379 29.5651C23.4841 30.895 22.7223 32.1283 21.7167 33.1549C18.5735 36.3652 14.0227 36.8114 11.102 34.2891L9.6285 35.7943C9.36001 36.0686 8.92476 36.0685 8.65634 35.7943C8.38799 35.5201 8.38806 35.0755 8.65634 34.8013L10.1487 33.2768C9.33128 32.2092 8.84132 30.9092 8.73484 29.5102C5.99556 29.0323 3.58587 27.3438 2.5603 24.7997L0.854426 25.2356C0.486196 25.3298 0.112879 25.1011 0.0207698 24.7248C-0.0715455 24.3488 0.152541 23.9673 0.520771 23.8732L2.1709 23.4516C2.09914 23.0534 2.06236 22.6475 2.06236 22.2372C2.06236 20.7325 2.57473 19.2578 3.51631 18.0241C2.57473 16.7904 2.06236 15.3157 2.06236 13.811C2.06236 13.4007 2.09914 12.9947 2.17076 12.5966L0.52077 12.175C0.15254 12.0809 -0.0714773 11.6999 0.0207692 11.3233C0.112878 10.9472 0.486195 10.7185 0.854425 10.8126L2.55982 11.2484C3.59976 8.66641 6.0392 7.00974 8.72563 6.53886C8.8077 5.12157 9.28083 3.79956 10.0895 2.71082L8.65627 1.24676C8.38792 0.972561 8.38792 0.527935 8.65627 0.25373Z" fill="white"/>
</g>
</svg>
