<svg width="121" height="121" viewBox="0 0 121 121" fill="none" xmlns="http://www.w3.org/2000/svg">
<path opacity="0.1" d="M80.6035 37.0846L80.4819 36.8154L65.5564 3.78075L65.5556 3.77883C65.1196 2.80298 64.4105 1.97412 63.5138 1.39231C62.6171 0.810492 61.5712 0.500587 60.5022 0.500001C59.4332 0.499414 58.3869 0.808171 57.4896 1.389C56.5923 1.96983 55.8823 2.79791 55.4452 3.77328L55.4446 3.77467L40.5192 36.8154L40.3975 37.0846L40.1031 37.108L5.61184 39.8483L5.61172 39.8483C4.54863 39.9325 3.53231 40.3211 2.68436 40.9677C1.83641 41.6143 1.19274 42.4915 0.830327 43.4943C0.467919 44.4971 0.402123 45.583 0.640808 46.6222C0.879493 47.6614 1.41256 48.6098 2.17623 49.354L2.17627 49.3541L27.6651 74.1981L27.8666 74.3945L27.8032 74.6687L18.7887 113.698L18.7886 113.698C18.5375 114.782 18.618 115.916 19.0196 116.954C19.4212 117.991 20.1254 118.884 21.0408 119.516C21.9562 120.149 23.0406 120.491 24.1532 120.5C25.2658 120.508 26.3553 120.182 27.2802 119.564L27.2807 119.564L60.2232 97.605L60.5005 97.4201L60.7778 97.605L93.7195 119.563L80.6035 37.0846ZM80.6035 37.0846L80.8979 37.108M80.6035 37.0846L80.8979 37.108M80.8979 37.108L115.389 39.8482C116.471 39.9348 117.503 40.3362 118.36 41.0029C119.216 41.6695 119.858 42.572 120.207 43.5991M80.8979 37.108L120.207 43.5991M90.9888 74.4115L91.2209 74.2026L118.663 49.5103L90.9888 74.4115ZM90.9888 74.4115L91.0746 74.7117M90.9888 74.4115L91.0746 74.7117M91.0746 74.7117L102.14 113.425L91.0746 74.7117ZM120.207 43.5991C120.917 45.7028 120.312 48.0223 118.664 49.5098L120.207 43.5991ZM96.9146 120.489C95.7803 120.514 94.6656 120.191 93.7203 119.564L102.14 113.427C102.448 114.518 102.415 115.678 102.044 116.75C101.673 117.822 100.983 118.755 100.066 119.424C99.149 120.092 98.0492 120.464 96.9146 120.489Z" stroke="#FF6B55"/>
</svg>
