<svg width="77" height="20" viewBox="0 0 77 20" fill="none" xmlns="http://www.w3.org/2000/svg">
<path d="M20.2384 7.66418L28.0282 7.66418L28.0282 9.12174L24.9611 9.12174L24.9611 17.3382L23.2799 17.3382L23.2799 9.12174L20.2256 9.12174L20.2384 7.66418ZM27.6946 10.3342L29.1319 10.3342L29.1319 11.6886L29.1576 11.6886C29.2089 11.4951 29.2987 11.3145 29.4271 11.1339C29.5554 10.9534 29.7094 10.7857 29.9019 10.6438C30.0816 10.489 30.2869 10.3729 30.5179 10.2826C30.7361 10.1923 30.9671 10.1407 31.1981 10.1407C31.3777 10.1407 31.5061 10.1536 31.5702 10.1536C31.6344 10.1665 31.7114 10.1794 31.7756 10.1794L31.7756 11.6628C31.6729 11.637 31.5574 11.6241 31.4419 11.6112C31.3264 11.5983 31.2237 11.5854 31.1082 11.5854C30.8516 11.5854 30.6077 11.637 30.3767 11.7402C30.1457 11.8434 29.9532 11.9982 29.7736 12.1916C29.6067 12.398 29.4656 12.6431 29.3629 12.9398C29.2602 13.2364 29.2089 13.5847 29.2089 13.9717L29.2089 17.2995L27.6689 17.2995L27.6946 10.3342ZM38.8339 17.3382L37.3196 17.3382L37.3196 16.3579L37.2939 16.3579C37.1014 16.7191 36.8191 16.99 36.4469 17.2093C36.0747 17.4285 35.6897 17.5317 35.3047 17.5317C34.3936 17.5317 33.7262 17.3124 33.3156 16.8481C32.9049 16.3966 32.6996 15.7001 32.6996 14.7843L32.6996 10.3342L34.2396 10.3342L34.2396 14.6295C34.2396 15.2486 34.3551 15.6872 34.5989 15.9323C34.8299 16.1902 35.1636 16.3192 35.5871 16.3192C35.9079 16.3192 36.1774 16.2676 36.3956 16.1645C36.6137 16.0613 36.7934 15.9323 36.9217 15.7646C37.0629 15.5969 37.1527 15.3905 37.2169 15.1583C37.2811 14.9262 37.3067 14.6682 37.3067 14.3973L37.3067 10.3342L38.8467 10.3342L38.8467 17.3382L38.8339 17.3382ZM41.4519 15.0939C41.5032 15.5453 41.6701 15.8549 41.9652 16.0484C42.2604 16.2289 42.6197 16.3192 43.0304 16.3192C43.1716 16.3192 43.3384 16.3063 43.5181 16.2805C43.6977 16.2547 43.8774 16.216 44.0314 16.1516C44.1982 16.0871 44.3266 15.9968 44.4292 15.8678C44.5319 15.7388 44.5832 15.584 44.5704 15.3905C44.5576 15.197 44.4934 15.0294 44.3522 14.9004C44.2111 14.7714 44.0442 14.6811 43.8389 14.5908C43.6336 14.5134 43.3897 14.4489 43.1202 14.3973C42.8507 14.3457 42.5812 14.2812 42.2989 14.2167C42.0166 14.1522 41.7342 14.0749 41.4647 13.9846C41.1952 13.8943 40.9642 13.7782 40.7461 13.6105C40.5407 13.4557 40.3611 13.2622 40.2456 13.0172C40.1172 12.7721 40.0531 12.4883 40.0531 12.1271C40.0531 11.7402 40.1429 11.4306 40.3354 11.1726C40.5151 10.9147 40.7589 10.7083 41.0412 10.5535C41.3236 10.3987 41.6444 10.2826 41.9909 10.2181C42.3374 10.1536 42.6711 10.1278 42.9791 10.1278C43.3384 10.1278 43.6849 10.1665 44.0057 10.2439C44.3266 10.3213 44.6346 10.4374 44.8912 10.618C45.1607 10.7857 45.3789 11.0179 45.5457 11.2887C45.7254 11.5596 45.8281 11.895 45.8794 12.2819L44.2752 12.2819C44.1982 11.9079 44.0314 11.6628 43.7747 11.5338C43.5052 11.4048 43.2101 11.3403 42.8636 11.3403C42.7609 11.3403 42.6197 11.3532 42.4786 11.3661C42.3246 11.3919 42.1962 11.4177 42.0551 11.4693C41.9267 11.5209 41.8112 11.5983 41.7214 11.6886C41.6316 11.7789 41.5802 11.9079 41.5802 12.0626C41.5802 12.2561 41.6444 12.398 41.7727 12.5141C41.9011 12.6302 42.0679 12.7205 42.2861 12.8108C42.4914 12.8882 42.7352 12.9527 43.0047 13.0043C43.2742 13.0559 43.5566 13.1203 43.8389 13.1848C44.1212 13.2493 44.3907 13.3267 44.6602 13.417C44.9297 13.5073 45.1736 13.6234 45.3789 13.7911C45.5842 13.9459 45.7639 14.1394 45.8922 14.3715C46.0206 14.6037 46.0847 14.9004 46.0847 15.2357C46.0847 15.6485 45.9949 15.9968 45.8024 16.2934C45.6099 16.5772 45.3661 16.8223 45.0709 17.0029C44.7757 17.1835 44.4292 17.3124 44.0699 17.4027C43.6977 17.4801 43.3384 17.5317 42.9791 17.5317C42.5427 17.5317 42.1321 17.4801 41.7599 17.3769C41.3877 17.2737 41.0541 17.119 40.7846 16.9255C40.5151 16.7191 40.2969 16.474 40.1429 16.1645C39.9889 15.8678 39.8991 15.5066 39.8862 15.081L41.4391 15.081L41.4391 15.0939L41.4519 15.0939ZM46.5211 10.3342L47.6889 10.3342L47.6889 8.21883L49.2289 8.21883L49.2289 10.3213L50.6149 10.3213L50.6149 11.4693L49.2289 11.4693L49.2289 15.2099C49.2289 15.3776 49.2417 15.5066 49.2546 15.6356C49.2674 15.7517 49.3059 15.8549 49.3444 15.9323C49.3957 16.0097 49.4727 16.0742 49.5626 16.1129C49.6652 16.1516 49.7936 16.1774 49.9732 16.1774C50.0759 16.1774 50.1914 16.1773 50.2941 16.1645C50.3967 16.1516 50.5122 16.1387 50.6149 16.1129L50.6149 17.3124C50.4481 17.3382 50.2812 17.3511 50.1144 17.364C49.9476 17.3898 49.7936 17.3898 49.6139 17.3898C49.2032 17.3898 48.8824 17.3511 48.6386 17.2737C48.3947 17.1964 48.2022 17.0803 48.0611 16.9384C47.9199 16.7836 47.8301 16.603 47.7787 16.3837C47.7274 16.1644 47.7017 15.8936 47.6889 15.6098L47.6889 11.4822L46.5211 11.4822L46.5211 10.3084L46.5211 10.3342ZM51.6929 10.3342L53.1431 10.3342L53.1431 11.2887L53.1687 11.2887C53.3869 10.876 53.6821 10.5922 54.0671 10.4116C54.4521 10.231 54.8627 10.1407 55.3247 10.1407C55.8766 10.1407 56.3514 10.231 56.7621 10.4374C57.1727 10.6309 57.5064 10.8889 57.7759 11.2371C58.0454 11.5725 58.2507 11.9724 58.3791 12.4238C58.5074 12.8753 58.5844 13.3654 58.5844 13.8685C58.5844 14.3457 58.5202 14.7972 58.4047 15.2357C58.2764 15.6743 58.0967 16.0742 57.8529 16.4095C57.6091 16.7449 57.3011 17.0158 56.9161 17.2221C56.5311 17.4285 56.0947 17.5317 55.5814 17.5317C55.3632 17.5317 55.1322 17.5059 54.9141 17.4672C54.6959 17.4285 54.4777 17.364 54.2724 17.2737C54.0671 17.1835 53.8746 17.0674 53.7077 16.9255C53.5281 16.7836 53.3869 16.6159 53.2714 16.4353L53.2457 16.4353L53.2457 19.9309L51.7057 19.9309L51.7057 10.3342L51.6929 10.3342ZM57.0701 13.8427C57.0701 13.5331 57.0316 13.2235 56.9417 12.9269C56.8647 12.6302 56.7364 12.3722 56.5696 12.14C56.4027 11.9079 56.1974 11.7273 55.9664 11.5854C55.7226 11.4435 55.4402 11.379 55.1322 11.379C54.4906 11.379 54.0029 11.5983 53.6692 12.0498C53.3484 12.5012 53.1816 13.1074 53.1816 13.8556C53.1816 14.2167 53.2201 14.5392 53.3099 14.8359C53.3997 15.1325 53.5152 15.3905 53.6949 15.6098C53.8617 15.8291 54.0671 15.9968 54.3109 16.1258C54.5547 16.2547 54.8242 16.3192 55.1451 16.3192C55.5044 16.3192 55.7867 16.2418 56.0306 16.1C56.2744 15.9581 56.4669 15.7646 56.6337 15.5453C56.7877 15.3131 56.9032 15.0552 56.9674 14.7585C57.0316 14.4489 57.0701 14.1522 57.0701 13.8427ZM59.7779 7.66418L61.3179 7.66418L61.3179 9.12174L59.7779 9.12174L59.7779 7.66418ZM59.7779 10.3342L61.3179 10.3342L61.3179 17.3382L59.7779 17.3382L59.7779 10.3342ZM62.6911 7.66418L64.2311 7.66418L64.2311 17.3382L62.6911 17.3382L62.6911 7.66418ZM68.928 17.5317C68.3762 17.5317 67.8757 17.4414 67.4394 17.2479C67.0031 17.0545 66.6437 16.8094 66.3357 16.4869C66.0406 16.1644 65.8095 15.7646 65.6555 15.3131C65.5015 14.8617 65.4117 14.3586 65.4117 13.8298C65.4117 13.3009 65.4887 12.8108 65.6555 12.3593C65.8095 11.9079 66.0406 11.5209 66.3357 11.1855C66.6309 10.8631 67.0031 10.6051 67.4394 10.4245C67.8757 10.2439 68.3762 10.1407 68.928 10.1407C69.4799 10.1407 69.9804 10.231 70.4167 10.4245C70.8531 10.6051 71.2124 10.8631 71.5204 11.1855C71.8155 11.508 72.0465 11.9079 72.2005 12.3593C72.3545 12.8108 72.4444 13.3009 72.4444 13.8298C72.4444 14.3715 72.3674 14.8617 72.2005 15.3131C72.0337 15.7646 71.8155 16.1516 71.5204 16.4869C71.2252 16.8094 70.8531 17.0674 70.4167 17.2479C69.9804 17.4285 69.4927 17.5317 68.928 17.5317ZM68.928 16.3063C69.2617 16.3063 69.5697 16.2289 69.8135 16.0871C70.0702 15.9452 70.2627 15.7517 70.4295 15.5195C70.5964 15.2873 70.7119 15.0165 70.7889 14.7327C70.8659 14.436 70.9044 14.1393 70.9044 13.8298C70.9044 13.5331 70.8659 13.2364 70.7889 12.9398C70.7119 12.6431 70.5964 12.3851 70.4295 12.1529C70.2627 11.9208 70.0574 11.7402 69.8135 11.5983C69.5569 11.4564 69.2617 11.379 68.928 11.379C68.5944 11.379 68.2864 11.4564 68.0426 11.5983C67.7859 11.7402 67.5934 11.9337 67.4266 12.1529C67.2597 12.3851 67.1442 12.6431 67.0672 12.9398C66.9902 13.2364 66.9517 13.5331 66.9517 13.8298C66.9517 14.1393 66.9902 14.436 67.0672 14.7327C67.1442 15.0294 67.2597 15.2873 67.4266 15.5195C67.5934 15.7517 67.7987 15.9452 68.0426 16.0871C68.2992 16.2418 68.5944 16.3063 68.928 16.3063ZM72.9064 10.3342L74.0742 10.3342L74.0742 8.21882L75.6142 8.21882L75.6142 10.3213L77.0002 10.3213L77.0002 11.4693L75.6142 11.4693L75.6142 15.2099C75.6142 15.3776 75.627 15.5066 75.6399 15.6356C75.6527 15.7517 75.6912 15.8549 75.7297 15.9323C75.781 16.0097 75.858 16.0742 75.9479 16.1129C76.0505 16.1516 76.1789 16.1773 76.3585 16.1773C76.4612 16.1773 76.5767 16.1773 76.6794 16.1644C76.782 16.1516 76.8975 16.1387 77.0002 16.1129L77.0002 17.3124C76.8334 17.3382 76.6665 17.3511 76.4997 17.364C76.3329 17.3898 76.1789 17.3898 75.9992 17.3898C75.5885 17.3898 75.2677 17.3511 75.0239 17.2737C74.78 17.1963 74.5875 17.0803 74.4464 16.9384C74.3052 16.7836 74.2154 16.603 74.1641 16.3837C74.1127 16.1644 74.087 15.8936 74.0742 15.6098L74.0742 11.4822L72.9064 11.4822L72.9064 10.3084L72.9064 10.3342Z" fill="#001D23"/>
<path d="M18.4415 7.6643L11.396 7.6643L9.22716 0.931152L7.0455 7.6643L5.87503e-07 7.6514L5.698 11.8177L3.51633 18.5508L9.21433 14.3845L14.9123 18.5508L12.7435 11.8177L18.4415 7.6643Z" fill="#00B67A"/>
<path d="M13.2315 13.3397L12.7439 11.8176L9.22754 14.3845L13.2315 13.3397Z" fill="#005128"/>
</svg>
