<svg width="120" height="44" viewBox="0 0 120 44" fill="none" xmlns="http://www.w3.org/2000/svg">
<mask id="mask0_1543_46416" style="mask-type:alpha" maskUnits="userSpaceOnUse" x="0" y="0" width="120" height="44">
<rect width="120" height="44" fill="#D9D9D9"/>
</mask>
<g mask="url(#mask0_1543_46416)">
<path fill-rule="evenodd" clip-rule="evenodd" d="M6.80624 30.9279C6.09017 30.9279 5.94618 30.9279 6.37621 29.9252L7.66566 26.7729C7.95235 25.9128 8.09569 25.6268 8.23903 25.4834H8.38238C8.38238 25.6268 8.52637 25.9135 8.81306 26.7729L9.95916 29.9252C10.3892 30.9279 10.2452 30.9279 9.38578 30.9279H6.80624ZM9.95851 32.074C10.6746 32.074 10.8186 32.218 11.1046 33.0768L11.9647 35.3696C12.3947 36.5157 12.5374 36.6597 11.5346 36.8024L10.8186 36.9464C10.5319 37.0904 10.5319 37.8065 10.9619 37.8065H17.1231C17.5525 37.8065 17.5525 37.0904 17.2665 36.9464L16.6931 36.8024C15.403 36.6597 15.1169 36.0864 14.6869 34.9396L11.3913 26.1995C10.5312 24.05 9.95851 22.1878 9.81517 21.7578C9.67183 21.6145 9.52848 21.4711 9.24179 21.6145C9.09845 22.0445 8.38173 22.7606 7.66566 23.0472C7.66566 23.7633 7.37962 24.6227 6.80624 26.0562L3.22394 34.3669C2.50787 36.0857 2.22118 36.5157 1.07443 36.8018L0.215016 36.9458C-0.0716719 37.0898 -0.0716719 37.6618 0.215016 37.8058H5.65949C6.08952 37.8058 6.08952 37.0898 5.80219 36.9458L4.79943 36.8018C4.08271 36.6591 3.93937 36.5157 4.3694 35.369L5.22882 33.0761C5.5155 32.2174 5.65949 32.0734 6.51891 32.0734H9.95851V32.074ZM20.8481 28.0623C20.8481 25.9128 20.7048 25.7695 19.4147 25.6261L18.8419 25.4828C18.5553 25.3395 18.6986 24.9094 18.8419 24.7661C19.9881 24.9094 20.9915 24.9094 21.8509 24.9094C22.8543 24.9094 23.7137 24.9094 24.8598 24.7661C25.1465 24.9094 25.1465 25.3395 25.0031 25.4828L24.4304 25.6261C23.141 25.7695 22.9976 25.9128 22.9976 28.0623V34.6529C22.9976 36.6591 23.141 36.8018 24.4304 36.9458L25.0031 37.0898C25.1465 37.2325 25.1465 37.8058 24.8598 37.8058H18.8419C18.6986 37.8058 18.5553 37.2318 18.8419 37.0898L19.4147 36.9458C20.7048 36.8018 20.8481 36.6597 20.8481 34.6529V28.0623ZM31.3077 26.4862C31.3077 25.7701 31.5944 25.6261 32.5971 25.6261C34.7466 25.6261 35.7494 26.9156 35.7494 28.4924C35.7494 30.4972 34.746 31.214 32.8838 31.214C31.451 31.214 31.3077 31.214 31.3077 30.4979V26.4862ZM29.1582 34.6529C29.1582 36.6591 29.0148 36.8018 27.7254 36.9458L27.2954 37.0898C27.0087 37.2325 27.0087 37.8058 27.2954 37.8058H33.3132C33.5999 37.8058 33.5999 37.2318 33.4565 37.0898L32.7405 36.9458C31.451 36.8018 31.3077 36.6597 31.3077 34.6529V32.5041C31.3077 32.074 31.451 32.074 32.1677 32.074C32.5978 32.074 33.1705 32.218 33.3139 32.5041C34.0299 33.5068 34.7466 34.7969 35.6067 35.7997C36.8962 37.3758 37.8989 37.9485 39.6184 37.9485C40.1918 37.9485 40.6218 37.9485 40.9078 37.8058C41.0512 37.6618 41.0512 37.5185 40.9078 37.3758C40.4778 37.3758 39.9051 37.0898 39.3317 36.6597C38.3289 35.9437 37.0388 34.5109 35.6067 31.9307C35.4634 31.788 35.4634 31.6446 35.6067 31.5019C36.7522 31.0719 38.1856 30.2119 38.1856 28.349C38.1856 25.1968 35.1767 24.7667 32.4544 24.7667C30.8783 24.7667 29.1588 24.9101 27.5827 24.9101C27.296 25.0534 27.296 25.6261 27.5827 25.7701H28.4427C29.0161 25.9135 29.1588 26.4862 29.1588 28.349V34.6529H29.1582Z" fill="#868686"/>
<path fill-rule="evenodd" clip-rule="evenodd" d="M45.7799 26.1997C45.7799 23.9068 45.7799 23.3341 44.9198 23.1907L43.9171 23.0474C43.487 22.904 43.6304 22.1873 43.9171 22.1873C45.9226 22.044 47.7854 21.9006 49.6482 21.9006C51.7977 21.9006 53.0872 22.1873 54.09 22.474C55.2361 22.904 56.9555 24.1935 56.9555 26.7724C56.9555 29.2086 55.3794 30.4974 53.9466 30.9274C52.8005 31.3574 51.3677 31.5014 50.651 31.5014C50.5077 31.2141 50.5077 30.9274 50.651 30.7854C52.9432 30.3553 53.9466 28.9225 53.9466 26.629C53.9466 24.3368 52.5138 22.904 50.0783 22.904C48.6455 22.904 48.6455 23.1907 48.6455 24.1935V33.9363C48.6455 36.5152 48.7888 36.6592 50.2216 36.8019L51.0817 36.9459C51.3684 37.0899 51.3684 37.806 51.0817 37.806H43.631C43.3443 37.806 43.3443 37.0899 43.631 36.9459L44.0611 36.8019C45.6372 36.5159 45.7805 36.5159 45.7805 33.9363V26.1997H45.7799ZM63.4034 26.4863C63.4034 25.7703 63.5474 25.6263 64.6935 25.6263C66.6997 25.6263 67.8464 26.9157 67.8464 28.4925C67.8464 30.4974 66.8424 31.2141 64.8375 31.2141C63.4034 31.2141 63.4034 31.2141 63.4034 30.498V26.4863ZM61.1119 34.6531C61.1119 36.6592 60.9679 36.8019 59.6784 36.9459L59.2484 37.0899C58.9617 37.2326 59.105 37.806 59.3917 37.806H65.4096C65.5536 37.806 65.6956 37.232 65.4096 37.0899L64.6935 36.9459C63.5474 36.8019 63.4034 36.6599 63.4034 34.6531V32.5042C63.4034 32.0742 63.4034 32.0742 64.2635 32.0742C64.6935 32.0742 65.1235 32.2182 65.4096 32.5042C65.9823 33.507 66.8424 34.797 67.5585 35.7998C68.8485 37.3759 69.8513 37.9487 71.7141 37.9487C72.2881 37.9487 72.7169 37.9487 73.0042 37.806V37.3759C72.4302 37.3759 71.8581 37.0899 71.4281 36.6599C70.4253 35.9438 69.1352 34.511 67.5591 31.9308C67.5591 31.7881 67.4164 31.6448 67.5591 31.5021C68.7052 31.0721 70.282 30.212 70.282 28.3492C70.282 25.1969 67.2731 24.7669 64.5502 24.7669C62.8313 24.7669 61.2546 24.9102 59.5357 24.9102C59.2497 25.0536 59.3924 25.6263 59.5357 25.7703H60.3964C61.1125 25.9136 61.1125 26.4863 61.1125 28.3492V34.6531H61.1119ZM76.5859 28.0625C76.5859 25.913 76.4432 25.7696 75.1531 25.6263L74.5804 25.4829C74.4364 25.3396 74.4364 24.9096 74.7231 24.7662C75.8692 24.9096 76.7292 24.9096 77.732 24.9096C78.592 24.9096 79.5948 24.9096 80.7409 24.7662C80.8849 24.9096 81.027 25.3396 80.7409 25.4829L80.1682 25.6263C78.8781 25.7696 78.8781 25.913 78.8781 28.0625V34.6531C78.8781 36.6592 78.8781 36.8019 80.1682 36.9459L80.7409 37.0899C81.027 37.2326 80.8849 37.806 80.7409 37.806H74.7231C74.437 37.806 74.437 37.232 74.5804 37.0899L75.1531 36.9459C76.4432 36.8019 76.5859 36.6599 76.5859 34.6531V28.0625ZM91.3445 32.5042C91.4872 32.9342 92.3472 34.223 92.3472 34.367C92.4912 34.223 93.0633 33.3643 93.636 32.2182L95.0701 29.3519C96.5029 26.6297 96.645 26.2003 97.219 24.7669C97.7917 24.9102 98.3651 24.9102 98.9378 24.9102C99.6539 24.9102 100.514 24.9102 101.374 24.7669C101.517 24.9102 101.66 25.3402 101.374 25.4836L100.8 25.6269C99.3672 25.7703 99.3672 26.343 99.3672 28.0631C99.3672 31.2148 99.3672 33.7936 99.5112 35.5138C99.5112 36.2298 99.5112 36.9466 100.514 36.9466L101.374 37.0905C101.517 37.2332 101.517 37.6633 101.23 37.8066H95.6416C95.4976 37.6626 95.4976 37.2326 95.6416 37.0905L96.3576 36.9466C97.2177 36.9466 97.2177 36.6605 97.2177 35.5138V28.6352V27.7758C97.0737 27.7758 96.3576 29.2092 95.9276 30.068L94.0648 33.3643C93.9221 33.937 92.3459 36.9459 92.0599 37.9487H91.4859C91.0558 36.8026 90.1971 34.9398 89.6231 33.937L87.7602 30.2113C87.4742 29.6386 86.7575 28.0625 86.6141 27.9185C86.4714 28.0625 86.4714 30.0674 86.3281 30.9274V34.7964C86.3281 36.2292 86.3281 36.9453 87.1881 36.9453L88.1909 37.0893C88.3349 37.232 88.3349 37.662 88.1909 37.8053H83.3198C83.0338 37.6613 83.0338 37.2313 83.3198 37.0893L83.8938 36.9453C84.8966 36.8013 84.8966 36.5152 85.0399 35.5125C85.326 33.9363 85.4687 29.2079 85.4687 27.2018C85.4687 26.199 85.1826 25.769 84.1799 25.6256L83.4638 25.4823C83.3198 25.3389 83.3198 24.9089 83.4638 24.7656C84.3226 24.9089 85.0399 24.9089 85.7566 24.9089C86.3294 24.9089 87.0454 24.9089 87.9055 24.7656C87.9055 26.0557 88.4782 27.0578 89.4817 29.0639L91.3445 32.5042ZM105.958 28.0625C105.958 25.913 105.816 25.913 104.67 25.6263L104.24 25.4829C104.096 25.4829 104.096 24.9096 104.384 24.7662C105.242 24.9096 106.102 24.9096 107.105 24.9096H111.261C112.551 24.9096 113.84 24.9096 113.984 24.7662C114.128 25.1963 114.27 26.4857 114.414 27.7751C114.27 28.0618 113.84 28.0618 113.554 27.9185C113.41 27.0584 113.268 26.7724 113.124 26.4857C112.551 25.7696 111.261 25.7696 110.545 25.7696H109.256C108.252 25.7696 108.252 25.7696 108.252 26.629V29.9247C108.252 30.4974 108.252 30.6407 108.682 30.6407H110.115C111.691 30.6407 111.835 30.3547 112.121 29.4946L112.265 28.9219C112.408 28.6346 112.838 28.7779 112.981 28.9219V33.2196C112.837 33.3636 112.407 33.3636 112.265 33.2196L112.121 32.6469C111.835 31.7868 111.691 31.5008 110.115 31.5008H108.682C108.252 31.5008 108.252 31.6435 108.252 32.2169V34.3657C108.252 35.2258 108.252 36.0846 108.538 36.5146C108.825 36.8006 109.255 36.9446 110.974 36.9446C112.837 36.9446 113.983 36.8006 114.843 34.3657C114.986 34.2217 115.559 34.2217 115.559 34.5097C115.415 35.7985 114.985 37.2313 114.699 37.8053H103.809C103.523 37.8053 103.523 37.2313 103.666 37.0893L104.525 36.9453C105.815 36.8013 105.958 36.6592 105.958 34.6524V28.0625H105.958Z" fill="#868686"/>
<path fill-rule="evenodd" clip-rule="evenodd" d="M27.7253 13.7339C27.8948 13.7332 28.0628 13.7661 28.2196 13.8307C28.3764 13.8952 28.5189 13.9902 28.6388 14.11C28.7587 14.2299 28.8537 14.3723 28.9184 14.5291C28.983 14.6858 29.016 14.8538 29.0154 15.0234C29.0154 15.5968 28.442 16.1695 27.7253 16.1695C27.0092 16.1695 26.4358 15.5961 26.4358 15.0234C26.4358 14.3073 27.0086 13.7339 27.7253 13.7339ZM33.7431 10.725C34.3165 10.725 34.7459 11.2984 34.7459 11.8711C34.7459 12.3011 34.3159 12.8739 33.7431 12.8739C33.1704 12.8739 32.7404 12.3005 32.7404 11.8711C32.7404 11.2984 33.1697 10.725 33.7431 10.725ZM39.3309 8.57614C39.761 8.57614 40.191 8.86218 40.191 9.43555C40.191 9.86558 39.761 10.1516 39.3309 10.1516C38.9009 10.1516 38.4709 9.86494 38.4709 9.43555C38.4715 8.86218 38.9016 8.57614 39.3309 8.57614ZM44.9194 7.42939C45.2061 7.42939 45.4928 7.71607 45.4928 8.14546C45.4928 8.43215 45.2061 8.71883 44.9194 8.71883C44.4894 8.71883 44.2027 8.43215 44.2027 8.14546C44.2027 7.71607 44.4894 7.42939 44.9194 7.42939ZM49.9345 7C50.2206 7 50.5072 7.28669 50.5072 7.57338C50.5072 7.85942 50.2206 8.00341 49.9345 8.00341C49.6478 8.00341 49.3611 7.86006 49.3611 7.57338C49.3611 7.28604 49.6478 7 49.9345 7ZM22.1374 18.1756C23.1402 18.1756 23.8569 18.8917 23.8569 19.8951C23.8569 20.7545 23.1409 21.6146 22.1374 21.6146C21.2774 21.6146 20.418 20.7545 20.418 19.8951C20.418 18.8924 21.2774 18.1756 22.1374 18.1756ZM72.1431 13.7339C71.427 13.7339 70.8543 14.3073 70.8543 15.0234C70.8543 15.7394 71.427 16.3128 72.1431 16.3128C72.8592 16.3128 73.4332 15.7394 73.4332 15.0234C73.4332 14.3073 72.8592 13.7339 72.1431 13.7339ZM65.9813 10.725C65.5525 10.725 64.9785 11.2984 64.9785 11.8711C64.9785 12.4438 65.5525 12.8739 65.9813 12.8739C66.5553 12.8739 67.1287 12.4438 67.1287 11.8711C67.1287 11.2984 66.5546 10.725 65.9813 10.725ZM60.5368 8.57614C60.1067 8.57614 59.6774 8.86218 59.6774 9.43555C59.6774 9.86558 60.1067 10.1516 60.5368 10.1516C60.9668 10.1516 61.2528 9.86494 61.2528 9.43555C61.2528 8.86218 60.9668 8.57614 60.5368 8.57614ZM54.949 7.42939C54.5189 7.42939 54.2322 7.71607 54.2322 8.14546C54.2322 8.43215 54.5189 8.71883 54.949 8.71883C55.379 8.71883 55.665 8.43215 55.665 8.14546C55.6657 7.71607 55.379 7.42939 54.949 7.42939ZM77.7309 18.1756C76.7282 18.1756 75.8681 18.8917 75.8681 19.8951C75.8681 20.8979 76.7282 21.6146 77.7309 21.6146C78.591 21.6146 79.451 20.8985 79.451 19.8951C79.451 18.8924 78.591 18.1756 77.7309 18.1756Z" fill="#868686"/>
<path fill-rule="evenodd" clip-rule="evenodd" d="M118.854 26.4863L119.426 24.9102H120V27.059H119.713V25.3395L118.998 27.059H118.711L117.995 25.3395V27.059H117.709V24.9102H118.281L118.854 26.4863ZM117.277 25.1968H116.561V27.059H116.131V25.1968H115.559V24.9102H117.277V25.1968Z" fill="#868686"/>
</g>
</svg>
