<svg width="120" height="44" viewBox="0 0 120 44" fill="none" xmlns="http://www.w3.org/2000/svg">
<mask id="mask0_1543_46388" style="mask-type:alpha" maskUnits="userSpaceOnUse" x="0" y="0" width="120" height="44">
<rect width="120" height="44" fill="#D9D9D9"/>
</mask>
<g mask="url(#mask0_1543_46388)">
<path fill-rule="evenodd" clip-rule="evenodd" d="M26.5982 25.8728C27.009 26.0365 27.4584 26.0785 27.8925 25.9937C28.3265 25.9089 28.727 25.7009 29.046 25.3945C29.365 25.0882 29.5891 24.6964 29.6913 24.2661C29.7936 23.8358 29.7698 23.3851 29.6227 22.968C29.4757 22.5509 29.2116 22.1849 28.8621 21.9138C28.5126 21.6428 28.0924 21.4781 27.6518 21.4396C27.2112 21.401 26.7688 21.4901 26.3775 21.6963C25.9862 21.9024 25.6625 22.2169 25.4452 22.6021L22.4795 14.1846H22.2818L25.3298 22.8347C25.212 23.111 25.1471 23.4147 25.1471 23.7345C25.1471 24.2802 25.3367 24.7796 25.6529 25.1744C24.407 26.5917 20.9412 30.0544 16.8281 30.0544C12.6222 30.0544 10.2089 27.4629 8.97927 25.4824C9.41126 25.1117 9.6907 24.5942 9.76369 24.0297C9.83668 23.4651 9.69805 22.8936 9.37454 22.4252C9.05103 21.9568 8.56555 21.6248 8.01174 21.4932C7.45792 21.3616 6.875 21.4398 6.37538 21.7126C5.87577 21.9854 5.49485 22.4335 5.3061 22.9705C5.11735 23.5075 5.13413 24.0954 5.35321 24.6208C5.57228 25.1462 5.97814 25.5719 6.4925 25.8157C7.00686 26.0596 7.59329 26.1043 8.1387 25.9414C9.4775 28.1189 12.1376 31.0103 16.8281 31.0103C21.3783 31.0103 25.0449 27.3381 26.3774 25.806L30.064 36.2689H25.0997L25.3473 37.0652H30.5416L26.5982 25.8728Z" fill="#C6C7C9"/>
<path fill-rule="evenodd" clip-rule="evenodd" d="M23.4022 31.5519H14.9579L13.3647 36.2692H9.09196L8.80762 37.0655H13.8429L15.4361 32.3482H23.651L23.4022 31.5519Z" fill="#C6C7C9"/>
<path d="M8.18848 42.2172H37.6483V40.6595H8.18848V42.2172ZM86.6358 42.2172H114.768V40.6595H86.6358V42.2172Z" fill="#C6C7C9"/>
<path fill-rule="evenodd" clip-rule="evenodd" d="M68.1653 -12.6188L66.9163 -12.6437L67.1171 -13.0278L66.8608 -13.1669L66.3863 -12.6537L63.9862 -12.7004L63.6582 -12.2421L66.5515 -11.3966L66.8907 -11.1228L65.6885 -9.29452L64.3198 -9.23902L64.0535 -8.90853L65.113 -8.39471L65.3605 -8.19455L66.0863 -7.26792L66.3539 -7.59841L66.1181 -8.94844L67.6503 -10.5099L67.9895 -10.2361L69.4299 -7.58781L69.8072 -8.00623L69.2534 -10.3415L69.655 -10.9133L69.4648 -11.1347L69.1312 -10.8572L68.8431 -12.0731C68.8431 -12.0731 70.1763 -13.6589 69.8134 -13.9519L69.7966 -13.965C69.433 -14.2575 68.1653 -12.6188 68.1653 -12.6188ZM61.6546 -5.08856C61.6546 -5.08856 48.1993 7.65842 41.3301 12.2616C41.3301 12.2616 58.6091 0.647648 61.7251 -4.59282C61.7245 -4.59282 62.0525 -5.2301 61.6546 -5.08856Z" fill="#868686"/>
<path fill-rule="evenodd" clip-rule="evenodd" d="M33.8531 31.8062H33.9174L34.014 31.4713L30.8257 20.1105H30.5713L33.8531 31.8062ZM41.9788 20.1105L36.1479 36.269H31.655L31.9413 37.0653H36.6255L42.7446 20.1105H41.9788ZM47.4263 20.1105V36.269H43.4424V37.0653H47.904V20.1105H47.4263Z" fill="#C6C7C9"/>
<path d="M42.9639 36.2691H47.4249V19.3155H42.9639V36.2691Z" fill="#868686"/>
<path fill-rule="evenodd" clip-rule="evenodd" d="M79.7079 21.8353C80.0714 22.5955 80.2735 23.499 80.2735 24.5416V36.269H76.2901V37.0653H80.7518V25.3379C80.7524 23.9024 80.3682 22.732 79.7079 21.8353ZM69.2151 21.7998H69.28C69.3922 21.6108 69.5275 21.3907 69.694 21.1594V20.1105H69.2151V21.7998ZM72.9129 22.6291C70.9368 22.6291 69.4072 23.9673 69.4072 26.5482V36.2684H65.4238V37.0647H69.8842V27.3445C69.8842 24.7636 71.4144 23.4254 73.3899 23.4254C74.478 23.4254 75.1565 23.7347 75.5824 24.1868C75.2768 23.3444 74.5666 22.6291 72.9129 22.6291Z" fill="#C6C7C9"/>
<path fill-rule="evenodd" clip-rule="evenodd" d="M80.2723 36.269H75.8106V25.9751C75.8106 24.733 75.747 22.6297 72.911 22.6297C70.9356 22.6297 69.406 23.9679 69.406 26.5488V36.269H64.9443V19.3154H69.2145V21.7997H69.2794C69.8842 20.7802 71.1601 18.8683 74.3777 18.8683C77.6919 18.8683 80.2735 20.812 80.2735 24.5415V36.269H80.2723Z" fill="#868686"/>
<path fill-rule="evenodd" clip-rule="evenodd" d="M96.3766 22.5247C96.7695 23.3079 97.0382 24.2457 97.1262 25.3694H92.8716C92.9713 25.6481 93.0374 25.9225 93.0792 26.1657H97.6044C97.4847 24.6311 97.0276 23.4426 96.3766 22.5247ZM86.5785 28.3338C86.5785 26.2306 87.3112 23.4257 90.1154 23.4257C91.1449 23.3621 91.8358 23.7631 92.2935 24.3199C91.8994 23.4077 91.1187 22.5372 89.6377 22.6295C86.8329 22.6295 86.0996 25.433 86.0996 27.5363C86.0996 28.7566 86.1283 30.7676 87.1191 31.9936C86.596 30.8088 86.5785 29.3141 86.5785 28.3338Z" fill="#C6C7C9"/>
<path fill-rule="evenodd" clip-rule="evenodd" d="M97.0941 30.0863C96.9357 31.8392 95.5651 36.7142 89.3506 36.7142C82.9771 36.7142 81.5117 31.8392 81.5117 28.2692C81.5117 22.7874 83.9019 18.8683 89.6381 18.8683C92.315 18.8683 96.7124 20.0787 97.1265 25.3696H92.6019C92.4098 24.2541 91.7089 22.5012 89.6381 22.6291C86.8332 22.6291 86.0999 25.4326 86.0999 27.5359C86.0999 29.3848 86.1642 33.0495 89.542 33.0495C91.805 33.0495 92.5688 30.8826 92.5688 30.0863H97.0941Z" fill="#868686"/>
<path fill-rule="evenodd" clip-rule="evenodd" d="M62.4937 21.8497C62.7375 22.3916 62.8778 23.0288 62.8778 23.7765V32.9535C62.8778 34.5212 63.1497 35.136 63.5257 35.4223C63.4184 35.04 63.3561 34.505 63.3561 33.7511V24.5734C63.3561 23.4236 63.0237 22.5343 62.4937 21.8497ZM56.0585 23.2346C56.8055 23.2346 57.8226 23.2758 58.4411 23.8226C58.1007 22.5131 56.5929 22.4377 55.5802 22.4377C53.3497 22.4377 52.9668 23.8077 52.839 24.7954H49.1238C49.0789 25.0486 49.0421 25.3142 49.0147 25.5917H53.3173C53.4451 24.6046 53.8267 23.2346 56.0585 23.2346ZM58.6394 34.2605C57.6199 35.3131 56.1857 36.7149 53.1583 36.7149C51.552 36.7149 49.9207 36.145 48.9336 34.8467C49.7941 36.7112 51.7328 37.5112 53.6365 37.5112C56.3622 37.5112 57.7964 36.3751 58.7991 35.3811C58.7323 35.0799 58.6906 34.7706 58.6394 34.2605ZM63.8662 36.092V36.2684H59.2985C59.354 36.4998 59.4264 36.7361 59.5318 37.0647H64.3438V36.395C64.161 36.3373 63.9963 36.2328 63.8662 36.092ZM105.219 23.2346C105.966 23.2346 106.983 23.2758 107.602 23.8226C107.262 22.5131 105.754 22.4377 104.741 22.4377C102.511 22.4377 102.128 23.8077 102 24.7954H98.284C98.2397 25.0486 98.2029 25.3142 98.1755 25.5917H102.478C102.606 24.6046 102.988 23.2346 105.219 23.2346ZM111.655 21.8497C111.898 22.3916 112.039 23.0288 112.039 23.7765V32.9535C112.039 34.5212 112.311 35.136 112.687 35.4223C112.579 35.04 112.517 34.505 112.517 33.7511V24.5734C112.517 23.4236 112.185 22.5343 111.655 21.8497ZM107.8 34.2605C106.78 35.3131 105.346 36.7149 102.319 36.7149C100.713 36.7149 99.0815 36.145 98.0944 34.8467C98.9543 36.7112 100.894 37.5112 102.797 37.5112C105.523 37.5112 106.957 36.3751 107.96 35.3811C107.893 35.0799 107.851 34.7706 107.8 34.2605ZM113.027 36.092V36.2684H108.459C108.515 36.4998 108.587 36.7361 108.693 37.0647H113.505V36.395C113.322 36.3373 113.157 36.2328 113.027 36.092ZM97.1566 31.775C97.1566 31.4632 97.1753 31.1658 97.2115 30.8833H96.9701C96.5131 32.9916 94.782 36.7149 89.3514 36.7149C86.1512 36.7149 84.1889 35.4859 83.0272 33.8091C84.0953 35.8781 86.14 37.5118 89.829 37.5118C94.5644 37.5118 96.4863 34.6815 97.204 32.5588C97.1726 32.2987 97.1567 32.037 97.1566 31.775Z" fill="#C6C7C9"/>
<path fill-rule="evenodd" clip-rule="evenodd" d="M112.038 32.9535C112.038 34.962 112.485 35.4078 113.027 35.5986V36.2683H108.214C107.96 35.4708 107.895 35.2158 107.8 34.2598C106.78 35.3124 105.346 36.7142 102.319 36.7142C99.769 36.7142 97.1562 35.2806 97.1562 31.7743C97.1562 28.4606 99.2595 26.7726 102.096 26.3567L106.111 25.7512C106.812 25.6552 107.673 25.369 107.673 24.4131C107.673 22.5324 105.888 22.4376 104.741 22.4376C102.51 22.4376 102.127 23.8076 102 24.7953H97.6975C98.207 19.601 101.809 18.8677 105.283 18.8677C107.673 18.8677 112.038 19.601 112.038 23.7758V32.9535Z" fill="#868686"/>
<path fill-rule="evenodd" clip-rule="evenodd" d="M48.13 14.4323C48.4384 15.1658 48.4719 15.9859 48.2243 16.7421C47.9766 17.4982 47.4645 18.1397 46.782 18.5486C46.0994 18.9575 45.2922 19.1064 44.5087 18.968C43.7251 18.8296 43.0178 18.4132 42.5166 17.7952C42.7824 18.4228 43.2348 18.9536 43.8124 19.3155H47.31C47.707 19.0676 48.0469 18.7382 48.3071 18.3491C48.5674 17.9601 48.742 17.5202 48.8195 17.0585C48.8971 16.5969 48.8757 16.1241 48.7568 15.6714C48.6379 15.2186 48.4243 14.7963 48.13 14.4323Z" fill="#C6C7C9"/>
<path fill-rule="evenodd" clip-rule="evenodd" d="M45.0854 19.018C45.9619 19.018 46.8025 18.6698 47.4223 18.05C48.0421 17.4302 48.3903 16.5896 48.3903 15.7131C48.3903 14.8365 48.0421 13.9959 47.4223 13.3761C46.8025 12.7563 45.9619 12.4081 45.0854 12.4081C44.2089 12.4081 43.3683 12.7563 42.7485 13.3761C42.1287 13.9959 41.7805 14.8365 41.7805 15.7131C41.7805 16.5896 42.1287 17.4302 42.7485 18.05C43.3683 18.6698 44.2089 19.018 45.0854 19.018ZM26.379 25.8055C25.0464 27.3376 21.3798 31.0098 16.8297 31.0098C14.3011 31.0098 12.363 30.1692 10.9039 29.0537L8.33105 36.2683H13.3664L14.9602 31.5517H23.4046L24.8718 36.2683H30.0661L26.379 25.8055Z" fill="#868686"/>
<path fill-rule="evenodd" clip-rule="evenodd" d="M16.8278 30.0541C20.9415 30.0541 24.4067 26.5914 25.6526 25.174C25.3246 24.7659 25.1461 24.2578 25.1469 23.7342C25.1469 23.4137 25.2117 23.1107 25.3296 22.8344L22.001 13.3874H16.488L11.2432 28.098C12.5913 29.2004 14.414 30.0541 16.8278 30.0541Z" fill="#868686"/>
<path fill-rule="evenodd" clip-rule="evenodd" d="M19.1644 18.5498H19.228L22.064 27.5996H16.2324L19.1644 18.5498Z" fill="white"/>
<path fill-rule="evenodd" clip-rule="evenodd" d="M37.5191 19.3154L33.918 31.8061H33.8537L30.3487 19.3154H25.377L26.2562 21.7635C26.6056 21.5516 27.0051 21.4364 27.4137 21.4298C27.8223 21.4232 28.2254 21.5254 28.5814 21.7259C28.9375 21.9265 29.2338 22.2182 29.4399 22.5711C29.6461 22.924 29.7546 23.3253 29.7544 23.734C29.7542 24.2874 29.5547 24.8222 29.1925 25.2405C28.8304 25.6589 28.3297 25.933 27.7821 26.0125L31.4636 36.2683H36.1485L42.2669 19.3148H37.5191V19.3154ZM62.8771 32.9535C62.8771 34.962 63.3236 35.4078 63.8654 35.5986V36.2683H59.0534C58.7983 35.4708 58.7341 35.2158 58.6387 34.2598C57.6192 35.3124 56.1849 36.7142 53.1575 36.7142C50.6078 36.7142 47.995 35.2806 47.995 31.7743C47.995 28.4606 50.0983 26.7726 52.9343 26.3567L56.9501 25.7512C57.651 25.6552 58.5115 25.369 58.5115 24.4131C58.5115 22.5324 56.7268 22.4376 55.5795 22.4376C53.349 22.4376 52.9661 23.8076 52.8383 24.7953H48.5369C49.0457 19.601 52.6474 18.8677 56.1213 18.8677C58.5115 18.8677 62.8771 19.601 62.8771 23.7758V32.9535ZM38.7051 39.9786H40.3706C40.8882 39.9786 41.9289 40.0615 41.9289 40.9831C41.9289 41.6447 41.4058 41.7751 41.1376 41.8405V41.853C41.6552 41.9603 42.131 42.2452 42.131 42.8701C42.131 43.0964 42.0125 43.9164 40.6918 43.9164H38.7051V43.8042C39.2046 43.7917 39.2763 43.6907 39.2763 43.2685V40.6283C39.2763 40.1875 39.1927 40.1157 38.7051 40.0927V39.9786ZM46.5876 40.0914C46.1293 40.1388 46.0283 40.228 46.0283 40.8528V42.4055C46.0283 42.8806 46.0283 44 44.4874 44C43.0121 44 43.0121 42.8407 43.0121 42.4822V40.6271C43.0121 40.1862 42.9291 40.1207 42.4771 40.0914V39.9779H44.1601V40.0914C43.6905 40.1282 43.6188 40.2037 43.6188 40.6271V42.5308C43.6188 42.9106 43.6188 43.7381 44.6539 43.7381C45.1179 43.7381 45.4571 43.5479 45.6298 43.2679C45.7071 43.1363 45.7664 42.9418 45.7664 42.4591V40.8528C45.7664 40.2168 45.6236 40.1145 45.207 40.0914V39.9779H46.5876V40.0914ZM49.9717 43.9158H46.7597V43.8035C47.1401 43.7792 47.2773 43.7256 47.2773 43.2679V40.6277C47.2773 40.1575 47.1339 40.1214 46.7597 40.0921V39.9786H49.9181L49.9362 40.8285H49.7871C49.698 40.2997 49.5433 40.2037 48.883 40.2037H48.0798C47.9551 40.2037 47.884 40.2037 47.884 40.407V41.727H48.8C49.3294 41.727 49.3887 41.5843 49.4542 41.1621H49.5907V42.5433H49.4542C49.3831 42.0656 49.2939 41.9833 48.8 41.9771L47.884 41.9646V43.4406C47.884 43.6844 47.884 43.69 48.7701 43.69C49.5134 43.69 49.8115 43.5123 50.0727 42.9106H50.2392L49.9717 43.9158ZM54.5275 40.0914C54.1527 40.1326 53.9619 40.1569 53.9619 40.8528V43.9819H53.8609L51.2438 40.7225H51.2319V43.0428C51.2319 43.6539 51.3567 43.7855 51.7913 43.8042V43.9164H50.3932V43.8042C50.8453 43.7736 50.9701 43.6851 50.9701 43.0428V40.4194C50.7262 40.1207 50.6308 40.0921 50.3932 40.0921V39.9786H51.4103L53.6888 42.8407H53.7007V40.8528C53.7007 40.1681 53.5342 40.1207 53.1295 40.0914V39.9779H54.5275V40.0914ZM58.489 43.9158H56.9713V43.8035C57.192 43.8035 57.3878 43.7973 57.3878 43.5772C57.3878 43.4824 57.3099 43.286 57.2743 43.203L57.0311 42.6318H55.4722L55.1985 43.3271C55.1698 43.3989 55.1538 43.475 55.1511 43.5522C55.1511 43.8029 55.4304 43.8029 55.5551 43.8029V43.9151H54.3778V43.8029C54.4726 43.7967 54.5743 43.7848 54.6809 43.6713C54.8181 43.5229 55.002 43.0877 55.1155 42.827L56.3527 39.9062H56.4718L57.9528 43.2847C58.143 43.7181 58.2265 43.7842 58.4884 43.8023V43.9158H58.489ZM61.1355 41.1621H60.9864C60.8854 40.6738 60.505 40.1388 59.8802 40.1388C59.5828 40.1388 59.2797 40.3228 59.2797 40.6919C59.2797 41.5849 61.267 41.7027 61.267 42.9231C61.267 43.4288 60.8623 44 60.0112 44C59.5591 44 59.2679 43.7979 59.0895 43.7979C58.9642 43.7979 58.905 43.8989 58.905 43.9937H58.774L58.5957 42.7335H58.7322C58.8451 43.0122 59.1488 43.7861 59.9519 43.7861C60.4277 43.7861 60.6659 43.4462 60.6659 43.1257C60.6659 42.7871 60.5711 42.5838 59.6956 42.0725C59.1488 41.757 58.7678 41.4963 58.7678 40.9071C58.7678 40.2286 59.309 39.8963 59.8447 39.8963C60.2013 39.8963 60.5225 40.0983 60.6715 40.0983C60.838 40.0983 60.8673 39.9605 60.8798 39.8963H61.0039L61.1355 41.1621ZM67.3449 40.0914C66.9696 40.1326 66.78 40.1569 66.78 40.8528V43.9819H66.679L64.0612 40.7225H64.0494V43.0428C64.0494 43.6539 64.1741 43.7855 64.6081 43.8042V43.9164H63.2101V43.8042C63.6628 43.7736 63.7881 43.6851 63.7881 43.0428V40.4194C63.543 40.1207 63.4483 40.0921 63.2101 40.0921V39.9786H64.2284L66.5056 42.8407H66.5181V40.8528C66.5181 40.1681 66.351 40.1207 65.9469 40.0914V39.9779H67.3449V40.0914ZM71.627 40.0914C71.1699 40.1388 71.0683 40.228 71.0683 40.8528V42.4055C71.0683 42.8806 71.0683 44 69.5274 44C68.0521 44 68.0521 42.8407 68.0521 42.4822V40.6271C68.0521 40.1862 67.9685 40.1207 67.5164 40.0914V39.9779H69.2001V40.0914C68.7299 40.1282 68.6588 40.2037 68.6588 40.6271V42.5308C68.6588 42.9106 68.6588 43.7381 69.6939 43.7381C70.1579 43.7381 70.4971 43.5479 70.6692 43.2679C70.7459 43.1363 70.8064 42.9418 70.8064 42.4591V40.8528C70.8064 40.2168 70.6636 40.1145 70.247 40.0914V39.9779H71.627V40.0914ZM75.0123 43.9158H71.7997V43.8035C72.1807 43.7792 72.3173 43.7256 72.3173 43.2679V40.6277C72.3173 40.1575 72.1745 40.1214 71.7997 40.0921V39.9786H74.9587L74.9755 40.8285H74.8271C74.738 40.2997 74.5833 40.2037 73.9236 40.2037H73.1204C72.9957 40.2037 72.924 40.2037 72.924 40.407V41.727H73.84C74.3701 41.727 74.4293 41.5843 74.4954 41.1621H74.632V42.5433H74.4954C74.4237 42.0656 74.3345 41.9833 73.84 41.9771L72.924 41.9646V43.4406C72.924 43.6844 72.924 43.69 73.8107 43.69C74.554 43.69 74.8521 43.5123 75.114 42.9106H75.2805L75.0123 43.9158ZM79.2701 40.0914C78.9851 40.1095 78.9009 40.1925 78.7232 40.6445L77.4018 43.9819H77.3127L75.8492 40.7169C75.6053 40.175 75.4981 40.1045 75.2187 40.0921V39.9786H76.8001V40.0921C76.4677 40.1101 76.3543 40.1214 76.3543 40.3128C76.3543 40.402 76.4621 40.6452 76.5987 40.9488L77.4966 42.9598L78.3709 40.7761C78.3827 40.7406 78.4837 40.4911 78.4837 40.367C78.4837 40.122 78.2755 40.1052 78.0504 40.0933V39.9798H79.2694V40.0914H79.2701ZM82.9335 43.9158H81.417V43.8035C81.6365 43.8035 81.8329 43.7973 81.8329 43.5772C81.8329 43.4824 81.7556 43.286 81.7201 43.203L81.4762 42.6318H79.9173L79.6442 43.3271C79.6153 43.3988 79.5991 43.475 79.5962 43.5522C79.5962 43.8029 79.8762 43.8029 80.0009 43.8029V43.9151H78.8223V43.8029C78.9177 43.7967 79.0188 43.7848 79.126 43.6713C79.2632 43.5229 79.4471 43.0877 79.56 42.827L80.7965 39.9062H80.9157L82.3972 43.2847C82.5874 43.7181 82.6704 43.7842 82.9317 43.8023V43.9158H82.9335ZM85.8188 41.1621H85.6704C85.5687 40.6738 85.1883 40.1388 84.5635 40.1388C84.2661 40.1388 83.963 40.3228 83.963 40.6919C83.963 41.5849 85.9497 41.7027 85.9497 42.9231C85.9497 43.4288 85.5456 44 84.6945 44C84.2424 44 83.9518 43.7979 83.7722 43.7979C83.6475 43.7979 83.5883 43.8989 83.5883 43.9937H83.4573L83.279 42.7335H83.4155C83.5297 43.0122 83.8321 43.7861 84.6352 43.7861C85.1116 43.7861 85.3492 43.4462 85.3492 43.1257C85.3492 42.7871 85.2544 42.5838 84.3796 42.0725C83.8321 41.757 83.4517 41.4963 83.4517 40.9071C83.4517 40.2286 83.9923 39.8963 84.5286 39.8963C84.8853 39.8963 85.207 40.0983 85.3555 40.0983C85.5219 40.0983 85.5513 39.9605 85.5637 39.8963H85.6884L85.8188 41.1621Z" fill="#868686"/>
<path fill-rule="evenodd" clip-rule="evenodd" d="M39.8828 43.4532C39.8828 43.6727 39.9901 43.697 40.3355 43.697C40.7277 43.697 41.4473 43.6434 41.4473 42.8458C41.4473 42.3588 41.1561 42.1624 40.8468 42.0664C40.6448 42.0078 40.454 41.9772 39.8828 41.9772V43.4532ZM39.8828 41.7459L40.4484 41.7396C40.6149 41.7396 41.3226 41.7271 41.3226 41.02C41.3226 40.3129 40.7041 40.1994 40.2819 40.1994C40.1566 40.1994 40.0736 40.2044 40.0144 40.2044C39.8947 40.2044 39.8828 40.2886 39.8828 40.3771V41.7459ZM56.948 42.3888L56.2577 40.7519L55.5736 42.3888H56.948ZM81.3925 42.3888L80.7034 40.7519L80.0188 42.3888H81.3925ZM107.672 28.0149C107.226 28.3653 106.492 28.6516 104.645 28.939C102.987 29.2252 101.618 29.6393 101.618 31.4882C101.618 33.0496 102.828 33.5279 103.689 33.5279C105.665 33.5279 107.673 32.2514 107.673 30.1812V28.0149H107.672ZM58.5113 28.0149C58.0648 28.3653 57.3321 28.6516 55.4839 28.939C53.8264 29.2252 52.4564 29.6393 52.4564 31.4882C52.4564 33.0496 53.6674 33.5279 54.5273 33.5279C56.5034 33.5279 58.5113 32.2514 58.5113 30.1812V28.0149Z" fill="white"/>
<path fill-rule="evenodd" clip-rule="evenodd" d="M19.1644 18.5498L16.2324 27.5996H16.9682L19.5585 19.6055L19.228 18.5498H19.1644ZM53.026 32.9717C52.9623 32.7482 52.931 32.5168 52.9331 32.2845C52.9331 30.4356 54.3037 30.0216 55.9606 29.7353C57.2757 29.5308 58.0258 29.3275 58.5103 29.0993V28.0143C58.0639 28.3647 57.3312 28.651 55.4829 28.9384C53.8255 29.2246 52.4555 29.6387 52.4555 31.4876C52.4555 32.1754 52.6899 32.653 53.026 32.9717ZM102.186 32.9717C102.123 32.7482 102.092 32.5168 102.094 32.2845C102.094 30.4356 103.465 30.0216 105.121 29.7353C106.436 29.5308 107.187 29.3275 107.671 29.0993V28.0143C107.225 28.3647 106.491 28.651 104.644 28.9384C102.986 29.2246 101.617 29.6387 101.617 31.4876C101.616 32.1754 101.851 32.653 102.186 32.9717Z" fill="#C6C7C9"/>
</g>
</svg>
