<svg width="120" height="44" viewBox="0 0 120 44" fill="none" xmlns="http://www.w3.org/2000/svg">
<mask id="mask0_1543_46423" style="mask-type:alpha" maskUnits="userSpaceOnUse" x="0" y="0" width="120" height="44">
<rect width="120" height="44" fill="#D9D9D9"/>
</mask>
<g mask="url(#mask0_1543_46423)">
<path fill-rule="evenodd" clip-rule="evenodd" d="M29.8249 20.5513H22.1203C21.2929 20.5513 20.967 20.3696 20.6078 19.652L16.6805 11.9208C16.2956 11.1697 15.8698 10.4686 14.9173 10.4686C13.9564 10.4686 13.5299 11.1697 13.154 11.9208L9.21769 19.652C8.84953 20.3696 8.53267 20.5513 7.70525 20.5513H0C0.961473 13.2412 7.78863 9 14.9166 9C22.0363 9 28.8551 13.2412 29.8249 20.5513ZM29.8249 22.4569C28.8551 29.7594 22.0363 34 14.9166 34C7.78863 34 0.960831 29.767 0 22.4569H7.70461C8.53203 22.4569 8.84953 22.6311 9.21705 23.3486L13.1527 31.0881C13.5286 31.8303 13.9551 32.5403 14.916 32.5403C15.8685 32.5403 16.2944 31.8392 16.6792 31.0881L20.6066 23.3486C20.9664 22.6311 21.2916 22.4569 22.119 22.4569H29.8249ZM38.7995 27.9026L41.8584 14.528C42.6775 10.9474 44.7915 9.38758 48.4681 9.38758C50.6412 9.38758 52.897 10.2869 52.897 12.7782C52.897 13.447 52.797 14.1316 52.6462 14.7833L49.5713 28.5454C48.7856 32.0608 46.7382 33.9335 42.9783 33.76C41.9418 33.7194 40.6968 33.6118 39.8444 32.9595C38.9752 32.2914 38.432 31.3414 38.432 30.2446C38.432 29.4542 38.6244 28.6695 38.7995 27.9026ZM49.9555 33.2077L55.1612 9.82519H59.6241L55.1452 29.9152H59.2566L58.5292 33.2077H49.9555ZM60.0167 33.2077L65.223 9.82519H69.861L64.6547 33.2077H60.0167ZM66.5764 33.2077L71.7827 9.82519H78.2417L77.5567 23.8768L80.6823 9.82519H84.2504L79.0447 33.2077H73.6967L74.1893 14.8827L70.1869 33.2077H66.5764ZM86.9584 24.1807H91.4958L90.3836 29.1483C90.3425 29.3389 90.3008 29.5283 90.3008 29.717C90.3008 30.1141 90.6857 30.3934 91.0686 30.3934C91.7799 30.3934 92.0718 29.7341 92.2058 29.1477L92.8074 26.4498C92.8575 26.2434 92.8915 26.0369 92.8915 25.8229C92.8915 25.1548 92.4983 24.6266 92.1474 24.0902L91.6792 23.3644L89.7075 20.5513C89.0898 19.6603 88.5626 18.7198 88.5626 17.6141C88.5626 17.0118 88.6877 16.4013 88.8217 15.8155L89.3317 13.5217C89.5908 12.3748 90.2925 11.4344 91.2206 10.7245C92.5913 9.67636 94.1371 9.31348 95.8407 9.31348C97.0023 9.31348 98.2235 9.46167 99.1593 10.1963C99.802 10.6915 100.253 11.5161 100.253 12.3337C100.253 13.0759 100.078 13.8352 99.9194 14.5616L99.1503 18.0099H94.6881L95.6579 13.6288C95.6906 13.5135 95.7079 13.39 95.7079 13.2741C95.7079 12.8783 95.4238 12.5395 95.0139 12.5395C94.0941 12.5395 93.9113 13.3153 93.7439 14.0499L93.3507 15.8155C93.305 16.0132 93.2799 16.215 93.2757 16.4178C93.2757 16.9871 93.6278 17.6388 93.9607 18.0846L96.0844 20.9478C97.0613 22.2593 97.6212 23.0186 97.6212 24.7019C97.6212 25.2548 97.5045 25.8077 97.3871 26.3435L96.7605 29.149C96.0754 32.2014 93.5771 33.6872 90.5093 33.6872C88.0366 33.6872 85.7892 32.8708 85.7892 30.1223C85.7892 29.2971 86.0059 28.4808 86.181 27.681L86.9584 24.1807ZM97.2947 33.2077L102.502 9.82519H106.871L104.532 20.3449L109.412 9.82519H113.766L108.626 19.685L108.777 33.2077H104.498L104.507 21.1371L101.816 33.2077H97.2947ZM110.172 33.2077L115.379 9.82519H120L114.794 33.2077H110.172Z" fill="#868686"/>
<path fill-rule="evenodd" clip-rule="evenodd" d="M43.2036 28.7119L43.1035 29.1166C43.0732 29.2572 43.0592 29.4009 43.0618 29.5447C43.0618 30.007 43.346 30.3205 43.8219 30.3205C44.3985 30.3205 44.7417 29.8259 44.8501 29.3148L48.3009 13.8111C48.3426 13.6211 48.3759 13.4311 48.3759 13.2417C48.3759 12.8624 48.0674 12.5736 47.6826 12.5736C46.9725 12.5736 46.6627 13.217 46.5293 13.8111L43.2036 28.7119Z" fill="white"/>
</g>
</svg>
