<svg width="120" height="44" viewBox="0 0 120 44" fill="none" xmlns="http://www.w3.org/2000/svg">
<mask id="mask0_1543_46441" style="mask-type:alpha" maskUnits="userSpaceOnUse" x="0" y="0" width="120" height="44">
<rect width="120" height="44" fill="#D9D9D9"/>
</mask>
<g mask="url(#mask0_1543_46441)">
<path fill-rule="evenodd" clip-rule="evenodd" d="M25.1521 10.3128V12.1509H36.8163L23.1413 31.4569H40.5512V29.102H38.8852C38.4831 29.274 37.6207 29.6181 37.6207 29.6181H28.9444C28.3695 29.6181 27.9673 29.102 28.3695 28.6418L40.5506 11.4039V10.3121H25.1521V10.3128ZM11.1323 9.61428C4.98373 9.61428 0 14.6349 0 20.8278C0 27.0208 4.98373 32.0414 11.1323 32.0414C17.2802 32.0414 22.2646 27.0201 22.2646 20.8278C22.2646 14.6356 17.2802 9.61428 11.1323 9.61428ZM11.1323 11.0768C15.7098 11.0768 19.4208 15.4426 19.4208 20.8272C19.4208 26.2117 15.7098 30.5782 11.1323 30.5782C6.55484 30.5782 2.84384 26.2117 2.84384 20.8272C2.84384 15.4426 6.55484 11.0768 11.1323 11.0768ZM108.867 9.61428C102.719 9.61428 97.7354 14.6349 97.7354 20.8278C97.7354 27.0208 102.719 32.0414 108.867 32.0414C115.016 32.0414 120 27.0201 120 20.8278C120 14.6356 115.016 9.61428 108.867 9.61428ZM108.867 11.0768C113.445 11.0768 117.155 15.4426 117.155 20.8272C117.155 26.2117 113.445 30.5782 108.867 30.5782C104.29 30.5782 100.58 26.2117 100.58 20.8272C100.581 15.4426 104.29 11.0768 108.867 11.0768ZM93.7561 10.3128H83.5858C84.2181 15.0241 84.5636 16.8628 84.5636 20.7698C84.5636 24.6768 84.2181 28.3536 83.8152 31.4569H93.8134V29.6181H87.9523C87.3214 29.6181 87.0333 29.2167 87.0906 28.6991V21.5161H92.7797V19.678H87.0906V13.1273C87.0906 12.6104 87.2627 12.2082 87.7229 12.1502H93.7561V10.3128ZM60.7757 3.00003C50.4545 3.00003 42.0869 11.3677 42.0869 21.6895C42.0869 32.0107 50.4545 40.379 60.7757 40.379C71.0975 40.379 79.4645 32.0107 79.4645 21.6895C79.4645 17.3824 78.0081 13.4154 75.5596 10.3701H60.7757V18.5869L70.7097 18.5965C71.0135 19.5735 71.1767 20.6128 71.1767 21.6895C71.1767 27.4339 66.5214 32.0906 60.7763 32.0906C55.0327 32.0906 50.376 27.4339 50.376 21.6895C50.376 15.9452 55.0327 11.2885 60.7763 11.2885V3.00003H60.7757Z" fill="#868686"/>
</g>
</svg>
