<svg width="120" height="44" viewBox="0 0 120 44" fill="none" xmlns="http://www.w3.org/2000/svg">
<mask id="mask0_1543_46379" style="mask-type:alpha" maskUnits="userSpaceOnUse" x="0" y="0" width="120" height="44">
<rect width="120" height="44" fill="#D9D9D9"/>
</mask>
<g mask="url(#mask0_1543_46379)">
<path fill-rule="evenodd" clip-rule="evenodd" d="M9.58715 30.7367C10.5223 30.7367 11.0252 31.4678 11.0252 32.3941C11.0252 33.5873 10.3171 34.8665 8.97781 34.8665C7.96438 34.8665 7.48268 34.1983 7.48268 33.2301C7.48268 32.0221 8.17733 30.7367 9.58715 30.7367V30.1753C7.85855 30.1753 6.80984 31.6083 6.80984 33.2301C6.80984 34.6134 7.59621 35.4278 8.97781 35.4278C10.6641 35.4278 11.698 33.9675 11.698 32.3947C11.698 31.1518 10.8975 30.176 9.58651 30.176V30.7367H9.58715ZM14.1065 30.8575H15.5022C16.0051 30.8575 16.4938 30.9903 16.4938 31.6146C16.4938 31.9732 16.3098 32.6058 15.2469 32.6058H13.7313L13.6107 33.1671H15.1058C15.3964 33.1671 16.0763 33.0406 15.864 34.2352C15.7652 34.7482 15.7864 35.1265 15.8499 35.3089H16.5509C16.3457 34.909 16.5157 34.4806 16.5439 34.0241C16.5933 33.5187 16.4656 33.0692 16.0263 32.9351V32.9217C16.6997 32.8238 17.1667 32.2415 17.1667 31.5733C17.1667 30.5835 16.3591 30.2955 15.5022 30.2955H13.5536L12.4838 35.3096H13.1566L14.1065 30.8575ZM25.4274 30.7367C26.3626 30.7367 26.8654 31.4678 26.8654 32.3941C26.8654 33.5873 26.1567 34.8665 24.8181 34.8665C23.8046 34.8665 23.3229 34.1983 23.3229 33.2301C23.3229 32.0221 24.0169 30.7367 25.4274 30.7367V30.1753C23.6982 30.1753 22.6501 31.6083 22.6501 33.2301C22.6501 34.6134 23.4365 35.4278 24.8181 35.4278C26.5037 35.4278 27.5389 33.9675 27.5389 32.3947C27.5389 31.1518 26.7378 30.176 25.4274 30.176V30.7367ZM5.31408 7H12.0053L15.3015 11.974L20.2711 7H32.8658L31.7344 12.0719H25.8302L26.5685 8.56075L23.2229 12.0719H15.2521L12.8417 14.51H20.8612L18.4508 16.8508L23.1247 23.8726L25.2895 14.51H31.193L28.2413 27.0913H18.5489L14.5145 20.9469L8.36462 27.0913H0.443214L11.3164 16.0701L5.31408 7ZM0 28.5052H120V28.9204H0V28.5052ZM0 36.5849H120V37H0V36.5849ZM84.87 14.51H76.8999L79.2615 12.0719H87.2817L92.3001 7H84.3287L79.4578 11.8768L76.211 7H54.0221L52.8412 12.0719H68.7334L69.7655 7.34139L75.4727 15.9729L70.0118 21.5324H56.5806L57.2201 18.8985H65.9286L67.0112 14.51H52.3005L51.8984 16.2526C51.9157 16.0936 51.942 15.9404 51.9561 15.7777C52.5462 8.75529 48.3154 7 43.9859 7H35.3269L34.1461 12.0719H42.8051C45.7575 12.2671 46.7902 13.3886 45.6587 17.1439C44.5542 20.8089 41.723 21.533 37.8848 21.533L39.5576 14.5107H33.6541L30.8005 27.092H37.5898C45.0385 27.092 49.3545 24.3602 51.103 19.7008L49.3975 27.092H72.4722L78.6721 20.753L82.8047 27.092H89.4958L82.6571 16.7542L84.87 14.51ZM5.68481 33.616C5.43017 34.7399 4.69319 35.4278 3.44629 35.4278C2.0647 35.4278 1.27833 34.6134 1.27833 33.2301C1.27833 31.6083 2.32703 30.1753 4.05563 30.1753C5.14667 30.1753 5.98243 30.7513 5.98243 31.9103H5.30959C5.30959 31.1232 4.79197 30.7367 4.05563 30.7367C2.64581 30.7367 1.95181 32.0215 1.95181 33.2301C1.95181 34.1983 2.43287 34.8665 3.44629 34.8665C4.27499 34.8665 4.79261 34.396 5.01197 33.616H5.68481ZM19.2532 30.8575H20.6771C21.1235 30.8575 21.5058 31.0609 21.5058 31.6782C21.5058 32.2752 21.1088 32.6967 20.3866 32.6967H18.8632L18.7426 33.2593H20.2448C21.7322 33.2593 22.1793 32.3044 22.1793 31.6788C22.1793 30.7659 21.6476 30.2955 20.6771 30.2955H18.6862L17.6304 35.3096H18.3039L19.2532 30.8575ZM29.9583 30.8575H31.354C31.8569 30.8575 32.3456 30.9903 32.3456 31.6146C32.3456 31.9732 32.1609 32.6058 31.0987 32.6058H29.5831L29.4625 33.1671H30.9576C31.2482 33.1671 31.9281 33.0406 31.7158 34.2352C31.617 34.7482 31.6375 35.1265 31.7017 35.3089H32.4034C32.1981 34.909 32.3674 34.4806 32.3963 34.0241C32.4457 33.5187 32.3181 33.0692 31.8787 32.9351V32.9217C32.5515 32.8238 33.0191 32.2415 33.0191 31.5733C33.0191 30.5835 32.2116 30.2955 31.354 30.2955H29.4054L28.3362 35.3096H29.009L29.9583 30.8575ZM36.8753 33.2377L36.4994 30.8848H36.4853L35.1319 33.2377L34.8272 33.799L33.9415 35.3083H33.191L36.2377 30.2948H36.974L37.8881 35.3083H37.194L36.9599 33.799H34.8272L35.1319 33.2377H36.8753ZM42.6569 30.8575H40.9566L40.0073 35.3083H39.3344L40.2837 30.8575H38.584L38.7039 30.2948H42.7852L42.6569 30.8575ZM43.485 30.2948H44.1578L43.095 35.3083H42.4222L43.485 30.2948ZM47.4983 30.7367C48.4335 30.7367 48.9363 31.4678 48.9363 32.3941C48.9363 33.5873 48.2276 34.8665 46.889 34.8665C45.8762 34.8665 45.3938 34.1983 45.3938 33.2301C45.3938 32.0221 46.0885 30.7367 47.4983 30.7367V30.1753C45.7697 30.1753 44.721 31.6083 44.721 33.2301C44.721 34.6134 45.5074 35.4278 46.889 35.4278C48.5752 35.4278 49.6092 33.9675 49.6092 32.3947C49.6092 31.1518 48.8087 30.176 47.4983 30.176V30.7367ZM51.1858 30.2948H51.9086L53.7148 34.4443H53.7289L54.5724 30.2948H55.2241L54.1542 35.3083H53.432L51.6392 31.1861H51.6251L50.7676 35.3083H50.1159L51.1858 30.2948Z" fill="#868686"/>
</g>
</svg>
