<?xml version="1.0" encoding="utf-8"?>
<!-- Generator: Adobe Illustrator 24.1.2, SVG Export Plug-In . SVG Version: 6.00 Build 0)  -->
<svg version="1.1" id="Layer_1" xmlns="http://www.w3.org/2000/svg" xmlns:xlink="http://www.w3.org/1999/xlink" x="0px" y="0px"
	 viewBox="0 0 160 37" style="enable-background:new 0 0 160 37;" xml:space="preserve">
<style type="text/css">
	.st0{clip-path:url(#SVGID_2_);}
	.st1{fill:url(#SVGID_3_);}
	.st2{fill:#FFFFFF;stroke:#000000;stroke-miterlimit:10;}
</style>
<g>
	<defs>
		<rect id="SVGID_1_" width="42.1" height="37"/>
	</defs>
	<clipPath id="SVGID_2_">
		<use xlink:href="#SVGID_1_"  style="overflow:visible;"/>
	</clipPath>
	<g class="st0">
		
			<linearGradient id="SVGID_3_" gradientUnits="userSpaceOnUse" x1="-2.124671e-08" y1="19.4987" x2="42.1053" y2="19.4987" gradientTransform="matrix(1 0 0 -1 0 38)">
			<stop  offset="0" style="stop-color:#F86CA7"/>
			<stop  offset="1" style="stop-color:#FF7F18"/>
		</linearGradient>
		<path class="st1" d="M9.8,0.2C7.2,0.6,5.2,1.6,3.3,3.4c-1.8,1.7-2.8,3.7-3.2,6c-0.2,0.9-0.2,2.8,0,3.8C0.6,17,2.8,21,6.5,25.2
			c3.3,3.7,8.3,7.8,13.4,11c0.6,0.4,1.2,0.7,1.2,0.7c0.1,0,1.2-0.7,2.8-1.7C30,31,35.4,26,38.5,21.5c2.4-3.6,3.6-6.9,3.6-10.1
			c0-3.2-1.1-5.8-3.3-8c-1.6-1.6-3.1-2.5-5.3-3c-1.1-0.3-3.1-0.4-4.2-0.2c-3.1,0.4-5.7,2-7.6,4.5c-0.3,0.4-0.6,0.7-0.6,0.7
			c0,0-0.3-0.3-0.6-0.7c-1.8-2.4-4.3-3.9-7.3-4.4C12.5,0.1,10.4,0.1,9.8,0.2z M17.4,6.9c1.3,0.6,2.2,2.2,2.4,4
			c0.1,1.3-0.3,2.4-1,3.1c-1,0.9-2.2,0.7-3.2-0.4c-1.9-1.9-1.7-5.8,0.2-6.7C16.2,6.7,17,6.7,17.4,6.9z M26.6,7
			c1.4,0.9,1.7,3.4,0.8,5.4c-0.4,0.7-1,1.5-1.6,1.8c-1.5,0.8-2.9-0.1-3.3-1.9c-0.5-2.1,0.5-4.5,2.1-5.3c0.5-0.2,0.6-0.3,1.1-0.2
			C26.1,6.8,26.3,6.9,26.6,7z M11.5,13.3c0.4,0.1,0.6,0.3,1.1,0.8c1.3,1.3,1.8,3.2,1.1,4.6c-0.8,1.6-2.9,1.3-4.1-0.6
			c-1.2-1.8-1.1-4,0.3-4.7C10.4,13.1,10.9,13.1,11.5,13.3z M32.2,13.3c2,1,1.1,5-1.3,6.1c-0.9,0.4-1.9,0.2-2.4-0.5
			c-0.9-1.3-0.5-3.5,0.9-4.9C30.4,13.1,31.4,12.9,32.2,13.3z M22.4,17c2.9,0.5,5.3,2.8,6.3,5.9c0.2,0.7,0.2,0.9,0.2,2.2
			c0,2.5-0.4,3.6-1.6,3.8c-0.5,0.1-0.8,0-1.6-0.5c-0.4-0.3-1-0.6-1.4-0.8c-2.5-1.2-5.6-0.9-7.8,0.8c-0.6,0.5-1.1,0.6-1.6,0.6
			c-1.2-0.2-1.7-1.2-1.7-3.8c0-1.3,0-1.5,0.2-2.2C14.7,18.8,18.4,16.3,22.4,17z"/>
	</g>
</g>
<path class="st2" d="M54.1,31h-8.3v-5.4h1.4V13.7h-1.4V8.3h8.7c2,0,3.5,0.3,4.4,0.9c0.9,0.6,1.6,1.5,2,2.6c0.4,1.1,0.7,2.3,0.7,3.6
	c0,1.6-0.3,2.9-0.8,4c-0.5,1.1-1.2,1.8-2,2.3c-0.8,0.5-2.1,0.7-3.9,0.7h-2.2v3.2h1.4V31z M52.6,13.3v4.2h1.1c0.7,0,1.3-0.1,1.6-0.4
	c0.3-0.3,0.5-0.8,0.5-1.6c0-0.5-0.1-1-0.3-1.4c-0.2-0.4-0.4-0.6-0.7-0.7c-0.3-0.1-0.7-0.1-1.4-0.1H52.6z"/>
<path class="st2" d="M70.1,26l4.2,0.8c-0.2,0.7-0.5,1.3-0.8,1.9c-0.3,0.6-0.8,1-1.2,1.5c-1,0.8-2.2,1.3-3.5,1.3
	c-2.3,0-4-0.8-5.2-2.3c-1.2-1.5-1.7-3.5-1.7-6c0-2.4,0.6-4.4,1.7-6c1.1-1.6,2.7-2.4,4.6-2.4c1.9,0,3.4,0.8,4.6,2.3
	c1.2,1.5,1.8,3.8,1.8,6.9h-7.8c0,2.6,0.6,3.8,1.8,3.8C69.3,27.7,69.8,27.1,70.1,26z M66.8,21.8h2.9c0-0.3,0-0.5,0-0.6
	c0-0.9-0.1-1.6-0.4-2.1c-0.3-0.6-0.6-0.8-1.1-0.8c-0.5,0-0.8,0.3-1.1,0.9c-0.2,0.6-0.4,1.4-0.4,2.3C66.8,21.6,66.8,21.7,66.8,21.8z"
	/>
<path class="st2" d="M84.2,25.2V30c-0.3,0.4-0.8,0.7-1.4,0.9c-0.7,0.3-1.3,0.4-1.9,0.4c-0.8,0-1.4-0.2-2-0.6c-0.6-0.4-1-1-1.3-1.7
	c-0.2-0.4-0.3-0.8-0.3-1.1c-0.1-0.3-0.1-0.7-0.2-1.1c0-0.7-0.1-2.1-0.1-4.2v-2.7h-1.3v-5H77v-2.4l5.1-3.9v6.3h2.1v5h-2.1v3.1
	c0,1,0.1,1.7,0.2,2c0.1,0.3,0.3,0.5,0.7,0.5C83.4,25.7,83.8,25.5,84.2,25.2z"/>
<path class="st2" d="M93.6,31.2h-4.1l-3-11h-1.1v-5h6.7v5h-1l1.2,5.3l2.4-10.2h3.8l2.2,10.2l1.3-5.3H101v-5h4.8v5h-1l-2.9,11H98
	l-2.3-8.1L93.6,31.2z"/>
<path class="st2" d="M106.8,23c0-2.3,0.6-4.3,1.8-5.9c1.2-1.6,2.9-2.4,4.9-2.4c2.1,0,3.8,0.8,5.1,2.3c1.3,1.5,2,3.5,2,6
	c0,2.4-0.6,4.4-1.9,6s-2.9,2.4-4.9,2.4c-2.2,0-3.9-0.8-5.2-2.4C107.4,27.4,106.8,25.4,106.8,23z M112,23c0,2.5,0.6,3.8,1.7,3.8
	c1.2,0,1.8-1.3,1.8-3.8c0-1.2-0.1-2.1-0.4-2.7c-0.3-0.6-0.7-1-1.3-1c-0.5,0-1,0.3-1.3,0.9C112.1,20.9,112,21.8,112,23z"/>
<path class="st2" d="M130.1,31h-8v-5h1.3v-5.9h-1.3v-5h6.1v4c0.2-1,0.6-1.8,1.1-2.6c0.5-0.7,0.9-1.2,1.4-1.4c0.5-0.2,1.1-0.3,2-0.3
	v7c-0.1,0-0.3,0-0.4,0c-1,0-1.8,0.2-2.3,0.5c-0.5,0.3-0.9,0.8-1.1,1.4c-0.2,0.6-0.3,1.4-0.3,2.3h1.5V31z"/>
<path class="st2" d="M140.6,31h-7.1v-5h1V13.3h-1v-5h6.2V26h0.9V31z"/>
<path class="st2" d="M157.3,26v5h-6.4v-1.1c-1,0.9-2,1.4-3.3,1.4c-1.4,0-2.6-0.7-3.7-2c-1.1-1.4-1.6-3.3-1.6-5.8
	c0-2.7,0.5-4.8,1.5-6.3c1-1.5,2.3-2.2,4-2.2c1.2,0,2.3,0.4,3.1,1.3v-2.9h-1.3v-5h6.4V26H157.3z M150.9,23c0-1-0.1-1.8-0.4-2.5
	c-0.3-0.7-0.7-1-1.3-1c-1.2,0-1.7,1.2-1.7,3.6c0,1,0.1,1.8,0.4,2.4c0.3,0.7,0.7,1,1.3,1c0.5,0,0.9-0.3,1.3-0.9
	C150.7,25.1,150.9,24.2,150.9,23z"/>
</svg>
