<svg width="43" height="37" viewBox="0 0 43 37" fill="none" xmlns="http://www.w3.org/2000/svg">
<path d="M9.82353 0.196818C7.21819 0.588463 5.15672 1.61544 3.32334 3.43442C1.5689 5.17507 0.542552 7.11589 0.130259 9.48316C-0.0276404 10.3796 -0.0451847 12.2682 0.0951703 13.2517C0.61273 16.9592 2.797 21.0236 6.49887 25.1577C9.84107 28.8914 14.7974 32.9819 19.8501 36.1586C20.4642 36.5502 21.0081 36.8635 21.0519 36.8635C21.166 36.8635 22.2888 36.1673 23.8678 35.1142C30.0259 30.9975 35.4471 25.9671 38.4735 21.5458C40.9209 17.9688 42.1052 14.6877 42.1052 11.4501C42.1052 8.25601 41.035 5.67115 38.7805 3.43442C37.1928 1.85913 35.6313 0.980108 33.4646 0.431805C32.3856 0.153301 30.3329 0.0575659 29.2188 0.214224C26.1486 0.658089 23.4818 2.23337 21.6572 4.67898C21.359 5.07063 21.087 5.40135 21.0519 5.40135C21.0168 5.40135 20.7537 5.08803 20.4642 4.70509C18.6747 2.303 16.1746 0.779934 13.2096 0.266443C12.499 0.144598 10.4288 0.101082 9.82353 0.196818ZM17.4466 6.92441C18.7098 7.49883 19.6747 9.10893 19.7975 10.8844C19.894 12.2247 19.5256 13.3213 18.7712 14.0001C17.8062 14.8618 16.6044 14.7051 15.5342 13.5824C13.6833 11.6416 13.8061 7.80344 15.7448 6.91571C16.2097 6.69813 16.9553 6.70683 17.4466 6.92441ZM26.5696 7.03756C27.9556 7.9514 28.3153 10.4405 27.3328 12.4597C26.9819 13.1907 26.3065 13.9479 25.7275 14.2525C24.2626 15.0358 22.8239 14.2003 22.4028 12.3378C21.9379 10.2578 22.8941 7.81214 24.4994 7.01145C24.9731 6.76776 25.1135 6.74165 25.6222 6.76776C26.0784 6.79387 26.2802 6.85479 26.5696 7.03756ZM11.5429 13.2865C11.9201 13.4257 12.192 13.6259 12.6219 14.0524C13.9201 15.3491 14.3938 17.29 13.7272 18.6303C12.9552 20.2055 10.8499 19.8922 9.63931 18.0384C8.4463 16.2108 8.56911 13.9914 9.90248 13.3039C10.3937 13.0515 10.8937 13.0515 11.5429 13.2865ZM32.1926 13.2952C34.1488 14.2786 33.3067 18.2995 30.9206 19.4223C30.0347 19.84 29.0083 19.6311 28.5434 18.9436C27.6486 17.6033 28.0609 15.471 29.482 14.0524C30.3855 13.1472 31.3593 12.8774 32.1926 13.2952ZM22.3678 16.9679C25.3152 17.4988 27.7013 19.753 28.6486 22.8948C28.868 23.5998 28.8855 23.8174 28.8943 25.1142C28.9118 27.6642 28.4644 28.6999 27.2802 28.9001C26.7539 28.9871 26.4556 28.8827 25.6749 28.3518C25.2801 28.0907 24.6398 27.7251 24.245 27.5424C21.7449 26.3761 18.6922 26.6894 16.4465 28.3518C15.8062 28.8304 15.3763 28.9784 14.8675 28.9088C13.6482 28.726 13.192 27.6903 13.2096 25.1142C13.2184 23.8174 13.2359 23.5998 13.4552 22.8948C14.7096 18.7521 18.4466 16.263 22.3678 16.9679Z" fill="url(#paint0_linear_1007_5)"/>
<defs>
<linearGradient id="paint0_linear_1007_5" x1="0" y1="18.5013" x2="42.1052" y2="18.5013" gradientUnits="userSpaceOnUse">
<stop stop-color="#F86CA7"/>
<stop offset="1" stop-color="#FF7F18"/>
</linearGradient>
</defs>
</svg>
