<svg width="120" height="44" viewBox="0 0 120 44" fill="none" xmlns="http://www.w3.org/2000/svg">
<mask id="mask0_1543_46410" style="mask-type:alpha" maskUnits="userSpaceOnUse" x="0" y="0" width="120" height="44">
<rect width="120" height="44" fill="#D9D9D9"/>
</mask>
<g mask="url(#mask0_1543_46410)">
<path fill-rule="evenodd" clip-rule="evenodd" d="M29.6468 11.3212C29.6468 8.45334 29.6468 8.1675 28.1863 8.02395L27.4557 7.8804C27.1639 7.73748 27.1639 7.1639 27.4557 7.02035C29.3543 6.8768 31.9834 6.73389 34.6119 6.73389C36.9485 6.73389 38.9933 7.02035 40.4537 7.73748C41.9142 8.59752 43.0829 10.0311 43.0829 12.1812C43.0829 15.0485 40.8918 16.3392 39.4313 17.0557C39.2851 17.0557 39.2851 17.3421 39.4313 17.4857C41.9142 21.643 43.3747 24.2237 44.8352 25.3696C45.7113 26.0867 46.5875 26.2303 47.0256 26.2303C47.1718 26.3745 47.1718 26.8032 47.0256 26.9474C46.7337 26.9474 46.1494 27.0903 44.9808 27.0903C42.0605 27.0903 40.4537 25.9445 38.5552 23.0766C37.8253 21.7865 36.9485 20.0658 36.2186 18.9193C35.6343 18.0586 35.1962 17.9157 34.32 17.9157C33.2976 17.9157 33.2976 17.9157 33.2976 18.6322V22.5036C33.2976 25.6567 33.5901 25.8003 35.0493 25.9445L35.6336 26.0874C35.9261 26.2316 35.9261 26.8045 35.6336 26.948C34.3194 26.8039 32.8589 26.8039 31.5447 26.8039C30.2304 26.8039 28.7693 26.8039 27.3095 26.948C27.1632 26.8039 27.017 26.2309 27.3095 26.0874L28.0394 25.9445C29.4999 25.8003 29.6461 25.6567 29.6461 22.5036V11.3212H29.6468ZM33.2976 15.765C33.2976 16.7686 33.2976 16.7686 34.7581 16.7686C37.8253 16.7686 39.1395 15.3362 39.1395 12.4677C39.1395 10.0311 37.679 8.02395 34.9043 8.02395C33.2976 8.02395 33.2976 8.02395 33.2976 9.45756V15.765Z" fill="#868686"/>
<path fill-rule="evenodd" clip-rule="evenodd" d="M49.2167 11.3211C49.2167 8.45328 49.0705 8.16744 47.61 8.02389L46.8801 7.88034C46.5876 7.73742 46.5876 7.16385 46.8801 7.0203C48.7787 6.87675 51.4071 6.73383 54.0362 6.73383C56.3729 6.73383 58.417 7.0203 59.8775 7.73742C61.4842 8.59746 62.5072 10.0311 62.5072 12.1812C62.5072 15.0484 60.3162 16.3391 58.8564 17.0556C58.7101 17.0556 58.7101 17.3421 58.8564 17.4856C61.3386 21.6429 62.7984 24.2237 64.2595 25.3696C65.1357 26.0867 66.0125 26.2302 66.4506 26.2302C66.5968 26.3744 66.5968 26.8032 66.4506 26.9474C66.1581 26.9474 65.5744 27.0903 64.4058 27.0903C61.4842 27.0903 59.8775 25.9444 57.9789 23.0765C57.249 21.7865 56.3729 20.0658 55.6423 18.9192C55.058 18.0586 54.7661 17.9156 53.7437 17.9156C52.7214 17.9156 52.7213 17.9156 52.7213 18.6321V22.5036C52.7213 25.6567 53.0138 25.8002 54.4743 25.9444L55.058 26.0873C55.3505 26.2315 55.3505 26.8044 55.058 26.948C53.7437 26.8038 52.2833 26.8038 50.969 26.8038C49.6548 26.8038 48.1943 26.8038 46.8801 26.948C46.5876 26.8038 46.4414 26.2309 46.7339 26.0873L47.4638 25.9444C48.9242 25.8002 49.2167 25.6567 49.2167 22.5036V11.3211ZM52.7213 15.7649C52.7213 16.7685 52.7213 16.7685 54.1818 16.7685C57.249 16.7685 58.5632 15.3361 58.5632 12.4677C58.5632 10.0311 57.1028 8.02389 54.3281 8.02389C52.7214 8.02389 52.7213 8.02389 52.7213 9.45751V15.7649ZM88.0639 16.9121C88.0639 22.7901 83.3906 27.378 77.1107 27.378C70.247 27.378 66.1574 22.5036 66.1574 17.0556C66.1574 10.8911 70.8307 6.3038 77.2576 6.3038C84.4124 6.3038 88.0639 11.3211 88.0639 16.9121ZM70.3926 16.1956C70.3926 20.3529 72.2912 26.0867 77.5481 26.0867C81.054 26.0867 83.8281 23.5066 83.8281 17.4856C83.8281 12.8983 81.7833 7.59387 76.8182 7.59387C73.751 7.59387 70.3926 9.74398 70.3926 16.1956ZM119.171 7.73742C117.711 8.02389 117.273 8.74102 116.105 11.1776C113.767 16.3385 111.723 20.4958 109.971 24.6543C109.532 25.8002 109.387 26.6603 109.095 27.2345C108.949 27.2345 108.803 27.3786 108.511 27.3786C108.365 27.3786 108.072 27.2345 107.927 27.2345C107.343 25.3702 105.444 21.3564 104.13 18.7757C102.815 21.4994 101.355 24.3666 100.187 27.2345C100.187 27.2345 99.8946 27.3786 99.7483 27.3786C99.4558 27.3786 99.3102 27.2345 99.164 27.2345C98.7259 25.8008 97.8498 24.2243 96.9736 22.36L90.9855 10.0317C90.4018 8.5981 90.1093 8.16807 88.7951 7.88097L87.9189 7.5945C87.7727 7.45095 87.7727 6.87738 88.0652 6.73446C89.2338 6.87738 90.4025 6.87738 91.7167 6.87738C92.884 6.87738 94.0533 6.87738 95.5138 6.73446C95.8056 6.87738 95.8056 7.45095 95.66 7.5945L94.9295 7.73805C94.4907 7.88097 94.1983 8.02452 94.1983 8.31099C94.1983 8.59809 94.3452 9.17167 94.9295 10.3182L98.5803 18.0592C99.6027 20.3541 100.478 21.93 100.771 22.5042C101.355 21.2135 102.086 19.7799 102.816 18.2027C102.962 17.7727 103.254 17.3427 103.254 17.0562C103.254 16.9127 103.108 16.6262 102.962 16.1962L99.749 9.45814C99.1646 8.31099 98.7266 8.02453 97.8504 7.73805L96.9743 7.5945C96.828 7.45095 96.828 6.87738 97.1205 6.73446C98.4347 6.87738 99.4571 6.87738 100.479 6.87738C101.648 6.87738 102.816 6.87738 104.13 6.73446C104.422 6.87738 104.422 7.45095 104.13 7.5945L103.4 7.73805C102.961 7.88097 102.816 8.02452 102.816 8.16807C102.816 8.45455 102.816 8.74164 103.108 9.17166C103.838 10.7482 104.422 12.3254 105.152 13.6154C105.736 12.6118 106.175 11.4653 106.759 10.3182C107.198 9.31459 107.343 8.59809 107.343 8.31099C107.343 8.02452 107.197 7.88097 106.759 7.88097L105.883 7.5945C105.736 7.3074 105.736 6.87738 106.03 6.73446C106.759 6.87738 107.636 6.87738 108.804 6.87738C109.972 6.87738 110.703 6.87738 111.725 6.73446C112.017 6.87738 112.017 7.45095 111.725 7.5945L110.995 7.73805C109.827 8.02453 109.534 8.31099 108.512 10.1746C107.782 11.3218 107.052 13.0419 106.468 14.3326C106.176 14.619 106.03 15.049 106.03 15.1926C106.03 15.3368 106.176 15.6226 106.321 15.9091L107.636 18.7763C108.367 20.0664 109.096 21.93 109.389 22.5042C110.995 18.9199 112.601 14.9055 114.208 11.0353C114.792 9.74461 115.23 8.5981 115.23 8.16807C115.23 8.02452 114.647 7.88097 114.208 7.73805L113.624 7.5945C113.331 7.45095 113.331 6.87738 113.624 6.73446C114.792 6.87738 115.814 6.87738 116.837 6.87738C117.86 6.87738 118.881 6.87738 119.758 6.73446C120.05 6.87738 120.05 7.3074 119.904 7.5945L119.171 7.73742ZM10.9532 17.4856C10.0771 17.4856 10.0771 17.4856 9.639 18.4892L8.03228 23.0765C7.30237 25.3702 7.44796 25.5137 8.90844 25.6567L10.0771 25.8008C10.3689 26.0873 10.2227 26.8044 9.93019 26.948C8.7622 26.8038 7.44732 26.8038 5.84061 26.8038C4.52638 26.8038 3.35838 26.8038 2.04415 26.948C1.75167 26.8038 1.60543 26.2309 1.89791 25.8008L3.0659 25.6567C4.23454 25.5137 4.67262 25.0837 5.25693 23.9378C5.69501 22.933 6.27933 21.2135 7.15548 19.2063L12.5587 5.58732C12.9974 4.4408 13.2892 3.43721 13.2892 2.86364C14.6034 2.57716 15.9183 1 15.9183 1C16.2102 1 16.502 1.14355 16.6482 1.2871C17.2326 3.00719 17.8162 4.87082 18.4006 6.59091L23.9506 22.5042C24.8268 25.0843 25.1186 25.3708 27.0172 25.6573L27.6015 25.8015C27.8933 26.0879 27.8933 26.8051 27.7477 26.9486C26.141 26.8044 24.6805 26.8044 22.6357 26.8044C20.8834 26.8044 19.2767 26.9486 17.8156 26.9486C17.5238 26.8044 17.5238 26.0879 17.8156 25.8015L18.5468 25.6573C20.0073 25.5144 20.1535 25.3708 19.5692 23.6501L17.8162 18.4898C17.3782 17.4863 17.2326 17.4863 16.2108 17.4863H10.9532V17.4856ZM15.6265 15.7649C16.7951 15.7649 16.9407 15.622 16.6489 14.7619L15.0422 10.174C14.3123 8.16744 14.166 7.45032 13.8742 7.16385C13.7279 7.45032 13.2899 8.31036 12.7055 10.174L10.9539 14.6184C10.662 15.7649 10.662 15.7649 11.6838 15.7649H15.6265ZM29.6469 38.8463H101.791L97.5567 42L116.397 38.2721L97.5567 34.6884L101.354 37.412H29.3544L23.3669 33.829H0.584318L5.25758 37.412V38.8463L0 42H23.3669L29.6469 38.8463Z" fill="#868686"/>
<path fill-rule="evenodd" clip-rule="evenodd" d="M4.38159 33.829L7.59438 35.9785H8.03181L4.96527 33.829H4.38159ZM9.05485 33.829L12.2676 35.9785H12.8519L9.63917 33.829H9.05485ZM14.3124 33.829L17.5252 35.9785H17.9633L14.8967 33.829H14.3124ZM7.88621 39.8493L4.67343 42.0001H4.23535L7.30254 39.8493H7.88621ZM12.7057 39.8493L9.49293 42.0001H8.90861L12.1214 39.8493H12.7057ZM17.9633 39.8493L14.7505 42.0001H14.3124L17.5252 39.8493H17.9633Z" fill="#868686"/>
</g>
</svg>
