<svg width="120" height="44" viewBox="0 0 120 44" fill="none" xmlns="http://www.w3.org/2000/svg">
<mask id="mask0_1543_46383" style="mask-type:alpha" maskUnits="userSpaceOnUse" x="0" y="0" width="120" height="44">
<rect width="120" height="44" fill="#1F2124"/>
</mask>
<g mask="url(#mask0_1543_46383)">
<path d="M15.4451 13.3225C14.8418 12.9841 13.1126 13.1933 11.0358 13.8432C7.40112 16.3547 4.33362 20.0548 4.1194 25.9968C4.0805 26.1389 3.72214 25.9773 3.65112 25.9335C2.66956 24.0317 2.28073 22.0291 3.10034 19.1403C3.25315 18.8832 2.75347 18.5669 2.66393 18.6569C2.48393 18.8394 1.73417 19.6468 1.23612 20.5201C-1.23278 24.8496 0.381591 30.3968 4.70112 32.8246C9.01948 35.256 14.4727 33.6875 16.8771 29.3207C19.6589 24.2807 17.0759 14.2432 15.4451 13.3227V13.3225Z" fill="#868686"/>
<path d="M30.9023 15.7412C25.7821 15.7412 22.0654 19.5894 22.0654 24.8914C22.0654 30.2366 25.7723 33.9701 31.0809 33.9701C33.7621 33.9701 35.8849 33.1226 37.5731 31.3779C38.0775 30.8275 38.1316 30.297 38.1316 30.0942C38.1316 29.2299 37.4957 28.602 36.6199 28.602C36.1781 28.602 35.8089 28.7707 35.3852 29.1666C34.4292 30.0669 33.1704 30.9869 31.0809 30.9869C28.1751 30.9869 25.8121 28.7816 25.6633 25.9498H37.2279C38.4853 25.9498 39.0963 25.3551 39.0963 24.1333C39.0963 23.7731 39.0963 23.5137 39.0246 23.0015C38.4016 18.4557 35.3657 15.7419 30.9028 15.7419L30.9023 15.7412ZM30.9023 18.5796C33.6789 18.5796 35.4604 20.3685 35.5704 23.2554H25.6668C25.927 20.5836 28.1615 18.5796 30.9023 18.5796ZM50.1391 15.7412C47.8132 15.7412 45.5102 17.0934 44.6102 18.9713V17.8106C44.6102 16.013 43.2321 15.9218 42.956 15.9218C42.1394 15.9218 41.2664 16.4179 41.2664 17.8106V31.8273C41.2664 33.6943 42.7336 33.7886 43.0275 33.7886C43.3216 33.7886 44.7893 33.6943 44.7893 31.8273V24.3133C44.7893 21.0442 46.6221 18.7607 49.2459 18.7607C51.7872 18.7607 53.0231 20.4466 53.0231 23.9155V31.8273C53.0231 33.6943 54.4907 33.7886 54.7849 33.7886C55.0788 33.7886 56.546 33.6943 56.546 31.8273V22.7972C56.546 19.3864 54.8627 15.7424 50.1391 15.7424V15.7412ZM72.4856 15.922C71.6716 15.922 71.0812 16.402 70.7296 17.3464L65.91 29.5985L61.1268 17.3464C60.7523 16.388 60.1664 15.922 59.335 15.922C58.3638 15.922 57.5732 16.6882 57.5732 17.6303C57.5732 17.8632 57.5995 18.1657 57.7945 18.6377L63.3335 31.8588C63.9935 33.4539 65.0791 33.7886 65.8741 33.7886C66.6684 33.7886 67.7547 33.4539 68.4161 31.8598L73.991 18.565C74.1815 18.0987 74.2111 17.7563 74.2111 17.5943C74.2111 16.6413 73.4686 15.9222 72.4856 15.9222V15.922ZM82.7257 15.7412C80.4726 15.7412 78.374 16.3757 76.8175 17.5263C76.2895 17.8944 76.0329 18.3536 76.0329 18.9312C76.0329 19.7264 76.6333 20.3497 77.4016 20.3497C77.7337 20.3497 78.1057 20.2161 78.4469 19.9744C79.7852 19.0727 81.0426 18.6521 82.4036 18.6521C85.0082 18.6521 86.5036 19.9913 86.5036 22.3264V22.7131C80.6566 22.7195 74.7098 23.4334 74.7098 28.5755C74.7098 32.2763 77.8382 33.9332 80.9386 33.9332C83.4079 33.9332 85.38 32.944 86.6451 31.0713V31.9719C86.6451 33.3129 87.5357 33.7884 88.3003 33.7884C88.4611 33.7884 89.8823 33.7375 89.8823 31.9719V22.5425C89.8823 18.283 87.2062 15.7403 82.7254 15.7403L82.7257 15.7412ZM85.7625 25.3352H86.5036V26.1557C86.5036 29.1562 84.6136 31.0947 81.6895 31.0947C80.8957 31.0947 78.3051 30.908 78.3051 28.5032C78.3051 25.6636 82.5609 25.3355 85.7625 25.3355V25.3352ZM99.0581 19.158C100.599 19.158 100.677 17.9454 100.677 17.7025C100.677 16.9816 100.252 16.2108 99.0579 16.2108H95.8886V12.9701C95.8886 11.5225 94.9596 11.0088 94.1632 11.0088C93.8693 11.0088 92.4021 11.1031 92.4021 12.9701V28.3596C92.4021 31.9112 94.135 33.7884 97.4146 33.7884C98.2631 33.7884 99.09 33.6368 99.6304 33.3821C100.251 33.0693 100.606 32.5552 100.606 31.9719C100.606 31.149 100.015 30.5522 99.2013 30.5522C99.044 30.5522 98.8204 30.5915 98.5736 30.6633C98.272 30.7396 98.0676 30.7692 97.844 30.7692C96.5097 30.7692 95.8886 29.8888 95.8886 27.9981V19.1563H99.0581V19.158ZM110.706 15.7412C105.378 15.7412 101.512 19.5591 101.512 24.8185C101.512 27.3792 102.449 29.7132 104.149 31.39C105.836 33.0534 108.164 33.9694 110.706 33.9694C115.968 33.9694 119.936 30.0354 119.936 24.8187C119.936 19.5591 116.053 15.7415 110.706 15.7415H110.706V15.7412ZM110.706 30.9497C107.052 30.9497 105.141 27.8654 105.141 24.818C105.141 20.631 108.026 18.7242 110.706 18.7242C113.386 18.7242 116.27 20.631 116.27 24.818C116.27 29.0313 113.386 30.9497 110.706 30.9497Z" fill="#868686"/>
</g>
</svg>
